<?xml version="1.0" encoding="utf-8"?>
<!-- Generator: Adobe Illustrator 16.0.0, SVG Export Plug-In . SVG Version: 6.00 Build 0)  -->
<!DOCTYPE svg PUBLIC "-//W3C//DTD SVG 1.1//EN" "http://www.w3.org/Graphics/SVG/1.1/DTD/svg11.dtd">
<svg version="1.1" id="Layer_1" xmlns="http://www.w3.org/2000/svg" xmlns:xlink="http://www.w3.org/1999/xlink" x="0px" y="0px"
	 width="3300px" height="2200px" viewBox="0 0 3300 2200" enable-background="new 0 0 3300 2200" xml:space="preserve">
<g id="Notes">
	<rect id="artboard" fill="#FFFFFF" width="3300" height="2200"/>
	<line fill="none" stroke="#000000" stroke-width="0.5" x1="263" y1="292" x2="3036" y2="292"/>
	<text transform="matrix(1 0 0 1 263 322)" font-family="'Arial-BoldMT'" font-size="12">Weight/Scale Variations</text>
	<text transform="matrix(1 0 0 1 536.0361 322)" font-family="'ArialMT'" font-size="12">Ultralight</text>
	<text transform="matrix(1 0 0 1 844.75 322)" font-family="'ArialMT'" font-size="12">Thin</text>
	<text transform="matrix(1 0 0 1 1140.1191 322)" font-family="'ArialMT'" font-size="12">Light</text>
	<text transform="matrix(1 0 0 1 1428.8281 322)" font-family="'ArialMT'" font-size="12">Regular</text>
	<text transform="matrix(1 0 0 1 1725.2207 322)" font-family="'ArialMT'" font-size="12">Medium</text>
	<text transform="matrix(1 0 0 1 2018.2559 322)" font-family="'ArialMT'" font-size="12">Semibold</text>
	<text transform="matrix(1 0 0 1 2327.9707 322)" font-family="'ArialMT'" font-size="12">Bold</text>
	<text transform="matrix(1 0 0 1 2619.6836 322)" font-family="'ArialMT'" font-size="12">Heavy</text>
	<text transform="matrix(1 0 0 1 2918.7285 322)" font-family="'ArialMT'" font-size="12">Black</text>
	<line fill="none" stroke="#000000" stroke-width="0.5" x1="263" y1="1903" x2="3036" y2="1903"/>
	<g transform="matrix(1 0 0 1 263 1933)">
		<path d="M9.248,0.83c4.307,0,7.891-3.574,7.891-7.881c0-4.308-3.594-7.881-7.9-7.881c-4.297,0-7.871,3.573-7.871,7.881
			C1.368-2.744,4.951,0.83,9.248,0.83z M9.248-0.654c-3.545,0-6.377-2.842-6.377-6.396s2.822-6.396,6.367-6.396
			c3.555,0,6.396,2.843,6.406,6.396C15.654-3.496,12.803-0.654,9.248-0.654z M6.396-6.318h2.109v2.119
			c0,0.439,0.293,0.742,0.723,0.742c0.449,0,0.742-0.303,0.742-0.742v-2.119h2.13c0.439,0,0.742-0.293,0.742-0.723
			c0-0.439-0.303-0.742-0.742-0.742H9.971v-2.108c0-0.449-0.293-0.753-0.742-0.753c-0.43,0-0.723,0.304-0.723,0.753v2.108h-2.11
			c-0.449,0-0.752,0.303-0.752,0.742C5.645-6.611,5.947-6.318,6.396-6.318z"/>
	</g>
	<g transform="matrix(1 0 0 1 281.506 1933)">
		<path d="M11.709,2.91c5.449,0,9.961-4.521,9.961-9.961c0-5.449-4.521-9.961-9.971-9.961c-5.439,0-9.951,4.512-9.951,9.961
			C1.748-1.611,6.269,2.91,11.709,2.91z M11.709,1.25c-4.609,0-8.291-3.691-8.291-8.301c0-4.61,3.672-8.301,8.281-8.301
			S20-11.66,20.01-7.051C20.02-2.442,16.318,1.25,11.709,1.25z M7.988-6.23h2.891v2.91c0,0.488,0.332,0.82,0.811,0.82
			c0.488,0,0.83-0.332,0.83-0.82v-2.91h2.91c0.488,0,0.82-0.332,0.82-0.811c0-0.488-0.332-0.83-0.82-0.83h-2.91v-2.891
			c0-0.508-0.342-0.84-0.83-0.84c-0.479,0-0.811,0.342-0.811,0.84v2.891H7.988c-0.508,0-0.84,0.342-0.84,0.83
			C7.148-6.563,7.49-6.23,7.988-6.23z"/>
	</g>
	<g transform="matrix(1 0 0 1 304.924 1933)">
		<path d="M14.97,5.664c6.963,0,12.725-5.762,12.725-12.715c0-6.963-5.771-12.726-12.734-12.726
			c-6.953,0-12.705,5.763-12.705,12.726C2.256-0.097,8.017,5.664,14.97,5.664z M14.97,3.848C8.935,3.848,4.081-1.015,4.081-7.05
			c0-6.045,4.844-10.898,10.879-10.898c6.045,0,10.898,4.854,10.908,10.898C25.879-1.015,21.015,3.848,14.97,3.848z M10.058-6.142
			h4.004v4.014c0,0.537,0.371,0.908,0.889,0.908c0.537,0,0.908-0.371,0.908-0.908v-4.014h4.023c0.527,0,0.908-0.371,0.908-0.89
			c0-0.537-0.371-0.918-0.908-0.918h-4.023v-4.004c0-0.557-0.371-0.928-0.908-0.928c-0.518,0-0.889,0.381-0.889,0.928v4.004h-4.004
			c-0.557,0-0.928,0.381-0.928,0.918C9.131-6.513,9.511-6.142,10.058-6.142z"/>
	</g>
	<text transform="matrix(1 0 0 1 263 1953)" font-family="'Arial-BoldMT'" font-size="12">Design Variations</text>
	<text transform="matrix(1 0 0 1 263 1971)" font-family="'ArialMT'" font-size="12">Symbols are supported in up to nine weights and three scales.</text>
	<text transform="matrix(1 0 0 1 263 1989)" font-family="'ArialMT'" font-size="12">For optimal layout with text and other symbols, vertically align</text>
	<text transform="matrix(1 0 0 1 263 2007)" font-family="'ArialMT'" font-size="12">symbols with the adjacent text.</text>
	<line fill="none" stroke="#00AEEF" stroke-width="0.5" x1="776" y1="1919" x2="776" y2="1933"/>
	<g transform="matrix(1 0 0 1 776 1933)">
		<path d="M3.311,0.127c0.519,0,0.771-0.195,0.957-0.732l1.261-3.457h5.762l1.26,3.457c0.187,0.537,0.439,0.732,0.947,0.732
			c0.518,0,0.85-0.313,0.85-0.801c0-0.166-0.028-0.313-0.106-0.527L9.66-13.389c-0.226-0.605-0.625-0.898-1.25-0.898
			c-0.605,0-1.017,0.293-1.23,0.889L2.598-1.191C2.52-0.976,2.49-0.83,2.49-0.664C2.49-0.176,2.803,0.127,3.311,0.127z M6.006-5.537
			l2.373-6.572h0.049l2.373,6.572H6.006z"/>
	</g>
	<line fill="none" stroke="#00AEEF" stroke-width="0.5" x1="792.836" y1="1919" x2="792.836" y2="1933"/>
	<text transform="matrix(1 0 0 1 776 1953)" font-family="'Arial-BoldMT'" font-size="12">Margins</text>
	<text transform="matrix(1 0 0 1 776 1971)" font-family="'ArialMT'" font-size="12">Leading and trailing margins on the left and right side of each symbol</text>
	<text transform="matrix(1 0 0 1 776 1989)" font-family="'ArialMT'" font-size="12">can be adjusted by modifying the x-location of the margin guidelines.</text>
	<text transform="matrix(1 0 0 1 776 2007)" font-family="'ArialMT'" font-size="12">Modifications are automatically applied proportionally to all</text>
	<text transform="matrix(1 0 0 1 776 2025)" font-family="'ArialMT'" font-size="12">scales and weights.</text>
	<g transform="matrix(1 0 0 1 1289 1933)">
		<path d="M2.842,1.865l1.699,1.709C5.4,4.444,6.387,4.385,7.314,3.36L17.49-7.851c0.264,0.088,0.537,0.067,0.85,0.01l1.064-0.195
			l0.664,0.674l-0.039,0.558c-0.039,0.498,0.088,0.879,0.576,1.356l0.762,0.742c0.479,0.479,1.094,0.508,1.563,0.039l2.91-2.92
			c0.469-0.469,0.449-1.064-0.029-1.543L25.04-9.892c-0.479-0.479-0.851-0.636-1.328-0.597l-0.576,0.049l-0.645-0.635l0.244-1.123
			c0.127-0.565-0.029-1.006-0.615-1.592l-2.197-2.188c-3.34-3.32-7.772-3.242-10.664-0.353c-0.42,0.41-0.448,0.986-0.215,1.377
			c0.234,0.361,0.693,0.597,1.338,0.431c1.465-0.343,2.988-0.4,4.414,0.536L14.21-12.53c-0.195,0.479-0.225,0.879-0.098,1.24
			L3.047-0.898C2.061,0.02,1.982,0.996,2.842,1.865z M10.752-15.957c2.432-1.777,5.723-1.475,7.949,0.752l2.432,2.412
			c0.234,0.234,0.273,0.42,0.205,0.762l-0.322,1.484l1.504,1.484l0.986-0.06c0.254-0.01,0.332,0.01,0.527,0.205l0.576,0.576
			L22.168-5.9l-0.576-0.575c-0.195-0.195-0.225-0.273-0.215-0.537l0.068-0.978l-1.494-1.483L18.428-9.22
			c-0.322,0.067-0.469,0.039-0.713-0.195l-2.002-2.002c-0.254-0.234-0.283-0.4-0.127-0.771l0.879-2.091
			c-1.563-1.455-3.594-2.08-5.625-1.483C10.684-15.722,10.625-15.849,10.752-15.957z M5.273,2.305L4.102,1.143
			C3.633,0.684,3.74,0.342,4.141-0.02l10.812-10.176l1.465,1.484L6.426,2.276C6.074,2.676,5.742,2.774,5.273,2.305z"/>
	</g>
	<text transform="matrix(1 0 0 1 1289 1953)" font-family="'Arial-BoldMT'" font-size="12">Exporting</text>
	<text transform="matrix(1 0 0 1 1289 1971)" font-family="'ArialMT'" font-size="12">Symbols should be outlined when exporting to ensure the</text>
	<text transform="matrix(1 0 0 1 1289 1989)" font-family="'ArialMT'" font-size="12">design is preserved when submitting to Xcode.</text>
	<text id="template-version" transform="matrix(1 0 0 1 2958.8496 1933)" font-family="'ArialMT'" font-size="12">Template v.2.0</text>
	<text transform="matrix(1 0 0 1 2878.5762 1951)" font-family="'ArialMT'" font-size="12">Requires Xcode 12 or greater</text>
	<text transform="matrix(1 0 0 1 2895.2637 1969)" font-family="'ArialMT'" font-size="12">Generated from altitude.fill</text>
	<text transform="matrix(1 0 0 1 2921.9238 1987)" font-family="'ArialMT'" font-size="12">Typeset at 100 points</text>
	<text transform="matrix(1 0 0 1 263 726)" font-family="'ArialMT'" font-size="12">Small</text>
	<text transform="matrix(1 0 0 1 263 1156)" font-family="'ArialMT'" font-size="12">Medium</text>
	<text transform="matrix(1 0 0 1 263 1586)" font-family="'ArialMT'" font-size="12">Large</text>
</g>
<g id="Guides">
	<g id="H-reference" transform="matrix(1 0 0 1 339 696)">
		<path fill="#27AAE1" d="M0.977,0h2.686l9.326-24.463h32.764L55.127,0h2.637L30.615-70.459h-2.49L0.977,0z M29.346-67.139h0.098
			l15.43,40.431H13.867L29.346-67.139z"/>
	</g>
	<line id="Baseline-S" fill="none" stroke="#27AAE1" stroke-width="0.5" x1="263" y1="696" x2="3036" y2="696"/>
	<line id="Capline-S" fill="none" stroke="#27AAE1" stroke-width="0.5" x1="263" y1="625.541" x2="3036" y2="625.541"/>
	<g id="H-reference_1_" transform="matrix(1 0 0 1 339 1126)">
		<path fill="#27AAE1" d="M0.977,0h2.686l9.326-24.463h32.764L55.127,0h2.637L30.615-70.459h-2.49L0.977,0z M29.346-67.138h0.098
			l15.43,40.43H13.867L29.346-67.138z"/>
	</g>
	<line id="Baseline-M" fill="none" stroke="#27AAE1" stroke-width="0.5" x1="263" y1="1126" x2="3036" y2="1126"/>
	<line id="Capline-M" fill="none" stroke="#27AAE1" stroke-width="0.5" x1="263" y1="1055.539" x2="3036" y2="1055.539"/>
	<g id="H-reference_2_" transform="matrix(1 0 0 1 339 1556)">
		<path fill="#27AAE1" d="M0.977,0h2.686l9.326-24.463h32.764L55.127,0h2.637L30.615-70.459h-2.49L0.977,0z M29.346-67.138h0.098
			l15.43,40.43H13.867L29.346-67.138z"/>
	</g>
	<line id="Baseline-L" fill="none" stroke="#27AAE1" stroke-width="0.5" x1="263" y1="1556" x2="3036" y2="1556"/>
	<line id="Capline-L" fill="none" stroke="#27AAE1" stroke-width="0.5" x1="263" y1="1485.539" x2="3036" y2="1485.539"/>
	<line id="left-margin" fill="none" stroke="#00AEEF" stroke-width="0.5" x1="1383.58" y1="1030.789" x2="1383.58" y2="1150.119"/>
	<line id="right-margin" fill="none" stroke="#00AEEF" stroke-width="0.5" x1="1516.1" y1="1030.789" x2="1516.1" y2="1150.119"/>
</g>
<g id="Symbols">
	<g id="Black-L" transform="matrix(1 0 0 1 2846.24 1556)">
		<path d="M87.165-96.783c-33.94,0-61.554,27.613-61.554,61.554s27.613,61.554,61.554,61.554s61.554-27.613,61.554-61.554
			S121.106-96.783,87.165-96.783z M87.165,12.134c-26.116,0-47.363-21.247-47.363-47.363s21.247-47.363,47.363-47.363
			s47.364,21.247,47.364,47.363S113.281,12.134,87.165,12.134z M73.67-70.527c0-3.918,3.178-7.095,7.096-7.095h12.799
			c3.918,0,7.096,3.177,7.096,7.095s-3.178,7.096-7.096,7.096H80.766C76.848-63.432,73.67-66.609,73.67-70.527z M106.571-52.878
			c0,3.918-3.177,7.096-7.095,7.096H74.855c-3.918,0-7.095-3.178-7.095-7.096c0-3.917,3.177-7.095,7.095-7.095h24.621
			C103.394-59.973,106.571-56.795,106.571-52.878z M73.67-35.229c0-3.919,3.178-7.095,7.096-7.095h12.799
			c3.918,0,7.096,3.176,7.096,7.095s-3.178,7.095-7.096,7.095H80.766C76.848-28.135,73.67-31.311,73.67-35.229z M106.571-17.575
			c0,3.918-3.177,7.095-7.095,7.095H74.855c-3.918,0-7.095-3.177-7.095-7.095s3.177-7.095,7.095-7.095h24.621
			C103.394-24.67,106.571-21.493,106.571-17.575z M100.66,0.073c0,3.918-3.178,7.095-7.096,7.095H80.766
			c-3.918,0-7.096-3.177-7.096-7.095s3.178-7.095,7.096-7.095h12.799C97.483-7.021,100.66-3.845,100.66,0.073z M46.16-47.05
			l17.486,11.82L46.16-23.409V-47.05z M128.17-47.05v23.641l-17.486-11.82L128.17-47.05z"/>
	</g>
	<g id="Heavy-L" transform="matrix(1 0 0 1 2550.07 1556)">
		<path d="M86.615-96.139c-33.586,0-60.908,27.325-60.908,60.909c0,33.585,27.322,60.909,60.908,60.909s60.908-27.324,60.908-60.909
			C147.524-68.813,120.201-96.139,86.615-96.139z M86.615,12.779c-26.472,0-48.009-21.537-48.009-48.009
			s21.537-48.009,48.009-48.009s48.009,21.537,48.009,48.009S113.087,12.779,86.615,12.779z M73.766-70.527
			c0-3.563,2.888-6.449,6.45-6.449h12.799c3.563,0,6.45,2.887,6.45,6.449s-2.887,6.45-6.45,6.45H80.216
			C76.654-64.077,73.766-66.965,73.766-70.527z M105.376-52.878c0,3.563-2.888,6.45-6.45,6.45H74.305c-3.563,0-6.45-2.887-6.45-6.45
			c0-3.563,2.888-6.45,6.45-6.45h24.621C102.489-59.328,105.376-56.44,105.376-52.878z M73.766-35.229c0-3.562,2.888-6.45,6.45-6.45
			h12.799c3.563,0,6.45,2.889,6.45,6.45s-2.887,6.45-6.45,6.45H80.216C76.654-28.779,73.766-31.668,73.766-35.229z M105.376-17.575
			c0,3.563-2.888,6.45-6.45,6.45H74.305c-3.563,0-6.45-2.888-6.45-6.45s2.888-6.45,6.45-6.45h24.621
			C102.489-24.025,105.376-21.138,105.376-17.575z M99.465,0.073c0,3.563-2.887,6.45-6.45,6.45H80.216
			c-3.563,0-6.45-2.888-6.45-6.45s2.888-6.45,6.45-6.45h12.799C96.578-6.377,99.465-3.489,99.465,0.073z M45.61-47.05l17.487,11.82
			L45.61-23.409V-47.05z M127.619-47.05v23.641l-17.485-11.82L127.619-47.05z"/>
	</g>
	<g id="Bold-L" transform="matrix(1 0 0 1 2253.97 1556)">
		<path d="M86.007-95.493c-33.229,0-60.264,27.034-60.264,60.264s27.035,60.264,60.264,60.264S146.27-2,146.27-35.229
			S119.235-95.493,86.007-95.493z M86.007,13.424c-26.828,0-48.653-21.825-48.653-48.653c0-26.827,21.825-48.653,48.653-48.653
			s48.654,21.826,48.654,48.653C134.661-8.401,112.835,13.424,86.007,13.424z M73.802-70.527c0-3.206,2.6-5.805,5.806-5.805h12.799
			c3.206,0,5.806,2.599,5.806,5.805s-2.6,5.806-5.806,5.806H79.607C76.401-64.722,73.802-67.321,73.802-70.527z M104.122-52.878
			c0,3.206-2.599,5.806-5.805,5.806H73.696c-3.206,0-5.805-2.6-5.805-5.806s2.599-5.805,5.805-5.805h24.621
			C101.523-58.683,104.122-56.084,104.122-52.878z M79.607-29.425c-3.206,0-5.806-2.599-5.806-5.805s2.6-5.805,5.806-5.805h12.799
			c3.206,0,5.806,2.599,5.806,5.805s-2.6,5.805-5.806,5.805H79.607z M104.122-17.575c0,3.206-2.599,5.806-5.805,5.806H73.696
			c-3.206,0-5.805-2.6-5.805-5.806s2.599-5.805,5.805-5.805h24.621C101.523-23.38,104.122-20.781,104.122-17.575z M98.212,0.073
			c0,3.206-2.6,5.805-5.806,5.805H79.607c-3.206,0-5.806-2.599-5.806-5.805s2.6-5.806,5.806-5.806h12.799
			C95.612-5.732,98.212-3.133,98.212,0.073z M45.001-47.05l17.487,11.82l-17.487,11.82V-47.05z M127.01-47.05v23.641l-17.485-11.82
			L127.01-47.05z"/>
	</g>
	<g id="Semibold-L" transform="matrix(1 0 0 1 1957.7 1556)">
		<path d="M85.572-94.848c-32.874,0-59.619,26.744-59.619,59.618s26.745,59.618,59.619,59.618s59.619-26.744,59.619-59.618
			S118.446-94.848,85.572-94.848z M85.572,14.069c-27.184,0-49.299-22.115-49.299-49.299s22.115-49.299,49.299-49.299
			s49.299,22.115,49.299,49.299S112.755,14.069,85.572,14.069z M74.012-70.527c0-2.85,2.311-5.16,5.16-5.16h12.799
			c2.85,0,5.16,2.311,5.16,5.16s-2.311,5.16-5.16,5.16H79.172C76.323-65.367,74.012-67.678,74.012-70.527z M103.042-52.878
			c0,2.85-2.311,5.16-5.16,5.16H73.261c-2.85,0-5.16-2.311-5.16-5.16s2.311-5.159,5.16-5.159h24.621
			C100.732-58.037,103.042-55.728,103.042-52.878z M79.172-30.069c-2.85,0-5.16-2.311-5.16-5.16s2.311-5.16,5.16-5.16h12.799
			c2.85,0,5.16,2.311,5.16,5.16s-2.311,5.16-5.16,5.16H79.172z M103.042-17.575c0,2.85-2.311,5.16-5.16,5.16H73.261
			c-2.85,0-5.16-2.311-5.16-5.16s2.311-5.16,5.16-5.16h24.621C100.732-22.735,103.042-20.425,103.042-17.575z M97.131,0.073
			c0,2.85-2.311,5.16-5.16,5.16H79.172c-2.85,0-5.16-2.311-5.16-5.16s2.311-5.16,5.16-5.16h12.799
			C94.821-5.087,97.131-2.776,97.131,0.073z M44.566-47.05l17.487,11.82l-17.487,11.82V-47.05z M126.575-47.05v23.641l-17.485-11.82
			L126.575-47.05z"/>
	</g>
	<g id="Medium-L" transform="matrix(1 0 0 1 1661.3 1556)">
		<path d="M85.26-94.203c-32.519,0-58.974,26.455-58.974,58.974S52.741,23.744,85.26,23.744s58.974-26.455,58.974-58.974
			S117.778-94.203,85.26-94.203z M85.26,14.714c-27.538,0-49.943-22.404-49.943-49.943c0-27.54,22.405-49.943,49.943-49.943
			s49.943,22.403,49.943,49.943C135.203-7.69,112.798,14.714,85.26,14.714z M74.344-70.527c0-2.494,2.022-4.515,4.516-4.515h12.799
			c2.493,0,4.516,2.021,4.516,4.515c0,2.495-2.022,4.516-4.516,4.516H78.86C76.367-66.012,74.344-68.032,74.344-70.527z
			 M102.085-52.878c0,2.495-2.021,4.516-4.515,4.516H72.949c-2.493,0-4.515-2.021-4.515-4.516c0-2.494,2.021-4.515,4.515-4.515
			H97.57C100.063-57.393,102.085-55.372,102.085-52.878z M78.86-30.715c-2.493,0-4.516-2.021-4.516-4.515s2.022-4.515,4.516-4.515
			h12.799c2.493,0,4.516,2.021,4.516,4.515s-2.022,4.515-4.516,4.515H78.86z M102.085-17.575c0,2.493-2.021,4.516-4.515,4.516
			H72.949c-2.493,0-4.515-2.022-4.515-4.516s2.021-4.515,4.515-4.515H97.57C100.063-22.09,102.085-20.068,102.085-17.575z
			 M96.175,0.073c0,2.493-2.022,4.515-4.516,4.515H78.86c-2.493,0-4.516-2.021-4.516-4.515s2.022-4.515,4.516-4.515h12.799
			C94.152-4.441,96.175-2.42,96.175,0.073z M44.254-47.05l17.487,11.82l-17.487,11.82V-47.05z M126.263-47.05v23.641l-17.485-11.82
			L126.263-47.05z"/>
	</g>
	<g id="Regular-L" transform="matrix(1 0 0 1 1365.01 1556)">
		<path d="M84.798-93.559c-32.162,0-58.328,26.166-58.328,58.329c0,32.162,26.166,58.329,58.328,58.329s58.328-26.167,58.328-58.329
			C143.126-67.393,116.96-93.559,84.798-93.559z M84.798,15.359c-27.895,0-50.588-22.693-50.588-50.589s22.693-50.589,50.588-50.589
			s50.588,22.693,50.588,50.589S112.692,15.359,84.798,15.359z M74.528-70.527c0-2.137,1.733-3.869,3.87-3.869h12.799
			c2.138,0,3.87,1.732,3.87,3.869s-1.732,3.87-3.87,3.87H78.398C76.261-66.657,74.528-68.391,74.528-70.527z M100.978-52.878
			c0,2.137-1.733,3.87-3.87,3.87H72.487c-2.137,0-3.87-1.733-3.87-3.87c0-2.136,1.733-3.87,3.87-3.87h24.621
			C99.245-56.748,100.978-55.014,100.978-52.878z M78.398-31.359c-2.137,0-3.87-1.732-3.87-3.87s1.733-3.87,3.87-3.87h12.799
			c2.138,0,3.87,1.732,3.87,3.87s-1.732,3.87-3.87,3.87H78.398z M100.978-17.575c0,2.138-1.733,3.87-3.87,3.87H72.487
			c-2.137,0-3.87-1.732-3.87-3.87s1.733-3.87,3.87-3.87h24.621C99.245-21.445,100.978-19.713,100.978-17.575z M95.067,0.073
			c0,2.138-1.732,3.87-3.87,3.87H78.398c-2.137,0-3.87-1.732-3.87-3.87s1.733-3.87,3.87-3.87h12.799
			C93.335-3.797,95.067-2.064,95.067,0.073z M43.792-47.05l17.487,11.82l-17.487,11.82V-47.05z M125.802-47.05v23.641l-17.487-11.82
			L125.802-47.05z"/>
	</g>
	<g id="Light-L" transform="matrix(1 0 0 1 1069.2 1556)">
		<path d="M83.936-92.913c-31.807,0-57.683,25.877-57.683,57.684s25.876,57.684,57.683,57.684s57.683-25.877,57.683-57.684
			S115.742-92.913,83.936-92.913z M83.936,16.004c-28.25,0-51.233-22.983-51.233-51.233s22.983-51.233,51.233-51.233
			c28.25,0,51.233,22.983,51.233,51.233S112.185,16.004,83.936,16.004z M74.311-70.527c0-1.781,1.443-3.225,3.225-3.225h12.799
			c1.781,0,3.225,1.443,3.225,3.225s-1.444,3.226-3.225,3.226H77.536C75.755-67.302,74.311-68.746,74.311-70.527z M99.471-52.878
			c0,1.781-1.443,3.226-3.225,3.226H71.625c-1.781,0-3.225-1.444-3.225-3.226s1.444-3.225,3.225-3.225h24.621
			C98.028-56.103,99.471-54.659,99.471-52.878z M77.536-32.005c-1.782,0-3.225-1.443-3.225-3.225s1.443-3.225,3.225-3.225h12.799
			c1.781,0,3.225,1.443,3.225,3.225s-1.444,3.225-3.225,3.225H77.536z M99.471-17.575c0,1.781-1.443,3.226-3.225,3.226H71.625
			c-1.781,0-3.225-1.444-3.225-3.226s1.444-3.225,3.225-3.225h24.621C98.028-20.8,99.471-19.356,99.471-17.575z M93.56,0.073
			c0,1.781-1.444,3.225-3.225,3.225H77.536c-1.782,0-3.225-1.443-3.225-3.225s1.443-3.226,3.225-3.226h12.799
			C92.116-3.152,93.56-1.708,93.56,0.073z M42.93-47.05l17.488,11.82L42.93-23.409V-47.05z M124.941-47.05v23.641l-17.487-11.82
			L124.941-47.05z"/>
	</g>
	<g id="Thin-L" transform="matrix(1 0 0 1 773.683 1556)">
		<path d="M82.739-91.623c-31.095,0-56.393,25.299-56.393,56.394c0,31.097,25.298,56.394,56.393,56.394s56.393-25.297,56.393-56.394
			C139.132-66.324,113.834-91.623,82.739-91.623z M82.739,17.294c-28.961,0-52.523-23.562-52.523-52.523
			c0-28.961,23.562-52.523,52.523-52.523s52.523,23.563,52.523,52.523C135.262-6.268,111.7,17.294,82.739,17.294z M74.404-70.527
			c0-1.068,0.866-1.935,1.936-1.935h12.799c1.069,0,1.935,0.866,1.935,1.935s-0.866,1.936-1.935,1.936H76.339
			C75.27-68.592,74.404-69.459,74.404-70.527z M96.984-52.878c0,1.068-0.866,1.936-1.935,1.936H70.428
			c-1.069,0-1.935-0.867-1.935-1.936c0-1.067,0.866-1.935,1.935-1.935h24.621C96.118-54.813,96.984-53.945,96.984-52.878z
			 M76.339-33.295c-1.069,0-1.936-0.865-1.936-1.935s0.866-1.935,1.936-1.935h12.799c1.069,0,1.935,0.865,1.935,1.935
			s-0.866,1.935-1.935,1.935H76.339z M96.984-17.575c0,1.068-0.866,1.936-1.935,1.936H70.428c-1.069,0-1.935-0.867-1.935-1.936
			s0.866-1.935,1.935-1.935h24.621C96.118-19.51,96.984-18.644,96.984-17.575z M91.073,0.073c0,1.068-0.866,1.935-1.935,1.935
			H76.339c-1.069,0-1.936-0.866-1.936-1.935s0.866-1.936,1.936-1.936h12.799C90.208-1.862,91.073-0.995,91.073,0.073z M41.733-47.05
			l17.488,11.82l-17.488,11.82V-47.05z M123.744-47.05v23.641l-17.487-11.82L123.744-47.05z"/>
	</g>
	<g id="Ultralight-L" transform="matrix(1 0 0 1 477.607 1556)">
		<path d="M82.104-90.979c-30.74,0-55.748,25.01-55.748,55.749S51.364,20.52,82.104,20.52s55.748-25.01,55.748-55.749
			S112.844-90.979,82.104-90.979z M82.104,17.939c-29.317,0-53.168-23.852-53.168-53.169s23.851-53.169,53.168-53.169
			s53.168,23.852,53.168,53.169S111.421,17.939,82.104,17.939z M74.414-70.527c0-0.713,0.577-1.29,1.29-1.29h12.799
			c0.713,0,1.29,0.577,1.29,1.29s-0.577,1.29-1.29,1.29H75.705C74.992-69.237,74.414-69.814,74.414-70.527z M95.705-52.878
			c0,0.714-0.578,1.29-1.29,1.29H69.793c-0.712,0-1.29-0.576-1.29-1.29c0-0.713,0.578-1.29,1.29-1.29h24.621
			C95.127-54.168,95.705-53.591,95.705-52.878z M75.705-33.939c-0.713,0-1.29-0.578-1.29-1.29s0.577-1.29,1.29-1.29h12.799
			c0.713,0,1.29,0.578,1.29,1.29s-0.577,1.29-1.29,1.29H75.705z M95.705-17.575c0,0.713-0.578,1.29-1.29,1.29H69.793
			c-0.712,0-1.29-0.577-1.29-1.29s0.578-1.29,1.29-1.29h24.621C95.127-18.865,95.705-18.288,95.705-17.575z M89.793,0.073
			c0,0.713-0.577,1.29-1.29,1.29H75.705c-0.713,0-1.29-0.577-1.29-1.29s0.577-1.29,1.29-1.29h12.799
			C89.216-1.217,89.793-0.64,89.793,0.073z M41.099-47.05l17.487,11.82l-17.487,11.82V-47.05z M123.109-47.05v23.641l-17.487-11.82
			L123.109-47.05z"/>
	</g>
	<g id="Black-M" transform="matrix(1 0 0 1 2865.58 1126)">
		<path d="M67.825-82.896c-26.311,0-47.716,21.405-47.716,47.716s21.405,47.716,47.716,47.716s47.716-21.405,47.716-47.716
			S94.136-82.896,67.825-82.896z M67.825,1.535c-20.245,0-36.716-16.471-36.716-36.716S47.58-71.896,67.825-71.896
			s36.716,16.471,36.716,36.716S88.07,1.535,67.825,1.535z M57.364-62.543c0-3.038,2.463-5.5,5.5-5.5h9.922
			c3.037,0,5.5,2.462,5.5,5.5s-2.463,5.5-5.5,5.5h-9.922C59.827-57.043,57.364-59.505,57.364-62.543z M82.868-48.861
			c0,3.038-2.463,5.5-5.5,5.5H58.282c-3.037,0-5.5-2.462-5.5-5.5s2.463-5.5,5.5-5.5h19.086
			C80.405-54.361,82.868-51.899,82.868-48.861z M57.364-35.181c0-3.038,2.463-5.5,5.5-5.5h9.922c3.037,0,5.5,2.462,5.5,5.5
			s-2.463,5.5-5.5,5.5h-9.922C59.827-29.681,57.364-32.143,57.364-35.181z M82.868-21.495c0,3.037-2.463,5.5-5.5,5.5H58.282
			c-3.037,0-5.5-2.463-5.5-5.5s2.463-5.5,5.5-5.5h19.086C80.405-26.995,82.868-24.532,82.868-21.495z M78.286-7.814
			c0,3.037-2.463,5.5-5.5,5.5h-9.922c-3.037,0-5.5-2.463-5.5-5.5s2.463-5.5,5.5-5.5h9.922C75.823-13.314,78.286-10.852,78.286-7.814
			z M36.038-44.343l13.556,9.163l-13.556,9.163V-44.343z M99.611-44.343v18.325l-13.555-9.163L99.611-44.343z"/>
	</g>
	<g id="Heavy-M" transform="matrix(1 0 0 1 2569.23 1126)">
		<path d="M67.456-82.396c-26.035,0-47.216,21.181-47.216,47.216c0,26.035,21.181,47.216,47.216,47.216s47.216-21.181,47.216-47.216
			C114.671-61.215,93.491-82.396,67.456-82.396z M67.456,2.035c-20.521,0-37.216-16.695-37.216-37.216
			c0-20.521,16.695-37.216,37.216-37.216s37.216,16.695,37.216,37.216C104.671-14.66,87.976,2.035,67.456,2.035z M57.495-62.543
			c0-2.761,2.238-5,5-5h9.922c2.762,0,5,2.239,5,5s-2.238,5-5,5h-9.922C59.733-57.543,57.495-59.782,57.495-62.543z M81.999-48.861
			c0,2.761-2.238,5-5,5H57.913c-2.762,0-5-2.239-5-5s2.238-5,5-5h19.086C79.76-53.861,81.999-51.623,81.999-48.861z M57.495-35.181
			c0-2.761,2.238-5,5-5h9.922c2.762,0,5,2.239,5,5s-2.238,5-5,5h-9.922C59.733-30.181,57.495-32.419,57.495-35.181z M81.999-21.495
			c0,2.762-2.238,5-5,5H57.913c-2.762,0-5-2.238-5-5s2.238-5,5-5h19.086C79.76-26.495,81.999-24.257,81.999-21.495z M77.417-7.814
			c0,2.762-2.238,5-5,5h-9.922c-2.762,0-5-2.238-5-5s2.238-5,5-5h9.922C75.178-12.814,77.417-10.576,77.417-7.814z M35.668-44.343
			l13.556,9.163l-13.556,9.163V-44.343z M99.242-44.343v18.325l-13.555-9.163L99.242-44.343z"/>
	</g>
	<g id="Bold-M" transform="matrix(1 0 0 1 2272.94 1126)">
		<path d="M67.037-81.896c-25.759,0-46.716,20.957-46.716,46.716c0,25.759,20.957,46.716,46.716,46.716s46.716-20.957,46.716-46.716
			C113.752-60.94,92.795-81.896,67.037-81.896z M67.037,2.535c-20.797,0-37.716-16.919-37.716-37.716
			c0-20.796,16.919-37.716,37.716-37.716s37.716,16.919,37.716,37.716C104.752-14.384,87.833,2.535,67.037,2.535z M57.576-62.543
			c0-2.485,2.015-4.5,4.5-4.5h9.922c2.485,0,4.5,2.015,4.5,4.5s-2.015,4.5-4.5,4.5h-9.922C59.59-58.043,57.576-60.058,57.576-62.543
			z M81.08-48.861c0,2.485-2.015,4.5-4.5,4.5H57.494c-2.485,0-4.5-2.015-4.5-4.5s2.015-4.5,4.5-4.5H76.58
			C79.065-53.361,81.08-51.347,81.08-48.861z M62.076-30.681c-2.485,0-4.5-2.015-4.5-4.5s2.015-4.5,4.5-4.5h9.922
			c2.485,0,4.5,2.015,4.5,4.5s-2.015,4.5-4.5,4.5H62.076z M81.08-21.495c0,2.485-2.015,4.5-4.5,4.5H57.494
			c-2.485,0-4.5-2.015-4.5-4.5s2.015-4.5,4.5-4.5H76.58C79.065-25.995,81.08-23.98,81.08-21.495z M76.498-7.814
			c0,2.485-2.015,4.5-4.5,4.5h-9.922c-2.485,0-4.5-2.015-4.5-4.5s2.015-4.5,4.5-4.5h9.922C74.483-12.314,76.498-10.3,76.498-7.814z
			 M35.25-44.343l13.556,9.163L35.25-26.018V-44.343z M98.823-44.343v18.325l-13.555-9.163L98.823-44.343z"/>
	</g>
	<g id="Semibold-M" transform="matrix(1 0 0 1 1976.52 1126)">
		<path d="M66.751-81.396c-25.483,0-46.216,20.732-46.216,46.216s20.732,46.216,46.216,46.216s46.216-20.732,46.216-46.216
			S92.235-81.396,66.751-81.396z M66.751,3.035c-21.072,0-38.216-17.144-38.216-38.216s17.144-38.216,38.216-38.216
			s38.216,17.144,38.216,38.216S87.824,3.035,66.751,3.035z M57.791-62.543c0-2.209,1.791-4,4-4h9.922c2.209,0,4,1.791,4,4
			s-1.791,4-4,4h-9.922C59.582-58.543,57.791-60.334,57.791-62.543z M80.294-48.861c0,2.209-1.791,4-4,4H57.208
			c-2.209,0-4-1.791-4-4s1.791-4,4-4h19.086C78.503-52.861,80.294-51.07,80.294-48.861z M61.791-31.181c-2.209,0-4-1.791-4-4
			s1.791-4,4-4h9.922c2.209,0,4,1.791,4,4s-1.791,4-4,4H61.791z M80.294-21.495c0,2.209-1.791,4-4,4H57.208c-2.209,0-4-1.791-4-4
			s1.791-4,4-4h19.086C78.503-25.495,80.294-23.704,80.294-21.495z M75.712-7.814c0,2.209-1.791,4-4,4h-9.922c-2.209,0-4-1.791-4-4
			s1.791-4,4-4h9.922C73.921-11.814,75.712-10.023,75.712-7.814z M34.964-44.343l13.556,9.163l-13.556,9.163V-44.343z
			 M98.538-44.343v18.325l-13.555-9.163L98.538-44.343z"/>
	</g>
	<g id="Medium-M" transform="matrix(1 0 0 1 1680.03 1126)">
		<path d="M66.53-80.896c-25.208,0-45.716,20.508-45.716,45.716S41.322,10.535,66.53,10.535s45.716-20.508,45.716-45.716
			S91.738-80.896,66.53-80.896z M66.53,3.535c-21.348,0-38.716-17.368-38.716-38.716c0-21.348,17.368-38.716,38.716-38.716
			s38.716,17.368,38.716,38.716C105.245-13.833,87.877,3.535,66.53,3.535z M58.069-62.543c0-1.933,1.567-3.5,3.5-3.5h9.922
			c1.933,0,3.5,1.567,3.5,3.5s-1.567,3.5-3.5,3.5h-9.922C59.636-59.043,58.069-60.61,58.069-62.543z M79.573-48.861
			c0,1.933-1.567,3.5-3.5,3.5H56.987c-1.933,0-3.5-1.567-3.5-3.5s1.567-3.5,3.5-3.5h19.086
			C78.005-52.361,79.573-50.794,79.573-48.861z M61.569-31.681c-1.933,0-3.5-1.567-3.5-3.5s1.567-3.5,3.5-3.5h9.922
			c1.933,0,3.5,1.567,3.5,3.5s-1.567,3.5-3.5,3.5H61.569z M79.573-21.495c0,1.933-1.567,3.5-3.5,3.5H56.987
			c-1.933,0-3.5-1.567-3.5-3.5s1.567-3.5,3.5-3.5h19.086C78.005-24.995,79.573-23.428,79.573-21.495z M74.99-7.814
			c0,1.933-1.567,3.5-3.5,3.5h-9.922c-1.933,0-3.5-1.567-3.5-3.5s1.567-3.5,3.5-3.5h9.922C73.423-11.314,74.99-9.747,74.99-7.814z
			 M34.742-44.343l13.556,9.163l-13.556,9.163V-44.343z M98.316-44.343v18.325l-13.555-9.163L98.316-44.343z"/>
	</g>
	<g id="Regular-M" transform="matrix(1 0 0 1 1383.58 1126)">
		<path d="M66.228-80.396c-24.932,0-45.215,20.284-45.215,45.216c0,24.932,20.284,45.216,45.215,45.216s45.215-20.284,45.215-45.216
			C111.443-60.113,91.159-80.396,66.228-80.396z M66.228,4.035c-21.624,0-39.215-17.592-39.215-39.216
			c0-21.624,17.592-39.216,39.215-39.216s39.215,17.592,39.215,39.216C105.443-13.557,87.851,4.035,66.228,4.035z M58.267-62.543
			c0-1.657,1.343-3,3-3h9.922c1.657,0,3,1.343,3,3s-1.343,3-3,3h-9.922C59.61-59.543,58.267-60.886,58.267-62.543z M78.771-48.861
			c0,1.657-1.343,3-3,3H56.685c-1.657,0-3-1.343-3-3s1.343-3,3-3h19.086C77.427-51.861,78.771-50.518,78.771-48.861z M61.267-32.181
			c-1.657,0-3-1.343-3-3s1.343-3,3-3h9.922c1.657,0,3,1.343,3,3s-1.343,3-3,3H61.267z M78.771-21.495c0,1.657-1.343,3-3,3H56.685
			c-1.657,0-3-1.343-3-3s1.343-3,3-3h19.086C77.427-24.495,78.771-23.152,78.771-21.495z M74.189-7.814c0,1.657-1.343,3-3,3h-9.922
			c-1.657,0-3-1.343-3-3s1.343-3,3-3h9.922C72.845-10.814,74.189-9.472,74.189-7.814z M34.441-44.343l13.556,9.163l-13.556,9.163
			V-44.343z M98.014-44.343v18.325l-13.556-9.163L98.014-44.343z"/>
	</g>
	<g id="Light-M" transform="matrix(1 0 0 1 1087.68 1126)">
		<path d="M65.456-79.896c-24.656,0-44.715,20.06-44.715,44.716S40.799,9.535,65.456,9.535s44.715-20.06,44.715-44.716
			S90.112-79.896,65.456-79.896z M65.456,4.535c-21.899,0-39.715-17.816-39.715-39.716s17.816-39.716,39.715-39.716
			s39.715,17.816,39.715,39.716S87.355,4.535,65.456,4.535z M57.995-62.543c0-1.381,1.119-2.5,2.5-2.5h9.922
			c1.381,0,2.5,1.119,2.5,2.5s-1.119,2.5-2.5,2.5h-9.922C59.114-60.043,57.995-61.162,57.995-62.543z M77.499-48.861
			c0,1.381-1.119,2.5-2.5,2.5H55.913c-1.381,0-2.5-1.119-2.5-2.5s1.119-2.5,2.5-2.5h19.086
			C76.38-51.361,77.499-50.242,77.499-48.861z M60.495-32.681c-1.381,0-2.5-1.119-2.5-2.5s1.119-2.5,2.5-2.5h9.922
			c1.381,0,2.5,1.119,2.5,2.5s-1.119,2.5-2.5,2.5H60.495z M77.499-21.495c0,1.381-1.119,2.5-2.5,2.5H55.913
			c-1.381,0-2.5-1.119-2.5-2.5s1.119-2.5,2.5-2.5h19.086C76.38-23.995,77.499-22.876,77.499-21.495z M72.917-7.814
			c0,1.381-1.119,2.5-2.5,2.5h-9.922c-1.381,0-2.5-1.119-2.5-2.5s1.119-2.5,2.5-2.5h9.922C71.797-10.314,72.917-9.195,72.917-7.814z
			 M33.669-44.343l13.556,9.163l-13.556,9.163V-44.343z M97.242-44.343v18.325l-13.556-9.163L97.242-44.343z"/>
	</g>
	<g id="Thin-M" transform="matrix(1 0 0 1 792.042 1126)">
		<path d="M64.38-78.896c-24.104,0-43.715,19.611-43.715,43.716c0,24.105,19.611,43.716,43.715,43.716s43.715-19.61,43.715-43.716
			C108.095-59.286,88.484-78.896,64.38-78.896z M64.38,5.535c-22.451,0-40.715-18.265-40.715-40.716
			c0-22.451,18.265-40.716,40.715-40.716s40.715,18.265,40.715,40.716C105.095-12.729,86.831,5.535,64.38,5.535z M57.919-62.543
			c0-0.829,0.671-1.5,1.5-1.5h9.922c0.829,0,1.5,0.671,1.5,1.5s-0.671,1.5-1.5,1.5h-9.922C58.59-61.043,57.919-61.714,57.919-62.543
			z M75.423-48.861c0,0.829-0.671,1.5-1.5,1.5H54.837c-0.829,0-1.5-0.671-1.5-1.5s0.671-1.5,1.5-1.5h19.086
			C74.751-50.361,75.423-49.69,75.423-48.861z M59.419-33.681c-0.829,0-1.5-0.671-1.5-1.5s0.671-1.5,1.5-1.5h9.922
			c0.829,0,1.5,0.671,1.5,1.5s-0.671,1.5-1.5,1.5H59.419z M75.423-21.495c0,0.828-0.671,1.5-1.5,1.5H54.837
			c-0.829,0-1.5-0.672-1.5-1.5s0.671-1.5,1.5-1.5h19.086C74.751-22.995,75.423-22.323,75.423-21.495z M70.841-7.814
			c0,0.828-0.671,1.5-1.5,1.5h-9.922c-0.829,0-1.5-0.672-1.5-1.5s0.671-1.5,1.5-1.5h9.922C70.169-9.314,70.841-8.643,70.841-7.814z
			 M32.593-44.343l13.556,9.163l-13.556,9.163V-44.343z M96.167-44.343v18.325l-13.556-9.163L96.167-44.343z"/>
	</g>
	<g id="Ultralight-M" transform="matrix(1 0 0 1 495.893 1126)">
		<path d="M63.818-78.396c-23.829,0-43.215,19.387-43.215,43.216S39.989,8.035,63.818,8.035s43.215-19.387,43.215-43.216
			S87.647-78.396,63.818-78.396z M63.818,6.035c-22.726,0-41.215-18.489-41.215-41.216s18.489-41.216,41.215-41.216
			s41.215,18.489,41.215,41.216S86.544,6.035,63.818,6.035z M57.857-62.543c0-0.552,0.448-1,1-1h9.922c0.552,0,1,0.448,1,1
			s-0.448,1-1,1h-9.922C58.305-61.543,57.857-61.991,57.857-62.543z M74.361-48.861c0,0.552-0.448,1-1,1H54.275
			c-0.552,0-1-0.448-1-1s0.448-1,1-1h19.086C73.913-49.861,74.361-49.414,74.361-48.861z M58.857-34.181c-0.552,0-1-0.448-1-1
			s0.448-1,1-1h9.922c0.552,0,1,0.448,1,1s-0.448,1-1,1H58.857z M74.361-21.495c0,0.553-0.448,1-1,1H54.275c-0.552,0-1-0.447-1-1
			s0.448-1,1-1h19.086C73.913-22.495,74.361-22.048,74.361-21.495z M69.779-7.814c0,0.553-0.448,1-1,1h-9.922c-0.552,0-1-0.447-1-1
			s0.448-1,1-1h9.922C69.331-8.814,69.779-8.367,69.779-7.814z M32.031-44.343l13.556,9.163l-13.556,9.163V-44.343z M95.605-44.343
			v18.325l-13.556-9.163L95.605-44.343z"/>
	</g>
	<g id="Black-S" transform="matrix(1 0 0 1 2880.28 696)">
		<path d="M53.125-72.592c-20.601,0-37.361,16.761-37.361,37.362S32.525,2.132,53.125,2.132c20.602,0,37.361-16.761,37.361-37.362
			S73.727-72.592,53.125-72.592z M53.125-6.481c-15.852,0-28.749-12.896-28.749-28.749s12.897-28.749,28.749-28.749
			c15.853,0,28.749,12.896,28.749,28.749S68.978-6.481,53.125-6.481z M44.935-56.655c0-2.378,1.928-4.307,4.307-4.307h7.769
			c2.378,0,4.306,1.928,4.306,4.307s-1.928,4.307-4.306,4.307h-7.769C46.863-52.348,44.935-54.276,44.935-56.655z M64.904-45.942
			c0,2.378-1.928,4.306-4.307,4.306H45.654c-2.379,0-4.307-1.928-4.307-4.306s1.928-4.307,4.307-4.307h14.943
			C62.976-50.249,64.904-48.32,64.904-45.942z M44.935-35.23c0-2.378,1.928-4.307,4.307-4.307h7.769
			c2.378,0,4.306,1.928,4.306,4.307s-1.928,4.307-4.306,4.307h-7.769C46.863-30.923,44.935-32.852,44.935-35.23z M64.904-24.514
			c0,2.378-1.928,4.307-4.307,4.307H45.654c-2.379,0-4.307-1.929-4.307-4.307s1.928-4.307,4.307-4.307h14.943
			C62.976-28.821,64.904-26.892,64.904-24.514z M61.316-13.802c0,2.378-1.928,4.307-4.306,4.307h-7.769
			c-2.379,0-4.307-1.928-4.307-4.307c0-2.378,1.928-4.306,4.307-4.306h7.769C59.388-18.108,61.316-16.18,61.316-13.802z
			 M28.236-42.404L38.85-35.23l-10.614,7.174V-42.404z M78.014-42.404v14.349L67.401-35.23L78.014-42.404z"/>
	</g>
	<g id="Heavy-S" transform="matrix(1 0 0 1 2583.76 696)">
		<path d="M52.926-72.2c-20.386,0-36.971,16.585-36.971,36.97c0,20.386,16.585,36.97,36.971,36.97s36.97-16.584,36.97-36.97
			C89.895-55.615,73.311-72.2,52.926-72.2z M52.926-6.09c-16.067,0-29.141-13.072-29.141-29.14s13.073-29.14,29.141-29.14
			s29.14,13.072,29.14,29.14S68.993-6.09,52.926-6.09z M45.126-56.655c0-2.162,1.753-3.915,3.915-3.915h7.77
			c2.162,0,3.914,1.753,3.914,3.915s-1.752,3.915-3.914,3.915h-7.77C46.879-52.74,45.126-54.493,45.126-56.655z M64.312-45.942
			c0,2.162-1.752,3.915-3.914,3.915H45.453c-2.162,0-3.914-1.753-3.914-3.915s1.752-3.915,3.914-3.915h14.945
			C62.56-49.857,64.312-48.104,64.312-45.942z M45.126-35.23c0-2.162,1.753-3.915,3.915-3.915h7.77c2.162,0,3.914,1.753,3.914,3.915
			s-1.752,3.915-3.914,3.915h-7.77C46.879-31.315,45.126-33.068,45.126-35.23z M64.312-24.514c0,2.163-1.752,3.915-3.914,3.915
			H45.453c-2.162,0-3.914-1.752-3.914-3.915s1.752-3.915,3.914-3.915h14.945C62.56-28.429,64.312-26.677,64.312-24.514z
			 M60.724-13.802c0,2.163-1.752,3.915-3.914,3.915h-7.77c-2.162,0-3.915-1.752-3.915-3.915s1.753-3.915,3.915-3.915h7.77
			C58.972-17.717,60.724-15.965,60.724-13.802z M28.036-42.404L38.65-35.23l-10.614,7.174V-42.404z M77.814-42.404v14.349
			L67.201-35.23L77.814-42.404z"/>
	</g>
	<g id="Bold-S" transform="matrix(1 0 0 1 2287.27 696)">
		<path d="M52.707-71.809c-20.169,0-36.578,16.409-36.578,36.579S32.538,1.349,52.707,1.349S89.285-15.061,89.285-35.23
			S72.875-71.809,52.707-71.809z M52.707-5.698c-16.284,0-29.531-13.248-29.531-29.532c0-16.284,13.247-29.532,29.531-29.532
			S82.238-51.514,82.238-35.23C82.238-18.946,68.991-5.698,52.707-5.698z M45.298-56.655c0-1.946,1.578-3.523,3.523-3.523h7.77
			c1.945,0,3.523,1.578,3.523,3.523s-1.578,3.523-3.523,3.523h-7.77C46.876-53.131,45.298-54.709,45.298-56.655z M63.703-45.942
			c0,1.946-1.578,3.523-3.523,3.523H45.234c-1.945,0-3.523-1.578-3.523-3.523c0-1.946,1.578-3.523,3.523-3.523h14.945
			C62.125-49.465,63.703-47.888,63.703-45.942z M48.822-31.707c-1.945,0-3.523-1.578-3.523-3.523s1.578-3.523,3.523-3.523h7.77
			c1.945,0,3.523,1.578,3.523,3.523s-1.578,3.523-3.523,3.523H48.822z M63.703-24.514c0,1.946-1.578,3.523-3.523,3.523H45.234
			c-1.945,0-3.523-1.578-3.523-3.523s1.578-3.523,3.523-3.523h14.945C62.125-28.038,63.703-26.46,63.703-24.514z M60.115-13.802
			c0,1.946-1.578,3.523-3.523,3.523h-7.77c-1.945,0-3.523-1.577-3.523-3.523c0-1.946,1.578-3.523,3.523-3.523h7.77
			C58.537-17.326,60.115-15.748,60.115-13.802z M27.817-42.404l10.614,7.174l-10.614,7.174V-42.404z M77.595-42.404v14.349
			L66.982-35.23L77.595-42.404z"/>
	</g>
	<g id="Semibold-S" transform="matrix(1 0 0 1 1990.7 696)">
		<path d="M52.572-71.417c-19.953,0-36.188,16.233-36.188,36.187S32.618,0.957,52.572,0.957S88.759-15.276,88.759-35.23
			S72.525-71.417,52.572-71.417z M52.572-5.307c-16.5,0-29.923-13.424-29.923-29.923s13.423-29.923,29.923-29.923
			S82.494-51.729,82.494-35.23S69.072-5.307,52.572-5.307z M45.555-56.655c0-1.729,1.402-3.132,3.132-3.132h7.77
			c1.729,0,3.132,1.402,3.132,3.132s-1.402,3.132-3.132,3.132h-7.77C46.957-53.523,45.555-54.925,45.555-56.655z M63.175-45.942
			c0,1.729-1.402,3.132-3.131,3.132H45.099c-1.729,0-3.132-1.402-3.132-3.132c0-1.73,1.402-3.132,3.132-3.132h14.945
			C61.773-49.074,63.175-47.672,63.175-45.942z M48.687-32.098c-1.729,0-3.132-1.402-3.132-3.132s1.402-3.132,3.132-3.132h7.77
			c1.729,0,3.132,1.402,3.132,3.132s-1.402,3.132-3.132,3.132H48.687z M63.175-24.514c0,1.729-1.402,3.132-3.131,3.132H45.099
			c-1.729,0-3.132-1.402-3.132-3.132s1.402-3.132,3.132-3.132h14.945C61.773-27.646,63.175-26.244,63.175-24.514z M59.588-13.802
			c0,1.73-1.402,3.132-3.132,3.132h-7.77c-1.729,0-3.132-1.402-3.132-3.132c0-1.729,1.402-3.132,3.132-3.132h7.77
			C58.186-16.934,59.588-15.532,59.588-13.802z M27.682-42.404l10.614,7.174l-10.614,7.174V-42.404z M77.46-42.404v14.349
			L66.847-35.23L77.46-42.404z"/>
	</g>
	<g id="Medium-S" transform="matrix(1 0 0 1 1694.09 696)">
		<path d="M52.47-71.025c-19.738,0-35.796,16.058-35.796,35.795S32.731,0.565,52.47,0.565S88.266-15.492,88.266-35.23
			S72.208-71.025,52.47-71.025z M52.47-4.916c-16.715,0-30.314-13.599-30.314-30.314c0-16.716,13.6-30.314,30.314-30.314
			c16.716,0,30.314,13.599,30.314,30.314C82.784-18.515,69.185-4.916,52.47-4.916z M45.845-56.655c0-1.514,1.228-2.741,2.74-2.741
			h7.77c1.513,0,2.74,1.227,2.74,2.741s-1.228,2.741-2.74,2.741h-7.77C47.072-53.914,45.845-55.141,45.845-56.655z M62.682-45.942
			c0,1.514-1.228,2.741-2.741,2.741H44.998c-1.514,0-2.741-1.227-2.741-2.741s1.228-2.741,2.741-2.741h14.943
			C61.455-48.683,62.682-47.456,62.682-45.942z M48.585-32.489c-1.513,0-2.74-1.227-2.74-2.741s1.228-2.741,2.74-2.741h7.77
			c1.513,0,2.74,1.227,2.74,2.741s-1.228,2.741-2.74,2.741H48.585z M62.682-24.514c0,1.513-1.228,2.741-2.741,2.741H44.998
			c-1.514,0-2.741-1.228-2.741-2.741s1.228-2.741,2.741-2.741h14.943C61.455-27.255,62.682-26.027,62.682-24.514z M59.095-13.802
			c0,1.513-1.228,2.741-2.74,2.741h-7.77c-1.513,0-2.74-1.228-2.74-2.741s1.228-2.74,2.74-2.74h7.77
			C57.867-16.542,59.095-15.315,59.095-13.802z M27.58-42.404l10.614,7.174L27.58-28.056V-42.404z M77.358-42.404v14.349
			L66.745-35.23L77.358-42.404z"/>
	</g>
	<g id="Regular-S" transform="matrix(1 0 0 1 1397.53 696)">
		<path d="M52.278-70.634c-19.521,0-35.404,15.882-35.404,35.404c0,19.521,15.882,35.404,35.404,35.404S87.681-15.708,87.681-35.23
			C87.681-54.752,71.799-70.634,52.278-70.634z M52.278-4.524c-16.931,0-30.706-13.774-30.706-30.706
			c0-16.931,13.774-30.706,30.706-30.706S82.983-52.161,82.983-35.23C82.983-18.298,69.209-4.524,52.278-4.524z M46.044-56.655
			c0-1.297,1.052-2.349,2.349-2.349h7.769c1.297,0,2.349,1.052,2.349,2.349s-1.052,2.349-2.349,2.349h-7.769
			C47.096-54.306,46.044-55.357,46.044-56.655z M62.099-45.942c0,1.297-1.052,2.349-2.349,2.349H44.805
			c-1.297,0-2.349-1.052-2.349-2.349s1.052-2.349,2.349-2.349H59.75C61.047-48.291,62.099-47.239,62.099-45.942z M48.393-32.881
			c-1.297,0-2.349-1.052-2.349-2.349s1.052-2.349,2.349-2.349h7.769c1.297,0,2.349,1.052,2.349,2.349s-1.052,2.349-2.349,2.349
			H48.393z M62.099-24.514c0,1.297-1.052,2.349-2.349,2.349H44.805c-1.297,0-2.349-1.052-2.349-2.349s1.052-2.349,2.349-2.349H59.75
			C61.047-26.863,62.099-25.812,62.099-24.514z M58.511-13.802c0,1.298-1.052,2.349-2.349,2.349h-7.769
			c-1.297,0-2.349-1.051-2.349-2.349c0-1.297,1.052-2.349,2.349-2.349h7.769C57.459-16.151,58.511-15.1,58.511-13.802z
			 M27.388-42.404l10.615,7.174l-10.615,7.174V-42.404z M77.167-42.404v14.349L66.552-35.23L77.167-42.404z"/>
	</g>
	<g id="Light-S" transform="matrix(1 0 0 1 1101.55 696)">
		<path d="M51.586-70.243c-19.306,0-35.012,15.707-35.012,35.013S32.28-0.217,51.586-0.217S86.598-15.924,86.598-35.23
			S70.891-70.243,51.586-70.243z M51.586-4.132c-17.147,0-31.097-13.95-31.097-31.098s13.95-31.098,31.097-31.098
			s31.097,13.95,31.097,31.098S68.733-4.132,51.586-4.132z M45.744-56.655c0-1.081,0.876-1.958,1.958-1.958h7.769
			c1.081,0,1.957,0.876,1.957,1.958c0,1.082-0.876,1.958-1.957,1.958h-7.769C46.62-54.697,45.744-55.573,45.744-56.655z
			 M61.015-45.942c0,1.081-0.876,1.958-1.958,1.958H44.114c-1.081,0-1.958-0.876-1.958-1.958c0-1.082,0.876-1.958,1.958-1.958
			h14.944C60.139-47.899,61.015-47.023,61.015-45.942z M47.701-33.272c-1.082,0-1.958-0.876-1.958-1.958s0.876-1.958,1.958-1.958
			h7.769c1.081,0,1.957,0.876,1.957,1.958s-0.876,1.958-1.957,1.958H47.701z M61.015-24.514c0,1.081-0.876,1.958-1.958,1.958H44.114
			c-1.081,0-1.958-0.876-1.958-1.958s0.876-1.958,1.958-1.958h14.944C60.139-26.472,61.015-25.595,61.015-24.514z M57.427-13.802
			c0,1.082-0.876,1.958-1.957,1.958h-7.769c-1.082,0-1.958-0.876-1.958-1.958c0-1.081,0.876-1.958,1.958-1.958h7.769
			C56.552-15.76,57.427-14.883,57.427-13.802z M26.696-42.404l10.615,7.174l-10.615,7.174V-42.404z M76.475-42.404v14.349
			L65.861-35.23L76.475-42.404z"/>
	</g>
	<g id="Thin-S" transform="matrix(1 0 0 1 805.763 696)">
		<path d="M50.659-69.459c-18.874,0-34.229,15.355-34.229,34.229S31.785-1,50.659-1S84.888-16.355,84.888-35.23
			S69.533-69.459,50.659-69.459z M50.659-3.35c-17.579,0-31.88-14.301-31.88-31.88c0-17.579,14.301-31.88,31.88-31.88
			s31.88,14.301,31.88,31.88C82.539-17.65,68.238-3.35,50.659-3.35z M45.6-56.655c0-0.649,0.526-1.174,1.175-1.174h7.769
			c0.649,0,1.175,0.525,1.175,1.174s-0.526,1.174-1.175,1.174h-7.769C46.126-55.48,45.6-56.006,45.6-56.655z M59.305-45.942
			c0,0.649-0.525,1.174-1.174,1.174H43.187c-0.649,0-1.174-0.525-1.174-1.174s0.525-1.174,1.174-1.174h14.944
			C58.78-47.116,59.305-46.591,59.305-45.942z M46.775-34.056c-0.649,0-1.175-0.525-1.175-1.174s0.526-1.174,1.175-1.174h7.769
			c0.649,0,1.175,0.525,1.175,1.174s-0.526,1.174-1.175,1.174H46.775z M59.305-24.514c0,0.648-0.525,1.174-1.174,1.174H43.187
			c-0.649,0-1.174-0.526-1.174-1.174s0.525-1.174,1.174-1.174h14.944C58.78-25.688,59.305-25.163,59.305-24.514z M55.718-13.802
			c0,0.648-0.526,1.175-1.175,1.175h-7.769c-0.649,0-1.175-0.526-1.175-1.175s0.526-1.174,1.175-1.174h7.769
			C55.192-14.977,55.718-14.451,55.718-13.802z M25.769-42.404l10.615,7.174l-10.615,7.174V-42.404z M75.548-42.404v14.349
			L64.934-35.23L75.548-42.404z"/>
	</g>
	<g id="Ultralight-S" transform="matrix(1 0 0 1 509.54 696)">
		<path d="M50.171-69.068c-18.658,0-33.838,15.18-33.838,33.838S31.513-1.392,50.171-1.392s33.838-15.18,33.838-33.838
			S68.829-69.068,50.171-69.068z M50.171-2.958c-17.794,0-32.271-14.477-32.271-32.272s14.477-32.272,32.271-32.272
			S82.442-53.025,82.442-35.23S67.965-2.958,50.171-2.958z M45.503-56.655c0-0.432,0.351-0.783,0.783-0.783h7.769
			c0.433,0,0.783,0.351,0.783,0.783c0,0.433-0.351,0.783-0.783,0.783h-7.769C45.854-55.872,45.503-56.222,45.503-56.655z
			 M58.426-45.942c0,0.432-0.351,0.783-0.783,0.783H42.699c-0.433,0-0.783-0.351-0.783-0.783c0-0.433,0.351-0.783,0.783-0.783
			h14.944C58.075-46.725,58.426-46.375,58.426-45.942z M46.287-34.447c-0.433,0-0.783-0.351-0.783-0.783
			c0-0.433,0.351-0.783,0.783-0.783h7.769c0.433,0,0.783,0.351,0.783,0.783c0,0.432-0.351,0.783-0.783,0.783H46.287z M58.426-24.514
			c0,0.433-0.351,0.783-0.783,0.783H42.699c-0.433,0-0.783-0.35-0.783-0.783s0.351-0.783,0.783-0.783h14.944
			C58.075-25.297,58.426-24.947,58.426-24.514z M54.838-13.802c0,0.433-0.351,0.783-0.783,0.783h-7.769
			c-0.433,0-0.783-0.35-0.783-0.783c0-0.433,0.351-0.783,0.783-0.783h7.769C54.488-14.585,54.838-14.235,54.838-13.802z
			 M25.281-42.404l10.615,7.174l-10.615,7.174V-42.404z M75.06-42.404v14.349L64.446-35.23L75.06-42.404z"/>
	</g>
</g>
</svg>
