<?xml version="1.0" encoding="utf-8"?>
<!-- Generator: Adobe Illustrator 16.0.0, SVG Export Plug-In . SVG Version: 6.00 Build 0)  -->
<!DOCTYPE svg PUBLIC "-//W3C//DTD SVG 1.1//EN" "http://www.w3.org/Graphics/SVG/1.1/DTD/svg11.dtd">
<svg version="1.1" id="Layer_1" xmlns="http://www.w3.org/2000/svg" xmlns:xlink="http://www.w3.org/1999/xlink" x="0px" y="0px"
	 width="3300px" height="2200px" viewBox="0 0 3300 2200" enable-background="new 0 0 3300 2200" xml:space="preserve">
<g id="Notes">
	<rect id="artboard" fill="#FFFFFF" width="3300" height="2200"/>
	<line fill="none" stroke="#000000" stroke-width="0.5" x1="263" y1="292" x2="3036" y2="292"/>
	<text transform="matrix(1 0 0 1 263 322)" font-family="'Arial-BoldMT'" font-size="12">Weight/Scale Variations</text>
	<text transform="matrix(1 0 0 1 536.0361 322)" font-family="'ArialMT'" font-size="12">Ultralight</text>
	<text transform="matrix(1 0 0 1 844.75 322)" font-family="'ArialMT'" font-size="12">Thin</text>
	<text transform="matrix(1 0 0 1 1140.1191 322)" font-family="'ArialMT'" font-size="12">Light</text>
	<text transform="matrix(1 0 0 1 1428.8281 322)" font-family="'ArialMT'" font-size="12">Regular</text>
	<text transform="matrix(1 0 0 1 1725.2207 322)" font-family="'ArialMT'" font-size="12">Medium</text>
	<text transform="matrix(1 0 0 1 2018.2559 322)" font-family="'ArialMT'" font-size="12">Semibold</text>
	<text transform="matrix(1 0 0 1 2327.9707 322)" font-family="'ArialMT'" font-size="12">Bold</text>
	<text transform="matrix(1 0 0 1 2619.6836 322)" font-family="'ArialMT'" font-size="12">Heavy</text>
	<text transform="matrix(1 0 0 1 2918.7285 322)" font-family="'ArialMT'" font-size="12">Black</text>
	<line fill="none" stroke="#000000" stroke-width="0.5" x1="263" y1="1903" x2="3036" y2="1903"/>
	<g transform="matrix(1 0 0 1 263 1933)">
		<path d="M9.248,0.83c4.307,0,7.891-3.574,7.891-7.881c0-4.308-3.594-7.881-7.9-7.881c-4.297,0-7.871,3.573-7.871,7.881
			C1.368-2.744,4.951,0.83,9.248,0.83z M9.248-0.654c-3.545,0-6.377-2.842-6.377-6.396s2.822-6.396,6.367-6.396
			c3.555,0,6.396,2.843,6.406,6.396C15.654-3.496,12.803-0.654,9.248-0.654z M6.396-6.318h2.109v2.119
			c0,0.439,0.293,0.742,0.723,0.742c0.449,0,0.742-0.303,0.742-0.742v-2.119h2.13c0.439,0,0.742-0.293,0.742-0.723
			c0-0.439-0.303-0.742-0.742-0.742H9.971v-2.108c0-0.449-0.293-0.753-0.742-0.753c-0.43,0-0.723,0.304-0.723,0.753v2.108h-2.11
			c-0.449,0-0.752,0.303-0.752,0.742C5.645-6.611,5.947-6.318,6.396-6.318z"/>
	</g>
	<g transform="matrix(1 0 0 1 281.506 1933)">
		<path d="M11.709,2.91c5.449,0,9.961-4.521,9.961-9.961c0-5.449-4.521-9.961-9.971-9.961c-5.439,0-9.951,4.512-9.951,9.961
			C1.748-1.611,6.269,2.91,11.709,2.91z M11.709,1.25c-4.609,0-8.291-3.691-8.291-8.301c0-4.61,3.672-8.301,8.281-8.301
			S20-11.66,20.01-7.051C20.02-2.442,16.318,1.25,11.709,1.25z M7.988-6.23h2.891v2.91c0,0.488,0.332,0.82,0.811,0.82
			c0.488,0,0.83-0.332,0.83-0.82v-2.91h2.91c0.488,0,0.82-0.332,0.82-0.811c0-0.488-0.332-0.83-0.82-0.83h-2.91v-2.891
			c0-0.508-0.342-0.84-0.83-0.84c-0.479,0-0.811,0.342-0.811,0.84v2.891H7.988c-0.508,0-0.84,0.342-0.84,0.83
			C7.148-6.563,7.49-6.23,7.988-6.23z"/>
	</g>
	<g transform="matrix(1 0 0 1 304.924 1933)">
		<path d="M14.97,5.664c6.963,0,12.725-5.762,12.725-12.715c0-6.963-5.771-12.726-12.734-12.726
			c-6.953,0-12.705,5.763-12.705,12.726C2.256-0.097,8.017,5.664,14.97,5.664z M14.97,3.848C8.935,3.848,4.081-1.015,4.081-7.05
			c0-6.045,4.844-10.898,10.879-10.898c6.045,0,10.898,4.854,10.908,10.898C25.879-1.015,21.015,3.848,14.97,3.848z M10.058-6.142
			h4.004v4.014c0,0.537,0.371,0.908,0.889,0.908c0.537,0,0.908-0.371,0.908-0.908v-4.014h4.023c0.527,0,0.908-0.371,0.908-0.89
			c0-0.537-0.371-0.918-0.908-0.918h-4.023v-4.004c0-0.557-0.371-0.928-0.908-0.928c-0.518,0-0.889,0.381-0.889,0.928v4.004h-4.004
			c-0.557,0-0.928,0.381-0.928,0.918C9.131-6.513,9.511-6.142,10.058-6.142z"/>
	</g>
	<text transform="matrix(1 0 0 1 263 1953)" font-family="'Arial-BoldMT'" font-size="12">Design Variations</text>
	<text transform="matrix(1 0 0 1 263 1971)" font-family="'ArialMT'" font-size="12">Symbols are supported in up to nine weights and three scales.</text>
	<text transform="matrix(1 0 0 1 263 1989)" font-family="'ArialMT'" font-size="12">For optimal layout with text and other symbols, vertically align</text>
	<text transform="matrix(1 0 0 1 263 2007)" font-family="'ArialMT'" font-size="12">symbols with the adjacent text.</text>
	<line fill="none" stroke="#00AEEF" stroke-width="0.5" x1="776" y1="1919" x2="776" y2="1933"/>
	<g transform="matrix(1 0 0 1 776 1933)">
		<path d="M3.311,0.127c0.519,0,0.771-0.195,0.957-0.732l1.261-3.457h5.762l1.26,3.457c0.187,0.537,0.439,0.732,0.947,0.732
			c0.518,0,0.85-0.313,0.85-0.801c0-0.166-0.028-0.313-0.106-0.527L9.66-13.389c-0.226-0.605-0.625-0.898-1.25-0.898
			c-0.605,0-1.017,0.293-1.23,0.889L2.598-1.191C2.52-0.976,2.49-0.83,2.49-0.664C2.49-0.176,2.803,0.127,3.311,0.127z M6.006-5.537
			l2.373-6.572h0.049l2.373,6.572H6.006z"/>
	</g>
	<line fill="none" stroke="#00AEEF" stroke-width="0.5" x1="792.836" y1="1919" x2="792.836" y2="1933"/>
	<text transform="matrix(1 0 0 1 776 1953)" font-family="'Arial-BoldMT'" font-size="12">Margins</text>
	<text transform="matrix(1 0 0 1 776 1971)" font-family="'ArialMT'" font-size="12">Leading and trailing margins on the left and right side of each symbol</text>
	<text transform="matrix(1 0 0 1 776 1989)" font-family="'ArialMT'" font-size="12">can be adjusted by modifying the x-location of the margin guidelines.</text>
	<text transform="matrix(1 0 0 1 776 2007)" font-family="'ArialMT'" font-size="12">Modifications are automatically applied proportionally to all</text>
	<text transform="matrix(1 0 0 1 776 2025)" font-family="'ArialMT'" font-size="12">scales and weights.</text>
	<g transform="matrix(1 0 0 1 1289 1933)">
		<path d="M2.842,1.865l1.699,1.709C5.4,4.444,6.387,4.385,7.314,3.36L17.49-7.851c0.264,0.088,0.537,0.067,0.85,0.01l1.064-0.195
			l0.664,0.674l-0.039,0.558c-0.039,0.498,0.088,0.879,0.576,1.356l0.762,0.742c0.479,0.479,1.094,0.508,1.563,0.039l2.91-2.92
			c0.469-0.469,0.449-1.064-0.029-1.543L25.04-9.892c-0.479-0.479-0.851-0.636-1.328-0.597l-0.576,0.049l-0.645-0.635l0.244-1.123
			c0.127-0.565-0.029-1.006-0.615-1.592l-2.197-2.188c-3.34-3.32-7.772-3.242-10.664-0.353c-0.42,0.41-0.448,0.986-0.215,1.377
			c0.234,0.361,0.693,0.597,1.338,0.431c1.465-0.343,2.988-0.4,4.414,0.536L14.21-12.53c-0.195,0.479-0.225,0.879-0.098,1.24
			L3.047-0.898C2.061,0.02,1.982,0.996,2.842,1.865z M10.752-15.957c2.432-1.777,5.723-1.475,7.949,0.752l2.432,2.412
			c0.234,0.234,0.273,0.42,0.205,0.762l-0.322,1.484l1.504,1.484l0.986-0.06c0.254-0.01,0.332,0.01,0.527,0.205l0.576,0.576
			L22.168-5.9l-0.576-0.575c-0.195-0.195-0.225-0.273-0.215-0.537l0.068-0.978l-1.494-1.483L18.428-9.22
			c-0.322,0.067-0.469,0.039-0.713-0.195l-2.002-2.002c-0.254-0.234-0.283-0.4-0.127-0.771l0.879-2.091
			c-1.563-1.455-3.594-2.08-5.625-1.483C10.684-15.722,10.625-15.849,10.752-15.957z M5.273,2.305L4.102,1.143
			C3.633,0.684,3.74,0.342,4.141-0.02l10.812-10.176l1.465,1.484L6.426,2.276C6.074,2.676,5.742,2.774,5.273,2.305z"/>
	</g>
	<text transform="matrix(1 0 0 1 1289 1953)" font-family="'Arial-BoldMT'" font-size="12">Exporting</text>
	<text transform="matrix(1 0 0 1 1289 1971)" font-family="'ArialMT'" font-size="12">Symbols should be outlined when exporting to ensure the</text>
	<text transform="matrix(1 0 0 1 1289 1989)" font-family="'ArialMT'" font-size="12">design is preserved when submitting to Xcode.</text>
	<text id="template-version" transform="matrix(1 0 0 1 2958.8496 1933)" font-family="'ArialMT'" font-size="12">Template v.2.0</text>
	<text transform="matrix(1 0 0 1 2878.5762 1951)" font-family="'ArialMT'" font-size="12">Requires Xcode 12 or greater</text>
	<text transform="matrix(1 0 0 1 2865.9258 1969)" font-family="'ArialMT'" font-size="12">Generated from processor.alt.fill</text>
	<text transform="matrix(1 0 0 1 2921.9238 1987)" font-family="'ArialMT'" font-size="12">Typeset at 100 points</text>
	<text transform="matrix(1 0 0 1 263 726)" font-family="'ArialMT'" font-size="12">Small</text>
	<text transform="matrix(1 0 0 1 263 1156)" font-family="'ArialMT'" font-size="12">Medium</text>
	<text transform="matrix(1 0 0 1 263 1586)" font-family="'ArialMT'" font-size="12">Large</text>
</g>
<g id="Guides">
	<g id="H-reference" transform="matrix(1 0 0 1 339 696)">
		<path fill="#27AAE1" d="M0.977,0h2.686l9.326-24.463h32.764L55.127,0h2.637L30.615-70.459h-2.49L0.977,0z M29.346-67.139h0.098
			l15.43,40.431H13.867L29.346-67.139z"/>
	</g>
	<line id="Baseline-S" fill="none" stroke="#27AAE1" stroke-width="0.5" x1="263" y1="696" x2="3036" y2="696"/>
	<line id="Capline-S" fill="none" stroke="#27AAE1" stroke-width="0.5" x1="263" y1="625.541" x2="3036" y2="625.541"/>
	<g id="H-reference_1_" transform="matrix(1 0 0 1 339 1126)">
		<path fill="#27AAE1" d="M0.977,0h2.686l9.326-24.463h32.764L55.127,0h2.637L30.615-70.459h-2.49L0.977,0z M29.346-67.138h0.098
			l15.43,40.43H13.867L29.346-67.138z"/>
	</g>
	<line id="Baseline-M" fill="none" stroke="#27AAE1" stroke-width="0.5" x1="263" y1="1126" x2="3036" y2="1126"/>
	<line id="Capline-M" fill="none" stroke="#27AAE1" stroke-width="0.5" x1="263" y1="1055.539" x2="3036" y2="1055.539"/>
	<g id="H-reference_2_" transform="matrix(1 0 0 1 339 1556)">
		<path fill="#27AAE1" d="M0.977,0h2.686l9.326-24.463h32.764L55.127,0h2.637L30.615-70.459h-2.49L0.977,0z M29.346-67.138h0.098
			l15.43,40.43H13.867L29.346-67.138z"/>
	</g>
	<line id="Baseline-L" fill="none" stroke="#27AAE1" stroke-width="0.5" x1="263" y1="1556" x2="3036" y2="1556"/>
	<line id="Capline-L" fill="none" stroke="#27AAE1" stroke-width="0.5" x1="263" y1="1485.539" x2="3036" y2="1485.539"/>
	<line id="left-margin" fill="none" stroke="#00AEEF" stroke-width="0.5" x1="1383.58" y1="1030.789" x2="1383.58" y2="1150.119"/>
	<line id="right-margin" fill="none" stroke="#00AEEF" stroke-width="0.5" x1="1516.1" y1="1030.789" x2="1516.1" y2="1150.119"/>
</g>
<g id="Symbols">
	<g id="Black-L" transform="matrix(1 0 0 1 2846.24 1556)">
		<path d="M72.569-83.629H28.141v-1.178c0-5.192,4.25-9.44,9.441-9.44h34.986V-83.629z M86.729-42.562h23.453v-51.686H95.1v31.743
			c0,2.623-2.134,4.756-4.757,4.756H73.48v30.678c3.829,1.394,6.573,5.056,6.573,9.356c0,5.498-4.472,9.972-9.97,9.972
			c-5.496,0-9.968-4.474-9.968-9.972c0-4.301,2.743-7.963,6.57-9.356v-32.716c0-2.62,2.136-4.756,4.756-4.756h16.863v-29.705h-8.941
			v12.657c0,2.623-2.133,4.757-4.758,4.757H28.141v52.552h13.627v-27.504c-3.826-1.394-6.571-5.056-6.571-9.354
			c0-5.499,4.472-9.973,9.968-9.973c5.498,0,9.97,4.474,9.97,9.973c0,4.298-2.745,7.961-6.573,9.354v29.543
			c0,2.621-2.133,4.755-4.756,4.755H28.141v31.835c0,5.193,4.25,9.44,9.441,9.44h29.104V4.358H51.35
			c-1.394,3.826-5.059,6.571-9.361,6.571c-5.495,0-9.967-4.473-9.967-9.969c0-5.495,4.472-9.966,9.967-9.966
			c4.303,0,7.965,2.744,9.361,6.569h17.375c2.621,0,4.755,2.133,4.755,4.756v21.468h8.493v-61.594
			C81.973-40.429,84.106-42.562,86.729-42.562z M48.34-61.139c0-1.753-1.418-3.179-3.176-3.179c-1.751,0-3.174,1.426-3.174,3.179
			c0,1.749,1.423,3.167,3.174,3.167C46.922-57.972,48.34-59.39,48.34-61.139z M41.989-2.21c-1.751,0-3.172,1.419-3.172,3.171
			c0,1.749,1.421,3.174,3.172,3.174c1.757,0,3.176-1.425,3.176-3.174C45.164-0.791,43.745-2.21,41.989-2.21z M126.572,23.788h10.164
			c5.192,0,9.44-4.247,9.44-9.44V-1.415h-19.604V23.788z M124.533-8.21h21.643v-11.82h-35.432v14.806
			c3.825,1.394,6.571,5.055,6.571,9.354c0,5.498-4.474,9.972-9.971,9.972c-5.494,0-9.962-4.474-9.962-9.972
			c0-4.298,2.742-7.959,6.564-9.352v-16.846c0-2.623,2.135-4.757,4.756-4.757h37.473v-12.588h-13.004
			c-2.622,0-4.755-2.133-4.755-4.756v-50.078h-11.44v53.724c0,2.622-2.134,4.756-4.756,4.756H88.767v59.556h31.01V-3.453
			C119.777-6.074,121.911-8.21,124.533-8.21z M70.083-20.885c-1.753,0-3.175,1.421-3.175,3.171c0,1.753,1.422,3.176,3.175,3.176
			c1.757,0,3.175-1.423,3.175-3.176C73.258-19.464,71.84-20.885,70.083-20.885z M104.176,4.129c0,1.753,1.418,3.178,3.169,3.178
			c1.76,0,3.175-1.425,3.175-3.178c0-1.752-1.415-3.168-3.175-3.168C105.594,0.961,104.176,2.377,104.176,4.129z M146.176-46.207
			v-38.6c0-5.192-4.248-9.44-9.44-9.44h-1.524v48.04H146.176z"/>
	</g>
	<g id="Heavy-L" transform="matrix(1 0 0 1 2550.07 1556)">
		<path d="M73.288-82.897H29.143v-1.367c0-5.136,4.205-9.337,9.339-9.337h34.807V-82.897z M145.889-45.885v-38.38
			c0-5.136-4.203-9.337-9.338-9.337h-1.711v47.717H145.889z M70.627-21.041c-1.733,0-3.139,1.405-3.139,3.136
			c0,1.733,1.405,3.142,3.139,3.142c1.737,0,3.141-1.408,3.141-3.142C73.768-19.636,72.365-21.041,70.627-21.041z M124.483-8.302
			h21.406v-12.098H110.64v15.201c3.663,1.303,6.3,4.794,6.3,8.896c0,5.216-4.244,9.461-9.458,9.461c-5.21,0-9.452-4.245-9.452-9.461
			c0-4.102,2.633-7.591,6.294-8.896v-17.016c0-2.481,2.019-4.502,4.503-4.502h37.063v-12.853h-12.863
			c-2.482,0-4.502-2.02-4.502-4.502v-49.531h-11.719v53.137c0,2.482-2.018,4.502-4.501,4.502H88.905v59.105h31.075V-3.801
			C119.98-6.284,121.999-8.302,124.483-8.302z M126.296,23.143h10.255c5.135,0,9.338-4.201,9.338-9.337V-1.986h-19.593V23.143z
			 M87.09-42.28h23.4v-51.321H95.168v31.396c0,2.483-2.02,4.503-4.503,4.503H73.784v30.897c3.666,1.305,6.302,4.795,6.302,8.899
			c0,5.216-4.244,9.46-9.459,9.46c-5.214,0-9.455-4.244-9.455-9.46c0-4.104,2.634-7.595,6.297-8.899v-32.712
			c0-2.481,2.019-4.502,4.502-4.502h16.881v-29.583h-9.247v12.518c0,2.483-2.019,4.504-4.504,4.504H29.143v52.38h13.679v-27.758
			c-3.663-1.305-6.296-4.796-6.296-8.899c0-5.215,4.242-9.458,9.455-9.458c5.215,0,9.457,4.243,9.457,9.458
			c0,4.104-2.635,7.596-6.299,8.899v29.573c0,2.484-2.02,4.502-4.503,4.502H29.143v31.688c0,5.136,4.205,9.337,9.339,9.337h28.987
			V3.724H51.743c-1.305,3.663-4.798,6.299-8.903,6.299c-5.213,0-9.455-4.243-9.455-9.457c0-5.213,4.242-9.454,9.455-9.454
			c4.105,0,7.599,2.634,8.903,6.297h17.54c2.482,0,4.501,2.019,4.501,4.502v21.232h8.804v-60.921
			C82.588-40.26,84.608-42.28,87.09-42.28z M104.348,3.698c0,1.733,1.402,3.143,3.134,3.143c1.74,0,3.141-1.409,3.141-3.143
			c0-1.731-1.4-3.133-3.141-3.133C105.75,0.565,104.348,1.967,104.348,3.698z M49.12-60.857c0-1.731-1.4-3.142-3.14-3.142
			c-1.732,0-3.139,1.41-3.139,3.142s1.406,3.135,3.139,3.135C47.72-57.723,49.12-59.126,49.12-60.857z M42.84-2.57
			c-1.734,0-3.138,1.402-3.138,3.136c0,1.729,1.403,3.138,3.138,3.138c1.736,0,3.141-1.408,3.141-3.138
			C45.981-1.168,44.576-2.57,42.84-2.57z"/>
	</g>
	<g id="Bold-L" transform="matrix(1 0 0 1 2253.97 1556)">
		<path d="M44.932,0.17c0,1.712-1.389,3.104-3.106,3.104c-1.713,0-3.102-1.392-3.102-3.104c0-1.713,1.389-3.102,3.102-3.102
			C43.544-2.932,44.932-1.543,44.932,0.17z M124.162,22.498h10.34c5.079,0,9.234-4.153,9.234-9.234V-2.553h-19.574V22.498z
			 M122.567-8.401h21.169v-12.359h-35.057v15.583c3.505,1.213,6.03,4.537,6.03,8.446c0,4.938-4.018,8.957-8.955,8.957
			c-4.934,0-8.95-4.02-8.95-8.957c0-3.907,2.524-7.23,6.024-8.445v-17.181c0-2.344,1.908-4.253,4.254-4.253h36.653V-39.72h-12.719
			c-2.347,0-4.254-1.908-4.254-4.254v-48.983h-11.987v52.55c0,2.345-1.908,4.253-4.253,4.253H87.184v58.652h31.129V-4.148
			C118.313-6.493,120.219-8.401,122.567-8.401z M48.039-60.573c0-1.714-1.388-3.108-3.106-3.108c-1.713,0-3.104,1.395-3.104,3.108
			c0,1.712,1.391,3.1,3.104,3.1C46.651-57.474,48.039-58.861,48.039-60.573z M69.306-21.197c-1.714,0-3.104,1.389-3.104,3.101
			c0,1.715,1.391,3.107,3.104,3.107c1.719,0,3.106-1.393,3.106-3.107C72.413-19.809,71.025-21.197,69.306-21.197z M72.135-92.957
			H37.516c-5.078,0-9.235,4.156-9.235,9.234v1.551h43.854V-92.957z M102.654,3.269c0,1.715,1.387,3.108,3.101,3.108
			c1.719,0,3.105-1.394,3.105-3.108c0-1.713-1.387-3.099-3.105-3.099C104.041,0.17,102.654,1.556,102.654,3.269z M85.588-42.003
			h23.341v-50.954H93.378v31.051c0,2.346-1.908,4.254-4.255,4.254H72.23v31.106c3.505,1.214,6.03,4.539,6.03,8.449
			c0,4.937-4.016,8.956-8.954,8.956c-4.936,0-8.953-4.02-8.953-8.956c0-3.91,2.526-7.235,6.029-8.449v-32.702
			c0-2.346,1.908-4.254,4.253-4.254h16.893v-29.455h-9.542v12.381c0,2.346-1.909,4.253-4.255,4.253h-45.45v52.201h13.727v-28.005
			c-3.504-1.214-6.028-4.537-6.028-8.446c0-4.938,4.017-8.956,8.953-8.956c4.938,0,8.955,4.018,8.955,8.956
			c0,3.909-2.527,7.233-6.031,8.448v29.599c0,2.345-1.907,4.253-4.254,4.253H28.281v31.537c0,5.081,4.157,9.234,9.235,9.234h28.866
			V3.095H50.279c-1.214,3.503-4.54,6.028-8.453,6.028c-4.936,0-8.95-4.016-8.95-8.953c0-4.935,4.015-8.951,8.95-8.951
			c3.913,0,7.239,2.526,8.453,6.027h17.698c2.346,0,4.253,1.908,4.253,4.254v20.998h9.104v-60.247
			C81.335-40.095,83.242-42.003,85.588-42.003z M143.736-45.568v-38.154c0-5.078-4.155-9.234-9.234-9.234h-1.89v47.389H143.736z"/>
	</g>
	<g id="Semibold-L" transform="matrix(1 0 0 1 1957.7 1556)">
		<path d="M117.713-4.495v26.348H86.536v-58.194h23.275c2.211,0,4.009-1.798,4.009-4.008v-51.963h12.247v48.438
			c0,2.209,1.798,4.008,4.009,4.008h12.577v13.357H106.41c-2.21,0-4.009,1.799-4.009,4.009v17.336
			c-3.343,1.127-5.76,4.285-5.76,8.003c0,4.666,3.793,8.461,8.453,8.461c4.667,0,8.461-3.795,8.461-8.461
			c0-3.718-2.42-6.877-5.766-8.004V-21.12h34.863v12.616h-20.932C119.511-8.504,117.713-6.706,117.713-4.495z M123.101,21.853
			h10.423c5.021,0,9.13-4.107,9.13-9.13V-3.115h-19.553V21.853z M102.031,2.838c0,1.695,1.371,3.072,3.063,3.072
			c1.702,0,3.072-1.377,3.072-3.072c0-1.693-1.37-3.063-3.072-3.063C103.403-0.226,102.031,1.145,102.031,2.838z M142.654-45.256
			v-37.926c0-5.022-4.109-9.131-9.13-9.131h-2.067v47.057H142.654z M85.156-41.73h23.278v-50.582H92.66v30.703
			c0,2.211-1.798,4.009-4.009,4.009h-16.9v31.304c3.346,1.129,5.766,4.287,5.766,8.009c0,4.665-3.795,8.46-8.461,8.46
			c-4.664,0-8.458-3.795-8.458-8.46c0-3.719,2.417-6.88,5.765-8.009v-32.683c0-2.21,1.798-4.009,4.009-4.009h16.901v-29.324H77.44
			v12.243c0,2.209-1.798,4.007-4.009,4.007H28.49v52.014h13.77v-28.234c-3.344-1.129-5.762-4.288-5.762-8.007
			c0-4.666,3.795-8.462,8.457-8.462c4.665,0,8.459,3.796,8.459,8.462c0,3.719-2.418,6.878-5.766,8.007v29.615
			c0,2.209-1.798,4.008-4.008,4.008H28.49v31.383c0,5.022,4.111,9.13,9.132,9.13h28.741V2.469H49.895
			c-1.128,3.345-4.292,5.764-8.012,5.764c-4.663,0-8.456-3.795-8.456-8.458c0-4.662,3.793-8.456,8.456-8.456
			c3.72,0,6.884,2.418,8.012,5.763h17.848c2.211,0,4.009,1.798,4.009,4.009v20.763h9.396v-59.574
			C81.148-39.931,82.947-41.73,85.156-41.73z M69.056-21.354c-1.694,0-3.07,1.374-3.07,3.066c0,1.694,1.376,3.072,3.07,3.072
			c1.699,0,3.071-1.378,3.071-3.072C72.127-19.98,70.755-21.354,69.056-21.354z M48.026-60.29c0-1.694-1.37-3.074-3.071-3.074
			c-1.693,0-3.068,1.38-3.068,3.074c0,1.692,1.375,3.063,3.068,3.063C46.656-57.227,48.026-58.598,48.026-60.29z M72.053-92.313
			H37.621c-5.021,0-9.132,4.108-9.132,9.131v1.732h43.563V-92.313z M41.883-3.292c-1.693,0-3.067,1.372-3.067,3.066
			c0,1.691,1.374,3.068,3.067,3.068c1.698,0,3.071-1.377,3.071-3.068C44.954-1.92,43.581-3.292,41.883-3.292z"/>
	</g>
	<g id="Medium-L" transform="matrix(1 0 0 1 1661.3 1556)">
		<path d="M104.558-0.621c1.683,0,3.038,1.355,3.038,3.029c0,1.676-1.355,3.039-3.038,3.039c-1.675,0-3.03-1.363-3.03-3.039
			C101.528,0.734,102.884-0.621,104.558-0.621z M42.059-3.653c-1.675,0-3.033,1.356-3.033,3.032c0,1.674,1.358,3.035,3.033,3.035
			c1.68,0,3.037-1.361,3.037-3.035C45.096-2.297,43.739-3.653,42.059-3.653z M120.996-8.612h20.696v-12.862h-34.664v16.312
			c3.192,1.041,5.506,4.039,5.506,7.571c0,4.398-3.578,7.976-7.976,7.976c-4.394,0-7.967-3.577-7.967-7.976
			c0-3.531,2.311-6.527,5.499-7.571v-17.481c0-2.077,1.69-3.768,3.769-3.768h35.833v-13.597h-12.437
			c-2.076,0-3.767-1.69-3.767-3.769v-47.89H112.99v51.374c0,2.079-1.69,3.77-3.769,3.77H86.013v57.731h31.213V-4.843
			C117.226-6.92,118.919-8.612,120.996-8.612z M48.132-60.008c0-1.674-1.355-3.037-3.035-3.037c-1.675,0-3.034,1.363-3.034,3.037
			s1.359,3.031,3.034,3.031C46.776-56.977,48.132-58.334,48.132-60.008z M84.844-41.462h23.208v-50.205H92.069v30.356
			c0,2.079-1.691,3.768-3.769,3.768H71.396v31.491c3.19,1.04,5.505,4.038,5.505,7.572c0,4.397-3.578,7.976-7.976,7.976
			c-4.396,0-7.973-3.578-7.973-7.976c0-3.534,2.313-6.532,5.504-7.572v-32.66c0-2.077,1.691-3.768,3.769-3.768H87.13v-29.188H77.02
			v12.104c0,2.079-1.691,3.769-3.769,3.769H28.817v51.813h13.81v-28.454c-3.189-1.042-5.503-4.04-5.503-7.572
			c0-4.396,3.577-7.976,7.973-7.976c4.397,0,7.974,3.579,7.974,7.976c0,3.532-2.313,6.532-5.504,7.572v29.625
			c0,2.077-1.691,3.77-3.769,3.77h-14.98v31.222c0,4.967,4.064,9.027,9.029,9.027h28.61V1.85H49.638
			c-1.044,3.189-4.045,5.502-7.579,5.502c-4.395,0-7.971-3.576-7.971-7.973c0-4.395,3.576-7.971,7.971-7.971
			c3.534,0,6.535,2.313,7.579,5.501h17.988c2.077,0,3.77,1.693,3.77,3.77v20.529h9.679v-58.9
			C81.075-39.771,82.765-41.462,84.844-41.462z M141.692-44.947V-82.64c0-4.965-4.063-9.027-9.027-9.027h-2.237v46.72H141.692z
			 M72.083-91.667H37.846c-4.965,0-9.029,4.063-9.029,9.027v1.907h43.266V-91.667z M68.926-21.511c-1.675,0-3.034,1.358-3.034,3.031
			c0,1.677,1.359,3.037,3.034,3.037c1.681,0,3.037-1.36,3.037-3.037C71.963-20.152,70.606-21.511,68.926-21.511z M122.166,21.208
			h10.499c4.965,0,9.027-4.061,9.027-9.027V-3.672h-19.526V21.208z"/>
	</g>
	<g id="Regular-L" transform="matrix(1 0 0 1 1365.01 1556)">
		<path d="M80.923-37.649v57.89h-9.897V0.063c0-1.936-1.576-3.511-3.512-3.511H49.496c-0.952-3.02-3.779-5.217-7.11-5.217
			c-4.109,0-7.452,3.343-7.452,7.45c0,4.111,3.343,7.453,7.452,7.453c3.332,0,6.159-2.197,7.11-5.218h17.06v19.22H38.244
			c-4.88,0-8.875-3.99-8.875-8.872v-30.88h14.723c1.936,0,3.512-1.574,3.512-3.512v-29.453c3.022-0.951,5.219-3.777,5.219-7.105
			c0-4.111-3.344-7.458-7.454-7.458c-4.109,0-7.453,3.347-7.453,7.458c0,3.328,2.197,6.154,5.217,7.105v28.495H29.369V-75.29h43.674
			c1.936,0,3.512-1.576,3.512-3.514v-11.896h10.319v28.877H70.068c-1.936,0-3.512,1.578-3.512,3.513v32.437
			c-3.021,0.951-5.218,3.776-5.218,7.106c0,4.11,3.343,7.456,7.453,7.456s7.455-3.346,7.455-7.456c0-3.33-2.198-6.155-5.219-7.106
			v-31.478h16.807c1.937,0,3.513-1.576,3.513-3.514v-29.835h16.092v49.536H84.435C82.499-41.163,80.923-39.587,80.923-37.649z
			 M48.354-59.582c0-1.646-1.332-2.985-2.984-2.985c-1.646,0-2.982,1.339-2.982,2.985c0,1.646,1.335,2.979,2.982,2.979
			C47.022-56.604,48.354-57.937,48.354-59.582z M42.385-4.193c-1.647,0-2.981,1.331-2.981,2.979c0,1.646,1.334,2.983,2.981,2.983
			c1.651,0,2.984-1.338,2.984-2.983C45.37-2.862,44.037-4.193,42.385-4.193z M119.968-8.875h20.341v-13.027h-34.262v16.561
			c3.022,0.951,5.221,3.777,5.221,7.105c0,4.111-3.345,7.456-7.456,7.456c-4.107,0-7.448-3.345-7.448-7.456
			c0-3.328,2.195-6.151,5.213-7.104v-17.52c0-1.937,1.576-3.513,3.513-3.513h35.219v-13.747h-12.222
			c-1.937,0-3.512-1.575-3.512-3.512v-47.068h-12.668v50.495c0,1.937-1.576,3.512-3.512,3.512H85.394V20.24h31.062V-5.364
			C116.455-7.301,118.031-8.875,119.968-8.875z M140.309-44.588v-37.239c0-4.88-3.992-8.872-8.873-8.872h-2.391v46.111H140.309z
			 M100.835,1.764c0,1.646,1.332,2.985,2.978,2.985c1.653,0,2.984-1.339,2.984-2.985s-1.332-2.979-2.984-2.979
			C102.166-1.215,100.835,0.117,100.835,1.764z M68.791-21.746c-1.647,0-2.984,1.334-2.984,2.979c0,1.647,1.337,2.986,2.984,2.986
			c1.651,0,2.984-1.339,2.984-2.986C71.775-20.412,70.442-21.746,68.791-21.746z M72.085-90.699H38.244
			c-4.88,0-8.875,3.992-8.875,8.872v2.066h42.716V-90.699z M120.926,20.24h10.511c4.881,0,8.873-3.99,8.873-8.872V-4.406h-19.384
			V20.24z"/>
	</g>
	<g id="Light-L" transform="matrix(1 0 0 1 1069.2 1556)">
		<path d="M68.168-21.981c1.623,0,2.932,1.312,2.932,2.927c0,1.619-1.309,2.935-2.932,2.935c-1.619,0-2.932-1.315-2.932-2.935
			C65.237-20.67,66.55-21.981,68.168-21.981z M42.223-4.737c-1.619,0-2.93,1.311-2.93,2.931c0,1.615,1.311,2.929,2.93,2.929
			c1.623,0,2.932-1.313,2.932-2.929C45.156-3.427,43.846-4.737,42.223-4.737z M138.439-44.238v-36.775
			c0-4.795-3.923-8.719-8.718-8.719h-2.538v45.494H138.439z M119.205,19.273h10.516c4.795,0,8.718-3.922,8.718-8.72V-5.133h-19.234
			V19.273z M118.452-9.146h19.987v-13.177h-33.852v16.798c2.854,0.863,4.94,3.514,4.94,6.643c0,3.832-3.117,6.95-6.948,6.95
			c-3.828,0-6.942-3.118-6.942-6.95c0-3.128,2.083-5.778,4.934-6.642v-17.552c0-1.799,1.465-3.264,3.264-3.264h34.605v-13.882
			h-12.008c-1.8,0-3.263-1.464-3.263-3.263v-46.248h-12.823v49.613c0,1.8-1.464,3.265-3.263,3.265H84.293v56.128h30.897V-5.885
			C115.19-7.684,116.653-9.146,118.452-9.146z M83.54-40.872h22.788v-48.86H90.141v29.316c0,1.799-1.463,3.263-3.263,3.263H70.177
			v31.454c2.854,0.863,4.94,3.514,4.94,6.645c0,3.833-3.117,6.951-6.948,6.951c-3.832,0-6.947-3.118-6.947-6.951
			c0-3.131,2.085-5.781,4.939-6.645v-32.207c0-1.799,1.464-3.264,3.263-3.264h16.702v-28.563H75.609v11.689
			c0,1.799-1.464,3.263-3.263,3.263H29.434v50.79h13.713v-28.523c-2.854-0.863-4.938-3.514-4.938-6.644
			c0-3.833,3.116-6.95,6.946-6.95c3.831,0,6.948,3.117,6.948,6.95c0,3.13-2.085,5.78-4.941,6.644v29.275
			c0,1.801-1.463,3.265-3.263,3.265H29.434v30.527c0,4.798,3.926,8.72,8.719,8.72H66.16V0.2H48.873
			c-0.864,2.854-3.517,4.939-6.65,4.939c-3.83,0-6.945-3.116-6.945-6.946s3.115-6.946,6.945-6.946c3.133,0,5.786,2.085,6.65,4.938
			h18.04c1.799,0,3.263,1.464,3.263,3.263v19.825h10.101v-56.883C80.277-39.408,81.741-40.872,83.54-40.872z M48.088-59.157
			c0-1.618-1.309-2.935-2.932-2.935c-1.617,0-2.93,1.316-2.93,2.935c0,1.616,1.313,2.926,2.93,2.926
			C46.779-56.231,48.088-57.541,48.088-59.157z M71.593-89.732H38.154c-4.793,0-8.719,3.924-8.719,8.719v2.218h42.159V-89.732z
			 M99.653,1.117c0,1.619,1.308,2.936,2.926,2.936c1.624,0,2.932-1.316,2.932-2.936c0-1.616-1.308-2.924-2.932-2.924
			C100.961-1.807,99.653-0.499,99.653,1.117z"/>
	</g>
	<g id="Thin-L" transform="matrix(1 0 0 1 773.683 1556)">
		<path d="M70.8-77.839H29.205v-2.362c0-4.71,3.856-8.563,8.565-8.563H70.8V-77.839z M64.372-19.342c0,1.592,1.29,2.883,2.879,2.883
			c1.594,0,2.88-1.291,2.88-2.883c0-1.586-1.286-2.876-2.88-2.876C65.661-22.218,64.372-20.928,64.372-19.342z M98.176,0.474
			c0,1.589,1.286,2.881,2.875,2.881c1.595,0,2.88-1.292,2.88-2.881c0-1.59-1.286-2.874-2.88-2.874
			C99.462-2.4,98.176-1.116,98.176,0.474z M47.527-58.733c0-1.588-1.286-2.881-2.88-2.881c-1.589,0-2.878,1.293-2.878,2.881
			s1.289,2.875,2.878,2.875C46.241-55.858,47.527-57.146,47.527-58.733z M136.275-43.893v-36.309c0-4.71-3.854-8.563-8.564-8.563
			h-2.677v44.872H136.275z M82.35-40.586h22.568v-48.179H88.65v28.796c0,1.665-1.355,3.02-3.021,3.02h-16.59v31.441
			c2.686,0.779,4.667,3.232,4.667,6.166c0,3.562-2.896,6.457-6.455,6.457c-3.559,0-6.454-2.896-6.454-6.457
			c0-2.934,1.98-5.387,4.666-6.166v-31.996c0-1.665,1.355-3.021,3.021-3.021h16.59v-28.24H74.375v11.481
			c0,1.666-1.355,3.021-3.021,3.021h-42.15v50.257h13.655v-28.563c-2.685-0.78-4.666-3.234-4.666-6.166
			c0-3.56,2.895-6.454,6.453-6.454c3.559,0,6.454,2.895,6.454,6.454c0,2.933-1.98,5.386-4.667,6.166v29.118
			c0,1.665-1.355,3.021-3.02,3.021h-14.21V9.743c0,4.711,3.856,8.563,8.565,8.563h27.693V-0.612H47.938
			c-0.781,2.685-3.237,4.665-6.171,4.665c-3.558,0-6.452-2.896-6.452-6.453s2.894-6.453,6.452-6.453c2.934,0,5.39,1.981,6.171,4.666
			h18.08c1.666,0,3.021,1.354,3.021,3.02v19.474h10.291v-55.872C79.329-39.231,80.685-40.586,82.35-40.586z M116.643-9.426h19.632
			v-13.311h-33.436v17.043c2.686,0.78,4.667,3.234,4.667,6.167c0,3.56-2.896,6.457-6.455,6.457c-3.556,0-6.449-2.897-6.449-6.457
			c0-2.932,1.978-5.386,4.662-6.167v-17.599c0-1.665,1.354-3.02,3.02-3.02h33.991v-14.006h-11.796c-1.666,0-3.021-1.354-3.021-3.021
			v-45.426h-12.965v48.734c0,1.665-1.355,3.02-3.02,3.02H82.905v55.316h30.717v-24.71C113.622-8.07,114.977-9.426,116.643-9.426z
			 M117.198,18.306h10.513c4.71,0,8.564-3.852,8.564-8.563V-5.851h-19.077V18.306z M41.767-5.277c-1.59,0-2.878,1.286-2.878,2.877
			c0,1.586,1.288,2.878,2.878,2.878c1.594,0,2.88-1.292,2.88-2.878C44.647-3.991,43.361-5.277,41.767-5.277z"/>
	</g>
	<g id="Ultralight-L" transform="matrix(1 0 0 1 477.607 1556)">
		<path d="M70.53-76.886H29.504v-2.502c0-4.625,3.786-8.409,8.411-8.409H70.53V-76.886z M64.036-19.629
			c0,1.563,1.266,2.831,2.828,2.831c1.565,0,2.828-1.268,2.828-2.831c0-1.557-1.262-2.822-2.828-2.822
			C65.302-22.451,64.036-21.186,64.036-19.629z M134.639-43.553v-35.835c0-4.625-3.784-8.409-8.41-8.409h-2.81v44.244H134.639z
			 M97.229-0.172c0,1.561,1.262,2.83,2.823,2.83c1.566,0,2.829-1.27,2.829-2.83c0-1.562-1.262-2.821-2.829-2.821
			C98.491-2.993,97.229-1.733,97.229-0.172z M115.725,17.338h10.505c4.626,0,8.41-3.783,8.41-8.407V-6.564h-18.915V17.338z
			 M81.689-40.308h22.342v-47.489H87.692v28.275c0,1.534-1.249,2.783-2.784,2.783H68.436v31.377
			c2.528,0.695,4.402,2.989,4.402,5.732c0,3.297-2.682,5.978-5.975,5.978c-3.294,0-5.975-2.681-5.975-5.978
			c0-2.743,1.873-5.037,4.401-5.732v-31.74c0-1.534,1.249-2.783,2.784-2.783h16.473v-27.912h-10.87v11.274
			c0,1.535-1.249,2.783-2.784,2.783H29.504v49.713h13.59v-28.549c-2.528-0.695-4.4-2.988-4.4-5.733c0-3.294,2.68-5.977,5.974-5.977
			c3.294,0,5.975,2.683,5.975,5.977c0,2.745-1.874,5.038-4.402,5.733v28.913c0,1.535-1.249,2.785-2.783,2.785H29.504V8.931
			c0,4.624,3.786,8.407,8.411,8.407h27.375V-1.421H47.578c-0.696,2.526-2.991,4.401-5.738,4.401c-3.293,0-5.973-2.681-5.973-5.974
			c0-3.294,2.68-5.972,5.973-5.972c2.747,0,5.042,1.871,5.738,4.398h18.076c1.534,0,2.783,1.248,2.783,2.782v19.122h10.469v-54.861
			C78.905-39.058,80.154-40.308,81.689-40.308z M41.839-5.817c-1.561,0-2.826,1.262-2.826,2.824c0,1.558,1.265,2.827,2.826,2.827
			c1.565,0,2.828-1.27,2.828-2.827C44.667-4.556,43.405-5.817,41.839-5.817z M47.495-58.309c0-1.56-1.261-2.829-2.828-2.829
			c-1.561,0-2.826,1.27-2.826,2.829s1.265,2.823,2.826,2.823C46.234-55.485,47.495-56.749,47.495-58.309z M115.362-9.711h19.277
			v-13.434h-33.014v17.241c2.529,0.694,4.402,2.988,4.402,5.731c0,3.295-2.681,5.977-5.976,5.977c-3.291,0-5.969-2.682-5.969-5.977
			c0-2.743,1.871-5.036,4.396-5.73v-17.605c0-1.534,1.249-2.783,2.783-2.783h33.377v-14.116h-11.582
			c-1.536,0-2.785-1.248-2.785-2.784v-44.605h-13.094v47.852c0,1.536-1.249,2.785-2.784,2.785H82.052v54.498h30.526V-6.926
			C112.578-8.461,113.827-9.711,115.362-9.711z"/>
	</g>
	<g id="Black-M" transform="matrix(1 0 0 1 2865.58 1126)">
		<path d="M56.509-72.747h-34.44v-0.914c0-4.025,3.295-7.318,7.319-7.318h27.121V-72.747z M67.485-40.913h18.181v-40.066H73.975
			v24.607c0,2.033-1.654,3.687-3.688,3.687H57.215v23.78c2.968,1.08,5.096,3.92,5.096,7.254c0,4.262-3.467,7.729-7.729,7.729
			c-4.261,0-7.728-3.467-7.728-7.729c0-3.334,2.127-6.173,5.094-7.254v-25.36c0-2.032,1.655-3.687,3.687-3.687h13.072v-23.027
			h-6.932v9.812c0,2.033-1.653,3.687-3.688,3.687h-36.02v40.738h10.563v-21.321c-2.966-1.08-5.094-3.918-5.094-7.251
			c0-4.262,3.466-7.73,7.727-7.73c4.262,0,7.729,3.468,7.729,7.73c0,3.333-2.128,6.172-5.096,7.251v22.901
			c0,2.033-1.653,3.688-3.687,3.688H22.068V3.203c0,4.025,3.295,7.318,7.319,7.318h22.561V-4.541H40.06
			c-1.08,2.967-3.921,5.094-7.257,5.094c-4.26,0-7.726-3.467-7.726-7.727s3.466-7.727,7.726-7.727c3.336,0,6.175,2.127,7.257,5.094
			h13.469c2.032,0,3.687,1.652,3.687,3.686v16.643h6.584v-47.748C63.799-39.259,65.452-40.913,67.485-40.913z M37.727-55.314
			c0-1.358-1.1-2.463-2.462-2.463c-1.357,0-2.46,1.105-2.46,2.463c0,1.357,1.103,2.456,2.46,2.456
			C36.627-52.858,37.727-53.958,37.727-55.314z M32.803-9.633c-1.357,0-2.459,1.1-2.459,2.459c0,1.355,1.102,2.459,2.459,2.459
			c1.362,0,2.462-1.104,2.462-2.459C35.265-8.533,34.165-9.633,32.803-9.633z M98.371,10.521h7.879c4.025,0,7.318-3.293,7.318-7.318
			V-9.016H98.371V10.521z M96.791-14.283h16.777v-9.164H86.102v11.479c2.966,1.08,5.095,3.918,5.095,7.25
			c0,4.262-3.468,7.73-7.729,7.73c-4.259,0-7.723-3.469-7.723-7.73c0-3.332,2.126-6.17,5.089-7.25v-13.059
			c0-2.033,1.655-3.687,3.687-3.687h29.049v-9.757h-10.08c-2.033,0-3.687-1.654-3.687-3.687v-38.82h-8.868v41.646
			c0,2.033-1.654,3.687-3.687,3.687H69.065v46.167h24.038v-21.117C93.104-12.629,94.759-14.283,96.791-14.283z M54.582-24.109
			c-1.359,0-2.461,1.102-2.461,2.459s1.102,2.461,2.461,2.461c1.361,0,2.461-1.104,2.461-2.461S55.943-24.109,54.582-24.109z
			 M81.011-4.719c0,1.359,1.099,2.463,2.456,2.463c1.364,0,2.461-1.104,2.461-2.463c0-1.357-1.097-2.455-2.461-2.455
			C82.109-7.174,81.011-6.076,81.011-4.719z M113.568-43.739v-29.922c0-4.025-3.293-7.318-7.318-7.318h-1.182v37.24H113.568z"/>
	</g>
	<g id="Heavy-M" transform="matrix(1 0 0 1 2569.23 1126)">
		<path d="M57.327-72.181H23.106v-1.06c0-3.981,3.26-7.238,7.239-7.238h26.981V-72.181z M113.606-43.489v-29.752
			c0-3.981-3.258-7.238-7.238-7.238h-1.326v36.99H113.606z M55.264-24.23c-1.344,0-2.434,1.09-2.434,2.432
			c0,1.344,1.09,2.436,2.434,2.436c1.347,0,2.435-1.092,2.435-2.436C57.699-23.141,56.611-24.23,55.264-24.23z M97.012-14.355
			h16.594v-9.377H86.282v11.783c2.84,1.01,4.884,3.717,4.884,6.896c0,4.043-3.29,7.334-7.332,7.334
			c-4.039,0-7.327-3.291-7.327-7.334c0-3.18,2.041-5.885,4.879-6.896v-13.189c0-1.924,1.564-3.491,3.49-3.491h28.73v-9.963h-9.971
			c-1.925,0-3.49-1.565-3.49-3.49v-38.396h-9.084v41.191c0,1.924-1.564,3.49-3.489,3.49h-18.14v45.819h24.09v-20.887
			C93.522-12.791,95.087-14.355,97.012-14.355z M98.418,10.021h7.949c3.98,0,7.238-3.258,7.238-7.238V-9.459H98.418V10.021z
			 M68.026-40.694h18.14v-39.785H74.288v24.339c0,1.925-1.565,3.491-3.49,3.491H57.711v23.952c2.842,1.01,4.885,3.717,4.885,6.899
			c0,4.043-3.29,7.332-7.332,7.332s-7.33-3.289-7.33-7.332c0-3.182,2.042-5.889,4.882-6.899v-25.358c0-1.924,1.564-3.49,3.489-3.49
			h13.086v-22.933h-7.168v9.705c0,1.924-1.564,3.491-3.491,3.491H23.106v40.605h10.604v-21.519c-2.84-1.011-4.881-3.717-4.881-6.897
			c0-4.043,3.288-7.333,7.329-7.333c4.043,0,7.331,3.29,7.331,7.333c0,3.181-2.042,5.887-4.883,6.897v22.926
			c0,1.926-1.565,3.49-3.49,3.49h-12.01V2.783c0,3.98,3.26,7.238,7.239,7.238h22.471V-5.033h-12.19
			c-1.012,2.84-3.72,4.883-6.902,4.883c-4.041,0-7.329-3.289-7.329-7.33s3.288-7.33,7.329-7.33c3.183,0,5.891,2.043,6.902,4.883
			h13.597c1.925,0,3.489,1.564,3.489,3.488v16.461h6.824v-47.226C64.536-39.128,66.101-40.694,68.026-40.694z M81.404-5.053
			c0,1.344,1.087,2.436,2.43,2.436c1.349,0,2.435-1.092,2.435-2.436c0-1.342-1.086-2.428-2.435-2.428
			C82.491-7.48,81.404-6.395,81.404-5.053z M38.592-55.095c0-1.343-1.086-2.437-2.435-2.437c-1.343,0-2.433,1.093-2.433,2.437
			c0,1.341,1.09,2.429,2.433,2.429C37.506-52.666,38.592-53.753,38.592-55.095z M33.723-9.912c-1.344,0-2.432,1.088-2.432,2.432
			c0,1.34,1.088,2.432,2.432,2.432c1.347,0,2.435-1.092,2.435-2.432C36.158-8.824,35.07-9.912,33.723-9.912z"/>
	</g>
	<g id="Bold-M" transform="matrix(1 0 0 1 2272.94 1126)">
		<path d="M35.197-7.787c0,1.326-1.076,2.406-2.408,2.406c-1.328,0-2.404-1.08-2.404-2.406c0-1.328,1.076-2.404,2.404-2.404
			C34.121-10.191,35.197-9.115,35.197-7.787z M96.615,9.521h8.016c3.938,0,7.158-3.221,7.158-7.158V-9.898H96.615V9.521z
			 M95.378-14.432h16.41v-9.582H84.613v12.08c2.717,0.941,4.675,3.518,4.675,6.549c0,3.826-3.114,6.943-6.942,6.943
			c-3.824,0-6.938-3.117-6.938-6.943c0-3.029,1.957-5.605,4.67-6.547V-25.25c0-1.818,1.479-3.297,3.298-3.297h28.413v-10.162h-9.859
			c-1.819,0-3.298-1.479-3.298-3.297v-37.972h-9.292v40.736c0,1.818-1.479,3.297-3.297,3.297H67.95V9.521h24.131v-20.656
			C92.081-12.953,93.559-14.432,95.378-14.432z M37.605-54.875c0-1.328-1.076-2.409-2.408-2.409c-1.328,0-2.406,1.081-2.406,2.409
			c0,1.327,1.078,2.403,2.406,2.403C36.529-52.472,37.605-53.548,37.605-54.875z M54.091-24.352c-1.329,0-2.406,1.076-2.406,2.404
			s1.077,2.408,2.406,2.408c1.332,0,2.408-1.08,2.408-2.408S55.423-24.352,54.091-24.352z M56.285-79.979H29.448
			c-3.937,0-7.159,3.221-7.159,7.158v1.202h33.996V-79.979z M79.942-5.385c0,1.328,1.075,2.408,2.403,2.408
			c1.333,0,2.408-1.08,2.408-2.408s-1.075-2.402-2.408-2.402C81.017-7.787,79.942-6.713,79.942-5.385z M66.712-40.479h18.094v-39.5
			H72.751v24.07c0,1.818-1.479,3.297-3.299,3.297H56.358v24.113c2.717,0.942,4.675,3.52,4.675,6.551
			c0,3.826-3.113,6.941-6.941,6.941c-3.826,0-6.94-3.115-6.94-6.941c0-3.031,1.958-5.608,4.674-6.55v-25.351
			c0-1.818,1.479-3.297,3.297-3.297h13.095v-22.833H60.82v9.598c0,1.818-1.48,3.297-3.299,3.297H22.289v40.466h10.641v-21.708
			c-2.716-0.941-4.673-3.518-4.673-6.548c0-3.828,3.113-6.942,6.94-6.942s6.941,3.114,6.941,6.942c0,3.031-1.959,5.607-4.675,6.549
			v22.946c0,1.816-1.479,3.297-3.298,3.297H22.289V2.363c0,3.938,3.223,7.158,7.159,7.158h22.377V-5.52H39.341
			c-0.941,2.715-3.52,4.672-6.553,4.672c-3.826,0-6.938-3.113-6.938-6.939s3.112-6.939,6.938-6.939c3.033,0,5.611,1.959,6.553,4.672
			h13.72c1.818,0,3.297,1.48,3.297,3.299V9.521h7.058v-46.704C63.416-39,64.894-40.479,66.712-40.479z M111.789-43.244v-29.577
			c0-3.937-3.221-7.158-7.158-7.158h-1.465v36.735H111.789z"/>
	</g>
	<g id="Semibold-M" transform="matrix(1 0 0 1 1976.52 1126)">
		<path d="M91.667-11.404V9.021H67.5v-45.112h18.043c1.714,0,3.107-1.394,3.107-3.107v-40.281h9.494v37.548
			c0,1.713,1.394,3.107,3.107,3.107h9.75v10.354H82.906c-1.713,0-3.107,1.395-3.107,3.108v13.438
			c-2.592,0.875-4.465,3.322-4.465,6.205c0,3.617,2.939,6.559,6.553,6.559c3.617,0,6.559-2.941,6.559-6.559
			c0-2.883-1.876-5.332-4.47-6.205v-12.367h27.026v9.779H94.775C93.061-14.512,91.667-13.117,91.667-11.404z M95.844,9.021h8.079
			c3.893,0,7.078-3.186,7.078-7.078v-12.277H95.844V9.021z M79.511-5.719c0,1.314,1.063,2.381,2.375,2.381
			c1.319,0,2.381-1.066,2.381-2.381c0-1.313-1.062-2.375-2.381-2.375C80.574-8.094,79.511-7.031,79.511-5.719z M111.001-43.001
			v-29.4c0-3.893-3.186-7.078-7.078-7.078h-1.603v36.478H111.001z M66.429-40.268h18.045v-39.211H72.247v23.801
			c0,1.714-1.394,3.107-3.107,3.107H56.038v24.267c2.594,0.875,4.47,3.324,4.47,6.208c0,3.615-2.941,6.559-6.559,6.559
			c-3.615,0-6.557-2.943-6.557-6.559c0-2.883,1.874-5.333,4.469-6.208V-53.64c0-1.713,1.394-3.107,3.107-3.107H68.07v-22.731h-7.622
			v9.49c0,1.713-1.394,3.107-3.107,3.107H22.501v40.32h10.675v-21.888c-2.593-0.875-4.467-3.324-4.467-6.207
			c0-3.617,2.941-6.559,6.556-6.559c3.616,0,6.558,2.942,6.558,6.559c0,2.883-1.875,5.333-4.47,6.207v22.957
			c0,1.713-1.394,3.107-3.106,3.107H22.501V1.943c0,3.893,3.188,7.078,7.079,7.078h22.28V-6.006H39.095
			c-0.875,2.594-3.327,4.469-6.211,4.469c-3.614,0-6.555-2.941-6.555-6.557s2.94-6.555,6.555-6.555c2.884,0,5.336,1.873,6.211,4.467
			H52.93c1.714,0,3.107,1.393,3.107,3.107V9.021h7.284v-46.182C63.322-38.874,64.716-40.268,66.429-40.268z M53.949-24.473
			c-1.313,0-2.38,1.064-2.38,2.377s1.066,2.381,2.38,2.381c1.317,0,2.381-1.068,2.381-2.381S55.266-24.473,53.949-24.473z
			 M37.646-54.656c0-1.313-1.063-2.382-2.381-2.382c-1.313,0-2.379,1.069-2.379,2.382c0,1.312,1.066,2.376,2.379,2.376
			C36.583-52.28,37.646-53.344,37.646-54.656z M56.272-79.479H29.581c-3.892,0-7.079,3.185-7.079,7.078v1.343h33.771V-79.479z
			 M32.884-10.471c-1.313,0-2.378,1.063-2.378,2.377c0,1.311,1.065,2.379,2.378,2.379c1.316,0,2.381-1.068,2.381-2.379
			C35.265-9.408,34.201-10.471,32.884-10.471z"/>
	</g>
	<g id="Medium-M" transform="matrix(1 0 0 1 1680.03 1126)">
		<path d="M81.489-8.4c1.305,0,2.355,1.051,2.355,2.348c0,1.299-1.051,2.355-2.355,2.355c-1.298,0-2.349-1.057-2.349-2.355
			C79.14-7.35,80.191-8.4,81.489-8.4z M33.04-10.752c-1.299,0-2.352,1.053-2.352,2.352c0,1.297,1.053,2.352,2.352,2.352
			c1.302,0,2.354-1.055,2.354-2.352C35.394-9.699,34.342-10.752,33.04-10.752z M94.231-14.596h16.044v-9.971H83.404v12.645
			c2.475,0.807,4.268,3.131,4.268,5.869c0,3.41-2.773,6.184-6.183,6.184c-3.405,0-6.176-2.773-6.176-6.184
			c0-2.736,1.791-5.061,4.263-5.869v-13.551c0-1.611,1.311-2.922,2.922-2.922h27.777v-10.54h-9.641c-1.609,0-2.92-1.311-2.92-2.921
			v-37.124h-9.689v39.826c0,1.611-1.311,2.921-2.921,2.921H67.113V8.521h24.196v-20.195C91.309-13.283,92.62-14.596,94.231-14.596z
			 M37.747-54.437c0-1.298-1.051-2.355-2.354-2.355c-1.298,0-2.352,1.057-2.352,2.355c0,1.297,1.054,2.349,2.352,2.349
			C36.697-52.087,37.747-53.139,37.747-54.437z M66.206-40.06h17.991v-38.919H71.807v23.532c0,1.611-1.311,2.921-2.921,2.921H55.781
			v24.411c2.474,0.807,4.268,3.131,4.268,5.871c0,3.408-2.773,6.182-6.183,6.182c-3.408,0-6.181-2.773-6.181-6.182
			c0-2.74,1.794-5.064,4.267-5.871v-25.317c0-1.611,1.312-2.921,2.922-2.921h13.104v-22.625h-7.836v9.383
			c0,1.611-1.312,2.921-2.922,2.921H22.775v40.166H33.48v-22.058c-2.473-0.807-4.266-3.131-4.266-5.87
			c0-3.409,2.772-6.183,6.18-6.183c3.409,0,6.182,2.774,6.182,6.183c0,2.738-1.793,5.063-4.267,5.87v22.965
			c0,1.61-1.312,2.922-2.922,2.922H22.775V1.523c0,3.85,3.15,6.998,6.999,6.998h22.179V-6.486H38.915
			c-0.81,2.473-3.136,4.266-5.875,4.266c-3.407,0-6.18-2.771-6.18-6.18c0-3.406,2.772-6.18,6.18-6.18
			c2.739,0,5.065,1.793,5.875,4.266H52.86c1.61,0,2.922,1.313,2.922,2.922V8.521h7.503v-45.66
			C63.284-38.75,64.595-40.06,66.206-40.06z M110.275-42.762v-29.219c0-3.849-3.149-6.998-6.998-6.998h-1.734v36.217H110.275z
			 M56.314-78.979h-26.54c-3.849,0-6.999,3.149-6.999,6.998v1.479h33.539V-78.979z M53.866-24.594c-1.299,0-2.353,1.053-2.353,2.35
			c0,1.299,1.054,2.354,2.353,2.354c1.303,0,2.354-1.055,2.354-2.354C56.221-23.541,55.169-24.594,53.866-24.594z M95.138,8.521
			h8.139c3.849,0,6.998-3.148,6.998-6.998v-12.289H95.138V8.521z"/>
	</g>
	<g id="Regular-M" transform="matrix(1 0 0 1 1383.58 1126)">
		<path d="M63.234-37.105V7.771h-7.672V-7.871c0-1.5-1.222-2.721-2.723-2.721H38.871c-0.738-2.342-2.929-4.045-5.512-4.045
			c-3.186,0-5.777,2.592-5.777,5.775c0,3.188,2.591,5.777,5.777,5.777c2.583,0,4.774-1.703,5.512-4.045h13.225v14.9H30.149
			c-3.783,0-6.879-3.094-6.879-6.879v-23.938h11.413c1.501,0,2.723-1.221,2.723-2.722v-22.832c2.343-0.737,4.046-2.927,4.046-5.508
			c0-3.188-2.592-5.781-5.778-5.781c-3.186,0-5.777,2.593-5.777,5.781c0,2.58,1.703,4.771,4.044,5.508v22.09H23.27v-39.774h33.855
			c1.501,0,2.723-1.222,2.723-2.724v-9.222h8v22.386H54.818c-1.501,0-2.723,1.222-2.723,2.723v25.144
			c-2.341,0.738-4.045,2.928-4.045,5.51c0,3.186,2.592,5.779,5.778,5.779s5.779-2.594,5.779-5.779c0-2.582-1.704-4.772-4.046-5.51
			v-24.401H68.59c1.501,0,2.723-1.222,2.723-2.723v-23.128h12.474v38.4H65.956C64.455-39.829,63.234-38.607,63.234-37.105z
			 M37.986-54.107c0-1.276-1.033-2.315-2.313-2.315c-1.276,0-2.312,1.039-2.312,2.315c0,1.275,1.035,2.309,2.312,2.309
			C36.954-51.798,37.986-52.832,37.986-54.107z M33.359-11.17c-1.277,0-2.311,1.031-2.311,2.309c0,1.275,1.034,2.313,2.311,2.313
			c1.28,0,2.313-1.037,2.313-2.313C35.673-10.139,34.64-11.17,33.359-11.17z M93.501-14.799h15.769v-10.1H82.71v12.838
			c2.343,0.738,4.047,2.928,4.047,5.508c0,3.188-2.593,5.781-5.779,5.781c-3.184,0-5.774-2.594-5.774-5.781
			c0-2.58,1.702-4.768,4.042-5.506V-25.64c0-1.501,1.222-2.723,2.723-2.723h27.302v-10.656h-9.475c-1.501,0-2.723-1.222-2.723-2.723
			v-36.487h-9.82v39.143c0,1.501-1.222,2.723-2.722,2.723H66.699V7.771h24.079v-19.85C90.778-13.578,91.999-14.799,93.501-14.799z
			 M109.27-42.484v-28.866c0-3.784-3.095-6.878-6.878-6.878h-1.854v35.745H109.27z M78.669-6.553c0,1.277,1.032,2.314,2.309,2.314
			c1.281,0,2.313-1.037,2.313-2.314c0-1.275-1.032-2.309-2.313-2.309C79.701-8.861,78.669-7.828,78.669-6.553z M53.829-24.777
			c-1.277,0-2.313,1.035-2.313,2.311c0,1.277,1.036,2.314,2.313,2.314c1.28,0,2.313-1.037,2.313-2.314
			C56.142-23.742,55.109-24.777,53.829-24.777z M56.382-78.229H30.149c-3.783,0-6.879,3.095-6.879,6.878v1.601h33.113V-78.229z
			 M94.243,7.771h8.148c3.784,0,6.878-3.094,6.878-6.879v-12.229H94.243V7.771z"/>
	</g>
	<g id="Light-M" transform="matrix(1 0 0 1 1087.68 1126)">
		<path d="M53.233-24.959c1.258,0,2.272,1.016,2.272,2.27s-1.015,2.273-2.272,2.273c-1.255,0-2.272-1.02-2.272-2.273
			S51.978-24.959,53.233-24.959z M33.121-11.592c-1.255,0-2.271,1.016-2.271,2.271c0,1.252,1.016,2.271,2.271,2.271
			c1.258,0,2.273-1.02,2.273-2.271C35.394-10.576,34.379-11.592,33.121-11.592z M107.707-42.212v-28.508
			c0-3.717-3.041-6.758-6.758-6.758h-1.967v35.267H107.707z M92.797,7.021h8.152c3.717,0,6.758-3.041,6.758-6.76v-12.16h-14.91
			V7.021z M92.213-15.01h15.494v-10.215H81.465v13.021c2.213,0.67,3.83,2.725,3.83,5.15c0,2.971-2.416,5.387-5.386,5.387
			c-2.967,0-5.382-2.416-5.382-5.387c0-2.426,1.615-4.48,3.825-5.148v-13.606c0-1.395,1.135-2.529,2.53-2.529h26.826v-10.762h-9.309
			c-1.395,0-2.529-1.135-2.529-2.53v-35.851h-9.94v38.46c0,1.395-1.135,2.53-2.53,2.53H65.733v43.51h23.951V-12.48
			C89.684-13.875,90.818-15.01,92.213-15.01z M65.149-39.603h17.665v-37.876H70.266v22.725c0,1.395-1.135,2.53-2.529,2.53H54.79
			v24.383c2.213,0.669,3.83,2.724,3.83,5.152c0,2.971-2.417,5.387-5.386,5.387c-2.97,0-5.386-2.416-5.386-5.387
			c0-2.428,1.617-4.483,3.829-5.152v-24.967c0-1.395,1.135-2.529,2.529-2.529h12.947v-22.142h-8.152v9.061
			c0,1.395-1.135,2.53-2.53,2.53H23.207v39.372h10.63v-22.111c-2.212-0.669-3.828-2.724-3.828-5.15c0-2.971,2.416-5.388,5.384-5.388
			c2.97,0,5.386,2.417,5.386,5.388c0,2.426-1.616,4.481-3.83,5.15v22.695c0,1.396-1.134,2.53-2.529,2.53H23.207V0.262
			c0,3.719,3.043,6.76,6.759,6.76h21.71V-7.764H38.276c-0.67,2.211-2.726,3.828-5.155,3.828c-2.969,0-5.384-2.416-5.384-5.385
			s2.415-5.385,5.384-5.385c2.429,0,4.485,1.617,5.155,3.828H52.26c1.395,0,2.529,1.135,2.529,2.529V7.021h7.83v-44.095
			C62.62-38.468,63.755-39.603,65.149-39.603z M37.667-53.778c0-1.254-1.015-2.274-2.273-2.274c-1.254,0-2.271,1.021-2.271,2.274
			c0,1.253,1.018,2.268,2.271,2.268C36.652-51.51,37.667-52.525,37.667-53.778z M55.888-77.479H29.966
			c-3.716,0-6.759,3.041-6.759,6.758v1.719h32.681V-77.479z M77.64-7.053c0,1.254,1.014,2.275,2.269,2.275
			c1.259,0,2.273-1.021,2.273-2.275S81.167-9.32,79.908-9.32C78.654-9.32,77.64-8.307,77.64-7.053z"/>
	</g>
	<g id="Thin-M" transform="matrix(1 0 0 1 792.042 1126)">
		<path d="M55.125-68.259H22.881v-1.832c0-3.651,2.989-6.639,6.64-6.639h25.604V-68.259z M50.142-22.912
			c0,1.232,1,2.234,2.232,2.234c1.236,0,2.232-1.002,2.232-2.234c0-1.23-0.997-2.23-2.232-2.23
			C51.142-25.143,50.142-24.143,50.142-22.912z M76.347-7.553c0,1.232,0.997,2.234,2.229,2.234c1.236,0,2.233-1.002,2.233-2.234
			s-0.997-2.227-2.233-2.227C77.344-9.779,76.347-8.785,76.347-7.553z M37.084-53.449c0-1.231-0.997-2.233-2.232-2.233
			c-1.232,0-2.231,1.002-2.231,2.233c0,1.23,0.999,2.229,2.231,2.229C36.087-51.22,37.084-52.218,37.084-53.449z M105.881-41.945
			V-70.09c0-3.651-2.987-6.639-6.639-6.639h-2.075v34.784H105.881z M64.079-39.381h17.495v-37.348H68.962v22.322
			c0,1.291-1.05,2.341-2.341,2.341H53.76v24.373c2.082,0.605,3.618,2.506,3.618,4.781c0,2.76-2.245,5.004-5.004,5.004
			c-2.759,0-5.003-2.244-5.003-5.004c0-2.275,1.535-4.176,3.617-4.781v-24.803c0-1.291,1.05-2.341,2.342-2.341h12.86v-21.892h-8.294
			v8.9c0,1.291-1.05,2.342-2.341,2.342H22.881v38.959h10.585v-22.141c-2.082-0.605-3.617-2.507-3.617-4.78
			c0-2.76,2.244-5.004,5.002-5.004c2.759,0,5.003,2.245,5.003,5.004c0,2.273-1.535,4.175-3.617,4.78v22.572
			c0,1.291-1.05,2.341-2.341,2.341H22.881v23.389c0,3.652,2.989,6.639,6.64,6.639h21.468V-8.395H37.403
			c-0.605,2.082-2.509,3.617-4.784,3.617c-2.758,0-5.002-2.244-5.002-5.002s2.244-5.004,5.002-5.004
			c2.274,0,4.178,1.537,4.784,3.617h14.016c1.291,0,2.341,1.051,2.341,2.342V6.271h7.977V-37.04
			C61.737-38.332,62.788-39.381,64.079-39.381z M90.662-15.227h15.219v-10.318H79.961v13.212c2.083,0.604,3.618,2.506,3.618,4.779
			c0,2.76-2.245,5.006-5.004,5.006c-2.756,0-4.999-2.246-4.999-5.006c0-2.271,1.533-4.174,3.614-4.779v-13.643
			c0-1.291,1.05-2.341,2.341-2.341h26.35v-10.857h-9.144c-1.291,0-2.341-1.05-2.341-2.341v-35.214h-10.05v37.778
			c0,1.291-1.051,2.341-2.341,2.341H64.509V6.271H88.32v-19.156C88.32-14.176,89.371-15.227,90.662-15.227z M91.092,6.271h8.15
			c3.651,0,6.639-2.986,6.639-6.639v-12.088H91.092V6.271z M32.619-12.01c-1.233,0-2.231,0.996-2.231,2.23
			c0,1.229,0.998,2.23,2.231,2.23c1.235,0,2.232-1.002,2.232-2.23C34.852-11.014,33.854-12.01,32.619-12.01z"/>
	</g>
	<g id="Ultralight-M" transform="matrix(1 0 0 1 495.893 1126)">
		<path d="M54.838-67.521H23.036v-1.939c0-3.585,2.935-6.519,6.52-6.519h25.283V-67.521z M49.804-23.135
			c0,1.211,0.981,2.193,2.192,2.193c1.213,0,2.192-0.982,2.192-2.193c0-1.207-0.979-2.189-2.192-2.189
			C50.786-25.324,49.804-24.342,49.804-23.135z M104.536-41.682V-69.46c0-3.585-2.933-6.519-6.519-6.519h-2.179v34.297H104.536z
			 M75.536-8.053c0,1.209,0.978,2.193,2.188,2.193c1.214,0,2.193-0.984,2.193-2.193c0-1.211-0.979-2.188-2.193-2.188
			C76.514-10.24,75.536-9.264,75.536-8.053z M89.873,5.521h8.144c3.586,0,6.519-2.934,6.519-6.518v-12.012H89.873V5.521z
			 M63.489-39.165h17.32v-36.814H68.143v21.919c0,1.189-0.968,2.157-2.158,2.157h-12.77v24.324c1.96,0.539,3.413,2.317,3.413,4.444
			c0,2.555-2.079,4.633-4.632,4.633c-2.554,0-4.632-2.078-4.632-4.633c0-2.127,1.452-3.906,3.412-4.444v-24.605
			c0-1.189,0.968-2.157,2.158-2.157h12.77v-21.638h-8.426v8.74c0,1.189-0.968,2.158-2.158,2.158H23.036v38.537H33.57v-22.131
			c-1.959-0.539-3.411-2.317-3.411-4.444c0-2.554,2.078-4.633,4.631-4.633c2.554,0,4.632,2.079,4.632,4.633
			c0,2.127-1.453,3.905-3.413,4.444v22.413c0,1.19-0.968,2.159-2.157,2.159H23.036v23.107c0,3.584,2.935,6.518,6.52,6.518h21.221
			V-9.021h-13.73c-0.54,1.959-2.319,3.412-4.448,3.412c-2.553,0-4.63-2.078-4.63-4.631s2.077-4.629,4.63-4.629
			c2.129,0,3.909,1.451,4.448,3.41h14.012c1.189,0,2.157,0.967,2.157,2.156V5.521h8.115v-42.529
			C61.331-38.197,62.299-39.165,63.489-39.165z M32.598-12.43c-1.209,0-2.19,0.979-2.19,2.189c0,1.209,0.981,2.191,2.19,2.191
			c1.213,0,2.192-0.982,2.192-2.191C34.79-11.451,33.811-12.43,32.598-12.43z M36.982-53.12c0-1.209-0.978-2.193-2.192-2.193
			c-1.21,0-2.191,0.984-2.191,2.193s0.981,2.189,2.191,2.189C36.004-50.931,36.982-51.911,36.982-53.12z M89.592-15.447h14.944
			v-10.414H78.943v13.365c1.96,0.539,3.413,2.316,3.413,4.443c0,2.555-2.078,4.633-4.633,4.633c-2.551,0-4.627-2.078-4.627-4.633
			c0-2.127,1.45-3.904,3.408-4.441v-13.648c0-1.189,0.968-2.158,2.158-2.158h25.874v-10.943h-8.979c-1.19,0-2.159-0.968-2.159-2.158
			v-34.578h-10.15v37.095c0,1.19-0.968,2.158-2.158,2.158H63.77V5.521h23.664v-18.811C87.434-14.479,88.402-15.447,89.592-15.447z"
			/>
	</g>
	<g id="Black-S" transform="matrix(1 0 0 1 2880.28 696)">
		<path d="M44.263-64.606H17.296v-0.715c0-3.152,2.58-5.73,5.73-5.73h21.236V-64.606z M52.858-39.68h14.235v-31.372h-9.154v19.268
			c0,1.592-1.295,2.887-2.888,2.887H44.816v18.62c2.324,0.846,3.99,3.069,3.99,5.68c0,3.337-2.715,6.052-6.052,6.052
			c-3.336,0-6.051-2.715-6.051-6.052c0-2.611,1.665-4.833,3.988-5.68v-19.857c0-1.591,1.296-2.887,2.887-2.887h10.235v-18.03h-5.427
			v7.683c0,1.591-1.295,2.887-2.888,2.887H17.296v31.898h8.271v-16.694c-2.322-0.846-3.988-3.068-3.988-5.678
			c0-3.337,2.713-6.052,6.049-6.052c3.338,0,6.052,2.715,6.052,6.052c0,2.61-1.666,4.833-3.989,5.678v17.932
			c0,1.591-1.295,2.887-2.887,2.887h-9.508v19.322c0,3.153,2.58,5.73,5.73,5.73h17.665V-11.2h-9.309
			c-0.846,2.322-3.07,3.988-5.682,3.988c-3.336,0-6.05-2.715-6.05-6.051c0-3.335,2.714-6.049,6.05-6.049
			c2.611,0,4.835,1.666,5.682,3.988h10.546c1.592,0,2.887,1.294,2.887,2.887v13.03h5.155v-37.386
			C49.971-38.385,51.266-39.68,52.858-39.68z M29.556-50.957c0-1.063-0.86-1.929-1.928-1.929c-1.063,0-1.926,0.866-1.926,1.929
			c0,1.063,0.863,1.923,1.926,1.923C28.696-49.033,29.556-49.894,29.556-50.957z M25.701-15.188c-1.063,0-1.926,0.861-1.926,1.925
			c0,1.062,0.862,1.926,1.926,1.926c1.066,0,1.927-0.865,1.927-1.926C27.628-14.326,26.768-15.188,25.701-15.188z M77.041,0.593
			h6.169c3.152,0,5.73-2.578,5.73-5.73v-9.567H77.041V0.593z M75.804-18.829h13.137v-7.175H67.434v8.987
			c2.322,0.846,3.989,3.068,3.989,5.677c0,3.337-2.715,6.052-6.052,6.052c-3.335,0-6.047-2.715-6.047-6.052
			c0-2.609,1.664-4.831,3.984-5.677v-10.225c0-1.592,1.296-2.887,2.887-2.887h22.745v-7.64h-7.893c-1.592,0-2.887-1.295-2.887-2.887
			v-30.396h-6.943v32.609c0,1.591-1.296,2.886-2.887,2.886H54.095V0.593h18.821v-16.535C72.916-17.533,74.212-18.829,75.804-18.829z
			 M42.754-26.522c-1.064,0-1.927,0.862-1.927,1.925c0,1.063,0.862,1.928,1.927,1.928c1.065,0,1.927-0.864,1.927-1.928
			C44.681-25.66,43.82-26.522,42.754-26.522z M63.448-11.34c0,1.064,0.859,1.929,1.923,1.929c1.067,0,1.927-0.865,1.927-1.929
			c0-1.063-0.859-1.923-1.927-1.923C64.308-13.263,63.448-12.403,63.448-11.34z M88.941-41.893v-23.429
			c0-3.152-2.578-5.73-5.73-5.73h-0.925v29.159H88.941z"/>
	</g>
	<g id="Heavy-S" transform="matrix(1 0 0 1 2583.76 696)">
		<path d="M45.19-64.163H18.395v-0.83c0-3.118,2.552-5.667,5.668-5.667H45.19V-64.163z M89.257-41.697v-23.296
			c0-3.118-2.551-5.667-5.667-5.667h-1.039v28.963H89.257z M43.575-26.617c-1.052,0-1.905,0.853-1.905,1.903
			c0,1.052,0.854,1.907,1.905,1.907c1.055,0,1.906-0.855,1.906-1.907C45.481-25.765,44.63-26.617,43.575-26.617z M76.263-18.885
			h12.993v-7.343H67.862v9.227c2.224,0.791,3.823,2.909,3.823,5.4c0,3.166-2.576,5.743-5.74,5.743c-3.163,0-5.737-2.577-5.737-5.743
			c0-2.49,1.598-4.608,3.82-5.4v-10.328c0-1.506,1.225-2.733,2.732-2.733h22.496v-7.801h-7.808c-1.507,0-2.732-1.226-2.732-2.733
			V-70.66h-7.112v32.253c0,1.507-1.226,2.732-2.732,2.732H54.669V0.201h18.862v-16.354C73.531-17.66,74.757-18.885,76.263-18.885z
			 M77.365,0.201h6.225c3.116,0,5.667-2.55,5.667-5.667v-9.585H77.365V0.201z M53.567-39.509h14.204V-70.66H58.47v19.057
			c0,1.507-1.226,2.733-2.732,2.733H45.491v18.754c2.226,0.791,3.825,2.911,3.825,5.402c0,3.166-2.576,5.742-5.741,5.742
			s-5.739-2.576-5.739-5.742c0-2.491,1.599-4.611,3.822-5.402v-19.855c0-1.507,1.225-2.733,2.732-2.733h10.246V-70.66h-5.612v7.599
			c0,1.507-1.226,2.733-2.733,2.733H18.395v31.793h8.302v-16.849c-2.223-0.791-3.821-2.911-3.821-5.4
			c0-3.166,2.575-5.742,5.739-5.742c3.165,0,5.74,2.576,5.74,5.742c0,2.49-1.6,4.609-3.824,5.4v17.951
			c0,1.508-1.225,2.733-2.732,2.733h-9.403v19.234c0,3.118,2.552,5.667,5.668,5.667h17.595v-11.787h-9.545
			c-0.793,2.224-2.912,3.823-5.404,3.823c-3.164,0-5.739-2.575-5.739-5.74c0-3.164,2.575-5.738,5.739-5.738
			c2.492,0,4.611,1.599,5.404,3.822H42.76c1.507,0,2.731,1.225,2.731,2.732V0.201h5.344v-36.977
			C50.835-38.283,52.06-39.509,53.567-39.509z M64.043-11.601c0,1.052,0.851,1.907,1.902,1.907c1.056,0,1.906-0.854,1.906-1.907
			c0-1.051-0.851-1.902-1.906-1.902C64.893-13.503,64.043-12.652,64.043-11.601z M30.521-50.784c0-1.052-0.851-1.908-1.906-1.908
			c-1.052,0-1.905,0.856-1.905,1.908c0,1.05,0.854,1.902,1.905,1.902C29.671-48.882,30.521-49.734,30.521-50.784z M26.709-15.406
			c-1.053,0-1.904,0.852-1.904,1.903c0,1.05,0.852,1.905,1.904,1.905c1.055,0,1.906-0.855,1.906-1.905
			C28.615-14.555,27.763-15.406,26.709-15.406z"/>
	</g>
	<g id="Bold-S" transform="matrix(1 0 0 1 2287.27 696)">
		<path d="M27.777-13.743c0,1.039-0.844,1.884-1.887,1.884c-1.039,0-1.882-0.845-1.882-1.884c0-1.04,0.843-1.883,1.882-1.883
			C26.933-15.625,27.777-14.783,27.777-13.743z M75.867-0.19h6.276c3.083,0,5.604-2.521,5.604-5.604v-9.601H75.867V-0.19z
			 M74.899-18.945h12.849v-7.502H66.469v9.458c2.127,0.736,3.66,2.754,3.66,5.127c0,2.997-2.438,5.437-5.436,5.437
			c-2.995,0-5.433-2.44-5.433-5.437c0-2.372,1.533-4.389,3.656-5.126v-10.428c0-1.423,1.159-2.581,2.583-2.581h22.247v-7.957h-7.72
			c-1.425,0-2.582-1.158-2.582-2.582v-29.732h-7.276v31.896c0,1.423-1.158,2.581-2.581,2.581H53.421V-0.19h18.895v-16.174
			C72.316-17.787,73.474-18.945,74.899-18.945z M29.662-50.613c0-1.04-0.842-1.886-1.885-1.886c-1.041,0-1.885,0.847-1.885,1.886
			s0.844,1.882,1.885,1.882C28.82-48.731,29.662-49.573,29.662-50.613z M42.571-26.712c-1.04,0-1.884,0.842-1.884,1.882
			c0,1.041,0.844,1.886,1.884,1.886c1.043,0,1.886-0.846,1.886-1.886C44.457-25.87,43.614-26.712,42.571-26.712z M44.289-70.269
			H23.275c-3.082,0-5.605,2.522-5.605,5.604v0.941h26.619V-70.269z M62.812-11.862c0,1.041,0.842,1.886,1.882,1.886
			c1.044,0,1.886-0.846,1.886-1.886c0-1.04-0.842-1.881-1.886-1.881C63.654-13.743,62.812-12.902,62.812-11.862z M52.453-39.341
			h14.168v-30.928h-9.439v18.847c0,1.424-1.158,2.582-2.582,2.582H44.345v18.881c2.127,0.738,3.66,2.755,3.66,5.129
			c0,2.997-2.438,5.436-5.435,5.436c-2.996,0-5.435-2.439-5.435-5.436c0-2.374,1.533-4.391,3.66-5.128v-19.85
			c0-1.424,1.158-2.582,2.581-2.582H53.63v-17.878h-5.791v7.515c0,1.424-1.159,2.582-2.583,2.582H17.669v31.685h8.332v-16.998
			c-2.127-0.737-3.659-2.755-3.659-5.127c0-2.998,2.438-5.436,5.435-5.436c2.996,0,5.435,2.438,5.435,5.436
			c0,2.373-1.534,4.391-3.66,5.128v17.966c0,1.423-1.157,2.581-2.582,2.581h-9.3v19.143c0,3.083,2.523,5.604,5.605,5.604h17.521
			v-11.777h-9.775c-0.736,2.125-2.756,3.659-5.131,3.659c-2.995,0-5.432-2.438-5.432-5.434c0-2.995,2.437-5.433,5.432-5.433
			c2.375,0,4.395,1.533,5.131,3.658h10.743c1.424,0,2.581,1.158,2.581,2.582V-0.19h5.526v-36.568
			C49.872-38.183,51.029-39.341,52.453-39.341z M87.748-41.505v-23.159c0-3.083-2.521-5.604-5.604-5.604h-1.147v28.764H87.748z"/>
	</g>
	<g id="Semibold-S" transform="matrix(1 0 0 1 1990.7 696)">
		<path d="M72.081-16.574v15.993H53.157v-35.323h14.127c1.342,0,2.434-1.092,2.434-2.433v-31.54h7.434v29.399
			c0,1.342,1.092,2.434,2.434,2.434h7.634v8.107H65.22c-1.341,0-2.433,1.092-2.433,2.433v10.522
			c-2.029,0.684-3.496,2.601-3.496,4.857c0,2.833,2.302,5.136,5.131,5.136c2.832,0,5.136-2.303,5.136-5.136
			c0-2.256-1.469-4.174-3.5-4.858v-9.684h21.161v7.658H74.514C73.172-19.007,72.081-17.917,72.081-16.574z M75.351-0.582h6.326
			c3.048,0,5.542-2.494,5.542-5.542v-9.613H75.351V-0.582z M62.562-12.124c0,1.029,0.832,1.865,1.86,1.865
			c1.033,0,1.864-0.836,1.864-1.865c0-1.027-0.831-1.859-1.864-1.859C63.394-13.983,62.562-13.151,62.562-12.124z M87.219-41.315
			v-23.02c0-3.048-2.494-5.542-5.542-5.542h-1.255v28.562H87.219z M52.32-39.175h14.129v-30.702h-9.574v18.636
			c0,1.342-1.091,2.433-2.434,2.433H44.183v19c2.03,0.685,3.5,2.603,3.5,4.861c0,2.831-2.304,5.135-5.136,5.135
			c-2.831,0-5.134-2.304-5.134-5.135c0-2.257,1.467-4.176,3.499-4.861v-19.838c0-1.341,1.091-2.433,2.433-2.433h10.259v-17.798
			h-5.968v7.431c0,1.341-1.092,2.433-2.434,2.433H17.924v31.571h8.358v-17.138c-2.03-0.685-3.498-2.603-3.498-4.86
			c0-2.832,2.304-5.136,5.133-5.136c2.832,0,5.135,2.304,5.135,5.136c0,2.257-1.468,4.176-3.5,4.86v17.976
			c0,1.341-1.091,2.433-2.432,2.433h-9.196v19.048c0,3.049,2.495,5.542,5.543,5.542h17.445v-11.766h-9.996
			c-0.685,2.03-2.604,3.499-4.862,3.499c-2.83,0-5.133-2.303-5.133-5.134c0-2.83,2.303-5.132,5.133-5.132
			c2.258,0,4.178,1.467,4.862,3.498h10.833c1.342,0,2.434,1.091,2.434,2.433v12.603h5.703v-36.161
			C49.886-38.083,50.978-39.175,52.32-39.175z M42.547-26.808c-1.028,0-1.863,0.834-1.863,1.861c0,1.028,0.835,1.865,1.863,1.865
			c1.031,0,1.864-0.836,1.864-1.865C44.411-25.974,43.578-26.808,42.547-26.808z M29.781-50.441c0-1.028-0.831-1.866-1.864-1.866
			c-1.027,0-1.862,0.837-1.862,1.866c0,1.027,0.835,1.86,1.862,1.86C28.95-48.581,29.781-49.414,29.781-50.441z M44.366-69.877
			H23.467c-3.048,0-5.543,2.494-5.543,5.542v1.051h26.442V-69.877z M26.054-15.844c-1.028,0-1.862,0.833-1.862,1.861
			c0,1.027,0.834,1.863,1.862,1.863c1.03,0,1.863-0.836,1.863-1.863C27.917-15.011,27.084-15.844,26.054-15.844z"/>
	</g>
	<g id="Medium-S" transform="matrix(1 0 0 1 1694.09 696)">
		<path d="M64.182-14.223c1.021,0,1.845,0.823,1.845,1.839c0,1.017-0.823,1.845-1.845,1.845c-1.017,0-1.839-0.828-1.839-1.845
			C62.343-13.4,63.165-14.223,64.182-14.223z M26.246-16.063c-1.017,0-1.841,0.823-1.841,1.84c0,1.016,0.824,1.842,1.841,1.842
			c1.02,0,1.844-0.826,1.844-1.842C28.09-15.24,27.266-16.063,26.246-16.063z M74.158-19.073h12.563v-7.807h-21.04v9.901
			c1.938,0.631,3.342,2.451,3.342,4.595c0,2.669-2.172,4.841-4.841,4.841c-2.666,0-4.836-2.172-4.836-4.841
			c0-2.143,1.402-3.962,3.338-4.595v-10.611c0-1.261,1.026-2.287,2.288-2.287h21.749v-8.252h-7.548
			c-1.261,0-2.286-1.026-2.286-2.288v-29.068H69.3v31.184c0,1.261-1.026,2.288-2.287,2.288H52.925v35.042h18.946v-15.812
			C71.871-18.046,72.897-19.073,74.158-19.073z M29.932-50.269c0-1.017-0.823-1.844-1.843-1.844c-1.017,0-1.842,0.827-1.842,1.844
			c0,1.016,0.825,1.839,1.842,1.839C29.109-48.43,29.932-49.253,29.932-50.269z M52.216-39.012h14.087v-30.474H56.6v18.426
			c0,1.261-1.026,2.287-2.287,2.287H44.053v19.114c1.938,0.632,3.342,2.452,3.342,4.597c0,2.669-2.172,4.841-4.841,4.841
			s-4.84-2.172-4.84-4.841c0-2.145,1.405-3.965,3.341-4.597v-19.823c0-1.261,1.027-2.288,2.288-2.288h10.26v-17.716h-6.136v7.347
			c0,1.262-1.026,2.288-2.287,2.288H18.209v31.45h8.382v-17.271c-1.937-0.632-3.34-2.452-3.34-4.596
			c0-2.669,2.171-4.841,4.839-4.841c2.669,0,4.84,2.172,4.84,4.841c0,2.144-1.404,3.964-3.341,4.596v17.981
			c0,1.261-1.026,2.288-2.288,2.288h-9.092v18.951c0,3.015,2.467,5.479,5.479,5.479h17.366v-11.75H30.847
			c-0.634,1.936-2.455,3.34-4.601,3.34c-2.667,0-4.838-2.171-4.838-4.839c0-2.667,2.171-4.838,4.838-4.838
			c2.146,0,3.967,1.404,4.601,3.339h10.919c1.261,0,2.287,1.027,2.287,2.288v12.461h5.875v-35.751
			C49.928-37.986,50.954-39.012,52.216-39.012z M86.721-41.128v-22.878c0-3.014-2.466-5.479-5.479-5.479h-1.358v28.358H86.721z
			 M44.47-69.486H23.688c-3.013,0-5.479,2.466-5.479,5.479v1.158H44.47V-69.486z M42.554-26.902c-1.018,0-1.842,0.824-1.842,1.84
			c0,1.018,0.824,1.843,1.842,1.843c1.02,0,1.844-0.826,1.844-1.843C44.397-26.078,43.573-26.902,42.554-26.902z M74.869-0.973
			h6.373c3.013,0,5.479-2.464,5.479-5.479v-9.623H74.869V-0.973z"/>
	</g>
	<g id="Regular-S" transform="matrix(1 0 0 1 1397.53 696)">
		<path d="M49.943-36.699v35.138h-6.007v-12.247c0-1.176-0.957-2.131-2.132-2.131H30.866c-0.578-1.833-2.293-3.167-4.315-3.167
			c-2.494,0-4.523,2.029-4.523,4.522c0,2.495,2.029,4.523,4.523,4.523c2.022,0,3.738-1.333,4.315-3.167h10.355v11.666H24.037
			c-2.962,0-5.387-2.422-5.387-5.385v-18.743h8.937c1.175,0,2.132-0.956,2.132-2.132v-17.877c1.834-0.577,3.168-2.292,3.168-4.313
			c0-2.496-2.03-4.526-4.524-4.526c-2.494,0-4.524,2.03-4.524,4.526c0,2.02,1.333,3.735,3.167,4.313v17.296h-8.355v-31.144h26.509
			c1.175,0,2.132-0.957,2.132-2.132v-7.221h6.264v17.528H43.353c-1.175,0-2.132,0.957-2.132,2.132v19.688
			c-1.833,0.578-3.167,2.293-3.167,4.313c0,2.495,2.029,4.526,4.524,4.526s4.525-2.031,4.525-4.526c0-2.021-1.334-3.736-3.168-4.313
			v-19.106h10.201c1.176,0,2.132-0.957,2.132-2.132v-18.109h9.767v30.067H52.074C50.899-38.831,49.943-37.875,49.943-36.699z
			 M30.174-50.011c0-1-0.809-1.813-1.812-1.813c-1,0-1.81,0.813-1.81,1.813c0,0.998,0.811,1.808,1.81,1.808
			C29.365-48.203,30.174-49.013,30.174-50.011z M26.551-16.392c-1,0-1.81,0.808-1.81,1.809c0,0.999,0.81,1.811,1.81,1.811
			c1.002,0,1.812-0.812,1.812-1.811C28.363-15.583,27.553-16.392,26.551-16.392z M73.642-19.233h12.347v-7.907H65.193v10.052
			c1.834,0.578,3.168,2.292,3.168,4.313c0,2.496-2.03,4.526-4.525,4.526c-2.493,0-4.521-2.03-4.521-4.526
			c0-2.021,1.333-3.734,3.165-4.312v-10.634c0-1.175,0.956-2.132,2.132-2.132h21.377v-8.344H78.57c-1.176,0-2.132-0.957-2.132-2.132
			v-28.569h-7.689v30.649c0,1.176-0.957,2.132-2.131,2.132H52.656v34.557H71.51v-15.542C71.51-18.277,72.466-19.233,73.642-19.233z
			 M85.989-40.91v-22.603c0-2.963-2.423-5.386-5.386-5.386h-1.451v27.988H85.989z M62.029-12.775c0,0.999,0.808,1.812,1.808,1.812
			c1.003,0,1.812-0.813,1.812-1.812c0-1-0.809-1.808-1.812-1.808C62.837-14.583,62.029-13.775,62.029-12.775z M42.578-27.045
			c-1,0-1.811,0.81-1.811,1.808c0,1,0.811,1.813,1.811,1.813c1.002,0,1.812-0.813,1.812-1.813
			C44.39-26.236,43.581-27.045,42.578-27.045z M44.578-68.898H24.037c-2.962,0-5.387,2.423-5.387,5.386v1.254h25.927V-68.898z
			 M74.223-1.561h6.38c2.963,0,5.386-2.422,5.386-5.385v-9.575H74.223V-1.561z"/>
	</g>
	<g id="Light-S" transform="matrix(1 0 0 1 1101.55 696)">
		<path d="M42.015-27.188c0.985,0,1.779,0.796,1.779,1.777c0,0.982-0.794,1.781-1.779,1.781c-0.982,0-1.779-0.798-1.779-1.781
			C40.236-26.393,41.033-27.188,42.015-27.188z M26.267-16.721c-0.982,0-1.778,0.795-1.778,1.779c0,0.98,0.795,1.777,1.778,1.777
			c0.985,0,1.78-0.797,1.78-1.777C28.048-15.926,27.253-16.721,26.267-16.721z M84.669-40.697V-63.02
			c0-2.911-2.381-5.292-5.292-5.292h-1.541v27.614H84.669z M72.994-2.148h6.383c2.911,0,5.292-2.38,5.292-5.292v-9.521H72.994
			V-2.148z M72.537-19.397h12.132v-7.998H64.121V-17.2c1.733,0.523,2.999,2.132,2.999,4.032c0,2.326-1.892,4.219-4.218,4.219
			c-2.323,0-4.214-1.893-4.214-4.219c0-1.898,1.265-3.507,2.995-4.031v-10.653c0-1.092,0.889-1.98,1.98-1.98h21.005v-8.426H77.38
			c-1.093,0-1.98-0.889-1.98-1.981v-28.071h-7.784v30.115c0,1.092-0.889,1.981-1.981,1.981H51.802v34.068h18.754v-15.27
			C70.556-18.51,71.445-19.397,72.537-19.397z M51.345-38.654h13.832v-29.658h-9.825v17.794c0,1.092-0.888,1.981-1.98,1.981H43.234
			v19.092c1.733,0.524,2.999,2.132,2.999,4.034c0,2.326-1.893,4.218-4.218,4.218s-4.217-1.893-4.217-4.218
			c0-1.901,1.266-3.51,2.998-4.034v-19.549c0-1.092,0.889-1.98,1.98-1.98h10.138v-17.337h-6.383v7.095
			c0,1.092-0.889,1.981-1.981,1.981H18.505v30.828h8.324v-17.313c-1.732-0.524-2.997-2.133-2.997-4.033
			c0-2.326,1.892-4.218,4.216-4.218c2.325,0,4.217,1.893,4.217,4.218c0,1.9-1.266,3.509-2.999,4.033v17.771
			c0,1.092-0.888,1.98-1.98,1.98h-8.781v18.53c0,2.912,2.383,5.292,5.293,5.292h16.999v-11.577H30.304
			c-0.525,1.732-2.135,2.998-4.037,2.998c-2.324,0-4.215-1.892-4.215-4.216c0-2.325,1.891-4.216,4.215-4.216
			c1.902,0,3.512,1.265,4.037,2.997h10.95c1.092,0,1.98,0.889,1.98,1.98v12.033h6.131v-34.525
			C49.365-37.766,50.254-38.654,51.345-38.654z M29.827-49.753c0-0.981-0.794-1.781-1.779-1.781c-0.982,0-1.779,0.799-1.779,1.781
			c0,0.981,0.796,1.776,1.779,1.776C29.032-47.978,29.827-48.772,29.827-49.753z M44.094-68.312H23.798
			c-2.91,0-5.293,2.381-5.293,5.292v1.346h25.59V-68.312z M61.126-13.168c0,0.982,0.794,1.782,1.776,1.782
			c0.986,0,1.78-0.799,1.78-1.782c0-0.981-0.794-1.774-1.78-1.774C61.92-14.942,61.126-14.149,61.126-13.168z"/>
	</g>
	<g id="Thin-S" transform="matrix(1 0 0 1 805.763 696)">
		<path d="M43.412-61.092H18.165v-1.434c0-2.859,2.341-5.198,5.199-5.198h20.048V-61.092z M39.511-25.586
			c0,0.966,0.783,1.75,1.748,1.75c0.968,0,1.748-0.784,1.748-1.75c0-0.962-0.78-1.746-1.748-1.746
			C40.294-27.332,39.511-26.548,39.511-25.586z M60.029-13.559c0,0.964,0.78,1.749,1.745,1.749c0.968,0,1.749-0.785,1.749-1.749
			c0-0.965-0.78-1.744-1.749-1.744C60.81-15.303,60.029-14.523,60.029-13.559z M29.286-49.496c0-0.964-0.78-1.749-1.748-1.749
			c-0.964,0-1.747,0.784-1.747,1.749c0,0.963,0.782,1.745,1.747,1.745C28.506-47.75,29.286-48.532,29.286-49.496z M83.154-40.488
			v-22.038c0-2.859-2.339-5.198-5.198-5.198h-1.625v27.236H83.154z M50.423-38.481h13.698v-29.243h-9.875v17.479
			c0,1.011-0.822,1.833-1.833,1.833h-10.07v19.083c1.63,0.474,2.833,1.962,2.833,3.743c0,2.162-1.757,3.919-3.918,3.919
			c-2.16,0-3.917-1.757-3.917-3.919c0-1.781,1.202-3.27,2.833-3.743v-19.42c0-1.011,0.822-1.833,1.833-1.833h10.07v-17.142h-6.494
			v6.969c0,1.011-0.822,1.833-1.833,1.833H18.165v30.505h8.288v-17.336c-1.63-0.474-2.832-1.963-2.832-3.743
			c0-2.161,1.757-3.918,3.917-3.918c2.16,0,3.917,1.758,3.917,3.918c0,1.78-1.202,3.269-2.833,3.743v17.674
			c0,1.011-0.822,1.833-1.833,1.833h-8.625v18.313c0,2.86,2.341,5.197,5.199,5.197h16.81v-11.483H29.536
			c-0.474,1.629-1.964,2.832-3.746,2.832c-2.16,0-3.917-1.757-3.917-3.917s1.757-3.917,3.917-3.917c1.781,0,3.272,1.203,3.746,2.833
			H40.51c1.011,0,1.833,0.822,1.833,1.833v11.82h6.246v-33.913C48.59-37.659,49.412-38.481,50.423-38.481z M71.238-19.567h11.917
			v-8.079H62.86v10.345c1.63,0.474,2.833,1.963,2.833,3.743c0,2.161-1.758,3.919-3.918,3.919c-2.158,0-3.914-1.758-3.914-3.919
			c0-1.779,1.201-3.269,2.83-3.743v-10.682c0-1.011,0.822-1.833,1.833-1.833h20.632v-8.501h-7.16c-1.011,0-1.833-0.822-1.833-1.833
			v-27.573h-7.87v29.58c0,1.011-0.822,1.833-1.833,1.833H50.76v33.576h18.645v-14.999C69.404-18.745,70.227-19.567,71.238-19.567z
			 M71.575-2.735h6.381c2.859,0,5.198-2.337,5.198-5.197v-9.465h-11.58V-2.735z M25.79-17.049c-0.965,0-1.747,0.781-1.747,1.747
			c0,0.963,0.781,1.747,1.747,1.747c0.967,0,1.748-0.784,1.748-1.747C27.538-16.269,26.758-17.049,25.79-17.049z"/>
	</g>
	<g id="Ultralight-S" transform="matrix(1 0 0 1 509.54 696)">
		<path d="M43.133-60.514H18.231v-1.519c0-2.808,2.298-5.104,5.105-5.104h19.796V-60.514z M39.191-25.76
			c0,0.949,0.769,1.718,1.716,1.718c0.95,0,1.716-0.769,1.716-1.718c0-0.945-0.766-1.713-1.716-1.713
			C39.96-27.474,39.191-26.705,39.191-25.76z M82.046-40.282v-21.75c0-2.808-2.297-5.104-5.104-5.104h-1.706v26.855H82.046z
			 M59.339-13.95c0,0.947,0.766,1.718,1.713,1.718c0.951,0,1.717-0.771,1.717-1.718c0-0.948-0.766-1.713-1.717-1.713
			C60.104-15.663,59.339-14.898,59.339-13.95z M70.565-3.322h6.376c2.808,0,5.104-2.296,5.104-5.103v-9.405H70.565V-3.322z
			 M49.906-38.312h13.562v-28.825H53.55v17.163c0,0.931-0.758,1.689-1.689,1.689h-9.999v19.045c1.534,0.422,2.672,1.814,2.672,3.479
			c0,2.001-1.627,3.628-3.627,3.628s-3.626-1.627-3.626-3.628c0-1.665,1.137-3.058,2.671-3.479v-19.266
			c0-0.931,0.758-1.689,1.69-1.689h9.999v-16.942h-6.598v6.844c0,0.931-0.757,1.689-1.689,1.689H18.231v30.174h8.249v-17.329
			c-1.534-0.422-2.671-1.814-2.671-3.48c0-2,1.627-3.627,3.626-3.627c2,0,3.627,1.628,3.627,3.627c0,1.666-1.138,3.058-2.672,3.48
			v17.549c0,0.932-0.758,1.691-1.689,1.691h-8.469v18.092c0,2.807,2.298,5.103,5.105,5.103h16.616v-11.386H29.201
			c-0.422,1.534-1.815,2.671-3.482,2.671c-1.999,0-3.625-1.627-3.625-3.626c0-2,1.626-3.624,3.625-3.624
			c1.667,0,3.06,1.135,3.482,2.669h10.972c0.932,0,1.689,0.758,1.689,1.689v11.606h6.354v-33.3
			C48.216-37.554,48.975-38.312,49.906-38.312z M25.719-17.377c-0.947,0-1.715,0.766-1.715,1.714c0,0.946,0.768,1.716,1.715,1.716
			c0.95,0,1.716-0.77,1.716-1.716C27.435-16.611,26.668-17.377,25.719-17.377z M29.151-49.238c0-0.947-0.766-1.717-1.716-1.717
			c-0.947,0-1.715,0.771-1.715,1.717s0.768,1.714,1.715,1.714C28.386-47.524,29.151-48.291,29.151-49.238z M70.345-19.74h11.701
			v-8.154H62.007v10.465c1.535,0.421,2.672,1.814,2.672,3.479c0,2-1.627,3.627-3.627,3.627c-1.998,0-3.624-1.628-3.624-3.627
			c0-1.665,1.136-3.057,2.669-3.479v-10.686c0-0.932,0.758-1.689,1.689-1.689h20.259v-8.568h-7.03c-0.932,0-1.69-0.758-1.69-1.69
			v-27.075h-7.948v29.045c0,0.932-0.758,1.689-1.69,1.689H50.126v33.08h18.529V-18.05C68.655-18.981,69.413-19.74,70.345-19.74z"/>
	</g>
</g>
</svg>
