<?xml version="1.0" encoding="utf-8"?>
<!-- Generator: Adobe Illustrator 16.0.0, SVG Export Plug-In . SVG Version: 6.00 Build 0)  -->
<!DOCTYPE svg PUBLIC "-//W3C//DTD SVG 1.1//EN" "http://www.w3.org/Graphics/SVG/1.1/DTD/svg11.dtd">
<svg version="1.1" id="Layer_1" xmlns="http://www.w3.org/2000/svg" xmlns:xlink="http://www.w3.org/1999/xlink" x="0px" y="0px"
	 width="3300px" height="2200px" viewBox="0 0 3300 2200" enable-background="new 0 0 3300 2200" xml:space="preserve">
<g id="Notes">
	<rect id="artboard" fill="#FFFFFF" width="3300" height="2200"/>
	<line fill="none" stroke="#000000" stroke-width="0.5" x1="263" y1="292" x2="3036" y2="292"/>
	<text transform="matrix(1 0 0 1 263 322)" font-family="'Arial-BoldMT'" font-size="12">Weight/Scale Variations</text>
	<text transform="matrix(1 0 0 1 536.0361 322)" font-family="'ArialMT'" font-size="12">Ultralight</text>
	<text transform="matrix(1 0 0 1 844.75 322)" font-family="'ArialMT'" font-size="12">Thin</text>
	<text transform="matrix(1 0 0 1 1140.1191 322)" font-family="'ArialMT'" font-size="12">Light</text>
	<text transform="matrix(1 0 0 1 1428.8281 322)" font-family="'ArialMT'" font-size="12">Regular</text>
	<text transform="matrix(1 0 0 1 1725.2207 322)" font-family="'ArialMT'" font-size="12">Medium</text>
	<text transform="matrix(1 0 0 1 2018.2559 322)" font-family="'ArialMT'" font-size="12">Semibold</text>
	<text transform="matrix(1 0 0 1 2327.9707 322)" font-family="'ArialMT'" font-size="12">Bold</text>
	<text transform="matrix(1 0 0 1 2619.6836 322)" font-family="'ArialMT'" font-size="12">Heavy</text>
	<text transform="matrix(1 0 0 1 2918.7285 322)" font-family="'ArialMT'" font-size="12">Black</text>
	<line fill="none" stroke="#000000" stroke-width="0.5" x1="263" y1="1903" x2="3036" y2="1903"/>
	<g transform="matrix(1 0 0 1 263 1933)">
		<path d="M9.248,0.83c4.307,0,7.891-3.574,7.891-7.881c0-4.308-3.594-7.881-7.9-7.881c-4.297,0-7.871,3.573-7.871,7.881
			C1.368-2.744,4.951,0.83,9.248,0.83z M9.248-0.654c-3.545,0-6.377-2.842-6.377-6.396s2.822-6.396,6.367-6.396
			c3.555,0,6.396,2.843,6.406,6.396C15.654-3.496,12.803-0.654,9.248-0.654z M6.396-6.318h2.109v2.119
			c0,0.439,0.293,0.742,0.723,0.742c0.449,0,0.742-0.303,0.742-0.742v-2.119h2.13c0.439,0,0.742-0.293,0.742-0.723
			c0-0.439-0.303-0.742-0.742-0.742H9.971v-2.108c0-0.449-0.293-0.753-0.742-0.753c-0.43,0-0.723,0.304-0.723,0.753v2.108h-2.11
			c-0.449,0-0.752,0.303-0.752,0.742C5.645-6.611,5.947-6.318,6.396-6.318z"/>
	</g>
	<g transform="matrix(1 0 0 1 281.506 1933)">
		<path d="M11.709,2.91c5.449,0,9.961-4.521,9.961-9.961c0-5.449-4.521-9.961-9.971-9.961c-5.439,0-9.951,4.512-9.951,9.961
			C1.748-1.611,6.269,2.91,11.709,2.91z M11.709,1.25c-4.609,0-8.291-3.691-8.291-8.301c0-4.61,3.672-8.301,8.281-8.301
			S20-11.66,20.01-7.051C20.02-2.442,16.318,1.25,11.709,1.25z M7.988-6.23h2.891v2.91c0,0.488,0.332,0.82,0.811,0.82
			c0.488,0,0.83-0.332,0.83-0.82v-2.91h2.91c0.488,0,0.82-0.332,0.82-0.811c0-0.488-0.332-0.83-0.82-0.83h-2.91v-2.891
			c0-0.508-0.342-0.84-0.83-0.84c-0.479,0-0.811,0.342-0.811,0.84v2.891H7.988c-0.508,0-0.84,0.342-0.84,0.83
			C7.148-6.563,7.49-6.23,7.988-6.23z"/>
	</g>
	<g transform="matrix(1 0 0 1 304.924 1933)">
		<path d="M14.97,5.664c6.963,0,12.725-5.762,12.725-12.715c0-6.963-5.771-12.726-12.734-12.726
			c-6.953,0-12.705,5.763-12.705,12.726C2.256-0.097,8.017,5.664,14.97,5.664z M14.97,3.848C8.935,3.848,4.081-1.015,4.081-7.05
			c0-6.045,4.844-10.898,10.879-10.898c6.045,0,10.898,4.854,10.908,10.898C25.879-1.015,21.015,3.848,14.97,3.848z M10.058-6.142
			h4.004v4.014c0,0.537,0.371,0.908,0.889,0.908c0.537,0,0.908-0.371,0.908-0.908v-4.014h4.023c0.527,0,0.908-0.371,0.908-0.89
			c0-0.537-0.371-0.918-0.908-0.918h-4.023v-4.004c0-0.557-0.371-0.928-0.908-0.928c-0.518,0-0.889,0.381-0.889,0.928v4.004h-4.004
			c-0.557,0-0.928,0.381-0.928,0.918C9.131-6.513,9.511-6.142,10.058-6.142z"/>
	</g>
	<text transform="matrix(1 0 0 1 263 1953)" font-family="'Arial-BoldMT'" font-size="12">Design Variations</text>
	<text transform="matrix(1 0 0 1 263 1971)" font-family="'ArialMT'" font-size="12">Symbols are supported in up to nine weights and three scales.</text>
	<text transform="matrix(1 0 0 1 263 1989)" font-family="'ArialMT'" font-size="12">For optimal layout with text and other symbols, vertically align</text>
	<text transform="matrix(1 0 0 1 263 2007)" font-family="'ArialMT'" font-size="12">symbols with the adjacent text.</text>
	<line fill="none" stroke="#00AEEF" stroke-width="0.5" x1="776" y1="1919" x2="776" y2="1933"/>
	<g transform="matrix(1 0 0 1 776 1933)">
		<path d="M3.311,0.127c0.519,0,0.771-0.195,0.957-0.732l1.261-3.457h5.762l1.26,3.457c0.187,0.537,0.439,0.732,0.947,0.732
			c0.518,0,0.85-0.313,0.85-0.801c0-0.166-0.028-0.313-0.106-0.527L9.66-13.389c-0.226-0.605-0.625-0.898-1.25-0.898
			c-0.605,0-1.017,0.293-1.23,0.889L2.598-1.191C2.52-0.976,2.49-0.83,2.49-0.664C2.49-0.176,2.803,0.127,3.311,0.127z M6.006-5.537
			l2.373-6.572h0.049l2.373,6.572H6.006z"/>
	</g>
	<line fill="none" stroke="#00AEEF" stroke-width="0.5" x1="792.836" y1="1919" x2="792.836" y2="1933"/>
	<text transform="matrix(1 0 0 1 776 1953)" font-family="'Arial-BoldMT'" font-size="12">Margins</text>
	<text transform="matrix(1 0 0 1 776 1971)" font-family="'ArialMT'" font-size="12">Leading and trailing margins on the left and right side of each symbol</text>
	<text transform="matrix(1 0 0 1 776 1989)" font-family="'ArialMT'" font-size="12">can be adjusted by modifying the x-location of the margin guidelines.</text>
	<text transform="matrix(1 0 0 1 776 2007)" font-family="'ArialMT'" font-size="12">Modifications are automatically applied proportionally to all</text>
	<text transform="matrix(1 0 0 1 776 2025)" font-family="'ArialMT'" font-size="12">scales and weights.</text>
	<g transform="matrix(1 0 0 1 1289 1933)">
		<path d="M2.842,1.865l1.699,1.709C5.4,4.444,6.387,4.385,7.314,3.36L17.49-7.851c0.264,0.088,0.537,0.067,0.85,0.01l1.064-0.195
			l0.664,0.674l-0.039,0.558c-0.039,0.498,0.088,0.879,0.576,1.356l0.762,0.742c0.479,0.479,1.094,0.508,1.563,0.039l2.91-2.92
			c0.469-0.469,0.449-1.064-0.029-1.543L25.04-9.892c-0.479-0.479-0.851-0.636-1.328-0.597l-0.576,0.049l-0.645-0.635l0.244-1.123
			c0.127-0.565-0.029-1.006-0.615-1.592l-2.197-2.188c-3.34-3.32-7.772-3.242-10.664-0.353c-0.42,0.41-0.448,0.986-0.215,1.377
			c0.234,0.361,0.693,0.597,1.338,0.431c1.465-0.343,2.988-0.4,4.414,0.536L14.21-12.53c-0.195,0.479-0.225,0.879-0.098,1.24
			L3.047-0.898C2.061,0.02,1.982,0.996,2.842,1.865z M10.752-15.957c2.432-1.777,5.723-1.475,7.949,0.752l2.432,2.412
			c0.234,0.234,0.273,0.42,0.205,0.762l-0.322,1.484l1.504,1.484l0.986-0.06c0.254-0.01,0.332,0.01,0.527,0.205l0.576,0.576
			L22.168-5.9l-0.576-0.575c-0.195-0.195-0.225-0.273-0.215-0.537l0.068-0.978l-1.494-1.483L18.428-9.22
			c-0.322,0.067-0.469,0.039-0.713-0.195l-2.002-2.002c-0.254-0.234-0.283-0.4-0.127-0.771l0.879-2.091
			c-1.563-1.455-3.594-2.08-5.625-1.483C10.684-15.722,10.625-15.849,10.752-15.957z M5.273,2.305L4.102,1.143
			C3.633,0.684,3.74,0.342,4.141-0.02l10.812-10.176l1.465,1.484L6.426,2.276C6.074,2.676,5.742,2.774,5.273,2.305z"/>
	</g>
	<text transform="matrix(1 0 0 1 1289 1953)" font-family="'Arial-BoldMT'" font-size="12">Exporting</text>
	<text transform="matrix(1 0 0 1 1289 1971)" font-family="'ArialMT'" font-size="12">Symbols should be outlined when exporting to ensure the</text>
	<text transform="matrix(1 0 0 1 1289 1989)" font-family="'ArialMT'" font-size="12">design is preserved when submitting to Xcode.</text>
	<text id="template-version" transform="matrix(1 0 0 1 2958.8496 1933)" font-family="'ArialMT'" font-size="12">Template v.2.0</text>
	<text transform="matrix(1 0 0 1 2878.5762 1951)" font-family="'ArialMT'" font-size="12">Requires Xcode 12 or greater</text>
	<text transform="matrix(1 0 0 1 2894.6074 1969)" font-family="'ArialMT'" font-size="12">Generated from netcom.fill</text>
	<text transform="matrix(1 0 0 1 2921.9238 1987)" font-family="'ArialMT'" font-size="12">Typeset at 100 points</text>
	<text transform="matrix(1 0 0 1 263 726)" font-family="'ArialMT'" font-size="12">Small</text>
	<text transform="matrix(1 0 0 1 263 1156)" font-family="'ArialMT'" font-size="12">Medium</text>
	<text transform="matrix(1 0 0 1 263 1586)" font-family="'ArialMT'" font-size="12">Large</text>
</g>
<g id="Guides">
	<g id="H-reference" transform="matrix(1 0 0 1 339 696)">
		<path fill="#27AAE1" d="M0.977,0h2.686l9.326-24.463h32.764L55.127,0h2.637L30.615-70.459h-2.49L0.977,0z M29.346-67.139h0.098
			l15.43,40.431H13.867L29.346-67.139z"/>
	</g>
	<line id="Baseline-S" fill="none" stroke="#27AAE1" stroke-width="0.5" x1="263" y1="696" x2="3036" y2="696"/>
	<line id="Capline-S" fill="none" stroke="#27AAE1" stroke-width="0.5" x1="263" y1="625.541" x2="3036" y2="625.541"/>
	<g id="H-reference_1_" transform="matrix(1 0 0 1 339 1126)">
		<path fill="#27AAE1" d="M0.977,0h2.686l9.326-24.463h32.764L55.127,0h2.637L30.615-70.459h-2.49L0.977,0z M29.346-67.138h0.098
			l15.43,40.43H13.867L29.346-67.138z"/>
	</g>
	<line id="Baseline-M" fill="none" stroke="#27AAE1" stroke-width="0.5" x1="263" y1="1126" x2="3036" y2="1126"/>
	<line id="Capline-M" fill="none" stroke="#27AAE1" stroke-width="0.5" x1="263" y1="1055.539" x2="3036" y2="1055.539"/>
	<g id="H-reference_2_" transform="matrix(1 0 0 1 339 1556)">
		<path fill="#27AAE1" d="M0.977,0h2.686l9.326-24.463h32.764L55.127,0h2.637L30.615-70.459h-2.49L0.977,0z M29.346-67.138h0.098
			l15.43,40.43H13.867L29.346-67.138z"/>
	</g>
	<line id="Baseline-L" fill="none" stroke="#27AAE1" stroke-width="0.5" x1="263" y1="1556" x2="3036" y2="1556"/>
	<line id="Capline-L" fill="none" stroke="#27AAE1" stroke-width="0.5" x1="263" y1="1485.539" x2="3036" y2="1485.539"/>
	<line id="left-margin" fill="none" stroke="#00AEEF" stroke-width="0.5" x1="1383.58" y1="1030.789" x2="1383.58" y2="1150.119"/>
	<line id="right-margin" fill="none" stroke="#00AEEF" stroke-width="0.5" x1="1516.1" y1="1030.789" x2="1516.1" y2="1150.119"/>
</g>
<g id="Symbols">
	<g id="Black-L" transform="matrix(1 0 0 1 2846.24 1556)">
		<path d="M142.057-48.452c-4.438,0-8.358,2.163-10.799,5.483h-16.783c-1.319-4.679-3.803-8.875-7.121-12.25l4.432-7.804
			c0.719,0.076,1.447,0.122,2.185,0.122c11.179,0,20.238-9.062,20.238-20.239c0-11.18-9.06-20.24-20.238-20.24
			c-11.178,0-20.239,9.061-20.239,20.24c0,4.803,1.682,9.21,4.478,12.681l-4.284,7.543c-2.215-0.552-4.528-0.849-6.91-0.849
			c-15.734,0-28.536,12.802-28.536,28.536c0,4.979,1.283,9.661,3.534,13.739L46.699-6.068c-2.347-0.953-4.908-1.488-7.596-1.488
			c-11.18,0-20.24,9.061-20.24,20.24c0,11.178,9.061,20.237,20.24,20.237c11.176,0,20.238-9.06,20.238-20.237
			c0-2.804-0.571-5.475-1.602-7.901l15.133-15.238c4.172,2.391,8.997,3.765,14.141,3.765c2.256,0,4.448-0.271,6.555-0.768
			l4.754,7.308c-2.868,3.493-4.592,7.962-4.592,12.835c0,11.178,9.062,20.237,20.239,20.237c11.179,0,20.238-9.06,20.238-20.237
			c0-11.18-9.06-20.24-20.238-20.24c-0.653,0-1.299,0.037-1.937,0.099l-4.907-7.546c3.434-3.415,5.999-7.697,7.349-12.484h16.502
			c2.415,3.536,6.476,5.859,11.08,5.859c7.407,0,13.411-6.006,13.411-13.413C155.468-42.448,149.464-48.452,142.057-48.452z
			 M73.957-35.229c0-7.199,5.857-13.057,13.057-13.057s13.058,5.857,13.058,13.057c0,7.201-5.858,13.058-13.058,13.058
			S73.957-28.027,73.957-35.229z"/>
	</g>
	<g id="Heavy-L" transform="matrix(1 0 0 1 2550.07 1556)">
		<path d="M140.996-48.329c-4.918,0-9.201,2.68-11.498,6.65H112.71c-1.252-5.093-3.938-9.618-7.621-13.124l4.632-8.156
			c1.124,0.194,2.272,0.318,3.452,0.318c11.073,0,20.049-8.978,20.049-20.051s-8.976-20.049-20.049-20.049
			s-20.051,8.976-20.051,20.049c0,5.223,2.013,9.964,5.286,13.531l-4.512,7.941c-2.364-0.677-4.85-1.063-7.429-1.063
			c-14.917,0-27.052,12.136-27.052,27.053c0,5.042,1.41,9.747,3.822,13.792L47.714-5.804c-2.637-1.275-5.583-2.011-8.709-2.011
			c-11.071,0-20.049,8.975-20.049,20.049c0,11.073,8.978,20.049,20.049,20.049c11.073,0,20.051-8.976,20.051-20.049
			c0-3.236-0.785-6.283-2.146-8.989l15.374-15.483c4.129,2.559,8.979,4.063,14.185,4.063c2.435,0,4.781-0.354,7.026-0.958
			l5.02,7.719c-3.336,3.58-5.392,8.368-5.392,13.649c0,11.073,8.978,20.049,20.051,20.049s20.049-8.976,20.049-20.049
			c0-11.074-8.976-20.049-20.049-20.049c-1.107,0-2.188,0.113-3.245,0.286l-5.12-7.871c3.825-3.54,6.619-8.158,7.902-13.379h16.571
			c2.238,4.179,6.643,7.021,11.715,7.021c7.338,0,13.285-5.948,13.285-13.286C154.281-42.382,148.334-48.329,140.996-48.329z
			 M72.317-35.229c0-7.803,6.349-14.152,14.151-14.152c7.804,0,14.152,6.35,14.152,14.152s-6.349,14.152-14.152,14.152
			C78.665-21.076,72.317-27.426,72.317-35.229z"/>
	</g>
	<g id="Bold-L" transform="matrix(1 0 0 1 2253.97 1556)">
		<path d="M139.866-48.204c-4.845,0-9.068,2.627-11.351,6.525h-16.616c-1.244-5.021-3.892-9.485-7.521-12.95l4.575-8.055
			c1.094,0.185,2.208,0.304,3.354,0.304c10.968,0,19.859-8.891,19.859-19.858c0-10.967-8.892-19.857-19.859-19.857
			S92.45-93.205,92.45-82.238c0,5.15,1.977,9.826,5.189,13.354l-4.453,7.843c-2.333-0.664-4.784-1.042-7.326-1.042
			c-14.809,0-26.855,12.047-26.855,26.855c0,4.986,1.391,9.645,3.769,13.65L47.417-6.114c-2.597-1.244-5.494-1.963-8.566-1.963
			c-10.968,0-19.857,8.89-19.857,19.858c0,10.967,8.89,19.857,19.857,19.857s19.857-8.891,19.857-19.857
			c0-3.183-0.767-6.18-2.098-8.846l15.208-15.314C75.91-9.855,80.71-8.373,85.86-8.373c2.399,0,4.714-0.346,6.93-0.939l4.957,7.623
			c-3.277,3.54-5.297,8.264-5.297,13.471c0,10.967,8.89,19.857,19.857,19.857s19.859-8.891,19.859-19.857
			c0-10.969-8.892-19.858-19.859-19.858c-1.073,0-2.12,0.108-3.146,0.273l-5.057-7.773c3.766-3.5,6.52-8.056,7.795-13.201h16.394
			c2.228,4.104,6.574,6.892,11.573,6.892c7.268,0,13.16-5.892,13.16-13.158C153.026-42.313,147.134-48.204,139.866-48.204z
			 M71.904-35.229c0-7.694,6.261-13.956,13.956-13.956c7.694,0,13.955,6.262,13.955,13.956S93.554-21.272,85.86-21.272
			C78.165-21.272,71.904-27.534,71.904-35.229z"/>
	</g>
	<g id="Semibold-L" transform="matrix(1 0 0 1 1957.7 1556)">
		<path d="M138.906-48.078c-5.037,0-9.398,2.862-11.568,7.045h-16.58c-1.191-5.198-3.941-9.794-7.732-13.291l4.65-8.189
			c1.272,0.258,2.589,0.396,3.938,0.396c10.861,0,19.666-8.805,19.666-19.666c0-10.862-8.805-19.667-19.666-19.667
			c-10.862,0-19.667,8.805-19.667,19.667c0,5.319,2.122,10.139,5.554,13.679l-4.538,7.986c-2.389-0.725-4.919-1.123-7.542-1.123
			c-14.344,0-26.015,11.67-26.015,26.014c0,4.991,1.438,9.641,3.885,13.605L47.904-6.128c-2.709-1.404-5.777-2.211-9.039-2.211
			c-10.862,0-19.666,8.804-19.666,19.666s8.804,19.667,19.666,19.667c10.861,0,19.666-8.805,19.666-19.667
			c0-3.372-0.852-6.544-2.346-9.317l15.239-15.346c4.046,2.595,8.843,4.12,13.996,4.12c2.472,0,4.855-0.367,7.121-1.015l5.058,7.771
			c-3.492,3.55-5.652,8.414-5.652,13.786c0,10.862,8.805,19.667,19.667,19.667c10.861,0,19.666-8.805,19.666-19.667
			s-8.805-19.666-19.666-19.666c-1.284,0-2.535,0.132-3.751,0.366l-5.133-7.892c3.942-3.529,6.807-8.228,8.027-13.56h16.405
			c2.102,4.379,6.563,7.409,11.743,7.409c7.197,0,13.031-5.834,13.031-13.032C151.937-42.244,146.103-48.078,138.906-48.078z
			 M71.016-35.229c0-7.941,6.462-14.404,14.404-14.404c7.941,0,14.403,6.463,14.403,14.404S93.362-20.825,85.42-20.825
			C77.478-20.825,71.016-27.287,71.016-35.229z"/>
	</g>
	<g id="Medium-L" transform="matrix(1 0 0 1 1661.3 1556)">
		<path d="M138.078-47.953c-5.221,0-9.706,3.105-11.738,7.564h-16.593c-1.125-5.377-3.983-10.108-7.945-13.631l4.758-8.377
			c1.444,0.34,2.943,0.54,4.492,0.54c10.754,0,19.473-8.719,19.473-19.475s-8.719-19.475-19.473-19.475
			c-10.756,0-19.477,8.719-19.477,19.475c0,5.487,2.279,10.438,5.931,13.976l-4.649,8.187c-2.441-0.791-5.042-1.231-7.744-1.231
			c-13.88,0-25.171,11.292-25.171,25.172c0,4.995,1.479,9.643,3.999,13.562L48.505-6.121c-2.811-1.574-6.045-2.479-9.494-2.479
			c-10.756,0-19.476,8.718-19.476,19.475c0,10.756,8.72,19.475,19.476,19.475s19.475-8.719,19.475-19.475
			c0-3.557-0.969-6.88-2.635-9.749l15.311-15.419c3.997,2.672,8.794,4.237,13.951,4.237c2.545,0,5-0.387,7.318-1.093l5.175,7.957
			c-3.71,3.545-6.03,8.529-6.03,14.066c0,10.756,8.721,19.475,19.477,19.475c10.754,0,19.473-8.719,19.473-19.475
			c0-10.757-8.719-19.475-19.473-19.475c-1.489,0-2.935,0.183-4.328,0.499l-5.235-8.051c4.128-3.547,7.104-8.396,8.259-13.916
			h16.424c1.949,4.653,6.546,7.925,11.907,7.925c7.126,0,12.903-5.778,12.903-12.905S145.204-47.953,138.078-47.953z M70.26-35.229
			c0-8.188,6.663-14.852,14.852-14.852s14.852,6.663,14.852,14.852s-6.663,14.852-14.852,14.852S70.26-27.04,70.26-35.229z"/>
	</g>
	<g id="Regular-L" transform="matrix(1 0 0 1 1365.01 1556)">
		<path d="M137.097-47.828c-5.398,0-10.004,3.353-11.876,8.085h-16.674c-1.048-5.554-3.984-10.44-8.12-13.974l4.865-8.566
			c1.61,0.436,3.295,0.689,5.043,0.689c10.65,0,19.283-8.634,19.283-19.283c0-10.65-8.633-19.283-19.283-19.283
			c-10.65,0-19.283,8.633-19.283,19.283c0,5.653,2.448,10.722,6.323,14.248l-4.786,8.428c-2.491-0.864-5.155-1.357-7.937-1.357
			c-13.415,0-24.33,10.915-24.33,24.33c0,4.999,1.519,9.647,4.114,13.518L48.927-6.092c-2.902-1.747-6.289-2.771-9.924-2.771
			c-10.65,0-19.283,8.633-19.283,19.283s8.633,19.283,19.283,19.283c10.65,0,19.283-8.633,19.283-19.283
			c0-3.74-1.082-7.221-2.925-10.176l15.409-15.52c3.941,2.75,8.722,4.377,13.881,4.377c2.616,0,5.132-0.426,7.495-1.194l5.32,8.18
			c-3.929,3.53-6.415,8.634-6.415,14.333c0,10.65,8.633,19.283,19.283,19.283c10.65,0,19.283-8.633,19.283-19.283
			s-8.633-19.283-19.283-19.283c-1.694,0-3.327,0.241-4.893,0.65l-5.352-8.228c4.317-3.554,7.379-8.566,8.455-14.273h16.543
			c1.777,4.92,6.475,8.442,12.007,8.442c7.057,0,12.778-5.721,12.778-12.778C149.875-42.106,144.154-47.828,137.097-47.828z
			 M69.353-35.229c0-8.437,6.863-15.3,15.3-15.3c8.437,0,15.301,6.863,15.301,15.3s-6.864,15.3-15.301,15.3
			C76.216-19.929,69.353-26.792,69.353-35.229z"/>
	</g>
	<g id="Light-L" transform="matrix(1 0 0 1 1069.2 1556)">
		<path d="M135.717-47.703c-5.571,0-10.29,3.604-11.979,8.604h-16.804c-0.956-5.731-3.972-10.773-8.288-14.306l4.978-8.766
			c1.771,0.542,3.648,0.838,5.596,0.838c10.544,0,19.091-8.548,19.091-19.092s-8.547-19.092-19.091-19.092
			S90.13-90.968,90.13-80.424c0,5.817,2.61,11.021,6.715,14.521l-4.922,8.666c-2.538-0.94-5.269-1.48-8.13-1.48
			c-12.951,0-23.488,10.537-23.488,23.488c0,5.001,1.583,9.632,4.257,13.445L48.95-6.062c-2.984-1.931-6.533-3.063-10.352-3.063
			c-10.544,0-19.092,8.547-19.092,19.092c0,10.544,8.547,19.092,19.092,19.092c10.544,0,19.092-8.548,19.092-19.092
			c0-3.924-1.187-7.57-3.217-10.604l15.519-15.629c3.88,2.832,8.642,4.525,13.802,4.525c2.686,0,5.258-0.477,7.664-1.311
			l5.474,8.418c-4.156,3.501-6.801,8.739-6.801,14.6c0,10.544,8.547,19.092,19.091,19.092s19.091-8.548,19.091-19.092
			c0-10.545-8.547-19.092-19.091-19.092c-1.898,0-3.728,0.286-5.458,0.801L98.27-16.77c4.51-3.545,7.682-8.695,8.665-14.589h16.682
			c1.581,5.185,6.398,8.958,12.1,8.958c6.986,0,12.65-5.665,12.65-12.651C148.367-42.039,142.703-47.703,135.717-47.703z
			 M83.793-19.48c-8.684,0-15.748-7.064-15.748-15.748s7.064-15.748,15.748-15.748c8.684,0,15.749,7.064,15.749,15.748
			S92.477-19.48,83.793-19.48z"/>
	</g>
	<g id="Thin-L" transform="matrix(1 0 0 1 773.683 1556)">
		<path d="M134-47.578c-5.853,0-10.753,4.02-12.126,9.447h-17.162c-0.789-6.039-3.995-11.314-8.619-14.84l5.25-9.244
			c2.009,0.728,4.167,1.145,6.428,1.145c10.438,0,18.9-8.462,18.9-18.9s-8.461-18.9-18.9-18.9c-10.439,0-18.9,8.462-18.9,18.9
			c0,6.098,2.9,11.507,7.382,14.961l-5.188,9.137c-2.613-1.076-5.47-1.679-8.467-1.679c-12.31,0-22.324,10.014-22.324,22.323
			c0,5.029,1.692,9.66,4.509,13.396L48.881-5.816c-3.105-2.237-6.905-3.57-11.025-3.57c-10.438,0-18.9,8.461-18.9,18.9
			c0,10.438,8.462,18.9,18.9,18.9s18.9-8.462,18.9-18.9c0-4.223-1.402-8.108-3.742-11.255l15.829-15.94
			c3.795,2.982,8.566,4.777,13.755,4.777c2.807,0,5.485-0.543,7.962-1.494l5.778,8.886c-4.531,3.452-7.468,8.889-7.468,15.026
			c0,10.438,8.461,18.9,18.9,18.9c10.438,0,18.9-8.462,18.9-18.9c0-10.439-8.461-18.9-18.9-18.9c-2.216,0-4.334,0.4-6.31,1.103
			l-5.782-8.892c4.846-3.522,8.221-8.932,9.033-15.15h17.072c1.246,5.604,6.238,9.797,12.216,9.797
			c6.917,0,12.525-5.606,12.525-12.524C146.525-41.971,140.917-47.578,134-47.578z M82.598-18.709
			c-9.109,0-16.519-7.411-16.519-16.52s7.41-16.518,16.519-16.518c9.108,0,16.519,7.409,16.519,16.518S91.707-18.709,82.598-18.709z
			"/>
	</g>
	<g id="Ultralight-L" transform="matrix(1 0 0 1 477.607 1556)">
		<path d="M132.845-47.453c-6.127,0-11.202,4.449-12.205,10.29h-17.615c-0.579-6.353-3.977-11.892-8.927-15.372l5.527-9.732
			c2.231,0.939,4.683,1.46,7.256,1.46c10.333,0,18.708-8.377,18.708-18.709c0-10.334-8.375-18.709-18.708-18.709
			c-10.333,0-18.708,8.375-18.708,18.709c0,6.376,3.195,11.999,8.065,15.376l-5.499,9.684c-2.678-1.228-5.644-1.931-8.776-1.931
			c-11.667,0-21.16,9.491-21.16,21.159c0,5.058,1.789,9.704,4.761,13.349L49.347-5.549c-3.201-2.561-7.253-4.1-11.671-4.1
			c-10.333,0-18.709,8.374-18.709,18.708c0,10.333,8.375,18.709,18.709,18.709c10.333,0,18.708-8.376,18.708-18.709
			c0-4.521-1.603-8.667-4.271-11.9L68.278-19.12c3.694,3.142,8.468,5.051,13.686,5.051c2.929,0,5.72-0.6,8.259-1.681l6.096,9.373
			c-4.917,3.371-8.146,9.024-8.146,15.437c0,10.333,8.376,18.709,18.708,18.709c10.333,0,18.708-8.376,18.708-18.709
			c0-10.334-8.375-18.708-18.708-18.708c-2.533,0-4.946,0.509-7.149,1.421l-6.095-9.369c5.203-3.457,8.791-9.148,9.388-15.696
			h17.562c0.858,6.01,6.01,10.636,12.258,10.636c6.847,0,12.397-5.552,12.397-12.398S139.692-47.453,132.845-47.453z M81.964-17.939
			c-9.533,0-17.29-7.755-17.29-17.289s7.756-17.289,17.29-17.289c9.534,0,17.29,7.755,17.29,17.289S91.497-17.939,81.964-17.939z"/>
	</g>
	<g id="Black-M" transform="matrix(1 0 0 1 2865.58 1126)">
		<path d="M110.377-45.432c-3.439,0-6.479,1.677-8.371,4.251h-13.01c-1.023-3.627-2.948-6.88-5.521-9.497l3.436-6.049
			c0.557,0.06,1.121,0.095,1.693,0.095c8.665,0,15.688-7.024,15.688-15.689c0-8.666-7.023-15.689-15.688-15.689
			s-15.689,7.023-15.689,15.689c0,3.724,1.304,7.14,3.471,9.83l-3.321,5.848c-1.717-0.428-3.51-0.659-5.356-0.659
			c-12.197,0-22.121,9.924-22.121,22.122c0,3.859,0.995,7.489,2.74,10.65l-11.87,11.954c-1.819-0.738-3.805-1.153-5.889-1.153
			c-8.666,0-15.689,7.023-15.689,15.689c0,8.665,7.023,15.688,15.689,15.688c8.664,0,15.688-7.023,15.688-15.688
			c0-2.173-0.442-4.243-1.241-6.125l11.73-11.813c3.234,1.854,6.975,2.919,10.962,2.919c1.749,0,3.448-0.21,5.081-0.596l3.686,5.665
			c-2.224,2.708-3.56,6.172-3.56,9.949c0,8.665,7.024,15.688,15.689,15.688s15.688-7.023,15.688-15.688
			c0-8.666-7.023-15.689-15.688-15.689c-0.507,0-1.007,0.028-1.501,0.076l-3.805-5.85c2.662-2.647,4.65-5.967,5.697-9.678h12.792
			c1.872,2.741,5.02,4.542,8.589,4.542c5.742,0,10.396-4.655,10.396-10.397S116.119-45.432,110.377-45.432z M57.587-35.181
			c0-5.581,4.54-10.122,10.121-10.122S77.83-40.762,77.83-35.181c0,5.582-4.541,10.122-10.122,10.122S57.587-29.599,57.587-35.181z"
			/>
	</g>
	<g id="Heavy-M" transform="matrix(1 0 0 1 2569.23 1126)">
		<path d="M109.612-45.336c-3.813,0-7.133,2.077-8.913,5.155H87.685c-0.971-3.948-3.053-7.456-5.908-10.174l3.591-6.323
			c0.871,0.151,1.762,0.246,2.676,0.246c8.584,0,15.542-6.958,15.542-15.542s-6.958-15.542-15.542-15.542S72.5-80.558,72.5-71.974
			c0,4.048,1.561,7.724,4.098,10.489l-3.497,6.156c-1.833-0.525-3.76-0.823-5.759-0.823c-11.563,0-20.971,9.407-20.971,20.971
			c0,3.908,1.094,7.556,2.963,10.691L37.3-12.371c-2.044-0.988-4.328-1.559-6.751-1.559c-8.583,0-15.542,6.957-15.542,15.542
			c0,8.584,6.959,15.542,15.542,15.542c8.584,0,15.543-6.958,15.543-15.542c0-2.509-0.608-4.871-1.664-6.969l11.918-12.002
			c3.201,1.983,6.961,3.148,10.996,3.148c1.887,0,3.706-0.273,5.446-0.742l3.892,5.983C74.094-6.193,72.5-2.481,72.5,1.612
			c0,8.584,6.959,15.542,15.543,15.542s15.542-6.958,15.542-15.542c0-8.585-6.958-15.542-15.542-15.542
			c-0.858,0-1.695,0.088-2.516,0.222l-3.969-6.102c2.965-2.744,5.131-6.325,6.126-10.371h12.846
			c1.735,3.239,5.149,5.443,9.081,5.443c5.688,0,10.299-4.611,10.299-10.3C119.911-40.725,115.3-45.336,109.612-45.336z
			 M56.372-35.181c0-6.049,4.922-10.971,10.971-10.971s10.971,4.921,10.971,10.971S73.391-24.21,67.342-24.21
			S56.372-29.131,56.372-35.181z"/>
	</g>
	<g id="Bold-M" transform="matrix(1 0 0 1 2272.94 1126)">
		<path d="M108.789-45.239c-3.756,0-7.029,2.036-8.799,5.058H87.109c-0.965-3.893-3.017-7.354-5.83-10.04l3.547-6.244
			c0.848,0.144,1.712,0.236,2.6,0.236c8.502,0,15.395-6.892,15.395-15.394c0-8.502-6.893-15.394-15.395-15.394
			s-15.394,6.891-15.394,15.394c0,3.992,1.532,7.617,4.023,10.352l-3.452,6.079c-1.809-0.514-3.709-0.808-5.68-0.808
			c-11.479,0-20.818,9.339-20.818,20.818c0,3.866,1.078,7.476,2.922,10.582L37.123-12.611c-2.013-0.965-4.259-1.521-6.641-1.521
			c-8.502,0-15.394,6.891-15.394,15.394c0,8.502,6.892,15.394,15.394,15.394S45.875,9.763,45.875,1.261
			c0-2.467-0.595-4.79-1.626-6.856l11.789-11.872c3.172,1.956,6.893,3.105,10.885,3.105c1.86,0,3.654-0.269,5.372-0.729l3.843,5.909
			c-2.541,2.744-4.106,6.406-4.106,10.442c0,8.502,6.892,15.394,15.394,15.394S102.82,9.763,102.82,1.261
			c0-8.503-6.893-15.394-15.395-15.394c-0.832,0-1.644,0.084-2.439,0.212l-3.92-6.026c2.92-2.713,5.055-6.244,6.043-10.233h12.708
			c1.727,3.182,5.097,5.343,8.972,5.343c5.634,0,10.201-4.567,10.201-10.201C118.99-40.672,114.422-45.239,108.789-45.239z
			 M56.105-35.181c0-5.965,4.854-10.818,10.818-10.818s10.818,4.853,10.818,10.818s-4.854,10.818-10.818,10.818
			S56.105-29.215,56.105-35.181z"/>
	</g>
	<g id="Semibold-M" transform="matrix(1 0 0 1 1976.52 1126)">
		<path d="M108.095-45.142c-3.905,0-7.286,2.219-8.968,5.461H86.274c-0.923-4.029-3.055-7.591-5.994-10.303l3.605-6.348
			c0.986,0.201,2.007,0.307,3.053,0.307c8.42,0,15.245-6.825,15.245-15.245c0-8.42-6.825-15.245-15.245-15.245
			s-15.245,6.825-15.245,15.245c0,4.124,1.645,7.859,4.305,10.603l-3.518,6.192c-1.852-0.562-3.813-0.871-5.847-0.871
			c-11.119,0-20.166,9.046-20.166,20.166c0,3.869,1.114,7.474,3.011,10.547L37.55-12.622c-2.1-1.089-4.479-1.714-7.007-1.714
			c-8.42,0-15.245,6.824-15.245,15.245c0,8.42,6.825,15.245,15.245,15.245S45.789,9.329,45.789,0.909
			c0-2.614-0.66-5.073-1.818-7.223L55.784-18.21c3.137,2.012,6.854,3.194,10.85,3.194c1.916,0,3.764-0.285,5.521-0.787l3.92,6.024
			c-2.707,2.752-4.381,6.522-4.381,10.688c0,8.42,6.825,15.245,15.245,15.245s15.245-6.825,15.245-15.245
			c0-8.421-6.825-15.245-15.245-15.245c-0.995,0-1.965,0.103-2.907,0.284l-3.979-6.118c3.057-2.735,5.276-6.378,6.223-10.511h12.718
			c1.629,3.394,5.087,5.743,9.104,5.743c5.579,0,10.102-4.523,10.102-10.102C118.197-40.619,113.674-45.142,108.095-45.142z
			 M55.467-35.181c0-6.157,5.009-11.166,11.166-11.166c6.156,0,11.165,5.009,11.165,11.166c0,6.156-5.009,11.165-11.165,11.165
			C60.476-24.016,55.467-29.024,55.467-35.181z"/>
	</g>
	<g id="Medium-M" transform="matrix(1 0 0 1 1680.03 1126)">
		<path d="M107.474-45.045c-4.047,0-7.524,2.407-9.1,5.864H85.512c-0.872-4.167-3.088-7.836-6.159-10.567l3.688-6.494
			c1.119,0.265,2.281,0.419,3.481,0.419c8.337,0,15.096-6.759,15.096-15.097c0-8.338-6.759-15.097-15.096-15.097
			c-8.338,0-15.098,6.758-15.098,15.097c0,4.254,1.767,8.091,4.598,10.834l-3.604,6.346c-1.893-0.614-3.908-0.955-6.003-0.955
			c-10.76,0-19.513,8.753-19.513,19.513c0,3.872,1.147,7.475,3.101,10.513L38.037-12.617c-2.179-1.22-4.687-1.922-7.36-1.922
			c-8.338,0-15.097,6.758-15.097,15.097c0,8.338,6.759,15.097,15.097,15.097S45.774,8.896,45.774,0.558
			c0-2.757-0.751-5.333-2.042-7.558L55.6-18.952c3.099,2.071,6.817,3.284,10.815,3.284c1.973,0,3.876-0.3,5.673-0.847l4.012,6.168
			c-2.876,2.748-4.675,6.612-4.675,10.904c0,8.338,6.76,15.097,15.098,15.097c8.337,0,15.096-6.759,15.096-15.097
			c0-8.339-6.759-15.097-15.096-15.097c-1.154,0-2.274,0.142-3.354,0.387l-4.059-6.24c3.2-2.75,5.508-6.509,6.402-10.788h12.731
			c1.511,3.608,5.074,6.144,9.23,6.144c5.524,0,10.003-4.479,10.003-10.004C117.477-40.566,112.998-45.045,107.474-45.045z
			 M54.903-35.181c0-6.348,5.165-11.513,11.513-11.513s11.513,5.165,11.513,11.513s-5.165,11.513-11.513,11.513
			S54.903-28.833,54.903-35.181z"/>
	</g>
	<g id="Regular-M" transform="matrix(1 0 0 1 1383.58 1126)">
		<path d="M106.77-44.948c-4.185,0-7.755,2.599-9.207,6.267H84.638c-0.813-4.305-3.088-8.093-6.294-10.832l3.771-6.641
			c1.248,0.338,2.555,0.534,3.91,0.534c8.256,0,14.948-6.692,14.948-14.948c0-8.256-6.692-14.948-14.948-14.948
			s-14.948,6.692-14.948,14.948c0,4.382,1.897,8.312,4.901,11.045l-3.71,6.532c-1.931-0.669-3.996-1.051-6.152-1.051
			c-10.399,0-18.86,8.461-18.86,18.86c0,3.875,1.177,7.479,3.189,10.479L38.422-12.594c-2.25-1.354-4.875-2.148-7.693-2.148
			c-8.256,0-14.948,6.691-14.948,14.948c0,8.256,6.692,14.948,14.948,14.948S45.677,8.462,45.677,0.206
			c0-2.899-0.839-5.598-2.268-7.889l11.945-12.03c3.055,2.132,6.761,3.393,10.761,3.393c2.028,0,3.978-0.33,5.81-0.926l4.124,6.341
			c-3.046,2.736-4.973,6.693-4.973,11.111c0,8.256,6.692,14.948,14.948,14.948s14.948-6.692,14.948-14.948
			c0-8.257-6.692-14.948-14.948-14.948c-1.313,0-2.579,0.187-3.792,0.504l-4.148-6.378c3.347-2.755,5.72-6.641,6.554-11.064h12.824
			c1.378,3.813,5.019,6.544,9.308,6.544c5.471,0,9.905-4.435,9.905-9.906S112.24-44.948,106.77-44.948z M54.255-35.181
			c0-6.54,5.32-11.86,11.86-11.86s11.861,5.32,11.861,11.86s-5.321,11.86-11.861,11.86S54.255-28.641,54.255-35.181z"/>
	</g>
	<g id="Light-M" transform="matrix(1 0 0 1 1087.68 1126)">
		<path d="M105.596-44.851c-4.318,0-7.977,2.794-9.286,6.67H83.285c-0.741-4.443-3.079-8.352-6.425-11.09l3.859-6.794
			c1.373,0.42,2.829,0.649,4.338,0.649c8.174,0,14.799-6.626,14.799-14.8c0-8.174-6.625-14.8-14.799-14.8
			c-8.174,0-14.8,6.625-14.8,14.8c0,4.51,2.024,8.542,5.206,11.257l-3.815,6.718c-1.967-0.729-4.084-1.147-6.302-1.147
			c-10.04,0-18.208,8.168-18.208,18.208c0,3.876,1.228,7.466,3.3,10.423L38.335-12.57c-2.313-1.497-5.064-2.375-8.025-2.375
			c-8.174,0-14.8,6.625-14.8,14.8c0,8.174,6.626,14.8,14.8,14.8s14.8-6.626,14.8-14.8c0-3.042-0.92-5.868-2.494-8.22l12.03-12.115
			c3.008,2.195,6.699,3.508,10.699,3.508c2.082,0,4.076-0.369,5.941-1.016l4.244,6.525c-3.222,2.714-5.272,6.774-5.272,11.317
			c0,8.174,6.625,14.8,14.8,14.8c8.174,0,14.799-6.626,14.799-14.8c0-8.175-6.625-14.8-14.799-14.8c-1.471,0-2.89,0.222-4.231,0.621
			l-4.258-6.547c3.496-2.748,5.955-6.741,6.717-11.31h12.932c1.226,4.019,4.96,6.944,9.38,6.944c5.416,0,9.807-4.391,9.807-9.808
			S111.012-44.851,105.596-44.851z M65.345-22.973c-6.731,0-12.208-5.477-12.208-12.208s5.476-12.208,12.208-12.208
			c6.732,0,12.208,5.477,12.208,12.208S72.077-22.973,65.345-22.973z"/>
	</g>
	<g id="Thin-M" transform="matrix(1 0 0 1 792.042 1126)">
		<path d="M104.117-44.754c-4.537,0-8.336,3.117-9.4,7.323H81.413c-0.612-4.681-3.097-8.771-6.682-11.503l4.07-7.167
			c1.558,0.564,3.23,0.888,4.983,0.888c8.092,0,14.651-6.56,14.651-14.651c0-8.092-6.559-14.651-14.651-14.651
			c-8.092,0-14.651,6.559-14.651,14.651c0,4.727,2.248,8.919,5.723,11.598l-4.021,7.082c-2.026-0.834-4.24-1.301-6.563-1.301
			c-9.542,0-17.305,7.763-17.305,17.305c0,3.899,1.312,7.488,3.495,10.385L38.134-12.381c-2.407-1.734-5.353-2.768-8.547-2.768
			c-8.092,0-14.651,6.559-14.651,14.651c0,8.092,6.56,14.651,14.651,14.651s14.651-6.56,14.651-14.651
			c0-3.273-1.086-6.285-2.9-8.725l12.27-12.356c2.942,2.312,6.64,3.703,10.663,3.703c2.176,0,4.252-0.421,6.172-1.158l4.479,6.888
			c-3.513,2.677-5.79,6.891-5.79,11.648c0,8.092,6.559,14.651,14.651,14.651c8.092,0,14.651-6.56,14.651-14.651
			c0-8.093-6.559-14.651-14.651-14.651c-1.718,0-3.36,0.311-4.892,0.854l-4.482-6.893c3.757-2.73,6.373-6.924,7.002-11.744h13.234
			c0.966,4.344,4.835,7.595,9.47,7.595c5.362,0,9.709-4.347,9.709-9.709C113.826-40.407,109.479-44.754,104.117-44.754z
			 M64.271-22.375c-7.061,0-12.805-5.745-12.805-12.806s5.744-12.805,12.805-12.805s12.806,5.744,12.806,12.805
			S71.332-22.375,64.271-22.375z"/>
	</g>
	<g id="Ultralight-M" transform="matrix(1 0 0 1 495.893 1126)">
		<path d="M103.152-44.657c-4.75,0-8.684,3.448-9.461,7.976H80.036c-0.449-4.923-3.083-9.218-6.92-11.917l4.285-7.545
			c1.73,0.729,3.63,1.132,5.625,1.132c8.01,0,14.502-6.493,14.502-14.503c0-8.011-6.493-14.503-14.502-14.503
			s-14.503,6.492-14.503,14.503c0,4.942,2.477,9.302,6.252,11.92l-4.263,7.505c-2.076-0.951-4.375-1.496-6.803-1.496
			c-9.044,0-16.403,7.358-16.403,16.402c0,3.921,1.387,7.522,3.69,10.348l-12.572,12.66c-2.481-1.985-5.623-3.179-9.048-3.179
			c-8.01,0-14.503,6.492-14.503,14.503c0,8.01,6.493,14.503,14.503,14.503c8.01,0,14.502-6.493,14.502-14.503
			c0-3.505-1.243-6.719-3.311-9.226L53.1-22.693c2.863,2.436,6.564,3.915,10.609,3.915c2.271,0,4.434-0.465,6.402-1.303l4.726,7.266
			c-3.812,2.613-6.315,6.996-6.315,11.967c0,8.01,6.493,14.503,14.503,14.503S97.528,7.161,97.528-0.849
			c0-8.011-6.493-14.503-14.502-14.503c-1.964,0-3.834,0.395-5.542,1.102l-4.725-7.263c4.034-2.68,6.815-7.092,7.278-12.168H93.65
			c0.665,4.659,4.659,8.245,9.502,8.245c5.308,0,9.61-4.303,9.61-9.611C112.762-40.354,108.46-44.657,103.152-44.657z M63.71-21.778
			c-7.39,0-13.403-6.012-13.403-13.402s6.013-13.402,13.403-13.402s13.403,6.012,13.403,13.402S71.1-21.778,63.71-21.778z"/>
	</g>
	<g id="Black-S" transform="matrix(1 0 0 1 2880.28 696)">
		<path d="M86.444-40.644c-2.693,0-5.073,1.313-6.555,3.328H69.702c-0.802-2.84-2.309-5.387-4.322-7.436l2.689-4.737
			c0.436,0.047,0.878,0.074,1.326,0.074c6.785,0,12.284-5.5,12.284-12.285c0-6.785-5.499-12.285-12.284-12.285
			s-12.285,5.5-12.285,12.285c0,2.916,1.021,5.59,2.718,7.697l-2.601,4.579c-1.344-0.335-2.748-0.516-4.194-0.516
			c-9.55,0-17.32,7.771-17.32,17.321c0,3.022,0.778,5.864,2.146,8.339l-9.295,9.36c-1.424-0.578-2.979-0.903-4.61-0.903
			c-6.786,0-12.285,5.5-12.285,12.285c0,6.785,5.499,12.284,12.285,12.284c6.784,0,12.284-5.5,12.284-12.284
			c0-1.701-0.347-3.322-0.973-4.796l9.186-9.249c2.532,1.451,5.461,2.286,8.583,2.286c1.37,0,2.7-0.165,3.979-0.467l2.886,4.436
			c-1.741,2.12-2.787,4.833-2.787,7.79c0,6.785,5.5,12.284,12.285,12.284S81.68,3.249,81.68-3.536
			c0-6.785-5.499-12.285-12.284-12.285c-0.396,0-0.789,0.022-1.176,0.06l-2.979-4.581c2.084-2.073,3.641-4.672,4.461-7.578h10.016
			c1.467,2.146,3.931,3.557,6.726,3.557c4.496,0,8.141-3.645,8.141-8.141C94.584-37,90.94-40.644,86.444-40.644z M45.109-32.617
			c0-4.37,3.555-7.925,7.925-7.925s7.926,3.555,7.926,7.925s-3.556,7.926-7.926,7.926S45.109-28.247,45.109-32.617z"/>
	</g>
	<g id="Heavy-S" transform="matrix(1 0 0 1 2583.76 696)">
		<path d="M85.934-40.569c-2.985,0-5.585,1.626-6.979,4.037h-10.19c-0.76-3.091-2.39-5.838-4.625-7.966l2.811-4.951
			c0.683,0.119,1.38,0.193,2.096,0.193c6.721,0,12.17-5.449,12.17-12.17s-5.449-12.169-12.17-12.169
			c-6.722,0-12.17,5.448-12.17,12.169c0,3.17,1.222,6.048,3.208,8.213l-2.738,4.82c-1.435-0.411-2.943-0.645-4.509-0.645
			c-9.055,0-16.42,7.366-16.42,16.42c0,3.06,0.856,5.916,2.319,8.372l-9.423,9.488c-1.6-0.774-3.389-1.22-5.285-1.22
			c-6.721,0-12.17,5.447-12.17,12.169c0,6.721,5.449,12.169,12.17,12.169s12.17-5.448,12.17-12.169c0-1.964-0.477-3.814-1.303-5.457
			l9.331-9.397c2.507,1.553,5.45,2.465,8.61,2.465c1.478,0,2.902-0.214,4.265-0.581l3.047,4.685
			c-2.024,2.173-3.272,5.08-3.272,8.285c0,6.721,5.448,12.169,12.17,12.169c6.721,0,12.17-5.448,12.17-12.169
			c0-6.722-5.449-12.169-12.17-12.169c-0.672,0-1.327,0.069-1.97,0.173l-3.107-4.777c2.321-2.149,4.018-4.952,4.796-8.121h10.059
			c1.359,2.536,4.032,4.262,7.11,4.262c4.454,0,8.064-3.611,8.064-8.065C93.999-36.958,90.388-40.569,85.934-40.569z M44.248-32.617
			c0-4.737,3.854-8.59,8.59-8.59s8.59,3.853,8.59,8.59s-3.854,8.59-8.59,8.59S44.248-27.88,44.248-32.617z"/>
	</g>
	<g id="Bold-S" transform="matrix(1 0 0 1 2287.27 696)">
		<path d="M85.399-40.493c-2.94,0-5.504,1.594-6.89,3.96H68.423c-0.755-3.048-2.361-5.758-4.564-7.861l2.777-4.889
			c0.663,0.113,1.34,0.185,2.035,0.185c6.657,0,12.054-5.396,12.054-12.053s-5.396-12.053-12.054-12.053
			s-12.053,5.396-12.053,12.053c0,3.125,1.199,5.964,3.15,8.105l-2.703,4.76c-1.416-0.403-2.904-0.632-4.447-0.632
			c-8.988,0-16.301,7.313-16.301,16.301c0,3.027,0.844,5.854,2.287,8.286l-9.32,9.386c-1.576-0.755-3.335-1.191-5.2-1.191
			c-6.657,0-12.053,5.396-12.053,12.053c0,6.657,5.396,12.053,12.053,12.053S36.138,2.573,36.138-4.083
			c0-1.932-0.466-3.75-1.273-5.369l9.23-9.296c2.484,1.532,5.397,2.432,8.523,2.432c1.456,0,2.861-0.21,4.206-0.57l3.009,4.627
			c-1.989,2.148-3.215,5.016-3.215,8.176c0,6.657,5.396,12.053,12.053,12.053S80.725,2.573,80.725-4.083
			c0-6.658-5.396-12.053-12.054-12.053c-0.651,0-1.287,0.066-1.91,0.166l-3.069-4.719c2.286-2.124,3.958-4.889,4.731-8.013h9.951
			c1.352,2.492,3.99,4.184,7.024,4.184c4.411,0,7.987-3.576,7.987-7.987S89.81-40.493,85.399-40.493z M44.148-32.617
			c0-4.671,3.8-8.471,8.471-8.471c4.67,0,8.471,3.8,8.471,8.471s-3.801,8.471-8.471,8.471
			C47.948-24.146,44.148-27.946,44.148-32.617z"/>
	</g>
	<g id="Semibold-S" transform="matrix(1 0 0 1 1990.7 696)">
		<path d="M84.943-40.417c-3.058,0-5.705,1.737-7.021,4.276H67.857c-0.723-3.155-2.392-5.944-4.693-8.067l2.823-4.971
			c0.772,0.157,1.571,0.24,2.39,0.24c6.594,0,11.938-5.344,11.938-11.937c0-6.593-5.344-11.937-11.938-11.937
			c-6.592,0-11.937,5.344-11.937,11.937c0,3.229,1.288,6.153,3.37,8.302l-2.754,4.849c-1.449-0.44-2.986-0.682-4.578-0.682
			c-8.706,0-15.79,7.083-15.79,15.79c0,3.029,0.873,5.852,2.357,8.258l-9.339,9.405c-1.645-0.853-3.507-1.342-5.486-1.342
			c-6.593,0-11.938,5.344-11.938,11.937c0,6.593,5.345,11.937,11.938,11.937S36.156,2.234,36.156-4.359
			c0-2.047-0.517-3.972-1.424-5.655l9.25-9.315c2.456,1.575,5.367,2.501,8.495,2.501c1.501,0,2.947-0.223,4.323-0.616l3.069,4.717
			c-2.12,2.155-3.431,5.107-3.431,8.368c0,6.593,5.345,11.937,11.937,11.937c6.594,0,11.938-5.344,11.938-11.937
			c0-6.593-5.344-11.937-11.938-11.937c-0.779,0-1.538,0.081-2.275,0.223l-3.116-4.791c2.394-2.142,4.132-4.994,4.872-8.23h9.958
			c1.275,2.658,3.983,4.497,7.128,4.497c4.369,0,7.91-3.542,7.91-7.91S89.312-40.417,84.943-40.417z M43.736-32.617
			c0-4.821,3.922-8.743,8.742-8.743s8.742,3.922,8.742,8.743c0,4.82-3.922,8.742-8.742,8.742S43.736-27.797,43.736-32.617z"/>
	</g>
	<g id="Medium-S" transform="matrix(1 0 0 1 1694.09 696)">
		<path d="M84.529-40.341c-3.169,0-5.892,1.885-7.125,4.592H67.333c-0.683-3.263-2.418-6.136-4.823-8.274l2.889-5.085
			c0.876,0.207,1.786,0.328,2.726,0.328c6.528,0,11.82-5.292,11.82-11.821s-5.292-11.82-11.82-11.82s-11.821,5.292-11.821,11.82
			c0,3.332,1.383,6.335,3.6,8.483l-2.822,4.969c-1.481-0.48-3.06-0.747-4.7-0.747c-8.425,0-15.278,6.854-15.278,15.278
			c0,3.032,0.898,5.853,2.428,8.231L30.16-14.95c-1.706-0.955-3.67-1.505-5.764-1.505c-6.528,0-11.82,5.292-11.82,11.821
			c0,6.529,5.292,11.821,11.82,11.821c6.529,0,11.821-5.292,11.821-11.821c0-2.159-0.588-4.176-1.599-5.917l9.292-9.358
			c2.427,1.622,5.339,2.571,8.469,2.571c1.545,0,3.035-0.234,4.442-0.663l3.141,4.83c-2.252,2.152-3.66,5.178-3.66,8.538
			c0,6.529,5.293,11.821,11.821,11.821s11.82-5.292,11.82-11.821c0-6.529-5.292-11.821-11.82-11.821
			c-0.903,0-1.78,0.111-2.626,0.303l-3.179-4.886c2.506-2.153,4.313-5.097,5.014-8.447h9.969c1.183,2.825,3.973,4.811,7.228,4.811
			c4.325,0,7.832-3.507,7.832-7.833S88.854-40.341,84.529-40.341z M43.365-32.617c0-4.971,4.045-9.015,9.015-9.015
			c4.971,0,9.015,4.044,9.015,9.015s-4.044,9.015-9.015,9.015C47.41-23.603,43.365-27.646,43.365-32.617z"/>
	</g>
	<g id="Regular-S" transform="matrix(1 0 0 1 1397.53 696)">
		<path d="M84.022-40.265c-3.276,0-6.072,2.035-7.208,4.907H66.693c-0.636-3.371-2.418-6.337-4.929-8.482l2.953-5.2
			c0.978,0.265,2,0.418,3.062,0.418c6.464,0,11.705-5.24,11.705-11.705s-5.24-11.704-11.705-11.704s-11.705,5.24-11.705,11.704
			c0,3.432,1.486,6.508,3.838,8.649l-2.905,5.115c-1.512-0.524-3.129-0.823-4.817-0.823c-8.143,0-14.768,6.625-14.768,14.768
			c0,3.034,0.922,5.856,2.497,8.205l-9.414,9.481c-1.761-1.061-3.817-1.682-6.023-1.682c-6.464,0-11.704,5.239-11.704,11.705
			c0,6.464,5.24,11.704,11.704,11.704s11.705-5.24,11.705-11.704c0-2.271-0.657-4.383-1.775-6.177l9.353-9.42
			c2.392,1.669,5.294,2.656,8.426,2.656c1.588,0,3.115-0.258,4.549-0.725l3.229,4.965c-2.385,2.143-3.894,5.241-3.894,8.7
			c0,6.464,5.24,11.704,11.705,11.704s11.705-5.24,11.705-11.704c0-6.465-5.24-11.705-11.705-11.705c-1.028,0-2.02,0.146-2.97,0.395
			l-3.248-4.994c2.621-2.157,4.479-5.2,5.132-8.664h10.042c1.079,2.986,3.93,5.124,7.288,5.124c4.284,0,7.756-3.473,7.756-7.756
			C91.778-36.792,88.305-40.265,84.022-40.265z M42.903-32.617c0-5.121,4.166-9.287,9.287-9.287s9.287,4.166,9.287,9.287
			s-4.166,9.287-9.287,9.287S42.903-27.496,42.903-32.617z"/>
	</g>
	<g id="Light-S" transform="matrix(1 0 0 1 1101.55 696)">
		<path d="M83.016-40.189c-3.382,0-6.246,2.188-7.271,5.223H65.546c-0.581-3.479-2.411-6.539-5.031-8.684l3.021-5.32
			c1.075,0.329,2.215,0.508,3.397,0.508c6.4,0,11.588-5.188,11.588-11.588s-5.188-11.588-11.588-11.588
			c-6.4,0-11.588,5.188-11.588,11.588c0,3.532,1.585,6.689,4.076,8.814l-2.987,5.26c-1.541-0.571-3.198-0.898-4.935-0.898
			c-7.861,0-14.257,6.396-14.257,14.257c0,3.035,0.961,5.846,2.584,8.161l-9.477,9.543c-1.811-1.172-3.965-1.86-6.283-1.86
			c-6.4,0-11.588,5.188-11.588,11.588c0,6.4,5.188,11.588,11.588,11.588c6.4,0,11.588-5.188,11.588-11.588
			c0-2.382-0.72-4.595-1.952-6.436l9.419-9.486c2.355,1.719,5.246,2.747,8.378,2.747c1.63,0,3.191-0.289,4.651-0.795l3.323,5.109
			c-2.522,2.125-4.128,5.305-4.128,8.862c0,6.4,5.188,11.588,11.588,11.588c6.4,0,11.588-5.188,11.588-11.588
			c0-6.401-5.188-11.588-11.588-11.588c-1.152,0-2.262,0.173-3.313,0.486l-3.334-5.126c2.737-2.151,4.662-5.278,5.259-8.855h10.125
			c0.959,3.147,3.884,5.437,7.345,5.437c4.24,0,7.678-3.438,7.678-7.679S87.257-40.189,83.016-40.189z M51.5-23.059
			c-5.271,0-9.559-4.288-9.559-9.559s4.288-9.559,9.559-9.559c5.271,0,9.559,4.289,9.559,9.559S56.77-23.059,51.5-23.059z"/>
	</g>
	<g id="Thin-S" transform="matrix(1 0 0 1 805.763 696)">
		<path d="M81.774-40.113c-3.553,0-6.527,2.44-7.361,5.734H63.996c-0.479-3.666-2.425-6.867-5.232-9.007l3.187-5.611
			c1.22,0.442,2.53,0.695,3.902,0.695c6.336,0,11.472-5.136,11.472-11.472c0-6.336-5.136-11.472-11.472-11.472
			c-6.336,0-11.472,5.136-11.472,11.472c0,3.701,1.76,6.984,4.481,9.081l-3.149,5.545c-1.586-0.653-3.32-1.019-5.139-1.019
			c-7.472,0-13.55,6.078-13.55,13.55c0,3.053,1.027,5.863,2.736,8.131l-9.652,9.721c-1.885-1.358-4.191-2.167-6.692-2.167
			c-6.336,0-11.472,5.136-11.472,11.472c0,6.336,5.136,11.472,11.472,11.472S34.888,0.876,34.888-5.46
			c0-2.563-0.851-4.921-2.271-6.832l9.607-9.675c2.304,1.81,5.199,2.899,8.349,2.899c1.704,0,3.329-0.33,4.833-0.907l3.507,5.393
			c-2.75,2.096-4.533,5.395-4.533,9.121c0,6.336,5.136,11.472,11.472,11.472c6.336,0,11.472-5.136,11.472-11.472
			c0-6.336-5.136-11.472-11.472-11.472c-1.346,0-2.631,0.243-3.83,0.669l-3.51-5.397c2.941-2.138,4.989-5.421,5.483-9.196h10.362
			c0.756,3.401,3.786,5.947,7.416,5.947c4.199,0,7.602-3.404,7.602-7.602C89.376-36.709,85.972-40.113,81.774-40.113z M50.574-22.59
			c-5.529,0-10.026-4.498-10.026-10.027s4.498-10.026,10.026-10.026s10.027,4.498,10.027,10.026S56.103-22.59,50.574-22.59z"/>
	</g>
	<g id="Ultralight-S" transform="matrix(1 0 0 1 509.54 696)">
		<path d="M80.97-40.037c-3.719,0-6.799,2.7-7.408,6.246H62.87c-0.352-3.855-2.414-7.218-5.419-9.331l3.355-5.908
			c1.354,0.571,2.842,0.887,4.404,0.887c6.272,0,11.355-5.084,11.355-11.355c0-6.272-5.083-11.356-11.355-11.356
			c-6.271,0-11.356,5.083-11.356,11.356c0,3.87,1.94,7.283,4.896,9.333l-3.338,5.877c-1.625-0.745-3.425-1.171-5.327-1.171
			c-7.082,0-12.843,5.761-12.843,12.843c0,3.07,1.086,5.89,2.89,8.102l-9.844,9.913c-1.943-1.555-4.403-2.489-7.084-2.489
			c-6.272,0-11.356,5.083-11.356,11.355c0,6.272,5.084,11.356,11.356,11.356c6.271,0,11.355-5.084,11.355-11.356
			c0-2.744-0.973-5.261-2.593-7.224l9.812-9.881c2.242,1.907,5.14,3.065,8.307,3.065c1.778,0,3.472-0.364,5.013-1.02l3.7,5.688
			c-2.984,2.046-4.945,5.478-4.945,9.37c0,6.272,5.084,11.356,11.356,11.356c6.272,0,11.355-5.084,11.355-11.356
			c0-6.272-5.083-11.355-11.355-11.355c-1.538,0-3.002,0.309-4.34,0.862l-3.699-5.687c3.158-2.098,5.336-5.553,5.699-9.528h10.659
			c0.521,3.648,3.648,6.456,7.44,6.456c4.156,0,7.525-3.37,7.525-7.526C88.495-36.668,85.126-40.037,80.97-40.037z M50.086-22.123
			c-5.786,0-10.494-4.708-10.494-10.494S44.3-43.111,50.086-43.111c5.787,0,10.495,4.708,10.495,10.494S55.873-22.123,50.086-22.123
			z"/>
	</g>
</g>
</svg>
