<?xml version="1.0" encoding="utf-8"?>
<!-- Generator: Adobe Illustrator 16.0.0, SVG Export Plug-In . SVG Version: 6.00 Build 0)  -->
<!DOCTYPE svg PUBLIC "-//W3C//DTD SVG 1.1//EN" "http://www.w3.org/Graphics/SVG/1.1/DTD/svg11.dtd">
<svg version="1.1" id="Layer_1" xmlns="http://www.w3.org/2000/svg" xmlns:xlink="http://www.w3.org/1999/xlink" x="0px" y="0px"
	 width="3300px" height="2200px" viewBox="0 0 3300 2200" enable-background="new 0 0 3300 2200" xml:space="preserve">
<g id="Notes">
	<rect id="artboard" fill="#FFFFFF" width="3300" height="2200"/>
	<line fill="none" stroke="#000000" stroke-width="0.5" x1="263" y1="292" x2="3036" y2="292"/>
	<text transform="matrix(1 0 0 1 263 322)" font-family="'Arial-BoldMT'" font-size="12">Weight/Scale Variations</text>
	<text transform="matrix(1 0 0 1 536.0361 322)" font-family="'ArialMT'" font-size="12">Ultralight</text>
	<text transform="matrix(1 0 0 1 844.75 322)" font-family="'ArialMT'" font-size="12">Thin</text>
	<text transform="matrix(1 0 0 1 1140.1191 322)" font-family="'ArialMT'" font-size="12">Light</text>
	<text transform="matrix(1 0 0 1 1428.8281 322)" font-family="'ArialMT'" font-size="12">Regular</text>
	<text transform="matrix(1 0 0 1 1725.2207 322)" font-family="'ArialMT'" font-size="12">Medium</text>
	<text transform="matrix(1 0 0 1 2018.2559 322)" font-family="'ArialMT'" font-size="12">Semibold</text>
	<text transform="matrix(1 0 0 1 2327.9707 322)" font-family="'ArialMT'" font-size="12">Bold</text>
	<text transform="matrix(1 0 0 1 2619.6836 322)" font-family="'ArialMT'" font-size="12">Heavy</text>
	<text transform="matrix(1 0 0 1 2918.7285 322)" font-family="'ArialMT'" font-size="12">Black</text>
	<line fill="none" stroke="#000000" stroke-width="0.5" x1="263" y1="1903" x2="3036" y2="1903"/>
	<g transform="matrix(1 0 0 1 263 1933)">
		<path d="M9.248,0.83c4.307,0,7.891-3.574,7.891-7.881c0-4.308-3.594-7.881-7.9-7.881c-4.297,0-7.871,3.573-7.871,7.881
			C1.368-2.744,4.951,0.83,9.248,0.83z M9.248-0.654c-3.545,0-6.377-2.842-6.377-6.396s2.822-6.396,6.367-6.396
			c3.555,0,6.396,2.843,6.406,6.396C15.654-3.496,12.803-0.654,9.248-0.654z M6.396-6.318h2.109v2.119
			c0,0.439,0.293,0.742,0.723,0.742c0.449,0,0.742-0.303,0.742-0.742v-2.119h2.13c0.439,0,0.742-0.293,0.742-0.723
			c0-0.439-0.303-0.742-0.742-0.742H9.971v-2.108c0-0.449-0.293-0.753-0.742-0.753c-0.43,0-0.723,0.304-0.723,0.753v2.108h-2.11
			c-0.449,0-0.752,0.303-0.752,0.742C5.645-6.611,5.947-6.318,6.396-6.318z"/>
	</g>
	<g transform="matrix(1 0 0 1 281.506 1933)">
		<path d="M11.709,2.91c5.449,0,9.961-4.521,9.961-9.961c0-5.449-4.521-9.961-9.971-9.961c-5.439,0-9.951,4.512-9.951,9.961
			C1.748-1.611,6.269,2.91,11.709,2.91z M11.709,1.25c-4.609,0-8.291-3.691-8.291-8.301c0-4.61,3.672-8.301,8.281-8.301
			S20-11.66,20.01-7.051C20.02-2.442,16.318,1.25,11.709,1.25z M7.988-6.23h2.891v2.91c0,0.488,0.332,0.82,0.811,0.82
			c0.488,0,0.83-0.332,0.83-0.82v-2.91h2.91c0.488,0,0.82-0.332,0.82-0.811c0-0.488-0.332-0.83-0.82-0.83h-2.91v-2.891
			c0-0.508-0.342-0.84-0.83-0.84c-0.479,0-0.811,0.342-0.811,0.84v2.891H7.988c-0.508,0-0.84,0.342-0.84,0.83
			C7.148-6.563,7.49-6.23,7.988-6.23z"/>
	</g>
	<g transform="matrix(1 0 0 1 304.924 1933)">
		<path d="M14.97,5.664c6.963,0,12.725-5.762,12.725-12.715c0-6.963-5.771-12.726-12.734-12.726
			c-6.953,0-12.705,5.763-12.705,12.726C2.256-0.097,8.017,5.664,14.97,5.664z M14.97,3.848C8.935,3.848,4.081-1.015,4.081-7.05
			c0-6.045,4.844-10.898,10.879-10.898c6.045,0,10.898,4.854,10.908,10.898C25.879-1.015,21.015,3.848,14.97,3.848z M10.058-6.142
			h4.004v4.014c0,0.537,0.371,0.908,0.889,0.908c0.537,0,0.908-0.371,0.908-0.908v-4.014h4.023c0.527,0,0.908-0.371,0.908-0.89
			c0-0.537-0.371-0.918-0.908-0.918h-4.023v-4.004c0-0.557-0.371-0.928-0.908-0.928c-0.518,0-0.889,0.381-0.889,0.928v4.004h-4.004
			c-0.557,0-0.928,0.381-0.928,0.918C9.131-6.513,9.511-6.142,10.058-6.142z"/>
	</g>
	<text transform="matrix(1 0 0 1 263 1953)" font-family="'Arial-BoldMT'" font-size="12">Design Variations</text>
	<text transform="matrix(1 0 0 1 263 1971)" font-family="'ArialMT'" font-size="12">Symbols are supported in up to nine weights and three scales.</text>
	<text transform="matrix(1 0 0 1 263 1989)" font-family="'ArialMT'" font-size="12">For optimal layout with text and other symbols, vertically align</text>
	<text transform="matrix(1 0 0 1 263 2007)" font-family="'ArialMT'" font-size="12">symbols with the adjacent text.</text>
	<line fill="none" stroke="#00AEEF" stroke-width="0.5" x1="776" y1="1919" x2="776" y2="1933"/>
	<g transform="matrix(1 0 0 1 776 1933)">
		<path d="M3.311,0.127c0.519,0,0.771-0.195,0.957-0.732l1.261-3.457h5.762l1.26,3.457c0.187,0.537,0.439,0.732,0.947,0.732
			c0.518,0,0.85-0.313,0.85-0.801c0-0.166-0.028-0.313-0.106-0.527L9.66-13.389c-0.226-0.605-0.625-0.898-1.25-0.898
			c-0.605,0-1.017,0.293-1.23,0.889L2.598-1.191C2.52-0.976,2.49-0.83,2.49-0.664C2.49-0.176,2.803,0.127,3.311,0.127z M6.006-5.537
			l2.373-6.572h0.049l2.373,6.572H6.006z"/>
	</g>
	<line fill="none" stroke="#00AEEF" stroke-width="0.5" x1="792.836" y1="1919" x2="792.836" y2="1933"/>
	<text transform="matrix(1 0 0 1 776 1953)" font-family="'Arial-BoldMT'" font-size="12">Margins</text>
	<text transform="matrix(1 0 0 1 776 1971)" font-family="'ArialMT'" font-size="12">Leading and trailing margins on the left and right side of each symbol</text>
	<text transform="matrix(1 0 0 1 776 1989)" font-family="'ArialMT'" font-size="12">can be adjusted by modifying the x-location of the margin guidelines.</text>
	<text transform="matrix(1 0 0 1 776 2007)" font-family="'ArialMT'" font-size="12">Modifications are automatically applied proportionally to all</text>
	<text transform="matrix(1 0 0 1 776 2025)" font-family="'ArialMT'" font-size="12">scales and weights.</text>
	<g transform="matrix(1 0 0 1 1289 1933)">
		<path d="M2.842,1.865l1.699,1.709C5.4,4.444,6.387,4.385,7.314,3.36L17.49-7.851c0.264,0.088,0.537,0.067,0.85,0.01l1.064-0.195
			l0.664,0.674l-0.039,0.558c-0.039,0.498,0.088,0.879,0.576,1.356l0.762,0.742c0.479,0.479,1.094,0.508,1.563,0.039l2.91-2.92
			c0.469-0.469,0.449-1.064-0.029-1.543L25.04-9.892c-0.479-0.479-0.851-0.636-1.328-0.597l-0.576,0.049l-0.645-0.635l0.244-1.123
			c0.127-0.565-0.029-1.006-0.615-1.592l-2.197-2.188c-3.34-3.32-7.772-3.242-10.664-0.353c-0.42,0.41-0.448,0.986-0.215,1.377
			c0.234,0.361,0.693,0.597,1.338,0.431c1.465-0.343,2.988-0.4,4.414,0.536L14.21-12.53c-0.195,0.479-0.225,0.879-0.098,1.24
			L3.047-0.898C2.061,0.02,1.982,0.996,2.842,1.865z M10.752-15.957c2.432-1.777,5.723-1.475,7.949,0.752l2.432,2.412
			c0.234,0.234,0.273,0.42,0.205,0.762l-0.322,1.484l1.504,1.484l0.986-0.06c0.254-0.01,0.332,0.01,0.527,0.205l0.576,0.576
			L22.168-5.9l-0.576-0.575c-0.195-0.195-0.225-0.273-0.215-0.537l0.068-0.978l-1.494-1.483L18.428-9.22
			c-0.322,0.067-0.469,0.039-0.713-0.195l-2.002-2.002c-0.254-0.234-0.283-0.4-0.127-0.771l0.879-2.091
			c-1.563-1.455-3.594-2.08-5.625-1.483C10.684-15.722,10.625-15.849,10.752-15.957z M5.273,2.305L4.102,1.143
			C3.633,0.684,3.74,0.342,4.141-0.02l10.812-10.176l1.465,1.484L6.426,2.276C6.074,2.676,5.742,2.774,5.273,2.305z"/>
	</g>
	<text transform="matrix(1 0 0 1 1289 1953)" font-family="'Arial-BoldMT'" font-size="12">Exporting</text>
	<text transform="matrix(1 0 0 1 1289 1971)" font-family="'ArialMT'" font-size="12">Symbols should be outlined when exporting to ensure the</text>
	<text transform="matrix(1 0 0 1 1289 1989)" font-family="'ArialMT'" font-size="12">design is preserved when submitting to Xcode.</text>
	<text id="template-version" transform="matrix(1 0 0 1 2958.8496 1933)" font-family="'ArialMT'" font-size="12">Template v.2.0</text>
	<text transform="matrix(1 0 0 1 2878.5762 1951)" font-family="'ArialMT'" font-size="12">Requires Xcode 12 or greater</text>
	<text transform="matrix(1 0 0 1 2908.6113 1969)" font-family="'ArialMT'" font-size="12">Generated from solar.fill</text>
	<text transform="matrix(1 0 0 1 2921.9238 1987)" font-family="'ArialMT'" font-size="12">Typeset at 100 points</text>
	<text transform="matrix(1 0 0 1 263 726)" font-family="'ArialMT'" font-size="12">Small</text>
	<text transform="matrix(1 0 0 1 263 1156)" font-family="'ArialMT'" font-size="12">Medium</text>
	<text transform="matrix(1 0 0 1 263 1586)" font-family="'ArialMT'" font-size="12">Large</text>
</g>
<g id="Guides">
	<g id="H-reference" transform="matrix(1 0 0 1 339 696)">
		<path fill="#27AAE1" d="M0.977,0h2.686l9.326-24.463h32.764L55.127,0h2.637L30.615-70.459h-2.49L0.977,0z M29.346-67.139h0.098
			l15.43,40.431H13.867L29.346-67.139z"/>
	</g>
	<line id="Baseline-S" fill="none" stroke="#27AAE1" stroke-width="0.5" x1="263" y1="696" x2="3036" y2="696"/>
	<line id="Capline-S" fill="none" stroke="#27AAE1" stroke-width="0.5" x1="263" y1="625.541" x2="3036" y2="625.541"/>
	<g id="H-reference_1_" transform="matrix(1 0 0 1 339 1126)">
		<path fill="#27AAE1" d="M0.977,0h2.686l9.326-24.463h32.764L55.127,0h2.637L30.615-70.459h-2.49L0.977,0z M29.346-67.138h0.098
			l15.43,40.43H13.867L29.346-67.138z"/>
	</g>
	<line id="Baseline-M" fill="none" stroke="#27AAE1" stroke-width="0.5" x1="263" y1="1126" x2="3036" y2="1126"/>
	<line id="Capline-M" fill="none" stroke="#27AAE1" stroke-width="0.5" x1="263" y1="1055.539" x2="3036" y2="1055.539"/>
	<g id="H-reference_2_" transform="matrix(1 0 0 1 339 1556)">
		<path fill="#27AAE1" d="M0.977,0h2.686l9.326-24.463h32.764L55.127,0h2.637L30.615-70.459h-2.49L0.977,0z M29.346-67.138h0.098
			l15.43,40.43H13.867L29.346-67.138z"/>
	</g>
	<line id="Baseline-L" fill="none" stroke="#27AAE1" stroke-width="0.5" x1="263" y1="1556" x2="3036" y2="1556"/>
	<line id="Capline-L" fill="none" stroke="#27AAE1" stroke-width="0.5" x1="263" y1="1485.539" x2="3036" y2="1485.539"/>
	<line id="left-margin" fill="none" stroke="#00AEEF" stroke-width="0.5" x1="1383.58" y1="1030.789" x2="1383.58" y2="1150.119"/>
	<line id="right-margin" fill="none" stroke="#00AEEF" stroke-width="0.5" x1="1516.1" y1="1030.789" x2="1516.1" y2="1150.119"/>
</g>
<g id="Symbols">
	<g id="Black-L" transform="matrix(1 0 0 1 2846.24 1556)">
		<path d="M146.176-95.28H28.141c-9.262,0-16.771,7.509-16.771,16.771V8.05c0,9.262,7.509,16.771,16.771,16.771h118.035
			c9.262,0,16.771-7.509,16.771-16.771v-86.56C162.947-87.771,155.438-95.28,146.176-95.28z M146.176-39.746h-23.029V-78.51h23.029
			V-39.746z M82.644-30.716V8.05H60.2v-38.766H82.644z M60.2-39.746V-78.51h22.443v38.764H60.2z M91.674-30.716h22.442V8.05H91.674
			V-30.716z M91.674-39.746V-78.51h22.442v38.764H91.674z M51.17-78.51v38.764H28.141V-78.51H51.17z M28.141-30.716H51.17V8.05
			H28.141V-30.716z M123.147,8.05v-38.766h23.029V8.05H123.147z"/>
	</g>
	<g id="Heavy-L" transform="matrix(1 0 0 1 2550.07 1556)">
		<path d="M145.634-93.99H27.599c-8.55,0-15.48,6.93-15.48,15.48V8.05c0,8.549,6.931,15.48,15.48,15.48h118.035
			c8.55,0,15.48-6.932,15.48-15.48v-86.56C161.115-87.061,154.184-93.99,145.634-93.99z M145.634-39.423h-23.353V-78.51h23.353
			V-39.423z M82.424-31.038V8.05H59.336v-39.088H82.424z M59.336-39.423V-78.51h23.088v39.087H59.336z M90.809-31.038h23.088V8.05
			H90.809V-31.038z M90.809-39.423V-78.51h23.088v39.087H90.809z M50.951-78.51v39.087H27.599V-78.51H50.951z M27.599-31.038h23.353
			V8.05H27.599V-31.038z M122.281,8.05v-39.088h23.353V8.05H122.281z"/>
	</g>
	<g id="Bold-L" transform="matrix(1 0 0 1 2253.97 1556)">
		<path d="M145.028-92.7H26.993c-7.837,0-14.19,6.354-14.19,14.19V8.05c0,7.837,6.354,14.19,14.19,14.19h118.035
			c7.838,0,14.19-6.354,14.19-14.19v-86.56C159.219-86.347,152.866-92.7,145.028-92.7z M145.028-39.101h-23.675V-78.51h23.675
			V-39.101z M82.14-31.36V8.05H58.408v-39.41H82.14z M58.408-39.101V-78.51H82.14v39.409H58.408z M89.881-31.36h23.733V8.05H89.881
			V-31.36z M89.881-39.101V-78.51h23.733v39.409H89.881z M50.668-78.51v39.409H26.993V-78.51H50.668z M26.993-31.36h23.675V8.05
			H26.993V-31.36z M121.353,8.05v-39.41h23.675V8.05H121.353z"/>
	</g>
	<g id="Semibold-L" transform="matrix(1 0 0 1 1957.7 1556)">
		<path d="M144.589-91.41H26.554c-7.124,0-12.9,5.776-12.9,12.9V8.05c0,7.124,5.776,12.9,12.9,12.9h118.035
			c7.124,0,12.9-5.776,12.9-12.9v-86.56C157.49-85.634,151.713-91.41,144.589-91.41z M144.589-38.778h-23.997V-78.51h23.997V-38.778
			z M82.025-31.684V8.05H57.646v-39.733H82.025z M57.646-38.778V-78.51h24.379v39.731H57.646z M89.119-31.684h24.378V8.05H89.119
			V-31.684z M89.119-38.778V-78.51h24.378v39.731H89.119z M50.551-78.51v39.731H26.554V-78.51H50.551z M26.554-31.684h23.997V8.05
			H26.554V-31.684z M120.592,8.05v-39.733h23.997V8.05H120.592z"/>
	</g>
	<g id="Medium-L" transform="matrix(1 0 0 1 1661.3 1556)">
		<path d="M144.272-90.12H26.237c-6.412,0-11.61,5.198-11.61,11.61V8.05c0,6.413,5.198,11.61,11.61,11.61h118.035
			c6.412,0,11.61-5.197,11.61-11.61v-86.56C155.883-84.922,150.684-90.12,144.272-90.12z M144.272-38.455h-24.319V-78.51h24.319
			V-38.455z M82.03-32.006V8.05H57.007v-40.056H82.03z M57.007-38.455V-78.51H82.03v40.055H57.007z M88.479-32.006h25.023V8.05
			H88.479V-32.006z M88.479-38.455V-78.51h25.023v40.055H88.479z M50.557-78.51v40.055h-24.32V-78.51H50.557z M26.237-32.006h24.32
			V8.05h-24.32V-32.006z M119.953,8.05v-40.056h24.319V8.05H119.953z"/>
	</g>
	<g id="Regular-L" transform="matrix(1 0 0 1 1365.01 1556)">
		<path d="M143.815-88.83H25.781c-5.7,0-10.32,4.619-10.32,10.32V8.05c0,5.699,4.62,10.32,10.32,10.32h118.034
			c5.7,0,10.32-4.621,10.32-10.32v-86.56C154.135-84.211,149.514-88.83,143.815-88.83z M143.815-38.133h-24.642V-78.51h24.642
			V-38.133z M81.894-32.328V8.05H56.227v-40.378H81.894z M56.227-38.133V-78.51h25.667v40.377H56.227z M87.699-32.328h25.668V8.05
			H87.699V-32.328z M87.699-38.133V-78.51h25.668v40.377H87.699z M50.422-78.51v40.377H25.781V-78.51H50.422z M25.781-32.328h24.642
			V8.05H25.781V-32.328z M119.173,8.05v-40.378h24.642V8.05H119.173z"/>
	</g>
	<g id="Light-L" transform="matrix(1 0 0 1 1069.2 1556)">
		<path d="M142.951-87.54H24.917c-4.988,0-9.03,4.042-9.03,9.03V8.05c0,4.987,4.042,9.03,9.03,9.03h118.034
			c4.987,0,9.03-4.043,9.03-9.03v-86.56C151.981-83.498,147.938-87.54,142.951-87.54z M142.951-38.133h-24.642V-78.51h24.642
			V-38.133z M81.031-32.328V8.05H55.364v-40.378H81.031z M55.364-38.133V-78.51h25.667v40.377H55.364z M86.836-32.328h25.668V8.05
			H86.836V-32.328z M86.836-38.133V-78.51h25.668v40.377H86.836z M49.558-78.51v40.377H24.917V-78.51H49.558z M24.917-32.328h24.642
			V8.05H24.917V-32.328z M118.309,8.05v-40.378h24.642V8.05H118.309z"/>
	</g>
	<g id="Thin-L" transform="matrix(1 0 0 1 773.683 1556)">
		<path d="M141.755-85.605H23.721c-3.918,0-7.095,3.176-7.095,7.096V8.05c0,3.918,3.177,7.096,7.095,7.096h118.034
			c3.919,0,7.095-3.178,7.095-7.096v-86.56C148.851-82.43,145.674-85.605,141.755-85.605z M141.755-37.811h-24.964V-78.51h24.964
			V-37.811z M80.158-32.65v40.7H53.845v-40.7H80.158z M53.845-37.811V-78.51h26.313v40.699H53.845z M85.318-32.65h26.313v40.7
			H85.318V-32.65z M85.318-37.811V-78.51h26.313v40.699H85.318z M48.686-78.51v40.699H23.721V-78.51H48.686z M23.721-32.65h24.964
			v40.7H23.721V-32.65z M116.792,8.05v-40.7h24.964v40.7H116.792z"/>
	</g>
	<g id="Ultralight-L" transform="matrix(1 0 0 1 477.607 1556)">
		<path d="M141.122-83.67H23.087c-2.85,0-5.16,2.311-5.16,5.16V8.05c0,2.85,2.311,5.16,5.16,5.16h118.034
			c2.85,0,5.16-2.311,5.16-5.16v-86.56C146.282-81.359,143.971-83.67,141.122-83.67z M141.122-37.488h-25.287V-78.51h25.287V-37.488
			z M79.846-32.973V8.05H52.889v-41.022H79.846z M52.889-37.488V-78.51h26.957v41.021H52.889z M84.361-32.973h26.958V8.05H84.361
			V-32.973z M84.361-37.488V-78.51h26.958v41.021H84.361z M48.374-78.51v41.021H23.087V-78.51H48.374z M23.087-32.973h25.287V8.05
			H23.087V-32.973z M115.835,8.05v-41.022h25.287V8.05H115.835z"/>
	</g>
	<g id="Black-M" transform="matrix(1 0 0 1 2865.58 1126)">
		<path d="M113.568-81.73h-91.5c-7.18,0-13,5.82-13,13V-1.63c0,7.18,5.82,13,13,13h91.5c7.18,0,13-5.82,13-13V-68.73
			C126.568-75.91,120.748-81.73,113.568-81.73z M113.568-38.681H95.716v-30.05h17.853V-38.681z M64.318-31.681V-1.63H46.921v-30.051
			H64.318z M46.921-38.681v-30.05h17.397v30.05H46.921z M71.318-31.681h17.397V-1.63H71.318V-31.681z M71.318-38.681v-30.05h17.397
			v30.05H71.318z M39.921-68.73v30.05H22.068v-30.05H39.921z M22.068-31.681h17.853V-1.63H22.068V-31.681z M95.716-1.63v-30.051
			h17.853V-1.63H95.716z"/>
	</g>
	<g id="Heavy-M" transform="matrix(1 0 0 1 2569.23 1126)">
		<path d="M113.207-80.73h-91.5c-6.628,0-12,5.373-12,12V-1.63c0,6.627,5.372,12,12,12h91.5c6.628,0,12-5.373,12-12V-68.73
			C125.207-75.358,119.834-80.73,113.207-80.73z M113.207-38.431H95.104v-30.3h18.103V-38.431z M64.207-31.931V-1.63H46.309v-30.301
			H64.207z M46.309-38.431v-30.3h17.897v30.3H46.309z M70.707-31.931h17.897V-1.63H70.707V-31.931z M70.707-38.431v-30.3h17.897
			v30.3H70.707z M39.809-68.73v30.3H21.707v-30.3H39.809z M21.707-31.931h18.103V-1.63H21.707V-31.931z M95.104-1.63v-30.301h18.103
			V-1.63H95.104z"/>
	</g>
	<g id="Bold-M" transform="matrix(1 0 0 1 2272.94 1126)">
		<path d="M112.791-79.73h-91.5c-6.075,0-11,4.925-11,11V-1.63c0,6.075,4.925,11,11,11h91.5c6.075,0,11-4.925,11-11V-68.73
			C123.791-74.806,118.866-79.73,112.791-79.73z M112.791-38.181H94.438v-30.55h18.353V-38.181z M64.041-32.181V-1.63H45.643
			v-30.551H64.041z M45.643-38.181v-30.55h18.397v30.55H45.643z M70.041-32.181h18.397V-1.63H70.041V-32.181z M70.041-38.181v-30.55
			h18.397v30.55H70.041z M39.643-68.73v30.55H21.291v-30.55H39.643z M21.291-32.181h18.353V-1.63H21.291V-32.181z M94.438-1.63
			v-30.551h18.353V-1.63H94.438z"/>
	</g>
	<g id="Semibold-M" transform="matrix(1 0 0 1 1976.52 1126)">
		<path d="M112.501-78.73h-91.5c-5.522,0-10,4.477-10,10V-1.63c0,5.522,4.478,10,10,10h91.5c5.522,0,10-4.478,10-10V-68.73
			C122.501-74.253,118.024-78.73,112.501-78.73z M112.501-37.931H93.899v-30.8h18.603V-37.931z M64.001-32.431V-1.63H45.104v-30.801
			H64.001z M45.104-37.931v-30.8h18.897v30.8H45.104z M69.501-32.431h18.897V-1.63H69.501V-32.431z M69.501-37.931v-30.8h18.897
			v30.8H69.501z M39.604-68.73v30.8H21.001v-30.8H39.604z M21.001-32.431h18.603V-1.63H21.001V-32.431z M93.899-1.63v-30.801h18.603
			V-1.63H93.899z"/>
	</g>
	<g id="Medium-M" transform="matrix(1 0 0 1 1680.03 1126)">
		<path d="M112.275-77.73h-91.5c-4.971,0-9,4.029-9,9V-1.63c0,4.971,4.029,9,9,9h91.5c4.971,0,9-4.029,9-9V-68.73
			C121.275-73.701,117.245-77.73,112.275-77.73z M112.275-37.681H93.422v-31.05h18.853V-37.681z M64.025-32.681V-1.63H44.627
			v-31.051H64.025z M44.627-37.681v-31.05h19.397v31.05H44.627z M69.025-32.681h19.397V-1.63H69.025V-32.681z M69.025-37.681v-31.05
			h19.397v31.05H69.025z M39.627-68.73v31.05H20.775v-31.05H39.627z M20.775-32.681h18.853V-1.63H20.775V-32.681z M93.422-1.63
			v-31.051h18.853V-1.63H93.422z"/>
	</g>
	<g id="Regular-M" transform="matrix(1 0 0 1 1383.58 1126)">
		<path d="M111.977-76.73H20.478c-4.418,0-8,3.582-8,8V-1.63c0,4.418,3.582,8,8,8h91.499c4.418,0,8-3.582,8-8V-68.73
			C119.977-73.149,116.396-76.73,111.977-76.73z M111.977-37.431H92.875v-31.3h19.102V-37.431z M63.977-32.931V-1.63H44.08v-31.301
			H63.977z M44.08-37.431v-31.3h19.897v31.3H44.08z M68.477-32.931h19.898V-1.63H68.477V-32.931z M68.477-37.431v-31.3h19.898v31.3
			H68.477z M39.58-68.73v31.3H20.478v-31.3H39.58z M20.478-32.931H39.58V-1.63H20.478V-32.931z M92.875-1.63v-31.301h19.102V-1.63
			H92.875z"/>
	</g>
	<g id="Light-M" transform="matrix(1 0 0 1 1087.68 1126)">
		<path d="M111.203-75.73H19.704c-3.866,0-7,3.134-7,7V-1.63c0,3.866,3.134,7,7,7h91.499c3.866,0,7-3.134,7-7V-68.73
			C118.203-72.597,115.069-75.73,111.203-75.73z M111.203-37.431H92.101v-31.3h19.102V-37.431z M63.203-32.931V-1.63H43.306v-31.301
			H63.203z M43.306-37.431v-31.3h19.897v31.3H43.306z M67.703-32.931h19.898V-1.63H67.703V-32.931z M67.703-37.431v-31.3h19.898
			v31.3H67.703z M38.806-68.73v31.3H19.704v-31.3H38.806z M19.704-32.931h19.102V-1.63H19.704V-32.931z M92.101-1.63v-31.301h19.102
			V-1.63H92.101z"/>
	</g>
	<g id="Thin-M" transform="matrix(1 0 0 1 792.042 1126)">
		<path d="M110.129-74.23H18.63c-3.038,0-5.5,2.462-5.5,5.5V-1.63c0,3.037,2.462,5.5,5.5,5.5h91.499c3.038,0,5.5-2.463,5.5-5.5
			V-68.73C115.629-71.768,113.167-74.23,110.129-74.23z M110.129-37.181H90.777v-31.55h19.352V-37.181z M62.379-33.181V-1.63H41.982
			v-31.551H62.379z M41.982-37.181v-31.55h20.397v31.55H41.982z M66.379-33.181h20.398V-1.63H66.379V-33.181z M66.379-37.181v-31.55
			h20.398v31.55H66.379z M37.982-68.73v31.55H18.63v-31.55H37.982z M18.63-33.181h19.352V-1.63H18.63V-33.181z M90.777-1.63v-31.551
			h19.352V-1.63H90.777z"/>
	</g>
	<g id="Ultralight-M" transform="matrix(1 0 0 1 495.893 1126)">
		<path d="M109.568-72.73H18.069c-2.209,0-4,1.791-4,4V-1.63c0,2.209,1.791,4,4,4h91.499c2.209,0,4-1.791,4-4V-68.73
			C113.568-70.939,111.777-72.73,109.568-72.73z M109.568-36.931H89.966v-31.8h19.602V-36.931z M62.068-33.431V-1.63H41.171v-31.801
			H62.068z M41.171-36.931v-31.8h20.897v31.8H41.171z M65.568-33.431h20.898V-1.63H65.568V-33.431z M65.568-36.931v-31.8h20.898
			v31.8H65.568z M37.671-68.73v31.8H18.069v-31.8H37.671z M18.069-33.431h19.602V-1.63H18.069V-33.431z M89.966-1.63v-31.801h19.602
			V-1.63H89.966z"/>
	</g>
	<g id="Black-S" transform="matrix(1 0 0 1 2880.28 696)">
		<path d="M88.941-71.679H17.296c-5.622,0-10.18,4.558-10.18,10.179v52.54c0,5.622,4.558,10.179,10.18,10.179h71.645
			c5.622,0,10.18-4.558,10.18-10.179V-61.5C99.12-67.121,94.563-71.679,88.941-71.679z M88.941-37.97H74.962V-61.5h13.979V-37.97z
			 M50.378-32.489v23.53H36.755v-23.53H50.378z M36.755-37.97V-61.5h13.623v23.529H36.755z M55.859-32.489h13.623v23.53H55.859
			V-32.489z M55.859-37.97V-61.5h13.623v23.529H55.859z M31.275-61.5v23.529H17.296V-61.5H31.275z M17.296-32.489h13.979v23.53
			H17.296V-32.489z M74.962-8.959v-23.53h13.979v23.53H74.962z"/>
	</g>
	<g id="Heavy-S" transform="matrix(1 0 0 1 2583.76 696)">
		<path d="M88.749-70.896H17.104c-5.19,0-9.396,4.207-9.396,9.396v52.54c0,5.189,4.205,9.396,9.396,9.396h71.645
			c5.19,0,9.396-4.207,9.396-9.396V-61.5C98.145-66.689,93.939-70.896,88.749-70.896z M88.749-37.774H74.575V-61.5h14.174V-37.774z
			 M50.382-32.685v23.726H36.368v-23.726H50.382z M36.368-37.774V-61.5h14.014v23.725H36.368z M55.471-32.685h14.014v23.726H55.471
			V-32.685z M55.471-37.774V-61.5h14.014v23.725H55.471z M31.279-61.5v23.725H17.104V-61.5H31.279z M17.104-32.685h14.175v23.726
			H17.104V-32.685z M74.575-8.959v-23.726h14.174v23.726H74.575z"/>
	</g>
	<g id="Bold-S" transform="matrix(1 0 0 1 2287.27 696)">
		<path d="M88.533-70.112H16.888c-4.757,0-8.613,3.856-8.613,8.613v52.54c0,4.757,3.856,8.613,8.613,8.613h71.645
			c4.757,0,8.613-3.856,8.613-8.613V-61.5C97.146-66.256,93.29-70.112,88.533-70.112z M88.533-37.579h-14.37V-61.5h14.37V-37.579z
			 M50.361-32.881v23.921H35.957v-23.921H50.361z M35.957-37.579V-61.5h14.404v23.92H35.957z M55.06-32.881h14.404v23.921H55.06
			V-32.881z M55.06-37.579V-61.5h14.404v23.92H55.06z M31.258-61.5v23.92h-14.37V-61.5H31.258z M16.888-32.881h14.37v23.921h-14.37
			V-32.881z M74.163-8.959v-23.921h14.37v23.921H74.163z"/>
	</g>
	<g id="Semibold-S" transform="matrix(1 0 0 1 1990.7 696)">
		<path d="M88.394-69.33H16.749c-4.324,0-7.83,3.505-7.83,7.83v52.54c0,4.324,3.506,7.83,7.83,7.83h71.645
			c4.324,0,7.83-3.506,7.83-7.83V-61.5C96.224-65.824,92.718-69.33,88.394-69.33z M88.394-37.383H73.827V-61.5h14.566V-37.383z
			 M50.418-33.077v24.117H35.621v-24.117H50.418z M35.621-37.383V-61.5h14.797v24.116H35.621z M54.725-33.077h14.797v24.117H54.725
			V-33.077z M54.725-37.383V-61.5h14.797v24.116H54.725z M31.315-61.5v24.116H16.749V-61.5H31.315z M16.749-33.077h14.565v24.117
			H16.749V-33.077z M73.827-8.959v-24.117h14.566v24.117H73.827z"/>
	</g>
	<g id="Medium-S" transform="matrix(1 0 0 1 1694.09 696)">
		<path d="M88.287-68.546H16.642c-3.893,0-7.047,3.155-7.047,7.047v52.54c0,3.892,3.154,7.047,7.047,7.047h71.645
			c3.893,0,7.047-3.155,7.047-7.047V-61.5C95.334-65.392,92.18-68.546,88.287-68.546z M88.287-37.188H73.525V-61.5h14.762V-37.188z
			 M50.508-33.272v24.313H35.319v-24.313H50.508z M35.319-37.188V-61.5h15.188v24.312H35.319z M54.422-33.272H69.61v24.313H54.422
			V-33.272z M54.422-37.188V-61.5H69.61v24.312H54.422z M31.404-61.5v24.312H16.642V-61.5H31.404z M16.642-33.272h14.762v24.313
			H16.642V-33.272z M73.525-8.959v-24.313h14.762v24.313H73.525z"/>
	</g>
	<g id="Regular-S" transform="matrix(1 0 0 1 1397.53 696)">
		<path d="M88.1-67.764H16.455c-3.459,0-6.264,2.805-6.264,6.264v52.54c0,3.459,2.804,6.264,6.264,6.264H88.1
			c3.459,0,6.264-2.805,6.264-6.264V-61.5C94.364-64.959,91.559-67.764,88.1-67.764z M88.1-36.992H73.143V-61.5H88.1V-36.992z
			 M50.515-33.468v24.509h-15.58v-24.509H50.515z M34.936-36.992V-61.5h15.58v24.508H34.936z M54.039-33.468h15.581v24.509H54.039
			V-33.468z M54.039-36.992V-61.5h15.581v24.508H54.039z M31.412-61.5v24.508H16.455V-61.5H31.412z M16.455-33.468h14.957v24.509
			H16.455V-33.468z M73.143-8.959v-24.509H88.1v24.509H73.143z"/>
	</g>
	<g id="Light-S" transform="matrix(1 0 0 1 1101.55 696)">
		<path d="M87.406-66.98H15.761c-3.027,0-5.48,2.454-5.48,5.481v52.54c0,3.027,2.453,5.481,5.48,5.481h71.645
			c3.027,0,5.481-2.454,5.481-5.481V-61.5C92.887-64.527,90.433-66.98,87.406-66.98z M87.406-36.992H72.449V-61.5h14.957V-36.992z
			 M49.822-33.468v24.509h-15.58v-24.509H49.822z M34.242-36.992V-61.5h15.58v24.508H34.242z M53.345-33.468h15.58v24.509h-15.58
			V-33.468z M53.345-36.992V-61.5h15.58v24.508H53.345z M30.719-61.5v24.508H15.761V-61.5H30.719z M15.761-33.468h14.957v24.509
			H15.761V-33.468z M72.449-8.959v-24.509h14.957v24.509H72.449z"/>
	</g>
	<g id="Thin-S" transform="matrix(1 0 0 1 805.763 696)">
		<path d="M86.48-65.806H14.836c-2.378,0-4.306,1.928-4.306,4.307v52.54c0,2.378,1.928,4.307,4.306,4.307H86.48
			c2.379,0,4.307-1.929,4.307-4.307V-61.5C90.787-63.878,88.859-65.806,86.48-65.806z M86.48-36.796H71.328V-61.5H86.48V-36.796z
			 M49.092-33.664v24.705H33.121v-24.705H49.092z M33.121-36.796V-61.5h15.971v24.704H33.121z M52.224-33.664h15.972v24.705H52.224
			V-33.664z M52.224-36.796V-61.5h15.972v24.704H52.224z M29.989-61.5v24.704H14.836V-61.5H29.989z M14.836-33.664h15.153v24.705
			H14.836V-33.664z M71.328-8.959v-24.705H86.48v24.705H71.328z"/>
	</g>
	<g id="Ultralight-S" transform="matrix(1 0 0 1 509.54 696)">
		<path d="M85.994-64.631H14.35c-1.73,0-3.132,1.402-3.132,3.132v52.54c0,1.729,1.402,3.132,3.132,3.132h71.644
			c1.729,0,3.132-1.402,3.132-3.132V-61.5C89.125-63.229,87.723-64.631,85.994-64.631z M85.994-36.6H70.645V-61.5h15.349V-36.6z
			 M48.801-33.859v24.9H32.438v-24.9H48.801z M32.438-36.6V-61.5h16.362V-36.6H32.438z M51.541-33.859h16.363v24.9H51.541V-33.859z
			 M51.541-36.6V-61.5h16.363V-36.6H51.541z M29.698-61.5V-36.6H14.35V-61.5H29.698z M14.35-33.859h15.348v24.9H14.35V-33.859z
			 M70.645-8.959v-24.9h15.349v24.9H70.645z"/>
	</g>
</g>
</svg>
