<?xml version="1.0" encoding="utf-8"?>
<!-- Generator: Adobe Illustrator 16.0.0, SVG Export Plug-In . SVG Version: 6.00 Build 0)  -->
<!DOCTYPE svg PUBLIC "-//W3C//DTD SVG 1.1//EN" "http://www.w3.org/Graphics/SVG/1.1/DTD/svg11.dtd">
<svg version="1.1" id="Layer_1" xmlns="http://www.w3.org/2000/svg" xmlns:xlink="http://www.w3.org/1999/xlink" x="0px" y="0px"
	 width="3300px" height="2200px" viewBox="0 0 3300 2200" enable-background="new 0 0 3300 2200" xml:space="preserve">
<g id="Notes">
	<rect id="artboard" fill="#FFFFFF" width="3300" height="2200"/>
	<line fill="none" stroke="#000000" stroke-width="0.5" x1="263" y1="292" x2="3036" y2="292"/>
	<text transform="matrix(1 0 0 1 263 322)" font-family="'Arial-BoldMT'" font-size="12">Weight/Scale Variations</text>
	<text transform="matrix(1 0 0 1 536.0361 322)" font-family="'ArialMT'" font-size="12">Ultralight</text>
	<text transform="matrix(1 0 0 1 844.75 322)" font-family="'ArialMT'" font-size="12">Thin</text>
	<text transform="matrix(1 0 0 1 1140.1191 322)" font-family="'ArialMT'" font-size="12">Light</text>
	<text transform="matrix(1 0 0 1 1428.8281 322)" font-family="'ArialMT'" font-size="12">Regular</text>
	<text transform="matrix(1 0 0 1 1725.2207 322)" font-family="'ArialMT'" font-size="12">Medium</text>
	<text transform="matrix(1 0 0 1 2018.2559 322)" font-family="'ArialMT'" font-size="12">Semibold</text>
	<text transform="matrix(1 0 0 1 2327.9707 322)" font-family="'ArialMT'" font-size="12">Bold</text>
	<text transform="matrix(1 0 0 1 2619.6836 322)" font-family="'ArialMT'" font-size="12">Heavy</text>
	<text transform="matrix(1 0 0 1 2918.7285 322)" font-family="'ArialMT'" font-size="12">Black</text>
	<line fill="none" stroke="#000000" stroke-width="0.5" x1="263" y1="1903" x2="3036" y2="1903"/>
	<g transform="matrix(1 0 0 1 263 1933)">
		<path d="M9.248,0.83c4.307,0,7.891-3.574,7.891-7.881c0-4.308-3.594-7.881-7.9-7.881c-4.297,0-7.871,3.573-7.871,7.881
			C1.368-2.744,4.951,0.83,9.248,0.83z M9.248-0.654c-3.545,0-6.377-2.842-6.377-6.396s2.822-6.396,6.367-6.396
			c3.555,0,6.396,2.843,6.406,6.396C15.654-3.496,12.803-0.654,9.248-0.654z M6.396-6.318h2.109v2.119
			c0,0.439,0.293,0.742,0.723,0.742c0.449,0,0.742-0.303,0.742-0.742v-2.119h2.13c0.439,0,0.742-0.293,0.742-0.723
			c0-0.439-0.303-0.742-0.742-0.742H9.971v-2.108c0-0.449-0.293-0.753-0.742-0.753c-0.43,0-0.723,0.304-0.723,0.753v2.108h-2.11
			c-0.449,0-0.752,0.303-0.752,0.742C5.645-6.611,5.947-6.318,6.396-6.318z"/>
	</g>
	<g transform="matrix(1 0 0 1 281.506 1933)">
		<path d="M11.709,2.91c5.449,0,9.961-4.521,9.961-9.961c0-5.449-4.521-9.961-9.971-9.961c-5.439,0-9.951,4.512-9.951,9.961
			C1.748-1.611,6.269,2.91,11.709,2.91z M11.709,1.25c-4.609,0-8.291-3.691-8.291-8.301c0-4.61,3.672-8.301,8.281-8.301
			S20-11.66,20.01-7.051C20.02-2.442,16.318,1.25,11.709,1.25z M7.988-6.23h2.891v2.91c0,0.488,0.332,0.82,0.811,0.82
			c0.488,0,0.83-0.332,0.83-0.82v-2.91h2.91c0.488,0,0.82-0.332,0.82-0.811c0-0.488-0.332-0.83-0.82-0.83h-2.91v-2.891
			c0-0.508-0.342-0.84-0.83-0.84c-0.479,0-0.811,0.342-0.811,0.84v2.891H7.988c-0.508,0-0.84,0.342-0.84,0.83
			C7.148-6.563,7.49-6.23,7.988-6.23z"/>
	</g>
	<g transform="matrix(1 0 0 1 304.924 1933)">
		<path d="M14.97,5.664c6.963,0,12.725-5.762,12.725-12.715c0-6.963-5.771-12.726-12.734-12.726
			c-6.953,0-12.705,5.763-12.705,12.726C2.256-0.097,8.017,5.664,14.97,5.664z M14.97,3.848C8.935,3.848,4.081-1.015,4.081-7.05
			c0-6.045,4.844-10.898,10.879-10.898c6.045,0,10.898,4.854,10.908,10.898C25.879-1.015,21.015,3.848,14.97,3.848z M10.058-6.142
			h4.004v4.014c0,0.537,0.371,0.908,0.889,0.908c0.537,0,0.908-0.371,0.908-0.908v-4.014h4.023c0.527,0,0.908-0.371,0.908-0.89
			c0-0.537-0.371-0.918-0.908-0.918h-4.023v-4.004c0-0.557-0.371-0.928-0.908-0.928c-0.518,0-0.889,0.381-0.889,0.928v4.004h-4.004
			c-0.557,0-0.928,0.381-0.928,0.918C9.131-6.513,9.511-6.142,10.058-6.142z"/>
	</g>
	<text transform="matrix(1 0 0 1 263 1953)" font-family="'Arial-BoldMT'" font-size="12">Design Variations</text>
	<text transform="matrix(1 0 0 1 263 1971)" font-family="'ArialMT'" font-size="12">Symbols are supported in up to nine weights and three scales.</text>
	<text transform="matrix(1 0 0 1 263 1989)" font-family="'ArialMT'" font-size="12">For optimal layout with text and other symbols, vertically align</text>
	<text transform="matrix(1 0 0 1 263 2007)" font-family="'ArialMT'" font-size="12">symbols with the adjacent text.</text>
	<line fill="none" stroke="#00AEEF" stroke-width="0.5" x1="776" y1="1919" x2="776" y2="1933"/>
	<g transform="matrix(1 0 0 1 776 1933)">
		<path d="M3.311,0.127c0.519,0,0.771-0.195,0.957-0.732l1.261-3.457h5.762l1.26,3.457c0.187,0.537,0.439,0.732,0.947,0.732
			c0.518,0,0.85-0.313,0.85-0.801c0-0.166-0.028-0.313-0.106-0.527L9.66-13.389c-0.226-0.605-0.625-0.898-1.25-0.898
			c-0.605,0-1.017,0.293-1.23,0.889L2.598-1.191C2.52-0.976,2.49-0.83,2.49-0.664C2.49-0.176,2.803,0.127,3.311,0.127z M6.006-5.537
			l2.373-6.572h0.049l2.373,6.572H6.006z"/>
	</g>
	<line fill="none" stroke="#00AEEF" stroke-width="0.5" x1="792.836" y1="1919" x2="792.836" y2="1933"/>
	<text transform="matrix(1 0 0 1 776 1953)" font-family="'Arial-BoldMT'" font-size="12">Margins</text>
	<text transform="matrix(1 0 0 1 776 1971)" font-family="'ArialMT'" font-size="12">Leading and trailing margins on the left and right side of each symbol</text>
	<text transform="matrix(1 0 0 1 776 1989)" font-family="'ArialMT'" font-size="12">can be adjusted by modifying the x-location of the margin guidelines.</text>
	<text transform="matrix(1 0 0 1 776 2007)" font-family="'ArialMT'" font-size="12">Modifications are automatically applied proportionally to all</text>
	<text transform="matrix(1 0 0 1 776 2025)" font-family="'ArialMT'" font-size="12">scales and weights.</text>
	<g transform="matrix(1 0 0 1 1289 1933)">
		<path d="M2.842,1.865l1.699,1.709C5.4,4.444,6.387,4.385,7.314,3.36L17.49-7.851c0.264,0.088,0.537,0.067,0.85,0.01l1.064-0.195
			l0.664,0.674l-0.039,0.558c-0.039,0.498,0.088,0.879,0.576,1.356l0.762,0.742c0.479,0.479,1.094,0.508,1.563,0.039l2.91-2.92
			c0.469-0.469,0.449-1.064-0.029-1.543L25.04-9.892c-0.479-0.479-0.851-0.636-1.328-0.597l-0.576,0.049l-0.645-0.635l0.244-1.123
			c0.127-0.565-0.029-1.006-0.615-1.592l-2.197-2.188c-3.34-3.32-7.772-3.242-10.664-0.353c-0.42,0.41-0.448,0.986-0.215,1.377
			c0.234,0.361,0.693,0.597,1.338,0.431c1.465-0.343,2.988-0.4,4.414,0.536L14.21-12.53c-0.195,0.479-0.225,0.879-0.098,1.24
			L3.047-0.898C2.061,0.02,1.982,0.996,2.842,1.865z M10.752-15.957c2.432-1.777,5.723-1.475,7.949,0.752l2.432,2.412
			c0.234,0.234,0.273,0.42,0.205,0.762l-0.322,1.484l1.504,1.484l0.986-0.06c0.254-0.01,0.332,0.01,0.527,0.205l0.576,0.576
			L22.168-5.9l-0.576-0.575c-0.195-0.195-0.225-0.273-0.215-0.537l0.068-0.978l-1.494-1.483L18.428-9.22
			c-0.322,0.067-0.469,0.039-0.713-0.195l-2.002-2.002c-0.254-0.234-0.283-0.4-0.127-0.771l0.879-2.091
			c-1.563-1.455-3.594-2.08-5.625-1.483C10.684-15.722,10.625-15.849,10.752-15.957z M5.273,2.305L4.102,1.143
			C3.633,0.684,3.74,0.342,4.141-0.02l10.812-10.176l1.465,1.484L6.426,2.276C6.074,2.676,5.742,2.774,5.273,2.305z"/>
	</g>
	<text transform="matrix(1 0 0 1 1289 1953)" font-family="'Arial-BoldMT'" font-size="12">Exporting</text>
	<text transform="matrix(1 0 0 1 1289 1971)" font-family="'ArialMT'" font-size="12">Symbols should be outlined when exporting to ensure the</text>
	<text transform="matrix(1 0 0 1 1289 1989)" font-family="'ArialMT'" font-size="12">design is preserved when submitting to Xcode.</text>
	<text id="template-version" transform="matrix(1 0 0 1 2958.8496 1933)" font-family="'ArialMT'" font-size="12">Template v.2.0</text>
	<text transform="matrix(1 0 0 1 2878.5762 1951)" font-family="'ArialMT'" font-size="12">Requires Xcode 12 or greater</text>
	<text transform="matrix(1 0 0 1 2881.9336 1969)" font-family="'ArialMT'" font-size="12">Generated from processor.fill</text>
	<text transform="matrix(1 0 0 1 2921.9238 1987)" font-family="'ArialMT'" font-size="12">Typeset at 100 points</text>
	<text transform="matrix(1 0 0 1 263 726)" font-family="'ArialMT'" font-size="12">Small</text>
	<text transform="matrix(1 0 0 1 263 1156)" font-family="'ArialMT'" font-size="12">Medium</text>
	<text transform="matrix(1 0 0 1 263 1586)" font-family="'ArialMT'" font-size="12">Large</text>
</g>
<g id="Guides">
	<g id="H-reference" transform="matrix(1 0 0 1 339 696)">
		<path fill="#27AAE1" d="M0.977,0h2.686l9.326-24.463h32.764L55.127,0h2.637L30.615-70.459h-2.49L0.977,0z M29.346-67.139h0.098
			l15.43,40.431H13.867L29.346-67.139z"/>
	</g>
	<line id="Baseline-S" fill="none" stroke="#27AAE1" stroke-width="0.5" x1="263" y1="696" x2="3036" y2="696"/>
	<line id="Capline-S" fill="none" stroke="#27AAE1" stroke-width="0.5" x1="263" y1="625.541" x2="3036" y2="625.541"/>
	<g id="H-reference_1_" transform="matrix(1 0 0 1 339 1126)">
		<path fill="#27AAE1" d="M0.977,0h2.686l9.326-24.463h32.764L55.127,0h2.637L30.615-70.459h-2.49L0.977,0z M29.346-67.138h0.098
			l15.43,40.43H13.867L29.346-67.138z"/>
	</g>
	<line id="Baseline-M" fill="none" stroke="#27AAE1" stroke-width="0.5" x1="263" y1="1126" x2="3036" y2="1126"/>
	<line id="Capline-M" fill="none" stroke="#27AAE1" stroke-width="0.5" x1="263" y1="1055.539" x2="3036" y2="1055.539"/>
	<g id="H-reference_2_" transform="matrix(1 0 0 1 339 1556)">
		<path fill="#27AAE1" d="M0.977,0h2.686l9.326-24.463h32.764L55.127,0h2.637L30.615-70.459h-2.49L0.977,0z M29.346-67.138h0.098
			l15.43,40.43H13.867L29.346-67.138z"/>
	</g>
	<line id="Baseline-L" fill="none" stroke="#27AAE1" stroke-width="0.5" x1="263" y1="1556" x2="3036" y2="1556"/>
	<line id="Capline-L" fill="none" stroke="#27AAE1" stroke-width="0.5" x1="263" y1="1485.539" x2="3036" y2="1485.539"/>
	<line id="left-margin" fill="none" stroke="#00AEEF" stroke-width="0.5" x1="1383.58" y1="1030.789" x2="1383.58" y2="1150.119"/>
	<line id="right-margin" fill="none" stroke="#00AEEF" stroke-width="0.5" x1="1516.1" y1="1030.789" x2="1516.1" y2="1150.119"/>
</g>
<g id="Symbols">
	<g id="Black-L" transform="matrix(1 0 0 1 2846.24 1556)">
		<path d="M68.39,14.823v12.513H55.877V14.823H68.39z M93.415,14.823v12.513H80.903V14.823H93.415z M118.442,14.823v12.513h-12.513
			V14.823H118.442z M118.442-79.024c6.91,0,12.514,5.603,12.514,12.513v62.564c0,6.912-5.604,12.514-12.514,12.514H55.877
			c-6.91,0-12.514-5.602-12.514-12.514v-62.564c0-6.91,5.604-12.513,12.514-12.513H118.442z M118.442-10.204
			c-3.458,0-6.257,2.799-6.257,6.257s2.799,6.258,6.257,6.258c3.457,0,6.256-2.8,6.256-6.258S121.899-10.204,118.442-10.204z
			 M37.108-16.459v12.512H24.594v-12.512H37.108z M149.725-16.459v12.512h-12.514v-12.512H149.725z M37.108-41.486v12.514H24.594
			v-12.514H37.108z M149.725-41.486v12.514h-12.514v-12.514H149.725z M37.108-66.512V-54H24.594v-12.512H37.108z M149.725-66.512
			V-54h-12.514v-12.512H149.725z M55.877-72.77c-3.457,0-6.258,2.8-6.258,6.258c0,3.456,2.801,6.257,6.258,6.257
			c3.455,0,6.256-2.801,6.256-6.257C62.133-69.97,59.332-72.77,55.877-72.77z M68.39-97.795v12.513H55.877v-12.513H68.39z
			 M93.415-97.795v12.513H80.903v-12.513H93.415z M118.442-97.795v12.513h-12.513v-12.513H118.442z"/>
	</g>
	<g id="Heavy-L" transform="matrix(1 0 0 1 2550.07 1556)">
		<path d="M68.045,14.309V26.69H55.661V14.309H68.045z M92.813,14.309V26.69H80.43V14.309H92.813z M117.581,14.309V26.69h-12.384
			V14.309H117.581z M117.581-78.573c6.839,0,12.384,5.544,12.384,12.384v61.92c0,6.841-5.545,12.384-12.384,12.384h-61.92
			c-6.839,0-12.384-5.543-12.384-12.384v-61.92c0-6.84,5.545-12.384,12.384-12.384H117.581z M117.581-10.463
			c-3.421,0-6.191,2.771-6.191,6.193s2.771,6.193,6.191,6.193c3.422,0,6.192-2.771,6.192-6.193S121.003-10.463,117.581-10.463z
			 M37.085-16.651V-4.27H24.701v-12.382H37.085z M148.541-16.651V-4.27h-12.383v-12.382H148.541z M37.085-41.423v12.387H24.701
			v-12.387H37.085z M148.541-41.423v12.387h-12.383v-12.387H148.541z M37.085-66.189v12.384H24.701v-12.384H37.085z M148.541-66.189
			v12.384h-12.383v-12.384H148.541z M55.661-72.383c-3.422,0-6.191,2.771-6.191,6.193s2.77,6.193,6.191,6.193
			c3.419,0,6.191-2.771,6.191-6.193S59.08-72.383,55.661-72.383z M68.045-97.149v12.384H55.661v-12.384H68.045z M92.813-97.149
			v12.384H80.43v-12.384H92.813z M117.581-97.149v12.384h-12.384v-12.384H117.581z"/>
	</g>
	<g id="Bold-L" transform="matrix(1 0 0 1 2253.97 1556)">
		<path d="M67.627,13.792v12.254H55.372V13.792H67.627z M92.137,13.792v12.254H79.882V13.792H92.137z M116.647,13.792v12.254
			h-12.255V13.792H116.647z M116.647-78.121c6.768,0,12.255,5.486,12.255,12.254v61.275c0,6.769-5.487,12.255-12.255,12.255H55.372
			c-6.769,0-12.255-5.486-12.255-12.255v-61.275c0-6.768,5.486-12.254,12.255-12.254H116.647z M116.647-10.721
			c-3.387,0-6.128,2.742-6.128,6.129c0,3.386,2.741,6.129,6.128,6.129c3.385,0,6.127-2.743,6.127-6.129
			C122.774-7.979,120.032-10.721,116.647-10.721z M36.989-16.846v12.254H24.735v-12.254H36.989z M147.284-16.846v12.254H135.03
			v-12.254H147.284z M36.989-41.358v12.258H24.735v-12.258H36.989z M147.284-41.358v12.258H135.03v-12.258H147.284z M36.989-65.867
			v12.254H24.735v-12.254H36.989z M147.284-65.867v12.254H135.03v-12.254H147.284z M55.372-71.996c-3.385,0-6.127,2.743-6.127,6.129
			c0,3.387,2.742,6.129,6.127,6.129c3.384,0,6.128-2.742,6.128-6.129C61.5-69.253,58.756-71.996,55.372-71.996z M67.627-96.505
			v12.254H55.372v-12.254H67.627z M92.137-96.505v12.254H79.882v-12.254H92.137z M116.647-96.505v12.254h-12.255v-12.254H116.647z"
			/>
	</g>
	<g id="Semibold-L" transform="matrix(1 0 0 1 1957.7 1556)">
		<path d="M67.479,13.019v12.06H55.418v-12.06H67.479z M91.602,13.019v12.06H79.541v-12.06H91.602z M115.726,13.019v12.06h-12.062
			v-12.06H115.726z M115.726-77.444c6.661,0,12.061,5.4,12.061,12.062v60.307c0,6.663-5.399,12.062-12.061,12.062H55.418
			c-6.662,0-12.062-5.398-12.062-12.062v-60.307c0-6.661,5.399-12.062,12.062-12.062H115.726z M115.726-11.107
			c-3.334,0-6.031,2.698-6.031,6.031c0,3.334,2.697,6.032,6.031,6.032c3.332,0,6.03-2.698,6.03-6.032
			C121.756-8.409,119.058-11.107,115.726-11.107z M37.325-17.136v12.06H25.264v-12.06H37.325z M145.879-17.136v12.06h-12.062v-12.06
			H145.879z M37.325-41.262v12.064H25.264v-12.064H37.325z M145.879-41.262v12.064h-12.062v-12.064H145.879z M37.325-65.383v12.061
			H25.264v-12.061H37.325z M145.879-65.383v12.061h-12.062v-12.061H145.879z M55.418-71.415c-3.333,0-6.03,2.7-6.03,6.032
			s2.697,6.031,6.03,6.031c3.331,0,6.03-2.699,6.03-6.031S58.749-71.415,55.418-71.415z M67.479-95.537v12.061H55.418v-12.061
			H67.479z M91.602-95.537v12.061H79.541v-12.061H91.602z M115.726-95.537v12.061h-12.062v-12.061H115.726z"/>
	</g>
	<g id="Medium-L" transform="matrix(1 0 0 1 1661.3 1556)">
		<path d="M67.457,12.243V24.11H55.589V12.243H67.457z M91.192,12.243V24.11H79.325V12.243H91.192z M114.928,12.243V24.11H103.06
			V12.243H114.928z M114.928-76.768c6.555,0,11.868,5.314,11.868,11.868v59.34c0,6.556-5.313,11.868-11.868,11.868h-59.34
			c-6.555,0-11.868-5.313-11.868-11.868v-59.34c0-6.554,5.313-11.868,11.868-11.868H114.928z M114.928-11.494
			c-3.279,0-5.934,2.655-5.934,5.935s2.654,5.935,5.934,5.935c3.278,0,5.934-2.655,5.934-5.935S118.207-11.494,114.928-11.494z
			 M37.787-17.427V-5.56H25.919v-11.867H37.787z M144.598-17.427V-5.56H132.73v-11.867H144.598z M37.787-41.164v11.869H25.919
			v-11.869H37.787z M144.598-41.164v11.869H132.73v-11.869H144.598z M37.787-64.899v11.867H25.919v-11.867H37.787z M144.598-64.899
			v11.867H132.73v-11.867H144.598z M55.589-70.834c-3.278,0-5.934,2.655-5.934,5.935s2.655,5.935,5.934,5.935
			c3.276,0,5.934-2.655,5.934-5.935S58.865-70.834,55.589-70.834z M67.457-94.569v11.867H55.589v-11.867H67.457z M91.192-94.569
			v11.867H79.325v-11.867H91.192z M114.928-94.569v11.867H103.06v-11.867H114.928z"/>
	</g>
	<g id="Regular-L" transform="matrix(1 0 0 1 1365.01 1556)">
		<path d="M67.382,11.212V22.82H55.773V11.212H67.382z M90.602,11.212V22.82h-11.61V11.212H90.602z M113.823,11.212V22.82h-11.609
			V11.212H113.823z M113.823-75.863c6.411,0,11.609,5.197,11.609,11.608v58.05c0,6.414-5.198,11.61-11.609,11.61h-58.05
			c-6.412,0-11.609-5.196-11.609-11.61v-58.05c0-6.411,5.198-11.608,11.609-11.608H113.823z M113.823-12.011
			c-3.208,0-5.806,2.598-5.806,5.806c0,3.209,2.597,5.807,5.806,5.807c3.208,0,5.805-2.598,5.805-5.807
			C119.628-9.413,117.03-12.011,113.823-12.011z M38.357-17.813v11.608H26.748v-11.608H38.357z M142.847-17.813v11.608h-11.609
			v-11.608H142.847z M38.357-41.036v11.612H26.748v-11.612H38.357z M142.847-41.036v11.612h-11.609v-11.612H142.847z M38.357-64.255
			v11.609H26.748v-11.609H38.357z M142.847-64.255v11.609h-11.609v-11.609H142.847z M55.773-70.061
			c-3.207,0-5.806,2.598-5.806,5.806s2.599,5.807,5.806,5.807c3.206,0,5.805-2.599,5.805-5.807S58.979-70.061,55.773-70.061z
			 M67.382-93.279v11.608H55.773v-11.608H67.382z M90.602-93.279v11.608h-11.61v-11.608H90.602z M113.823-93.279v11.608h-11.609
			v-11.608H113.823z"/>
	</g>
	<g id="Light-L" transform="matrix(1 0 0 1 1069.2 1556)">
		<path d="M66.908,10.18V21.53H55.557V10.18H66.908z M89.613,10.18V21.53H78.26V10.18H89.613z M112.317,10.18V21.53h-11.352V10.18
			H112.317z M112.317-74.961c6.269,0,11.352,5.083,11.352,11.352v56.76c0,6.27-5.083,11.352-11.352,11.352h-56.76
			c-6.27,0-11.352-5.082-11.352-11.352v-56.76c0-6.269,5.082-11.352,11.352-11.352H112.317z M112.317-12.527
			c-3.137,0-5.676,2.541-5.676,5.678s2.54,5.678,5.676,5.678c3.136,0,5.676-2.541,5.676-5.678S115.453-12.527,112.317-12.527z
			 M38.528-18.2V-6.85H27.177V-18.2H38.528z M140.697-18.2V-6.85h-11.352V-18.2H140.697z M38.528-40.906v11.354H27.177v-11.354
			H38.528z M140.697-40.906v11.354h-11.352v-11.354H140.697z M38.528-63.609v11.352H27.177v-11.352H38.528z M140.697-63.609v11.352
			h-11.352v-11.352H140.697z M55.557-69.286c-3.136,0-5.677,2.541-5.677,5.677c0,3.137,2.541,5.677,5.677,5.677
			c3.134,0,5.676-2.54,5.676-5.677C61.233-66.745,58.691-69.286,55.557-69.286z M66.908-91.989v11.352H55.557v-11.352H66.908z
			 M89.613-91.989v11.352H78.26v-11.352H89.613z M112.317-91.989v11.352h-11.352v-11.352H112.317z"/>
	</g>
	<g id="Thin-L" transform="matrix(1 0 0 1 773.683 1556)">
		<path d="M66.097,9.148V20.24H55.004V9.148H66.097z M88.286,9.148V20.24H77.191V9.148H88.286z M110.473,9.148V20.24H99.38V9.148
			H110.473z M110.473-74.058c6.126,0,11.094,4.967,11.094,11.093v55.471c0,6.127-4.967,11.093-11.094,11.093h-55.47
			c-6.127,0-11.094-4.966-11.094-11.093v-55.471c0-6.126,4.967-11.093,11.094-11.093H110.473z M110.473-13.043
			c-3.065,0-5.547,2.482-5.547,5.549s2.482,5.548,5.547,5.548c3.065,0,5.547-2.481,5.547-5.548S113.538-13.043,110.473-13.043z
			 M38.362-18.587v11.093H27.268v-11.093H38.362z M138.209-18.587v11.093h-11.094v-11.093H138.209z M38.362-40.776v11.095H27.268
			v-11.095H38.362z M138.209-40.776v11.095h-11.094v-11.095H138.209z M38.362-62.965v11.094H27.268v-11.094H38.362z M138.209-62.965
			v11.094h-11.094v-11.094H138.209z M55.004-68.512c-3.064,0-5.548,2.482-5.548,5.547c0,3.065,2.484,5.549,5.548,5.549
			c3.063,0,5.547-2.483,5.547-5.549C60.551-66.029,58.067-68.512,55.004-68.512z M66.097-90.699v11.094H55.004v-11.094H66.097z
			 M88.286-90.699v11.094H77.191v-11.094H88.286z M110.473-90.699v11.094H99.38v-11.094H110.473z"/>
	</g>
	<g id="Ultralight-L" transform="matrix(1 0 0 1 477.607 1556)">
		<path d="M65.85,8.115V18.95H55.015V8.115H65.85z M87.522,8.115V18.95H76.685V8.115H87.522z M109.194,8.115V18.95H98.359V8.115
			H109.194z M109.194-73.154c5.984,0,10.835,4.851,10.835,10.835v54.18c0,5.985-4.852,10.835-10.835,10.835h-54.18
			c-5.985,0-10.835-4.85-10.835-10.835v-54.18c0-5.984,4.851-10.835,10.835-10.835H109.194z M109.194-13.559
			c-2.994,0-5.418,2.425-5.418,5.419c0,2.995,2.424,5.42,5.418,5.42s5.418-2.425,5.418-5.42
			C114.612-11.134,112.188-13.559,109.194-13.559z M38.76-18.975V-8.14H27.924v-10.835H38.76z M136.285-18.975V-8.14h-10.835
			v-10.835H136.285z M38.76-40.647v10.836H27.924v-10.836H38.76z M136.285-40.647v10.836h-10.835v-10.836H136.285z M38.76-62.319
			v10.835H27.924v-10.835H38.76z M136.285-62.319v10.835h-10.835v-10.835H136.285z M55.015-67.738c-2.993,0-5.419,2.424-5.419,5.419
			c0,2.994,2.426,5.418,5.419,5.418c2.992,0,5.417-2.424,5.417-5.418C60.432-65.314,58.006-67.738,55.015-67.738z M65.85-89.409
			v10.835H55.015v-10.835H65.85z M87.522-89.409v10.835H76.685v-10.835H87.522z M109.194-89.409v10.835H98.359v-10.835H109.194z"/>
	</g>
	<g id="Black-M" transform="matrix(1 0 0 1 2865.58 1126)">
		<path d="M53.27,3.62v9.699h-9.7V3.62H53.27z M72.669,3.62v9.699h-9.7V3.62H72.669z M92.069,3.62v9.699h-9.7V3.62H92.069z
			 M92.069-69.13c5.356,0,9.7,4.343,9.7,9.699v48.5c0,5.358-4.344,9.7-9.7,9.7h-48.5c-5.356,0-9.7-4.342-9.7-9.7v-48.5
			c0-5.356,4.344-9.699,9.7-9.699H92.069z M92.069-15.781c-2.681,0-4.851,2.17-4.851,4.851s2.17,4.851,4.851,4.851
			c2.68,0,4.85-2.17,4.85-4.851S94.749-15.781,92.069-15.781z M29.02-20.63v9.699h-9.7v-9.699H29.02z M116.319-20.63v9.699h-9.7
			v-9.699H116.319z M29.02-40.031v9.701h-9.7v-9.701H29.02z M116.319-40.031v9.701h-9.7v-9.701H116.319z M29.02-59.431v9.699h-9.7
			v-9.699H29.02z M116.319-59.431v9.699h-9.7v-9.699H116.319z M43.569-64.281c-2.68,0-4.851,2.17-4.851,4.851
			c0,2.68,2.171,4.851,4.851,4.851c2.679,0,4.85-2.171,4.85-4.851C48.419-62.111,46.248-64.281,43.569-64.281z M53.27-83.681v9.699
			h-9.7v-9.699H53.27z M72.669-83.681v9.699h-9.7v-9.699H72.669z M92.069-83.681v9.699h-9.7v-9.699H92.069z"/>
	</g>
	<g id="Heavy-M" transform="matrix(1 0 0 1 2569.23 1126)">
		<path d="M53.061,3.221v9.599h-9.6V3.221H53.061z M72.261,3.221v9.599h-9.6V3.221H72.261z M91.461,3.221v9.599h-9.6V3.221H91.461z
			 M91.461-68.78c5.302,0,9.6,4.298,9.6,9.6v48c0,5.303-4.298,9.6-9.6,9.6h-48c-5.302,0-9.6-4.297-9.6-9.6v-48
			c0-5.301,4.298-9.6,9.6-9.6H91.461z M91.461-15.981c-2.652,0-4.8,2.147-4.8,4.801s2.147,4.801,4.8,4.801s4.8-2.147,4.8-4.801
			S94.114-15.981,91.461-15.981z M29.061-20.779v9.599h-9.6v-9.599H29.061z M115.461-20.779v9.599h-9.6v-9.599H115.461z
			 M29.061-39.981v9.602h-9.6v-9.602H29.061z M115.461-39.981v9.602h-9.6v-9.602H115.461z M29.061-59.181v9.6h-9.6v-9.6H29.061z
			 M115.461-59.181v9.6h-9.6v-9.6H115.461z M43.461-63.981c-2.652,0-4.8,2.148-4.8,4.801s2.147,4.801,4.8,4.801
			c2.65,0,4.8-2.148,4.8-4.801S46.112-63.981,43.461-63.981z M53.061-83.181v9.6h-9.6v-9.6H53.061z M72.261-83.181v9.6h-9.6v-9.6
			H72.261z M91.461-83.181v9.6h-9.6v-9.6H91.461z"/>
	</g>
	<g id="Bold-M" transform="matrix(1 0 0 1 2272.94 1126)">
		<path d="M52.79,2.82v9.499h-9.5V2.82H52.79z M71.79,2.82v9.499h-9.5V2.82H71.79z M90.79,2.82v9.499h-9.5V2.82H90.79z M90.79-68.43
			c5.246,0,9.5,4.253,9.5,9.5v47.5c0,5.247-4.254,9.5-9.5,9.5h-47.5c-5.247,0-9.5-4.253-9.5-9.5v-47.5c0-5.246,4.253-9.5,9.5-9.5
			H90.79z M90.79-16.182c-2.625,0-4.75,2.126-4.75,4.751s2.125,4.751,4.75,4.751c2.624,0,4.75-2.126,4.75-4.751
			S93.414-16.182,90.79-16.182z M29.04-20.93v9.499h-9.5v-9.499H29.04z M114.54-20.93v9.499h-9.5v-9.499H114.54z M29.04-39.931
			v9.501h-9.5v-9.501H29.04z M114.54-39.931v9.501h-9.5v-9.501H114.54z M29.04-58.931v9.5h-9.5v-9.5H29.04z M114.54-58.931v9.5h-9.5
			v-9.5H114.54z M43.29-63.681c-2.624,0-4.75,2.125-4.75,4.75s2.126,4.75,4.75,4.75c2.623,0,4.75-2.125,4.75-4.75
			S45.913-63.681,43.29-63.681z M52.79-82.681v9.5h-9.5v-9.5H52.79z M71.79-82.681v9.5h-9.5v-9.5H71.79z M90.79-82.681v9.5h-9.5
			v-9.5H90.79z"/>
	</g>
	<g id="Semibold-M" transform="matrix(1 0 0 1 1976.52 1126)">
		<path d="M52.726,2.221v9.349h-9.35V2.221H52.726z M71.426,2.221v9.349h-9.35V2.221H71.426z M90.126,2.221v9.349h-9.35V2.221
			H90.126z M90.126-67.905c5.164,0,9.35,4.187,9.35,9.35v46.75c0,5.165-4.186,9.35-9.35,9.35h-46.75c-5.164,0-9.35-4.185-9.35-9.35
			v-46.75c0-5.163,4.186-9.35,9.35-9.35H90.126z M90.126-16.481c-2.584,0-4.675,2.092-4.675,4.676s2.091,4.676,4.675,4.676
			c2.583,0,4.675-2.092,4.675-4.676S92.709-16.481,90.126-16.481z M29.351-21.154v9.349h-9.35v-9.349H29.351z M113.501-21.154v9.349
			h-9.35v-9.349H113.501z M29.351-39.856v9.352h-9.35v-9.352H29.351z M113.501-39.856v9.352h-9.35v-9.352H113.501z M29.351-58.556
			v9.35h-9.35v-9.35H29.351z M113.501-58.556v9.35h-9.35v-9.35H113.501z M43.376-63.231c-2.583,0-4.675,2.092-4.675,4.676
			c0,2.583,2.092,4.676,4.675,4.676c2.582,0,4.675-2.093,4.675-4.676C48.051-61.139,45.958-63.231,43.376-63.231z M52.726-81.931
			v9.35h-9.35v-9.35H52.726z M71.426-81.931v9.35h-9.35v-9.35H71.426z M90.126-81.931v9.35h-9.35v-9.35H90.126z"/>
	</g>
	<g id="Medium-M" transform="matrix(1 0 0 1 1680.03 1126)">
		<path d="M52.729,1.62v9.199h-9.2V1.62H52.729z M71.128,1.62v9.199h-9.199V1.62H71.128z M89.529,1.62v9.199h-9.2V1.62H89.529z
			 M89.529-67.38c5.081,0,9.2,4.12,9.2,9.2v46c0,5.082-4.119,9.2-9.2,9.2h-46c-5.081,0-9.2-4.118-9.2-9.2v-46
			c0-5.08,4.119-9.2,9.2-9.2H89.529z M89.529-16.781c-2.542,0-4.6,2.059-4.6,4.601s2.058,4.601,4.6,4.601
			c2.541,0,4.6-2.059,4.6-4.601S92.07-16.781,89.529-16.781z M29.729-21.38v9.199h-9.2v-9.199H29.729z M112.529-21.38v9.199h-9.2
			v-9.199H112.529z M29.729-39.781v9.201h-9.2v-9.201H29.729z M112.529-39.781v9.201h-9.2v-9.201H112.529z M29.729-58.181v9.199
			h-9.2v-9.199H29.729z M112.529-58.181v9.199h-9.2v-9.199H112.529z M43.529-62.781c-2.541,0-4.6,2.059-4.6,4.601
			s2.059,4.601,4.6,4.601c2.54,0,4.6-2.059,4.6-4.601S46.069-62.781,43.529-62.781z M52.729-81.181v9.199h-9.2v-9.199H52.729z
			 M71.128-81.181v9.199h-9.199v-9.199H71.128z M89.529-81.181v9.199h-9.2v-9.199H89.529z"/>
	</g>
	<g id="Regular-M" transform="matrix(1 0 0 1 1383.58 1126)">
		<path d="M52.727,0.82v8.999h-9V0.82H52.727z M70.728,0.82v8.999h-9V0.82H70.728z M88.728,0.82v8.999h-9V0.82H88.728z
			 M88.728-66.68c4.97,0,9,4.03,9,9v45c0,4.972-4.03,9-9,9h-45c-4.97,0-9-4.028-9-9v-45c0-4.97,4.029-9,9-9H88.728z M88.728-17.182
			c-2.487,0-4.5,2.014-4.5,4.501s2.013,4.501,4.5,4.501c2.486,0,4.5-2.014,4.5-4.501S91.214-17.182,88.728-17.182z M30.227-21.68
			v8.999h-9v-8.999H30.227z M111.228-21.68v8.999h-9v-8.999H111.228z M30.227-39.681v9.001h-9v-9.001H30.227z M111.228-39.681v9.001
			h-9v-9.001H111.228z M30.227-57.681v9h-9v-9H30.227z M111.228-57.681v9h-9v-9H111.228z M43.728-62.181c-2.485,0-4.5,2.014-4.5,4.5
			c0,2.486,2.015,4.5,4.5,4.5s4.5-2.014,4.5-4.5C48.228-60.167,46.213-62.181,43.728-62.181z M52.727-80.181v9h-9v-9H52.727z
			 M70.728-80.181v9h-9v-9H70.728z M88.728-80.181v9h-9v-9H88.728z"/>
	</g>
	<g id="Light-M" transform="matrix(1 0 0 1 1087.68 1126)">
		<path d="M52.256,0.021v8.799h-8.799V0.021H52.256z M69.857,0.021v8.799h-8.8V0.021H69.857z M87.457,0.021v8.799h-8.8V0.021H87.457
			z M87.457-65.98c4.859,0,8.799,3.94,8.799,8.799v44c0,4.86-3.94,8.8-8.799,8.8h-44c-4.86,0-8.8-3.939-8.8-8.8v-44
			c0-4.859,3.94-8.799,8.8-8.799H87.457z M87.457-17.582c-2.432,0-4.4,1.97-4.4,4.401s1.969,4.401,4.4,4.401
			c2.431,0,4.4-1.97,4.4-4.401S89.888-17.582,87.457-17.582z M30.256-21.979v8.799h-8.799v-8.799H30.256z M109.457-21.979v8.799
			h-8.8v-8.799H109.457z M30.256-39.581v8.801h-8.799v-8.801H30.256z M109.457-39.581v8.801h-8.8v-8.801H109.457z M30.256-57.181
			v8.8h-8.799v-8.8H30.256z M109.457-57.181v8.8h-8.8v-8.8H109.457z M43.457-61.581c-2.431,0-4.4,1.969-4.4,4.4
			c0,2.432,1.97,4.4,4.4,4.4c2.43,0,4.4-1.969,4.4-4.4C47.857-59.612,45.886-61.581,43.457-61.581z M52.256-79.181v8.8h-8.799v-8.8
			H52.256z M69.857-79.181v8.8h-8.8v-8.8H69.857z M87.457-79.181v8.8h-8.8v-8.8H87.457z"/>
	</g>
	<g id="Thin-M" transform="matrix(1 0 0 1 792.042 1126)">
		<path d="M51.479-0.779v8.599h-8.6v-8.599H51.479z M68.68-0.779v8.599h-8.601v-8.599H68.68z M85.879-0.779v8.599h-8.6v-8.599
			H85.879z M85.879-65.28c4.749,0,8.6,3.851,8.6,8.6v43c0,4.75-3.851,8.6-8.6,8.6h-43c-4.75,0-8.6-3.85-8.6-8.6v-43
			c0-4.749,3.85-8.6,8.6-8.6H85.879z M85.879-17.981c-2.376,0-4.3,1.924-4.3,4.301s1.924,4.301,4.3,4.301
			c2.376,0,4.3-1.924,4.3-4.301S88.255-17.981,85.879-17.981z M29.979-22.279v8.599h-8.6v-8.599H29.979z M107.379-22.279v8.599h-8.6
			v-8.599H107.379z M29.979-39.481v8.601h-8.6v-8.601H29.979z M107.379-39.481v8.601h-8.6v-8.601H107.379z M29.979-56.681v8.6h-8.6
			v-8.6H29.979z M107.379-56.681v8.6h-8.6v-8.6H107.379z M42.879-60.981c-2.375,0-4.3,1.924-4.3,4.3s1.925,4.301,4.3,4.301
			c2.375,0,4.3-1.925,4.3-4.301S45.254-60.981,42.879-60.981z M51.479-78.181v8.6h-8.6v-8.6H51.479z M68.68-78.181v8.6h-8.601v-8.6
			H68.68z M85.879-78.181v8.6h-8.6v-8.6H85.879z"/>
	</g>
	<g id="Ultralight-M" transform="matrix(1 0 0 1 495.893 1126)">
		<path d="M51.218-1.58v8.399h-8.399V-1.58H51.218z M68.018-1.58v8.399h-8.4V-1.58H68.018z M84.818-1.58v8.399h-8.399V-1.58H84.818z
			 M84.818-64.58c4.639,0,8.399,3.761,8.399,8.399v42c0,4.64-3.761,8.399-8.399,8.399h-42c-4.639,0-8.399-3.76-8.399-8.399v-42
			c0-4.639,3.76-8.399,8.399-8.399H84.818z M84.818-18.382c-2.321,0-4.201,1.88-4.201,4.201s1.879,4.201,4.201,4.201
			c2.321,0,4.2-1.88,4.2-4.201S87.139-18.382,84.818-18.382z M30.218-22.58v8.399h-8.399v-8.399H30.218z M105.818-22.58v8.399
			h-8.399v-8.399H105.818z M30.218-39.381v8.4h-8.399v-8.4H30.218z M105.818-39.381v8.4h-8.399v-8.4H105.818z M30.218-56.181v8.399
			h-8.399v-8.399H30.218z M105.818-56.181v8.399h-8.399v-8.399H105.818z M42.818-60.381c-2.32,0-4.201,1.879-4.201,4.2
			s1.881,4.2,4.201,4.2c2.319,0,4.2-1.879,4.2-4.2S45.138-60.381,42.818-60.381z M51.218-77.181v8.399h-8.399v-8.399H51.218z
			 M68.018-77.181v8.399h-8.4v-8.399H68.018z M84.818-77.181v8.399h-8.399v-8.399H84.818z"/>
	</g>
	<g id="Black-S" transform="matrix(1 0 0 1 2880.28 696)">
		<path d="M41.727-4.849v7.595h-7.595v-7.595H41.727z M56.916-4.849v7.595h-7.595v-7.595H56.916z M72.107-4.849v7.595h-7.595v-7.595
			H72.107z M72.107-61.812c4.194,0,7.596,3.4,7.596,7.594v37.976c0,4.196-3.401,7.595-7.596,7.595H34.132
			c-4.194,0-7.596-3.399-7.596-7.595v-37.976c0-4.194,3.401-7.594,7.596-7.594H72.107z M72.107-20.04
			c-2.099,0-3.798,1.699-3.798,3.798s1.699,3.798,3.798,3.798s3.798-1.699,3.798-3.798S74.205-20.04,72.107-20.04z M22.74-23.836
			v7.595h-7.596v-7.595H22.74z M91.095-23.836v7.595h-7.596v-7.595H91.095z M22.74-39.027v7.596h-7.596v-7.596H22.74z
			 M91.095-39.027v7.596h-7.596v-7.596H91.095z M22.74-54.217v7.595h-7.596v-7.595H22.74z M91.095-54.217v7.595h-7.596v-7.595
			H91.095z M34.132-58.015c-2.099,0-3.799,1.699-3.799,3.798c0,2.098,1.7,3.798,3.799,3.798c2.097,0,3.797-1.7,3.797-3.798
			C37.929-56.316,36.229-58.015,34.132-58.015z M41.727-73.205v7.595h-7.595v-7.595H41.727z M56.916-73.205v7.595h-7.595v-7.595
			H56.916z M72.107-73.205v7.595h-7.595v-7.595H72.107z"/>
	</g>
	<g id="Heavy-S" transform="matrix(1 0 0 1 2583.76 696)">
		<path d="M41.656-5.161v7.516h-7.517v-7.516H41.656z M56.689-5.161v7.516h-7.516v-7.516H56.689z M71.723-5.161v7.516h-7.517v-7.516
			H71.723z M71.723-61.538c4.151,0,7.517,3.366,7.517,7.517v37.584c0,4.152-3.365,7.517-7.517,7.517H34.139
			c-4.151,0-7.517-3.365-7.517-7.517v-37.584c0-4.151,3.365-7.517,7.517-7.517H71.723z M71.723-20.196
			c-2.077,0-3.759,1.681-3.759,3.759s1.682,3.759,3.759,3.759s3.759-1.681,3.759-3.759S73.801-20.196,71.723-20.196z M22.864-23.953
			v7.516h-7.517v-7.516H22.864z M90.515-23.953v7.516h-7.517v-7.516H90.515z M22.864-38.988v7.518h-7.517v-7.518H22.864z
			 M90.515-38.988v7.518h-7.517v-7.518H90.515z M22.864-54.021v7.517h-7.517v-7.517H22.864z M90.515-54.021v7.517h-7.517v-7.517
			H90.515z M34.139-57.78c-2.077,0-3.759,1.682-3.759,3.759s1.682,3.759,3.759,3.759c2.075,0,3.759-1.682,3.759-3.759
			S36.215-57.78,34.139-57.78z M41.656-72.813v7.517h-7.517v-7.517H41.656z M56.689-72.813v7.517h-7.516v-7.517H56.689z
			 M71.723-72.813v7.517h-7.517v-7.517H71.723z"/>
	</g>
	<g id="Bold-S" transform="matrix(1 0 0 1 2287.27 696)">
		<path d="M41.552-5.475v7.438h-7.439v-7.438H41.552z M56.429-5.475v7.438H48.99v-7.438H56.429z M71.306-5.475v7.438h-7.439v-7.438
			H71.306z M71.306-61.264c4.107,0,7.438,3.33,7.438,7.438v37.192c0,4.108-3.33,7.438-7.438,7.438H34.113
			c-4.107,0-7.438-3.33-7.438-7.438v-37.192c0-4.108,3.33-7.438,7.438-7.438H71.306z M71.306-20.354c-2.056,0-3.72,1.665-3.72,3.72
			s1.664,3.72,3.72,3.72c2.055,0,3.719-1.665,3.719-3.72S73.361-20.354,71.306-20.354z M22.956-24.071v7.438h-7.438v-7.438H22.956z
			 M89.902-24.071v7.438h-7.438v-7.438H89.902z M22.956-38.949v7.439h-7.438v-7.439H22.956z M89.902-38.949v7.439h-7.438v-7.439
			H89.902z M22.956-53.826v7.438h-7.438v-7.438H22.956z M89.902-53.826v7.438h-7.438v-7.438H89.902z M34.113-57.545
			c-2.055,0-3.719,1.665-3.719,3.72s1.664,3.72,3.719,3.72s3.72-1.665,3.72-3.72S36.167-57.545,34.113-57.545z M41.552-72.422v7.438
			h-7.439v-7.438H41.552z M56.429-72.422v7.438H48.99v-7.438H56.429z M71.306-72.422v7.438h-7.439v-7.438H71.306z"/>
	</g>
	<g id="Semibold-S" transform="matrix(1 0 0 1 1990.7 696)">
		<path d="M41.589-5.944v7.32h-7.32v-7.32H41.589z M56.232-5.944v7.32h-7.32v-7.32H56.232z M70.874-5.944v7.32h-7.32v-7.32H70.874z
			 M70.874-60.853c4.043,0,7.32,3.278,7.32,7.321v36.605c0,4.044-3.277,7.321-7.32,7.321H34.269c-4.043,0-7.32-3.277-7.32-7.321
			v-36.605c0-4.042,3.277-7.321,7.32-7.321H70.874z M70.874-20.588c-2.023,0-3.66,1.638-3.66,3.661c0,2.023,1.637,3.661,3.66,3.661
			c2.022,0,3.66-1.638,3.66-3.661C74.534-18.95,72.897-20.588,70.874-20.588z M23.287-24.247v7.32h-7.321v-7.32H23.287z
			 M89.177-24.247v7.32h-7.321v-7.32H89.177z M23.287-38.891v7.322h-7.321v-7.322H23.287z M89.177-38.891v7.322h-7.321v-7.322
			H89.177z M23.287-53.532v7.321h-7.321v-7.321H23.287z M89.177-53.532v7.321h-7.321v-7.321H89.177z M34.269-57.193
			c-2.022,0-3.66,1.638-3.66,3.661c0,2.022,1.638,3.661,3.66,3.661c2.021,0,3.66-1.639,3.66-3.661
			C37.929-55.555,36.29-57.193,34.269-57.193z M41.589-71.835v7.321h-7.32v-7.321H41.589z M56.232-71.835v7.321h-7.32v-7.321H56.232
			z M70.874-71.835v7.321h-7.32v-7.321H70.874z"/>
	</g>
	<g id="Medium-S" transform="matrix(1 0 0 1 1694.09 696)">
		<path d="M41.664-6.415v7.203H34.46v-7.203H41.664z M56.07-6.415v7.203h-7.203v-7.203H56.07z M70.477-6.415v7.203h-7.203v-7.203
			H70.477z M70.477-60.442c3.979,0,7.204,3.226,7.204,7.204v36.018c0,3.979-3.226,7.204-7.204,7.204H34.46
			c-3.979,0-7.204-3.225-7.204-7.204v-36.018c0-3.978,3.226-7.204,7.204-7.204H70.477z M70.477-20.823
			c-1.99,0-3.602,1.612-3.602,3.602c0,1.991,1.611,3.603,3.602,3.603s3.602-1.612,3.602-3.603
			C74.079-19.211,72.468-20.823,70.477-20.823z M23.654-24.423v7.203h-7.203v-7.203H23.654z M88.486-24.423v7.203h-7.203v-7.203
			H88.486z M23.654-38.832v7.205h-7.203v-7.205H23.654z M88.486-38.832v7.205h-7.203v-7.205H88.486z M23.654-53.238v7.203h-7.203
			v-7.203H23.654z M88.486-53.238v7.203h-7.203v-7.203H88.486z M34.46-56.841c-1.989,0-3.602,1.612-3.602,3.603
			c0,1.99,1.612,3.602,3.602,3.602c1.988,0,3.602-1.612,3.602-3.602C38.061-55.229,36.448-56.841,34.46-56.841z M41.664-71.248
			v7.203H34.46v-7.203H41.664z M56.07-71.248v7.203h-7.203v-7.203H56.07z M70.477-71.248v7.203h-7.203v-7.203H70.477z"/>
	</g>
	<g id="Regular-S" transform="matrix(1 0 0 1 1397.53 696)">
		<path d="M41.707-7.041v7.046H34.66v-7.046H41.707z M55.801-7.041v7.046h-7.047v-7.046H55.801z M69.895-7.041v7.046h-7.047v-7.046
			H69.895z M69.895-59.894c3.891,0,7.046,3.155,7.046,7.046v35.235c0,3.893-3.155,7.047-7.046,7.047H34.66
			c-3.892,0-7.047-3.154-7.047-7.047v-35.235c0-3.891,3.155-7.046,7.047-7.046H69.895z M69.895-21.136
			c-1.948,0-3.524,1.577-3.524,3.524c0,1.947,1.576,3.524,3.524,3.524c1.947,0,3.523-1.577,3.523-3.524
			C73.419-19.56,71.842-21.136,69.895-21.136z M24.089-24.658v7.046h-7.046v-7.046H24.089z M87.512-24.658v7.046h-7.046v-7.046
			H87.512z M24.089-38.753v7.048h-7.046v-7.048H24.089z M87.512-38.753v7.048h-7.046v-7.048H87.512z M24.089-52.847v7.047h-7.046
			v-7.047H24.089z M87.512-52.847v7.047h-7.046v-7.047H87.512z M34.66-56.371c-1.946,0-3.524,1.577-3.524,3.524
			s1.578,3.524,3.524,3.524c1.946,0,3.523-1.577,3.523-3.524S36.606-56.371,34.66-56.371z M41.707-70.464v7.046H34.66v-7.046H41.707
			z M55.801-70.464v7.046h-7.047v-7.046H55.801z M69.895-70.464v7.046h-7.047v-7.046H69.895z"/>
	</g>
	<g id="Light-S" transform="matrix(1 0 0 1 1101.55 696)">
		<path d="M41.251-7.667v6.89h-6.89v-6.89H41.251z M55.032-7.667v6.89h-6.891v-6.89H55.032z M68.813-7.667v6.89h-6.89v-6.89H68.813z
			 M68.813-59.345c3.805,0,6.89,3.085,6.89,6.89v34.452c0,3.806-3.085,6.89-6.89,6.89H34.361c-3.805,0-6.89-3.084-6.89-6.89v-34.452
			c0-3.805,3.085-6.89,6.89-6.89H68.813z M68.813-21.45c-1.904,0-3.446,1.542-3.446,3.446s1.542,3.446,3.446,3.446
			s3.445-1.542,3.445-3.446S70.717-21.45,68.813-21.45z M24.025-24.893v6.89h-6.89v-6.89H24.025z M86.039-24.893v6.89h-6.891v-6.89
			H86.039z M24.025-38.675v6.891h-6.89v-6.891H24.025z M86.039-38.675v6.891h-6.891v-6.891H86.039z M24.025-52.456v6.89h-6.89v-6.89
			H24.025z M86.039-52.456v6.89h-6.891v-6.89H86.039z M34.361-55.901c-1.903,0-3.445,1.542-3.445,3.445
			c0,1.904,1.542,3.446,3.445,3.446c1.902,0,3.445-1.542,3.445-3.446C37.806-54.359,36.263-55.901,34.361-55.901z M41.251-69.682
			v6.891h-6.89v-6.891H41.251z M55.032-69.682v6.891h-6.891v-6.891H55.032z M68.813-69.682v6.891h-6.89v-6.891H68.813z"/>
	</g>
	<g id="Thin-S" transform="matrix(1 0 0 1 805.763 696)">
		<path d="M40.557-8.293v6.732h-6.733v-6.732H40.557z M54.026-8.293v6.732h-6.734v-6.732H54.026z M67.493-8.293v6.732h-6.733v-6.732
			H67.493z M67.493-58.797c3.719,0,6.733,3.015,6.733,6.733v33.669c0,3.719-3.015,6.733-6.733,6.733H33.824
			c-3.719,0-6.733-3.014-6.733-6.733v-33.669c0-3.718,3.015-6.733,6.733-6.733H67.493z M67.493-21.763
			c-1.861,0-3.367,1.506-3.367,3.368s1.506,3.368,3.367,3.368c1.86,0,3.367-1.506,3.367-3.368S69.353-21.763,67.493-21.763z
			 M23.723-25.128v6.733h-6.733v-6.733H23.723z M84.327-25.128v6.733h-6.733v-6.733H84.327z M23.723-38.597v6.735h-6.733v-6.735
			H23.723z M84.327-38.597v6.735h-6.733v-6.735H84.327z M23.723-52.064v6.733h-6.733v-6.733H23.723z M84.327-52.064v6.733h-6.733
			v-6.733H84.327z M33.824-55.431c-1.86,0-3.367,1.507-3.367,3.367s1.507,3.368,3.367,3.368c1.859,0,3.367-1.507,3.367-3.368
			S35.683-55.431,33.824-55.431z M40.557-68.898v6.733h-6.733v-6.733H40.557z M54.026-68.898v6.733h-6.734v-6.733H54.026z
			 M67.493-68.898v6.733h-6.733v-6.733H67.493z"/>
	</g>
	<g id="Ultralight-S" transform="matrix(1 0 0 1 509.54 696)">
		<path d="M40.305-8.92v6.577h-6.577V-8.92H40.305z M53.46-8.92v6.577h-6.578V-8.92H53.46z M66.614-8.92v6.577h-6.577V-8.92H66.614z
			 M66.614-58.249c3.632,0,6.577,2.944,6.577,6.577v32.886c0,3.633-2.944,6.577-6.577,6.577H33.729
			c-3.633,0-6.577-2.944-6.577-6.577v-32.886c0-3.632,2.944-6.577,6.577-6.577H66.614z M66.614-22.076
			c-1.817,0-3.289,1.472-3.289,3.29c0,1.818,1.472,3.29,3.289,3.29s3.289-1.472,3.289-3.29
			C69.903-20.604,68.432-22.076,66.614-22.076z M23.862-25.363v6.577h-6.577v-6.577H23.862z M83.058-25.363v6.577H76.48v-6.577
			H83.058z M23.862-38.518v6.577h-6.577v-6.577H23.862z M83.058-38.518v6.577H76.48v-6.577H83.058z M23.862-51.672v6.577h-6.577
			v-6.577H23.862z M83.058-51.672v6.577H76.48v-6.577H83.058z M33.729-54.961c-1.816,0-3.289,1.472-3.289,3.289
			c0,1.817,1.473,3.289,3.289,3.289c1.816,0,3.288-1.472,3.288-3.289C37.017-53.49,35.544-54.961,33.729-54.961z M40.305-68.115
			v6.577h-6.577v-6.577H40.305z M53.46-68.115v6.577h-6.578v-6.577H53.46z M66.614-68.115v6.577h-6.577v-6.577H66.614z"/>
	</g>
</g>
</svg>
