<?xml version="1.0" encoding="utf-8"?>
<!-- Generator: Adobe Illustrator 16.0.0, SVG Export Plug-In . SVG Version: 6.00 Build 0)  -->
<!DOCTYPE svg PUBLIC "-//W3C//DTD SVG 1.1//EN" "http://www.w3.org/Graphics/SVG/1.1/DTD/svg11.dtd">
<svg version="1.1" id="Layer_1" xmlns="http://www.w3.org/2000/svg" xmlns:xlink="http://www.w3.org/1999/xlink" x="0px" y="0px"
	 width="3300px" height="2200px" viewBox="0 0 3300 2200" enable-background="new 0 0 3300 2200" xml:space="preserve">
<g id="Notes">
	<rect id="artboard" fill="#FFFFFF" width="3300" height="2200"/>
	<line fill="none" stroke="#000000" stroke-width="0.5" x1="263" y1="292" x2="3036" y2="292"/>
	<text transform="matrix(1 0 0 1 263 322)" font-family="'Arial-BoldMT'" font-size="12">Weight/Scale Variations</text>
	<text transform="matrix(1 0 0 1 536.0361 322)" font-family="'ArialMT'" font-size="12">Ultralight</text>
	<text transform="matrix(1 0 0 1 844.75 322)" font-family="'ArialMT'" font-size="12">Thin</text>
	<text transform="matrix(1 0 0 1 1140.1191 322)" font-family="'ArialMT'" font-size="12">Light</text>
	<text transform="matrix(1 0 0 1 1428.8281 322)" font-family="'ArialMT'" font-size="12">Regular</text>
	<text transform="matrix(1 0 0 1 1725.2207 322)" font-family="'ArialMT'" font-size="12">Medium</text>
	<text transform="matrix(1 0 0 1 2018.2559 322)" font-family="'ArialMT'" font-size="12">Semibold</text>
	<text transform="matrix(1 0 0 1 2327.9707 322)" font-family="'ArialMT'" font-size="12">Bold</text>
	<text transform="matrix(1 0 0 1 2619.6836 322)" font-family="'ArialMT'" font-size="12">Heavy</text>
	<text transform="matrix(1 0 0 1 2918.7285 322)" font-family="'ArialMT'" font-size="12">Black</text>
	<line fill="none" stroke="#000000" stroke-width="0.5" x1="263" y1="1903" x2="3036" y2="1903"/>
	<g transform="matrix(1 0 0 1 263 1933)">
		<path d="M9.248,0.83c4.307,0,7.891-3.574,7.891-7.881c0-4.309-3.594-7.881-7.9-7.881c-4.297,0-7.871,3.572-7.871,7.881
			C1.368-2.744,4.951,0.83,9.248,0.83z M9.248-0.654c-3.545,0-6.377-2.842-6.377-6.396s2.822-6.396,6.367-6.396
			c3.555,0,6.396,2.843,6.406,6.396C15.654-3.496,12.803-0.654,9.248-0.654z M6.396-6.318h2.109v2.119
			c0,0.439,0.293,0.742,0.723,0.742c0.449,0,0.742-0.303,0.742-0.742v-2.119h2.13c0.439,0,0.742-0.293,0.742-0.723
			c0-0.439-0.303-0.742-0.742-0.742H9.971v-2.107c0-0.449-0.293-0.754-0.742-0.754c-0.43,0-0.723,0.305-0.723,0.754v2.107h-2.11
			c-0.449,0-0.752,0.303-0.752,0.742C5.645-6.611,5.947-6.318,6.396-6.318z"/>
	</g>
	<g transform="matrix(1 0 0 1 281.506 1933)">
		<path d="M11.709,2.91c5.449,0,9.961-4.521,9.961-9.961c0-5.449-4.521-9.961-9.971-9.961c-5.439,0-9.951,4.512-9.951,9.961
			C1.748-1.611,6.269,2.91,11.709,2.91z M11.709,1.25c-4.609,0-8.291-3.691-8.291-8.301c0-4.61,3.672-8.301,8.281-8.301
			S20-11.66,20.01-7.051C20.02-2.442,16.318,1.25,11.709,1.25z M7.988-6.23h2.891v2.91c0,0.488,0.332,0.82,0.811,0.82
			c0.488,0,0.83-0.332,0.83-0.82v-2.91h2.91c0.488,0,0.82-0.332,0.82-0.811c0-0.488-0.332-0.83-0.82-0.83h-2.91v-2.891
			c0-0.508-0.342-0.84-0.83-0.84c-0.479,0-0.811,0.342-0.811,0.84v2.891H7.988c-0.508,0-0.84,0.342-0.84,0.83
			C7.148-6.563,7.49-6.23,7.988-6.23z"/>
	</g>
	<g transform="matrix(1 0 0 1 304.924 1933)">
		<path d="M14.97,5.664c6.963,0,12.725-5.762,12.725-12.715c0-6.963-5.771-12.727-12.734-12.727
			c-6.953,0-12.705,5.764-12.705,12.727C2.256-0.097,8.017,5.664,14.97,5.664z M14.97,3.848C8.935,3.848,4.081-1.015,4.081-7.05
			c0-6.045,4.844-10.898,10.879-10.898c6.045,0,10.898,4.854,10.908,10.898C25.879-1.015,21.015,3.848,14.97,3.848z M10.058-6.142
			h4.004v4.014c0,0.537,0.371,0.908,0.889,0.908c0.537,0,0.908-0.371,0.908-0.908v-4.014h4.023c0.527,0,0.908-0.371,0.908-0.891
			c0-0.537-0.371-0.918-0.908-0.918h-4.023v-4.004c0-0.557-0.371-0.928-0.908-0.928c-0.518,0-0.889,0.381-0.889,0.928v4.004h-4.004
			c-0.557,0-0.928,0.381-0.928,0.918C9.131-6.513,9.511-6.142,10.058-6.142z"/>
	</g>
	<text transform="matrix(1 0 0 1 263 1953)" font-family="'Arial-BoldMT'" font-size="12">Design Variations</text>
	<text transform="matrix(1 0 0 1 263 1971)" font-family="'ArialMT'" font-size="12">Symbols are supported in up to nine weights and three scales.</text>
	<text transform="matrix(1 0 0 1 263 1989)" font-family="'ArialMT'" font-size="12">For optimal layout with text and other symbols, vertically align</text>
	<text transform="matrix(1 0 0 1 263 2007)" font-family="'ArialMT'" font-size="12">symbols with the adjacent text.</text>
	<line fill="none" stroke="#00AEEF" stroke-width="0.5" x1="776" y1="1919" x2="776" y2="1933"/>
	<g transform="matrix(1 0 0 1 776 1933)">
		<path d="M3.311,0.127c0.52,0,0.771-0.195,0.957-0.732l1.262-3.457h5.762l1.26,3.457c0.188,0.537,0.439,0.732,0.947,0.732
			c0.518,0,0.85-0.313,0.85-0.801c0-0.166-0.027-0.313-0.105-0.527L9.66-13.389c-0.227-0.605-0.625-0.898-1.25-0.898
			c-0.605,0-1.018,0.293-1.23,0.889L2.598-1.191C2.52-0.976,2.49-0.83,2.49-0.664C2.49-0.176,2.803,0.127,3.311,0.127z M6.006-5.537
			l2.373-6.572h0.049l2.373,6.572H6.006z"/>
	</g>
	<line fill="none" stroke="#00AEEF" stroke-width="0.5" x1="792.836" y1="1919" x2="792.836" y2="1933"/>
	<text transform="matrix(1 0 0 1 776 1953)" font-family="'Arial-BoldMT'" font-size="12">Margins</text>
	<text transform="matrix(1 0 0 1 776 1971)" font-family="'ArialMT'" font-size="12">Leading and trailing margins on the left and right side of each symbol</text>
	<text transform="matrix(1 0 0 1 776 1989)" font-family="'ArialMT'" font-size="12">can be adjusted by modifying the x-location of the margin guidelines.</text>
	<text transform="matrix(1 0 0 1 776 2007)" font-family="'ArialMT'" font-size="12">Modifications are automatically applied proportionally to all</text>
	<text transform="matrix(1 0 0 1 776 2025)" font-family="'ArialMT'" font-size="12">scales and weights.</text>
	<g transform="matrix(1 0 0 1 1289 1933)">
		<path d="M2.842,1.865l1.699,1.709C5.4,4.444,6.387,4.385,7.314,3.36L17.49-7.851c0.264,0.088,0.537,0.066,0.85,0.01l1.064-0.195
			l0.664,0.674l-0.039,0.559c-0.039,0.498,0.088,0.879,0.576,1.355l0.762,0.742c0.479,0.479,1.094,0.508,1.563,0.039l2.91-2.92
			c0.469-0.469,0.449-1.064-0.029-1.543L25.04-9.892c-0.479-0.479-0.851-0.637-1.328-0.598l-0.576,0.05l-0.645-0.636l0.244-1.123
			c0.127-0.564-0.029-1.006-0.615-1.592l-2.197-2.188c-3.34-3.319-7.771-3.241-10.664-0.353c-0.42,0.41-0.448,0.986-0.215,1.377
			c0.234,0.361,0.693,0.597,1.338,0.431c1.465-0.343,2.988-0.399,4.414,0.536L14.21-12.53c-0.195,0.479-0.225,0.879-0.098,1.24
			L3.047-0.898C2.061,0.02,1.982,0.996,2.842,1.865z M10.752-15.957c2.432-1.777,5.723-1.475,7.949,0.752l2.432,2.412
			c0.234,0.234,0.273,0.42,0.205,0.762l-0.322,1.484l1.504,1.484l0.986-0.061c0.254-0.01,0.332,0.01,0.527,0.205l0.576,0.576
			L22.168-5.9l-0.576-0.574c-0.195-0.195-0.225-0.273-0.215-0.537l0.068-0.979l-1.494-1.482L18.428-9.22
			c-0.322,0.066-0.469,0.039-0.713-0.195l-2.002-2.002c-0.254-0.234-0.283-0.4-0.127-0.771l0.879-2.092
			c-1.563-1.455-3.594-2.08-5.625-1.482C10.684-15.722,10.625-15.849,10.752-15.957z M5.273,2.305L4.102,1.143
			C3.633,0.684,3.74,0.342,4.141-0.02l10.813-10.177l1.465,1.484L6.426,2.276C6.074,2.676,5.742,2.774,5.273,2.305z"/>
	</g>
	<text transform="matrix(1 0 0 1 1289 1953)" font-family="'Arial-BoldMT'" font-size="12">Exporting</text>
	<text transform="matrix(1 0 0 1 1289 1971)" font-family="'ArialMT'" font-size="12">Symbols should be outlined when exporting to ensure the</text>
	<text transform="matrix(1 0 0 1 1289 1989)" font-family="'ArialMT'" font-size="12">design is preserved when submitting to Xcode.</text>
	<text id="template-version" transform="matrix(1 0 0 1 2958.8496 1933)" font-family="'ArialMT'" font-size="12">Template v.2.0</text>
	<text transform="matrix(1 0 0 1 2878.5762 1951)" font-family="'ArialMT'" font-size="12">Requires Xcode 12 or greater</text>
	<text transform="matrix(1 0 0 1 2877.9199 1969)" font-family="'ArialMT'" font-size="12">Generated from equipment.fill</text>
	<text transform="matrix(1 0 0 1 2921.9238 1987)" font-family="'ArialMT'" font-size="12">Typeset at 100 points</text>
	<text transform="matrix(1 0 0 1 263 726)" font-family="'ArialMT'" font-size="12">Small</text>
	<text transform="matrix(1 0 0 1 263 1156)" font-family="'ArialMT'" font-size="12">Medium</text>
	<text transform="matrix(1 0 0 1 263 1586)" font-family="'ArialMT'" font-size="12">Large</text>
</g>
<g id="Guides">
	<g id="H-reference" transform="matrix(1 0 0 1 339 696)">
		<path fill="#27AAE1" d="M0.977,0h2.686l9.326-24.463h32.764L55.127,0h2.637L30.615-70.459h-2.49L0.977,0z M29.346-67.139h0.098
			l15.43,40.431H13.867L29.346-67.139z"/>
	</g>
	<line id="Baseline-S" fill="none" stroke="#27AAE1" stroke-width="0.5" x1="263" y1="696" x2="3036" y2="696"/>
	<line id="Capline-S" fill="none" stroke="#27AAE1" stroke-width="0.5" x1="263" y1="625.541" x2="3036" y2="625.541"/>
	<g id="H-reference_1_" transform="matrix(1 0 0 1 339 1126)">
		<path fill="#27AAE1" d="M0.977,0h2.686l9.326-24.463h32.764L55.127,0h2.637L30.615-70.459h-2.49L0.977,0z M29.346-67.138h0.098
			l15.43,40.43H13.867L29.346-67.138z"/>
	</g>
	<line id="Baseline-M" fill="none" stroke="#27AAE1" stroke-width="0.5" x1="263" y1="1126" x2="3036" y2="1126"/>
	<line id="Capline-M" fill="none" stroke="#27AAE1" stroke-width="0.5" x1="263" y1="1055.539" x2="3036" y2="1055.539"/>
	<g id="H-reference_2_" transform="matrix(1 0 0 1 339 1556)">
		<path fill="#27AAE1" d="M0.977,0h2.686l9.326-24.463h32.764L55.127,0h2.637L30.615-70.459h-2.49L0.977,0z M29.346-67.138h0.098
			l15.43,40.43H13.867L29.346-67.138z"/>
	</g>
	<line id="Baseline-L" fill="none" stroke="#27AAE1" stroke-width="0.5" x1="263" y1="1556" x2="3036" y2="1556"/>
	<line id="Capline-L" fill="none" stroke="#27AAE1" stroke-width="0.5" x1="263" y1="1485.539" x2="3036" y2="1485.539"/>
	<line id="left-margin" fill="none" stroke="#00AEEF" stroke-width="0.5" x1="1383.58" y1="1030.789" x2="1383.58" y2="1150.119"/>
	<line id="right-margin" fill="none" stroke="#00AEEF" stroke-width="0.5" x1="1516.1" y1="1030.789" x2="1516.1" y2="1150.119"/>
</g>
<g id="Symbols">
	<g id="Black-L" transform="matrix(1 0 0 1 2846.24 1556)">
		<path d="M149.652-28.478H24.667c-8.55,0-15.479,6.932-15.479,15.48v32.686c0,8.549,6.93,15.48,15.479,15.48h124.984
			c8.55,0,15.479-6.932,15.479-15.48v-32.686C165.131-21.546,158.201-28.478,149.652-28.478z M149.652,19.688H24.667v-32.686
			h124.984V19.688z M48.902,11.064H33.473V-4.363h15.429V11.064z M72.043,11.064H56.616V-4.363h15.427V11.064z M95.186,11.064
			H79.758V-4.363h15.428V11.064z M149.652-105.626H24.667c-8.55,0-15.479,6.932-15.479,15.48v32.688
			c0,8.549,6.93,15.479,15.479,15.479h124.984c8.55,0,15.479-6.931,15.479-15.479v-32.688
			C165.131-98.694,158.201-105.626,149.652-105.626z M149.652-57.458H24.667v-32.688h124.984V-57.458z M48.902-66.085H33.473
			v-15.428h15.429V-66.085z M72.043-66.085H56.616v-15.428h15.427V-66.085z M95.186-66.085H79.758v-15.428h15.428V-66.085z"/>
	</g>
	<g id="Heavy-L" transform="matrix(1 0 0 1 2550.07 1556)">
		<path d="M149.109-27.188H24.124c-7.837,0-14.19,6.354-14.19,14.19v32.686c0,7.837,6.354,14.19,14.19,14.19h124.984
			c7.837,0,14.19-6.354,14.19-14.19v-32.686C163.299-20.834,156.946-27.188,149.109-27.188z M149.109,19.688H24.124v-32.686h124.984
			V19.688z M48.359,11.064H32.93V-4.363h15.429V11.064z M71.5,11.064H56.073V-4.363H71.5V11.064z M94.643,11.064H79.215V-4.363
			h15.428V11.064z M149.109-104.336H24.124c-7.837,0-14.19,6.354-14.19,14.19v32.688c0,7.837,6.354,14.189,14.19,14.189h124.984
			c7.837,0,14.19-6.353,14.19-14.189v-32.688C163.299-97.982,156.946-104.336,149.109-104.336z M149.109-57.458H24.124v-32.688
			h124.984V-57.458z M48.359-66.085H32.93v-15.428h15.429V-66.085z M71.5-66.085H56.073v-15.428H71.5V-66.085z M94.643-66.085
			H79.215v-15.428h15.428V-66.085z"/>
	</g>
	<g id="Bold-L" transform="matrix(1 0 0 1 2253.97 1556)">
		<path d="M148.501-25.897H23.516c-7.124,0-12.9,5.777-12.9,12.9v32.686c0,7.124,5.776,12.9,12.9,12.9h124.984
			c7.123,0,12.9-5.776,12.9-12.9v-32.686C161.401-20.121,155.624-25.897,148.501-25.897z M148.501,19.688H23.516v-32.686h124.984
			V19.688z M47.751,11.064H32.322V-4.363h15.429V11.064z M70.892,11.064H55.464V-4.363h15.429V11.064z M94.034,11.064H78.607V-4.363
			h15.427V11.064z M148.501-103.046H23.516c-7.124,0-12.9,5.775-12.9,12.9v32.688c0,7.125,5.776,12.899,12.9,12.899h124.984
			c7.123,0,12.9-5.774,12.9-12.899v-32.688C161.401-97.271,155.624-103.046,148.501-103.046z M148.501-57.458H23.516v-32.688
			h124.984V-57.458z M47.751-66.085H32.322v-15.428h15.429V-66.085z M70.892-66.085H55.464v-15.428h15.429V-66.085z M94.034-66.085
			H78.607v-15.428h15.427V-66.085z"/>
	</g>
	<g id="Semibold-L" transform="matrix(1 0 0 1 1957.7 1556)">
		<path d="M148.056-24.607H23.072c-6.414,0-11.61,5.198-11.61,11.61v32.686c0,6.414,5.196,11.61,11.61,11.61h124.984
			c6.412,0,11.61-5.196,11.61-11.61v-32.686C159.666-19.409,154.468-24.607,148.056-24.607z M148.056,19.688H23.072v-32.686h124.984
			V19.688z M47.304,11.064H31.877V-4.363h15.427V11.064z M70.448,11.064H55.019V-4.363h15.429V11.064z M93.589,11.064H78.162V-4.363
			h15.427V11.064z M148.056-101.756H23.072c-6.414,0-11.61,5.198-11.61,11.61v32.687c0,6.413,5.196,11.61,11.61,11.61h124.984
			c6.412,0,11.61-5.197,11.61-11.61v-32.687C159.666-96.558,154.468-101.756,148.056-101.756z M148.056-57.459H23.072v-32.687
			h124.984V-57.459z M47.304-66.085H31.877v-15.428h15.427V-66.085z M70.448-66.085H55.019v-15.428h15.429V-66.085z M93.589-66.085
			H78.162v-15.428h15.427V-66.085z"/>
	</g>
	<g id="Medium-L" transform="matrix(1 0 0 1 1661.3 1556)">
		<path d="M147.751-23.317H22.766c-5.699,0-10.32,4.621-10.32,10.32v32.686c0,5.699,4.621,10.32,10.32,10.32h124.984
			c5.699,0,10.32-4.621,10.32-10.32v-32.686C158.071-18.696,153.45-23.317,147.751-23.317z M147.751,19.688H22.766v-32.686h124.984
			V19.688z M47.001,11.064H31.572V-4.363h15.429V11.064z M70.142,11.064H54.714V-4.363h15.429V11.064z M93.285,11.064H77.857V-4.363
			h15.428V11.064z M147.751-100.466H22.766c-5.699,0-10.32,4.621-10.32,10.32v32.688c0,5.699,4.621,10.319,10.32,10.319h124.984
			c5.699,0,10.32-4.62,10.32-10.319v-32.688C158.071-95.845,153.45-100.466,147.751-100.466z M147.751-57.458H22.766v-32.688
			h124.984V-57.458z M47.001-66.085H31.572v-15.428h15.429V-66.085z M70.142-66.085H54.714v-15.428h15.429V-66.085z M93.285-66.085
			H77.857v-15.428h15.428V-66.085z"/>
	</g>
	<g id="Regular-L" transform="matrix(1 0 0 1 1365.01 1556)">
		<path d="M147.29-22.027H22.305c-4.987,0-9.03,4.044-9.03,9.03v32.686c0,4.987,4.043,9.03,9.03,9.03H147.29
			c4.987,0,9.03-4.043,9.03-9.03v-32.686C156.32-17.983,152.277-22.027,147.29-22.027z M147.29,19.688H22.305v-32.686H147.29V19.688
			z M46.54,11.064H31.11V-4.363h15.43V11.064z M69.681,11.064H54.253V-4.363h15.428V11.064z M92.823,11.064H77.396V-4.363h15.427
			V11.064z M147.29-99.176H22.305c-4.987,0-9.03,4.043-9.03,9.03v32.688c0,4.987,4.043,9.029,9.03,9.029H147.29
			c4.987,0,9.03-4.042,9.03-9.029v-32.688C156.32-95.133,152.277-99.176,147.29-99.176z M147.29-57.458H22.305v-32.688H147.29
			V-57.458z M46.54-66.085H31.11v-15.428h15.43V-66.085z M69.681-66.085H54.253v-15.428h15.428V-66.085z M92.823-66.085H77.396
			v-15.428h15.427V-66.085z"/>
	</g>
	<g id="Light-L" transform="matrix(1 0 0 1 1069.2 1556)">
		<path d="M146.429-20.737H21.445c-4.274,0-7.74,3.467-7.74,7.74v32.686c0,4.274,3.466,7.74,7.74,7.74h124.984
			c4.273,0,7.74-3.466,7.74-7.74v-32.686C154.169-17.271,150.705-20.737,146.429-20.737z M146.429,19.688H21.445v-32.686h124.984
			V19.688z M45.677,11.064H30.25V-4.363h15.427V11.064z M68.821,11.064H53.392V-4.363h15.428V11.064z M91.963,11.064H76.535V-4.363
			h15.427V11.064z M146.429-97.886H21.445c-4.274,0-7.74,3.466-7.74,7.74v32.687c0,4.275,3.466,7.74,7.74,7.74h124.984
			c4.273,0,7.74-3.465,7.74-7.74v-32.687C154.169-94.42,150.705-97.886,146.429-97.886z M146.429-57.459H21.445v-32.687h124.984
			V-57.459z M45.677-66.085H30.25v-15.428h15.427V-66.085z M68.821-66.085H53.392v-15.428h15.428V-66.085z M91.963-66.085H76.535
			v-15.428h15.427V-66.085z"/>
	</g>
	<g id="Thin-L" transform="matrix(1 0 0 1 773.683 1556)">
		<path d="M145.232-18.803H20.249c-3.206,0-5.805,2.601-5.805,5.806v32.686c0,3.206,2.599,5.806,5.805,5.806h124.984
			c3.205,0,5.805-2.6,5.805-5.806v-32.686C151.037-16.203,148.438-18.803,145.232-18.803z M145.232,19.688H20.249v-32.686h124.983
			V19.688z M44.482,11.064H29.053V-4.363h15.428V11.064z M67.624,11.064H52.195V-4.363h15.429V11.064z M90.765,11.064H75.339V-4.363
			h15.427V11.064z M145.232-95.951H20.249c-3.206,0-5.805,2.6-5.805,5.806v32.687c0,3.207,2.599,5.806,5.805,5.806h124.984
			c3.205,0,5.805-2.599,5.805-5.806v-32.687C151.037-93.352,148.438-95.951,145.232-95.951z M145.232-57.459H20.249v-32.687h124.983
			V-57.459z M44.482-66.086H29.053v-15.427h15.428V-66.086z M67.624-66.086H52.195v-15.427h15.429V-66.086z M90.765-66.086H75.339
			v-15.427h15.427V-66.086z"/>
	</g>
	<g id="Ultralight-L" transform="matrix(1 0 0 1 477.607 1556)">
		<path d="M43.846,11.064H28.417V-4.363h15.428V11.064z M90.13-4.363H74.703v15.428H90.13V-4.363z M66.988-4.363H51.56v15.428
			h15.428V-4.363z M148.467-12.997v32.686c0,2.138-1.732,3.87-3.87,3.87H19.612c-2.137,0-3.87-1.732-3.87-3.87v-32.686
			c0-2.137,1.733-3.87,3.87-3.87h124.984C146.733-16.867,148.466-15.134,148.467-12.997z M144.596-12.997H19.612v32.686h124.984
			V-12.997z M90.13-81.513H74.703v15.428H90.13V-81.513z M43.846-81.513H28.417v15.428h15.428V-81.513z M148.467-90.146v32.688
			c0,2.138-1.732,3.87-3.87,3.87H19.612c-2.137,0-3.87-1.732-3.87-3.87v-32.688c0-2.138,1.733-3.87,3.87-3.87h124.984
			C146.733-94.016,148.466-92.283,148.467-90.146z M144.596-90.146H19.612v32.688h124.984V-90.146z M66.988-81.513H51.56v15.428
			h15.428V-81.513z"/>
	</g>
	<g id="Black-M" transform="matrix(1 0 0 1 2865.58 1126)">
		<path d="M116.263-29.947H19.376c-6.628,0-12,5.373-12,12V7.391c0,6.627,5.372,12,12,12h96.887c6.628,0,12-5.373,12-12v-25.338
			C128.263-24.574,122.891-29.947,116.263-29.947z M116.263,7.391H19.376v-25.338h96.887V7.391z M38.162,0.705h-11.96v-11.959h11.96
			V0.705z M56.102,0.705H44.143v-11.959h11.959V0.705z M74.041,0.705H62.082v-11.959h11.959V0.705z M116.263-89.752H19.376
			c-6.628,0-12,5.373-12,12v25.339c0,6.627,5.372,12,12,12h96.887c6.628,0,12-5.373,12-12v-25.339
			C128.263-84.379,122.891-89.752,116.263-89.752z M116.263-52.413H19.376v-25.339h96.887V-52.413z M38.162-59.101h-11.96V-71.06
			h11.96V-59.101z M56.102-59.101H44.143V-71.06h11.959V-59.101z M74.041-59.101H62.082V-71.06h11.959V-59.101z"/>
	</g>
	<g id="Heavy-M" transform="matrix(1 0 0 1 2569.23 1126)">
		<path d="M115.9-28.947H19.013c-6.075,0-11,4.925-11,11V7.391c0,6.075,4.925,11,11,11H115.9c6.075,0,11-4.925,11-11v-25.338
			C126.9-24.022,121.975-28.947,115.9-28.947z M115.9,7.391H19.013v-25.338H115.9V7.391z M37.799,0.705h-11.96v-11.959h11.96V0.705z
			 M55.739,0.705h-11.96v-11.959h11.96V0.705z M73.678,0.705H61.719v-11.959h11.959V0.705z M115.9-88.752H19.013
			c-6.075,0-11,4.925-11,11v25.339c0,6.075,4.925,11,11,11H115.9c6.075,0,11-4.925,11-11v-25.339
			C126.9-83.827,121.975-88.752,115.9-88.752z M115.9-52.413H19.013v-25.339H115.9V-52.413z M37.799-59.101h-11.96V-71.06h11.96
			V-59.101z M55.739-59.101h-11.96V-71.06h11.96V-59.101z M73.678-59.101H61.719V-71.06h11.959V-59.101z"/>
	</g>
	<g id="Bold-M" transform="matrix(1 0 0 1 2272.94 1126)">
		<path d="M115.482-27.947H18.595c-5.522,0-10,4.479-10,10V7.391c0,5.522,4.478,10,10,10h96.887c5.521,0,10-4.478,10-10v-25.338
			C125.482-23.47,121.003-27.947,115.482-27.947z M115.482,7.391H18.595v-25.338h96.887V7.391z M37.381,0.705h-11.96v-11.959h11.96
			V0.705z M55.321,0.705h-11.96v-11.959h11.96V0.705z M73.26,0.705H61.301v-11.959H73.26V0.705z M115.482-87.752H18.595
			c-5.522,0-10,4.477-10,10v25.339c0,5.523,4.478,10,10,10h96.887c5.521,0,10-4.477,10-10v-25.339
			C125.482-83.275,121.003-87.752,115.482-87.752z M115.482-52.413H18.595v-25.339h96.887V-52.413z M37.381-59.101h-11.96V-71.06
			h11.96V-59.101z M55.321-59.101h-11.96V-71.06h11.96V-59.101z M73.26-59.101H61.301V-71.06H73.26V-59.101z"/>
	</g>
	<g id="Semibold-M" transform="matrix(1 0 0 1 1976.52 1126)">
		<path d="M115.187-26.947H18.3c-4.972,0-9,4.029-9,9V7.391c0,4.972,4.028,9,9,9h96.887c4.971,0,9-4.028,9-9v-25.338
			C124.187-22.918,120.158-26.947,115.187-26.947z M115.187,7.391H18.3v-25.338h96.887V7.391z M37.085,0.705H25.126v-11.959h11.959
			V0.705z M55.026,0.705h-11.96v-11.959h11.96V0.705z M72.965,0.705H61.006v-11.959h11.959V0.705z M115.187-86.752H18.3
			c-4.972,0-9,4.029-9,9v25.339c0,4.971,4.028,9,9,9h96.887c4.971,0,9-4.029,9-9v-25.339
			C124.187-82.723,120.158-86.752,115.187-86.752z M115.187-52.413H18.3v-25.339h96.887V-52.413z M37.085-59.101H25.126V-71.06
			h11.959V-59.101z M55.026-59.101h-11.96V-71.06h11.96V-59.101z M72.965-59.101H61.006V-71.06h11.959V-59.101z"/>
	</g>
	<g id="Medium-M" transform="matrix(1 0 0 1 1680.03 1126)">
		<path d="M114.972-25.947H18.085c-4.418,0-8,3.582-8,8V7.391c0,4.418,3.582,8,8,8h96.887c4.418,0,8-3.582,8-8v-25.338
			C122.972-22.365,119.39-25.947,114.972-25.947z M114.972,7.391H18.085v-25.338h96.887V7.391z M36.871,0.705h-11.96v-11.959h11.96
			V0.705z M54.811,0.705h-11.96v-11.959h11.96V0.705z M72.75,0.705H60.791v-11.959H72.75V0.705z M114.972-85.752H18.085
			c-4.418,0-8,3.582-8,8v25.339c0,4.418,3.582,8,8,8h96.887c4.418,0,8-3.582,8-8v-25.339
			C122.972-82.17,119.39-85.752,114.972-85.752z M114.972-52.413H18.085v-25.339h96.887V-52.413z M36.871-59.101h-11.96V-71.06
			h11.96V-59.101z M54.811-59.101h-11.96V-71.06h11.96V-59.101z M72.75-59.101H60.791V-71.06H72.75V-59.101z"/>
	</g>
	<g id="Regular-M" transform="matrix(1 0 0 1 1383.58 1126)">
		<path d="M114.671-24.947H17.784c-3.866,0-7,3.135-7,7V7.391c0,3.866,3.134,7,7,7h96.887c3.866,0,7-3.134,7-7v-25.338
			C121.671-21.813,118.537-24.947,114.671-24.947z M114.671,7.391H17.784v-25.338h96.887V7.391z M36.57,0.705H24.609v-11.959H36.57
			V0.705z M54.51,0.705H42.55v-11.959h11.96V0.705z M72.449,0.705H60.49v-11.959h11.959V0.705z M114.671-84.752H17.784
			c-3.866,0-7,3.134-7,7v25.339c0,3.866,3.134,7,7,7h96.887c3.866,0,7-3.134,7-7v-25.339
			C121.671-81.618,118.537-84.752,114.671-84.752z M114.671-52.413H17.784v-25.339h96.887V-52.413z M36.57-59.101H24.609V-71.06
			H36.57V-59.101z M54.51-59.101H42.55V-71.06h11.96V-59.101z M72.449-59.101H60.49V-71.06h11.959V-59.101z"/>
	</g>
	<g id="Light-M" transform="matrix(1 0 0 1 1087.68 1126)">
		<path d="M113.9-23.947H17.013c-3.313,0-6,2.688-6,6V7.391c0,3.313,2.687,6,6,6H113.9c3.313,0,6-2.687,6-6v-25.338
			C119.9-21.261,117.214-23.947,113.9-23.947z M113.9,7.391H17.013v-25.338H113.9V7.391z M35.798,0.705H23.839v-11.959h11.959V0.705
			z M53.739,0.705h-11.96v-11.959h11.96V0.705z M71.678,0.705H59.719v-11.959h11.959V0.705z M113.9-83.752H17.013
			c-3.313,0-6,2.687-6,6v25.339c0,3.313,2.687,6,6,6H113.9c3.313,0,6-2.687,6-6v-25.339C119.9-81.065,117.214-83.752,113.9-83.752z
			 M113.9-52.413H17.013v-25.339H113.9V-52.413z M35.798-59.101H23.839V-71.06h11.959V-59.101z M53.739-59.101h-11.96V-71.06h11.96
			V-59.101z M71.678-59.101H59.719V-71.06h11.959V-59.101z"/>
	</g>
	<g id="Thin-M" transform="matrix(1 0 0 1 792.042 1126)">
		<path d="M112.824-22.447H15.938c-2.485,0-4.5,2.016-4.5,4.5V7.391c0,2.485,2.015,4.5,4.5,4.5h96.887c2.484,0,4.5-2.015,4.5-4.5
			v-25.338C117.324-20.433,115.31-22.447,112.824-22.447z M112.824,7.391H15.938v-25.338h96.886V7.391z M34.724,0.705h-11.96
			v-11.959h11.96V0.705z M52.663,0.705h-11.96v-11.959h11.96V0.705z M70.603,0.705H58.644v-11.959h11.959V0.705z M112.824-82.252
			H15.938c-2.485,0-4.5,2.015-4.5,4.5v25.339c0,2.485,2.015,4.5,4.5,4.5h96.887c2.484,0,4.5-2.015,4.5-4.5v-25.339
			C117.324-80.237,115.31-82.252,112.824-82.252z M112.824-52.413H15.938v-25.339h96.886V-52.413z M34.724-59.101h-11.96V-71.06
			h11.96V-59.101z M52.663-59.101h-11.96V-71.06h11.96V-59.101z M70.603-59.101H58.644V-71.06h11.959V-59.101z"/>
	</g>
	<g id="Ultralight-M" transform="matrix(1 0 0 1 495.893 1126)">
		<path d="M34.161,0.705h-11.96v-11.959h11.96V0.705z M70.04-11.254H58.081V0.705H70.04V-11.254z M52.1-11.254H40.14V0.705H52.1
			V-11.254z M115.262-17.947V7.391c0,1.657-1.343,3-3,3H15.375c-1.656,0-3-1.343-3-3v-25.338c0-1.656,1.344-3,3-3h96.887
			C113.918-20.947,115.261-19.604,115.262-17.947z M112.261-17.947H15.375V7.391h96.887V-17.947z M70.04-71.06H58.081v11.959H70.04
			V-71.06z M34.161-71.06h-11.96v11.959h11.96V-71.06z M115.262-77.752v25.339c0,1.657-1.343,3-3,3H15.375c-1.656,0-3-1.343-3-3
			v-25.339c0-1.657,1.344-3,3-3h96.887C113.918-80.752,115.261-79.409,115.262-77.752z M112.261-77.752H15.375v25.339h96.887
			V-77.752z M52.1-71.06H40.14v11.959H52.1V-71.06z"/>
	</g>
	<g id="Black-S" transform="matrix(1 0 0 1 2880.28 696)">
		<path d="M91.051-31.131H15.189c-5.19,0-9.396,4.207-9.396,9.396v19.84c0,5.189,4.206,9.396,9.396,9.396h75.862
			c5.189,0,9.396-4.207,9.396-9.396v-19.84C100.447-26.924,96.24-31.131,91.051-31.131z M91.051-1.896H15.189v-19.84h75.862V-1.896z
			 M29.898-7.13h-9.365v-9.364h9.365V-7.13z M43.945-7.13H34.58v-9.364h9.364V-7.13z M57.991-7.13h-9.364v-9.364h9.364V-7.13z
			 M91.051-77.958H15.189c-5.19,0-9.396,4.207-9.396,9.396v19.84c0,5.189,4.206,9.396,9.396,9.396h75.862
			c5.189,0,9.396-4.207,9.396-9.396v-19.84C100.447-73.751,96.24-77.958,91.051-77.958z M91.051-48.722H15.189v-19.84h75.862
			V-48.722z M29.898-53.958h-9.365v-9.364h9.365V-53.958z M43.945-53.958H34.58v-9.364h9.364V-53.958z M57.991-53.958h-9.364v-9.364
			h9.364V-53.958z"/>
	</g>
	<g id="Heavy-S" transform="matrix(1 0 0 1 2583.76 696)">
		<path d="M90.858-30.348H14.996c-4.758,0-8.613,3.856-8.613,8.613v19.84c0,4.757,3.855,8.613,8.613,8.613h75.862
			c4.757,0,8.612-3.856,8.612-8.613v-19.84C99.47-26.492,95.615-30.348,90.858-30.348z M90.858-1.896H14.996v-19.84h75.862V-1.896z
			 M29.705-7.13H20.34v-9.364h9.365V-7.13z M43.752-7.13h-9.365v-9.364h9.365V-7.13z M57.799-7.13h-9.364v-9.364h9.364V-7.13z
			 M90.858-77.176H14.996c-4.758,0-8.613,3.856-8.613,8.613v19.84c0,4.757,3.855,8.613,8.613,8.613h75.862
			c4.757,0,8.612-3.856,8.612-8.613v-19.84C99.47-73.319,95.615-77.176,90.858-77.176z M90.858-48.722H14.996v-19.84h75.862V-48.722
			z M29.705-53.958H20.34v-9.364h9.365V-53.958z M43.752-53.958h-9.365v-9.364h9.365V-53.958z M57.799-53.958h-9.364v-9.364h9.364
			V-53.958z"/>
	</g>
	<g id="Bold-S" transform="matrix(1 0 0 1 2287.27 696)">
		<path d="M90.64-29.565H14.777c-4.324,0-7.83,3.507-7.83,7.83v19.84c0,4.324,3.506,7.83,7.83,7.83H90.64
			c4.323,0,7.83-3.506,7.83-7.83v-19.84C98.47-26.06,94.963-29.565,90.64-29.565z M90.64-1.896H14.777v-19.84H90.64V-1.896z
			 M29.487-7.13h-9.364v-9.364h9.364V-7.13z M43.534-7.13h-9.365v-9.364h9.365V-7.13z M57.58-7.13h-9.363v-9.364h9.363V-7.13z
			 M90.64-76.393H14.777c-4.324,0-7.83,3.505-7.83,7.83v19.84c0,4.325,3.506,7.83,7.83,7.83H90.64c4.323,0,7.83-3.505,7.83-7.83
			v-19.84C98.47-72.887,94.963-76.393,90.64-76.393z M90.64-48.722H14.777v-19.84H90.64V-48.722z M29.487-53.958h-9.364v-9.364
			h9.364V-53.958z M43.534-53.958h-9.365v-9.364h9.365V-53.958z M57.58-53.958h-9.363v-9.364h9.363V-53.958z"/>
	</g>
	<g id="Semibold-S" transform="matrix(1 0 0 1 1990.7 696)">
		<path d="M90.495-28.782H14.632c-3.893,0-7.047,3.155-7.047,7.047v19.84c0,3.893,3.154,7.047,7.047,7.047h75.863
			c3.892,0,7.047-3.154,7.047-7.047v-19.84C97.542-25.627,94.387-28.782,90.495-28.782z M90.495-1.896H14.632v-19.84h75.863V-1.896z
			 M29.341-7.13h-9.363v-9.364h9.363V-7.13z M43.389-7.13h-9.365v-9.364h9.365V-7.13z M57.435-7.13h-9.363v-9.364h9.363V-7.13z
			 M90.495-75.609H14.632c-3.893,0-7.047,3.155-7.047,7.047v19.84c0,3.892,3.154,7.047,7.047,7.047h75.863
			c3.892,0,7.047-3.155,7.047-7.047v-19.84C97.542-72.455,94.387-75.609,90.495-75.609z M90.495-48.722H14.632v-19.84h75.863
			V-48.722z M29.341-53.958h-9.363v-9.364h9.363V-53.958z M43.389-53.958h-9.365v-9.364h9.365V-53.958z M57.435-53.958h-9.363
			v-9.364h9.363V-53.958z"/>
	</g>
	<g id="Medium-S" transform="matrix(1 0 0 1 1694.09 696)">
		<path d="M90.4-27.999H14.537c-3.459,0-6.264,2.805-6.264,6.264v19.84c0,3.459,2.805,6.264,6.264,6.264H90.4
			c3.459,0,6.264-2.805,6.264-6.264v-19.84C96.664-25.194,93.859-27.999,90.4-27.999z M90.4-1.896H14.537v-19.84H90.4V-1.896z
			 M29.247-7.13h-9.364v-9.364h9.364V-7.13z M43.294-7.13h-9.365v-9.364h9.365V-7.13z M57.341-7.13h-9.364v-9.364h9.364V-7.13z
			 M90.4-74.827H14.537c-3.459,0-6.264,2.805-6.264,6.264v19.84c0,3.459,2.805,6.264,6.264,6.264H90.4
			c3.459,0,6.264-2.805,6.264-6.264v-19.84C96.664-72.021,93.859-74.827,90.4-74.827z M90.4-48.722H14.537v-19.84H90.4V-48.722z
			 M29.247-53.958h-9.364v-9.364h9.364V-53.958z M43.294-53.958h-9.365v-9.364h9.365V-53.958z M57.341-53.958h-9.364v-9.364h9.364
			V-53.958z"/>
	</g>
	<g id="Regular-S" transform="matrix(1 0 0 1 1397.53 696)">
		<path d="M90.209-27.216H14.346c-3.027,0-5.48,2.455-5.48,5.481v19.84c0,3.027,2.454,5.481,5.48,5.481h75.863
			c3.027,0,5.481-2.454,5.481-5.481v-19.84C95.69-24.762,93.236-27.216,90.209-27.216z M90.209-1.896H14.346v-19.84h75.863V-1.896z
			 M29.056-7.13h-9.365v-9.364h9.365V-7.13z M43.103-7.13h-9.365v-9.364h9.365V-7.13z M57.149-7.13h-9.364v-9.364h9.364V-7.13z
			 M90.209-74.043H14.346c-3.027,0-5.48,2.454-5.48,5.481v19.84c0,3.027,2.454,5.481,5.48,5.481h75.863
			c3.027,0,5.481-2.454,5.481-5.481v-19.84C95.69-71.59,93.236-74.043,90.209-74.043z M90.209-48.722H14.346v-19.84h75.863V-48.722z
			 M29.056-53.958h-9.365v-9.364h9.365V-53.958z M43.103-53.958h-9.365v-9.364h9.365V-53.958z M57.149-53.958h-9.364v-9.364h9.364
			V-53.958z"/>
	</g>
	<g id="Light-S" transform="matrix(1 0 0 1 1101.55 696)">
		<path d="M89.518-26.433H13.655c-2.594,0-4.698,2.104-4.698,4.698v19.84c0,2.594,2.104,4.698,4.698,4.698h75.863
			c2.594,0,4.698-2.104,4.698-4.698v-19.84C94.216-24.33,92.113-26.433,89.518-26.433z M89.518-1.896H13.655v-19.84h75.863V-1.896z
			 M28.364-7.13H19v-9.364h9.364V-7.13z M42.412-7.13h-9.365v-9.364h9.365V-7.13z M56.458-7.13h-9.364v-9.364h9.364V-7.13z
			 M89.518-73.261H13.655c-2.594,0-4.698,2.104-4.698,4.698v19.84c0,2.595,2.104,4.698,4.698,4.698h75.863
			c2.594,0,4.698-2.104,4.698-4.698v-19.84C94.216-71.157,92.113-73.261,89.518-73.261z M89.518-48.722H13.655v-19.84h75.863
			V-48.722z M28.364-53.958H19v-9.364h9.364V-53.958z M42.412-53.958h-9.365v-9.364h9.365V-53.958z M56.458-53.958h-9.364v-9.364
			h9.364V-53.958z"/>
	</g>
	<g id="Thin-S" transform="matrix(1 0 0 1 805.763 696)">
		<path d="M88.591-25.259H12.73c-1.946,0-3.524,1.578-3.524,3.523v19.84c0,1.946,1.578,3.523,3.524,3.523h75.862
			c1.945,0,3.524-1.577,3.524-3.523v-19.84C92.115-23.681,90.537-25.259,88.591-25.259z M88.591-1.896H12.73v-19.84h75.862V-1.896z
			 M27.438-7.13h-9.364v-9.364h9.364V-7.13z M41.485-7.13H32.12v-9.364h9.365V-7.13z M55.532-7.13h-9.364v-9.364h9.364V-7.13z
			 M88.591-72.086H12.73c-1.946,0-3.524,1.578-3.524,3.523v19.84c0,1.946,1.578,3.524,3.524,3.524h75.862
			c1.945,0,3.524-1.578,3.524-3.524v-19.84C92.115-70.508,90.537-72.086,88.591-72.086z M88.591-48.722H12.73v-19.84h75.862V-48.722
			z M27.438-53.958h-9.364v-9.364h9.364V-53.958z M41.485-53.958H32.12v-9.364h9.365V-53.958z M55.532-53.958h-9.364v-9.364h9.364
			V-53.958z"/>
	</g>
	<g id="Ultralight-S" transform="matrix(1 0 0 1 509.54 696)">
		<path d="M26.949-7.13h-9.365v-9.364h9.365V-7.13z M55.042-16.494h-9.364v9.364h9.364V-16.494z M40.996-16.494h-9.365v9.364h9.365
			V-16.494z M90.452-21.735v19.84c0,1.297-1.051,2.349-2.349,2.349H12.24c-1.297,0-2.349-1.052-2.349-2.349v-19.84
			c0-1.297,1.052-2.349,2.349-2.349h75.863C89.399-24.084,90.451-23.032,90.452-21.735z M88.103-21.735H12.24v19.84h75.863V-21.735z
			 M55.042-63.322h-9.364v9.364h9.364V-63.322z M26.949-63.322h-9.365v9.364h9.365V-63.322z M90.452-68.563v19.84
			c0,1.298-1.051,2.349-2.349,2.349H12.24c-1.297,0-2.349-1.051-2.349-2.349v-19.84c0-1.298,1.052-2.349,2.349-2.349h75.863
			C89.399-70.912,90.451-69.86,90.452-68.563z M88.103-68.563H12.24v19.84h75.863V-68.563z M40.996-63.322h-9.365v9.364h9.365
			V-63.322z"/>
	</g>
</g>
</svg>
