<?xml version="1.0" encoding="utf-8"?>
<!-- Generator: Adobe Illustrator 16.0.0, SVG Export Plug-In . SVG Version: 6.00 Build 0)  -->
<!DOCTYPE svg PUBLIC "-//W3C//DTD SVG 1.1//EN" "http://www.w3.org/Graphics/SVG/1.1/DTD/svg11.dtd">
<svg version="1.1" id="Layer_1" xmlns="http://www.w3.org/2000/svg" xmlns:xlink="http://www.w3.org/1999/xlink" x="0px" y="0px"
	 width="3300px" height="2200px" viewBox="0 0 3300 2200" enable-background="new 0 0 3300 2200" xml:space="preserve">
<g id="Notes">
	<rect id="artboard" fill="#FFFFFF" width="3300" height="2200"/>
	<line fill="none" stroke="#000000" stroke-width="0.5" x1="263" y1="292" x2="3036" y2="292"/>
	<text transform="matrix(1 0 0 1 263 322)" font-family="'Arial-BoldMT'" font-size="12">Weight/Scale Variations</text>
	<text transform="matrix(1 0 0 1 536.0361 322)" font-family="'ArialMT'" font-size="12">Ultralight</text>
	<text transform="matrix(1 0 0 1 844.75 322)" font-family="'ArialMT'" font-size="12">Thin</text>
	<text transform="matrix(1 0 0 1 1140.1191 322)" font-family="'ArialMT'" font-size="12">Light</text>
	<text transform="matrix(1 0 0 1 1428.8281 322)" font-family="'ArialMT'" font-size="12">Regular</text>
	<text transform="matrix(1 0 0 1 1725.2207 322)" font-family="'ArialMT'" font-size="12">Medium</text>
	<text transform="matrix(1 0 0 1 2018.2559 322)" font-family="'ArialMT'" font-size="12">Semibold</text>
	<text transform="matrix(1 0 0 1 2327.9707 322)" font-family="'ArialMT'" font-size="12">Bold</text>
	<text transform="matrix(1 0 0 1 2619.6836 322)" font-family="'ArialMT'" font-size="12">Heavy</text>
	<text transform="matrix(1 0 0 1 2918.7285 322)" font-family="'ArialMT'" font-size="12">Black</text>
	<line fill="none" stroke="#000000" stroke-width="0.5" x1="263" y1="1903" x2="3036" y2="1903"/>
	<g transform="matrix(1 0 0 1 263 1933)">
		<path d="M9.248,0.83c4.307,0,7.891-3.574,7.891-7.881c0-4.309-3.594-7.881-7.9-7.881c-4.297,0-7.871,3.572-7.871,7.881
			C1.368-2.744,4.951,0.83,9.248,0.83z M9.248-0.654c-3.545,0-6.377-2.842-6.377-6.396s2.822-6.396,6.367-6.396
			c3.555,0,6.396,2.843,6.406,6.396C15.654-3.496,12.803-0.654,9.248-0.654z M6.396-6.318h2.109v2.119
			c0,0.439,0.293,0.742,0.723,0.742c0.449,0,0.742-0.303,0.742-0.742v-2.119h2.13c0.439,0,0.742-0.293,0.742-0.723
			c0-0.439-0.303-0.742-0.742-0.742H9.971v-2.107c0-0.449-0.293-0.754-0.742-0.754c-0.43,0-0.723,0.305-0.723,0.754v2.107h-2.11
			c-0.449,0-0.752,0.303-0.752,0.742C5.645-6.611,5.947-6.318,6.396-6.318z"/>
	</g>
	<g transform="matrix(1 0 0 1 281.506 1933)">
		<path d="M11.709,2.91c5.449,0,9.961-4.521,9.961-9.961c0-5.449-4.521-9.961-9.971-9.961c-5.439,0-9.951,4.512-9.951,9.961
			C1.748-1.611,6.269,2.91,11.709,2.91z M11.709,1.25c-4.609,0-8.291-3.691-8.291-8.301c0-4.61,3.672-8.301,8.281-8.301
			S20-11.66,20.01-7.051C20.02-2.442,16.318,1.25,11.709,1.25z M7.988-6.23h2.891v2.91c0,0.488,0.332,0.82,0.811,0.82
			c0.488,0,0.83-0.332,0.83-0.82v-2.91h2.91c0.488,0,0.82-0.332,0.82-0.811c0-0.488-0.332-0.83-0.82-0.83h-2.91v-2.891
			c0-0.508-0.342-0.84-0.83-0.84c-0.479,0-0.811,0.342-0.811,0.84v2.891H7.988c-0.508,0-0.84,0.342-0.84,0.83
			C7.148-6.563,7.49-6.23,7.988-6.23z"/>
	</g>
	<g transform="matrix(1 0 0 1 304.924 1933)">
		<path d="M14.97,5.664c6.963,0,12.725-5.762,12.725-12.715c0-6.963-5.771-12.727-12.734-12.727
			c-6.953,0-12.705,5.764-12.705,12.727C2.256-0.097,8.017,5.664,14.97,5.664z M14.97,3.848C8.935,3.848,4.081-1.015,4.081-7.05
			c0-6.045,4.844-10.898,10.879-10.898c6.045,0,10.898,4.854,10.908,10.898C25.879-1.015,21.015,3.848,14.97,3.848z M10.058-6.142
			h4.004v4.014c0,0.537,0.371,0.908,0.889,0.908c0.537,0,0.908-0.371,0.908-0.908v-4.014h4.023c0.527,0,0.908-0.371,0.908-0.891
			c0-0.537-0.371-0.918-0.908-0.918h-4.023v-4.004c0-0.557-0.371-0.928-0.908-0.928c-0.518,0-0.889,0.381-0.889,0.928v4.004h-4.004
			c-0.557,0-0.928,0.381-0.928,0.918C9.131-6.513,9.511-6.142,10.058-6.142z"/>
	</g>
	<text transform="matrix(1 0 0 1 263 1953)" font-family="'Arial-BoldMT'" font-size="12">Design Variations</text>
	<text transform="matrix(1 0 0 1 263 1971)" font-family="'ArialMT'" font-size="12">Symbols are supported in up to nine weights and three scales.</text>
	<text transform="matrix(1 0 0 1 263 1989)" font-family="'ArialMT'" font-size="12">For optimal layout with text and other symbols, vertically align</text>
	<text transform="matrix(1 0 0 1 263 2007)" font-family="'ArialMT'" font-size="12">symbols with the adjacent text.</text>
	<line fill="none" stroke="#00AEEF" stroke-width="0.5" x1="776" y1="1919" x2="776" y2="1933"/>
	<g transform="matrix(1 0 0 1 776 1933)">
		<path d="M3.311,0.127c0.52,0,0.771-0.195,0.957-0.732l1.262-3.457h5.762l1.26,3.457c0.188,0.537,0.439,0.732,0.947,0.732
			c0.518,0,0.85-0.313,0.85-0.801c0-0.166-0.027-0.313-0.105-0.527L9.66-13.389c-0.227-0.605-0.625-0.898-1.25-0.898
			c-0.605,0-1.018,0.293-1.23,0.889L2.598-1.191C2.52-0.976,2.49-0.83,2.49-0.664C2.49-0.176,2.803,0.127,3.311,0.127z M6.006-5.537
			l2.373-6.572h0.049l2.373,6.572H6.006z"/>
	</g>
	<line fill="none" stroke="#00AEEF" stroke-width="0.5" x1="792.836" y1="1919" x2="792.836" y2="1933"/>
	<text transform="matrix(1 0 0 1 776 1953)" font-family="'Arial-BoldMT'" font-size="12">Margins</text>
	<text transform="matrix(1 0 0 1 776 1971)" font-family="'ArialMT'" font-size="12">Leading and trailing margins on the left and right side of each symbol</text>
	<text transform="matrix(1 0 0 1 776 1989)" font-family="'ArialMT'" font-size="12">can be adjusted by modifying the x-location of the margin guidelines.</text>
	<text transform="matrix(1 0 0 1 776 2007)" font-family="'ArialMT'" font-size="12">Modifications are automatically applied proportionally to all</text>
	<text transform="matrix(1 0 0 1 776 2025)" font-family="'ArialMT'" font-size="12">scales and weights.</text>
	<g transform="matrix(1 0 0 1 1289 1933)">
		<path d="M2.842,1.865l1.699,1.709C5.4,4.444,6.387,4.385,7.314,3.36L17.49-7.851c0.264,0.088,0.537,0.066,0.85,0.01l1.064-0.195
			l0.664,0.674l-0.039,0.559c-0.039,0.498,0.088,0.879,0.576,1.355l0.762,0.742c0.479,0.479,1.094,0.508,1.563,0.039l2.91-2.92
			c0.469-0.469,0.449-1.064-0.029-1.543L25.04-9.892c-0.479-0.479-0.851-0.637-1.328-0.598l-0.576,0.05l-0.645-0.636l0.244-1.123
			c0.127-0.564-0.029-1.006-0.615-1.592l-2.197-2.188c-3.34-3.319-7.771-3.241-10.664-0.353c-0.42,0.41-0.448,0.986-0.215,1.377
			c0.234,0.361,0.693,0.597,1.338,0.431c1.465-0.343,2.988-0.399,4.414,0.536L14.21-12.53c-0.195,0.479-0.225,0.879-0.098,1.24
			L3.047-0.898C2.061,0.02,1.982,0.996,2.842,1.865z M10.752-15.957c2.432-1.777,5.723-1.475,7.949,0.752l2.432,2.412
			c0.234,0.234,0.273,0.42,0.205,0.762l-0.322,1.484l1.504,1.484l0.986-0.061c0.254-0.01,0.332,0.01,0.527,0.205l0.576,0.576
			L22.168-5.9l-0.576-0.574c-0.195-0.195-0.225-0.273-0.215-0.537l0.068-0.979l-1.494-1.482L18.428-9.22
			c-0.322,0.066-0.469,0.039-0.713-0.195l-2.002-2.002c-0.254-0.234-0.283-0.4-0.127-0.771l0.879-2.092
			c-1.563-1.455-3.594-2.08-5.625-1.482C10.684-15.722,10.625-15.849,10.752-15.957z M5.273,2.305L4.102,1.143
			C3.633,0.684,3.74,0.342,4.141-0.02l10.813-10.177l1.465,1.484L6.426,2.276C6.074,2.676,5.742,2.774,5.273,2.305z"/>
	</g>
	<text transform="matrix(1 0 0 1 1289 1953)" font-family="'Arial-BoldMT'" font-size="12">Exporting</text>
	<text transform="matrix(1 0 0 1 1289 1971)" font-family="'ArialMT'" font-size="12">Symbols should be outlined when exporting to ensure the</text>
	<text transform="matrix(1 0 0 1 1289 1989)" font-family="'ArialMT'" font-size="12">design is preserved when submitting to Xcode.</text>
	<text id="template-version" transform="matrix(1 0 0 1 2958.8496 1933)" font-family="'ArialMT'" font-size="12">Template v.2.0</text>
	<text transform="matrix(1 0 0 1 2878.5762 1951)" font-family="'ArialMT'" font-size="12">Requires Xcode 12 or greater</text>
	<text transform="matrix(1 0 0 1 2893.9453 1969)" font-family="'ArialMT'" font-size="12">Generated from thermal.fill</text>
	<text transform="matrix(1 0 0 1 2921.9238 1987)" font-family="'ArialMT'" font-size="12">Typeset at 100 points</text>
	<text transform="matrix(1 0 0 1 263 726)" font-family="'ArialMT'" font-size="12">Small</text>
	<text transform="matrix(1 0 0 1 263 1156)" font-family="'ArialMT'" font-size="12">Medium</text>
	<text transform="matrix(1 0 0 1 263 1586)" font-family="'ArialMT'" font-size="12">Large</text>
</g>
<g id="Guides">
	<g id="H-reference" transform="matrix(1 0 0 1 339 696)">
		<path fill="#27AAE1" d="M0.977,0h2.686l9.326-24.463h32.764L55.127,0h2.637L30.615-70.459h-2.49L0.977,0z M29.346-67.139h0.098
			l15.43,40.431H13.867L29.346-67.139z"/>
	</g>
	<line id="Baseline-S" fill="none" stroke="#27AAE1" stroke-width="0.5" x1="263" y1="696" x2="3036" y2="696"/>
	<line id="Capline-S" fill="none" stroke="#27AAE1" stroke-width="0.5" x1="263" y1="625.541" x2="3036" y2="625.541"/>
	<g id="H-reference_1_" transform="matrix(1 0 0 1 339 1126)">
		<path fill="#27AAE1" d="M0.977,0h2.686l9.326-24.463h32.764L55.127,0h2.637L30.615-70.459h-2.49L0.977,0z M29.346-67.138h0.098
			l15.43,40.43H13.867L29.346-67.138z"/>
	</g>
	<line id="Baseline-M" fill="none" stroke="#27AAE1" stroke-width="0.5" x1="263" y1="1126" x2="3036" y2="1126"/>
	<line id="Capline-M" fill="none" stroke="#27AAE1" stroke-width="0.5" x1="263" y1="1055.539" x2="3036" y2="1055.539"/>
	<g id="H-reference_2_" transform="matrix(1 0 0 1 339 1556)">
		<path fill="#27AAE1" d="M0.977,0h2.686l9.326-24.463h32.764L55.127,0h2.637L30.615-70.459h-2.49L0.977,0z M29.346-67.138h0.098
			l15.43,40.43H13.867L29.346-67.138z"/>
	</g>
	<line id="Baseline-L" fill="none" stroke="#27AAE1" stroke-width="0.5" x1="263" y1="1556" x2="3036" y2="1556"/>
	<line id="Capline-L" fill="none" stroke="#27AAE1" stroke-width="0.5" x1="263" y1="1485.539" x2="3036" y2="1485.539"/>
	<line id="left-margin" fill="none" stroke="#00AEEF" stroke-width="0.5" x1="1383.58" y1="1030.789" x2="1383.58" y2="1150.119"/>
	<line id="right-margin" fill="none" stroke="#00AEEF" stroke-width="0.5" x1="1516.1" y1="1030.789" x2="1516.1" y2="1150.119"/>
</g>
<g id="Symbols">
	<g id="Black-L" transform="matrix(1 0 0 1 2846.24 1556)">
		<path d="M83.464-5.419c0,9.175-7.436,16.611-16.611,16.611c-9.173,0-16.611-7.437-16.611-16.611
			c0-8.069,5.757-14.79,13.386-16.291v-60.207c0-1.781,1.444-3.226,3.226-3.226s3.226,1.444,3.226,3.226v60.207
			C77.707-20.209,83.464-13.489,83.464-5.419z M133.539-44.682h-22.584c-4.272,0-7.739,3.465-7.739,7.739
			c0,4.273,3.467,7.74,7.739,7.74h22.584c4.273,0,7.74-3.466,7.74-7.74S137.813-44.682,133.539-44.682z M106.658-5.666
			c0,21.95-17.856,39.807-39.805,39.807c-21.951,0-39.807-17.857-39.807-39.807c0-11.678,5.058-22.653,13.901-30.229V-82.12v-0.358
			l0.017-0.357l0.046-1.006l0.018-0.385l0.037-0.383c1.286-13.351,12.372-23.418,25.788-23.418h0.369v0.002l0.368,0.018l1.003,0.048
			l0.363,0.018l0.362,0.034c13.36,1.269,23.438,12.355,23.438,25.789v46.237l0.848,0.741l0.177,0.155l0.172,0.159
			C102.028-27.318,106.658-16.69,106.658-5.666z M91.179-5.665c0-6.866-2.851-13.254-7.766-17.823l-1.086-0.949l-5.049-4.166
			v-53.514c0-5.424-4.135-9.877-9.423-10.378l-1.002-0.051c-5.417,0-9.87,4.134-10.379,9.421l-0.047,1.006v53.514l-5.05,4.166
			c-5.58,4.603-8.852,11.41-8.852,18.774c0,13.439,10.888,24.326,24.327,24.326C80.292,18.661,91.179,7.774,91.179-5.665z
			 M103.216-78.858c0,4.273,3.467,7.74,7.739,7.74h22.584c4.273,0,7.74-3.466,7.74-7.74s-3.467-7.74-7.74-7.74h-22.584
			C106.683-86.599,103.216-83.133,103.216-78.858z M110.954-49.894h9.212c4.274,0,7.74-3.466,7.74-7.74s-3.467-7.74-7.74-7.74
			h-9.212c-4.272,0-7.739,3.466-7.739,7.74C103.215-53.36,106.682-49.894,110.954-49.894z M110.954-91.81h9.212
			c4.274,0,7.74-3.468,7.74-7.74c0-4.274-3.467-7.74-7.74-7.74h-9.212c-4.272,0-7.739,3.466-7.739,7.74
			C103.215-95.277,106.682-91.81,110.954-91.81z"/>
	</g>
	<g id="Heavy-L" transform="matrix(1 0 0 1 2550.07 1556)">
		<path d="M103.247-99.55c0-3.919,3.177-7.096,7.095-7.096h9.211c3.918,0,7.095,3.177,7.095,7.096s-3.177,7.095-7.095,7.095h-9.211
			C106.424-92.455,103.247-95.631,103.247-99.55z M132.925-44.037h-22.583c-3.918,0-7.095,3.176-7.095,7.095
			c0,3.918,3.177,7.095,7.095,7.095h22.583c3.918,0,7.095-3.177,7.095-7.095C140.02-40.861,136.843-44.037,132.925-44.037z
			 M132.925-85.953h-22.583c-3.918,0-7.095,3.176-7.095,7.095s3.177,7.095,7.095,7.095h22.583c3.918,0,7.095-3.176,7.095-7.095
			S136.843-85.953,132.925-85.953z M104.757-5.665c0,21.239-17.278,38.517-38.515,38.517c-21.237,0-38.52-17.278-38.52-38.517
			c0-11.495,5.067-22.288,13.9-29.63v-46.824v-0.327l0.017-0.327l0.047-1.007l0.017-0.352l0.033-0.352
			c1.22-12.685,11.754-22.251,24.503-22.251h0.339v-0.002l0.338,0.017l1.004,0.048l0.334,0.017l0.332,0.03
			c12.697,1.207,22.271,11.741,22.271,24.505v46.825l0.048,0.041l0.152,0.133l1.087,0.95l0.162,0.143l0.158,0.146
			C100.278-26.617,104.757-16.334,104.757-5.665z M90.566-5.665c0-6.867-2.851-13.254-7.766-17.823l-1.086-0.949l-5.049-4.166
			v-53.514c0-5.424-4.135-9.877-9.423-10.378l-1.003-0.051c-5.416,0-9.869,4.134-10.378,9.421l-0.048,1.006v53.514l-5.05,4.166
			c-5.579,4.603-8.851,11.41-8.851,18.774c0,13.439,10.887,24.326,24.326,24.326C79.678,18.661,90.566,7.774,90.566-5.665z
			 M110.342-50.539h9.211c3.918,0,7.095-3.177,7.095-7.095c0-3.919-3.177-7.095-7.095-7.095h-9.211
			c-3.918,0-7.095,3.176-7.095,7.095C103.247-53.716,106.424-50.539,110.342-50.539z M69.464-21.711v-60.206
			c0-1.781-1.443-3.226-3.225-3.226s-3.226,1.444-3.226,3.226v60.206c-7.629,1.502-13.386,8.223-13.386,16.292
			c0,9.175,7.438,16.611,16.611,16.611c9.175,0,16.611-7.437,16.611-16.611C82.851-13.489,77.094-20.209,69.464-21.711z"/>
	</g>
	<g id="Bold-L" transform="matrix(1 0 0 1 2253.97 1556)">
		<path d="M90.897-32.877l-0.144-0.133l-0.147-0.13l-1.086-0.949l-0.139-0.121l-0.143-0.117l-0.36-0.298v-47.434
			c0-12.095-9.071-22.079-21.101-23.221l-0.303-0.028l-0.301-0.014l-1.004-0.048l-0.308-0.014v-0.003h-0.312
			c-12.078,0-22.063,9.065-23.22,21.085l-0.029,0.318l-0.017,0.32l-0.045,1.006l-0.015,0.298v0.299v47.433l-0.359,0.297
			c-8.605,7.097-13.541,17.569-13.541,28.725c0,20.526,16.699,37.226,37.226,37.226c20.527,0,37.227-16.699,37.227-37.226
			C102.778-15.916,98.447-25.856,90.897-32.877z M65.557,18.724c-13.439,0-24.328-10.887-24.328-24.326
			c0-7.364,3.271-14.172,8.85-18.774l5.053-4.166v-53.514l0.045-1.006c0.51-5.287,4.963-9.421,10.381-9.421l1.001,0.051
			c5.287,0.501,9.422,4.954,9.422,10.378v53.514l5.049,4.166l1.086,0.949c4.916,4.569,7.767,10.957,7.767,17.823
			C89.882,7.837,78.994,18.724,65.557,18.724z M82.166-5.356c0,9.175-7.437,16.611-16.611,16.611
			c-9.171,0-16.611-7.437-16.611-16.611c0-8.069,5.759-14.788,13.386-16.291v-60.207c0-1.781,1.444-3.226,3.226-3.226
			s3.225,1.444,3.225,3.226v60.207C76.41-20.146,82.166-13.427,82.166-5.356z M103.208-57.571c0-3.563,2.886-6.45,6.45-6.45h9.21
			c3.563,0,6.45,2.888,6.45,6.45s-2.888,6.45-6.45,6.45h-9.21C106.094-51.121,103.208-54.01,103.208-57.571z M103.208-99.487
			c0-3.563,2.886-6.45,6.45-6.45h9.21c3.563,0,6.45,2.888,6.45,6.45c0,3.562-2.888,6.45-6.45,6.45h-9.21
			C106.094-93.037,103.208-95.926,103.208-99.487z M138.69-36.88c0,3.563-2.888,6.45-6.45,6.45h-22.582
			c-3.564,0-6.45-2.889-6.45-6.45c0-3.563,2.886-6.45,6.45-6.45h22.582C135.802-43.33,138.69-40.442,138.69-36.88z M138.69-78.796
			c0,3.563-2.888,6.45-6.45,6.45h-22.582c-3.564,0-6.45-2.889-6.45-6.45c0-3.563,2.886-6.45,6.45-6.45h22.582
			C135.802-85.246,138.69-82.358,138.69-78.796z"/>
	</g>
	<g id="Semibold-L" transform="matrix(1 0 0 1 1957.7 1556)">
		<path d="M103.341-57.499c0-3.206,2.6-5.806,5.806-5.806h9.21c3.206,0,5.805,2.6,5.805,5.806s-2.599,5.805-5.805,5.805h-9.21
			C105.941-51.694,103.341-54.294,103.341-57.499z M131.729-42.612h-22.582c-3.206,0-5.806,2.599-5.806,5.805
			c0,3.205,2.6,5.806,5.806,5.806h22.582c3.206,0,5.806-2.6,5.806-5.806S134.935-42.612,131.729-42.612z M100.984-5.531
			c0,19.814-16.122,35.937-35.937,35.937c-19.815,0-35.937-16.122-35.937-35.937c0-10.771,4.766-20.878,13.072-27.729l0.831-0.686
			v-48.041v-0.269l0.013-0.269l0.046-1.006l0.015-0.288l0.027-0.287c1.094-11.356,10.522-19.918,21.937-19.918h0.271v0.001
			l0.275,0.013l1.005,0.048l0.271,0.013l0.272,0.026c11.364,1.078,19.935,10.51,19.935,21.937v48.043l0.829,0.684l0.129,0.107
			l0.127,0.108l1.086,0.948l0.132,0.116l0.13,0.121C96.802-25.08,100.984-15.486,100.984-5.531z M89.369-5.53
			c0-6.866-2.851-13.254-7.766-17.823l-1.087-0.949l-5.049-4.166v-53.514c0-5.424-4.135-9.877-9.422-10.378l-1.002-0.051
			c-5.417,0-9.87,4.134-10.38,9.421l-0.046,1.006v53.514l-5.051,4.166c-5.579,4.603-8.851,11.41-8.851,18.774
			c0,13.439,10.888,24.326,24.327,24.326C78.482,18.796,89.369,7.909,89.369-5.53z M109.147-93.61h9.21
			c3.206,0,5.805-2.601,5.805-5.805c0-3.206-2.599-5.806-5.805-5.806h-9.21c-3.206,0-5.806,2.6-5.806,5.806
			C103.341-96.211,105.941-93.61,109.147-93.61z M131.729-84.529h-22.582c-3.206,0-5.806,2.6-5.806,5.806
			c0,3.205,2.6,5.805,5.806,5.805h22.582c3.206,0,5.806-2.599,5.806-5.805S134.935-84.529,131.729-84.529z M68.27-21.575v-60.207
			c0-1.781-1.444-3.226-3.226-3.226c-1.782,0-3.225,1.444-3.225,3.226v60.207c-7.629,1.5-13.389,8.221-13.389,16.291
			c0,9.175,7.439,16.611,16.611,16.611c9.176,0,16.611-7.437,16.611-16.611C81.654-13.354,75.899-20.072,68.27-21.575z"/>
	</g>
	<g id="Medium-L" transform="matrix(1 0 0 1 1661.3 1556)">
		<path d="M136.5-36.735c0,2.85-2.31,5.16-5.159,5.16h-22.583c-2.85,0-5.16-2.311-5.16-5.16s2.311-5.159,5.16-5.159h22.583
			C134.19-41.895,136.5-39.585,136.5-36.735z M108.758-94.184h9.21c2.85,0,5.16-2.31,5.16-5.159s-2.311-5.16-5.16-5.16h-9.21
			c-2.85,0-5.16,2.311-5.16,5.16S105.908-94.184,108.758-94.184z M131.341-83.812h-22.583c-2.85,0-5.16,2.311-5.16,5.16
			s2.311,5.16,5.16,5.16h22.583c2.85,0,5.159-2.311,5.159-5.16S134.19-83.812,131.341-83.812z M99.302-5.457
			c0,19.105-15.542,34.646-34.646,34.646c-19.103,0-34.646-15.542-34.646-34.646c0-10.385,4.594-20.129,12.603-26.734l1.299-1.072
			v-48.648v-0.237l0.013-0.239l0.045-1.007l0.013-0.256l0.025-0.256c1.029-10.69,9.906-18.752,20.651-18.752h0.244l0.246,0.012
			l1.002,0.048l0.243,0.012l0.241,0.023C77.333-101.548,85.4-92.67,85.4-81.912v48.65l1.299,1.072l0.113,0.094l0.113,0.098
			l1.086,0.948l0.117,0.104l0.114,0.106C95.272-24.305,99.302-15.053,99.302-5.457z M88.981-5.457
			c0-6.867-2.851-13.255-7.766-17.824L80.13-24.23l-5.05-4.166V-81.91c0-5.424-4.134-9.877-9.422-10.378l-1.003-0.051
			c-5.416,0-9.869,4.134-10.379,9.421l-0.047,1.006v53.514l-5.05,4.167c-5.578,4.602-8.851,11.409-8.851,18.774
			c0,13.438,10.888,24.326,24.326,24.326S88.981,7.981,88.981-5.457z M67.88-21.503V-81.71c0-1.781-1.443-3.226-3.226-3.226
			c-1.781,0-3.225,1.444-3.225,3.226v60.207C53.802-20,48.043-13.28,48.043-5.212c0,9.175,7.44,16.611,16.611,16.611
			c9.175,0,16.611-7.437,16.611-16.611C81.265-13.282,75.51-20.002,67.88-21.503z M108.758-52.267h9.21c2.85,0,5.16-2.311,5.16-5.16
			s-2.311-5.16-5.16-5.16h-9.21c-2.85,0-5.16,2.311-5.16,5.16S105.908-52.267,108.758-52.267z"/>
	</g>
	<g id="Regular-L" transform="matrix(1 0 0 1 1365.01 1556)">
		<path d="M83.124-5.14c0,9.175-7.438,16.611-16.611,16.611C57.339,11.472,49.9,4.035,49.9-5.14c0-8.069,5.758-14.789,13.388-16.291
			v-60.207c0-1.781,1.442-3.225,3.225-3.225c1.781,0,3.225,1.443,3.225,3.225v60.207C77.366-19.929,83.124-13.209,83.124-5.14z
			 M133.198-83.094h-22.583c-2.493,0-4.515,2.021-4.515,4.515c0,2.493,2.022,4.516,4.515,4.516h22.582
			c2.495,0,4.516-2.022,4.516-4.516C137.713-81.073,135.692-83.094,133.198-83.094z M110.617-94.756h9.21
			c2.493,0,4.515-2.021,4.515-4.515c0-2.494-2.022-4.515-4.515-4.515h-9.21c-2.493,0-4.515,2.021-4.515,4.515
			C106.102-96.777,108.124-94.756,110.617-94.756z M99.871-5.385c0,18.394-14.963,33.355-33.355,33.355
			c-18.393,0-33.357-14.963-33.357-33.355c0-9.998,4.423-19.379,12.134-25.738l1.768-1.461v-49.257v-0.211l0.01-0.212l0.048-1.007
			l0.01-0.222l0.021-0.221c0.965-10.023,9.292-17.585,19.369-17.585h0.21v0.001l0.215,0.011l1.003,0.048l0.212,0.01l0.211,0.021
			c10.033,0.951,17.599,9.278,17.599,19.368v49.257l1.766,1.46l0.101,0.082l0.098,0.085l1.086,0.949l0.104,0.091l0.101,0.093
			C95.991-23.532,99.871-14.623,99.871-5.385z M90.837-5.385c0-6.867-2.851-13.254-7.765-17.823l-1.086-0.95l-5.052-4.166v-53.514
			c0-5.424-4.132-9.877-9.421-10.378l-1-0.051c-5.418,0-9.87,4.134-10.38,9.421l-0.047,1.007v53.514l-5.05,4.166
			c-5.58,4.602-8.851,11.409-8.851,18.774c0,13.439,10.887,24.326,24.328,24.326C79.95,18.941,90.837,8.055,90.837-5.385z
			 M133.198-41.178h-22.583c-2.493,0-4.515,2.021-4.515,4.516c0,2.492,2.022,4.515,4.515,4.515h22.582
			c2.495,0,4.516-2.021,4.516-4.515C137.713-39.157,135.692-41.178,133.198-41.178z M110.617-52.84h9.21
			c2.493,0,4.515-2.021,4.515-4.515s-2.022-4.515-4.515-4.515h-9.21c-2.493,0-4.515,2.021-4.515,4.515
			C106.102-54.861,108.124-52.84,110.617-52.84z"/>
	</g>
	<g id="Light-L" transform="matrix(1 0 0 1 1069.2 1556)">
		<path d="M103.426-99.198c0-2.138,1.732-3.87,3.87-3.87h9.208c2.138,0,3.87,1.732,3.87,3.87c0,2.137-1.732,3.87-3.87,3.87h-9.208
			C105.158-95.328,103.426-97.062,103.426-99.198z M107.296-53.412h9.208c2.138,0,3.87-1.733,3.87-3.869
			c0-2.139-1.732-3.87-3.87-3.87h-9.208c-2.138,0-3.87,1.731-3.87,3.87C103.426-55.146,105.158-53.412,107.296-53.412z
			 M66.416-21.358v-60.206c0-1.782-1.443-3.226-3.225-3.226c-1.781,0-3.225,1.443-3.225,3.226v60.206
			C52.338-19.856,46.58-13.136,46.58-5.066c0,9.175,7.438,16.611,16.611,16.611c9.175,0,16.611-7.437,16.611-16.611
			C79.802-13.137,74.047-19.856,66.416-21.358z M95.258-5.313c0,17.681-14.385,32.065-32.066,32.065
			c-17.682,0-32.066-14.385-32.066-32.065c0-9.609,4.252-18.63,11.664-24.745l2.235-1.844v-49.865v-0.182l0.01-0.183l0.048-1.004
			l0.01-0.19l0.018-0.188c0.901-9.361,8.675-16.42,18.083-16.42h0.185l0.184,0.009l1.004,0.048l0.182,0.009l0.181,0.018
			c9.367,0.888,16.429,8.663,16.429,18.084v49.865l2.236,1.845l0.085,0.07l0.084,0.074l1.086,0.949l0.09,0.078l0.084,0.079
			C91.528-22.758,95.258-14.195,95.258-5.313z M87.517-5.313c0-6.867-2.851-13.254-7.766-17.823l-1.086-0.95l-5.051-4.166v-53.514
			c0-5.423-4.133-9.876-9.42-10.378l-1.001-0.05c-5.417,0-9.869,4.133-10.379,9.42l-0.048,1.007v53.514l-5.05,4.166
			c-5.578,4.603-8.85,11.41-8.85,18.774c0,13.439,10.887,24.326,24.326,24.326C76.629,19.014,87.517,8.127,87.517-5.313z
			 M129.878-82.376h-22.582c-2.138,0-3.87,1.731-3.87,3.87c0,2.136,1.732,3.869,3.87,3.869h22.581c2.138,0,3.871-1.733,3.871-3.869
			C133.748-80.645,132.016-82.376,129.878-82.376z M129.878-40.46h-22.582c-2.138,0-3.87,1.732-3.87,3.87
			c0,2.137,1.732,3.87,3.87,3.87h22.581c2.138,0,3.871-1.733,3.871-3.87C133.748-38.728,132.016-40.46,129.878-40.46z"/>
	</g>
	<g id="Thin-L" transform="matrix(1 0 0 1 773.683 1556)">
		<path d="M131.834-36.518c0,1.781-1.443,3.226-3.226,3.226h-22.582c-1.781,0-3.225-1.444-3.225-3.226
			c0-1.782,1.444-3.225,3.225-3.225h22.583C130.39-39.742,131.834-38.3,131.834-36.518z M106.027-53.984h9.208
			c1.78,0,3.226-1.443,3.226-3.225c0-1.782-1.444-3.225-3.226-3.225h-9.208c-1.783,0-3.225,1.442-3.225,3.225
			C102.802-55.428,104.245-53.984,106.027-53.984z M92.7-5.242c0,16.971-13.807,30.776-30.776,30.776
			c-16.971,0-30.776-13.806-30.776-30.776c0-9.223,4.082-17.88,11.195-23.748l2.705-2.232v-50.473v-0.151l0.006-0.151l0.048-1.005
			l0.008-0.158l0.017-0.158c0.836-8.696,8.06-15.253,16.799-15.253h0.152v0.001l0.154,0.008l1.002,0.048l0.151,0.006l0.151,0.015
			c8.701,0.826,15.262,8.048,15.262,16.8v50.473l2.705,2.232l0.072,0.06l0.069,0.06l1.086,0.949l0.074,0.065l0.072,0.066
			C89.119-21.984,92.7-13.766,92.7-5.242z M86.248-5.24c0-6.866-2.851-13.254-7.767-17.822l-1.086-0.95l-5.05-4.166v-53.514
			c0-5.424-4.133-9.877-9.42-10.378l-1.001-0.051c-5.418,0-9.871,4.134-10.379,9.421l-0.048,1.006v53.515l-5.05,4.166
			c-5.58,4.602-8.85,11.409-8.85,18.773c0,13.439,10.887,24.326,24.326,24.326C75.359,19.086,86.248,8.199,86.248-5.24z
			 M128.609-81.658h-22.583c-1.781,0-3.225,1.443-3.225,3.225s1.444,3.225,3.225,3.225h22.582c1.783,0,3.226-1.443,3.226-3.225
			S130.39-81.658,128.609-81.658z M106.027-95.9h9.208c1.78,0,3.226-1.443,3.226-3.225s-1.444-3.226-3.226-3.226h-9.208
			c-1.783,0-3.225,1.444-3.225,3.226S104.245-95.9,106.027-95.9z M65.147-21.285v-60.207c0-1.781-1.444-3.226-3.225-3.226
			s-3.225,1.444-3.225,3.226v60.207C51.068-19.784,45.31-13.064,45.31-4.994c0,9.175,7.438,16.611,16.611,16.611
			c9.175,0,16.611-7.437,16.611-16.611C78.533-13.064,72.777-19.784,65.147-21.285z"/>
	</g>
	<g id="Ultralight-L" transform="matrix(1 0 0 1 477.607 1556)">
		<path d="M102.739-99.053c0-1.425,1.155-2.58,2.58-2.58h9.209c1.423,0,2.58,1.155,2.58,2.58c0,1.424-1.157,2.58-2.58,2.58h-9.209
			C103.894-96.473,102.739-97.629,102.739-99.053z M105.319-54.557h9.209c1.423,0,2.58-1.155,2.58-2.58s-1.157-2.58-2.58-2.58
			h-9.209c-1.425,0-2.58,1.155-2.58,2.58C102.739-55.713,103.894-54.557,105.319-54.557z M127.901-80.941h-22.583
			c-1.425,0-2.58,1.155-2.58,2.58c0,1.424,1.155,2.58,2.58,2.58h22.581c1.425,0,2.582-1.155,2.582-2.58
			S129.324-80.941,127.901-80.941z M64.438-21.213V-81.42c0-1.781-1.443-3.225-3.225-3.225c-1.781,0-3.225,1.443-3.225,3.225v60.207
			c-7.629,1.502-13.386,8.221-13.386,16.291c0,9.175,7.438,16.611,16.611,16.611c9.175,0,16.611-7.437,16.611-16.611
			C77.825-12.992,72.069-19.711,64.438-21.213z M127.901-39.025h-22.583c-1.425,0-2.58,1.155-2.58,2.58
			c0,1.424,1.155,2.58,2.58,2.58h22.581c1.425,0,2.582-1.155,2.582-2.58S129.324-39.025,127.901-39.025z M90.7-5.169
			c0,16.26-13.229,29.486-29.486,29.486c-16.26,0-29.487-13.228-29.487-29.486c0-8.838,3.911-17.13,10.727-22.754l3.173-2.62
			v-51.081v-0.121l0.005-0.122l0.048-1.005L45.685-83l0.013-0.126c0.773-8.029,7.444-14.085,15.515-14.085h0.126v0.002l0.124,0.006
			l1.002,0.048l0.123,0.005l0.12,0.011c8.035,0.763,14.093,7.435,14.093,15.516v51.081l3.173,2.62l0.057,0.048l0.055,0.05
			l1.086,0.949l0.059,0.051l0.058,0.053C87.269-21.209,90.7-13.337,90.7-5.169z M85.539-5.167c0-6.867-2.851-13.255-7.766-17.823
			l-1.086-0.95l-5.05-4.166V-81.62c0-5.424-4.134-9.877-9.421-10.378l-1.001-0.051c-5.418,0-9.87,4.134-10.379,9.421l-0.048,1.007
			v53.514l-5.05,4.166c-5.58,4.602-8.851,11.409-8.851,18.774c0,13.438,10.888,24.326,24.327,24.326
			C74.652,19.159,85.539,8.271,85.539-5.167z"/>
	</g>
	<g id="Black-M" transform="matrix(1 0 0 1 2865.58 1126)">
		<path d="M64.281-10.417c0,7.112-5.764,12.877-12.877,12.877c-7.11,0-12.877-5.765-12.877-12.877
			c0-6.255,4.463-11.465,10.377-12.629v-46.672c0-1.381,1.119-2.5,2.5-2.5s2.5,1.119,2.5,2.5v46.672
			C59.818-21.882,64.281-16.673,64.281-10.417z M103.1-40.854H85.593c-3.313,0-6,2.687-6,6c0,3.313,2.688,6,6,6H103.1
			c3.313,0,6-2.687,6-6S106.412-40.854,103.1-40.854z M82.262-10.608c0,17.016-13.843,30.857-30.856,30.857
			c-17.017,0-30.858-13.843-30.858-30.857c0-9.053,3.921-17.561,10.776-23.433v-35.834v-0.278l0.013-0.276l0.036-0.78l0.014-0.298
			l0.028-0.297c0.997-10.35,9.591-18.153,19.991-18.153h0.286v0.001l0.285,0.014l0.777,0.037l0.282,0.014l0.28,0.026
			c10.357,0.983,18.17,9.578,18.17,19.992v35.843l0.656,0.574l0.138,0.12l0.133,0.124C78.672-27.394,82.262-19.154,82.262-10.608z
			 M70.262-10.607c0-5.323-2.21-10.274-6.02-13.816L63.4-25.16l-3.914-3.229v-41.483c0-4.204-3.205-7.656-7.305-8.045l-0.776-0.039
			c-4.199,0-7.651,3.204-8.046,7.303l-0.036,0.78v41.483l-3.915,3.229c-4.325,3.567-6.861,8.845-6.861,14.554
			c0,10.418,8.44,18.857,18.858,18.857C61.822,8.25,70.262-0.189,70.262-10.607z M79.593-67.347c0,3.313,2.688,6,6,6H103.1
			c3.313,0,6-2.687,6-6s-2.688-6-6-6H85.593C82.28-73.347,79.593-70.66,79.593-67.347z M85.592-44.894h7.141c3.313,0,6-2.687,6-6
			s-2.688-6-6-6h-7.141c-3.313,0-6,2.687-6,6C79.592-47.581,82.279-44.894,85.592-44.894z M85.592-77.387h7.141c3.313,0,6-2.688,6-6
			c0-3.313-2.688-6-6-6h-7.141c-3.313,0-6,2.687-6,6C79.592-80.074,82.279-77.387,85.592-77.387z"/>
	</g>
	<g id="Heavy-M" transform="matrix(1 0 0 1 2569.23 1126)">
		<path d="M79.732-83.387c0-3.038,2.463-5.5,5.5-5.5h7.14c3.037,0,5.5,2.462,5.5,5.5s-2.463,5.5-5.5,5.5h-7.14
			C82.195-77.887,79.732-80.349,79.732-83.387z M102.738-40.354H85.232c-3.037,0-5.5,2.462-5.5,5.5c0,3.037,2.463,5.5,5.5,5.5
			h17.506c3.037,0,5.5-2.463,5.5-5.5C108.238-37.892,105.775-40.354,102.738-40.354z M102.738-72.847H85.232
			c-3.037,0-5.5,2.462-5.5,5.5s2.463,5.5,5.5,5.5h17.506c3.037,0,5.5-2.462,5.5-5.5S105.775-72.847,102.738-72.847z M80.902-10.607
			c0,16.465-13.394,29.857-29.856,29.857S21.186,5.856,21.186-10.607c0-8.911,3.928-17.277,10.775-22.969v-36.298v-0.254
			l0.013-0.254l0.036-0.78l0.013-0.272l0.026-0.272c0.945-9.833,9.111-17.249,18.994-17.249h0.263v-0.001l0.262,0.013l0.778,0.037
			l0.259,0.013l0.258,0.023c9.843,0.936,17.265,9.102,17.265,18.996v36.299l0.037,0.031l0.118,0.104l0.843,0.736l0.125,0.11
			l0.123,0.113C77.429-26.85,80.902-18.878,80.902-10.607z M69.901-10.607c0-5.323-2.21-10.274-6.02-13.816L63.04-25.16
			l-3.914-3.229v-41.483c0-4.204-3.205-7.656-7.305-8.045l-0.777-0.039c-4.198,0-7.65,3.204-8.045,7.303l-0.037,0.78v41.483
			l-3.914,3.229c-4.325,3.567-6.861,8.845-6.861,14.554c0,10.418,8.439,18.857,18.857,18.857S69.901-0.189,69.901-10.607z
			 M85.232-45.394h7.14c3.037,0,5.5-2.463,5.5-5.5c0-3.038-2.463-5.5-5.5-5.5h-7.14c-3.037,0-5.5,2.462-5.5,5.5
			C79.732-47.856,82.195-45.394,85.232-45.394z M53.543-23.046v-46.672c0-1.381-1.119-2.5-2.5-2.5s-2.5,1.119-2.5,2.5v46.672
			c-5.914,1.164-10.377,6.374-10.377,12.629c0,7.112,5.767,12.877,12.877,12.877c7.112,0,12.877-5.765,12.877-12.877
			C63.92-16.673,59.458-21.882,53.543-23.046z"/>
	</g>
	<g id="Bold-M" transform="matrix(1 0 0 1 2272.94 1126)">
		<path d="M70.266-31.751l-0.111-0.103l-0.114-0.101l-0.842-0.736l-0.107-0.094l-0.11-0.091l-0.279-0.23v-36.771
			c0-9.376-7.032-17.115-16.357-18l-0.234-0.022l-0.233-0.011l-0.778-0.037l-0.238-0.011v-0.002h-0.241
			c-9.363,0-17.103,7.027-18,16.345l-0.022,0.247l-0.013,0.248l-0.035,0.78l-0.012,0.23v0.231v36.77l-0.278,0.23
			c-6.671,5.501-10.497,13.619-10.497,22.267c0,15.912,12.945,28.857,28.857,28.857S79.476,5.302,79.476-10.61
			C79.476-18.603,76.119-26.309,70.266-31.751z M50.623,8.25c-10.418,0-18.858-8.439-18.858-18.857
			c0-5.709,2.536-10.986,6.86-14.554l3.916-3.229v-41.483l0.035-0.78c0.396-4.099,3.848-7.303,8.047-7.303l0.776,0.039
			c4.099,0.389,7.304,3.841,7.304,8.045v41.483l3.914,3.229l0.842,0.736c3.811,3.542,6.021,8.493,6.021,13.816
			C69.479-0.189,61.039,8.25,50.623,8.25z M63.498-10.417c0,7.112-5.765,12.877-12.877,12.877c-7.109,0-12.877-5.765-12.877-12.877
			c0-6.255,4.464-11.464,10.377-12.629v-46.672c0-1.381,1.119-2.5,2.5-2.5s2.5,1.119,2.5,2.5v46.672
			C59.036-21.882,63.498-16.673,63.498-10.417z M79.809-50.894c0-2.762,2.237-5,5-5h7.14c2.762,0,5,2.238,5,5s-2.238,5-5,5h-7.14
			C82.046-45.894,79.809-48.133,79.809-50.894z M79.809-83.387c0-2.762,2.237-5,5-5h7.14c2.762,0,5,2.238,5,5c0,2.761-2.238,5-5,5
			h-7.14C82.046-78.387,79.809-80.626,79.809-83.387z M107.315-34.854c0,2.762-2.238,5-5,5H84.809c-2.763,0-5-2.239-5-5
			c0-2.762,2.237-5,5-5h17.506C105.077-39.854,107.315-37.615,107.315-34.854z M107.315-67.347c0,2.762-2.238,5-5,5H84.809
			c-2.763,0-5-2.239-5-5c0-2.762,2.237-5,5-5h17.506C105.077-72.347,107.315-70.108,107.315-67.347z"/>
	</g>
	<g id="Semibold-M" transform="matrix(1 0 0 1 1976.52 1126)">
		<path d="M80.021-50.894c0-2.485,2.015-4.5,4.5-4.5h7.14c2.485,0,4.5,2.015,4.5,4.5s-2.015,4.5-4.5,4.5h-7.14
			C82.036-46.394,80.021-48.409,80.021-50.894z M102.027-39.354H84.521c-2.485,0-4.5,2.015-4.5,4.5c0,2.484,2.015,4.5,4.5,4.5
			h17.506c2.485,0,4.5-2.015,4.5-4.5S104.512-39.354,102.027-39.354z M78.193-10.608c0,15.36-12.497,27.857-27.857,27.857
			S22.478,4.752,22.478-10.608c0-8.35,3.694-16.185,10.134-21.495l0.644-0.531v-37.241v-0.208l0.01-0.208l0.036-0.78l0.011-0.223
			l0.021-0.223c0.848-8.804,8.157-15.44,17.005-15.44h0.21v0.001l0.214,0.01l0.778,0.037l0.211,0.01l0.211,0.021
			c8.81,0.836,15.453,8.146,15.453,17.005v37.242l0.643,0.53l0.1,0.083l0.099,0.084l0.842,0.735l0.103,0.09l0.101,0.094
			C74.952-25.763,78.193-18.325,78.193-10.608z M69.19-10.607c0-5.323-2.21-10.274-6.02-13.816l-0.843-0.736l-3.914-3.229v-41.483
			c0-4.204-3.205-7.656-7.304-8.045l-0.776-0.039c-4.199,0-7.651,3.204-8.047,7.303l-0.035,0.78v41.483l-3.915,3.229
			c-4.325,3.567-6.861,8.845-6.861,14.554c0,10.418,8.44,18.857,18.858,18.857C60.75,8.25,69.19-0.189,69.19-10.607z M84.521-78.887
			h7.14c2.485,0,4.5-2.016,4.5-4.5c0-2.485-2.015-4.5-4.5-4.5h-7.14c-2.485,0-4.5,2.015-4.5,4.5
			C80.021-80.902,82.036-78.887,84.521-78.887z M102.027-71.847H84.521c-2.485,0-4.5,2.015-4.5,4.5c0,2.484,2.015,4.5,4.5,4.5
			h17.506c2.485,0,4.5-2.015,4.5-4.5S104.512-71.847,102.027-71.847z M52.833-23.046v-46.672c0-1.381-1.119-2.5-2.5-2.5
			c-1.382,0-2.5,1.119-2.5,2.5v46.672c-5.914,1.163-10.379,6.373-10.379,12.629c0,7.112,5.768,12.877,12.877,12.877
			c7.113,0,12.877-5.765,12.877-12.877C63.208-16.672,58.748-21.881,52.833-23.046z"/>
	</g>
	<g id="Medium-M" transform="matrix(1 0 0 1 1680.03 1126)">
		<path d="M105.8-34.854c0,2.209-1.791,4-4,4H84.294c-2.209,0-4-1.791-4-4s1.791-4,4-4H101.8
			C104.009-38.854,105.8-37.063,105.8-34.854z M84.294-79.387h7.14c2.209,0,4-1.791,4-4s-1.791-4-4-4h-7.14c-2.209,0-4,1.791-4,4
			S82.085-79.387,84.294-79.387z M101.8-71.347H84.294c-2.209,0-4,1.791-4,4s1.791,4,4,4H101.8c2.209,0,4-1.791,4-4
			S104.009-71.347,101.8-71.347z M76.964-10.607c0,14.811-12.048,26.857-26.857,26.857c-14.809,0-26.858-12.048-26.858-26.857
			c0-8.05,3.562-15.604,9.77-20.724l1.007-0.831v-37.712v-0.185l0.01-0.186l0.035-0.78l0.01-0.198l0.02-0.198
			c0.798-8.287,7.68-14.536,16.009-14.536h0.189l0.19,0.009l0.777,0.037l0.188,0.009l0.187,0.019
			c8.294,0.788,14.548,7.67,14.548,16.01v37.713l1.007,0.831l0.088,0.073l0.088,0.075l0.842,0.735l0.091,0.08l0.089,0.083
			C73.84-25.218,76.964-18.046,76.964-10.607z M68.964-10.607c0-5.323-2.21-10.274-6.021-13.816l-0.842-0.736l-3.914-3.229v-41.483
			c0-4.204-3.205-7.656-7.304-8.045l-0.777-0.039c-4.199,0-7.65,3.204-8.046,7.303l-0.036,0.78v41.483l-3.915,3.229
			c-4.324,3.567-6.86,8.845-6.86,14.554c0,10.418,8.439,18.857,18.857,18.857C60.524,8.25,68.964-0.189,68.964-10.607z
			 M52.606-23.046v-46.672c0-1.381-1.118-2.5-2.5-2.5c-1.381,0-2.5,1.119-2.5,2.5v46.672c-5.913,1.165-10.377,6.374-10.377,12.629
			c0,7.112,5.768,12.877,12.877,12.877c7.112,0,12.877-5.765,12.877-12.877C62.983-16.673,58.521-21.882,52.606-23.046z
			 M84.294-46.894h7.14c2.209,0,4-1.791,4-4s-1.791-4-4-4h-7.14c-2.209,0-4,1.791-4,4S82.085-46.894,84.294-46.894z"/>
	</g>
	<g id="Regular-M" transform="matrix(1 0 0 1 1383.58 1126)">
		<path d="M65.073-10.417c0,7.112-5.766,12.877-12.877,12.877S39.318-3.305,39.318-10.417c0-6.256,4.463-11.465,10.378-12.629
			v-46.672c0-1.381,1.118-2.5,2.5-2.5c1.381,0,2.5,1.119,2.5,2.5v46.672C60.61-21.882,65.073-16.673,65.073-10.417z M103.891-70.847
			H86.385c-1.933,0-3.5,1.566-3.5,3.5c0,1.933,1.567,3.5,3.5,3.5h17.505c1.935,0,3.501-1.567,3.501-3.5
			C107.391-69.28,105.824-70.847,103.891-70.847z M86.386-79.887h7.14c1.933,0,3.5-1.567,3.5-3.5c0-1.934-1.567-3.5-3.5-3.5h-7.14
			c-1.933,0-3.5,1.566-3.5,3.5C82.886-81.454,84.453-79.887,86.386-79.887z M78.056-10.607c0,14.259-11.6,25.857-25.856,25.857
			c-14.258,0-25.858-11.6-25.858-25.857c0-7.75,3.429-15.022,9.406-19.952l1.37-1.132v-38.184v-0.164l0.008-0.164l0.037-0.78
			l0.008-0.172l0.017-0.171c0.748-7.771,7.203-13.632,15.015-13.632h0.163v0.001l0.167,0.008l0.777,0.037l0.164,0.008l0.164,0.017
			c7.777,0.737,13.643,7.192,13.643,15.014v38.184l1.369,1.132l0.078,0.063l0.076,0.066l0.842,0.735l0.08,0.07l0.078,0.072
			C75.048-24.675,78.056-17.769,78.056-10.607z M71.053-10.607c0-5.323-2.21-10.274-6.02-13.816l-0.842-0.736l-3.916-3.229v-41.483
			c0-4.204-3.203-7.656-7.303-8.045l-0.775-0.039c-4.2,0-7.651,3.204-8.047,7.303l-0.036,0.78v41.483l-3.915,3.229
			c-4.325,3.567-6.861,8.845-6.861,14.554c0,10.418,8.439,18.857,18.858,18.857C62.613,8.25,71.053-0.189,71.053-10.607z
			 M103.891-38.354H86.385c-1.933,0-3.5,1.566-3.5,3.5c0,1.933,1.567,3.5,3.5,3.5h17.505c1.935,0,3.501-1.566,3.501-3.5
			S105.824-38.354,103.891-38.354z M86.386-47.394h7.14c1.933,0,3.5-1.566,3.5-3.5s-1.567-3.5-3.5-3.5h-7.14
			c-1.933,0-3.5,1.566-3.5,3.5C82.886-48.961,84.453-47.394,86.386-47.394z"/>
	</g>
	<g id="Light-M" transform="matrix(1 0 0 1 1087.68 1126)">
		<path d="M80.227-83.387c0-1.657,1.343-3,3-3h7.139c1.657,0,3,1.343,3,3c0,1.656-1.343,3-3,3h-7.139
			C81.57-80.387,80.227-81.73,80.227-83.387z M83.227-47.894h7.139c1.657,0,3-1.344,3-3c0-1.657-1.343-3-3-3h-7.139
			c-1.657,0-3,1.343-3,3C80.227-49.237,81.57-47.894,83.227-47.894z M51.538-23.046v-46.672c0-1.381-1.119-2.5-2.5-2.5
			s-2.5,1.119-2.5,2.5v46.672c-5.914,1.164-10.377,6.374-10.377,12.629c0,7.112,5.767,12.877,12.877,12.877
			c7.112,0,12.877-5.765,12.877-12.877C61.915-16.673,57.453-21.882,51.538-23.046z M73.895-10.608
			c0,13.706-11.151,24.857-24.857,24.857c-13.707,0-24.857-11.151-24.857-24.857c0-7.449,3.296-14.441,9.042-19.182l1.732-1.43
			v-38.655v-0.141l0.008-0.142L35-70.936l0.008-0.147l0.014-0.146c0.698-7.257,6.725-12.729,14.018-12.729h0.144l0.143,0.007
			l0.778,0.037l0.141,0.007l0.141,0.014c7.261,0.688,12.735,6.716,12.735,14.019v38.655l1.733,1.43l0.065,0.055l0.065,0.058
			l0.842,0.735l0.069,0.061l0.065,0.062C71.004-24.131,73.895-17.493,73.895-10.608z M67.895-10.607
			c0-5.323-2.21-10.274-6.021-13.816l-0.842-0.736l-3.915-3.229v-41.483c0-4.204-3.204-7.656-7.303-8.045l-0.776-0.039
			c-4.199,0-7.65,3.204-8.046,7.303l-0.037,0.78v41.483l-3.915,3.229c-4.324,3.567-6.86,8.845-6.86,14.554
			C30.18-0.189,38.62,8.25,49.038,8.25C59.455,8.25,67.895-0.189,67.895-10.607z M100.733-70.347H83.227c-1.657,0-3,1.343-3,3
			c0,1.656,1.343,3,3,3h17.505c1.657,0,3.001-1.344,3.001-3C103.733-69.004,102.39-70.347,100.733-70.347z M100.733-37.854H83.227
			c-1.657,0-3,1.343-3,3c0,1.656,1.343,3,3,3h17.505c1.657,0,3.001-1.344,3.001-3C103.733-36.511,102.39-37.854,100.733-37.854z"/>
	</g>
	<g id="Thin-M" transform="matrix(1 0 0 1 792.042 1126)">
		<path d="M102.157-34.854c0,1.381-1.119,2.5-2.501,2.5H82.151c-1.381,0-2.5-1.119-2.5-2.5c0-1.382,1.119-2.5,2.5-2.5h17.506
			C101.038-37.354,102.157-36.235,102.157-34.854z M82.152-48.394h7.139c1.38,0,2.5-1.119,2.5-2.5c0-1.382-1.119-2.5-2.5-2.5h-7.139
			c-1.382,0-2.5,1.118-2.5,2.5C79.652-49.513,80.771-48.394,82.152-48.394z M71.821-10.609c0,13.155-10.703,23.857-23.857,23.857
			c-13.156,0-23.857-10.702-23.857-23.857c0-7.149,3.164-13.86,8.679-18.409l2.097-1.73v-39.126v-0.117l0.005-0.117l0.037-0.779
			l0.006-0.123l0.013-0.122c0.648-6.741,6.248-11.824,13.022-11.824h0.118v0.001l0.119,0.006l0.777,0.037l0.117,0.005l0.117,0.011
			c6.745,0.641,11.831,6.239,11.831,13.023v39.126l2.097,1.73l0.056,0.046l0.054,0.047l0.842,0.735l0.058,0.051l0.056,0.052
			C69.045-23.588,71.821-17.217,71.821-10.609z M66.819-10.607c0-5.323-2.21-10.274-6.021-13.816l-0.842-0.736l-3.915-3.229v-41.483
			c0-4.204-3.204-7.656-7.303-8.045l-0.776-0.039c-4.2,0-7.651,3.204-8.046,7.303l-0.037,0.78v41.483l-3.915,3.229
			c-4.325,3.567-6.86,8.845-6.86,14.554c0,10.418,8.439,18.857,18.857,18.857C58.379,8.25,66.819-0.189,66.819-10.607z
			 M99.657-69.847H82.151c-1.381,0-2.5,1.119-2.5,2.5s1.119,2.5,2.5,2.5h17.505c1.382,0,2.501-1.119,2.501-2.5
			S101.038-69.847,99.657-69.847z M82.152-80.887h7.139c1.38,0,2.5-1.119,2.5-2.5s-1.119-2.5-2.5-2.5h-7.139
			c-1.382,0-2.5,1.119-2.5,2.5S80.771-80.887,82.152-80.887z M50.462-23.046v-46.672c0-1.381-1.119-2.5-2.5-2.5s-2.5,1.119-2.5,2.5
			v46.672c-5.914,1.164-10.377,6.373-10.377,12.629c0,7.112,5.766,12.877,12.877,12.877c7.112,0,12.877-5.765,12.877-12.877
			C60.839-16.673,56.377-21.882,50.462-23.046z"/>
	</g>
	<g id="Ultralight-M" transform="matrix(1 0 0 1 495.893 1126)">
		<path d="M79.589-83.387c0-1.104,0.896-2,2-2h7.139c1.104,0,2,0.896,2,2c0,1.104-0.896,2-2,2h-7.139
			C80.485-81.387,79.589-82.283,79.589-83.387z M81.589-48.894h7.139c1.104,0,2-0.896,2-2s-0.896-2-2-2h-7.139c-1.104,0-2,0.896-2,2
			C79.589-49.79,80.485-48.894,81.589-48.894z M99.094-69.347H81.588c-1.104,0-2,0.896-2,2c0,1.104,0.896,2,2,2h17.505
			c1.104,0,2.001-0.896,2.001-2S100.198-69.347,99.094-69.347z M49.899-23.046v-46.672c0-1.381-1.119-2.5-2.5-2.5
			s-2.5,1.119-2.5,2.5v46.672c-5.914,1.164-10.377,6.373-10.377,12.629c0,7.112,5.766,12.877,12.877,12.877
			c7.112,0,12.877-5.765,12.877-12.877C60.276-16.673,55.814-21.882,49.899-23.046z M99.094-36.854H81.588c-1.104,0-2,0.896-2,2
			c0,1.104,0.896,2,2,2h17.505c1.104,0,2.001-0.896,2.001-2S100.198-36.854,99.094-36.854z M70.256-10.608
			c0,12.604-10.255,22.857-22.857,22.857c-12.604,0-22.858-10.254-22.858-22.857c0-6.852,3.031-13.279,8.315-17.639l2.46-2.031
			v-39.598v-0.094l0.004-0.095l0.037-0.779l0.004-0.099l0.01-0.098c0.6-6.225,5.771-10.919,12.027-10.919h0.098v0.002l0.096,0.004
			l0.777,0.037l0.095,0.004l0.093,0.009c6.229,0.591,10.925,5.763,10.925,12.027v39.598l2.46,2.031l0.044,0.037l0.043,0.038
			l0.842,0.736l0.046,0.039l0.045,0.041C67.597-23.043,70.256-16.94,70.256-10.608z M66.256-10.607
			c0-5.323-2.21-10.274-6.021-13.816l-0.842-0.736l-3.915-3.229v-41.483c0-4.204-3.204-7.656-7.303-8.045L47.4-77.957
			c-4.2,0-7.651,3.204-8.046,7.303l-0.037,0.78v41.483l-3.915,3.229c-4.325,3.567-6.861,8.845-6.861,14.554
			c0,10.418,8.44,18.857,18.858,18.857C57.816,8.25,66.256-0.189,66.256-10.607z"/>
	</g>
	<g id="Black-S" transform="matrix(1 0 0 1 2880.28 696)">
		<path d="M49.698-16.095c0,5.569-4.513,10.083-10.082,10.083c-5.567,0-10.083-4.514-10.083-10.083c0-4.898,3.494-8.977,8.125-9.889
			v-36.544c0-1.081,0.876-1.958,1.958-1.958c1.081,0,1.957,0.876,1.957,1.958v36.544C46.204-25.072,49.698-20.993,49.698-16.095z
			 M80.093-39.927H66.386c-2.594,0-4.698,2.104-4.698,4.698c0,2.594,2.104,4.698,4.698,4.698h13.707
			c2.594,0,4.698-2.104,4.698-4.698C84.791-37.823,82.687-39.927,80.093-39.927z M63.778-16.245
			c0,13.323-10.839,24.161-24.161,24.161c-13.323,0-24.162-10.839-24.162-24.161c0-7.088,3.07-13.75,8.438-18.348V-62.65v-0.218
			l0.01-0.216l0.028-0.611l0.011-0.233l0.022-0.232c0.78-8.104,7.51-14.214,15.652-14.214h0.225v0l0.223,0.011l0.609,0.029
			l0.221,0.011l0.22,0.021c8.109,0.77,14.227,7.5,14.227,15.654v28.065l0.515,0.45l0.107,0.094l0.104,0.097
			C60.966-29.388,63.778-22.936,63.778-16.245z M54.382-16.244c0-4.168-1.73-8.045-4.714-10.818l-0.659-0.576l-3.064-2.529v-32.481
			c0-3.292-2.51-5.995-5.72-6.299l-0.608-0.03c-3.287,0-5.99,2.509-6.3,5.718l-0.028,0.611v32.481l-3.065,2.529
			c-3.386,2.793-5.372,6.925-5.372,11.396c0,8.157,6.609,14.766,14.766,14.766C47.774-1.479,54.382-8.087,54.382-16.244z
			 M61.688-60.671c0,2.594,2.104,4.698,4.698,4.698h13.707c2.594,0,4.698-2.104,4.698-4.698c0-2.594-2.104-4.698-4.698-4.698H66.386
			C63.792-65.369,61.688-63.265,61.688-60.671z M66.385-43.09h5.591c2.595,0,4.698-2.104,4.698-4.698
			c0-2.594-2.104-4.698-4.698-4.698h-5.591c-2.594,0-4.698,2.104-4.698,4.698C61.687-45.194,63.791-43.09,66.385-43.09z
			 M66.385-68.532h5.591c2.595,0,4.698-2.104,4.698-4.698c0-2.594-2.104-4.698-4.698-4.698h-5.591c-2.594,0-4.698,2.104-4.698,4.698
			C61.687-70.637,63.791-68.532,66.385-68.532z"/>
	</g>
	<g id="Heavy-S" transform="matrix(1 0 0 1 2583.76 696)">
		<path d="M61.942-73.23c0-2.379,1.929-4.307,4.307-4.307h5.591c2.378,0,4.307,1.928,4.307,4.307s-1.929,4.307-4.307,4.307h-5.591
			C63.871-68.923,61.942-70.851,61.942-73.23z M79.956-39.535H66.249c-2.378,0-4.307,1.928-4.307,4.307
			c0,2.378,1.929,4.307,4.307,4.307h13.707c2.378,0,4.307-1.929,4.307-4.307C84.262-37.607,82.334-39.535,79.956-39.535z
			 M79.956-64.977H66.249c-2.378,0-4.307,1.928-4.307,4.306c0,2.379,1.929,4.307,4.307,4.307h13.707
			c2.378,0,4.307-1.928,4.307-4.307C84.262-63.049,82.334-64.977,79.956-64.977z M62.858-16.244
			c0,12.892-10.487,23.378-23.377,23.378c-12.891,0-23.38-10.487-23.38-23.378c0-6.978,3.075-13.528,8.437-17.985v-28.421v-0.199
			l0.011-0.199l0.027-0.611l0.01-0.213l0.021-0.213c0.74-7.699,7.134-13.506,14.872-13.506h0.206v-0.001l0.205,0.01l0.609,0.029
			l0.202,0.01l0.202,0.018c7.707,0.732,13.518,7.127,13.518,14.874v28.422l0.029,0.024l0.093,0.081l0.66,0.577l0.098,0.086
			l0.097,0.089C60.139-28.961,62.858-22.72,62.858-16.244z M54.245-16.244c0-4.168-1.73-8.045-4.714-10.818l-0.658-0.577
			l-3.065-2.529v-32.481c0-3.292-2.509-5.995-5.72-6.299l-0.608-0.03c-3.287,0-5.99,2.509-6.299,5.718l-0.029,0.611v32.481
			l-3.064,2.528c-3.387,2.793-5.372,6.926-5.372,11.396c0,8.157,6.607,14.765,14.765,14.765S54.245-8.086,54.245-16.244z
			 M66.249-43.481h5.591c2.378,0,4.307-1.928,4.307-4.307s-1.929-4.306-4.307-4.306h-5.591c-2.378,0-4.307,1.928-4.307,4.306
			S63.871-43.481,66.249-43.481z M41.437-25.983v-36.544c0-1.081-0.877-1.958-1.958-1.958s-1.957,0.876-1.957,1.958v36.544
			c-4.631,0.912-8.126,4.991-8.126,9.889c0,5.569,4.516,10.083,10.083,10.083c5.569,0,10.083-4.514,10.083-10.083
			C49.562-20.993,46.068-25.072,41.437-25.983z"/>
	</g>
	<g id="Bold-S" transform="matrix(1 0 0 1 2287.27 696)">
		<path d="M54.693-32.846l-0.087-0.08l-0.089-0.079l-0.66-0.576l-0.084-0.074l-0.086-0.071l-0.219-0.181v-28.792
			c0-7.341-5.506-13.401-12.809-14.094l-0.184-0.018l-0.182-0.009l-0.609-0.029l-0.188-0.008v-0.001h-0.188
			c-7.331,0-13.392,5.502-14.094,12.798l-0.018,0.193l-0.011,0.194l-0.027,0.611l-0.009,0.181v0.181v28.791l-0.218,0.181
			c-5.224,4.307-8.22,10.664-8.22,17.435c0,12.459,10.137,22.595,22.596,22.595S61.904-3.834,61.904-16.293
			C61.904-22.551,59.276-28.585,54.693-32.846z M39.312-1.525c-8.157,0-14.766-6.608-14.766-14.765c0-4.47,1.985-8.603,5.371-11.396
			l3.066-2.528v-32.481l0.027-0.611c0.31-3.209,3.013-5.718,6.301-5.718l0.607,0.03c3.21,0.305,5.719,3.007,5.719,6.299v32.481
			l3.065,2.529l0.659,0.577c2.983,2.773,4.714,6.65,4.714,10.818C54.077-8.133,47.468-1.525,39.312-1.525z M49.393-16.142
			c0,5.569-4.514,10.083-10.083,10.083c-5.566,0-10.082-4.514-10.082-10.083c0-4.897,3.495-8.976,8.125-9.889v-36.544
			c0-1.081,0.877-1.958,1.957-1.958c1.082,0,1.958,0.876,1.958,1.958v36.544C45.9-25.119,49.393-21.04,49.393-16.142z
			 M62.166-47.835c0-2.162,1.752-3.915,3.914-3.915h5.591c2.163,0,3.915,1.753,3.915,3.915c0,2.163-1.752,3.915-3.915,3.915H66.08
			C63.917-43.92,62.166-45.673,62.166-47.835z M62.166-73.277c0-2.163,1.752-3.915,3.914-3.915h5.591
			c2.163,0,3.915,1.752,3.915,3.915c0,2.162-1.752,3.915-3.915,3.915H66.08C63.917-69.362,62.166-71.115,62.166-73.277z
			 M83.703-35.275c0,2.163-1.753,3.915-3.915,3.915H66.08c-2.162,0-3.914-1.753-3.914-3.915c0-2.163,1.752-3.915,3.914-3.915h13.708
			C81.95-39.19,83.703-37.438,83.703-35.275z M83.703-60.718c0,2.163-1.753,3.915-3.915,3.915H66.08
			c-2.162,0-3.914-1.753-3.914-3.915c0-2.162,1.752-3.915,3.914-3.915h13.708C81.95-64.633,83.703-62.88,83.703-60.718z"/>
	</g>
	<g id="Semibold-S" transform="matrix(1 0 0 1 1990.7 696)">
		<path d="M62.474-47.889c0-1.946,1.577-3.524,3.523-3.524h5.59c1.946,0,3.523,1.578,3.523,3.524c0,1.946-1.577,3.523-3.523,3.523
			h-5.59C64.051-44.365,62.474-45.943,62.474-47.889z M79.704-38.853H65.997c-1.946,0-3.523,1.578-3.523,3.523
			c0,1.945,1.577,3.523,3.523,3.523h13.707c1.945,0,3.523-1.577,3.523-3.523C83.228-37.275,81.65-38.853,79.704-38.853z
			 M61.042-16.346c0,12.027-9.785,21.813-21.813,21.813S17.417-4.318,17.417-16.346c0-6.538,2.893-12.672,7.935-16.831l0.504-0.416
			v-29.16v-0.163l0.008-0.163l0.028-0.611l0.009-0.174l0.017-0.174c0.664-6.893,6.387-12.09,13.314-12.09h0.165v0l0.167,0.008
			l0.609,0.029l0.165,0.008l0.165,0.016c6.898,0.655,12.101,6.379,12.101,13.315v29.161l0.503,0.416l0.078,0.065l0.077,0.065
			l0.659,0.576l0.08,0.07l0.079,0.073C58.504-28.211,61.042-22.388,61.042-16.346z M53.992-16.345c0-4.168-1.73-8.045-4.713-10.818
			l-0.66-0.577l-3.064-2.529V-62.75c0-3.292-2.51-5.995-5.719-6.299l-0.608-0.031c-3.287,0-5.99,2.509-6.301,5.718L32.9-62.75
			v32.481l-3.065,2.529c-3.387,2.793-5.372,6.925-5.372,11.396c0,8.157,6.608,14.765,14.766,14.765
			C47.384-1.58,53.992-8.188,53.992-16.345z M65.997-69.808h5.59c1.946,0,3.523-1.578,3.523-3.523c0-1.946-1.577-3.523-3.523-3.523
			h-5.59c-1.946,0-3.523,1.577-3.523,3.523C62.474-71.386,64.051-69.808,65.997-69.808z M79.704-64.295H65.997
			c-1.946,0-3.523,1.578-3.523,3.524c0,1.945,1.577,3.523,3.523,3.523h13.707c1.945,0,3.523-1.578,3.523-3.523
			C83.228-62.718,81.65-64.295,79.704-64.295z M41.186-26.084v-36.544c0-1.081-0.876-1.958-1.958-1.958s-1.957,0.876-1.957,1.958
			v36.544c-4.631,0.911-8.127,4.99-8.127,9.888c0,5.569,4.516,10.083,10.083,10.083c5.569,0,10.083-4.514,10.083-10.083
			C49.31-21.093,45.817-25.172,41.186-26.084z"/>
	</g>
	<g id="Medium-S" transform="matrix(1 0 0 1 1694.09 696)">
		<path d="M82.783-35.384c0,1.73-1.402,3.132-3.132,3.132H65.944c-1.729,0-3.132-1.402-3.132-3.132c0-1.729,1.402-3.132,3.132-3.132
			h13.707C81.381-38.516,82.783-37.113,82.783-35.384z M65.944-70.253h5.591c1.729,0,3.132-1.403,3.132-3.132
			s-1.402-3.132-3.132-3.132h-5.591c-1.729,0-3.132,1.402-3.132,3.132S64.215-70.253,65.944-70.253z M79.651-63.958H65.944
			c-1.729,0-3.132,1.402-3.132,3.132c0,1.729,1.402,3.132,3.132,3.132h13.707c1.729,0,3.132-1.402,3.132-3.132
			C82.783-62.556,81.381-63.958,79.651-63.958z M60.205-16.399c0,11.597-9.434,21.029-21.029,21.029s-21.03-9.433-21.03-21.029
			c0-6.303,2.788-12.217,7.649-16.227l0.788-0.651v-29.528v-0.145l0.008-0.146l0.027-0.611l0.008-0.155l0.016-0.155
			c0.624-6.489,6.013-11.382,12.534-11.382h0.148l0.149,0.007l0.608,0.029l0.147,0.007l0.146,0.015
			c6.494,0.617,11.391,6.005,11.391,12.536v29.529l0.789,0.65l0.068,0.058l0.069,0.059l0.658,0.576l0.071,0.063l0.07,0.065
			C57.759-27.839,60.205-22.223,60.205-16.399z M53.941-16.399c0-4.168-1.73-8.045-4.715-10.818l-0.659-0.577l-3.064-2.528v-32.481
			c0-3.292-2.51-5.995-5.719-6.299l-0.608-0.031c-3.288,0-5.99,2.509-6.301,5.718l-0.027,0.611v32.481l-3.066,2.529
			c-3.386,2.793-5.371,6.925-5.371,11.396c0,8.157,6.608,14.766,14.766,14.766C47.332-1.633,53.941-8.242,53.941-16.399z
			 M41.132-26.138v-36.544c0-1.081-0.875-1.957-1.957-1.957c-1.081,0-1.958,0.876-1.958,1.957v36.544
			c-4.63,0.912-8.125,4.991-8.125,9.888c0,5.569,4.517,10.083,10.083,10.083c5.569,0,10.083-4.514,10.083-10.083
			C49.258-21.148,45.764-25.227,41.132-26.138z M65.944-44.811h5.591c1.729,0,3.132-1.402,3.132-3.132
			c0-1.73-1.402-3.132-3.132-3.132h-5.591c-1.729,0-3.132,1.402-3.132,3.132C62.812-46.213,64.215-44.811,65.944-44.811z"/>
	</g>
	<g id="Regular-S" transform="matrix(1 0 0 1 1397.53 696)">
		<path d="M51.512-16.304c0,5.569-4.514,10.083-10.083,10.083c-5.568,0-10.083-4.514-10.083-10.083c0-4.898,3.495-8.977,8.126-9.888
			v-36.544c0-1.081,0.875-1.958,1.958-1.958c1.082,0,1.958,0.876,1.958,1.958v36.544C48.018-25.281,51.512-21.202,51.512-16.304z
			 M81.906-63.621H68.199c-1.514,0-2.741,1.227-2.741,2.741c0,1.513,1.227,2.74,2.741,2.74h13.706c1.515,0,2.741-1.227,2.741-2.74
			C84.647-62.394,83.42-63.621,81.906-63.621z M68.2-70.699h5.59c1.513,0,2.741-1.227,2.741-2.74c0-1.514-1.228-2.741-2.741-2.741
			H68.2c-1.513,0-2.741,1.227-2.741,2.741C65.459-71.926,66.687-70.699,68.2-70.699z M61.677-16.453
			c0,11.165-9.083,20.247-20.246,20.247c-11.164,0-20.247-9.083-20.247-20.247c0-6.068,2.685-11.763,7.365-15.623l1.072-0.886
			V-62.86v-0.128l0.006-0.128l0.029-0.611l0.006-0.135l0.013-0.134c0.585-6.084,5.64-10.674,11.756-10.674h0.127v0.001l0.131,0.006
			l0.609,0.029l0.128,0.006l0.128,0.013c6.09,0.577,10.682,5.631,10.682,11.756v29.898l1.072,0.886l0.061,0.05l0.06,0.052
			l0.659,0.576l0.063,0.055l0.061,0.057C59.323-27.468,61.677-22.061,61.677-16.453z M56.194-16.453
			c0-4.168-1.73-8.045-4.713-10.818l-0.659-0.577l-3.066-2.529v-32.481c0-3.292-2.508-5.995-5.718-6.299l-0.607-0.031
			c-3.289,0-5.991,2.509-6.301,5.718l-0.028,0.611v32.481l-3.065,2.529c-3.387,2.793-5.373,6.925-5.373,11.396
			c0,8.157,6.608,14.766,14.766,14.766C49.586-1.688,56.194-8.296,56.194-16.453z M81.906-38.178H68.199
			c-1.514,0-2.741,1.226-2.741,2.74c0,1.513,1.227,2.741,2.741,2.741h13.706c1.515,0,2.741-1.227,2.741-2.741
			S83.42-38.178,81.906-38.178z M68.2-45.257h5.59c1.513,0,2.741-1.227,2.741-2.74c0-1.514-1.228-2.741-2.741-2.741H68.2
			c-1.513,0-2.741,1.227-2.741,2.741C65.459-46.484,66.687-45.257,68.2-45.257z"/>
	</g>
	<g id="Light-S" transform="matrix(1 0 0 1 1101.55 696)">
		<path d="M62.826-73.494c0-1.298,1.051-2.349,2.349-2.349h5.59c1.297,0,2.349,1.051,2.349,2.349c0,1.297-1.051,2.349-2.349,2.349
			h-5.59C63.878-71.145,62.826-72.197,62.826-73.494z M65.176-45.703h5.59c1.297,0,2.349-1.052,2.349-2.349
			c0-1.297-1.051-2.349-2.349-2.349h-5.59c-1.298,0-2.349,1.051-2.349,2.349C62.826-46.755,63.878-45.703,65.176-45.703z
			 M40.363-26.247v-36.544c0-1.081-0.876-1.958-1.958-1.958s-1.958,0.876-1.958,1.958v36.544c-4.63,0.912-8.125,4.991-8.125,9.889
			c0,5.569,4.515,10.083,10.083,10.083c5.569,0,10.083-4.514,10.083-10.083C48.488-21.257,44.994-25.335,40.363-26.247z
			 M57.868-16.508c0,10.732-8.731,19.463-19.463,19.463c-10.732,0-19.463-8.731-19.463-19.463c0-5.833,2.581-11.308,7.08-15.019
			l1.356-1.12v-30.267v-0.11l0.006-0.111l0.029-0.609l0.006-0.115l0.01-0.114c0.547-5.683,5.266-9.967,10.976-9.967h0.112
			l0.111,0.005l0.609,0.029l0.11,0.006l0.11,0.011c5.685,0.539,9.972,5.258,9.972,10.977v30.267l1.357,1.119l0.051,0.043
			l0.052,0.045l0.659,0.576l0.054,0.048l0.052,0.048C55.604-27.096,57.868-21.899,57.868-16.508z M53.171-16.507
			c0-4.168-1.73-8.045-4.714-10.818l-0.659-0.577l-3.066-2.529v-32.481c0-3.292-2.509-5.995-5.718-6.299l-0.607-0.03
			c-3.288,0-5.99,2.509-6.3,5.718l-0.029,0.611v32.481l-3.065,2.528c-3.386,2.793-5.372,6.926-5.372,11.396
			c0,8.157,6.608,14.765,14.766,14.765C46.562-1.742,53.171-8.35,53.171-16.507z M78.883-63.283H65.176
			c-1.298,0-2.349,1.051-2.349,2.349c0,1.297,1.051,2.349,2.349,2.349h13.706c1.298,0,2.35-1.052,2.35-2.349
			C81.232-62.232,80.18-63.283,78.883-63.283z M78.883-37.841H65.176c-1.298,0-2.349,1.051-2.349,2.349
			c0,1.297,1.051,2.349,2.349,2.349h13.706c1.298,0,2.35-1.052,2.35-2.349C81.232-36.79,80.18-37.841,78.883-37.841z"/>
	</g>
	<g id="Thin-S" transform="matrix(1 0 0 1 805.763 696)">
		<path d="M79.968-35.546c0,1.081-0.876,1.958-1.958,1.958H64.303c-1.082,0-1.958-0.876-1.958-1.958
			c0-1.082,0.876-1.958,1.958-1.958H78.01C79.091-37.504,79.968-36.628,79.968-35.546z M64.304-46.148h5.59
			c1.08,0,1.958-0.876,1.958-1.958c0-1.082-0.876-1.958-1.958-1.958h-5.59c-1.082,0-1.958,0.875-1.958,1.958
			C62.346-47.025,63.222-46.148,64.304-46.148z M56.215-16.563c0,10.301-8.38,18.681-18.68,18.681
			c-10.301,0-18.681-8.38-18.681-18.681c0-5.598,2.478-10.853,6.795-14.414l1.642-1.355v-30.636v-0.091l0.003-0.092l0.029-0.61
			l0.004-0.096l0.01-0.096c0.508-5.278,4.892-9.258,10.196-9.258h0.093v0l0.093,0.005l0.609,0.029l0.091,0.004l0.092,0.008
			c5.282,0.502,9.264,4.886,9.264,10.197v30.636l1.642,1.355l0.043,0.036l0.042,0.037l0.659,0.576l0.045,0.04l0.044,0.041
			C54.041-26.726,56.215-21.737,56.215-16.563z M52.298-16.562c0-4.168-1.73-8.045-4.714-10.818l-0.659-0.577l-3.065-2.529v-32.481
			c0-3.292-2.509-5.995-5.718-6.299l-0.608-0.031c-3.289,0-5.991,2.509-6.3,5.718l-0.029,0.611v32.481l-3.066,2.529
			c-3.386,2.793-5.372,6.925-5.372,11.396c0,8.157,6.608,14.766,14.766,14.766C45.689-1.796,52.298-8.405,52.298-16.562z
			 M78.01-62.946H64.303c-1.082,0-1.958,0.876-1.958,1.958s0.876,1.958,1.958,1.958h13.706c1.082,0,1.958-0.876,1.958-1.958
			S79.091-62.946,78.01-62.946z M64.304-71.591h5.59c1.08,0,1.958-0.876,1.958-1.958c0-1.081-0.876-1.958-1.958-1.958h-5.59
			c-1.082,0-1.958,0.876-1.958,1.958C62.346-72.467,63.222-71.591,64.304-71.591z M39.49-26.301v-36.544
			c0-1.082-0.876-1.958-1.958-1.958c-1.082,0-1.958,0.876-1.958,1.958v36.544c-4.631,0.912-8.125,4.99-8.125,9.889
			c0,5.569,4.515,10.083,10.083,10.083c5.569,0,10.083-4.514,10.083-10.083C47.615-21.311,44.122-25.39,39.49-26.301z"/>
	</g>
	<g id="Ultralight-S" transform="matrix(1 0 0 1 509.54 696)">
		<path d="M62.303-73.603c0-0.865,0.701-1.566,1.566-1.566h5.589c0.864,0,1.566,0.701,1.566,1.566c0,0.864-0.702,1.566-1.566,1.566
			h-5.589C63.004-72.036,62.303-72.738,62.303-73.603z M63.869-46.594h5.589c0.864,0,1.566-0.701,1.566-1.566
			s-0.702-1.566-1.566-1.566h-5.589c-0.865,0-1.566,0.701-1.566,1.566C62.303-47.296,63.004-46.594,63.869-46.594z M77.575-62.609
			H63.868c-0.865,0-1.566,0.701-1.566,1.566c0,0.864,0.701,1.566,1.566,1.566h13.706c0.865,0,1.567-0.701,1.567-1.566
			S78.439-62.609,77.575-62.609z M39.055-26.355v-36.544c0-1.082-0.876-1.958-1.958-1.958s-1.958,0.876-1.958,1.958v36.544
			c-4.63,0.912-8.125,4.99-8.125,9.889c0,5.569,4.514,10.083,10.083,10.083c5.569,0,10.083-4.514,10.083-10.083
			C47.181-21.365,43.687-25.444,39.055-26.355z M77.575-37.167H63.868c-0.865,0-1.566,0.701-1.566,1.566
			c0,0.864,0.701,1.566,1.566,1.566h13.706c0.865,0,1.567-0.701,1.567-1.566C79.141-36.466,78.439-37.167,77.575-37.167z
			 M54.995-16.617c0,9.869-8.029,17.897-17.897,17.897c-9.869,0-17.898-8.029-17.898-17.897c0-5.365,2.374-10.398,6.511-13.811
			l1.926-1.591v-31.005v-0.073l0.003-0.074l0.029-0.61l0.003-0.077l0.008-0.077c0.469-4.874,4.518-8.549,9.417-8.549h0.077v0.001
			l0.075,0.003l0.608,0.029l0.074,0.003l0.073,0.007c4.877,0.462,8.554,4.512,8.554,9.417v31.005l1.926,1.591l0.034,0.029
			l0.034,0.03l0.659,0.577l0.036,0.031l0.035,0.032C52.913-26.353,54.995-21.575,54.995-16.617z M51.863-16.616
			c0-4.168-1.73-8.045-4.714-10.818l-0.659-0.577l-3.065-2.529v-32.481c0-3.292-2.509-5.995-5.718-6.299l-0.608-0.031
			c-3.289,0-5.991,2.509-6.3,5.718l-0.029,0.611v32.482l-3.065,2.528c-3.387,2.793-5.373,6.926-5.373,11.396
			c0,8.157,6.609,14.766,14.766,14.766C45.254-1.851,51.863-8.459,51.863-16.616z"/>
	</g>
</g>
</svg>
