<?xml version="1.0" encoding="utf-8"?>
<!-- Generator: Adobe Illustrator 16.0.0, SVG Export Plug-In . SVG Version: 6.00 Build 0)  -->
<!DOCTYPE svg PUBLIC "-//W3C//DTD SVG 1.1//EN" "http://www.w3.org/Graphics/SVG/1.1/DTD/svg11.dtd">
<svg version="1.1" id="Layer_1" xmlns="http://www.w3.org/2000/svg" xmlns:xlink="http://www.w3.org/1999/xlink" x="0px" y="0px"
	 width="3300px" height="2200px" viewBox="0 0 3300 2200" enable-background="new 0 0 3300 2200" xml:space="preserve">
<g id="Notes">
	<rect id="artboard" fill="#FFFFFF" width="3300" height="2200"/>
	<line fill="none" stroke="#000000" stroke-width="0.5" x1="263" y1="292" x2="3036" y2="292"/>
	<text transform="matrix(1 0 0 1 263 322)" font-family="'Arial-BoldMT'" font-size="12">Weight/Scale Variations</text>
	<text transform="matrix(1 0 0 1 536.0361 322)" font-family="'ArialMT'" font-size="12">Ultralight</text>
	<text transform="matrix(1 0 0 1 844.75 322)" font-family="'ArialMT'" font-size="12">Thin</text>
	<text transform="matrix(1 0 0 1 1140.1191 322)" font-family="'ArialMT'" font-size="12">Light</text>
	<text transform="matrix(1 0 0 1 1428.8281 322)" font-family="'ArialMT'" font-size="12">Regular</text>
	<text transform="matrix(1 0 0 1 1725.2207 322)" font-family="'ArialMT'" font-size="12">Medium</text>
	<text transform="matrix(1 0 0 1 2018.2559 322)" font-family="'ArialMT'" font-size="12">Semibold</text>
	<text transform="matrix(1 0 0 1 2327.9707 322)" font-family="'ArialMT'" font-size="12">Bold</text>
	<text transform="matrix(1 0 0 1 2619.6836 322)" font-family="'ArialMT'" font-size="12">Heavy</text>
	<text transform="matrix(1 0 0 1 2918.7285 322)" font-family="'ArialMT'" font-size="12">Black</text>
	<line fill="none" stroke="#000000" stroke-width="0.5" x1="263" y1="1903" x2="3036" y2="1903"/>
	<g transform="matrix(1 0 0 1 263 1933)">
		<path d="M9.248,0.83c4.307,0,7.891-3.574,7.891-7.881c0-4.309-3.594-7.881-7.9-7.881c-4.297,0-7.871,3.572-7.871,7.881
			C1.368-2.744,4.951,0.83,9.248,0.83z M9.248-0.654c-3.545,0-6.377-2.842-6.377-6.396s2.822-6.396,6.367-6.396
			c3.555,0,6.396,2.843,6.406,6.396C15.654-3.496,12.803-0.654,9.248-0.654z M6.396-6.318h2.109v2.119
			c0,0.439,0.293,0.742,0.723,0.742c0.449,0,0.742-0.303,0.742-0.742v-2.119h2.13c0.439,0,0.742-0.293,0.742-0.723
			c0-0.439-0.303-0.742-0.742-0.742H9.971v-2.107c0-0.449-0.293-0.754-0.742-0.754c-0.43,0-0.723,0.305-0.723,0.754v2.107h-2.11
			c-0.449,0-0.752,0.303-0.752,0.742C5.645-6.611,5.947-6.318,6.396-6.318z"/>
	</g>
	<g transform="matrix(1 0 0 1 281.506 1933)">
		<path d="M11.709,2.91c5.449,0,9.961-4.521,9.961-9.961c0-5.449-4.521-9.961-9.971-9.961c-5.439,0-9.951,4.512-9.951,9.961
			C1.748-1.611,6.269,2.91,11.709,2.91z M11.709,1.25c-4.609,0-8.291-3.691-8.291-8.301c0-4.61,3.672-8.301,8.281-8.301
			S20-11.66,20.01-7.051C20.02-2.442,16.318,1.25,11.709,1.25z M7.988-6.23h2.891v2.91c0,0.488,0.332,0.82,0.811,0.82
			c0.488,0,0.83-0.332,0.83-0.82v-2.91h2.91c0.488,0,0.82-0.332,0.82-0.811c0-0.488-0.332-0.83-0.82-0.83h-2.91v-2.891
			c0-0.508-0.342-0.84-0.83-0.84c-0.479,0-0.811,0.342-0.811,0.84v2.891H7.988c-0.508,0-0.84,0.342-0.84,0.83
			C7.148-6.563,7.49-6.23,7.988-6.23z"/>
	</g>
	<g transform="matrix(1 0 0 1 304.924 1933)">
		<path d="M14.97,5.664c6.963,0,12.725-5.762,12.725-12.715c0-6.963-5.771-12.727-12.734-12.727
			c-6.953,0-12.705,5.764-12.705,12.727C2.256-0.097,8.017,5.664,14.97,5.664z M14.97,3.848C8.935,3.848,4.081-1.015,4.081-7.05
			c0-6.045,4.844-10.898,10.879-10.898c6.045,0,10.898,4.854,10.908,10.898C25.879-1.015,21.015,3.848,14.97,3.848z M10.058-6.142
			h4.004v4.014c0,0.537,0.371,0.908,0.889,0.908c0.537,0,0.908-0.371,0.908-0.908v-4.014h4.023c0.527,0,0.908-0.371,0.908-0.891
			c0-0.537-0.371-0.918-0.908-0.918h-4.023v-4.004c0-0.557-0.371-0.928-0.908-0.928c-0.518,0-0.889,0.381-0.889,0.928v4.004h-4.004
			c-0.557,0-0.928,0.381-0.928,0.918C9.131-6.513,9.511-6.142,10.058-6.142z"/>
	</g>
	<text transform="matrix(1 0 0 1 263 1953)" font-family="'Arial-BoldMT'" font-size="12">Design Variations</text>
	<text transform="matrix(1 0 0 1 263 1971)" font-family="'ArialMT'" font-size="12">Symbols are supported in up to nine weights and three scales.</text>
	<text transform="matrix(1 0 0 1 263 1989)" font-family="'ArialMT'" font-size="12">For optimal layout with text and other symbols, vertically align</text>
	<text transform="matrix(1 0 0 1 263 2007)" font-family="'ArialMT'" font-size="12">symbols with the adjacent text.</text>
	<line fill="none" stroke="#00AEEF" stroke-width="0.5" x1="776" y1="1919" x2="776" y2="1933"/>
	<g transform="matrix(1 0 0 1 776 1933)">
		<path d="M3.311,0.127c0.52,0,0.771-0.195,0.957-0.732l1.262-3.457h5.762l1.26,3.457c0.188,0.537,0.439,0.732,0.947,0.732
			c0.518,0,0.85-0.313,0.85-0.801c0-0.166-0.027-0.313-0.105-0.527L9.66-13.389c-0.227-0.605-0.625-0.898-1.25-0.898
			c-0.605,0-1.018,0.293-1.23,0.889L2.598-1.191C2.52-0.976,2.49-0.83,2.49-0.664C2.49-0.176,2.803,0.127,3.311,0.127z M6.006-5.537
			l2.373-6.572h0.049l2.373,6.572H6.006z"/>
	</g>
	<line fill="none" stroke="#00AEEF" stroke-width="0.5" x1="792.836" y1="1919" x2="792.836" y2="1933"/>
	<text transform="matrix(1 0 0 1 776 1953)" font-family="'Arial-BoldMT'" font-size="12">Margins</text>
	<text transform="matrix(1 0 0 1 776 1971)" font-family="'ArialMT'" font-size="12">Leading and trailing margins on the left and right side of each symbol</text>
	<text transform="matrix(1 0 0 1 776 1989)" font-family="'ArialMT'" font-size="12">can be adjusted by modifying the x-location of the margin guidelines.</text>
	<text transform="matrix(1 0 0 1 776 2007)" font-family="'ArialMT'" font-size="12">Modifications are automatically applied proportionally to all</text>
	<text transform="matrix(1 0 0 1 776 2025)" font-family="'ArialMT'" font-size="12">scales and weights.</text>
	<g transform="matrix(1 0 0 1 1289 1933)">
		<path d="M2.842,1.865l1.699,1.709C5.4,4.444,6.387,4.385,7.314,3.36L17.49-7.851c0.264,0.088,0.537,0.066,0.85,0.01l1.064-0.195
			l0.664,0.674l-0.039,0.559c-0.039,0.498,0.088,0.879,0.576,1.355l0.762,0.742c0.479,0.479,1.094,0.508,1.563,0.039l2.91-2.92
			c0.469-0.469,0.449-1.064-0.029-1.543L25.04-9.892c-0.479-0.479-0.851-0.637-1.328-0.598l-0.576,0.05l-0.645-0.636l0.244-1.123
			c0.127-0.564-0.029-1.006-0.615-1.592l-2.197-2.188c-3.34-3.319-7.771-3.241-10.664-0.353c-0.42,0.41-0.448,0.986-0.215,1.377
			c0.234,0.361,0.693,0.597,1.338,0.431c1.465-0.343,2.988-0.399,4.414,0.536L14.21-12.53c-0.195,0.479-0.225,0.879-0.098,1.24
			L3.047-0.898C2.061,0.02,1.982,0.996,2.842,1.865z M10.752-15.957c2.432-1.777,5.723-1.475,7.949,0.752l2.432,2.412
			c0.234,0.234,0.273,0.42,0.205,0.762l-0.322,1.484l1.504,1.484l0.986-0.061c0.254-0.01,0.332,0.01,0.527,0.205l0.576,0.576
			L22.168-5.9l-0.576-0.574c-0.195-0.195-0.225-0.273-0.215-0.537l0.068-0.979l-1.494-1.482L18.428-9.22
			c-0.322,0.066-0.469,0.039-0.713-0.195l-2.002-2.002c-0.254-0.234-0.283-0.4-0.127-0.771l0.879-2.092
			c-1.563-1.455-3.594-2.08-5.625-1.482C10.684-15.722,10.625-15.849,10.752-15.957z M5.273,2.305L4.102,1.143
			C3.633,0.684,3.74,0.342,4.141-0.02l10.813-10.177l1.465,1.484L6.426,2.276C6.074,2.676,5.742,2.774,5.273,2.305z"/>
	</g>
	<text transform="matrix(1 0 0 1 1289 1953)" font-family="'Arial-BoldMT'" font-size="12">Exporting</text>
	<text transform="matrix(1 0 0 1 1289 1971)" font-family="'ArialMT'" font-size="12">Symbols should be outlined when exporting to ensure the</text>
	<text transform="matrix(1 0 0 1 1289 1989)" font-family="'ArialMT'" font-size="12">design is preserved when submitting to Xcode.</text>
	<text id="template-version" transform="matrix(1 0 0 1 2958.8496 1933)" font-family="'ArialMT'" font-size="12">Template v.2.0</text>
	<text transform="matrix(1 0 0 1 2878.5762 1951)" font-family="'ArialMT'" font-size="12">Requires Xcode 12 or greater</text>
	<text transform="matrix(1 0 0 1 2894.6074 1969)" font-family="'ArialMT'" font-size="12">Generated from netcom.fill</text>
	<text transform="matrix(1 0 0 1 2921.9238 1987)" font-family="'ArialMT'" font-size="12">Typeset at 100 points</text>
	<text transform="matrix(1 0 0 1 263 726)" font-family="'ArialMT'" font-size="12">Small</text>
	<text transform="matrix(1 0 0 1 263 1156)" font-family="'ArialMT'" font-size="12">Medium</text>
	<text transform="matrix(1 0 0 1 263 1586)" font-family="'ArialMT'" font-size="12">Large</text>
</g>
<g id="Guides">
	<g id="H-reference" transform="matrix(1 0 0 1 339 696)">
		<path fill="#27AAE1" d="M0.977,0h2.686l9.326-24.463h32.764L55.127,0h2.637L30.615-70.459h-2.49L0.977,0z M29.346-67.139h0.098
			l15.43,40.431H13.867L29.346-67.139z"/>
	</g>
	<line id="Baseline-S" fill="none" stroke="#27AAE1" stroke-width="0.5" x1="263" y1="696" x2="3036" y2="696"/>
	<line id="Capline-S" fill="none" stroke="#27AAE1" stroke-width="0.5" x1="263" y1="625.541" x2="3036" y2="625.541"/>
	<g id="H-reference_1_" transform="matrix(1 0 0 1 339 1126)">
		<path fill="#27AAE1" d="M0.977,0h2.686l9.326-24.463h32.764L55.127,0h2.637L30.615-70.459h-2.49L0.977,0z M29.346-67.138h0.098
			l15.43,40.43H13.867L29.346-67.138z"/>
	</g>
	<line id="Baseline-M" fill="none" stroke="#27AAE1" stroke-width="0.5" x1="263" y1="1126" x2="3036" y2="1126"/>
	<line id="Capline-M" fill="none" stroke="#27AAE1" stroke-width="0.5" x1="263" y1="1055.539" x2="3036" y2="1055.539"/>
	<g id="H-reference_2_" transform="matrix(1 0 0 1 339 1556)">
		<path fill="#27AAE1" d="M0.977,0h2.686l9.326-24.463h32.764L55.127,0h2.637L30.615-70.459h-2.49L0.977,0z M29.346-67.138h0.098
			l15.43,40.43H13.867L29.346-67.138z"/>
	</g>
	<line id="Baseline-L" fill="none" stroke="#27AAE1" stroke-width="0.5" x1="263" y1="1556" x2="3036" y2="1556"/>
	<line id="Capline-L" fill="none" stroke="#27AAE1" stroke-width="0.5" x1="263" y1="1485.539" x2="3036" y2="1485.539"/>
	<line id="left-margin" fill="none" stroke="#00AEEF" stroke-width="0.5" x1="1383.58" y1="1030.789" x2="1383.58" y2="1150.119"/>
	<line id="right-margin" fill="none" stroke="#00AEEF" stroke-width="0.5" x1="1516.1" y1="1030.789" x2="1516.1" y2="1150.119"/>
</g>
<g id="Symbols">
	<g id="Black-L" transform="matrix(1 0 0 1 2846.24 1556)">
		<path d="M37.442,3.881l8.443,7.875l18.631-1.793l7.225,14.555c0.544,1.104,0.832,2.321,0.832,3.551
			c0,4.091-3.08,7.463-7.047,7.922l-0.928,0.053H26.865c-1.937,0-3.802-0.698-5.255-1.979c-3.061-2.675-3.578-7.178-1.359-10.46
			l0.613-0.785L37.442,3.881z M49.936-58.289c1.886,0.153,3.653,0.971,4.987,2.31l18.5,18.492l15.618-5.204l-5.209,15.616
			L98.729-12.18c3.117,3.114,3.117,8.171,0,11.285c-1.34,1.334-3.106,2.152-4.99,2.308L51.584,4.87
			c-2.334,0.188-4.637-0.652-6.289-2.312l-5.104-5.103c-1.658-1.66-2.503-3.958-2.308-6.295l3.448-42.151
			C41.698-55.383,45.548-58.65,49.936-58.289z"/>
	</g>
	<g id="Heavy-L" transform="matrix(1 0 0 1 2550.07 1556)">
		<path d="M37.55,3.351l8.327,7.768l18.379-1.767l7.127,14.354c0.537,1.089,0.82,2.29,0.82,3.503c0,4.035-3.038,7.361-6.951,7.813
			l-0.914,0.053H27.117c-1.91,0-3.751-0.688-5.184-1.951c-3.02-2.641-3.531-7.081-1.342-10.318l0.604-0.775L37.55,3.351z
			 M49.874-57.978c1.861,0.151,3.604,0.958,4.921,2.28l18.249,18.24l15.404-5.133l-5.138,15.404l14.694,14.692
			c3.075,3.072,3.075,8.06,0,11.133c-1.321,1.316-3.063,2.124-4.922,2.276L51.5,4.326c-2.301,0.184-4.572-0.645-6.205-2.281
			l-5.032-5.032c-1.636-1.639-2.47-3.903-2.276-6.21l3.4-41.579C41.746-55.109,45.546-58.332,49.874-57.978z"/>
	</g>
	<g id="Bold-L" transform="matrix(1 0 0 1 2253.97 1556)">
		<path d="M37.599,2.819l8.212,7.66l18.127-1.742l7.027,14.157c0.53,1.075,0.811,2.259,0.811,3.456c0,3.979-2.996,7.26-6.856,7.704
			l-0.902,0.054H27.309c-1.885,0-3.699-0.68-5.112-1.925c-2.978-2.604-3.481-6.984-1.322-10.177l0.595-0.765L37.599,2.819z
			 M49.753-57.663c1.836,0.148,3.556,0.943,4.854,2.248l17.998,17.988l15.191-5.063L82.73-27.297l14.492,14.491
			c3.032,3.03,3.032,7.949,0,10.979c-1.304,1.299-3.022,2.096-4.854,2.245L51.356,3.78c-2.27,0.183-4.51-0.634-6.118-2.249
			l-4.963-4.962c-1.614-1.616-2.437-3.851-2.247-6.125l3.355-41.008C41.737-54.835,45.485-58.015,49.753-57.663z"/>
	</g>
	<g id="Semibold-L" transform="matrix(1 0 0 1 1957.7 1556)">
		<path d="M37.816,2.289l8.098,7.554l17.874-1.719l6.93,13.96c0.522,1.059,0.799,2.227,0.799,3.407c0,3.924-2.954,7.158-6.762,7.598
			l-0.89,0.052H27.669c-1.857,0-3.648-0.67-5.04-1.898c-2.937-2.566-3.433-6.886-1.306-10.034l0.588-0.753L37.816,2.289z
			 M49.801-57.35c1.81,0.146,3.505,0.93,4.784,2.216l17.747,17.739l14.979-4.993l-4.995,14.98l14.29,14.289
			c2.99,2.987,2.99,7.839,0,10.825c-1.285,1.28-2.979,2.064-4.787,2.214L51.381,3.236c-2.237,0.18-4.446-0.625-6.033-2.217
			l-4.895-4.894c-1.591-1.594-2.401-3.797-2.214-6.039l3.308-40.437C41.898-54.563,45.591-57.697,49.801-57.35z"/>
	</g>
	<g id="Medium-L" transform="matrix(1 0 0 1 1661.3 1556)">
		<path d="M38.162,1.759l7.984,7.446l17.62-1.694l6.832,13.763c0.516,1.043,0.789,2.194,0.789,3.358
			c0,3.869-2.914,7.058-6.666,7.491l-0.878,0.05H28.16c-1.831,0-3.596-0.66-4.969-1.87c-2.896-2.531-3.385-6.789-1.286-9.894
			l0.579-0.743L38.162,1.759z M49.978-57.037c1.784,0.145,3.455,0.917,4.717,2.185l17.496,17.487l14.768-4.92l-4.924,14.767
			l14.088,14.087c2.946,2.945,2.946,7.728,0,10.673c-1.268,1.262-2.938,2.035-4.721,2.183L51.536,2.691
			c-2.205,0.178-4.383-0.615-5.947-2.186l-4.825-4.824c-1.568-1.571-2.367-3.743-2.183-5.954l3.261-39.862
			C42.185-54.289,45.829-57.379,49.978-57.037z"/>
	</g>
	<g id="Regular-L" transform="matrix(1 0 0 1 1365.01 1556)">
		<path d="M37.822,1.227l7.867,7.34l17.368-1.67l6.734,13.565c0.508,1.029,0.776,2.163,0.776,3.311c0,3.813-2.871,6.956-6.57,7.383
			l-0.864,0.05H27.962c-1.806,0-3.543-0.649-4.897-1.844c-2.854-2.494-3.337-6.692-1.267-9.751l0.569-0.731L37.822,1.227z
			 M49.468-56.725c1.757,0.144,3.405,0.904,4.649,2.154l17.244,17.235l14.557-4.85l-4.854,14.557l13.885,13.884
			c2.906,2.902,2.906,7.616,0,10.519c-1.249,1.244-2.896,2.007-4.653,2.152L51.003,2.147c-2.173,0.175-4.32-0.606-5.863-2.154
			l-4.756-4.755c-1.546-1.549-2.333-3.69-2.152-5.868l3.215-39.291C41.787-54.016,45.377-57.062,49.468-56.725z"/>
	</g>
	<g id="Light-L" transform="matrix(1 0 0 1 1069.2 1556)">
		<path d="M38.375,0.519l7.715,7.197l17.031-1.638l6.604,13.302c0.498,1.009,0.761,2.123,0.761,3.248
			c0,3.737-2.815,6.82-6.442,7.238l-0.848,0.049H28.707c-1.771,0-3.475-0.637-4.802-1.809c-2.799-2.445-3.272-6.561-1.243-9.561
			l0.558-0.718L38.375,0.519z M49.796-56.307c1.723,0.14,3.339,0.887,4.559,2.111l16.909,16.901l14.273-4.756l-4.759,14.274
			l13.616,13.614c2.849,2.846,2.849,7.468,0,10.314c-1.225,1.22-2.841,1.968-4.563,2.109l-38.53,3.159
			c-2.132,0.172-4.236-0.596-5.749-2.112l-4.663-4.662c-1.517-1.52-2.289-3.618-2.11-5.755l3.152-38.527
			C42.264-53.651,45.784-56.637,49.796-56.307z"/>
	</g>
	<g id="Thin-L" transform="matrix(1 0 0 1 773.683 1556)">
		<path d="M38.053-0.189l7.563,7.055L62.31,5.261l6.473,13.038c0.488,0.989,0.746,2.08,0.746,3.183c0,3.665-2.759,6.686-6.314,7.097
			l-0.83,0.047H28.577c-1.735,0-3.406-0.624-4.707-1.771c-2.742-2.397-3.207-6.432-1.218-9.372l0.547-0.704L38.053-0.189z
			 M49.248-55.89c1.689,0.138,3.273,0.87,4.469,2.069l16.574,16.567l13.991-4.662l-4.665,13.991l13.346,13.346
			c2.792,2.79,2.792,7.32,0,10.109c-1.201,1.197-2.784,1.93-4.472,2.068L50.724,0.696c-2.089,0.168-4.152-0.584-5.635-2.071
			l-4.571-4.57c-1.486-1.487-2.244-3.546-2.069-5.641l3.09-37.765C41.866-53.286,45.316-56.214,49.248-55.89z"/>
	</g>
	<g id="Ultralight-L" transform="matrix(1 0 0 1 477.607 1556)">
		<path d="M38.294-0.897l7.409,6.913L62.06,4.443l6.342,12.773c0.478,0.971,0.73,2.039,0.73,3.119c0,3.591-2.704,6.55-6.187,6.953
			l-0.813,0.047H29.009c-1.7,0-3.336-0.612-4.611-1.737c-2.688-2.35-3.143-6.302-1.194-9.183l0.536-0.689L38.294-0.897z
			 M49.262-55.473c1.655,0.135,3.207,0.853,4.379,2.028L69.88-37.211l13.709-4.568l-4.571,13.708l13.077,13.076
			c2.736,2.733,2.736,7.172,0,9.905c-1.176,1.172-2.728,1.89-4.382,2.025L50.708-0.029c-2.047,0.164-4.068-0.573-5.521-2.029
			l-4.479-4.479c-1.457-1.457-2.198-3.475-2.028-5.526l3.028-37.002C42.029-52.92,45.41-55.79,49.262-55.473z"/>
	</g>
	<g id="Black-M" transform="matrix(1 0 0 1 2865.58 1126)">
		<path d="M28.988-5.18l6.545,6.104l14.443-1.39l5.6,11.282c0.422,0.856,0.646,1.8,0.646,2.753c0,3.171-2.388,5.785-5.463,6.141
			l-0.719,0.041H20.789c-1.501,0-2.947-0.541-4.073-1.534c-2.373-2.074-2.774-5.564-1.054-8.108L16.137,9.5L28.988-5.18z
			 M38.674-53.374c1.462,0.119,2.832,0.753,3.866,1.792l14.341,14.334l12.107-4.034L64.95-29.176L76.498-17.63
			c2.416,2.414,2.416,6.334,0,8.748c-1.039,1.034-2.408,1.669-3.869,1.789l-32.678,2.68c-1.809,0.146-3.594-0.506-4.875-1.792
			L31.12-10.16c-1.285-1.287-1.94-3.068-1.789-4.88l2.673-32.676C32.287-51.121,35.272-53.654,38.674-53.374z"/>
	</g>
	<g id="Heavy-M" transform="matrix(1 0 0 1 2569.23 1126)">
		<path d="M29.129-5.591l6.455,6.021l14.247-1.37l5.524,11.128c0.417,0.844,0.637,1.775,0.637,2.716
			c0,3.128-2.355,5.706-5.389,6.057l-0.709,0.041H21.042c-1.48,0-2.907-0.534-4.018-1.513c-2.341-2.047-2.737-5.489-1.04-7.999
			l0.468-0.601L29.129-5.591z M38.683-53.131c1.442,0.117,2.794,0.742,3.814,1.767l14.146,14.14l11.941-3.979l-3.982,11.941
			l11.391,11.39c2.384,2.382,2.384,6.248,0,8.63c-1.024,1.021-2.375,1.646-3.815,1.765L39.943-4.835
			c-1.783,0.143-3.544-0.499-4.81-1.769l-3.901-3.9c-1.268-1.271-1.914-3.026-1.765-4.814l2.637-32.232
			C32.382-50.909,35.328-53.408,38.683-53.131z"/>
	</g>
	<g id="Bold-M" transform="matrix(1 0 0 1 2272.94 1126)">
		<path d="M29.22-6.003l6.366,5.938l14.052-1.351L55.085,9.56c0.411,0.833,0.629,1.751,0.629,2.679c0,3.085-2.323,5.628-5.315,5.973
			L49.7,18.252H21.244c-1.461,0-2.867-0.526-3.963-1.492c-2.309-2.019-2.699-5.414-1.025-7.889l0.461-0.593L29.22-6.003z
			 M38.642-52.889c1.423,0.115,2.756,0.732,3.762,1.743l13.952,13.945l11.776-3.924l-3.927,11.777L75.44-18.115
			c2.351,2.349,2.351,6.162,0,8.511c-1.011,1.007-2.343,1.624-3.764,1.74L39.884-5.258c-1.759,0.142-3.495-0.491-4.742-1.743
			l-3.848-3.847c-1.251-1.253-1.889-2.985-1.741-4.748l2.601-31.789C32.428-50.697,35.333-53.161,38.642-52.889z"/>
	</g>
	<g id="Semibold-M" transform="matrix(1 0 0 1 1976.52 1126)">
		<path d="M29.439-6.414l6.277,5.855l13.855-1.332l5.372,10.821c0.405,0.821,0.619,1.727,0.619,2.642c0,3.042-2.29,5.549-5.241,5.89
			l-0.689,0.04H21.574c-1.44,0-2.828-0.52-3.907-1.472c-2.276-1.989-2.661-5.338-1.012-7.778l0.455-0.584L29.439-6.414z
			 M38.73-52.646c1.402,0.114,2.717,0.722,3.709,1.718l13.757,13.75l11.612-3.87l-3.872,11.613l11.077,11.077
			c2.318,2.315,2.318,6.076,0,8.392c-0.996,0.992-2.31,1.601-3.711,1.716L39.955-5.68c-1.734,0.14-3.446-0.484-4.677-1.719
			l-3.794-3.793c-1.233-1.235-1.861-2.943-1.717-4.682l2.564-31.346C32.603-50.485,35.466-52.915,38.73-52.646z"/>
	</g>
	<g id="Medium-M" transform="matrix(1 0 0 1 1680.03 1126)">
		<path d="M29.728-6.825l6.189,5.772l13.659-1.313l5.296,10.669c0.399,0.809,0.611,1.701,0.611,2.604
			c0,2.999-2.259,5.471-5.167,5.807l-0.681,0.039H21.974c-1.419,0-2.787-0.512-3.852-1.45c-2.244-1.962-2.624-5.263-0.997-7.669
			l0.449-0.576L29.728-6.825z M38.888-52.403c1.383,0.112,2.678,0.711,3.656,1.694l13.563,13.556l11.448-3.815L63.738-29.52
			l10.921,10.919c2.284,2.283,2.284,5.99,0,8.273c-0.982,0.979-2.277,1.578-3.659,1.692L40.095-6.102
			c-1.709,0.138-3.397-0.478-4.61-1.694l-3.74-3.74c-1.216-1.218-1.835-2.901-1.692-4.615l2.528-30.901
			C32.847-50.272,35.671-52.668,38.888-52.403z"/>
	</g>
	<g id="Regular-M" transform="matrix(1 0 0 1 1383.58 1126)">
		<path d="M29.4-7.237l6.099,5.689l13.464-1.294l5.22,10.516c0.394,0.798,0.602,1.677,0.602,2.566c0,2.955-2.226,5.392-5.093,5.723
			l-0.67,0.039H21.756c-1.399,0-2.747-0.504-3.796-1.43c-2.212-1.934-2.587-5.188-0.982-7.559l0.441-0.567L29.4-7.237z
			 M38.427-52.161c1.362,0.11,2.64,0.701,3.604,1.669L55.399-37.13l11.284-3.76l-3.762,11.284l10.764,10.763
			c2.252,2.25,2.252,5.904,0,8.154c-0.968,0.964-2.245,1.556-3.607,1.668L39.618-6.523c-1.685,0.136-3.349-0.471-4.545-1.67
			l-3.687-3.687c-1.199-1.2-1.809-2.86-1.668-4.549l2.492-30.458C32.474-50.061,35.256-52.422,38.427-52.161z"/>
	</g>
	<g id="Light-M" transform="matrix(1 0 0 1 1087.68 1126)">
		<path d="M29.846-7.786l5.98,5.579l13.202-1.27l5.119,10.312c0.386,0.782,0.59,1.646,0.59,2.518c0,2.897-2.182,5.287-4.994,5.611
			l-0.657,0.038H22.351c-1.373,0-2.693-0.494-3.723-1.402c-2.169-1.896-2.537-5.086-0.963-7.411l0.433-0.557L29.846-7.786z
			 M38.699-51.837c1.335,0.108,2.588,0.688,3.534,1.637L55.34-37.098l11.065-3.687L62.716-29.72l10.555,10.554
			c2.208,2.206,2.208,5.789,0,7.996c-0.95,0.945-2.202,1.525-3.537,1.635L39.866-7.086c-1.652,0.133-3.284-0.462-4.457-1.638
			l-3.615-3.614c-1.176-1.178-1.774-2.805-1.636-4.461l2.444-29.867C32.86-49.778,35.589-52.093,38.699-51.837z"/>
	</g>
	<g id="Thin-M" transform="matrix(1 0 0 1 792.042 1126)">
		<path d="M29.448-8.335l5.862,5.469L48.251-4.11l5.018,10.107c0.378,0.767,0.578,1.612,0.578,2.467
			c0,2.841-2.139,5.183-4.895,5.501l-0.644,0.037H22.102c-1.345,0-2.64-0.484-3.649-1.374c-2.126-1.858-2.486-4.985-0.944-7.265
			l0.424-0.546L29.448-8.335z M38.126-51.514c1.31,0.106,2.537,0.674,3.464,1.605l12.848,12.842l10.846-3.614l-3.616,10.846
			l10.346,10.345c2.165,2.163,2.165,5.675,0,7.837c-0.931,0.928-2.158,1.496-3.467,1.604l-29.277,2.4
			c-1.62,0.13-3.219-0.453-4.368-1.605l-3.543-3.543c-1.152-1.153-1.739-2.749-1.604-4.373l2.395-29.274
			C32.403-49.495,35.078-51.765,38.126-51.514z"/>
	</g>
	<g id="Ultralight-M" transform="matrix(1 0 0 1 495.893 1126)">
		<path d="M29.565-8.884l5.744,5.358l12.679-1.219l4.917,9.902c0.371,0.752,0.566,1.58,0.566,2.418c0,2.783-2.096,5.077-4.796,5.39
			l-0.63,0.036H22.367c-1.318,0-2.586-0.475-3.575-1.347c-2.083-1.821-2.436-4.885-0.925-7.118l0.416-0.534L29.565-8.884z
			 M38.067-51.19c1.283,0.104,2.486,0.661,3.395,1.572L54.05-37.035l10.627-3.541l-3.543,10.626L71.27-19.813
			c2.121,2.119,2.121,5.56,0,7.679c-0.912,0.908-2.114,1.465-3.397,1.57L39.188-8.211c-1.587,0.127-3.154-0.444-4.28-1.573
			l-3.472-3.472c-1.129-1.13-1.704-2.693-1.572-4.284l2.347-28.684C32.46-49.212,35.081-51.436,38.067-51.19z"/>
	</g>
	<g id="Black-S" transform="matrix(1 0 0 1 2880.28 696)">
		<path d="M22.435-11.49l5.125,4.78l11.309-1.088l4.385,8.834c0.33,0.67,0.505,1.409,0.505,2.155c0,2.483-1.869,4.53-4.277,4.808
			l-0.563,0.032H16.015c-1.176,0-2.309-0.424-3.189-1.201C10.967,5.206,10.653,2.473,12,0.481l0.372-0.477L22.435-11.49z
			 M30.019-49.227c1.145,0.094,2.217,0.59,3.027,1.403L44.275-36.6l9.48-3.159l-3.162,9.479l9.042,9.041
			c1.892,1.89,1.892,4.959,0,6.85c-0.813,0.81-1.886,1.307-3.03,1.401L31.019-10.89c-1.416,0.114-2.814-0.396-3.817-1.403
			l-3.098-3.097c-1.007-1.008-1.52-2.403-1.401-3.821l2.094-25.585C25.018-47.462,27.355-49.445,30.019-49.227z"/>
	</g>
	<g id="Heavy-S" transform="matrix(1 0 0 1 2583.76 696)">
		<path d="M22.635-11.812l5.055,4.715L38.845-8.17l4.325,8.713c0.326,0.661,0.499,1.39,0.499,2.126c0,2.449-1.845,4.468-4.22,4.743
			l-0.556,0.032H16.302c-1.159,0-2.276-0.418-3.146-1.184c-1.832-1.603-2.143-4.298-0.814-6.264l0.367-0.47L22.635-11.812z
			 M30.116-49.036c1.129,0.091,2.188,0.581,2.986,1.383l11.077,11.071l9.35-3.116l-3.118,9.35l8.919,8.918
			c1.866,1.865,1.866,4.892,0,6.757c-0.802,0.799-1.859,1.289-2.987,1.382l-25.24,2.07c-1.396,0.112-2.775-0.391-3.767-1.385
			l-3.055-3.054c-0.992-0.995-1.498-2.37-1.381-3.77l2.064-25.238C25.182-47.296,27.488-49.253,30.116-49.036z"/>
	</g>
	<g id="Bold-S" transform="matrix(1 0 0 1 2287.27 696)">
		<path d="M22.816-12.135l4.984,4.65l11.002-1.058l4.266,8.593c0.322,0.652,0.492,1.371,0.492,2.097
			c0,2.416-1.818,4.407-4.162,4.677l-0.547,0.032H16.57c-1.145,0-2.245-0.412-3.104-1.168c-1.807-1.581-2.113-4.239-0.803-6.177
			l0.361-0.464L22.816-12.135z M30.193-48.846c1.113,0.09,2.158,0.573,2.945,1.364l10.924,10.919l9.222-3.073l-3.075,9.222
			l8.797,8.795c1.84,1.839,1.84,4.825,0,6.664c-0.791,0.789-1.834,1.272-2.947,1.363l-24.893,2.041
			c-1.377,0.111-2.736-0.385-3.713-1.365l-3.014-3.012c-0.979-0.981-1.479-2.337-1.363-3.718l2.037-24.891
			C25.328-47.13,27.602-49.06,30.193-48.846z"/>
	</g>
	<g id="Semibold-S" transform="matrix(1 0 0 1 1990.7 696)">
		<path d="M23.073-12.457l4.915,4.584l10.849-1.043l4.207,8.473c0.317,0.643,0.484,1.352,0.484,2.068
			c0,2.382-1.793,4.345-4.104,4.612l-0.54,0.031h-21.97c-1.128,0-2.215-0.407-3.06-1.152c-1.782-1.558-2.084-4.18-0.792-6.09
			l0.356-0.458L23.073-12.457z M30.349-48.656c1.098,0.089,2.127,0.565,2.903,1.345l10.772,10.767l9.092-3.03l-3.031,9.093
			l8.673,8.673c1.815,1.813,1.815,4.758,0,6.571c-0.78,0.777-1.809,1.253-2.905,1.343l-24.545,2.013
			c-1.358,0.109-2.699-0.379-3.662-1.346l-2.971-2.97c-0.966-0.967-1.458-2.305-1.345-3.666l2.008-24.543
			C25.551-46.964,27.793-48.867,30.349-48.656z"/>
	</g>
	<g id="Medium-S" transform="matrix(1 0 0 1 1694.09 696)">
		<path d="M23.372-12.779l4.847,4.52l10.695-1.028l4.146,8.354c0.313,0.633,0.479,1.332,0.479,2.039
			c0,2.348-1.769,4.284-4.046,4.547l-0.533,0.03H17.301c-1.111,0-2.183-0.4-3.016-1.135c-1.758-1.536-2.055-4.121-0.781-6.005
			l0.353-0.451L23.372-12.779z M30.545-48.466c1.082,0.088,2.096,0.557,2.862,1.326l10.619,10.615l8.964-2.987l-2.988,8.964
			l8.551,8.55c1.789,1.788,1.789,4.69,0,6.479c-0.77,0.766-1.783,1.235-2.865,1.325l-24.198,1.983
			c-1.338,0.107-2.66-0.374-3.609-1.327l-2.929-2.929c-0.952-0.954-1.437-2.272-1.325-3.614l1.979-24.196
			C25.814-46.798,28.025-48.674,30.545-48.466z"/>
	</g>
	<g id="Regular-S" transform="matrix(1 0 0 1 1397.53 696)">
		<path d="M23.043-13.102l4.775,4.455L38.36-9.66l4.087,8.234c0.308,0.625,0.471,1.313,0.471,2.009c0,2.314-1.743,4.222-3.988,4.481
			l-0.524,0.031H17.058c-1.096,0-2.15-0.395-2.972-1.12c-1.732-1.514-2.026-4.062-0.769-5.918l0.345-0.444L23.043-13.102z
			 M30.112-48.276c1.066,0.086,2.067,0.549,2.822,1.307L43.4-36.507l8.835-2.944l-2.946,8.835l8.428,8.427
			c1.764,1.762,1.764,4.623,0,6.385c-0.758,0.755-1.758,1.218-2.824,1.306l-23.85,1.955c-1.319,0.106-2.623-0.369-3.559-1.308
			l-2.887-2.886c-0.938-0.94-1.417-2.24-1.306-3.562l1.951-23.849C25.45-46.632,27.628-48.481,30.112-48.276z"/>
	</g>
	<g id="Light-S" transform="matrix(1 0 0 1 1101.55 696)">
		<path d="M23.422-13.531l4.683,4.369l10.337-0.994l4.008,8.074c0.302,0.613,0.462,1.289,0.462,1.972c0,2.269-1.708,4.14-3.91,4.394
			l-0.515,0.03H17.553c-1.075,0-2.109-0.387-2.915-1.098c-1.698-1.484-1.986-3.982-0.754-5.803l0.338-0.436L23.422-13.531z
			 M30.354-48.023c1.045,0.085,2.027,0.539,2.767,1.282l10.263,10.259l8.664-2.887l-2.889,8.664l8.265,8.264
			c1.729,1.727,1.729,4.533,0,6.261c-0.743,0.74-1.724,1.194-2.77,1.28l-23.387,1.917c-1.294,0.104-2.571-0.362-3.489-1.282
			l-2.831-2.83c-0.92-0.922-1.389-2.196-1.281-3.493l1.913-23.386C25.782-46.411,27.919-48.224,30.354-48.023z"/>
	</g>
	<g id="Thin-S" transform="matrix(1 0 0 1 805.763 696)">
		<path d="M23.026-13.961l4.59,4.282l10.133-0.974l3.929,7.914c0.296,0.6,0.453,1.262,0.453,1.932c0,2.224-1.675,4.058-3.833,4.307
			l-0.504,0.029h-20.52c-1.053,0-2.067-0.379-2.857-1.076c-1.665-1.455-1.947-3.903-0.74-5.688l0.333-0.428L23.026-13.961z
			 M29.82-47.77c1.025,0.083,1.986,0.528,2.712,1.256l10.06,10.056l8.492-2.83l-2.832,8.492l8.101,8.101
			c1.695,1.693,1.695,4.443,0,6.136c-0.729,0.726-1.69,1.171-2.715,1.255l-22.924,1.879c-1.268,0.102-2.52-0.354-3.42-1.257
			l-2.775-2.774c-0.902-0.903-1.362-2.152-1.255-3.424L25.141-43.8C25.34-46.189,27.433-47.966,29.82-47.77z"/>
	</g>
	<g id="Ultralight-S" transform="matrix(1 0 0 1 509.54 696)">
		<path d="M23.069-14.391l4.498,4.196l9.928-0.955l3.85,7.754c0.29,0.589,0.443,1.237,0.443,1.893c0,2.179-1.641,3.976-3.755,4.22
			l-0.494,0.028H17.433c-1.032,0-2.025-0.372-2.799-1.055c-1.631-1.426-1.907-3.825-0.725-5.573L14.234-4.3L23.069-14.391z
			 M29.726-47.516c1.004,0.082,1.947,0.517,2.658,1.231l9.857,9.853l8.321-2.772l-2.774,8.32l7.937,7.937
			c1.661,1.659,1.661,4.353,0,6.012c-0.714,0.711-1.656,1.147-2.66,1.23l-22.461,1.842c-1.242,0.1-2.469-0.348-3.351-1.232
			l-2.719-2.718c-0.884-0.885-1.334-2.109-1.23-3.354l1.838-22.459C25.336-45.967,27.388-47.709,29.726-47.516z"/>
	</g>
</g>
</svg>
