<?xml version="1.0" encoding="utf-8"?>
<!-- Generator: Adobe Illustrator 16.0.0, SVG Export Plug-In . SVG Version: 6.00 Build 0)  -->
<!DOCTYPE svg PUBLIC "-//W3C//DTD SVG 1.1//EN" "http://www.w3.org/Graphics/SVG/1.1/DTD/svg11.dtd">
<svg version="1.1" id="Layer_1" xmlns="http://www.w3.org/2000/svg" xmlns:xlink="http://www.w3.org/1999/xlink" x="0px" y="0px"
	 width="3300px" height="2200px" viewBox="0 0 3300 2200" enable-background="new 0 0 3300 2200" xml:space="preserve">
<g id="Notes">
	<rect id="artboard" fill="#FFFFFF" width="3300" height="2200"/>
	<line fill="none" stroke="#000000" stroke-width="0.5" x1="263" y1="292" x2="3036" y2="292"/>
	<text transform="matrix(1 0 0 1 263 322)" font-family="'Arial-BoldMT'" font-size="12">Weight/Scale Variations</text>
	<text transform="matrix(1 0 0 1 536.0361 322)" font-family="'ArialMT'" font-size="12">Ultralight</text>
	<text transform="matrix(1 0 0 1 844.75 322)" font-family="'ArialMT'" font-size="12">Thin</text>
	<text transform="matrix(1 0 0 1 1140.1191 322)" font-family="'ArialMT'" font-size="12">Light</text>
	<text transform="matrix(1 0 0 1 1428.8281 322)" font-family="'ArialMT'" font-size="12">Regular</text>
	<text transform="matrix(1 0 0 1 1725.2207 322)" font-family="'ArialMT'" font-size="12">Medium</text>
	<text transform="matrix(1 0 0 1 2018.2559 322)" font-family="'ArialMT'" font-size="12">Semibold</text>
	<text transform="matrix(1 0 0 1 2327.9707 322)" font-family="'ArialMT'" font-size="12">Bold</text>
	<text transform="matrix(1 0 0 1 2619.6836 322)" font-family="'ArialMT'" font-size="12">Heavy</text>
	<text transform="matrix(1 0 0 1 2918.7285 322)" font-family="'ArialMT'" font-size="12">Black</text>
	<line fill="none" stroke="#000000" stroke-width="0.5" x1="263" y1="1903" x2="3036" y2="1903"/>
	<g transform="matrix(1 0 0 1 263 1933)">
		<path d="M9.248,0.83c4.307,0,7.891-3.574,7.891-7.881c0-4.308-3.594-7.881-7.9-7.881c-4.297,0-7.871,3.573-7.871,7.881
			C1.368-2.744,4.951,0.83,9.248,0.83z M9.248-0.654c-3.545,0-6.377-2.842-6.377-6.396s2.822-6.396,6.367-6.396
			c3.555,0,6.396,2.843,6.406,6.396C15.654-3.496,12.803-0.654,9.248-0.654z M6.396-6.318h2.109v2.119
			c0,0.439,0.293,0.742,0.723,0.742c0.449,0,0.742-0.303,0.742-0.742v-2.119h2.13c0.439,0,0.742-0.293,0.742-0.723
			c0-0.439-0.303-0.742-0.742-0.742H9.971v-2.108c0-0.449-0.293-0.753-0.742-0.753c-0.43,0-0.723,0.304-0.723,0.753v2.108h-2.11
			c-0.449,0-0.752,0.303-0.752,0.742C5.645-6.611,5.947-6.318,6.396-6.318z"/>
	</g>
	<g transform="matrix(1 0 0 1 281.506 1933)">
		<path d="M11.709,2.91c5.449,0,9.961-4.521,9.961-9.961c0-5.449-4.521-9.961-9.971-9.961c-5.439,0-9.951,4.512-9.951,9.961
			C1.748-1.611,6.269,2.91,11.709,2.91z M11.709,1.25c-4.609,0-8.291-3.691-8.291-8.301c0-4.61,3.672-8.301,8.281-8.301
			S20-11.66,20.01-7.051C20.02-2.442,16.318,1.25,11.709,1.25z M7.988-6.23h2.891v2.91c0,0.488,0.332,0.82,0.811,0.82
			c0.488,0,0.83-0.332,0.83-0.82v-2.91h2.91c0.488,0,0.82-0.332,0.82-0.811c0-0.488-0.332-0.83-0.82-0.83h-2.91v-2.891
			c0-0.508-0.342-0.84-0.83-0.84c-0.479,0-0.811,0.342-0.811,0.84v2.891H7.988c-0.508,0-0.84,0.342-0.84,0.83
			C7.148-6.563,7.49-6.23,7.988-6.23z"/>
	</g>
	<g transform="matrix(1 0 0 1 304.924 1933)">
		<path d="M14.97,5.664c6.963,0,12.725-5.762,12.725-12.715c0-6.963-5.771-12.726-12.734-12.726
			c-6.953,0-12.705,5.763-12.705,12.726C2.256-0.097,8.017,5.664,14.97,5.664z M14.97,3.848C8.935,3.848,4.081-1.015,4.081-7.05
			c0-6.045,4.844-10.898,10.879-10.898c6.045,0,10.898,4.854,10.908,10.898C25.879-1.015,21.015,3.848,14.97,3.848z M10.058-6.142
			h4.004v4.014c0,0.537,0.371,0.908,0.889,0.908c0.537,0,0.908-0.371,0.908-0.908v-4.014h4.023c0.527,0,0.908-0.371,0.908-0.89
			c0-0.537-0.371-0.918-0.908-0.918h-4.023v-4.004c0-0.557-0.371-0.928-0.908-0.928c-0.518,0-0.889,0.381-0.889,0.928v4.004h-4.004
			c-0.557,0-0.928,0.381-0.928,0.918C9.131-6.513,9.511-6.142,10.058-6.142z"/>
	</g>
	<text transform="matrix(1 0 0 1 263 1953)" font-family="'Arial-BoldMT'" font-size="12">Design Variations</text>
	<text transform="matrix(1 0 0 1 263 1971)" font-family="'ArialMT'" font-size="12">Symbols are supported in up to nine weights and three scales.</text>
	<text transform="matrix(1 0 0 1 263 1989)" font-family="'ArialMT'" font-size="12">For optimal layout with text and other symbols, vertically align</text>
	<text transform="matrix(1 0 0 1 263 2007)" font-family="'ArialMT'" font-size="12">symbols with the adjacent text.</text>
	<line fill="none" stroke="#00AEEF" stroke-width="0.5" x1="776" y1="1919" x2="776" y2="1933"/>
	<g transform="matrix(1 0 0 1 776 1933)">
		<path d="M3.311,0.127c0.519,0,0.771-0.195,0.957-0.732l1.261-3.457h5.762l1.26,3.457c0.187,0.537,0.439,0.732,0.947,0.732
			c0.518,0,0.85-0.313,0.85-0.801c0-0.166-0.028-0.313-0.106-0.527L9.66-13.389c-0.226-0.605-0.625-0.898-1.25-0.898
			c-0.605,0-1.017,0.293-1.23,0.889L2.598-1.191C2.52-0.976,2.49-0.83,2.49-0.664C2.49-0.176,2.803,0.127,3.311,0.127z M6.006-5.537
			l2.373-6.572h0.049l2.373,6.572H6.006z"/>
	</g>
	<line fill="none" stroke="#00AEEF" stroke-width="0.5" x1="792.836" y1="1919" x2="792.836" y2="1933"/>
	<text transform="matrix(1 0 0 1 776 1953)" font-family="'Arial-BoldMT'" font-size="12">Margins</text>
	<text transform="matrix(1 0 0 1 776 1971)" font-family="'ArialMT'" font-size="12">Leading and trailing margins on the left and right side of each symbol</text>
	<text transform="matrix(1 0 0 1 776 1989)" font-family="'ArialMT'" font-size="12">can be adjusted by modifying the x-location of the margin guidelines.</text>
	<text transform="matrix(1 0 0 1 776 2007)" font-family="'ArialMT'" font-size="12">Modifications are automatically applied proportionally to all</text>
	<text transform="matrix(1 0 0 1 776 2025)" font-family="'ArialMT'" font-size="12">scales and weights.</text>
	<g transform="matrix(1 0 0 1 1289 1933)">
		<path d="M2.842,1.865l1.699,1.709C5.4,4.444,6.387,4.385,7.314,3.36L17.49-7.851c0.264,0.088,0.537,0.067,0.85,0.01l1.064-0.195
			l0.664,0.674l-0.039,0.558c-0.039,0.498,0.088,0.879,0.576,1.356l0.762,0.742c0.479,0.479,1.094,0.508,1.563,0.039l2.91-2.92
			c0.469-0.469,0.449-1.064-0.029-1.543L25.04-9.892c-0.479-0.479-0.851-0.636-1.328-0.597l-0.576,0.049l-0.645-0.635l0.244-1.123
			c0.127-0.565-0.029-1.006-0.615-1.592l-2.197-2.188c-3.34-3.32-7.772-3.242-10.664-0.353c-0.42,0.41-0.448,0.986-0.215,1.377
			c0.234,0.361,0.693,0.597,1.338,0.431c1.465-0.343,2.988-0.4,4.414,0.536L14.21-12.53c-0.195,0.479-0.225,0.879-0.098,1.24
			L3.047-0.898C2.061,0.02,1.982,0.996,2.842,1.865z M10.752-15.957c2.432-1.777,5.723-1.475,7.949,0.752l2.432,2.412
			c0.234,0.234,0.273,0.42,0.205,0.762l-0.322,1.484l1.504,1.484l0.986-0.06c0.254-0.01,0.332,0.01,0.527,0.205l0.576,0.576
			L22.168-5.9l-0.576-0.575c-0.195-0.195-0.225-0.273-0.215-0.537l0.068-0.978l-1.494-1.483L18.428-9.22
			c-0.322,0.067-0.469,0.039-0.713-0.195l-2.002-2.002c-0.254-0.234-0.283-0.4-0.127-0.771l0.879-2.091
			c-1.563-1.455-3.594-2.08-5.625-1.483C10.684-15.722,10.625-15.849,10.752-15.957z M5.273,2.305L4.102,1.143
			C3.633,0.684,3.74,0.342,4.141-0.02l10.812-10.176l1.465,1.484L6.426,2.276C6.074,2.676,5.742,2.774,5.273,2.305z"/>
	</g>
	<text transform="matrix(1 0 0 1 1289 1953)" font-family="'Arial-BoldMT'" font-size="12">Exporting</text>
	<text transform="matrix(1 0 0 1 1289 1971)" font-family="'ArialMT'" font-size="12">Symbols should be outlined when exporting to ensure the</text>
	<text transform="matrix(1 0 0 1 1289 1989)" font-family="'ArialMT'" font-size="12">design is preserved when submitting to Xcode.</text>
	<text id="template-version" transform="matrix(1 0 0 1 2958.8496 1933)" font-family="'ArialMT'" font-size="12">Template v.2.0</text>
	<text transform="matrix(1 0 0 1 2878.5762 1951)" font-family="'ArialMT'" font-size="12">Requires Xcode 12 or greater</text>
	<text transform="matrix(1 0 0 1 2893.2832 1969)" font-family="'ArialMT'" font-size="12">Generated from mission.fill</text>
	<text transform="matrix(1 0 0 1 2921.9238 1987)" font-family="'ArialMT'" font-size="12">Typeset at 100 points</text>
	<text transform="matrix(1 0 0 1 263 726)" font-family="'ArialMT'" font-size="12">Small</text>
	<text transform="matrix(1 0 0 1 263 1156)" font-family="'ArialMT'" font-size="12">Medium</text>
	<text transform="matrix(1 0 0 1 263 1586)" font-family="'ArialMT'" font-size="12">Large</text>
</g>
<g id="Guides">
	<g id="H-reference" transform="matrix(1 0 0 1 339 696)">
		<path fill="#27AAE1" d="M0.977,0h2.686l9.326-24.463h32.764L55.127,0h2.637L30.615-70.459h-2.49L0.977,0z M29.346-67.139h0.098
			l15.43,40.431H13.867L29.346-67.139z"/>
	</g>
	<line id="Baseline-S" fill="none" stroke="#27AAE1" stroke-width="0.5" x1="263" y1="696" x2="3036" y2="696"/>
	<line id="Capline-S" fill="none" stroke="#27AAE1" stroke-width="0.5" x1="263" y1="625.541" x2="3036" y2="625.541"/>
	<g id="H-reference_1_" transform="matrix(1 0 0 1 339 1126)">
		<path fill="#27AAE1" d="M0.977,0h2.686l9.326-24.463h32.764L55.127,0h2.637L30.615-70.459h-2.49L0.977,0z M29.346-67.138h0.098
			l15.43,40.43H13.867L29.346-67.138z"/>
	</g>
	<line id="Baseline-M" fill="none" stroke="#27AAE1" stroke-width="0.5" x1="263" y1="1126" x2="3036" y2="1126"/>
	<line id="Capline-M" fill="none" stroke="#27AAE1" stroke-width="0.5" x1="263" y1="1055.539" x2="3036" y2="1055.539"/>
	<g id="H-reference_2_" transform="matrix(1 0 0 1 339 1556)">
		<path fill="#27AAE1" d="M0.977,0h2.686l9.326-24.463h32.764L55.127,0h2.637L30.615-70.459h-2.49L0.977,0z M29.346-67.138h0.098
			l15.43,40.43H13.867L29.346-67.138z"/>
	</g>
	<line id="Baseline-L" fill="none" stroke="#27AAE1" stroke-width="0.5" x1="263" y1="1556" x2="3036" y2="1556"/>
	<line id="Capline-L" fill="none" stroke="#27AAE1" stroke-width="0.5" x1="263" y1="1485.539" x2="3036" y2="1485.539"/>
	<line id="left-margin" fill="none" stroke="#00AEEF" stroke-width="0.5" x1="1383.58" y1="1030.789" x2="1383.58" y2="1150.119"/>
	<line id="right-margin" fill="none" stroke="#00AEEF" stroke-width="0.5" x1="1516.1" y1="1030.789" x2="1516.1" y2="1150.119"/>
</g>
<g id="Symbols">
	<g id="Black-L" transform="matrix(1 0 0 1 2846.24 1556)">
		<path d="M101.269-35.229c0,7.792-6.319,14.108-14.109,14.108c-7.792,0-14.112-6.316-14.112-14.108s6.32-14.11,14.112-14.11
			C94.949-49.34,101.269-43.021,101.269-35.229z M130.818-35.229c0-24.073-19.585-43.658-43.658-43.658
			c-24.074,0-43.659,19.585-43.659,43.658c0,24.072,19.585,43.658,43.659,43.658C111.233,8.429,130.818-11.157,130.818-35.229z
			 M114.048-35.229c0,14.826-12.063,26.888-26.889,26.888c-14.827,0-26.89-12.062-26.89-26.888s12.063-26.889,26.89-26.889
			C101.986-62.118,114.048-50.056,114.048-35.229z M159.415-35.229c0-39.843-32.413-72.256-72.256-72.256
			S14.903-75.072,14.903-35.229s32.414,72.256,72.257,72.256S159.415,4.613,159.415-35.229z M142.646-35.229
			c0,30.595-24.892,55.486-55.486,55.486c-30.596,0-55.487-24.892-55.487-55.486s24.892-55.486,55.487-55.486
			C117.754-90.716,142.646-65.824,142.646-35.229z"/>
	</g>
	<g id="Heavy-L" transform="matrix(1 0 0 1 2550.07 1556)">
		<path d="M100.727-35.229c0,7.792-6.318,14.108-14.109,14.108s-14.111-6.316-14.111-14.108s6.32-14.11,14.111-14.11
			S100.727-43.021,100.727-35.229z M129.631-35.229c0-23.718-19.296-43.014-43.014-43.014c-23.719,0-43.015,19.296-43.015,43.014
			S62.899,7.783,86.617,7.783C110.335,7.783,129.631-11.512,129.631-35.229z M114.151-35.229c0,15.182-12.352,27.533-27.533,27.533
			c-15.183,0-27.534-12.352-27.534-27.533s12.352-27.533,27.534-27.533C101.799-62.763,114.151-50.411,114.151-35.229z
			 M158.229-35.229c0-39.486-32.125-71.611-71.611-71.611c-39.487,0-71.612,32.125-71.612,71.611
			c0,39.485,32.125,71.611,71.612,71.611C126.104,36.382,158.229,4.256,158.229-35.229z M142.748-35.229
			c0,30.951-25.18,56.131-56.131,56.131S30.485-4.278,30.485-35.229s25.182-56.132,56.133-56.132S142.748-66.181,142.748-35.229z"/>
	</g>
	<g id="Bold-L" transform="matrix(1 0 0 1 2253.97 1556)">
		<path d="M100.121-35.229c0,7.792-6.319,14.108-14.109,14.108c-7.791,0-14.111-6.316-14.111-14.108s6.32-14.11,14.111-14.11
			C93.802-49.34,100.121-43.021,100.121-35.229z M128.38-35.229c0-23.362-19.006-42.368-42.368-42.368S43.642-58.592,43.642-35.229
			S62.649,7.139,86.011,7.139S128.38-11.867,128.38-35.229z M114.19-35.229c0,15.538-12.641,28.179-28.179,28.179
			s-28.18-12.641-28.18-28.179s12.642-28.179,28.18-28.179S114.19-50.768,114.19-35.229z M156.977-35.229
			c0-39.131-31.835-70.966-70.966-70.966c-39.132,0-70.967,31.835-70.967,70.966S46.88,35.736,86.011,35.736
			C125.142,35.736,156.977,3.901,156.977-35.229z M142.788-35.229c0,31.307-25.47,56.776-56.776,56.776
			c-31.308,0-56.777-25.47-56.777-56.776s25.47-56.776,56.777-56.776C117.318-92.006,142.788-66.536,142.788-35.229z"/>
	</g>
	<g id="Semibold-L" transform="matrix(1 0 0 1 1957.7 1556)">
		<path d="M99.674-35.229c0,7.792-6.319,14.108-14.109,14.108c-7.792,0-14.112-6.316-14.112-14.108s6.32-14.11,14.112-14.11
			C93.355-49.34,99.674-43.021,99.674-35.229z M127.288-35.229c0-23.007-18.718-41.724-41.724-41.724
			c-23.007,0-41.725,18.717-41.725,41.724c0,23.006,18.718,41.724,41.725,41.724C108.571,6.494,127.288-12.224,127.288-35.229z
			 M114.388-35.229c0,15.894-12.93,28.823-28.823,28.823c-15.895,0-28.824-12.93-28.824-28.823s12.93-28.823,28.824-28.823
			C101.458-64.053,114.388-51.123,114.388-35.229z M155.886-35.229c0-38.774-31.546-70.321-70.321-70.321
			S15.242-74.004,15.242-35.229c0,38.775,31.547,70.321,70.322,70.321S155.886,3.546,155.886-35.229z M142.986-35.229
			c0,31.661-25.76,57.421-57.421,57.421c-31.663,0-57.423-25.76-57.423-57.421c0-31.662,25.76-57.421,57.423-57.421
			C117.226-92.65,142.986-66.892,142.986-35.229z"/>
	</g>
	<g id="Medium-L" transform="matrix(1 0 0 1 1661.3 1556)">
		<path d="M99.364-35.229c0,7.792-6.318,14.108-14.109,14.108s-14.111-6.316-14.111-14.108s6.32-14.11,14.111-14.11
			S99.364-43.021,99.364-35.229z M126.333-35.229c0-22.65-18.428-41.078-41.078-41.078c-22.651,0-41.079,18.428-41.079,41.078
			S62.603,5.849,85.255,5.849C107.905,5.849,126.333-12.579,126.333-35.229z M114.723-35.229c0,16.248-13.221,29.468-29.469,29.468
			c-16.25,0-29.47-13.22-29.47-29.468c0-16.25,13.22-29.469,29.47-29.469C101.503-64.698,114.723-51.479,114.723-35.229z
			 M154.93-35.229c0-38.419-31.257-69.677-69.676-69.677c-38.42,0-69.678,31.258-69.678,69.677s31.258,69.676,69.678,69.676
			C123.674,34.446,154.93,3.189,154.93-35.229z M143.321-35.229c0,32.018-26.048,58.066-58.066,58.066
			c-32.018,0-58.067-26.049-58.067-58.066c0-32.017,26.05-58.066,58.067-58.066C117.273-93.296,143.321-67.246,143.321-35.229z"/>
	</g>
	<g id="Regular-L" transform="matrix(1 0 0 1 1365.01 1556)">
		<path d="M98.907-35.229c0,7.792-6.318,14.108-14.109,14.108s-14.11-6.316-14.11-14.108s6.319-14.11,14.11-14.11
			S98.907-43.021,98.907-35.229z M125.231-35.229c0-22.295-18.138-40.434-40.434-40.434S44.364-57.524,44.364-35.229
			S62.502,5.204,84.798,5.204S125.231-12.935,125.231-35.229z M114.911-35.229c0,16.604-13.509,30.113-30.113,30.113
			c-16.605,0-30.114-13.509-30.114-30.113s13.509-30.113,30.114-30.113C101.402-65.343,114.911-51.834,114.911-35.229z
			 M153.829-35.229c0-38.063-30.967-69.031-69.032-69.031S15.766-73.293,15.766-35.229s30.967,69.031,69.032,69.031
			S153.829,2.834,153.829-35.229z M143.51-35.229c0,32.373-26.338,58.711-58.712,58.711S26.086-2.856,26.086-35.229
			S52.424-93.94,84.798-93.94S143.51-67.603,143.51-35.229z"/>
	</g>
	<g id="Light-L" transform="matrix(1 0 0 1 1069.2 1556)">
		<path d="M98.043-35.229c0,7.792-6.318,14.108-14.109,14.108s-14.11-6.316-14.11-14.108s6.319-14.11,14.11-14.11
			S98.043-43.021,98.043-35.229z M123.4-35.229c0-21.763-17.704-39.466-39.466-39.466S44.468-56.992,44.468-35.229
			c0,21.761,17.705,39.466,39.466,39.466S123.4-13.469,123.4-35.229z M115.015-35.229c0,17.138-13.943,31.081-31.081,31.081
			c-17.139,0-31.082-13.943-31.082-31.081s13.943-31.081,31.082-31.081C101.072-66.311,115.015-52.367,115.015-35.229z
			 M151.998-35.229c0-37.529-30.534-68.063-68.064-68.063S15.869-72.759,15.869-35.229c0,37.53,30.534,68.063,68.064,68.063
			S151.998,2.301,151.998-35.229z M143.613-35.229c0,32.907-26.772,59.679-59.679,59.679S24.255-2.322,24.255-35.229
			c0-32.906,26.772-59.679,59.679-59.679S143.613-68.136,143.613-35.229z"/>
	</g>
	<g id="Thin-L" transform="matrix(1 0 0 1 773.683 1556)">
		<path d="M96.848-35.229c0,7.792-6.318,14.108-14.109,14.108s-14.111-6.316-14.111-14.108s6.32-14.11,14.111-14.11
			S96.848-43.021,96.848-35.229z M121.237-35.229c0-21.229-17.271-38.498-38.499-38.498s-38.499,17.27-38.499,38.498
			S61.51,3.269,82.738,3.269S121.237-14.001,121.237-35.229z M114.787-35.229c0,17.672-14.377,32.048-32.048,32.048
			c-17.672,0-32.049-14.376-32.049-32.048c0-17.671,14.377-32.049,32.049-32.049C100.41-67.278,114.787-52.9,114.787-35.229z
			 M149.835-35.229c0-36.997-30.099-67.097-67.097-67.097s-67.097,30.1-67.097,67.097s30.099,67.096,67.097,67.096
			S149.835,1.768,149.835-35.229z M143.385-35.229c0,33.44-27.206,60.646-60.647,60.646S22.091-1.789,22.091-35.229
			s27.206-60.646,60.647-60.646S143.385-68.67,143.385-35.229z"/>
	</g>
	<g id="Ultralight-L" transform="matrix(1 0 0 1 477.607 1556)">
		<path d="M96.214-35.229c0,7.792-6.318,14.108-14.109,14.108s-14.111-6.316-14.111-14.108s6.32-14.11,14.111-14.11
			S96.214-43.021,96.214-35.229z M119.635-35.229c0-20.694-16.836-37.531-37.531-37.531S44.573-55.924,44.573-35.229
			S61.41,2.301,82.104,2.301S119.635-14.535,119.635-35.229z M115.12-35.229c0,18.205-14.811,33.016-33.016,33.016
			c-18.206,0-33.017-14.811-33.017-33.016s14.811-33.016,33.017-33.016C100.309-68.245,115.12-53.435,115.12-35.229z
			 M148.234-35.229c0-36.464-29.666-66.129-66.129-66.129S15.975-71.693,15.975-35.229s29.666,66.129,66.129,66.129
			S148.234,1.234,148.234-35.229z M143.719-35.229c0,33.975-27.64,61.613-61.614,61.613S20.49-1.255,20.49-35.229
			c0-33.974,27.64-61.614,61.614-61.614S143.719-69.203,143.719-35.229z"/>
	</g>
	<g id="Black-M" transform="matrix(1 0 0 1 2865.58 1126)">
		<path d="M78.757-35.181c0,6.04-4.898,10.937-10.938,10.937c-6.04,0-10.939-4.897-10.939-10.937s4.899-10.938,10.939-10.938
			C73.858-46.119,78.757-41.22,78.757-35.181z M101.663-35.181c0-18.662-15.183-33.844-33.844-33.844
			c-18.662,0-33.845,15.182-33.845,33.844c0,18.661,15.183,33.844,33.845,33.844C86.48-1.337,101.663-16.52,101.663-35.181z
			 M88.663-35.181c0,11.493-9.351,20.844-20.844,20.844c-11.494,0-20.845-9.351-20.845-20.844s9.351-20.844,20.845-20.844
			C79.313-56.024,88.663-46.674,88.663-35.181z M123.832-35.181c0-30.885-25.127-56.012-56.013-56.012S11.806-66.066,11.806-35.181
			c0,30.886,25.128,56.013,56.014,56.013S123.832-4.295,123.832-35.181z M110.832-35.181c0,23.717-19.296,43.013-43.013,43.013
			c-23.718,0-43.014-19.296-43.014-43.013s19.296-43.012,43.014-43.012C91.536-78.193,110.832-58.897,110.832-35.181z"/>
	</g>
	<g id="Heavy-M" transform="matrix(1 0 0 1 2569.23 1126)">
		<path d="M78.395-35.181c0,6.04-4.898,10.937-10.938,10.937c-6.04,0-10.939-4.897-10.939-10.937s4.899-10.938,10.939-10.938
			C73.497-46.119,78.395-41.22,78.395-35.181z M100.801-35.181c0-18.386-14.958-33.344-33.344-33.344
			c-18.387,0-33.345,14.958-33.345,33.344S49.071-1.837,67.458-1.837C85.843-1.837,100.801-16.795,100.801-35.181z M88.801-35.181
			c0,11.769-9.575,21.344-21.344,21.344c-11.77,0-21.345-9.575-21.345-21.344c0-11.769,9.575-21.344,21.345-21.344
			C79.226-56.524,88.801-46.95,88.801-35.181z M122.97-35.181c0-30.609-24.903-55.512-55.513-55.512
			c-30.61,0-55.514,24.903-55.514,55.512s24.903,55.513,55.514,55.513C98.067,20.332,122.97-4.571,122.97-35.181z M110.97-35.181
			c0,23.993-19.52,43.513-43.513,43.513s-43.514-19.52-43.514-43.513c0-23.993,19.521-43.512,43.514-43.512
			S110.97-59.173,110.97-35.181z"/>
	</g>
	<g id="Bold-M" transform="matrix(1 0 0 1 2272.94 1126)">
		<path d="M77.979-35.181c0,6.04-4.898,10.937-10.938,10.937c-6.04,0-10.939-4.897-10.939-10.937s4.899-10.938,10.939-10.938
			C73.081-46.119,77.979-41.22,77.979-35.181z M99.885-35.181c0-18.11-14.733-32.844-32.844-32.844S34.197-53.291,34.197-35.181
			c0,18.11,14.734,32.844,32.845,32.844S99.885-17.07,99.885-35.181z M88.885-35.181c0,12.045-9.799,21.844-21.844,21.844
			s-21.845-9.799-21.845-21.844s9.8-21.844,21.845-21.844S88.885-47.226,88.885-35.181z M122.054-35.181
			c0-30.334-24.679-55.012-55.013-55.012c-30.335,0-55.014,24.678-55.014,55.012s24.679,55.013,55.014,55.013
			C97.375,19.832,122.054-4.847,122.054-35.181z M111.054-35.181c0,24.269-19.744,44.013-44.013,44.013
			c-24.27,0-44.014-19.744-44.014-44.013s19.744-44.012,44.014-44.012C91.31-79.193,111.054-59.449,111.054-35.181z"/>
	</g>
	<g id="Semibold-M" transform="matrix(1 0 0 1 1976.52 1126)">
		<path d="M77.682-35.181c0,6.04-4.898,10.937-10.938,10.937c-6.04,0-10.939-4.897-10.939-10.937s4.899-10.938,10.939-10.938
			C72.784-46.119,77.682-41.22,77.682-35.181z M99.088-35.181c0-17.834-14.51-32.344-32.344-32.344
			C48.91-67.524,34.4-53.015,34.4-35.181c0,17.834,14.51,32.344,32.345,32.344C84.579-2.837,99.088-17.347,99.088-35.181z
			 M89.088-35.181c0,12.32-10.023,22.344-22.344,22.344C54.423-12.837,44.4-22.86,44.4-35.181s10.023-22.344,22.345-22.344
			C79.065-57.524,89.088-47.501,89.088-35.181z M121.257-35.181c0-30.058-24.454-54.512-54.513-54.512S12.231-65.239,12.231-35.181
			c0,30.059,24.455,54.513,54.514,54.513S121.257-5.122,121.257-35.181z M111.257-35.181c0,24.544-19.969,44.513-44.513,44.513
			c-24.545,0-44.514-19.969-44.514-44.513S42.2-79.693,66.745-79.693C91.289-79.693,111.257-59.725,111.257-35.181z"/>
	</g>
	<g id="Medium-M" transform="matrix(1 0 0 1 1680.03 1126)">
		<path d="M77.462-35.181c0,6.04-4.898,10.937-10.938,10.937c-6.04,0-10.939-4.897-10.939-10.937s4.899-10.938,10.939-10.938
			C72.564-46.119,77.462-41.22,77.462-35.181z M98.368-35.181c0-17.559-14.285-31.844-31.844-31.844
			c-17.56,0-31.845,14.285-31.845,31.844S48.965-3.337,66.525-3.337C84.083-3.337,98.368-17.622,98.368-35.181z M89.368-35.181
			c0,12.596-10.248,22.844-22.844,22.844c-12.597,0-22.845-10.248-22.845-22.844c0-12.596,10.248-22.844,22.845-22.844
			C79.12-58.024,89.368-47.777,89.368-35.181z M120.537-35.181c0-29.782-24.23-54.012-54.013-54.012
			c-29.783,0-54.014,24.23-54.014,54.012s24.23,54.013,54.014,54.013C96.307,18.832,120.537-5.398,120.537-35.181z M111.537-35.181
			c0,24.82-20.192,45.013-45.013,45.013S21.511-10.36,21.511-35.181c0-24.82,20.193-45.012,45.014-45.012S111.537-60,111.537-35.181
			z"/>
	</g>
	<g id="Regular-M" transform="matrix(1 0 0 1 1383.58 1126)">
		<path d="M77.165-35.181c0,6.04-4.898,10.937-10.938,10.937s-10.938-4.897-10.938-10.937s4.899-10.938,10.938-10.938
			S77.165-41.22,77.165-35.181z M97.571-35.181c0-17.283-14.061-31.344-31.344-31.344S34.883-52.464,34.883-35.181
			S48.944-3.837,66.228-3.837S97.571-17.897,97.571-35.181z M89.571-35.181c0,12.872-10.472,23.344-23.344,23.344
			c-12.872,0-23.344-10.472-23.344-23.344c0-12.872,10.472-23.344,23.344-23.344C79.099-58.524,89.571-48.052,89.571-35.181z
			 M119.741-35.181c0-29.507-24.006-53.512-53.513-53.512S12.714-64.688,12.714-35.181S36.72,18.332,66.228,18.332
			S119.741-5.674,119.741-35.181z M111.741-35.181c0,25.096-20.417,45.513-45.513,45.513S20.714-10.085,20.714-35.181
			s20.417-45.512,45.513-45.512S111.741-60.276,111.741-35.181z"/>
	</g>
	<g id="Light-M" transform="matrix(1 0 0 1 1087.68 1126)">
		<path d="M76.391-35.181c0,6.04-4.898,10.937-10.938,10.937s-10.938-4.897-10.938-10.937s4.899-10.938,10.938-10.938
			S76.391-41.22,76.391-35.181z M96.047-35.181c0-16.87-13.724-30.594-30.594-30.594S34.859-52.05,34.859-35.181
			c0,16.869,13.725,30.594,30.594,30.594S96.047-18.312,96.047-35.181z M89.547-35.181c0,13.285-10.809,24.094-24.094,24.094
			c-13.286,0-24.094-10.809-24.094-24.094s10.809-24.094,24.094-24.094C78.739-59.274,89.547-48.466,89.547-35.181z M118.217-35.181
			c0-29.093-23.669-52.762-52.763-52.762S12.691-64.274,12.691-35.181c0,29.094,23.669,52.763,52.763,52.763
			S118.217-6.087,118.217-35.181z M111.717-35.181c0,25.51-20.753,46.263-46.263,46.263S19.191-9.671,19.191-35.181
			c0-25.509,20.753-46.262,46.263-46.262S111.717-60.69,111.717-35.181z"/>
	</g>
	<g id="Thin-M" transform="matrix(1 0 0 1 792.042 1126)">
		<path d="M75.317-35.181c0,6.04-4.898,10.937-10.938,10.937s-10.938-4.897-10.938-10.937s4.899-10.938,10.938-10.938
			S75.317-41.22,75.317-35.181z M94.223-35.181c0-16.456-13.388-29.844-29.844-29.844S34.535-51.637,34.535-35.181
			S47.923-5.337,64.379-5.337S94.223-18.725,94.223-35.181z M89.223-35.181c0,13.699-11.145,24.844-24.844,24.844
			c-13.699,0-24.844-11.145-24.844-24.844c0-13.699,11.145-24.844,24.844-24.844C78.078-60.024,89.223-48.879,89.223-35.181z
			 M116.393-35.181c0-28.68-23.333-52.012-52.013-52.012S12.366-63.86,12.366-35.181s23.333,52.013,52.013,52.013
			S116.393-6.501,116.393-35.181z M111.393-35.181c0,25.923-21.09,47.013-47.013,47.013S17.366-9.258,17.366-35.181
			s21.09-47.012,47.013-47.012S111.393-61.104,111.393-35.181z"/>
	</g>
	<g id="Ultralight-M" transform="matrix(1 0 0 1 495.893 1126)">
		<path d="M74.756-35.181c0,6.04-4.898,10.937-10.938,10.937S52.88-29.141,52.88-35.181s4.899-10.938,10.938-10.938
			S74.756-41.22,74.756-35.181z M92.912-35.181c0-16.042-13.051-29.094-29.094-29.094S34.724-51.223,34.724-35.181
			c0,16.042,13.052,29.094,29.094,29.094S92.912-19.139,92.912-35.181z M89.412-35.181c0,14.112-11.481,25.594-25.594,25.594
			c-14.113,0-25.594-11.481-25.594-25.594s11.481-25.594,25.594-25.594C77.931-60.774,89.412-49.293,89.412-35.181z M115.082-35.181
			c0-28.266-22.997-51.262-51.263-51.262S12.555-63.447,12.555-35.181c0,28.267,22.997,51.263,51.263,51.263
			S115.082-6.914,115.082-35.181z M111.582-35.181c0,26.337-21.426,47.763-47.763,47.763S16.055-8.844,16.055-35.181
			c0-26.336,21.426-47.762,47.763-47.762S111.582-61.517,111.582-35.181z"/>
	</g>
	<g id="Black-S" transform="matrix(1 0 0 1 2880.28 696)">
		<path d="M61.683-35.229c0,4.729-3.835,8.563-8.563,8.563c-4.729,0-8.565-3.834-8.565-8.563s3.836-8.564,8.565-8.564
			C57.848-43.794,61.683-39.958,61.683-35.229z M79.618-35.229c0-14.612-11.888-26.5-26.499-26.5
			c-14.612,0-26.501,11.888-26.501,26.5s11.889,26.5,26.501,26.5C67.731-8.73,79.618-20.618,79.618-35.229z M69.44-35.229
			c0,8.999-7.321,16.321-16.32,16.321c-9,0-16.321-7.322-16.321-16.321s7.321-16.32,16.321-16.32
			C62.118-51.55,69.44-44.229,69.44-35.229z M96.977-35.229c0-24.183-19.674-43.857-43.857-43.857S9.261-59.413,9.261-35.229
			c0,24.184,19.675,43.858,43.858,43.858S96.977-11.046,96.977-35.229z M86.798-35.229c0,18.57-15.108,33.679-33.679,33.679
			c-18.571,0-33.68-15.108-33.68-33.679s15.108-33.678,33.68-33.678C71.69-68.908,86.798-53.8,86.798-35.229z"/>
	</g>
	<g id="Heavy-S" transform="matrix(1 0 0 1 2583.76 696)">
		<path d="M61.492-35.229c0,4.729-3.836,8.563-8.564,8.563c-4.729,0-8.565-3.834-8.565-8.563s3.836-8.564,8.565-8.564
			C57.656-43.794,61.492-39.958,61.492-35.229z M79.036-35.229c0-14.396-11.712-26.108-26.108-26.108S26.818-49.625,26.818-35.229
			S38.531-9.121,52.927-9.121S79.036-20.833,79.036-35.229z M69.639-35.229c0,9.215-7.497,16.712-16.712,16.712
			c-9.216,0-16.713-7.497-16.713-16.712s7.497-16.712,16.713-16.712C62.142-51.941,69.639-44.444,69.639-35.229z M96.394-35.229
			c0-23.967-19.5-43.466-43.467-43.466c-23.968,0-43.467,19.499-43.467,43.466c0,23.967,19.499,43.466,43.467,43.466
			C76.894,8.237,96.394-11.262,96.394-35.229z M86.998-35.229c0,18.787-15.283,34.07-34.07,34.07s-34.071-15.284-34.071-34.07
			c0-18.786,15.284-34.07,34.071-34.07S86.998-54.016,86.998-35.229z"/>
	</g>
	<g id="Bold-S" transform="matrix(1 0 0 1 2287.27 696)">
		<path d="M61.275-35.229c0,4.729-3.835,8.563-8.563,8.563c-4.729,0-8.565-3.834-8.565-8.563s3.836-8.564,8.565-8.564
			C57.44-43.794,61.275-39.958,61.275-35.229z M78.427-35.229c0-14.18-11.535-25.716-25.716-25.716S26.994-49.409,26.994-35.229
			c0,14.181,11.537,25.717,25.718,25.717S78.427-21.049,78.427-35.229z M69.815-35.229c0,9.431-7.673,17.104-17.104,17.104
			s-17.104-7.672-17.104-17.104s7.674-17.104,17.104-17.104S69.815-44.661,69.815-35.229z M95.787-35.229
			c0-23.751-19.324-43.074-43.075-43.074c-23.753,0-43.075,19.323-43.075,43.074S28.958,7.845,52.711,7.845
			C76.462,7.845,95.787-11.478,95.787-35.229z M87.173-35.229c0,19.002-15.46,34.462-34.462,34.462
			c-19.003,0-34.463-15.459-34.463-34.462c0-19.002,15.46-34.461,34.463-34.461C71.713-69.691,87.173-54.231,87.173-35.229z"/>
	</g>
	<g id="Semibold-S" transform="matrix(1 0 0 1 1990.7 696)">
		<path d="M61.128-35.229c0,4.729-3.835,8.563-8.563,8.563c-4.729,0-8.565-3.834-8.565-8.563s3.836-8.564,8.565-8.564
			C57.293-43.794,61.128-39.958,61.128-35.229z M77.89-35.229c0-13.964-11.361-25.325-25.325-25.325
			c-13.965,0-25.326,11.361-25.326,25.325c0,13.964,11.361,25.325,25.326,25.325C66.529-9.904,77.89-21.266,77.89-35.229z
			 M70.06-35.229c0,9.647-7.849,17.495-17.495,17.495c-9.647,0-17.496-7.848-17.496-17.495c0-9.646,7.849-17.495,17.496-17.495
			C62.211-52.725,70.06-44.876,70.06-35.229z M95.247-35.229c0-23.535-19.146-42.683-42.683-42.683S9.88-58.765,9.88-35.229
			c0,23.536,19.148,42.684,42.685,42.684S95.247-11.693,95.247-35.229z M87.417-35.229c0,19.218-15.635,34.854-34.853,34.854
			c-19.219,0-34.854-15.636-34.854-34.854s15.636-34.853,34.854-34.853C71.782-70.083,87.417-54.447,87.417-35.229z"/>
	</g>
	<g id="Medium-S" transform="matrix(1 0 0 1 1694.09 696)">
		<path d="M61.029-35.229c0,4.729-3.836,8.563-8.564,8.563c-4.729,0-8.565-3.834-8.565-8.563s3.836-8.565,8.565-8.565
			C57.193-43.794,61.029-39.958,61.029-35.229z M77.398-35.229c0-13.748-11.186-24.934-24.934-24.934
			c-13.749,0-24.935,11.186-24.935,24.934c0,13.749,11.186,24.934,24.935,24.934C66.213-10.296,77.398-21.481,77.398-35.229z
			 M70.351-35.229c0,9.862-8.024,17.887-17.887,17.887c-9.863,0-17.888-8.024-17.888-17.887c0-9.863,8.024-17.887,17.888-17.887
			C62.327-53.116,70.351-45.092,70.351-35.229z M94.757-35.229c0-23.319-18.973-42.292-42.292-42.292
			c-23.32,0-42.293,18.972-42.293,42.292S29.144,7.063,52.465,7.063C75.784,7.063,94.757-11.91,94.757-35.229z M87.71-35.229
			c0,19.434-15.812,35.245-35.245,35.245c-19.435,0-35.246-15.811-35.246-35.245c0-19.434,15.812-35.244,35.246-35.244
			C71.898-70.474,87.71-54.663,87.71-35.229z"/>
	</g>
	<g id="Regular-S" transform="matrix(1 0 0 1 1397.53 696)">
		<path d="M60.842-35.229c0,4.729-3.835,8.563-8.564,8.563s-8.565-3.834-8.565-8.563s3.836-8.565,8.565-8.565
			S60.842-39.958,60.842-35.229z M76.82-35.229c0-13.533-11.009-24.542-24.542-24.542S27.735-48.762,27.735-35.229
			s11.01,24.542,24.542,24.542S76.82-21.697,76.82-35.229z M70.556-35.229c0,10.079-8.2,18.278-18.278,18.278
			c-10.079,0-18.278-8.199-18.278-18.278c0-10.078,8.199-18.278,18.278-18.278C62.356-53.508,70.556-45.308,70.556-35.229z
			 M94.178-35.229c0-23.104-18.796-41.9-41.9-41.9s-41.9,18.796-41.9,41.9c0,23.104,18.796,41.9,41.9,41.9
			S94.178-12.125,94.178-35.229z M87.914-35.229c0,19.65-15.986,35.636-35.637,35.636S16.641-15.58,16.641-35.229
			s15.986-35.636,35.637-35.636S87.914-54.879,87.914-35.229z"/>
	</g>
	<g id="Light-S" transform="matrix(1 0 0 1 1101.55 696)">
		<path d="M60.148-35.229c0,4.729-3.835,8.563-8.564,8.563s-8.564-3.834-8.564-8.563s3.835-8.564,8.564-8.564
			S60.148-39.958,60.148-35.229z M75.539-35.229c0-13.209-10.746-23.955-23.955-23.955S27.629-48.438,27.629-35.229
			c0,13.208,10.746,23.955,23.955,23.955S75.539-22.021,75.539-35.229z M70.449-35.229c0,10.402-8.463,18.865-18.865,18.865
			s-18.866-8.463-18.866-18.865s8.463-18.865,18.866-18.865S70.449-45.632,70.449-35.229z M92.897-35.229
			c0-22.78-18.533-41.313-41.313-41.313S10.27-58.009,10.27-35.229c0,22.78,18.533,41.313,41.313,41.313
			S92.897-12.449,92.897-35.229z M87.808-35.229c0,19.974-16.25,36.224-36.224,36.224S15.36-15.255,15.36-35.229
			c0-19.974,16.25-36.223,36.224-36.223S87.808-55.203,87.808-35.229z"/>
	</g>
	<g id="Thin-S" transform="matrix(1 0 0 1 805.763 696)">
		<path d="M59.222-35.229c0,4.729-3.835,8.563-8.564,8.563s-8.565-3.834-8.565-8.563s3.836-8.564,8.565-8.564
			S59.222-39.958,59.222-35.229z M74.026-35.229c0-12.885-10.482-23.368-23.368-23.368S27.29-48.114,27.29-35.229
			c0,12.885,10.483,23.368,23.368,23.368S74.026-22.344,74.026-35.229z M70.111-35.229c0,10.727-8.727,19.453-19.453,19.453
			c-10.727,0-19.453-8.726-19.453-19.453c0-10.726,8.727-19.453,19.453-19.453C61.384-54.682,70.111-45.956,70.111-35.229z
			 M91.384-35.229c0-22.456-18.27-40.726-40.726-40.726S9.932-57.686,9.932-35.229S28.202,5.497,50.658,5.497
			S91.384-12.773,91.384-35.229z M87.469-35.229c0,20.298-16.513,36.811-36.811,36.811S13.847-14.932,13.847-35.229
			c0-20.297,16.513-36.811,36.811-36.811S87.469-55.527,87.469-35.229z"/>
	</g>
	<g id="Ultralight-S" transform="matrix(1 0 0 1 509.54 696)">
		<path d="M58.735-35.229c0,4.729-3.835,8.563-8.564,8.563s-8.565-3.834-8.565-8.563s3.836-8.565,8.565-8.565
			S58.735-39.958,58.735-35.229z M72.952-35.229c0-12.561-10.219-22.78-22.78-22.78s-22.781,10.219-22.781,22.78
			s10.22,22.78,22.781,22.78S72.952-22.668,72.952-35.229z M70.211-35.229c0,11.05-8.99,20.04-20.04,20.04
			c-11.05,0-20.04-8.99-20.04-20.04s8.99-20.04,20.04-20.04C61.221-55.27,70.211-46.279,70.211-35.229z M90.311-35.229
			c0-22.132-18.006-40.138-40.139-40.138S10.032-57.362,10.032-35.229c0,22.133,18.006,40.139,40.139,40.139
			S90.311-13.097,90.311-35.229z M87.57-35.229c0,20.622-16.777,37.398-37.398,37.398S12.773-14.608,12.773-35.229
			c0-20.621,16.777-37.397,37.398-37.397S87.57-55.851,87.57-35.229z"/>
	</g>
</g>
</svg>
