<?xml version="1.0" encoding="utf-8"?>
<!-- Generator: Adobe Illustrator 16.0.0, SVG Export Plug-In . SVG Version: 6.00 Build 0)  -->
<!DOCTYPE svg PUBLIC "-//W3C//DTD SVG 1.1//EN" "http://www.w3.org/Graphics/SVG/1.1/DTD/svg11.dtd">
<svg version="1.1" id="Layer_1" xmlns="http://www.w3.org/2000/svg" xmlns:xlink="http://www.w3.org/1999/xlink" x="0px" y="0px"
	 width="3300px" height="2200px" viewBox="0 0 3300 2200" enable-background="new 0 0 3300 2200" xml:space="preserve">
<g id="Notes">
	<rect id="artboard" fill="#FFFFFF" width="3300" height="2200"/>
	<line fill="none" stroke="#000000" stroke-width="0.5" x1="263" y1="292" x2="3036" y2="292"/>
	<text transform="matrix(1 0 0 1 263 322)" font-family="'Arial-BoldMT'" font-size="12">Weight/Scale Variations</text>
	<text transform="matrix(1 0 0 1 536.0361 322)" font-family="'ArialMT'" font-size="12">Ultralight</text>
	<text transform="matrix(1 0 0 1 844.75 322)" font-family="'ArialMT'" font-size="12">Thin</text>
	<text transform="matrix(1 0 0 1 1140.1191 322)" font-family="'ArialMT'" font-size="12">Light</text>
	<text transform="matrix(1 0 0 1 1428.8281 322)" font-family="'ArialMT'" font-size="12">Regular</text>
	<text transform="matrix(1 0 0 1 1725.2207 322)" font-family="'ArialMT'" font-size="12">Medium</text>
	<text transform="matrix(1 0 0 1 2018.2559 322)" font-family="'ArialMT'" font-size="12">Semibold</text>
	<text transform="matrix(1 0 0 1 2327.9707 322)" font-family="'ArialMT'" font-size="12">Bold</text>
	<text transform="matrix(1 0 0 1 2619.6836 322)" font-family="'ArialMT'" font-size="12">Heavy</text>
	<text transform="matrix(1 0 0 1 2918.7285 322)" font-family="'ArialMT'" font-size="12">Black</text>
	<line fill="none" stroke="#000000" stroke-width="0.5" x1="263" y1="1903" x2="3036" y2="1903"/>
	<g transform="matrix(1 0 0 1 263 1933)">
		<path d="M9.248,0.83c4.307,0,7.891-3.574,7.891-7.881c0-4.309-3.594-7.881-7.9-7.881c-4.297,0-7.871,3.572-7.871,7.881
			C1.368-2.744,4.951,0.83,9.248,0.83z M9.248-0.654c-3.545,0-6.377-2.842-6.377-6.396s2.822-6.396,6.367-6.396
			c3.555,0,6.396,2.843,6.406,6.396C15.654-3.496,12.803-0.654,9.248-0.654z M6.396-6.318h2.109v2.119
			c0,0.439,0.293,0.742,0.723,0.742c0.449,0,0.742-0.303,0.742-0.742v-2.119h2.13c0.439,0,0.742-0.293,0.742-0.723
			c0-0.439-0.303-0.742-0.742-0.742H9.971v-2.107c0-0.449-0.293-0.754-0.742-0.754c-0.43,0-0.723,0.305-0.723,0.754v2.107h-2.11
			c-0.449,0-0.752,0.303-0.752,0.742C5.645-6.611,5.947-6.318,6.396-6.318z"/>
	</g>
	<g transform="matrix(1 0 0 1 281.506 1933)">
		<path d="M11.709,2.91c5.449,0,9.961-4.521,9.961-9.961c0-5.449-4.521-9.961-9.971-9.961c-5.439,0-9.951,4.512-9.951,9.961
			C1.748-1.611,6.269,2.91,11.709,2.91z M11.709,1.25c-4.609,0-8.291-3.691-8.291-8.301c0-4.61,3.672-8.301,8.281-8.301
			S20-11.66,20.01-7.051C20.02-2.442,16.318,1.25,11.709,1.25z M7.988-6.23h2.891v2.91c0,0.488,0.332,0.82,0.811,0.82
			c0.488,0,0.83-0.332,0.83-0.82v-2.91h2.91c0.488,0,0.82-0.332,0.82-0.811c0-0.488-0.332-0.83-0.82-0.83h-2.91v-2.891
			c0-0.508-0.342-0.84-0.83-0.84c-0.479,0-0.811,0.342-0.811,0.84v2.891H7.988c-0.508,0-0.84,0.342-0.84,0.83
			C7.148-6.563,7.49-6.23,7.988-6.23z"/>
	</g>
	<g transform="matrix(1 0 0 1 304.924 1933)">
		<path d="M14.97,5.664c6.963,0,12.725-5.762,12.725-12.715c0-6.963-5.771-12.727-12.734-12.727
			c-6.953,0-12.705,5.764-12.705,12.727C2.256-0.097,8.017,5.664,14.97,5.664z M14.97,3.848C8.935,3.848,4.081-1.015,4.081-7.05
			c0-6.045,4.844-10.898,10.879-10.898c6.045,0,10.898,4.854,10.908,10.898C25.879-1.015,21.015,3.848,14.97,3.848z M10.058-6.142
			h4.004v4.014c0,0.537,0.371,0.908,0.889,0.908c0.537,0,0.908-0.371,0.908-0.908v-4.014h4.023c0.527,0,0.908-0.371,0.908-0.891
			c0-0.537-0.371-0.918-0.908-0.918h-4.023v-4.004c0-0.557-0.371-0.928-0.908-0.928c-0.518,0-0.889,0.381-0.889,0.928v4.004h-4.004
			c-0.557,0-0.928,0.381-0.928,0.918C9.131-6.513,9.511-6.142,10.058-6.142z"/>
	</g>
	<text transform="matrix(1 0 0 1 263 1953)" font-family="'Arial-BoldMT'" font-size="12">Design Variations</text>
	<text transform="matrix(1 0 0 1 263 1971)" font-family="'ArialMT'" font-size="12">Symbols are supported in up to nine weights and three scales.</text>
	<text transform="matrix(1 0 0 1 263 1989)" font-family="'ArialMT'" font-size="12">For optimal layout with text and other symbols, vertically align</text>
	<text transform="matrix(1 0 0 1 263 2007)" font-family="'ArialMT'" font-size="12">symbols with the adjacent text.</text>
	<line fill="none" stroke="#00AEEF" stroke-width="0.5" x1="776" y1="1919" x2="776" y2="1933"/>
	<g transform="matrix(1 0 0 1 776 1933)">
		<path d="M3.311,0.127c0.52,0,0.771-0.195,0.957-0.732l1.262-3.457h5.762l1.26,3.457c0.188,0.537,0.439,0.732,0.947,0.732
			c0.518,0,0.85-0.313,0.85-0.801c0-0.166-0.027-0.313-0.105-0.527L9.66-13.389c-0.227-0.605-0.625-0.898-1.25-0.898
			c-0.605,0-1.018,0.293-1.23,0.889L2.598-1.191C2.52-0.976,2.49-0.83,2.49-0.664C2.49-0.176,2.803,0.127,3.311,0.127z M6.006-5.537
			l2.373-6.572h0.049l2.373,6.572H6.006z"/>
	</g>
	<line fill="none" stroke="#00AEEF" stroke-width="0.5" x1="792.836" y1="1919" x2="792.836" y2="1933"/>
	<text transform="matrix(1 0 0 1 776 1953)" font-family="'Arial-BoldMT'" font-size="12">Margins</text>
	<text transform="matrix(1 0 0 1 776 1971)" font-family="'ArialMT'" font-size="12">Leading and trailing margins on the left and right side of each symbol</text>
	<text transform="matrix(1 0 0 1 776 1989)" font-family="'ArialMT'" font-size="12">can be adjusted by modifying the x-location of the margin guidelines.</text>
	<text transform="matrix(1 0 0 1 776 2007)" font-family="'ArialMT'" font-size="12">Modifications are automatically applied proportionally to all</text>
	<text transform="matrix(1 0 0 1 776 2025)" font-family="'ArialMT'" font-size="12">scales and weights.</text>
	<g transform="matrix(1 0 0 1 1289 1933)">
		<path d="M2.842,1.865l1.699,1.709C5.4,4.444,6.387,4.385,7.314,3.36L17.49-7.851c0.264,0.088,0.537,0.066,0.85,0.01l1.064-0.195
			l0.664,0.674l-0.039,0.559c-0.039,0.498,0.088,0.879,0.576,1.355l0.762,0.742c0.479,0.479,1.094,0.508,1.563,0.039l2.91-2.92
			c0.469-0.469,0.449-1.064-0.029-1.543L25.04-9.892c-0.479-0.479-0.851-0.637-1.328-0.598l-0.576,0.05l-0.645-0.636l0.244-1.123
			c0.127-0.564-0.029-1.006-0.615-1.592l-2.197-2.188c-3.34-3.319-7.771-3.241-10.664-0.353c-0.42,0.41-0.448,0.986-0.215,1.377
			c0.234,0.361,0.693,0.597,1.338,0.431c1.465-0.343,2.988-0.399,4.414,0.536L14.21-12.53c-0.195,0.479-0.225,0.879-0.098,1.24
			L3.047-0.898C2.061,0.02,1.982,0.996,2.842,1.865z M10.752-15.957c2.432-1.777,5.723-1.475,7.949,0.752l2.432,2.412
			c0.234,0.234,0.273,0.42,0.205,0.762l-0.322,1.484l1.504,1.484l0.986-0.061c0.254-0.01,0.332,0.01,0.527,0.205l0.576,0.576
			L22.168-5.9l-0.576-0.574c-0.195-0.195-0.225-0.273-0.215-0.537l0.068-0.979l-1.494-1.482L18.428-9.22
			c-0.322,0.066-0.469,0.039-0.713-0.195l-2.002-2.002c-0.254-0.234-0.283-0.4-0.127-0.771l0.879-2.092
			c-1.563-1.455-3.594-2.08-5.625-1.482C10.684-15.722,10.625-15.849,10.752-15.957z M5.273,2.305L4.102,1.143
			C3.633,0.684,3.74,0.342,4.141-0.02l10.813-10.177l1.465,1.484L6.426,2.276C6.074,2.676,5.742,2.774,5.273,2.305z"/>
	</g>
	<text transform="matrix(1 0 0 1 1289 1953)" font-family="'Arial-BoldMT'" font-size="12">Exporting</text>
	<text transform="matrix(1 0 0 1 1289 1971)" font-family="'ArialMT'" font-size="12">Symbols should be outlined when exporting to ensure the</text>
	<text transform="matrix(1 0 0 1 1289 1989)" font-family="'ArialMT'" font-size="12">design is preserved when submitting to Xcode.</text>
	<text id="template-version" transform="matrix(1 0 0 1 2958.8496 1933)" font-family="'ArialMT'" font-size="12">Template v.2.0</text>
	<text transform="matrix(1 0 0 1 2878.5762 1951)" font-family="'ArialMT'" font-size="12">Requires Xcode 12 or greater</text>
	<text transform="matrix(1 0 0 1 2851.2539 1969)" font-family="'ArialMT'" font-size="12">Generated from satellite.receive.fill</text>
	<text transform="matrix(1 0 0 1 2921.9238 1987)" font-family="'ArialMT'" font-size="12">Typeset at 100 points</text>
	<text transform="matrix(1 0 0 1 263 726)" font-family="'ArialMT'" font-size="12">Small</text>
	<text transform="matrix(1 0 0 1 263 1156)" font-family="'ArialMT'" font-size="12">Medium</text>
	<text transform="matrix(1 0 0 1 263 1586)" font-family="'ArialMT'" font-size="12">Large</text>
</g>
<g id="Guides">
	<g id="H-reference" transform="matrix(1 0 0 1 339 696)">
		<path fill="#27AAE1" d="M0.977,0h2.686l9.326-24.463h32.764L55.127,0h2.637L30.615-70.459h-2.49L0.977,0z M29.346-67.139h0.098
			l15.43,40.431H13.867L29.346-67.139z"/>
	</g>
	<line id="Baseline-S" fill="none" stroke="#27AAE1" stroke-width="0.5" x1="263" y1="696" x2="3036" y2="696"/>
	<line id="Capline-S" fill="none" stroke="#27AAE1" stroke-width="0.5" x1="263" y1="625.541" x2="3036" y2="625.541"/>
	<g id="H-reference_1_" transform="matrix(1 0 0 1 339 1126)">
		<path fill="#27AAE1" d="M0.977,0h2.686l9.326-24.463h32.764L55.127,0h2.637L30.615-70.459h-2.49L0.977,0z M29.346-67.138h0.098
			l15.43,40.43H13.867L29.346-67.138z"/>
	</g>
	<line id="Baseline-M" fill="none" stroke="#27AAE1" stroke-width="0.5" x1="263" y1="1126" x2="3036" y2="1126"/>
	<line id="Capline-M" fill="none" stroke="#27AAE1" stroke-width="0.5" x1="263" y1="1055.539" x2="3036" y2="1055.539"/>
	<g id="H-reference_2_" transform="matrix(1 0 0 1 339 1556)">
		<path fill="#27AAE1" d="M0.977,0h2.686l9.326-24.463h32.764L55.127,0h2.637L30.615-70.459h-2.49L0.977,0z M29.346-67.138h0.098
			l15.43,40.43H13.867L29.346-67.138z"/>
	</g>
	<line id="Baseline-L" fill="none" stroke="#27AAE1" stroke-width="0.5" x1="263" y1="1556" x2="3036" y2="1556"/>
	<line id="Capline-L" fill="none" stroke="#27AAE1" stroke-width="0.5" x1="263" y1="1485.539" x2="3036" y2="1485.539"/>
	<line id="left-margin" fill="none" stroke="#00AEEF" stroke-width="0.5" x1="1383.58" y1="1030.789" x2="1383.58" y2="1150.119"/>
	<line id="right-margin" fill="none" stroke="#00AEEF" stroke-width="0.5" x1="1516.1" y1="1030.789" x2="1516.1" y2="1150.119"/>
</g>
<g id="Symbols">
	<g id="Black-L" transform="matrix(1 0 0 1 2846.24 1556)">
		<path d="M147.073,9.571c6.633,0,12.013,5.369,12.013,11.989s-5.38,11.99-12.013,11.99s-12.014-5.37-12.014-11.99
			S140.44,9.571,147.073,9.571z M56.344-35.076L67.67-23.773L44.849,8.112c-2.566,3.598-7.571,4.426-11.169,1.866
			c-0.359-0.267-0.703-0.547-1.018-0.861l-9.276-9.256c-3.128-3.123-3.128-8.188,0-11.311c0.313-0.313,0.648-0.601,1.011-0.851
			L56.344-35.076z M127.049-6.414c4.428,0,8.01,3.574,8.01,7.993c0,4.417-3.582,7.992-8.01,7.992c-4.427,0-8.01-3.575-8.01-7.992
			C119.039-2.84,122.622-6.414,127.049-6.414z M111.031-22.4c4.427,0,8.008,3.574,8.008,7.993c0,4.417-3.581,7.993-8.008,7.993
			c-4.426,0-8.01-3.576-8.01-7.993C103.022-18.826,106.606-22.4,111.031-22.4z M84.658-63.334l11.324,11.303
			c6.258,6.244,6.258,16.36,0,22.606c-6.258,6.243-16.394,6.243-22.649,0L62.006-40.729c-6.256-6.245-6.256-16.36,0-22.605
			C68.265-69.577,78.401-69.577,84.658-63.334z M124.571-102.551l0.758,0.673l9.275,9.257c0.314,0.313,0.595,0.655,0.861,1.015
			c2.361,3.31,1.838,7.821-1.088,10.515l-0.781,0.632l-31.951,22.777L90.321-68.985l22.822-31.886
			c0.258-0.359,0.539-0.695,0.854-1.007c2.65-2.639,6.686-3.044,9.761-1.219L124.571-102.551z"/>
	</g>
	<g id="Heavy-L" transform="matrix(1 0 0 1 2550.07 1556)">
		<path d="M145.555,9.03c6.539,0,11.846,5.297,11.846,11.828s-5.307,11.829-11.846,11.829c-6.542,0-11.848-5.298-11.848-11.829
			S139.013,9.03,145.555,9.03z M56.078-35.017l11.171,11.15L44.742,7.592c-2.531,3.549-7.467,4.365-11.015,1.84
			c-0.354-0.263-0.694-0.539-1.003-0.849l-9.148-9.132c-3.086-3.082-3.086-8.079,0-11.159c0.309-0.309,0.641-0.592,0.996-0.838
			L56.078-35.017z M125.808-6.739c4.365,0,7.899,3.525,7.899,7.885c0,4.358-3.534,7.885-7.899,7.885
			c-4.366,0-7.899-3.526-7.899-7.885C117.908-3.214,121.442-6.739,125.808-6.739z M110.012-22.512c4.363,0,7.896,3.527,7.896,7.886
			c0,4.357-3.533,7.887-7.896,7.887c-4.365,0-7.898-3.529-7.898-7.887C102.114-18.984,105.647-22.512,110.012-22.512z
			 M84.001-62.895L95.17-51.743c6.172,6.16,6.172,16.14,0,22.303c-6.172,6.159-16.168,6.159-22.337,0l-11.17-11.153
			c-6.169-6.161-6.169-16.139,0-22.301C67.836-69.054,77.832-69.054,84.001-62.895z M123.363-101.582l0.749,0.662l9.148,9.133
			c0.307,0.309,0.584,0.646,0.846,1.001c2.331,3.266,1.813,7.716-1.072,10.373l-0.77,0.622l-31.509,22.472L89.586-68.47
			l22.507-31.457c0.256-0.353,0.531-0.686,0.841-0.993c2.614-2.604,6.594-3.004,9.628-1.201L123.363-101.582z"/>
	</g>
	<g id="Bold-L" transform="matrix(1 0 0 1 2253.97 1556)">
		<path d="M143.968,8.489c6.448,0,11.68,5.226,11.68,11.667s-5.231,11.667-11.68,11.667c-6.45,0-11.683-5.226-11.683-11.667
			S137.517,8.489,143.968,8.489z M55.745-34.956l11.014,10.997L44.567,7.069c-2.496,3.501-7.362,4.308-10.861,1.815
			c-0.349-0.259-0.684-0.531-0.987-0.837l-9.021-9.007c-3.043-3.039-3.043-7.968,0-11.007c0.305-0.305,0.631-0.584,0.982-0.827
			L55.745-34.956z M124.497-7.066c4.304,0,7.788,3.479,7.788,7.779c0,4.298-3.484,7.776-7.788,7.776
			c-4.306,0-7.789-3.479-7.789-7.776C116.708-3.587,120.191-7.066,124.497-7.066z M108.922-22.622c4.304,0,7.786,3.479,7.786,7.778
			c0,4.298-3.482,7.777-7.786,7.777s-7.788-3.479-7.788-7.777C101.134-19.144,104.618-22.622,108.922-22.622z M83.276-62.454
			l11.012,10.999c6.085,6.077,6.085,15.921,0,21.998c-6.084,6.075-15.94,6.075-22.022,0L61.251-40.456
			c-6.083-6.077-6.083-15.921,0-21.998C67.337-68.529,77.193-68.529,83.276-62.454z M122.087-100.615l0.736,0.654l9.021,9.008
			c0.304,0.304,0.576,0.638,0.835,0.988c2.297,3.22,1.788,7.61-1.057,10.231l-0.76,0.613L99.795-56.954L88.783-67.953l22.19-31.028
			c0.252-0.349,0.525-0.677,0.83-0.979c2.578-2.569,6.502-2.963,9.492-1.186L122.087-100.615z"/>
	</g>
	<g id="Semibold-L" transform="matrix(1 0 0 1 1957.7 1556)">
		<path d="M142.555,7.948c6.356,0,11.515,5.153,11.515,11.505c0,6.354-5.158,11.507-11.515,11.507
			c-6.358,0-11.516-5.153-11.516-11.507C131.039,13.102,136.197,7.948,142.555,7.948z M55.586-34.896L66.445-24.05L44.569,6.549
			C42.108,10,37.31,10.795,33.862,8.339c-0.344-0.256-0.674-0.524-0.976-0.825L23.993-1.37c-2.998-2.996-2.998-7.857,0-10.854
			c0.302-0.3,0.624-0.575,0.969-0.814L55.586-34.896z M123.363-7.392c4.243,0,7.677,3.43,7.677,7.67c0,4.239-3.434,7.67-7.677,7.67
			c-4.244,0-7.678-3.431-7.678-7.67C115.685-3.962,119.118-7.392,123.363-7.392z M108.007-22.732c4.243,0,7.678,3.43,7.678,7.67
			c0,4.239-3.435,7.671-7.678,7.671c-4.241,0-7.677-3.432-7.677-7.671C100.33-19.303,103.766-22.732,108.007-22.732z M82.727-62.014
			l10.856,10.846c5.998,5.993,5.998,15.701,0,21.693c-5.999,5.993-15.715,5.993-21.711,0L61.015-40.321
			c-5.997-5.993-5.997-15.7,0-21.692C67.015-68.006,76.73-68.006,82.727-62.014z M120.986-99.648l0.727,0.646l8.893,8.884
			c0.3,0.3,0.568,0.629,0.823,0.974c2.265,3.176,1.762,7.506-1.042,10.091l-0.748,0.604L99.01-56.591L88.155-67.438l21.876-30.598
			c0.25-0.346,0.518-0.668,0.818-0.968c2.541-2.532,6.41-2.923,9.356-1.169L120.986-99.648z"/>
	</g>
	<g id="Medium-L" transform="matrix(1 0 0 1 1661.3 1556)">
		<path d="M141.263,7.407c6.266,0,11.349,5.081,11.349,11.344c0,6.265-5.083,11.346-11.349,11.346
			c-6.267,0-11.35-5.081-11.35-11.346C129.914,12.488,134.997,7.407,141.263,7.407z M55.549-34.838l10.7,10.694L44.688,6.027
			c-2.425,3.404-7.152,4.187-10.553,1.766c-0.339-0.252-0.664-0.518-0.96-0.814L24.411-1.78c-2.955-2.954-2.955-7.747,0-10.702
			c0.297-0.296,0.614-0.567,0.954-0.803L55.549-34.838z M122.348-7.718c4.181,0,7.565,3.383,7.565,7.563
			c0,4.179-3.385,7.562-7.565,7.562c-4.185,0-7.569-3.383-7.569-7.562C114.779-4.335,118.164-7.718,122.348-7.718z M107.215-22.844
			c4.181,0,7.564,3.383,7.564,7.563s-3.384,7.563-7.564,7.563c-4.182,0-7.566-3.384-7.566-7.563S103.033-22.844,107.215-22.844z
			 M82.298-61.573l10.699,10.692c5.912,5.91,5.912,15.481,0,21.391c-5.912,5.908-15.488,5.908-21.398,0l-10.7-10.695
			c-5.911-5.909-5.911-15.479,0-21.388C66.811-67.482,76.386-67.482,82.298-61.573z M120.005-98.682l0.716,0.638l8.764,8.758
			c0.296,0.296,0.561,0.62,0.813,0.96c2.232,3.132,1.736,7.401-1.028,9.95l-0.736,0.597L98.346-56.228L87.647-66.922l21.562-30.17
			c0.244-0.34,0.509-0.657,0.806-0.952c2.505-2.498,6.316-2.882,9.222-1.153L120.005-98.682z"/>
	</g>
	<g id="Regular-L" transform="matrix(1 0 0 1 1365.01 1556)">
		<path d="M136.563,6.866c6.174,0,11.183,5.009,11.183,11.183c0,6.176-5.009,11.185-11.183,11.185
			c-6.175,0-11.184-5.009-11.184-11.185C125.38,11.875,130.388,6.866,136.563,6.866z M52.102-34.777l10.543,10.543L41.4,5.506
			c-2.388,3.355-7.048,4.128-10.397,1.74c-0.334-0.249-0.655-0.51-0.946-0.802L21.42-2.19c-2.912-2.912-2.912-7.638,0-10.551
			c0.292-0.291,0.605-0.561,0.94-0.792L52.102-34.777z M117.924-8.043c4.12,0,7.456,3.333,7.456,7.455
			c0,4.121-3.336,7.454-7.456,7.454c-4.122,0-7.457-3.333-7.457-7.454C110.467-4.71,113.802-8.043,117.924-8.043z M103.012-22.955
			c4.12,0,7.455,3.335,7.455,7.457c0,4.119-3.334,7.455-7.455,7.455c-4.121,0-7.456-3.336-7.456-7.455
			C95.556-19.62,98.891-22.955,103.012-22.955z M78.46-61.135l10.542,10.543c5.826,5.825,5.826,15.261,0,21.086
			c-5.825,5.822-15.261,5.822-21.085,0L57.373-40.05c-5.824-5.825-5.824-15.26,0-21.085C63.2-66.958,72.635-66.958,78.46-61.135z
			 M115.615-97.713l0.706,0.627l8.635,8.635c0.292,0.291,0.553,0.611,0.801,0.946c2.2,3.086,1.711,7.295-1.012,9.809l-0.727,0.587
			L94.274-55.862L83.731-66.405l21.246-29.742c0.241-0.333,0.502-0.647,0.795-0.938c2.468-2.463,6.224-2.84,9.086-1.137
			L115.615-97.713z"/>
	</g>
	<g id="Light-L" transform="matrix(1 0 0 1 1069.2 1556)">
		<path d="M137.728,6.121c6.051,0,10.961,4.912,10.961,10.968c0,6.057-4.91,10.969-10.961,10.969
			c-6.053,0-10.963-4.912-10.963-10.969C126.765,11.033,131.675,6.121,137.728,6.121z M54.937-34.722l10.335,10.339L44.447,4.787
			c-2.342,3.29-6.909,4.047-10.191,1.707c-0.328-0.244-0.643-0.5-0.929-0.787l-8.464-8.469c-2.855-2.857-2.855-7.49,0-10.348
			c0.285-0.286,0.592-0.549,0.921-0.777L54.937-34.722z M119.456-8.502c4.039,0,7.309,3.27,7.309,7.312
			c0,4.041-3.27,7.312-7.309,7.312c-4.04,0-7.31-3.271-7.31-7.312C112.147-5.232,115.416-8.502,119.456-8.502z M104.84-23.127
			c4.039,0,7.307,3.271,7.307,7.313s-3.269,7.313-7.307,7.313s-7.308-3.271-7.308-7.313S100.801-23.127,104.84-23.127z
			 M80.773-60.572l10.334,10.34c5.71,5.712,5.71,14.967,0,20.681c-5.71,5.712-14.96,5.712-20.668,0L60.104-39.893
			c-5.709-5.714-5.709-14.967,0-20.68C65.815-66.284,75.065-66.284,80.773-60.572z M117.194-96.447l0.691,0.614l8.465,8.468
			c0.285,0.288,0.542,0.6,0.784,0.93c2.156,3.026,1.677,7.154-0.992,9.619l-0.712,0.576L96.275-55.402l-10.334-10.34l20.825-29.169
			c0.236-0.328,0.492-0.637,0.78-0.922c2.418-2.413,6.101-2.785,8.906-1.113L117.194-96.447z"/>
	</g>
	<g id="Thin-L" transform="matrix(1 0 0 1 773.683 1556)">
		<path d="M135.291,5.376c5.929,0,10.74,4.816,10.74,10.753c0,5.938-4.811,10.752-10.74,10.752c-5.931,0-10.741-4.814-10.741-10.752
			C124.55,10.192,129.36,5.376,135.291,5.376z M54.172-34.667l10.126,10.138L43.893,4.067c-2.295,3.228-6.77,3.97-9.986,1.674
			c-0.321-0.239-0.629-0.49-0.91-0.772l-8.293-8.302c-2.797-2.8-2.797-7.343,0-10.144c0.28-0.281,0.58-0.539,0.903-0.762
			L54.172-34.667z M117.389-8.96c3.958,0,7.161,3.205,7.161,7.168c0,3.962-3.204,7.168-7.161,7.168
			c-3.958,0-7.162-3.206-7.162-7.168C110.227-5.755,113.43-8.96,117.389-8.96z M103.068-23.299c3.958,0,7.16,3.206,7.16,7.17
			c0,3.961-3.202,7.169-7.16,7.169s-7.161-3.208-7.161-7.169C95.906-20.093,99.11-23.299,103.068-23.299z M79.486-60.01
			l10.126,10.138c5.595,5.601,5.595,14.674,0,20.274c-5.595,5.599-14.658,5.599-20.251,0L59.234-39.736
			c-5.593-5.601-5.593-14.672,0-20.273C64.83-65.609,73.893-65.609,79.486-60.01z M115.172-95.181l0.677,0.603l8.294,8.302
			c0.28,0.28,0.531,0.588,0.769,0.91c2.113,2.968,1.644,7.015-0.972,9.431l-0.698,0.565L94.675-54.941L84.549-65.077l20.405-28.599
			c0.231-0.32,0.483-0.623,0.764-0.902c2.37-2.367,5.978-2.731,8.727-1.094L115.172-95.181z"/>
	</g>
	<g id="Ultralight-L" transform="matrix(1 0 0 1 477.607 1556)">
		<path d="M133.417,4.631c5.807,0,10.519,4.719,10.519,10.538c0,5.817-4.711,10.538-10.519,10.538
			c-5.809,0-10.52-4.721-10.52-10.538C122.897,9.35,127.609,4.631,133.417,4.631z M53.968-34.612l9.918,9.935L43.902,3.349
			c-2.247,3.162-6.629,3.89-9.78,1.64c-0.314-0.234-0.616-0.48-0.89-0.757l-8.124-8.136c-2.74-2.745-2.74-7.197,0-9.94
			c0.274-0.274,0.569-0.529,0.884-0.747L53.968-34.612z M115.884-9.419c3.876,0,7.014,3.142,7.014,7.025
			c0,3.883-3.138,7.024-7.014,7.024c-3.877,0-7.014-3.142-7.014-7.024C108.87-6.277,112.007-9.419,115.884-9.419z M101.857-23.471
			c3.876,0,7.013,3.142,7.013,7.025c0,3.883-3.136,7.026-7.013,7.026c-3.875,0-7.013-3.144-7.013-7.026
			C94.844-20.329,97.981-23.471,101.857-23.471z M78.763-59.447l9.917,9.934c5.479,5.488,5.479,14.38,0,19.87
			c-5.479,5.487-14.355,5.487-19.834,0l-9.918-9.936c-5.478-5.489-5.478-14.379,0-19.868C64.408-64.935,73.284-64.935,78.763-59.447
			z M113.713-93.915l0.664,0.591l8.123,8.136c0.274,0.274,0.521,0.575,0.753,0.892c2.069,2.908,1.61,6.874-0.952,9.241l-0.684,0.555
			L93.638-54.48l-9.917-9.934l19.984-28.026c0.227-0.314,0.473-0.61,0.748-0.884c2.32-2.32,5.854-2.678,8.547-1.071L113.713-93.915z
			"/>
	</g>
	<g id="Black-M" transform="matrix(1 0 0 1 2865.58 1126)">
		<path d="M115.558-1.699c5.142,0,9.313,4.162,9.313,9.294s-4.171,9.295-9.313,9.295s-9.313-4.163-9.313-9.295
			S110.416-1.699,115.558-1.699z M45.226-36.31l8.78,8.762L36.314-2.83c-1.989,2.789-5.869,3.431-8.658,1.446
			c-0.278-0.206-0.545-0.424-0.788-0.667l-7.191-7.176c-2.425-2.421-2.425-6.348,0-8.768c0.243-0.242,0.503-0.466,0.783-0.659
			L45.226-36.31z M100.036-14.091c3.432,0,6.209,2.771,6.209,6.196c0,3.424-2.777,6.195-6.209,6.195s-6.209-2.771-6.209-6.195
			C93.827-11.32,96.604-14.091,100.036-14.091z M87.619-26.483c3.432,0,6.208,2.771,6.208,6.196c0,3.424-2.776,6.196-6.208,6.196
			c-3.431,0-6.209-2.772-6.209-6.196C81.41-23.713,84.188-26.483,87.619-26.483z M67.175-58.215l8.778,8.762
			c4.852,4.841,4.852,12.683,0,17.524c-4.851,4.84-12.708,4.84-17.558,0l-8.78-8.763c-4.85-4.841-4.85-12.682,0-17.523
			C54.467-63.055,62.324-63.055,67.175-58.215z M98.114-88.615l0.588,0.521l7.19,7.176c0.243,0.242,0.461,0.508,0.667,0.787
			c1.831,2.565,1.425,6.063-0.843,8.151l-0.605,0.489L80.343-53.834l-8.778-8.762l17.691-24.718c0.2-0.278,0.418-0.539,0.662-0.78
			c2.055-2.046,5.183-2.361,7.566-0.945L98.114-88.615z"/>
	</g>
	<g id="Heavy-M" transform="matrix(1 0 0 1 2569.23 1126)">
		<path d="M114.327-2.175c5.069,0,9.183,4.106,9.183,9.169c0,5.063-4.113,9.17-9.183,9.17c-5.071,0-9.185-4.106-9.185-9.17
			C105.142,1.932,109.255-2.175,114.327-2.175z M44.965-36.319l8.659,8.644L36.177-3.29c-1.962,2.751-5.788,3.384-8.538,1.427
			c-0.275-0.204-0.538-0.418-0.777-0.658L19.77-9.601c-2.393-2.389-2.393-6.263,0-8.65c0.239-0.239,0.496-0.459,0.771-0.649
			L44.965-36.319z M99.019-14.399c3.384,0,6.123,2.733,6.123,6.112s-2.739,6.112-6.123,6.112c-3.385,0-6.124-2.733-6.124-6.112
			S95.634-14.399,99.019-14.399z M86.774-26.625c3.383,0,6.121,2.734,6.121,6.113c0,3.378-2.738,6.113-6.121,6.113
			c-3.384,0-6.123-2.735-6.123-6.113C80.651-23.892,83.39-26.625,86.774-26.625z M66.611-57.93l8.658,8.644
			c4.784,4.776,4.784,12.512,0,17.289c-4.784,4.775-12.533,4.775-17.315,0l-8.659-8.645c-4.782-4.776-4.782-12.511,0-17.288
			C54.08-62.705,61.829-62.705,66.611-57.93z M97.124-87.921l0.58,0.514l7.092,7.079c0.238,0.239,0.453,0.501,0.656,0.776
			c1.807,2.531,1.405,5.981-0.831,8.042l-0.597,0.482l-24.426,17.42l-8.658-8.644l17.447-24.385c0.198-0.274,0.412-0.532,0.652-0.77
			c2.026-2.019,5.111-2.329,7.463-0.932L97.124-87.921z"/>
	</g>
	<g id="Bold-M" transform="matrix(1 0 0 1 2272.94 1126)">
		<path d="M113.036-2.65c4.999,0,9.055,4.051,9.055,9.044c0,4.994-4.056,9.045-9.055,9.045c-5,0-9.056-4.051-9.056-9.045
			C103.98,1.4,108.036-2.65,113.036-2.65z M44.646-36.33l8.538,8.526L35.981-3.751c-1.935,2.714-5.707,3.339-8.419,1.407
			c-0.271-0.2-0.53-0.412-0.766-0.648l-6.993-6.982c-2.358-2.355-2.358-6.177,0-8.532c0.236-0.236,0.489-0.453,0.762-0.642
			L44.646-36.33z M97.943-14.709c3.336,0,6.037,2.697,6.037,6.03c0,3.332-2.701,6.028-6.037,6.028c-3.338,0-6.038-2.696-6.038-6.028
			C91.905-12.012,94.605-14.709,97.943-14.709z M85.869-26.768c3.336,0,6.036,2.696,6.036,6.029c0,3.332-2.7,6.029-6.036,6.029
			s-6.037-2.697-6.037-6.029C79.832-24.071,82.533-26.768,85.869-26.768z M65.989-57.645l8.536,8.526
			c4.717,4.711,4.717,12.342,0,17.053c-4.717,4.71-12.357,4.71-17.072,0l-8.538-8.527c-4.716-4.711-4.716-12.341,0-17.052
			C53.632-62.355,61.273-62.355,65.989-57.645z M96.074-87.228l0.571,0.507l6.993,6.983c0.235,0.236,0.447,0.494,0.647,0.766
			c1.78,2.497,1.386,5.9-0.819,7.932l-0.589,0.476L78.793-53.382l-8.536-8.526l17.202-24.053c0.195-0.271,0.407-0.525,0.644-0.76
			c1.998-1.991,5.04-2.297,7.357-0.919L96.074-87.228z"/>
	</g>
	<g id="Semibold-M" transform="matrix(1 0 0 1 1976.52 1126)">
		<path d="M111.88-3.126c4.928,0,8.926,3.995,8.926,8.919c0,4.925-3.998,8.92-8.926,8.92c-4.929,0-8.927-3.995-8.927-8.92
			C102.954,0.869,106.952-3.126,111.88-3.126z M44.462-36.339l8.417,8.408L35.921-4.211c-1.907,2.676-5.627,3.292-8.3,1.388
			c-0.267-0.198-0.522-0.406-0.756-0.64l-6.894-6.887c-2.324-2.322-2.324-6.091,0-8.414c0.233-0.232,0.483-0.446,0.751-0.632
			L44.462-36.339z M97.002-15.018c3.289,0,5.951,2.659,5.951,5.946c0,3.286-2.662,5.945-5.951,5.945
			c-3.29,0-5.952-2.659-5.952-5.945C91.05-12.358,93.712-15.018,97.002-15.018z M85.099-26.91c3.289,0,5.951,2.659,5.951,5.946
			c0,3.286-2.662,5.946-5.951,5.946c-3.288,0-5.951-2.66-5.951-5.946C79.148-24.251,81.811-26.91,85.099-26.91z M65.501-57.36
			l8.416,8.408c4.649,4.646,4.649,12.171,0,16.817c-4.65,4.645-12.182,4.645-16.83,0l-8.417-8.409
			c-4.648-4.646-4.648-12.17,0-16.816C53.322-62.005,60.853-62.005,65.501-57.36z M95.16-86.534l0.563,0.5l6.894,6.886
			c0.232,0.232,0.44,0.487,0.638,0.755c1.756,2.462,1.366,5.818-0.808,7.822l-0.58,0.469L78.125-53.156l-8.415-8.408l16.958-23.72
			c0.193-0.267,0.401-0.518,0.635-0.749c1.97-1.963,4.969-2.266,7.253-0.907L95.16-86.534z"/>
	</g>
	<g id="Medium-M" transform="matrix(1 0 0 1 1680.03 1126)">
		<path d="M110.785-3.602c4.857,0,8.798,3.938,8.798,8.794c0,4.856-3.94,8.795-8.798,8.795s-8.798-3.938-8.798-8.795
			C101.988,0.337,105.928-3.602,110.785-3.602z M44.34-36.35l8.295,8.291L35.921-4.671c-1.88,2.639-5.545,3.245-8.181,1.368
			c-0.263-0.195-0.515-0.401-0.744-0.631l-6.794-6.79c-2.291-2.29-2.291-6.006,0-8.296c0.229-0.229,0.476-0.44,0.739-0.623
			L44.34-36.35z M96.122-15.326c3.241,0,5.865,2.622,5.865,5.863c0,3.239-2.624,5.861-5.865,5.861c-3.243,0-5.867-2.622-5.867-5.861
			C90.255-12.704,92.879-15.326,96.122-15.326z M84.391-27.052c3.241,0,5.864,2.622,5.864,5.862s-2.623,5.863-5.864,5.863
			s-5.865-2.623-5.865-5.863S81.15-27.052,84.391-27.052z M65.075-57.076l8.294,8.29c4.583,4.581,4.583,12,0,16.582
			c-4.583,4.58-12.006,4.58-16.588,0l-8.295-8.291c-4.582-4.581-4.582-12,0-16.581C53.071-61.655,60.493-61.655,65.075-57.076z
			 M94.306-85.84l0.555,0.493l6.794,6.79c0.229,0.229,0.435,0.48,0.63,0.744c1.73,2.427,1.346,5.737-0.797,7.712l-0.571,0.463
			L77.517-52.931l-8.294-8.29l16.714-23.388c0.189-0.263,0.395-0.51,0.625-0.739c1.941-1.936,4.896-2.234,7.148-0.894L94.306-85.84z
			"/>
	</g>
	<g id="Regular-M" transform="matrix(1 0 0 1 1383.58 1126)">
		<path d="M106.352-4.077c4.786,0,8.669,3.883,8.669,8.669c0,4.787-3.883,8.67-8.669,8.67c-4.787,0-8.669-3.883-8.669-8.67
			C97.683-0.194,101.566-4.077,106.352-4.077z M40.878-36.359l8.173,8.172L32.582-5.132c-1.852,2.602-5.463,3.2-8.06,1.35
			c-0.259-0.193-0.508-0.396-0.733-0.622l-6.695-6.693c-2.258-2.258-2.258-5.921,0-8.179c0.226-0.226,0.469-0.435,0.729-0.614
			L40.878-36.359z M91.903-15.635c3.194,0,5.78,2.584,5.78,5.779c0,3.194-2.586,5.778-5.78,5.778c-3.195,0-5.781-2.584-5.781-5.778
			C86.122-13.051,88.708-15.635,91.903-15.635z M80.343-27.194c3.194,0,5.779,2.584,5.779,5.78c0,3.193-2.585,5.779-5.779,5.779
			c-3.194,0-5.78-2.586-5.78-5.779C74.564-24.609,77.149-27.194,80.343-27.194z M61.311-56.791l8.172,8.172
			c4.516,4.516,4.516,11.83,0,16.346c-4.516,4.515-11.831,4.515-16.345,0l-8.174-8.173c-4.515-4.516-4.515-11.829,0-16.345
			C49.481-61.306,56.796-61.306,61.311-56.791z M90.113-85.146l0.547,0.486l6.694,6.693c0.227,0.226,0.429,0.473,0.621,0.733
			c1.705,2.393,1.327,5.655-0.785,7.603l-0.563,0.456l-23.058,16.47l-8.173-8.172l16.47-23.056c0.187-0.259,0.39-0.502,0.616-0.728
			c1.913-1.909,4.825-2.202,7.044-0.881L90.113-85.146z"/>
	</g>
	<g id="Light-M" transform="matrix(1 0 0 1 1087.68 1126)">
		<path d="M107.773-4.711c4.691,0,8.497,3.808,8.497,8.502c0,4.695-3.806,8.503-8.497,8.503c-4.692,0-8.498-3.808-8.498-8.503
			C99.275-0.903,103.081-4.711,107.773-4.711z M43.593-36.373l8.012,8.015L35.462-5.745c-1.815,2.551-5.355,3.138-7.9,1.323
			c-0.254-0.189-0.498-0.388-0.72-0.61l-6.562-6.564c-2.213-2.215-2.213-5.807,0-8.021c0.221-0.222,0.459-0.426,0.714-0.603
			L43.593-36.373z M93.609-16.047c3.131,0,5.666,2.535,5.666,5.668s-2.535,5.668-5.666,5.668c-3.132,0-5.667-2.535-5.667-5.668
			S90.477-16.047,93.609-16.047z M82.278-27.383c3.131,0,5.665,2.535,5.665,5.668c0,3.133-2.534,5.668-5.665,5.668
			s-5.665-2.535-5.665-5.668C76.613-24.849,79.147-27.383,82.278-27.383z M63.622-56.411l8.011,8.015
			c4.426,4.429,4.426,11.603,0,16.031c-4.426,4.428-11.597,4.428-16.022,0l-8.012-8.016c-4.425-4.429-4.425-11.602,0-16.03
			C52.026-60.839,59.196-60.839,63.622-56.411z M91.855-84.222l0.536,0.477l6.562,6.564c0.221,0.222,0.42,0.464,0.608,0.72
			c1.671,2.347,1.3,5.546-0.769,7.457l-0.552,0.447L75.638-52.403l-8.011-8.016l16.144-22.612c0.183-0.254,0.382-0.493,0.604-0.714
			c1.875-1.872,4.729-2.16,6.904-0.864L91.855-84.222z"/>
	</g>
	<g id="Thin-M" transform="matrix(1 0 0 1 792.042 1126)">
		<path d="M105.624-5.345c4.596,0,8.326,3.733,8.326,8.336s-3.729,8.335-8.326,8.335c-4.598,0-8.327-3.732-8.327-8.335
			S101.026-5.345,105.624-5.345z M42.74-36.386l7.85,7.858L34.772-6.359c-1.779,2.502-5.248,3.077-7.741,1.298
			c-0.249-0.186-0.488-0.38-0.705-0.599l-6.429-6.436c-2.168-2.171-2.168-5.692,0-7.863c0.217-0.218,0.45-0.418,0.7-0.591
			L42.74-36.386z M91.746-16.458c3.068,0,5.551,2.484,5.551,5.557c0,3.071-2.483,5.557-5.551,5.557
			c-3.069,0-5.552-2.485-5.552-5.557C86.194-13.974,88.677-16.458,91.746-16.458z M80.644-27.573c3.068,0,5.55,2.485,5.55,5.557
			c0,3.071-2.482,5.558-5.55,5.558s-5.551-2.486-5.551-5.558C75.093-25.088,77.576-27.573,80.644-27.573z M62.364-56.031l7.85,7.858
			c4.337,4.342,4.337,11.375,0,15.717c-4.337,4.341-11.363,4.341-15.699,0l-7.851-7.859c-4.336-4.342-4.336-11.374,0-15.716
			C51.003-60.373,58.028-60.373,62.364-56.031z M90.028-83.296l0.525,0.467l6.43,6.436c0.217,0.217,0.412,0.456,0.596,0.706
			c1.638,2.301,1.274,5.438-0.753,7.311l-0.542,0.438L74.138-52.103l-7.849-7.858l15.818-22.168c0.179-0.25,0.374-0.483,0.592-0.7
			c1.837-1.835,4.634-2.117,6.765-0.847L90.028-83.296z"/>
	</g>
	<g id="Ultralight-M" transform="matrix(1 0 0 1 495.893 1126)">
		<path d="M103.989-5.979c4.502,0,8.154,3.658,8.154,8.169c0,4.51-3.652,8.169-8.154,8.169c-4.502,0-8.155-3.659-8.155-8.169
			C95.835-2.32,99.487-5.979,103.989-5.979z M42.401-36.399l7.688,7.701L34.597-6.973c-1.742,2.451-5.139,3.016-7.582,1.271
			c-0.244-0.182-0.478-0.373-0.69-0.587l-6.297-6.307c-2.124-2.128-2.124-5.579,0-7.706c0.212-0.213,0.441-0.41,0.686-0.579
			L42.401-36.399z M90.398-16.87c3.004,0,5.437,2.436,5.437,5.446c0,3.01-2.433,5.445-5.437,5.445c-3.005,0-5.438-2.436-5.438-5.445
			C84.96-14.435,87.392-16.87,90.398-16.87z M79.524-27.762c3.005,0,5.436,2.435,5.436,5.446c0,3.01-2.431,5.446-5.436,5.446
			c-3.004,0-5.437-2.437-5.437-5.446C74.087-25.327,76.52-27.762,79.524-27.762z M61.621-55.652l7.688,7.701
			c4.248,4.255,4.248,11.147,0,15.403c-4.248,4.254-11.128,4.254-15.375,0l-7.688-7.702c-4.247-4.255-4.247-11.146,0-15.402
			C50.494-59.906,57.374-59.906,61.621-55.652z M88.714-82.371l0.515,0.458l6.297,6.307c0.213,0.213,0.403,0.446,0.583,0.691
			c1.604,2.255,1.248,5.329-0.738,7.165l-0.53,0.429l-21.689,15.52l-7.688-7.701l15.492-21.726c0.176-0.244,0.366-0.474,0.58-0.686
			c1.799-1.799,4.539-2.075,6.626-0.831L88.714-82.371z"/>
	</g>
	<g id="Black-S" transform="matrix(1 0 0 1 2880.28 696)">
		<path d="M91.747-6.956c4.026,0,7.292,3.259,7.292,7.277S95.774,7.6,91.747,7.6c-4.025,0-7.291-3.26-7.291-7.278
			S87.722-6.956,91.747-6.956z M36.678-34.055l6.875,6.86L29.7-7.841c-1.558,2.184-4.596,2.686-6.779,1.132
			C22.703-6.87,22.494-7.04,22.304-7.23l-5.631-5.619c-1.898-1.896-1.898-4.97,0-6.865c0.19-0.189,0.394-0.365,0.613-0.516
			L36.678-34.055z M79.595-16.658c2.687,0,4.861,2.169,4.861,4.852c0,2.681-2.175,4.851-4.861,4.851
			c-2.688,0-4.862-2.17-4.862-4.851C74.733-14.489,76.907-16.658,79.595-16.658z M69.872-26.361c2.687,0,4.86,2.169,4.86,4.852
			c0,2.681-2.174,4.852-4.86,4.852s-4.862-2.171-4.862-4.852C65.01-24.192,67.186-26.361,69.872-26.361z M53.865-51.207l6.873,6.86
			c3.799,3.791,3.799,9.931,0,13.722c-3.798,3.79-9.95,3.79-13.748,0l-6.875-6.861c-3.797-3.791-3.797-9.93,0-13.721
			C43.913-54.997,50.066-54.997,53.865-51.207z M78.089-75.011l0.461,0.409l5.63,5.619c0.19,0.189,0.361,0.397,0.522,0.616
			c1.434,2.008,1.115,4.748-0.66,6.382l-0.474,0.383L64.175-47.777l-6.874-6.86l13.853-19.354c0.156-0.218,0.327-0.422,0.519-0.611
			c1.608-1.603,4.058-1.849,5.925-0.74L78.089-75.011z"/>
	</g>
	<g id="Heavy-S" transform="matrix(1 0 0 1 2583.76 696)">
		<path d="M90.766-7.382c3.97,0,7.19,3.215,7.19,7.179c0,3.965-3.221,7.18-7.19,7.18c-3.971,0-7.191-3.215-7.191-7.18
			C83.575-4.167,86.796-7.382,90.766-7.382z M36.457-34.117l6.779,6.768L29.575-8.255c-1.536,2.154-4.532,2.65-6.685,1.117
			c-0.216-0.16-0.422-0.327-0.609-0.515l-5.553-5.543c-1.873-1.871-1.873-4.904,0-6.773c0.188-0.188,0.389-0.359,0.604-0.508
			L36.457-34.117z M78.78-16.954c2.649,0,4.795,2.141,4.795,4.786s-2.146,4.786-4.795,4.786s-4.795-2.141-4.795-4.786
			S76.131-16.954,78.78-16.954z M69.192-26.527c2.649,0,4.793,2.141,4.793,4.786c0,2.645-2.144,4.787-4.793,4.787
			s-4.794-2.142-4.794-4.787C64.398-24.386,66.543-26.527,69.192-26.527z M53.405-51.039l6.779,6.769
			c3.746,3.739,3.746,9.797,0,13.537c-3.746,3.739-9.813,3.739-13.558,0l-6.781-6.769c-3.744-3.74-3.744-9.796,0-13.537
			C43.593-54.777,49.66-54.777,53.405-51.039z M77.297-74.521l0.453,0.402l5.554,5.543c0.187,0.188,0.354,0.393,0.514,0.608
			c1.415,1.982,1.101,4.684-0.651,6.296l-0.467,0.377l-19.125,13.64l-6.779-6.768l13.661-19.094
			c0.155-0.215,0.322-0.417,0.511-0.603c1.586-1.58,4.002-1.823,5.844-0.729L77.297-74.521z"/>
	</g>
	<g id="Bold-S" transform="matrix(1 0 0 1 2287.27 696)">
		<path d="M89.755-7.809c3.914,0,7.09,3.172,7.09,7.081c0,3.911-3.176,7.083-7.09,7.083c-3.915,0-7.091-3.172-7.091-7.083
			C82.665-4.637,85.84-7.809,89.755-7.809z M36.207-34.179l6.686,6.675L29.421-8.67c-1.515,2.125-4.469,2.614-6.592,1.102
			c-0.212-0.157-0.416-0.323-0.6-0.508l-5.476-5.467c-1.847-1.844-1.847-4.836,0-6.681c0.185-0.185,0.383-0.355,0.597-0.502
			L36.207-34.179z M77.937-17.25c2.612,0,4.728,2.112,4.728,4.722c0,2.609-2.115,4.72-4.728,4.72c-2.613,0-4.728-2.111-4.728-4.72
			C73.209-15.139,75.324-17.25,77.937-17.25z M68.484-26.692c2.611,0,4.726,2.111,4.726,4.721s-2.114,4.721-4.726,4.721
			c-2.612,0-4.728-2.112-4.728-4.721S65.872-26.692,68.484-26.692z M52.917-50.869l6.684,6.676c3.693,3.688,3.693,9.664,0,13.352
			c-3.693,3.688-9.676,3.688-13.367,0l-6.686-6.676c-3.692-3.689-3.692-9.663,0-13.352C43.243-54.557,49.225-54.557,52.917-50.869z
			 M76.474-74.032l0.447,0.396l5.476,5.468c0.185,0.185,0.351,0.387,0.507,0.6c1.395,1.955,1.085,4.62-0.642,6.211l-0.461,0.372
			L62.943-47.532l-6.684-6.676l13.47-18.833c0.153-0.212,0.319-0.411,0.504-0.595c1.564-1.559,3.946-1.798,5.761-0.719
			L76.474-74.032z"/>
	</g>
	<g id="Semibold-S" transform="matrix(1 0 0 1 1990.7 696)">
		<path d="M88.829-8.235c3.859,0,6.989,3.128,6.989,6.983c0,3.856-3.13,6.984-6.989,6.984S81.84,2.604,81.84-1.252
			C81.84-5.107,84.97-8.235,88.829-8.235z M36.041-34.241l6.591,6.583L29.354-9.085c-1.493,2.095-4.405,2.578-6.499,1.087
			c-0.208-0.155-0.408-0.318-0.592-0.501l-5.397-5.393c-1.819-1.818-1.819-4.769,0-6.588c0.183-0.182,0.379-0.35,0.588-0.495
			L36.041-34.241z M77.181-17.546c2.574,0,4.659,2.082,4.659,4.656c0,2.573-2.085,4.655-4.659,4.655
			c-2.576,0-4.661-2.082-4.661-4.655C72.52-15.464,74.605-17.546,77.181-17.546z M67.861-26.858c2.574,0,4.659,2.082,4.659,4.656
			c0,2.573-2.085,4.656-4.659,4.656c-2.575,0-4.66-2.083-4.66-4.656C63.2-24.776,65.285-26.858,67.861-26.858z M52.515-50.701
			l6.59,6.583c3.641,3.638,3.641,9.53,0,13.167c-3.641,3.637-9.538,3.637-13.178,0l-6.591-6.584c-3.64-3.638-3.64-9.529,0-13.167
			C42.979-54.338,48.875-54.338,52.515-50.701z M75.738-73.543l0.441,0.392l5.397,5.392c0.182,0.182,0.345,0.381,0.499,0.591
			c1.375,1.928,1.07,4.556-0.633,6.125l-0.453,0.367L62.399-47.409l-6.589-6.583l13.278-18.573c0.151-0.209,0.314-0.405,0.497-0.586
			c1.542-1.538,3.891-1.774,5.679-0.71L75.738-73.543z"/>
	</g>
	<g id="Medium-S" transform="matrix(1 0 0 1 1694.09 696)">
		<path d="M87.934-8.662c3.804,0,6.889,3.084,6.889,6.886c0,3.803-3.085,6.887-6.889,6.887s-6.889-3.084-6.889-6.887
			C81.046-5.578,84.131-8.662,87.934-8.662z M35.908-34.304l6.495,6.492L29.316-9.499c-1.473,2.066-4.342,2.541-6.405,1.071
			c-0.206-0.153-0.403-0.314-0.583-0.494l-5.319-5.316c-1.794-1.793-1.794-4.703,0-6.496c0.18-0.18,0.372-0.345,0.578-0.488
			L35.908-34.304z M76.453-17.842c2.538,0,4.593,2.053,4.593,4.591c0,2.537-2.055,4.589-4.593,4.589
			c-2.539,0-4.594-2.053-4.594-4.589C71.859-15.789,73.914-17.842,76.453-17.842z M67.267-27.023c2.538,0,4.592,2.053,4.592,4.59
			s-2.054,4.591-4.592,4.591c-2.537,0-4.592-2.054-4.592-4.591S64.73-27.023,67.267-27.023z M52.143-50.532l6.494,6.491
			c3.589,3.586,3.589,9.396,0,12.983c-3.588,3.586-9.4,3.586-12.988,0l-6.494-6.492c-3.588-3.587-3.588-9.396,0-12.983
			C42.744-54.118,48.557-54.118,52.143-50.532z M75.031-73.055l0.435,0.386l5.319,5.316c0.18,0.179,0.341,0.376,0.493,0.583
			c1.355,1.901,1.054,4.492-0.624,6.039l-0.447,0.362L61.886-47.287l-6.494-6.491L68.478-72.09c0.148-0.206,0.309-0.4,0.489-0.579
			c1.521-1.516,3.834-1.75,5.597-0.7L75.031-73.055z"/>
	</g>
	<g id="Regular-S" transform="matrix(1 0 0 1 1397.53 696)">
		<path d="M83.691-9.089c3.748,0,6.788,3.041,6.788,6.788c0,3.748-3.04,6.789-6.788,6.789c-3.748,0-6.789-3.041-6.789-6.789
			C76.903-6.048,79.943-9.089,83.691-9.089z M32.425-34.366l6.399,6.399L25.929-9.915c-1.45,2.037-4.278,2.506-6.311,1.057
			c-0.203-0.151-0.397-0.31-0.574-0.487l-5.242-5.241c-1.768-1.768-1.768-4.636,0-6.404c0.177-0.176,0.367-0.34,0.571-0.481
			L32.425-34.366z M72.377-18.138c2.501,0,4.525,2.023,4.525,4.525c0,2.501-2.024,4.524-4.525,4.524
			c-2.502,0-4.526-2.023-4.526-4.524C67.851-16.115,69.875-18.138,72.377-18.138z M63.326-27.189c2.5,0,4.524,2.023,4.524,4.525
			c0,2.5-2.024,4.525-4.524,4.525c-2.501,0-4.526-2.025-4.526-4.525C58.801-25.166,60.825-27.189,63.326-27.189z M48.424-50.363
			l6.399,6.399c3.536,3.536,3.536,9.263,0,12.798c-3.536,3.535-9.263,3.535-12.798,0l-6.4-6.399c-3.535-3.536-3.535-9.262,0-12.798
			C39.161-53.898,44.888-53.898,48.424-50.363z M70.976-72.565l0.429,0.38l5.241,5.241c0.178,0.176,0.336,0.37,0.486,0.574
			c1.335,1.873,1.039,4.428-0.615,5.953l-0.441,0.356L58.022-47.164l-6.399-6.398l12.896-18.053c0.146-0.203,0.305-0.394,0.482-0.57
			c1.498-1.494,3.778-1.724,5.516-0.69L70.976-72.565z"/>
	</g>
	<g id="Light-S" transform="matrix(1 0 0 1 1101.55 696)">
		<path d="M85.316-9.639c3.673,0,6.653,2.981,6.653,6.657c0,3.676-2.98,6.658-6.653,6.658c-3.674,0-6.654-2.981-6.654-6.658
			C78.662-6.658,81.642-9.639,85.316-9.639z M35.064-34.43l6.273,6.276L28.697-10.449c-1.421,1.997-4.193,2.457-6.186,1.036
			c-0.199-0.148-0.39-0.304-0.563-0.478l-5.138-5.14c-1.733-1.734-1.733-4.546,0-6.281c0.173-0.173,0.359-0.333,0.559-0.472
			L35.064-34.43z M74.226-18.515c2.451,0,4.436,1.985,4.436,4.438s-1.984,4.438-4.436,4.438c-2.453,0-4.437-1.985-4.437-4.438
			S71.774-18.515,74.226-18.515z M65.354-27.392c2.452,0,4.436,1.985,4.436,4.438c0,2.453-1.984,4.438-4.436,4.438
			s-4.436-1.985-4.436-4.438C60.918-25.407,62.902-27.392,65.354-27.392z M50.746-50.12l6.273,6.276
			c3.466,3.467,3.466,9.084,0,12.552c-3.466,3.467-9.08,3.467-12.545,0L38.2-37.568c-3.465-3.468-3.465-9.084,0-12.552
			C41.667-53.587,47.281-53.587,50.746-50.12z M72.853-71.896l0.419,0.374l5.138,5.14c0.173,0.173,0.329,0.364,0.476,0.563
			c1.309,1.837,1.018,4.343-0.602,5.838l-0.432,0.351L60.155-46.982l-6.272-6.276l12.641-17.705
			c0.143-0.199,0.299-0.386,0.473-0.559c1.468-1.465,3.703-1.691,5.406-0.677L72.853-71.896z"/>
	</g>
	<g id="Thin-S" transform="matrix(1 0 0 1 805.763 696)">
		<path d="M83.441-10.189c3.599,0,6.519,2.923,6.519,6.527s-2.92,6.526-6.519,6.526c-3.6,0-6.52-2.922-6.52-6.526
			S79.841-10.189,83.441-10.189z M34.203-34.495l6.146,6.153L27.965-10.984c-1.393,1.959-4.109,2.409-6.062,1.016
			c-0.195-0.146-0.382-0.297-0.552-0.469l-5.034-5.039c-1.698-1.7-1.698-4.457,0-6.157c0.169-0.17,0.352-0.327,0.548-0.462
			L34.203-34.495z M72.575-18.891c2.402,0,4.347,1.945,4.347,4.351c0,2.405-1.945,4.351-4.347,4.351
			c-2.403,0-4.347-1.946-4.347-4.351C68.228-16.946,70.172-18.891,72.575-18.891z M63.882-27.594c2.402,0,4.346,1.946,4.346,4.352
			c0,2.405-1.944,4.352-4.346,4.352c-2.402,0-4.346-1.947-4.346-4.352C59.535-25.648,61.48-27.594,63.882-27.594z M49.569-49.877
			l6.146,6.153c3.396,3.399,3.396,8.906,0,12.306c-3.396,3.399-8.897,3.399-12.292,0l-6.147-6.154
			c-3.395-3.399-3.395-8.906,0-12.305C40.673-53.276,46.174-53.276,49.569-49.877z M71.229-71.226l0.411,0.366l5.034,5.04
			c0.17,0.17,0.322,0.356,0.467,0.553c1.282,1.801,0.997,4.257-0.59,5.724L76.127-59.2L58.788-46.801l-6.146-6.153l12.385-17.358
			c0.141-0.195,0.293-0.378,0.463-0.548c1.438-1.437,3.629-1.658,5.297-0.663L71.229-71.226z"/>
	</g>
	<g id="Ultralight-S" transform="matrix(1 0 0 1 509.54 696)">
		<path d="M82.005-10.74c3.525,0,6.385,2.865,6.385,6.396c0,3.531-2.86,6.396-6.385,6.396c-3.525,0-6.385-2.865-6.385-6.396
			C75.62-7.875,78.479-10.74,82.005-10.74z M33.781-34.559l6.02,6.029l-12.13,17.011c-1.364,1.919-4.024,2.361-5.937,0.996
			c-0.19-0.142-0.374-0.292-0.54-0.459l-4.931-4.938c-1.663-1.667-1.663-4.369,0-6.034c0.166-0.167,0.345-0.321,0.537-0.454
			L33.781-34.559z M71.362-19.268c2.353,0,4.257,1.907,4.257,4.264c0,2.357-1.905,4.264-4.257,4.264
			c-2.353,0-4.257-1.907-4.257-4.264C67.105-17.361,69.009-19.268,71.362-19.268z M62.849-27.797c2.353,0,4.256,1.907,4.256,4.264
			c0,2.357-1.904,4.265-4.256,4.265s-4.257-1.908-4.257-4.265C58.592-25.89,60.496-27.797,62.849-27.797z M48.831-49.634l6.02,6.03
			c3.326,3.332,3.326,8.729,0,12.061c-3.326,3.331-8.713,3.331-12.039,0l-6.02-6.031c-3.325-3.332-3.325-8.728,0-12.06
			C40.118-52.965,45.505-52.965,48.831-49.634z M70.045-70.556l0.403,0.359l4.93,4.938c0.167,0.167,0.316,0.35,0.457,0.542
			c1.256,1.766,0.977,4.173-0.578,5.61l-0.416,0.336L57.859-46.619l-6.019-6.03l12.13-17.011c0.138-0.191,0.287-0.371,0.454-0.537
			c1.408-1.409,3.553-1.625,5.188-0.65L70.045-70.556z"/>
	</g>
</g>
</svg>
