<?xml version="1.0" encoding="utf-8"?>
<!-- Generator: Adobe Illustrator 16.0.0, SVG Export Plug-In . SVG Version: 6.00 Build 0)  -->
<!DOCTYPE svg PUBLIC "-//W3C//DTD SVG 1.1//EN" "http://www.w3.org/Graphics/SVG/1.1/DTD/svg11.dtd">
<svg version="1.1" id="Layer_1" xmlns="http://www.w3.org/2000/svg" xmlns:xlink="http://www.w3.org/1999/xlink" x="0px" y="0px"
	 width="3300px" height="2200px" viewBox="0 0 3300 2200" enable-background="new 0 0 3300 2200" xml:space="preserve">
<g id="Notes">
	<rect id="artboard" fill="#FFFFFF" width="3300" height="2200"/>
	<line fill="none" stroke="#000000" stroke-width="0.5" x1="263" y1="292" x2="3036" y2="292"/>
	<text transform="matrix(1 0 0 1 263 322)" font-family="'Arial-BoldMT'" font-size="12">Weight/Scale Variations</text>
	<text transform="matrix(1 0 0 1 536.0361 322)" font-family="'ArialMT'" font-size="12">Ultralight</text>
	<text transform="matrix(1 0 0 1 844.75 322)" font-family="'ArialMT'" font-size="12">Thin</text>
	<text transform="matrix(1 0 0 1 1140.1191 322)" font-family="'ArialMT'" font-size="12">Light</text>
	<text transform="matrix(1 0 0 1 1428.8281 322)" font-family="'ArialMT'" font-size="12">Regular</text>
	<text transform="matrix(1 0 0 1 1725.2207 322)" font-family="'ArialMT'" font-size="12">Medium</text>
	<text transform="matrix(1 0 0 1 2018.2559 322)" font-family="'ArialMT'" font-size="12">Semibold</text>
	<text transform="matrix(1 0 0 1 2327.9707 322)" font-family="'ArialMT'" font-size="12">Bold</text>
	<text transform="matrix(1 0 0 1 2619.6836 322)" font-family="'ArialMT'" font-size="12">Heavy</text>
	<text transform="matrix(1 0 0 1 2918.7285 322)" font-family="'ArialMT'" font-size="12">Black</text>
	<line fill="none" stroke="#000000" stroke-width="0.5" x1="263" y1="1903" x2="3036" y2="1903"/>
	<g transform="matrix(1 0 0 1 263 1933)">
		<path d="M9.248,0.83c4.307,0,7.891-3.574,7.891-7.881c0-4.309-3.594-7.881-7.9-7.881c-4.297,0-7.871,3.572-7.871,7.881
			C1.368-2.744,4.951,0.83,9.248,0.83z M9.248-0.654c-3.545,0-6.377-2.842-6.377-6.396s2.822-6.396,6.367-6.396
			c3.555,0,6.396,2.843,6.406,6.396C15.654-3.496,12.803-0.654,9.248-0.654z M6.396-6.318h2.109v2.119
			c0,0.439,0.293,0.742,0.723,0.742c0.449,0,0.742-0.303,0.742-0.742v-2.119h2.13c0.439,0,0.742-0.293,0.742-0.723
			c0-0.439-0.303-0.742-0.742-0.742H9.971v-2.107c0-0.449-0.293-0.754-0.742-0.754c-0.43,0-0.723,0.305-0.723,0.754v2.107h-2.11
			c-0.449,0-0.752,0.303-0.752,0.742C5.645-6.611,5.947-6.318,6.396-6.318z"/>
	</g>
	<g transform="matrix(1 0 0 1 281.506 1933)">
		<path d="M11.709,2.91c5.449,0,9.961-4.521,9.961-9.961c0-5.449-4.521-9.961-9.971-9.961c-5.439,0-9.951,4.512-9.951,9.961
			C1.748-1.611,6.269,2.91,11.709,2.91z M11.709,1.25c-4.609,0-8.291-3.691-8.291-8.301c0-4.61,3.672-8.301,8.281-8.301
			S20-11.66,20.01-7.051C20.02-2.442,16.318,1.25,11.709,1.25z M7.988-6.23h2.891v2.91c0,0.488,0.332,0.82,0.811,0.82
			c0.488,0,0.83-0.332,0.83-0.82v-2.91h2.91c0.488,0,0.82-0.332,0.82-0.811c0-0.488-0.332-0.83-0.82-0.83h-2.91v-2.891
			c0-0.508-0.342-0.84-0.83-0.84c-0.479,0-0.811,0.342-0.811,0.84v2.891H7.988c-0.508,0-0.84,0.342-0.84,0.83
			C7.148-6.563,7.49-6.23,7.988-6.23z"/>
	</g>
	<g transform="matrix(1 0 0 1 304.924 1933)">
		<path d="M14.97,5.664c6.963,0,12.725-5.762,12.725-12.715c0-6.963-5.771-12.727-12.734-12.727
			c-6.953,0-12.705,5.764-12.705,12.727C2.256-0.097,8.017,5.664,14.97,5.664z M14.97,3.848C8.935,3.848,4.081-1.015,4.081-7.05
			c0-6.045,4.844-10.898,10.879-10.898c6.045,0,10.898,4.854,10.908,10.898C25.879-1.015,21.015,3.848,14.97,3.848z M10.058-6.142
			h4.004v4.014c0,0.537,0.371,0.908,0.889,0.908c0.537,0,0.908-0.371,0.908-0.908v-4.014h4.023c0.527,0,0.908-0.371,0.908-0.891
			c0-0.537-0.371-0.918-0.908-0.918h-4.023v-4.004c0-0.557-0.371-0.928-0.908-0.928c-0.518,0-0.889,0.381-0.889,0.928v4.004h-4.004
			c-0.557,0-0.928,0.381-0.928,0.918C9.131-6.513,9.511-6.142,10.058-6.142z"/>
	</g>
	<text transform="matrix(1 0 0 1 263 1953)" font-family="'Arial-BoldMT'" font-size="12">Design Variations</text>
	<text transform="matrix(1 0 0 1 263 1971)" font-family="'ArialMT'" font-size="12">Symbols are supported in up to nine weights and three scales.</text>
	<text transform="matrix(1 0 0 1 263 1989)" font-family="'ArialMT'" font-size="12">For optimal layout with text and other symbols, vertically align</text>
	<text transform="matrix(1 0 0 1 263 2007)" font-family="'ArialMT'" font-size="12">symbols with the adjacent text.</text>
	<line fill="none" stroke="#00AEEF" stroke-width="0.5" x1="776" y1="1919" x2="776" y2="1933"/>
	<g transform="matrix(1 0 0 1 776 1933)">
		<path d="M3.311,0.127c0.52,0,0.771-0.195,0.957-0.732l1.262-3.457h5.762l1.26,3.457c0.188,0.537,0.439,0.732,0.947,0.732
			c0.518,0,0.85-0.313,0.85-0.801c0-0.166-0.027-0.313-0.105-0.527L9.66-13.389c-0.227-0.605-0.625-0.898-1.25-0.898
			c-0.605,0-1.018,0.293-1.23,0.889L2.598-1.191C2.52-0.976,2.49-0.83,2.49-0.664C2.49-0.176,2.803,0.127,3.311,0.127z M6.006-5.537
			l2.373-6.572h0.049l2.373,6.572H6.006z"/>
	</g>
	<line fill="none" stroke="#00AEEF" stroke-width="0.5" x1="792.836" y1="1919" x2="792.836" y2="1933"/>
	<text transform="matrix(1 0 0 1 776 1953)" font-family="'Arial-BoldMT'" font-size="12">Margins</text>
	<text transform="matrix(1 0 0 1 776 1971)" font-family="'ArialMT'" font-size="12">Leading and trailing margins on the left and right side of each symbol</text>
	<text transform="matrix(1 0 0 1 776 1989)" font-family="'ArialMT'" font-size="12">can be adjusted by modifying the x-location of the margin guidelines.</text>
	<text transform="matrix(1 0 0 1 776 2007)" font-family="'ArialMT'" font-size="12">Modifications are automatically applied proportionally to all</text>
	<text transform="matrix(1 0 0 1 776 2025)" font-family="'ArialMT'" font-size="12">scales and weights.</text>
	<g transform="matrix(1 0 0 1 1289 1933)">
		<path d="M2.842,1.865l1.699,1.709C5.4,4.444,6.387,4.385,7.314,3.36L17.49-7.851c0.264,0.088,0.537,0.066,0.85,0.01l1.064-0.195
			l0.664,0.674l-0.039,0.559c-0.039,0.498,0.088,0.879,0.576,1.355l0.762,0.742c0.479,0.479,1.094,0.508,1.563,0.039l2.91-2.92
			c0.469-0.469,0.449-1.064-0.029-1.543L25.04-9.892c-0.479-0.479-0.851-0.637-1.328-0.598l-0.576,0.05l-0.645-0.636l0.244-1.123
			c0.127-0.564-0.029-1.006-0.615-1.592l-2.197-2.188c-3.34-3.319-7.771-3.241-10.664-0.353c-0.42,0.41-0.448,0.986-0.215,1.377
			c0.234,0.361,0.693,0.597,1.338,0.431c1.465-0.343,2.988-0.399,4.414,0.536L14.21-12.53c-0.195,0.479-0.225,0.879-0.098,1.24
			L3.047-0.898C2.061,0.02,1.982,0.996,2.842,1.865z M10.752-15.957c2.432-1.777,5.723-1.475,7.949,0.752l2.432,2.412
			c0.234,0.234,0.273,0.42,0.205,0.762l-0.322,1.484l1.504,1.484l0.986-0.061c0.254-0.01,0.332,0.01,0.527,0.205l0.576,0.576
			L22.168-5.9l-0.576-0.574c-0.195-0.195-0.225-0.273-0.215-0.537l0.068-0.979l-1.494-1.482L18.428-9.22
			c-0.322,0.066-0.469,0.039-0.713-0.195l-2.002-2.002c-0.254-0.234-0.283-0.4-0.127-0.771l0.879-2.092
			c-1.563-1.455-3.594-2.08-5.625-1.482C10.684-15.722,10.625-15.849,10.752-15.957z M5.273,2.305L4.102,1.143
			C3.633,0.684,3.74,0.342,4.141-0.02l10.813-10.177l1.465,1.484L6.426,2.276C6.074,2.676,5.742,2.774,5.273,2.305z"/>
	</g>
	<text transform="matrix(1 0 0 1 1289 1953)" font-family="'Arial-BoldMT'" font-size="12">Exporting</text>
	<text transform="matrix(1 0 0 1 1289 1971)" font-family="'ArialMT'" font-size="12">Symbols should be outlined when exporting to ensure the</text>
	<text transform="matrix(1 0 0 1 1289 1989)" font-family="'ArialMT'" font-size="12">design is preserved when submitting to Xcode.</text>
	<text id="template-version" transform="matrix(1 0 0 1 2958.8496 1933)" font-family="'ArialMT'" font-size="12">Template v.2.0</text>
	<text transform="matrix(1 0 0 1 2878.5762 1951)" font-family="'ArialMT'" font-size="12">Requires Xcode 12 or greater</text>
	<text transform="matrix(1 0 0 1 2847.2637 1969)" font-family="'ArialMT'" font-size="12">Generated from satellite.transmit.fill</text>
	<text transform="matrix(1 0 0 1 2921.9238 1987)" font-family="'ArialMT'" font-size="12">Typeset at 100 points</text>
	<text transform="matrix(1 0 0 1 263 726)" font-family="'ArialMT'" font-size="12">Small</text>
	<text transform="matrix(1 0 0 1 263 1156)" font-family="'ArialMT'" font-size="12">Medium</text>
	<text transform="matrix(1 0 0 1 263 1586)" font-family="'ArialMT'" font-size="12">Large</text>
</g>
<g id="Guides">
	<g id="H-reference" transform="matrix(1 0 0 1 339 696)">
		<path fill="#27AAE1" d="M0.977,0h2.686l9.326-24.463h32.764L55.127,0h2.637L30.615-70.459h-2.49L0.977,0z M29.346-67.139h0.098
			l15.43,40.431H13.867L29.346-67.139z"/>
	</g>
	<line id="Baseline-S" fill="none" stroke="#27AAE1" stroke-width="0.5" x1="263" y1="696" x2="3036" y2="696"/>
	<line id="Capline-S" fill="none" stroke="#27AAE1" stroke-width="0.5" x1="263" y1="625.541" x2="3036" y2="625.541"/>
	<g id="H-reference_1_" transform="matrix(1 0 0 1 339 1126)">
		<path fill="#27AAE1" d="M0.977,0h2.686l9.326-24.463h32.764L55.127,0h2.637L30.615-70.459h-2.49L0.977,0z M29.346-67.138h0.098
			l15.43,40.43H13.867L29.346-67.138z"/>
	</g>
	<line id="Baseline-M" fill="none" stroke="#27AAE1" stroke-width="0.5" x1="263" y1="1126" x2="3036" y2="1126"/>
	<line id="Capline-M" fill="none" stroke="#27AAE1" stroke-width="0.5" x1="263" y1="1055.539" x2="3036" y2="1055.539"/>
	<g id="H-reference_2_" transform="matrix(1 0 0 1 339 1556)">
		<path fill="#27AAE1" d="M0.977,0h2.686l9.326-24.463h32.764L55.127,0h2.637L30.615-70.459h-2.49L0.977,0z M29.346-67.138h0.098
			l15.43,40.43H13.867L29.346-67.138z"/>
	</g>
	<line id="Baseline-L" fill="none" stroke="#27AAE1" stroke-width="0.5" x1="263" y1="1556" x2="3036" y2="1556"/>
	<line id="Capline-L" fill="none" stroke="#27AAE1" stroke-width="0.5" x1="263" y1="1485.539" x2="3036" y2="1485.539"/>
	<line id="left-margin" fill="none" stroke="#00AEEF" stroke-width="0.5" x1="1383.58" y1="1030.789" x2="1383.58" y2="1150.119"/>
	<line id="right-margin" fill="none" stroke="#00AEEF" stroke-width="0.5" x1="1516.1" y1="1030.789" x2="1516.1" y2="1150.119"/>
</g>
<g id="Symbols">
	<g id="Black-L" transform="matrix(1 0 0 1 2846.24 1556)">
		<path d="M56.344-35.076L67.67-23.773L44.849,8.112c-2.566,3.598-7.571,4.426-11.169,1.866c-0.359-0.267-0.703-0.547-1.018-0.861
			l-9.276-9.256c-3.128-3.123-3.128-8.188,0-11.311c0.313-0.313,0.648-0.601,1.011-0.851L56.344-35.076z M84.658-63.334
			l11.324,11.303c6.258,6.244,6.258,16.36,0,22.606c-6.258,6.243-16.394,6.243-22.649,0L62.006-40.729
			c-6.256-6.245-6.256-16.36,0-22.605C68.265-69.577,78.401-69.577,84.658-63.334z M124.571-102.551l0.758,0.673l9.275,9.257
			c0.314,0.313,0.595,0.655,0.861,1.015c2.361,3.31,1.838,7.821-1.088,10.515l-0.781,0.632l-31.951,22.777L90.321-68.985
			l22.822-31.886c0.258-0.359,0.539-0.695,0.854-1.007c2.65-2.639,6.686-3.044,9.761-1.219L124.571-102.551z"/>
	</g>
	<g id="Heavy-L" transform="matrix(1 0 0 1 2550.07 1556)">
		<path d="M56.078-35.017l11.171,11.15L44.742,7.592c-2.531,3.549-7.467,4.365-11.015,1.84c-0.354-0.263-0.694-0.539-1.003-0.849
			l-9.148-9.132c-3.086-3.082-3.086-8.079,0-11.159c0.309-0.309,0.641-0.592,0.996-0.838L56.078-35.017z M84.001-62.895
			L95.17-51.743c6.172,6.16,6.172,16.14,0,22.303c-6.172,6.159-16.168,6.159-22.337,0l-11.17-11.153
			c-6.169-6.161-6.169-16.139,0-22.301C67.836-69.054,77.832-69.054,84.001-62.895z M123.363-101.582l0.749,0.662l9.148,9.133
			c0.307,0.309,0.584,0.646,0.846,1.001c2.331,3.266,1.813,7.716-1.072,10.373l-0.77,0.622l-31.509,22.472L89.586-68.47
			l22.507-31.457c0.256-0.353,0.531-0.686,0.841-0.993c2.614-2.604,6.594-3.004,9.628-1.201L123.363-101.582z"/>
	</g>
	<g id="Bold-L" transform="matrix(1 0 0 1 2253.97 1556)">
		<path d="M55.745-34.956l11.014,10.997L44.567,7.069c-2.496,3.501-7.362,4.308-10.861,1.815c-0.349-0.259-0.684-0.531-0.987-0.837
			l-9.021-9.007c-3.043-3.039-3.043-7.968,0-11.007c0.305-0.305,0.631-0.584,0.982-0.827L55.745-34.956z M83.276-62.454
			l11.012,10.999c6.085,6.077,6.085,15.921,0,21.998c-6.084,6.075-15.94,6.075-22.022,0L61.251-40.456
			c-6.083-6.077-6.083-15.921,0-21.998C67.337-68.529,77.193-68.529,83.276-62.454z M122.087-100.615l0.736,0.654l9.021,9.008
			c0.304,0.304,0.576,0.638,0.835,0.988c2.297,3.22,1.788,7.61-1.057,10.231l-0.76,0.613L99.795-56.954L88.783-67.953l22.19-31.028
			c0.252-0.349,0.525-0.677,0.83-0.979c2.578-2.569,6.502-2.963,9.492-1.186L122.087-100.615z"/>
	</g>
	<g id="Semibold-L" transform="matrix(1 0 0 1 1957.7 1556)">
		<path d="M55.586-34.896L66.445-24.05L44.569,6.549C42.108,10,37.31,10.795,33.862,8.339c-0.344-0.256-0.674-0.524-0.976-0.825
			L23.993-1.37c-2.998-2.996-2.998-7.857,0-10.854c0.302-0.3,0.624-0.575,0.969-0.814L55.586-34.896z M82.727-62.014l10.856,10.846
			c5.998,5.993,5.998,15.701,0,21.693c-5.999,5.993-15.715,5.993-21.711,0L61.015-40.321c-5.997-5.993-5.997-15.7,0-21.692
			C67.015-68.006,76.73-68.006,82.727-62.014z M120.986-99.648l0.727,0.646l8.893,8.884c0.3,0.3,0.568,0.629,0.823,0.974
			c2.265,3.176,1.762,7.506-1.042,10.091l-0.748,0.604L99.01-56.591L88.155-67.438l21.876-30.598
			c0.25-0.346,0.518-0.668,0.818-0.968c2.541-2.532,6.41-2.923,9.356-1.169L120.986-99.648z"/>
	</g>
	<g id="Medium-L" transform="matrix(1 0 0 1 1661.3 1556)">
		<path d="M55.549-34.838l10.7,10.694L44.688,6.027c-2.425,3.404-7.152,4.187-10.553,1.766c-0.339-0.252-0.664-0.518-0.96-0.814
			L24.411-1.78c-2.955-2.954-2.955-7.747,0-10.702c0.297-0.296,0.614-0.567,0.954-0.803L55.549-34.838z M82.298-61.573
			l10.699,10.692c5.912,5.91,5.912,15.481,0,21.391c-5.912,5.908-15.488,5.908-21.398,0l-10.7-10.695
			c-5.911-5.909-5.911-15.479,0-21.388C66.811-67.482,76.386-67.482,82.298-61.573z M120.005-98.682l0.716,0.638l8.764,8.758
			c0.296,0.296,0.561,0.62,0.813,0.96c2.232,3.132,1.736,7.401-1.028,9.95l-0.736,0.597L98.346-56.228L87.647-66.922l21.562-30.17
			c0.244-0.34,0.509-0.657,0.806-0.952c2.505-2.498,6.316-2.882,9.222-1.153L120.005-98.682z"/>
	</g>
	<g id="Regular-L" transform="matrix(1 0 0 1 1365.01 1556)">
		<path d="M52.102-34.777l10.543,10.543L41.4,5.506c-2.388,3.355-7.048,4.128-10.397,1.74c-0.334-0.249-0.655-0.51-0.946-0.802
			L21.42-2.19c-2.912-2.912-2.912-7.638,0-10.551c0.292-0.291,0.605-0.561,0.94-0.792L52.102-34.777z M78.46-61.135l10.542,10.543
			c5.826,5.825,5.826,15.261,0,21.086c-5.825,5.822-15.261,5.822-21.085,0L57.373-40.05c-5.824-5.825-5.824-15.26,0-21.085
			C63.2-66.958,72.635-66.958,78.46-61.135z M115.615-97.713l0.706,0.627l8.635,8.635c0.292,0.291,0.553,0.611,0.801,0.946
			c2.2,3.086,1.711,7.295-1.012,9.809l-0.727,0.587L94.274-55.862L83.731-66.405l21.246-29.742c0.241-0.333,0.502-0.647,0.795-0.938
			c2.468-2.463,6.224-2.84,9.086-1.137L115.615-97.713z"/>
	</g>
	<g id="Light-L" transform="matrix(1 0 0 1 1069.2 1556)">
		<path d="M54.937-34.722l10.335,10.339L44.447,4.787c-2.342,3.29-6.909,4.047-10.191,1.707c-0.328-0.244-0.643-0.5-0.929-0.787
			l-8.464-8.469c-2.855-2.857-2.855-7.49,0-10.348c0.285-0.286,0.592-0.549,0.921-0.777L54.937-34.722z M80.773-60.572l10.334,10.34
			c5.71,5.712,5.71,14.967,0,20.681c-5.71,5.712-14.96,5.712-20.668,0L60.104-39.893c-5.709-5.714-5.709-14.967,0-20.68
			C65.815-66.284,75.065-66.284,80.773-60.572z M117.194-96.447l0.691,0.614l8.465,8.468c0.285,0.288,0.542,0.6,0.784,0.93
			c2.156,3.026,1.677,7.154-0.992,9.619l-0.712,0.576L96.275-55.402l-10.334-10.34l20.825-29.169
			c0.236-0.328,0.492-0.637,0.78-0.922c2.418-2.413,6.101-2.785,8.906-1.113L117.194-96.447z"/>
	</g>
	<g id="Thin-L" transform="matrix(1 0 0 1 773.683 1556)">
		<path d="M54.172-34.667l10.126,10.138L43.893,4.067c-2.295,3.228-6.77,3.97-9.986,1.674c-0.321-0.239-0.629-0.49-0.91-0.772
			l-8.293-8.302c-2.797-2.8-2.797-7.343,0-10.144c0.28-0.281,0.58-0.539,0.903-0.762L54.172-34.667z M79.486-60.01l10.126,10.138
			c5.595,5.601,5.595,14.674,0,20.274c-5.595,5.599-14.658,5.599-20.251,0L59.234-39.736c-5.593-5.601-5.593-14.672,0-20.273
			C64.83-65.609,73.893-65.609,79.486-60.01z M115.172-95.181l0.677,0.603l8.294,8.302c0.28,0.28,0.531,0.588,0.769,0.91
			c2.113,2.968,1.644,7.015-0.972,9.431l-0.698,0.565L94.675-54.941L84.549-65.077l20.405-28.599
			c0.231-0.32,0.483-0.623,0.764-0.902c2.37-2.367,5.978-2.731,8.727-1.094L115.172-95.181z"/>
	</g>
	<g id="Ultralight-L" transform="matrix(1 0 0 1 477.607 1556)">
		<path d="M53.968-34.612l9.918,9.935L43.902,3.349c-2.247,3.162-6.629,3.89-9.78,1.64c-0.314-0.234-0.616-0.48-0.89-0.757
			l-8.124-8.136c-2.74-2.745-2.74-7.197,0-9.94c0.274-0.274,0.569-0.529,0.884-0.747L53.968-34.612z M78.763-59.447l9.917,9.934
			c5.479,5.488,5.479,14.38,0,19.87c-5.479,5.487-14.355,5.487-19.834,0l-9.918-9.936c-5.478-5.489-5.478-14.379,0-19.868
			C64.408-64.935,73.284-64.935,78.763-59.447z M113.713-93.915l0.664,0.591l8.123,8.136c0.274,0.274,0.521,0.575,0.753,0.892
			c2.069,2.908,1.61,6.874-0.952,9.241l-0.684,0.555L93.638-54.48l-9.917-9.934l19.984-28.026c0.227-0.314,0.473-0.61,0.748-0.884
			c2.32-2.32,5.854-2.678,8.547-1.071L113.713-93.915z"/>
	</g>
	<g id="Black-M" transform="matrix(1 0 0 1 2865.58 1126)">
		<path d="M45.226-36.31l8.78,8.762L36.314-2.83c-1.989,2.789-5.869,3.431-8.658,1.446c-0.278-0.206-0.545-0.424-0.788-0.667
			l-7.191-7.176c-2.425-2.421-2.425-6.348,0-8.768c0.243-0.242,0.503-0.466,0.783-0.659L45.226-36.31z M67.175-58.215l8.778,8.762
			c4.852,4.841,4.852,12.683,0,17.524c-4.851,4.84-12.708,4.84-17.558,0l-8.78-8.763c-4.85-4.841-4.85-12.682,0-17.523
			C54.467-63.055,62.324-63.055,67.175-58.215z M98.114-88.615l0.588,0.521l7.19,7.176c0.243,0.242,0.461,0.508,0.667,0.787
			c1.831,2.565,1.425,6.063-0.843,8.151l-0.605,0.489L80.343-53.834l-8.778-8.762l17.691-24.718c0.2-0.278,0.418-0.539,0.662-0.78
			c2.055-2.046,5.183-2.361,7.566-0.945L98.114-88.615z"/>
	</g>
	<g id="Heavy-M" transform="matrix(1 0 0 1 2569.23 1126)">
		<path d="M44.965-36.319l8.659,8.644L36.177-3.29c-1.962,2.751-5.788,3.384-8.538,1.427c-0.275-0.204-0.538-0.418-0.777-0.658
			L19.77-9.601c-2.393-2.389-2.393-6.263,0-8.65c0.239-0.239,0.496-0.459,0.771-0.649L44.965-36.319z M66.611-57.93l8.658,8.644
			c4.784,4.776,4.784,12.512,0,17.289c-4.784,4.775-12.533,4.775-17.315,0l-8.659-8.645c-4.782-4.776-4.782-12.511,0-17.288
			C54.08-62.705,61.829-62.705,66.611-57.93z M97.124-87.921l0.58,0.514l7.092,7.079c0.238,0.239,0.453,0.501,0.656,0.776
			c1.807,2.531,1.405,5.981-0.831,8.042l-0.597,0.482l-24.426,17.42l-8.658-8.644l17.447-24.385c0.198-0.274,0.412-0.532,0.652-0.77
			c2.026-2.019,5.111-2.329,7.463-0.932L97.124-87.921z"/>
	</g>
	<g id="Bold-M" transform="matrix(1 0 0 1 2272.94 1126)">
		<path d="M44.646-36.33l8.538,8.526L35.981-3.751c-1.935,2.714-5.707,3.339-8.419,1.407c-0.271-0.2-0.53-0.412-0.766-0.648
			l-6.993-6.982c-2.358-2.355-2.358-6.177,0-8.532c0.236-0.236,0.489-0.453,0.762-0.642L44.646-36.33z M65.989-57.645l8.536,8.526
			c4.717,4.711,4.717,12.342,0,17.053c-4.717,4.71-12.357,4.71-17.072,0l-8.538-8.527c-4.716-4.711-4.716-12.341,0-17.052
			C53.632-62.355,61.273-62.355,65.989-57.645z M96.074-87.228l0.571,0.507l6.993,6.983c0.235,0.236,0.447,0.494,0.647,0.766
			c1.78,2.497,1.386,5.9-0.819,7.932l-0.589,0.476L78.793-53.382l-8.536-8.526l17.202-24.053c0.195-0.271,0.407-0.525,0.644-0.76
			c1.998-1.991,5.04-2.297,7.357-0.919L96.074-87.228z"/>
	</g>
	<g id="Semibold-M" transform="matrix(1 0 0 1 1976.52 1126)">
		<path d="M44.462-36.339l8.417,8.408L35.921-4.211c-1.907,2.676-5.627,3.292-8.3,1.388c-0.267-0.198-0.522-0.406-0.756-0.64
			l-6.894-6.887c-2.324-2.322-2.324-6.091,0-8.414c0.233-0.232,0.483-0.446,0.751-0.632L44.462-36.339z M65.501-57.36l8.416,8.408
			c4.649,4.646,4.649,12.171,0,16.817c-4.65,4.645-12.182,4.645-16.83,0l-8.417-8.409c-4.648-4.646-4.648-12.17,0-16.816
			C53.322-62.005,60.853-62.005,65.501-57.36z M95.16-86.534l0.563,0.5l6.894,6.886c0.232,0.232,0.44,0.487,0.638,0.755
			c1.756,2.462,1.366,5.818-0.808,7.822l-0.58,0.469L78.125-53.156l-8.415-8.408l16.958-23.72c0.193-0.267,0.401-0.518,0.635-0.749
			c1.97-1.963,4.969-2.266,7.253-0.907L95.16-86.534z"/>
	</g>
	<g id="Medium-M" transform="matrix(1 0 0 1 1680.03 1126)">
		<path d="M44.34-36.35l8.295,8.291L35.921-4.671c-1.88,2.639-5.545,3.245-8.181,1.368c-0.263-0.195-0.515-0.401-0.744-0.631
			l-6.794-6.79c-2.291-2.29-2.291-6.006,0-8.296c0.229-0.229,0.476-0.44,0.739-0.623L44.34-36.35z M65.075-57.076l8.294,8.29
			c4.583,4.581,4.583,12,0,16.582c-4.583,4.58-12.006,4.58-16.588,0l-8.295-8.291c-4.582-4.581-4.582-12,0-16.581
			C53.071-61.655,60.493-61.655,65.075-57.076z M94.306-85.84l0.555,0.493l6.794,6.79c0.229,0.229,0.435,0.48,0.63,0.744
			c1.73,2.427,1.346,5.737-0.797,7.712l-0.571,0.463L77.517-52.931l-8.294-8.29l16.714-23.388c0.189-0.263,0.395-0.51,0.625-0.739
			c1.941-1.936,4.896-2.234,7.148-0.894L94.306-85.84z"/>
	</g>
	<g id="Regular-M" transform="matrix(1 0 0 1 1383.58 1126)">
		<path d="M40.878-36.359l8.173,8.172L32.582-5.132c-1.852,2.602-5.463,3.2-8.06,1.35c-0.259-0.193-0.508-0.396-0.733-0.622
			l-6.695-6.693c-2.258-2.258-2.258-5.921,0-8.179c0.226-0.226,0.469-0.435,0.729-0.614L40.878-36.359z M61.311-56.791l8.172,8.172
			c4.516,4.516,4.516,11.83,0,16.346c-4.516,4.515-11.831,4.515-16.345,0l-8.174-8.173c-4.515-4.516-4.515-11.829,0-16.345
			C49.481-61.306,56.796-61.306,61.311-56.791z M90.113-85.146l0.547,0.486l6.694,6.693c0.227,0.226,0.429,0.473,0.621,0.733
			c1.705,2.393,1.327,5.655-0.785,7.603l-0.563,0.456l-23.058,16.47l-8.173-8.172l16.47-23.056c0.187-0.259,0.39-0.502,0.616-0.728
			c1.913-1.909,4.825-2.202,7.044-0.881L90.113-85.146z"/>
	</g>
	<g id="Light-M" transform="matrix(1 0 0 1 1087.68 1126)">
		<path d="M43.593-36.373l8.012,8.015L35.462-5.745c-1.815,2.551-5.355,3.138-7.9,1.323c-0.254-0.189-0.498-0.388-0.72-0.61
			l-6.562-6.564c-2.213-2.215-2.213-5.807,0-8.021c0.221-0.222,0.459-0.426,0.714-0.603L43.593-36.373z M63.622-56.411l8.011,8.015
			c4.426,4.429,4.426,11.603,0,16.031c-4.426,4.428-11.597,4.428-16.022,0l-8.012-8.016c-4.425-4.429-4.425-11.602,0-16.03
			C52.026-60.839,59.196-60.839,63.622-56.411z M91.855-84.222l0.536,0.477l6.562,6.564c0.221,0.222,0.42,0.464,0.608,0.72
			c1.671,2.347,1.3,5.546-0.769,7.457l-0.552,0.447L75.638-52.403l-8.011-8.016l16.144-22.612c0.183-0.254,0.382-0.493,0.604-0.714
			c1.875-1.872,4.729-2.16,6.904-0.864L91.855-84.222z"/>
	</g>
	<g id="Thin-M" transform="matrix(1 0 0 1 792.042 1126)">
		<path d="M42.74-36.386l7.85,7.858L34.772-6.359c-1.779,2.502-5.248,3.077-7.741,1.298c-0.249-0.186-0.488-0.38-0.705-0.599
			l-6.429-6.436c-2.168-2.171-2.168-5.692,0-7.863c0.217-0.218,0.45-0.418,0.7-0.591L42.74-36.386z M62.364-56.031l7.85,7.858
			c4.337,4.342,4.337,11.375,0,15.717c-4.337,4.341-11.363,4.341-15.699,0l-7.851-7.859c-4.336-4.342-4.336-11.374,0-15.716
			C51.003-60.373,58.028-60.373,62.364-56.031z M90.028-83.296l0.525,0.467l6.43,6.436c0.217,0.217,0.412,0.456,0.596,0.706
			c1.638,2.301,1.274,5.438-0.753,7.311l-0.542,0.438L74.138-52.103l-7.849-7.858l15.818-22.168c0.179-0.25,0.374-0.483,0.592-0.7
			c1.837-1.835,4.634-2.117,6.765-0.847L90.028-83.296z"/>
	</g>
	<g id="Ultralight-M" transform="matrix(1 0 0 1 495.893 1126)">
		<path d="M42.401-36.399l7.688,7.701L34.597-6.973c-1.742,2.451-5.139,3.016-7.582,1.271c-0.244-0.182-0.478-0.373-0.69-0.587
			l-6.297-6.307c-2.124-2.128-2.124-5.579,0-7.706c0.212-0.213,0.441-0.41,0.686-0.579L42.401-36.399z M61.621-55.652l7.688,7.701
			c4.248,4.255,4.248,11.147,0,15.403c-4.248,4.254-11.128,4.254-15.375,0l-7.688-7.702c-4.247-4.255-4.247-11.146,0-15.402
			C50.494-59.906,57.374-59.906,61.621-55.652z M88.714-82.371l0.515,0.458l6.297,6.307c0.213,0.213,0.403,0.446,0.583,0.691
			c1.604,2.255,1.248,5.329-0.738,7.165l-0.53,0.429l-21.689,15.52l-7.688-7.701l15.492-21.726c0.176-0.244,0.366-0.474,0.58-0.686
			c1.799-1.799,4.539-2.075,6.626-0.831L88.714-82.371z"/>
	</g>
	<g id="Black-S" transform="matrix(1 0 0 1 2880.28 696)">
		<path d="M36.678-34.055l6.875,6.86L29.7-7.841c-1.558,2.184-4.596,2.686-6.779,1.132C22.703-6.87,22.494-7.04,22.304-7.23
			l-5.631-5.619c-1.898-1.896-1.898-4.97,0-6.865c0.19-0.189,0.394-0.365,0.613-0.516L36.678-34.055z M53.865-51.207l6.873,6.86
			c3.799,3.791,3.799,9.931,0,13.722c-3.798,3.79-9.95,3.79-13.748,0l-6.875-6.861c-3.797-3.791-3.797-9.93,0-13.721
			C43.913-54.997,50.066-54.997,53.865-51.207z M78.089-75.011l0.461,0.409l5.63,5.619c0.19,0.189,0.361,0.397,0.522,0.616
			c1.434,2.008,1.115,4.748-0.66,6.382l-0.474,0.383L64.175-47.777l-6.874-6.86l13.853-19.354c0.156-0.218,0.327-0.422,0.519-0.611
			c1.608-1.603,4.058-1.849,5.925-0.74L78.089-75.011z"/>
	</g>
	<g id="Heavy-S" transform="matrix(1 0 0 1 2583.76 696)">
		<path d="M36.457-34.117l6.779,6.768L29.575-8.255c-1.536,2.154-4.532,2.65-6.685,1.117c-0.216-0.16-0.422-0.327-0.609-0.515
			l-5.553-5.543c-1.873-1.871-1.873-4.904,0-6.773c0.188-0.188,0.389-0.359,0.604-0.508L36.457-34.117z M53.405-51.039l6.779,6.769
			c3.746,3.739,3.746,9.797,0,13.537c-3.746,3.739-9.813,3.739-13.558,0l-6.781-6.769c-3.744-3.74-3.744-9.796,0-13.537
			C43.593-54.777,49.66-54.777,53.405-51.039z M77.297-74.521l0.453,0.402l5.554,5.543c0.187,0.188,0.354,0.393,0.514,0.608
			c1.415,1.982,1.101,4.684-0.651,6.296l-0.467,0.377l-19.125,13.64l-6.779-6.768l13.661-19.094
			c0.155-0.215,0.322-0.417,0.511-0.603c1.586-1.58,4.002-1.823,5.844-0.729L77.297-74.521z"/>
	</g>
	<g id="Bold-S" transform="matrix(1 0 0 1 2287.27 696)">
		<path d="M36.207-34.179l6.686,6.675L29.421-8.67c-1.515,2.125-4.469,2.614-6.592,1.102c-0.212-0.157-0.416-0.323-0.6-0.508
			l-5.476-5.467c-1.847-1.844-1.847-4.836,0-6.681c0.185-0.185,0.383-0.355,0.597-0.502L36.207-34.179z M52.917-50.869l6.684,6.676
			c3.693,3.688,3.693,9.664,0,13.352c-3.693,3.688-9.676,3.688-13.367,0l-6.686-6.676c-3.692-3.689-3.692-9.663,0-13.352
			C43.243-54.557,49.225-54.557,52.917-50.869z M76.474-74.032l0.447,0.396l5.476,5.468c0.185,0.185,0.351,0.387,0.507,0.6
			c1.395,1.955,1.085,4.62-0.642,6.211l-0.461,0.372L62.943-47.532l-6.684-6.676l13.47-18.833c0.153-0.212,0.319-0.411,0.504-0.595
			c1.564-1.559,3.946-1.798,5.761-0.719L76.474-74.032z"/>
	</g>
	<g id="Semibold-S" transform="matrix(1 0 0 1 1990.7 696)">
		<path d="M36.041-34.241l6.591,6.583L29.354-9.085c-1.493,2.095-4.405,2.578-6.499,1.087c-0.208-0.155-0.408-0.318-0.592-0.501
			l-5.397-5.393c-1.819-1.818-1.819-4.769,0-6.588c0.183-0.182,0.379-0.35,0.588-0.495L36.041-34.241z M52.515-50.701l6.59,6.583
			c3.641,3.638,3.641,9.53,0,13.167c-3.641,3.637-9.538,3.637-13.178,0l-6.591-6.584c-3.64-3.638-3.64-9.529,0-13.167
			C42.979-54.338,48.875-54.338,52.515-50.701z M75.738-73.543l0.441,0.392l5.397,5.392c0.182,0.182,0.345,0.381,0.499,0.591
			c1.375,1.928,1.07,4.556-0.633,6.125l-0.453,0.367L62.399-47.409l-6.589-6.583l13.278-18.573c0.151-0.209,0.314-0.405,0.497-0.586
			c1.542-1.538,3.891-1.774,5.679-0.71L75.738-73.543z"/>
	</g>
	<g id="Medium-S" transform="matrix(1 0 0 1 1694.09 696)">
		<path d="M35.908-34.304l6.495,6.492L29.316-9.499c-1.473,2.066-4.342,2.541-6.405,1.071c-0.206-0.153-0.403-0.314-0.583-0.494
			l-5.319-5.316c-1.794-1.793-1.794-4.703,0-6.496c0.18-0.18,0.372-0.345,0.578-0.488L35.908-34.304z M52.143-50.532l6.494,6.491
			c3.589,3.586,3.589,9.396,0,12.983c-3.588,3.586-9.4,3.586-12.988,0l-6.494-6.492c-3.588-3.587-3.588-9.396,0-12.983
			C42.744-54.118,48.557-54.118,52.143-50.532z M75.031-73.055l0.435,0.386l5.319,5.316c0.18,0.179,0.341,0.376,0.493,0.583
			c1.355,1.901,1.054,4.492-0.624,6.039l-0.447,0.362L61.886-47.287l-6.494-6.491L68.478-72.09c0.148-0.206,0.309-0.4,0.489-0.579
			c1.521-1.516,3.834-1.75,5.597-0.7L75.031-73.055z"/>
	</g>
	<g id="Regular-S" transform="matrix(1 0 0 1 1397.53 696)">
		<path d="M32.425-34.366l6.399,6.399L25.929-9.915c-1.45,2.037-4.278,2.506-6.311,1.057c-0.203-0.151-0.397-0.31-0.574-0.487
			l-5.242-5.241c-1.768-1.768-1.768-4.636,0-6.404c0.177-0.176,0.367-0.34,0.571-0.481L32.425-34.366z M48.424-50.363l6.399,6.399
			c3.536,3.536,3.536,9.263,0,12.798c-3.536,3.535-9.263,3.535-12.798,0l-6.4-6.399c-3.535-3.536-3.535-9.262,0-12.798
			C39.161-53.898,44.888-53.898,48.424-50.363z M70.976-72.565l0.429,0.38l5.241,5.241c0.178,0.176,0.336,0.37,0.486,0.574
			c1.335,1.873,1.039,4.428-0.615,5.953l-0.441,0.356L58.022-47.164l-6.399-6.398l12.896-18.053c0.146-0.203,0.305-0.394,0.482-0.57
			c1.498-1.494,3.778-1.724,5.516-0.69L70.976-72.565z"/>
	</g>
	<g id="Light-S" transform="matrix(1 0 0 1 1101.55 696)">
		<path d="M35.064-34.43l6.273,6.276L28.697-10.449c-1.421,1.997-4.193,2.457-6.186,1.036c-0.199-0.148-0.39-0.304-0.563-0.478
			l-5.138-5.14c-1.733-1.734-1.733-4.546,0-6.281c0.173-0.173,0.359-0.333,0.559-0.472L35.064-34.43z M50.746-50.12l6.273,6.276
			c3.466,3.467,3.466,9.084,0,12.552c-3.466,3.467-9.08,3.467-12.545,0L38.2-37.568c-3.465-3.468-3.465-9.084,0-12.552
			C41.667-53.587,47.281-53.587,50.746-50.12z M72.853-71.896l0.419,0.374l5.138,5.14c0.173,0.173,0.329,0.364,0.476,0.563
			c1.309,1.837,1.018,4.343-0.602,5.838l-0.432,0.351L60.155-46.982l-6.272-6.276l12.641-17.705
			c0.143-0.199,0.299-0.386,0.473-0.559c1.468-1.465,3.703-1.691,5.406-0.677L72.853-71.896z"/>
	</g>
	<g id="Thin-S" transform="matrix(1 0 0 1 805.763 696)">
		<path d="M34.203-34.495l6.146,6.153L27.965-10.984c-1.393,1.959-4.109,2.409-6.062,1.016c-0.195-0.146-0.382-0.297-0.552-0.469
			l-5.034-5.039c-1.698-1.7-1.698-4.457,0-6.157c0.169-0.17,0.352-0.327,0.548-0.462L34.203-34.495z M49.569-49.877l6.146,6.153
			c3.396,3.399,3.396,8.906,0,12.306c-3.396,3.399-8.897,3.399-12.292,0l-6.147-6.154c-3.395-3.399-3.395-8.906,0-12.305
			C40.673-53.276,46.174-53.276,49.569-49.877z M71.229-71.226l0.411,0.366l5.034,5.04c0.17,0.17,0.322,0.356,0.467,0.553
			c1.282,1.801,0.997,4.257-0.59,5.724L76.127-59.2L58.788-46.801l-6.146-6.153l12.385-17.358c0.141-0.195,0.293-0.378,0.463-0.548
			c1.438-1.437,3.629-1.658,5.297-0.663L71.229-71.226z"/>
	</g>
	<g id="Ultralight-S" transform="matrix(1 0 0 1 509.54 696)">
		<path d="M33.781-34.559l6.02,6.029l-12.13,17.011c-1.364,1.919-4.024,2.361-5.937,0.996c-0.19-0.142-0.374-0.292-0.54-0.459
			l-4.931-4.938c-1.663-1.667-1.663-4.369,0-6.034c0.166-0.167,0.345-0.321,0.537-0.454L33.781-34.559z M48.831-49.634l6.02,6.03
			c3.326,3.332,3.326,8.729,0,12.061c-3.326,3.331-8.713,3.331-12.039,0l-6.02-6.031c-3.325-3.332-3.325-8.728,0-12.06
			C40.118-52.965,45.505-52.965,48.831-49.634z M70.045-70.556l0.403,0.359l4.93,4.938c0.167,0.167,0.316,0.35,0.457,0.542
			c1.256,1.766,0.977,4.173-0.578,5.61l-0.416,0.336L57.859-46.619l-6.019-6.03l12.13-17.011c0.138-0.191,0.287-0.371,0.454-0.537
			c1.408-1.409,3.553-1.625,5.188-0.65L70.045-70.556z"/>
	</g>
</g>
</svg>
