<?xml version="1.0" encoding="utf-8"?>
<!-- Generator: Adobe Illustrator 16.0.0, SVG Export Plug-In . SVG Version: 6.00 Build 0)  -->
<!DOCTYPE svg PUBLIC "-//W3C//DTD SVG 1.1//EN" "http://www.w3.org/Graphics/SVG/1.1/DTD/svg11.dtd">
<svg version="1.1" id="Layer_1" xmlns="http://www.w3.org/2000/svg" xmlns:xlink="http://www.w3.org/1999/xlink" x="0px" y="0px"
	 width="3300px" height="2200px" viewBox="0 0 3300 2200" enable-background="new 0 0 3300 2200" xml:space="preserve">
<g id="Notes">
	<rect id="artboard" fill="#FFFFFF" width="3300" height="2200"/>
	<line fill="none" stroke="#000000" stroke-width="0.5" x1="263" y1="292" x2="3036" y2="292"/>
	<text transform="matrix(1 0 0 1 263 322)" font-family="'Arial-BoldMT'" font-size="12">Weight/Scale Variations</text>
	<text transform="matrix(1 0 0 1 536.0361 322)" font-family="'ArialMT'" font-size="12">Ultralight</text>
	<text transform="matrix(1 0 0 1 844.75 322)" font-family="'ArialMT'" font-size="12">Thin</text>
	<text transform="matrix(1 0 0 1 1140.1191 322)" font-family="'ArialMT'" font-size="12">Light</text>
	<text transform="matrix(1 0 0 1 1428.8281 322)" font-family="'ArialMT'" font-size="12">Regular</text>
	<text transform="matrix(1 0 0 1 1725.2207 322)" font-family="'ArialMT'" font-size="12">Medium</text>
	<text transform="matrix(1 0 0 1 2018.2559 322)" font-family="'ArialMT'" font-size="12">Semibold</text>
	<text transform="matrix(1 0 0 1 2327.9707 322)" font-family="'ArialMT'" font-size="12">Bold</text>
	<text transform="matrix(1 0 0 1 2619.6836 322)" font-family="'ArialMT'" font-size="12">Heavy</text>
	<text transform="matrix(1 0 0 1 2918.7285 322)" font-family="'ArialMT'" font-size="12">Black</text>
	<line fill="none" stroke="#000000" stroke-width="0.5" x1="263" y1="1903" x2="3036" y2="1903"/>
	<g transform="matrix(1 0 0 1 263 1933)">
		<path d="M9.248,0.83c4.307,0,7.891-3.574,7.891-7.881c0-4.309-3.594-7.881-7.9-7.881c-4.297,0-7.871,3.572-7.871,7.881
			C1.368-2.744,4.951,0.83,9.248,0.83z M9.248-0.654c-3.545,0-6.377-2.842-6.377-6.396s2.822-6.396,6.367-6.396
			c3.555,0,6.396,2.843,6.406,6.396C15.654-3.496,12.803-0.654,9.248-0.654z M6.396-6.318h2.109v2.119
			c0,0.439,0.293,0.742,0.723,0.742c0.449,0,0.742-0.303,0.742-0.742v-2.119h2.13c0.439,0,0.742-0.293,0.742-0.723
			c0-0.439-0.303-0.742-0.742-0.742H9.971v-2.107c0-0.449-0.293-0.754-0.742-0.754c-0.43,0-0.723,0.305-0.723,0.754v2.107h-2.11
			c-0.449,0-0.752,0.303-0.752,0.742C5.645-6.611,5.947-6.318,6.396-6.318z"/>
	</g>
	<g transform="matrix(1 0 0 1 281.506 1933)">
		<path d="M11.709,2.91c5.449,0,9.961-4.521,9.961-9.961c0-5.449-4.521-9.961-9.971-9.961c-5.439,0-9.951,4.512-9.951,9.961
			C1.748-1.611,6.269,2.91,11.709,2.91z M11.709,1.25c-4.609,0-8.291-3.691-8.291-8.301c0-4.61,3.672-8.301,8.281-8.301
			S20-11.66,20.01-7.051C20.02-2.442,16.318,1.25,11.709,1.25z M7.988-6.23h2.891v2.91c0,0.488,0.332,0.82,0.811,0.82
			c0.488,0,0.83-0.332,0.83-0.82v-2.91h2.91c0.488,0,0.82-0.332,0.82-0.811c0-0.488-0.332-0.83-0.82-0.83h-2.91v-2.891
			c0-0.508-0.342-0.84-0.83-0.84c-0.479,0-0.811,0.342-0.811,0.84v2.891H7.988c-0.508,0-0.84,0.342-0.84,0.83
			C7.148-6.563,7.49-6.23,7.988-6.23z"/>
	</g>
	<g transform="matrix(1 0 0 1 304.924 1933)">
		<path d="M14.97,5.664c6.963,0,12.725-5.762,12.725-12.715c0-6.963-5.771-12.727-12.734-12.727
			c-6.953,0-12.705,5.764-12.705,12.727C2.256-0.097,8.017,5.664,14.97,5.664z M14.97,3.848C8.935,3.848,4.081-1.015,4.081-7.05
			c0-6.045,4.844-10.898,10.879-10.898c6.045,0,10.898,4.854,10.908,10.898C25.879-1.015,21.015,3.848,14.97,3.848z M10.058-6.142
			h4.004v4.014c0,0.537,0.371,0.908,0.889,0.908c0.537,0,0.908-0.371,0.908-0.908v-4.014h4.023c0.527,0,0.908-0.371,0.908-0.891
			c0-0.537-0.371-0.918-0.908-0.918h-4.023v-4.004c0-0.557-0.371-0.928-0.908-0.928c-0.518,0-0.889,0.381-0.889,0.928v4.004h-4.004
			c-0.557,0-0.928,0.381-0.928,0.918C9.131-6.513,9.511-6.142,10.058-6.142z"/>
	</g>
	<text transform="matrix(1 0 0 1 263 1953)" font-family="'Arial-BoldMT'" font-size="12">Design Variations</text>
	<text transform="matrix(1 0 0 1 263 1971)" font-family="'ArialMT'" font-size="12">Symbols are supported in up to nine weights and three scales.</text>
	<text transform="matrix(1 0 0 1 263 1989)" font-family="'ArialMT'" font-size="12">For optimal layout with text and other symbols, vertically align</text>
	<text transform="matrix(1 0 0 1 263 2007)" font-family="'ArialMT'" font-size="12">symbols with the adjacent text.</text>
	<line fill="none" stroke="#00AEEF" stroke-width="0.5" x1="776" y1="1919" x2="776" y2="1933"/>
	<g transform="matrix(1 0 0 1 776 1933)">
		<path d="M3.311,0.127c0.52,0,0.771-0.195,0.957-0.732l1.262-3.457h5.762l1.26,3.457c0.188,0.537,0.439,0.732,0.947,0.732
			c0.518,0,0.85-0.313,0.85-0.801c0-0.166-0.027-0.313-0.105-0.527L9.66-13.389c-0.227-0.605-0.625-0.898-1.25-0.898
			c-0.605,0-1.018,0.293-1.23,0.889L2.598-1.191C2.52-0.976,2.49-0.83,2.49-0.664C2.49-0.176,2.803,0.127,3.311,0.127z M6.006-5.537
			l2.373-6.572h0.049l2.373,6.572H6.006z"/>
	</g>
	<line fill="none" stroke="#00AEEF" stroke-width="0.5" x1="792.836" y1="1919" x2="792.836" y2="1933"/>
	<text transform="matrix(1 0 0 1 776 1953)" font-family="'Arial-BoldMT'" font-size="12">Margins</text>
	<text transform="matrix(1 0 0 1 776 1971)" font-family="'ArialMT'" font-size="12">Leading and trailing margins on the left and right side of each symbol</text>
	<text transform="matrix(1 0 0 1 776 1989)" font-family="'ArialMT'" font-size="12">can be adjusted by modifying the x-location of the margin guidelines.</text>
	<text transform="matrix(1 0 0 1 776 2007)" font-family="'ArialMT'" font-size="12">Modifications are automatically applied proportionally to all</text>
	<text transform="matrix(1 0 0 1 776 2025)" font-family="'ArialMT'" font-size="12">scales and weights.</text>
	<g transform="matrix(1 0 0 1 1289 1933)">
		<path d="M2.842,1.865l1.699,1.709C5.4,4.444,6.387,4.385,7.314,3.36L17.49-7.851c0.264,0.088,0.537,0.066,0.85,0.01l1.064-0.195
			l0.664,0.674l-0.039,0.559c-0.039,0.498,0.088,0.879,0.576,1.355l0.762,0.742c0.479,0.479,1.094,0.508,1.563,0.039l2.91-2.92
			c0.469-0.469,0.449-1.064-0.029-1.543L25.04-9.892c-0.479-0.479-0.851-0.637-1.328-0.598l-0.576,0.05l-0.645-0.636l0.244-1.123
			c0.127-0.564-0.029-1.006-0.615-1.592l-2.197-2.188c-3.34-3.319-7.771-3.241-10.664-0.353c-0.42,0.41-0.448,0.986-0.215,1.377
			c0.234,0.361,0.693,0.597,1.338,0.431c1.465-0.343,2.988-0.399,4.414,0.536L14.21-12.53c-0.195,0.479-0.225,0.879-0.098,1.24
			L3.047-0.898C2.061,0.02,1.982,0.996,2.842,1.865z M10.752-15.957c2.432-1.777,5.723-1.475,7.949,0.752l2.432,2.412
			c0.234,0.234,0.273,0.42,0.205,0.762l-0.322,1.484l1.504,1.484l0.986-0.061c0.254-0.01,0.332,0.01,0.527,0.205l0.576,0.576
			L22.168-5.9l-0.576-0.574c-0.195-0.195-0.225-0.273-0.215-0.537l0.068-0.979l-1.494-1.482L18.428-9.22
			c-0.322,0.066-0.469,0.039-0.713-0.195l-2.002-2.002c-0.254-0.234-0.283-0.4-0.127-0.771l0.879-2.092
			c-1.563-1.455-3.594-2.08-5.625-1.482C10.684-15.722,10.625-15.849,10.752-15.957z M5.273,2.305L4.102,1.143
			C3.633,0.684,3.74,0.342,4.141-0.02l10.813-10.177l1.465,1.484L6.426,2.276C6.074,2.676,5.742,2.774,5.273,2.305z"/>
	</g>
	<text transform="matrix(1 0 0 1 1289 1953)" font-family="'Arial-BoldMT'" font-size="12">Exporting</text>
	<text transform="matrix(1 0 0 1 1289 1971)" font-family="'ArialMT'" font-size="12">Symbols should be outlined when exporting to ensure the</text>
	<text transform="matrix(1 0 0 1 1289 1989)" font-family="'ArialMT'" font-size="12">design is preserved when submitting to Xcode.</text>
	<text id="template-version" transform="matrix(1 0 0 1 2958.8496 1933)" font-family="'ArialMT'" font-size="12">Template v.2.0</text>
	<text transform="matrix(1 0 0 1 2878.5762 1951)" font-family="'ArialMT'" font-size="12">Requires Xcode 12 or greater</text>
	<text transform="matrix(1 0 0 1 2843.2324 1969)" font-family="'ArialMT'" font-size="12">Generated from propulsion.power.fill</text>
	<text transform="matrix(1 0 0 1 2921.9238 1987)" font-family="'ArialMT'" font-size="12">Typeset at 100 points</text>
	<text transform="matrix(1 0 0 1 263 726)" font-family="'ArialMT'" font-size="12">Small</text>
	<text transform="matrix(1 0 0 1 263 1156)" font-family="'ArialMT'" font-size="12">Medium</text>
	<text transform="matrix(1 0 0 1 263 1586)" font-family="'ArialMT'" font-size="12">Large</text>
</g>
<g id="Guides">
	<g id="H-reference" transform="matrix(1 0 0 1 339 696)">
		<path fill="#27AAE1" d="M0.977,0h2.686l9.326-24.463h32.764L55.127,0h2.637L30.615-70.459h-2.49L0.977,0z M29.346-67.139h0.098
			l15.43,40.431H13.867L29.346-67.139z"/>
	</g>
	<line id="Baseline-S" fill="none" stroke="#27AAE1" stroke-width="0.5" x1="263" y1="696" x2="3036" y2="696"/>
	<line id="Capline-S" fill="none" stroke="#27AAE1" stroke-width="0.5" x1="263" y1="625.541" x2="3036" y2="625.541"/>
	<g id="H-reference_1_" transform="matrix(1 0 0 1 339 1126)">
		<path fill="#27AAE1" d="M0.977,0h2.686l9.326-24.463h32.764L55.127,0h2.637L30.615-70.459h-2.49L0.977,0z M29.346-67.138h0.098
			l15.43,40.43H13.867L29.346-67.138z"/>
	</g>
	<line id="Baseline-M" fill="none" stroke="#27AAE1" stroke-width="0.5" x1="263" y1="1126" x2="3036" y2="1126"/>
	<line id="Capline-M" fill="none" stroke="#27AAE1" stroke-width="0.5" x1="263" y1="1055.539" x2="3036" y2="1055.539"/>
	<g id="H-reference_2_" transform="matrix(1 0 0 1 339 1556)">
		<path fill="#27AAE1" d="M0.977,0h2.686l9.326-24.463h32.764L55.127,0h2.637L30.615-70.459h-2.49L0.977,0z M29.346-67.138h0.098
			l15.43,40.43H13.867L29.346-67.138z"/>
	</g>
	<line id="Baseline-L" fill="none" stroke="#27AAE1" stroke-width="0.5" x1="263" y1="1556" x2="3036" y2="1556"/>
	<line id="Capline-L" fill="none" stroke="#27AAE1" stroke-width="0.5" x1="263" y1="1485.539" x2="3036" y2="1485.539"/>
	<line id="left-margin" fill="none" stroke="#00AEEF" stroke-width="0.5" x1="1383.58" y1="1030.789" x2="1383.58" y2="1150.119"/>
	<line id="right-margin" fill="none" stroke="#00AEEF" stroke-width="0.5" x1="1516.1" y1="1030.789" x2="1516.1" y2="1150.119"/>
</g>
<g id="Symbols">
	<g id="Black-L" transform="matrix(1 0 0 1 2846.24 1556)">
		<path d="M111.992-106.181H62.326c-7.835,0-14.188,6.362-14.188,14.191V21.529c0,7.844,6.354,14.19,14.188,14.19h49.666
			c7.835,0,14.188-6.347,14.188-14.19V-91.989C126.181-99.818,119.827-106.181,111.992-106.181z M110.219-37.604L88.753,10.761
			c-0.947,2.134-3.054,3.457-5.313,3.457c-0.401,0-0.805-0.04-1.209-0.126c-2.687-0.569-4.609-2.943-4.609-5.689V-25.56h-8.293
			c-1.968,0-3.801-0.994-4.874-2.644c-1.073-1.648-1.241-3.727-0.443-5.525L85.04-81.216c0.945-2.136,3.053-3.461,5.313-3.461
			c0.399,0,0.805,0.041,1.207,0.126c2.688,0.57,4.612,2.941,4.612,5.689v32.892h8.815h0.007c3.211,0,5.812,2.604,5.812,5.816
			C110.807-39.239,110.596-38.372,110.219-37.604z"/>
	</g>
	<g id="Heavy-L" transform="matrix(1 0 0 1 2550.07 1556)">
		<path d="M111.11-105.213H62.121c-7.729,0-13.995,6.276-13.995,13.998V20.756c0,7.735,6.267,13.996,13.995,13.996h48.988
			c7.729,0,13.996-6.261,13.996-13.996V-91.215C125.106-98.937,118.838-105.213,111.11-105.213z M108.743-37.863L87.563,9.856
			c-0.824,1.854-2.652,3.006-4.618,3.006c-0.347,0-0.698-0.038-1.05-0.111c-2.334-0.496-4.004-2.557-4.004-4.942v-34.183h-8.863
			c-1.709,0-3.302-0.864-4.233-2.298c-0.935-1.432-1.079-3.238-0.386-4.803l20.74-46.838c0.822-1.855,2.653-3.007,4.62-3.007
			c0.347,0,0.695,0.035,1.047,0.109c2.335,0.494,4.007,2.555,4.007,4.943v33.127h9.379h0.007c2.792,0,5.05,2.263,5.05,5.052
			C109.258-39.289,109.073-38.533,108.743-37.863z"/>
	</g>
	<g id="Bold-L" transform="matrix(1 0 0 1 2253.97 1556)">
		<path d="M110.163-104.246H61.854c-7.622,0-13.803,6.188-13.803,13.805V19.982c0,7.629,6.181,13.802,13.803,13.802h48.309
			c7.622,0,13.803-6.173,13.803-13.802V-90.441C123.966-98.058,117.785-104.246,110.163-104.246z M107.221-38.115L86.327,8.959
			c-0.703,1.583-2.262,2.563-3.938,2.563c-0.297,0-0.596-0.03-0.895-0.093c-1.993-0.421-3.418-2.18-3.418-4.215v-34.385h-9.413
			c-1.458,0-2.816-0.735-3.611-1.957c-0.796-1.223-0.92-2.765-0.329-4.097l20.455-46.191C85.88-81,87.441-81.98,89.118-81.98
			c0.295,0,0.594,0.03,0.893,0.094c1.993,0.42,3.419,2.179,3.419,4.215v33.341h9.922h0.007c2.381,0,4.306,1.93,4.306,4.311
			C107.664-39.336,107.505-38.689,107.221-38.115z"/>
	</g>
	<g id="Semibold-L" transform="matrix(1 0 0 1 1957.7 1556)">
		<path d="M109.381-103.278H61.746c-7.515,0-13.607,6.103-13.607,13.61V19.206c0,7.523,6.093,13.61,13.607,13.61h47.635
			c7.515,0,13.607-6.087,13.607-13.61V-89.668C122.989-97.176,116.896-103.278,109.381-103.278z M105.878-38.359L85.271,8.072
			c-0.584,1.315-1.881,2.132-3.277,2.132c-0.246,0-0.494-0.025-0.743-0.078c-1.657-0.353-2.843-1.813-2.843-3.51v-34.563h-9.945
			c-1.212,0-2.343-0.614-3.004-1.631c-0.662-1.015-0.767-2.298-0.273-3.407l20.167-45.544c0.583-1.315,1.882-2.133,3.276-2.133
			c0.248,0,0.497,0.024,0.745,0.076c1.657,0.352,2.843,1.814,2.843,3.509v33.537h10.447h0.007c1.979,0,3.583,1.606,3.583,3.587
			C106.253-39.38,106.118-38.841,105.878-38.359z"/>
	</g>
	<g id="Medium-L" transform="matrix(1 0 0 1 1661.3 1556)">
		<path d="M108.731-102.311H61.778c-7.409,0-13.417,6.017-13.417,13.418V18.433c0,7.415,6.008,13.417,13.417,13.417h46.953
			c7.41,0,13.417-6.002,13.417-13.417V-88.893C122.148-96.294,116.141-102.311,108.731-102.311z M104.692-38.598L84.366,7.19
			c-0.468,1.056-1.51,1.714-2.63,1.714c-0.198,0-0.399-0.023-0.599-0.063c-1.33-0.284-2.282-1.459-2.282-2.816v-34.729H68.396
			c-0.974,0-1.882-0.494-2.413-1.311c-0.532-0.816-0.612-1.845-0.22-2.735l19.882-44.896c0.469-1.059,1.512-1.715,2.632-1.715
			c0.197,0,0.396,0.021,0.597,0.063c1.333,0.281,2.284,1.457,2.284,2.818v33.714h10.954h0.006c1.591,0,2.876,1.29,2.876,2.88
			C104.994-39.423,104.885-38.984,104.692-38.598z"/>
	</g>
	<g id="Regular-L" transform="matrix(1 0 0 1 1365.01 1556)">
		<path d="M107.915-101.333H61.644c-7.301,0-13.22,5.929-13.22,13.223V17.651c0,7.307,5.919,13.22,13.22,13.22h46.271
			c7.301,0,13.22-5.913,13.22-13.22V-88.11C121.135-95.404,115.216-101.333,107.915-101.333z M103.35-38.828L83.316,6.312
			c-0.357,0.804-1.151,1.302-2.003,1.302c-0.151,0-0.303-0.015-0.456-0.047c-1.014-0.215-1.739-1.109-1.739-2.145v-34.867H68.167
			c-0.742,0-1.434-0.376-1.838-0.997s-0.467-1.406-0.167-2.085l19.592-44.24c0.357-0.807,1.151-1.305,2.004-1.305
			c0.15,0,0.302,0.015,0.455,0.048c1.014,0.214,1.739,1.108,1.739,2.144v33.87h11.439h0.006c1.211,0,2.19,0.981,2.19,2.192
			C103.587-39.461,103.502-39.126,103.35-38.828z"/>
	</g>
	<g id="Light-L" transform="matrix(1 0 0 1 1069.2 1556)">
		<path d="M106.621-100.043H61.253c-7.158,0-12.961,5.813-12.961,12.963V16.619c0,7.165,5.804,12.963,12.961,12.963h45.368
			c7.158,0,12.961-5.798,12.961-12.963V-87.08C119.583-94.23,113.779-100.043,106.621-100.043z M101.603-39.019L81.951,5.256
			c-0.252,0.566-0.813,0.919-1.414,0.919c-0.106,0-0.214-0.01-0.322-0.032c-0.715-0.151-1.227-0.783-1.227-1.515v-34.789H67.649
			c-0.523,0-1.012-0.265-1.297-0.703s-0.33-0.993-0.118-1.472l19.209-43.377c0.252-0.568,0.813-0.921,1.415-0.921
			c0.106,0,0.213,0.01,0.321,0.032c0.716,0.151,1.228,0.784,1.228,1.515v33.81h11.817h0.006c0.855,0,1.545,0.694,1.545,1.55
			C101.776-39.474,101.713-39.231,101.603-39.019z"/>
	</g>
	<g id="Thin-L" transform="matrix(1 0 0 1 773.683 1556)">
		<path d="M104.97-98.753H60.505c-7.016,0-12.704,5.696-12.704,12.706V15.588c0,7.022,5.688,12.703,12.704,12.703h44.465
			c7.016,0,12.704-5.681,12.704-12.703V-86.047C117.674-93.057,111.986-98.753,104.97-98.753z M99.5-39.213L80.231,4.2
			c-0.147,0.332-0.474,0.536-0.825,0.536c-0.063,0-0.125-0.005-0.188-0.02c-0.418-0.089-0.716-0.456-0.716-0.883v-34.708H66.774
			c-0.305,0-0.59-0.156-0.757-0.411c-0.167-0.257-0.192-0.579-0.069-0.859l18.827-42.514c0.146-0.333,0.474-0.538,0.825-0.538
			c0.063,0,0.125,0.006,0.188,0.019c0.417,0.09,0.716,0.459,0.716,0.885v33.751h12.197h0.006c0.499,0,0.9,0.403,0.9,0.902
			C99.608-39.484,99.568-39.34,99.5-39.213z"/>
	</g>
	<g id="Ultralight-L" transform="matrix(1 0 0 1 477.607 1556)">
		<path d="M103.885-97.463H60.324c-6.873,0-12.446,5.581-12.446,12.449v99.568c0,6.881,5.573,12.447,12.446,12.447h43.562
			c6.873,0,12.446-5.566,12.446-12.447v-99.568C116.331-91.882,110.758-97.463,103.885-97.463z M97.952-39.423L79.061,3.139
			c-0.04,0.091-0.128,0.146-0.222,0.146c-0.017,0-0.034-0.002-0.051-0.008c-0.112-0.022-0.192-0.121-0.192-0.236v-34.646H66.464
			c-0.082,0-0.159-0.043-0.203-0.11c-0.045-0.069-0.052-0.156-0.019-0.231l18.445-41.65c0.04-0.09,0.128-0.146,0.222-0.146
			c0.017,0,0.034,0.003,0.051,0.006c0.112,0.024,0.192,0.123,0.192,0.238v33.706h12.591h0.006c0.135,0,0.24,0.111,0.24,0.245
			C97.989-39.504,97.976-39.46,97.952-39.423z"/>
	</g>
	<g id="Black-M" transform="matrix(1 0 0 1 2865.58 1126)">
		<path d="M87.069-90.546h-38.5c-6.074,0-10.999,4.932-10.999,11V8.453c0,6.081,4.925,11.001,10.999,11.001h38.5
			c6.074,0,10.999-4.92,10.999-11.001v-87.999C98.068-85.614,93.144-90.546,87.069-90.546z M85.695-37.386L69.055,0.106
			c-0.734,1.654-2.367,2.68-4.119,2.68c-0.311,0-0.623-0.031-0.937-0.099c-2.083-0.441-3.573-2.28-3.573-4.41v-26.327h-6.429
			c-1.525,0-2.946-0.771-3.778-2.049s-0.962-2.89-0.344-4.284l16.302-36.811c0.732-1.656,2.366-2.683,4.119-2.683
			c0.31,0,0.623,0.032,0.936,0.098c2.083,0.441,3.575,2.28,3.575,4.41v25.497h6.834h0.005c2.489,0,4.505,2.018,4.505,4.508
			C86.15-38.654,85.987-37.982,85.695-37.386z"/>
	</g>
	<g id="Heavy-M" transform="matrix(1 0 0 1 2569.23 1126)">
		<path d="M86.443-89.796H48.468c-5.991,0-10.85,4.864-10.85,10.851V7.854c0,5.997,4.858,10.851,10.85,10.851h37.975
			c5.991,0,10.85-4.854,10.85-10.851v-86.799C97.292-84.932,92.434-89.796,86.443-89.796z M84.609-37.587L68.19-0.595
			c-0.639,1.438-2.057,2.329-3.58,2.329c-0.269,0-0.541-0.028-0.813-0.086c-1.81-0.384-3.104-1.981-3.104-3.832v-26.497h-6.87
			c-1.325,0-2.56-0.67-3.282-1.781c-0.725-1.11-0.836-2.511-0.299-3.723l16.078-36.309c0.637-1.439,2.057-2.332,3.581-2.332
			c0.269,0,0.539,0.027,0.812,0.084c1.811,0.383,3.106,1.981,3.106,3.833v25.679h7.271h0.005c2.164,0,3.915,1.754,3.915,3.917
			C85.008-38.692,84.864-38.107,84.609-37.587z"/>
	</g>
	<g id="Bold-M" transform="matrix(1 0 0 1 2272.94 1126)">
		<path d="M85.763-89.046H48.314c-5.908,0-10.699,4.797-10.699,10.701V7.254c0,5.914,4.791,10.7,10.699,10.7h37.449
			c5.908,0,10.699-4.786,10.699-10.7v-85.599C96.462-84.249,91.671-89.046,85.763-89.046z M83.483-37.783L67.286-1.29
			c-0.545,1.227-1.754,1.986-3.053,1.986c-0.229,0-0.462-0.023-0.693-0.072c-1.545-0.327-2.649-1.69-2.649-3.269v-26.653h-7.297
			c-1.131,0-2.184-0.571-2.8-1.519c-0.617-0.947-0.713-2.143-0.255-3.176l15.856-35.807c0.544-1.228,1.754-1.988,3.054-1.988
			c0.229,0,0.461,0.023,0.692,0.072c1.545,0.327,2.65,1.69,2.65,3.269v25.846h7.691h0.005c1.846,0,3.338,1.496,3.338,3.341
			C83.826-38.729,83.703-38.228,83.483-37.783z"/>
	</g>
	<g id="Semibold-M" transform="matrix(1 0 0 1 1976.52 1126)">
		<path d="M85.207-88.296H48.281c-5.825,0-10.549,4.73-10.549,10.551V6.653c0,5.832,4.724,10.551,10.549,10.551h36.926
			c5.825,0,10.549-4.719,10.549-10.551v-84.398C95.755-83.565,91.032-88.296,85.207-88.296z M82.492-37.973L66.516-1.979
			c-0.452,1.021-1.458,1.652-2.54,1.652c-0.19,0-0.383-0.02-0.576-0.061c-1.285-0.272-2.204-1.406-2.204-2.72V-29.9h-7.709
			c-0.939,0-1.816-0.475-2.329-1.264c-0.513-0.787-0.594-1.781-0.212-2.641L66.58-69.11c0.452-1.021,1.459-1.654,2.54-1.654
			c0.191,0,0.385,0.02,0.577,0.06c1.285,0.272,2.204,1.406,2.204,2.719v25.998H80h0.005c1.534,0,2.777,1.245,2.777,2.78
			C82.782-38.764,82.677-38.345,82.492-37.973z"/>
	</g>
	<g id="Medium-M" transform="matrix(1 0 0 1 1680.03 1126)">
		<path d="M84.724-87.546H48.325c-5.743,0-10.4,4.663-10.4,10.401V6.054c0,5.748,4.657,10.4,10.4,10.4h36.398
			c5.744,0,10.4-4.652,10.4-10.4v-83.199C95.124-82.883,90.468-87.546,84.724-87.546z M81.592-38.157L65.836-2.661
			c-0.363,0.818-1.171,1.327-2.039,1.327c-0.153,0-0.31-0.017-0.464-0.049c-1.031-0.22-1.77-1.131-1.77-2.184v-26.921h-8.107
			c-0.755,0-1.459-0.382-1.871-1.015s-0.475-1.431-0.17-2.121l15.412-34.804c0.363-0.819,1.172-1.329,2.04-1.329
			c0.153,0,0.308,0.016,0.463,0.049c1.033,0.218,1.771,1.129,1.771,2.184v26.136h8.491h0.005c1.233,0,2.229,1,2.229,2.232
			C81.826-38.796,81.742-38.457,81.592-38.157z"/>
	</g>
	<g id="Regular-M" transform="matrix(1 0 0 1 1383.58 1126)">
		<path d="M84.144-86.788H48.275c-5.659,0-10.248,4.595-10.248,10.249V5.447c0,5.665,4.589,10.249,10.248,10.249h35.869
			c5.659,0,10.248-4.584,10.248-10.249v-81.986C94.392-82.193,89.803-86.788,84.144-86.788z M80.606-38.335L65.075-3.344
			c-0.277,0.624-0.892,1.011-1.553,1.011c-0.117,0-0.235-0.012-0.353-0.037c-0.786-0.167-1.348-0.86-1.348-1.663v-27.028h-8.489
			c-0.575,0-1.111-0.291-1.425-0.773s-0.362-1.09-0.129-1.616l15.188-34.296c0.276-0.625,0.892-1.012,1.554-1.012
			c0.116,0,0.234,0.012,0.352,0.037c0.786,0.166,1.349,0.86,1.349,1.663v26.255h8.867h0.005c0.939,0,1.698,0.761,1.698,1.7
			C80.789-38.826,80.723-38.565,80.606-38.335z"/>
	</g>
	<g id="Light-M" transform="matrix(1 0 0 1 1087.68 1126)">
		<path d="M83.042-85.788H47.873c-5.549,0-10.048,4.505-10.048,10.049V4.647c0,5.554,4.499,10.049,10.048,10.049h35.169
			c5.549,0,10.048-4.495,10.048-10.049v-80.387C93.089-81.283,88.59-85.788,83.042-85.788z M79.151-38.483L63.918-4.162
			c-0.195,0.44-0.63,0.714-1.096,0.714c-0.083,0-0.166-0.009-0.25-0.026c-0.554-0.117-0.951-0.607-0.951-1.174v-26.968h-8.79
			c-0.406,0-0.784-0.206-1.006-0.545c-0.221-0.34-0.256-0.77-0.091-1.141l14.891-33.626c0.195-0.441,0.63-0.714,1.097-0.714
			c0.083,0,0.166,0.009,0.249,0.026c0.555,0.117,0.952,0.607,0.952,1.174v26.209h9.161h0.005c0.663,0,1.198,0.538,1.198,1.2
			C79.285-38.835,79.237-38.648,79.151-38.483z"/>
	</g>
	<g id="Thin-M" transform="matrix(1 0 0 1 792.042 1126)">
		<path d="M81.613-84.788H47.145c-5.438,0-9.848,4.416-9.848,9.849V3.848c0,5.443,4.41,9.849,9.848,9.849h34.469
			c5.438,0,9.848-4.405,9.848-9.849v-78.787C91.461-80.373,87.052-84.788,81.613-84.788z M77.373-38.633L62.435-4.979
			c-0.114,0.257-0.367,0.416-0.639,0.416c-0.048,0-0.097-0.005-0.146-0.016c-0.324-0.068-0.555-0.354-0.555-0.685V-32.17h-9.091
			c-0.237,0-0.458-0.12-0.587-0.318c-0.129-0.198-0.149-0.449-0.053-0.665l14.594-32.958c0.114-0.257,0.368-0.417,0.64-0.417
			c0.048,0,0.097,0.005,0.146,0.015c0.323,0.069,0.555,0.354,0.555,0.685v26.164h9.455h0.005c0.387,0,0.698,0.313,0.698,0.7
			C77.456-38.844,77.426-38.732,77.373-38.633z"/>
	</g>
	<g id="Ultralight-M" transform="matrix(1 0 0 1 495.893 1126)">
		<path d="M80.703-83.788H46.934c-5.328,0-9.648,4.326-9.648,9.649V3.047c0,5.334,4.32,9.649,9.648,9.649h33.769
			c5.328,0,9.648-4.315,9.648-9.649v-77.186C90.351-79.462,86.031-83.788,80.703-83.788z M76.104-38.796L61.46-5.802
			c-0.031,0.069-0.099,0.112-0.172,0.112c-0.013,0-0.026-0.002-0.039-0.005c-0.087-0.019-0.149-0.095-0.149-0.184v-26.858h-9.404
			c-0.064,0-0.123-0.032-0.158-0.086c-0.035-0.053-0.041-0.12-0.015-0.179L65.82-65.289c0.031-0.069,0.099-0.112,0.172-0.112
			c0.013,0,0.026,0.002,0.039,0.004c0.087,0.019,0.149,0.095,0.149,0.184v26.13h9.76h0.004c0.104,0,0.187,0.085,0.187,0.188
			C76.132-38.858,76.122-38.825,76.104-38.796z"/>
	</g>
	<g id="Black-S" transform="matrix(1 0 0 1 2880.28 696)">
		<path d="M68.193-78.295H38.046c-4.756,0-8.611,3.861-8.611,8.613v68.903c0,4.762,3.855,8.614,8.611,8.614h30.146
			c4.756,0,8.611-3.852,8.611-8.614v-68.903C76.804-74.434,72.948-78.295,68.193-78.295z M67.116-36.67L54.087-7.314
			c-0.575,1.295-1.854,2.099-3.226,2.099c-0.243,0-0.488-0.024-0.733-0.078c-1.631-0.345-2.798-1.785-2.798-3.453V-29.36h-5.034
			c-1.194,0-2.307-0.604-2.958-1.604s-0.753-2.263-0.27-3.354l12.765-28.823c0.573-1.296,1.853-2.101,3.226-2.101
			c0.242,0,0.487,0.025,0.732,0.077c1.631,0.345,2.799,1.786,2.799,3.453v19.964h5.352h0.004c1.948,0,3.527,1.58,3.527,3.53
			C67.473-37.664,67.345-37.138,67.116-36.67z"/>
	</g>
	<g id="Heavy-S" transform="matrix(1 0 0 1 2583.76 696)">
		<path d="M67.793-77.708H38.058c-4.691,0-8.495,3.809-8.495,8.496v67.964c0,4.695,3.804,8.496,8.495,8.496h29.734
			c4.691,0,8.495-3.8,8.495-8.496v-67.964C76.288-73.899,72.484-77.708,67.793-77.708z M66.357-36.828L53.501-7.863
			c-0.5,1.125-1.61,1.824-2.804,1.824c-0.21,0-0.423-0.022-0.637-0.067c-1.417-0.3-2.431-1.551-2.431-3v-20.747h-5.379
			c-1.038,0-2.005-0.525-2.57-1.395c-0.567-0.87-0.654-1.966-0.233-2.915l12.589-28.43c0.498-1.126,1.61-1.826,2.804-1.826
			c0.21,0,0.422,0.021,0.636,0.066c1.417,0.3,2.432,1.551,2.432,3.001v20.106H63.6h0.004c1.694,0,3.065,1.374,3.065,3.067
			C66.67-37.694,66.556-37.236,66.357-36.828z"/>
	</g>
	<g id="Bold-S" transform="matrix(1 0 0 1 2287.27 696)">
		<path d="M67.37-77.121H38.047c-4.626,0-8.378,3.756-8.378,8.379v67.024c0,4.631,3.752,8.378,8.378,8.378H67.37
			c4.626,0,8.378-3.748,8.378-8.378v-67.024C75.748-73.364,71.996-77.121,67.37-77.121z M65.584-36.982L52.902-8.408
			c-0.427,0.96-1.373,1.555-2.391,1.555c-0.18,0-0.361-0.018-0.543-0.057c-1.209-0.256-2.074-1.323-2.074-2.559v-20.87h-5.713
			c-0.886,0-1.71-0.447-2.192-1.189c-0.483-0.742-0.559-1.678-0.2-2.487L52.205-62.05c0.426-0.961,1.373-1.557,2.391-1.557
			c0.18,0,0.361,0.019,0.543,0.057c1.209,0.256,2.075,1.323,2.075,2.559v20.237h6.022h0.004c1.445,0,2.613,1.171,2.613,2.616
			C65.853-37.722,65.756-37.33,65.584-36.982z"/>
	</g>
	<g id="Semibold-S" transform="matrix(1 0 0 1 1990.7 696)">
		<path d="M67.021-76.533H38.107c-4.561,0-8.259,3.704-8.259,8.261v66.084c0,4.566,3.698,8.261,8.259,8.261h28.914
			c4.561,0,8.26-3.695,8.26-8.261v-66.084C75.281-72.829,71.581-76.533,67.021-76.533z M64.894-37.13L52.386-8.947
			c-0.354,0.799-1.143,1.294-1.989,1.294c-0.149,0-0.3-0.015-0.451-0.047c-1.007-0.213-1.726-1.101-1.726-2.13V-30.81h-6.036
			c-0.735,0-1.423-0.372-1.824-0.989c-0.401-0.617-0.465-1.395-0.166-2.068l12.241-27.644c0.354-0.799,1.143-1.295,1.989-1.295
			c0.149,0,0.302,0.015,0.452,0.047c1.006,0.213,1.726,1.101,1.726,2.129v20.356h6.341h0.004c1.201,0,2.175,0.975,2.175,2.177
			C65.121-37.75,65.04-37.421,64.894-37.13z"/>
	</g>
	<g id="Medium-S" transform="matrix(1 0 0 1 1694.09 696)">
		<path d="M66.715-75.946h-28.5c-4.497,0-8.144,3.651-8.144,8.144v65.145c0,4.5,3.646,8.143,8.144,8.143h28.5
			c4.498,0,8.144-3.643,8.144-8.143v-65.145C74.858-72.295,71.213-75.946,66.715-75.946z M64.263-37.274L51.926-9.481
			c-0.284,0.641-0.917,1.04-1.597,1.04c-0.12,0-0.242-0.013-0.363-0.039c-0.808-0.172-1.386-0.885-1.386-1.709v-21.08h-6.348
			c-0.591,0-1.143-0.299-1.465-0.795c-0.323-0.495-0.372-1.121-0.133-1.661l12.067-27.251c0.284-0.642,0.917-1.04,1.597-1.04
			c0.12,0,0.241,0.013,0.363,0.038c0.809,0.17,1.386,0.884,1.386,1.71v20.464h6.648H62.7c0.966,0,1.746,0.783,1.746,1.748
			C64.446-37.775,64.381-37.509,64.263-37.274z"/>
	</g>
	<g id="Regular-S" transform="matrix(1 0 0 1 1397.53 696)">
		<path d="M66.302-75.353H38.217c-4.431,0-8.024,3.598-8.024,8.025v64.195c0,4.436,3.593,8.025,8.024,8.025h28.085
			c4.432,0,8.024-3.589,8.024-8.025v-64.195C74.326-71.755,70.734-75.353,66.302-75.353z M63.531-37.414L51.371-10.016
			c-0.216,0.488-0.698,0.791-1.216,0.791c-0.091,0-0.184-0.009-0.277-0.029c-0.615-0.131-1.055-0.674-1.055-1.302v-21.163h-6.647
			c-0.45,0-0.87-0.228-1.115-0.605c-0.246-0.377-0.284-0.853-0.102-1.265l11.892-26.854c0.217-0.489,0.699-0.792,1.217-0.792
			c0.091,0,0.184,0.01,0.275,0.029c0.616,0.13,1.056,0.674,1.056,1.303v20.557h6.943h0.004c0.735,0,1.329,0.596,1.329,1.332
			C63.675-37.798,63.623-37.594,63.531-37.414z"/>
	</g>
	<g id="Light-S" transform="matrix(1 0 0 1 1101.55 696)">
		<path d="M65.356-74.569H37.819c-4.345,0-7.868,3.527-7.868,7.868v62.942c0,4.349,3.523,7.868,7.868,7.868h27.537
			c4.345,0,7.868-3.52,7.868-7.868v-62.942C73.223-71.042,69.7-74.569,65.356-74.569z M62.31-37.53L50.382-10.657
			c-0.153,0.345-0.493,0.559-0.858,0.559c-0.064,0-0.13-0.007-0.195-0.021c-0.434-0.092-0.745-0.476-0.745-0.919v-21.116h-6.882
			c-0.318,0-0.614-0.161-0.788-0.427c-0.173-0.267-0.2-0.603-0.071-0.893l11.659-26.329c0.153-0.345,0.493-0.559,0.859-0.559
			c0.064,0,0.129,0.007,0.195,0.021c0.435,0.092,0.745,0.475,0.745,0.919V-38.9h7.173h0.004c0.519,0,0.938,0.421,0.938,0.94
			C62.415-37.805,62.377-37.659,62.31-37.53z"/>
	</g>
	<g id="Thin-S" transform="matrix(1 0 0 1 805.763 696)">
		<path d="M64.153-73.787H37.163c-4.258,0-7.711,3.458-7.711,7.712v61.69c0,4.262,3.453,7.711,7.711,7.711h26.989
			c4.258,0,7.711-3.45,7.711-7.711v-61.69C71.863-70.329,68.411-73.787,64.153-73.787z M60.832-37.647L49.136-11.297
			c-0.089,0.201-0.288,0.326-0.5,0.326c-0.038,0-0.076-0.004-0.114-0.012c-0.253-0.054-0.435-0.277-0.435-0.536v-21.067h-7.118
			c-0.186,0-0.358-0.094-0.46-0.25c-0.101-0.155-0.116-0.352-0.042-0.521l11.427-25.806c0.089-0.202,0.288-0.327,0.501-0.327
			c0.038,0,0.076,0.004,0.114,0.012c0.253,0.054,0.435,0.278,0.435,0.537v20.486h7.403h0.003c0.303,0,0.546,0.246,0.546,0.548
			C60.897-37.813,60.874-37.725,60.832-37.647z"/>
	</g>
	<g id="Ultralight-S" transform="matrix(1 0 0 1 509.54 696)">
		<path d="M63.392-73.003h-26.44c-4.172,0-7.555,3.387-7.555,7.555v60.437c0,4.176,3.383,7.555,7.555,7.555h26.44
			c4.172,0,7.555-3.379,7.555-7.555v-60.437C70.946-69.616,67.563-73.003,63.392-73.003z M59.791-37.775L48.324-11.94
			c-0.024,0.054-0.078,0.088-0.135,0.088c-0.01,0-0.021-0.001-0.031-0.004c-0.068-0.015-0.117-0.074-0.117-0.144v-21.03h-7.364
			c-0.05,0-0.096-0.025-0.124-0.067c-0.027-0.042-0.032-0.094-0.011-0.14l11.195-25.281c0.024-0.054,0.078-0.088,0.135-0.088
			c0.01,0,0.02,0.001,0.03,0.003c0.068,0.015,0.117,0.075,0.117,0.145V-38h7.642h0.003c0.082,0,0.146,0.066,0.146,0.147
			C59.813-37.824,59.805-37.797,59.791-37.775z"/>
	</g>
</g>
</svg>
