<?xml version="1.0" encoding="utf-8"?>
<!-- Generator: Adobe Illustrator 16.0.0, SVG Export Plug-In . SVG Version: 6.00 Build 0)  -->
<!DOCTYPE svg PUBLIC "-//W3C//DTD SVG 1.1//EN" "http://www.w3.org/Graphics/SVG/1.1/DTD/svg11.dtd">
<svg version="1.1" id="Layer_1" xmlns="http://www.w3.org/2000/svg" xmlns:xlink="http://www.w3.org/1999/xlink" x="0px" y="0px"
	 width="3300px" height="2200px" viewBox="0 0 3300 2200" enable-background="new 0 0 3300 2200" xml:space="preserve">
<g id="Notes">
	<rect id="artboard" fill="#FFFFFF" width="3300" height="2200"/>
	<line fill="none" stroke="#000000" stroke-width="0.5" x1="263" y1="292" x2="3036" y2="292"/>
	<text transform="matrix(1 0 0 1 263 322)" font-family="'Arial-BoldMT'" font-size="12">Weight/Scale Variations</text>
	<text transform="matrix(1 0 0 1 536.0361 322)" font-family="'ArialMT'" font-size="12">Ultralight</text>
	<text transform="matrix(1 0 0 1 844.75 322)" font-family="'ArialMT'" font-size="12">Thin</text>
	<text transform="matrix(1 0 0 1 1140.1191 322)" font-family="'ArialMT'" font-size="12">Light</text>
	<text transform="matrix(1 0 0 1 1428.8281 322)" font-family="'ArialMT'" font-size="12">Regular</text>
	<text transform="matrix(1 0 0 1 1725.2207 322)" font-family="'ArialMT'" font-size="12">Medium</text>
	<text transform="matrix(1 0 0 1 2018.2559 322)" font-family="'ArialMT'" font-size="12">Semibold</text>
	<text transform="matrix(1 0 0 1 2327.9707 322)" font-family="'ArialMT'" font-size="12">Bold</text>
	<text transform="matrix(1 0 0 1 2619.6836 322)" font-family="'ArialMT'" font-size="12">Heavy</text>
	<text transform="matrix(1 0 0 1 2918.7285 322)" font-family="'ArialMT'" font-size="12">Black</text>
	<line fill="none" stroke="#000000" stroke-width="0.5" x1="263" y1="1903" x2="3036" y2="1903"/>
	<g transform="matrix(1 0 0 1 263 1933)">
		<path d="M9.248,0.83c4.307,0,7.891-3.574,7.891-7.881c0-4.308-3.594-7.881-7.9-7.881c-4.297,0-7.871,3.573-7.871,7.881
			C1.368-2.744,4.951,0.83,9.248,0.83z M9.248-0.654c-3.545,0-6.377-2.842-6.377-6.396s2.822-6.396,6.367-6.396
			c3.555,0,6.396,2.843,6.406,6.396C15.654-3.496,12.803-0.654,9.248-0.654z M6.396-6.318h2.109v2.119
			c0,0.439,0.293,0.742,0.723,0.742c0.449,0,0.742-0.303,0.742-0.742v-2.119h2.13c0.439,0,0.742-0.293,0.742-0.723
			c0-0.439-0.303-0.742-0.742-0.742H9.971v-2.108c0-0.449-0.293-0.753-0.742-0.753c-0.43,0-0.723,0.304-0.723,0.753v2.108h-2.11
			c-0.449,0-0.752,0.303-0.752,0.742C5.645-6.611,5.947-6.318,6.396-6.318z"/>
	</g>
	<g transform="matrix(1 0 0 1 281.506 1933)">
		<path d="M11.709,2.91c5.449,0,9.961-4.521,9.961-9.961c0-5.449-4.521-9.961-9.971-9.961c-5.439,0-9.951,4.512-9.951,9.961
			C1.748-1.611,6.269,2.91,11.709,2.91z M11.709,1.25c-4.609,0-8.291-3.691-8.291-8.301c0-4.61,3.672-8.301,8.281-8.301
			S20-11.66,20.01-7.051C20.02-2.442,16.318,1.25,11.709,1.25z M7.988-6.23h2.891v2.91c0,0.488,0.332,0.82,0.811,0.82
			c0.488,0,0.83-0.332,0.83-0.82v-2.91h2.91c0.488,0,0.82-0.332,0.82-0.811c0-0.488-0.332-0.83-0.82-0.83h-2.91v-2.891
			c0-0.508-0.342-0.84-0.83-0.84c-0.479,0-0.811,0.342-0.811,0.84v2.891H7.988c-0.508,0-0.84,0.342-0.84,0.83
			C7.148-6.563,7.49-6.23,7.988-6.23z"/>
	</g>
	<g transform="matrix(1 0 0 1 304.924 1933)">
		<path d="M14.97,5.664c6.963,0,12.725-5.762,12.725-12.715c0-6.963-5.771-12.726-12.734-12.726
			c-6.953,0-12.705,5.763-12.705,12.726C2.256-0.097,8.017,5.664,14.97,5.664z M14.97,3.848C8.935,3.848,4.081-1.015,4.081-7.05
			c0-6.045,4.844-10.898,10.879-10.898c6.045,0,10.898,4.854,10.908,10.898C25.879-1.015,21.015,3.848,14.97,3.848z M10.058-6.142
			h4.004v4.014c0,0.537,0.371,0.908,0.889,0.908c0.537,0,0.908-0.371,0.908-0.908v-4.014h4.023c0.527,0,0.908-0.371,0.908-0.89
			c0-0.537-0.371-0.918-0.908-0.918h-4.023v-4.004c0-0.557-0.371-0.928-0.908-0.928c-0.518,0-0.889,0.381-0.889,0.928v4.004h-4.004
			c-0.557,0-0.928,0.381-0.928,0.918C9.131-6.513,9.511-6.142,10.058-6.142z"/>
	</g>
	<text transform="matrix(1 0 0 1 263 1953)" font-family="'Arial-BoldMT'" font-size="12">Design Variations</text>
	<text transform="matrix(1 0 0 1 263 1971)" font-family="'ArialMT'" font-size="12">Symbols are supported in up to nine weights and three scales.</text>
	<text transform="matrix(1 0 0 1 263 1989)" font-family="'ArialMT'" font-size="12">For optimal layout with text and other symbols, vertically align</text>
	<text transform="matrix(1 0 0 1 263 2007)" font-family="'ArialMT'" font-size="12">symbols with the adjacent text.</text>
	<line fill="none" stroke="#00AEEF" stroke-width="0.5" x1="776" y1="1919" x2="776" y2="1933"/>
	<g transform="matrix(1 0 0 1 776 1933)">
		<path d="M3.311,0.127c0.519,0,0.771-0.195,0.957-0.732l1.261-3.457h5.762l1.26,3.457c0.187,0.537,0.439,0.732,0.947,0.732
			c0.518,0,0.85-0.313,0.85-0.801c0-0.166-0.028-0.313-0.106-0.527L9.66-13.389c-0.226-0.605-0.625-0.898-1.25-0.898
			c-0.605,0-1.017,0.293-1.23,0.889L2.598-1.191C2.52-0.976,2.49-0.83,2.49-0.664C2.49-0.176,2.803,0.127,3.311,0.127z M6.006-5.537
			l2.373-6.572h0.049l2.373,6.572H6.006z"/>
	</g>
	<line fill="none" stroke="#00AEEF" stroke-width="0.5" x1="792.836" y1="1919" x2="792.836" y2="1933"/>
	<text transform="matrix(1 0 0 1 776 1953)" font-family="'Arial-BoldMT'" font-size="12">Margins</text>
	<text transform="matrix(1 0 0 1 776 1971)" font-family="'ArialMT'" font-size="12">Leading and trailing margins on the left and right side of each symbol</text>
	<text transform="matrix(1 0 0 1 776 1989)" font-family="'ArialMT'" font-size="12">can be adjusted by modifying the x-location of the margin guidelines.</text>
	<text transform="matrix(1 0 0 1 776 2007)" font-family="'ArialMT'" font-size="12">Modifications are automatically applied proportionally to all</text>
	<text transform="matrix(1 0 0 1 776 2025)" font-family="'ArialMT'" font-size="12">scales and weights.</text>
	<g transform="matrix(1 0 0 1 1289 1933)">
		<path d="M2.842,1.865l1.699,1.709C5.4,4.444,6.387,4.385,7.314,3.36L17.49-7.851c0.264,0.088,0.537,0.067,0.85,0.01l1.064-0.195
			l0.664,0.674l-0.039,0.558c-0.039,0.498,0.088,0.879,0.576,1.356l0.762,0.742c0.479,0.479,1.094,0.508,1.563,0.039l2.91-2.92
			c0.469-0.469,0.449-1.064-0.029-1.543L25.04-9.892c-0.479-0.479-0.851-0.636-1.328-0.597l-0.576,0.049l-0.645-0.635l0.244-1.123
			c0.127-0.565-0.029-1.006-0.615-1.592l-2.197-2.188c-3.34-3.32-7.772-3.242-10.664-0.353c-0.42,0.41-0.448,0.986-0.215,1.377
			c0.234,0.361,0.693,0.597,1.338,0.431c1.465-0.343,2.988-0.4,4.414,0.536L14.21-12.53c-0.195,0.479-0.225,0.879-0.098,1.24
			L3.047-0.898C2.061,0.02,1.982,0.996,2.842,1.865z M10.752-15.957c2.432-1.777,5.723-1.475,7.949,0.752l2.432,2.412
			c0.234,0.234,0.273,0.42,0.205,0.762l-0.322,1.484l1.504,1.484l0.986-0.06c0.254-0.01,0.332,0.01,0.527,0.205l0.576,0.576
			L22.168-5.9l-0.576-0.575c-0.195-0.195-0.225-0.273-0.215-0.537l0.068-0.978l-1.494-1.483L18.428-9.22
			c-0.322,0.067-0.469,0.039-0.713-0.195l-2.002-2.002c-0.254-0.234-0.283-0.4-0.127-0.771l0.879-2.091
			c-1.563-1.455-3.594-2.08-5.625-1.483C10.684-15.722,10.625-15.849,10.752-15.957z M5.273,2.305L4.102,1.143
			C3.633,0.684,3.74,0.342,4.141-0.02l10.812-10.176l1.465,1.484L6.426,2.276C6.074,2.676,5.742,2.774,5.273,2.305z"/>
	</g>
	<text transform="matrix(1 0 0 1 1289 1953)" font-family="'Arial-BoldMT'" font-size="12">Exporting</text>
	<text transform="matrix(1 0 0 1 1289 1971)" font-family="'ArialMT'" font-size="12">Symbols should be outlined when exporting to ensure the</text>
	<text transform="matrix(1 0 0 1 1289 1989)" font-family="'ArialMT'" font-size="12">design is preserved when submitting to Xcode.</text>
	<text id="template-version" transform="matrix(1 0 0 1 2958.8496 1933)" font-family="'ArialMT'" font-size="12">Template v.2.0</text>
	<text transform="matrix(1 0 0 1 2878.5762 1951)" font-family="'ArialMT'" font-size="12">Requires Xcode 12 or greater</text>
	<text transform="matrix(1 0 0 1 2891.9238 1969)" font-family="'ArialMT'" font-size="12">Generated from payload.fill</text>
	<text transform="matrix(1 0 0 1 2921.9238 1987)" font-family="'ArialMT'" font-size="12">Typeset at 100 points</text>
	<text transform="matrix(1 0 0 1 263 726)" font-family="'ArialMT'" font-size="12">Small</text>
	<text transform="matrix(1 0 0 1 263 1156)" font-family="'ArialMT'" font-size="12">Medium</text>
	<text transform="matrix(1 0 0 1 263 1586)" font-family="'ArialMT'" font-size="12">Large</text>
</g>
<g id="Guides">
	<g id="H-reference" transform="matrix(1 0 0 1 339 696)">
		<path fill="#27AAE1" d="M0.977,0h2.686l9.326-24.463h32.764L55.127,0h2.637L30.615-70.459h-2.49L0.977,0z M29.346-67.139h0.098
			l15.43,40.431H13.867L29.346-67.139z"/>
	</g>
	<line id="Baseline-S" fill="none" stroke="#27AAE1" stroke-width="0.5" x1="263" y1="696" x2="3036" y2="696"/>
	<line id="Capline-S" fill="none" stroke="#27AAE1" stroke-width="0.5" x1="263" y1="625.541" x2="3036" y2="625.541"/>
	<g id="H-reference_1_" transform="matrix(1 0 0 1 339 1126)">
		<path fill="#27AAE1" d="M0.977,0h2.686l9.326-24.463h32.764L55.127,0h2.637L30.615-70.459h-2.49L0.977,0z M29.346-67.138h0.098
			l15.43,40.43H13.867L29.346-67.138z"/>
	</g>
	<line id="Baseline-M" fill="none" stroke="#27AAE1" stroke-width="0.5" x1="263" y1="1126" x2="3036" y2="1126"/>
	<line id="Capline-M" fill="none" stroke="#27AAE1" stroke-width="0.5" x1="263" y1="1055.539" x2="3036" y2="1055.539"/>
	<g id="H-reference_2_" transform="matrix(1 0 0 1 339 1556)">
		<path fill="#27AAE1" d="M0.977,0h2.686l9.326-24.463h32.764L55.127,0h2.637L30.615-70.459h-2.49L0.977,0z M29.346-67.138h0.098
			l15.43,40.43H13.867L29.346-67.138z"/>
	</g>
	<line id="Baseline-L" fill="none" stroke="#27AAE1" stroke-width="0.5" x1="263" y1="1556" x2="3036" y2="1556"/>
	<line id="Capline-L" fill="none" stroke="#27AAE1" stroke-width="0.5" x1="263" y1="1485.539" x2="3036" y2="1485.539"/>
	<line id="left-margin" fill="none" stroke="#00AEEF" stroke-width="0.5" x1="1383.58" y1="1030.789" x2="1383.58" y2="1150.119"/>
	<line id="right-margin" fill="none" stroke="#00AEEF" stroke-width="0.5" x1="1516.1" y1="1030.789" x2="1516.1" y2="1150.119"/>
</g>
<g id="Symbols">
	<g id="Black-L" transform="matrix(1 0 0 1 2846.24 1556)">
		<path d="M49.135-10.945c0,2.636-2.145,4.78-4.781,4.78s-4.781-2.145-4.781-4.78c0-2.638,2.145-4.781,4.781-4.781
			S49.135-13.583,49.135-10.945z M89.743-75.996c2.637,0,4.781-2.145,4.781-4.782c0-2.636-2.145-4.779-4.781-4.779
			s-4.78,2.144-4.78,4.779C84.963-78.141,87.107-75.996,89.743-75.996z M58.319-22.711c-2.635,0-4.779,2.146-4.779,4.782
			c0,2.638,2.145,4.782,4.779,4.782c2.637,0,4.782-2.145,4.782-4.782C63.101-20.564,60.955-22.711,58.319-22.711z M72.285-29.693
			c-2.637,0-4.78,2.145-4.78,4.783c0,2.635,2.144,4.779,4.78,4.779s4.781-2.145,4.781-4.779
			C77.067-27.549,74.922-29.693,72.285-29.693z M135.134-15.727c-2.637,0-4.782,2.144-4.782,4.781c0,2.636,2.146,4.78,4.782,4.78
			s4.782-2.145,4.782-4.78C139.916-13.583,137.771-15.727,135.134-15.727z M107.2-29.693c-2.636,0-4.78,2.145-4.78,4.783
			c0,2.635,2.145,4.779,4.78,4.779c2.637,0,4.782-2.145,4.782-4.779C111.983-27.549,109.837-29.693,107.2-29.693z M89.743-57.627
			c-2.637,0-4.78,2.146-4.78,4.782c0,2.638,2.144,4.782,4.78,4.782s4.781-2.145,4.781-4.782
			C94.525-55.481,92.38-57.627,89.743-57.627z M121.167-22.711c-2.637,0-4.781,2.146-4.781,4.782c0,2.638,2.145,4.782,4.781,4.782
			s4.782-2.145,4.782-4.782C125.949-20.564,123.804-22.711,121.167-22.711z M89.743-62.029c2.637,0,4.781-2.146,4.781-4.781
			c0-2.638-2.145-4.781-4.781-4.781s-4.78,2.144-4.78,4.781C84.963-64.175,87.107-62.029,89.743-62.029z M160.514-64.165v57.871
			c0,5.352-3.01,10.247-7.785,12.661L95.555,35.288c-2.014,1.019-4.209,1.527-6.404,1.527c-2.196,0-4.392-0.509-6.405-1.527
			L25.565,6.369C20.791,3.953,17.78-0.942,17.78-6.294v-57.871c0-5.35,3.012-10.246,7.785-12.661l57.181-28.922
			c2.014-1.02,4.209-1.528,6.405-1.528c2.195,0,4.391,0.511,6.404,1.529l57.174,28.922
			C157.505-74.411,160.514-69.515,160.514-64.165z M39.03-67.734l50.113,24.207l50.119-24.21L89.151-93.086L39.03-67.734z
			 M31.97-6.294l50.078,25.326v-50.228L31.97-55.386V-6.294z M146.324-6.294v-49.095L96.238-31.195V19.04L146.324-6.294z"/>
	</g>
	<g id="Heavy-L" transform="matrix(1 0 0 1 2550.07 1556)">
		<path d="M46.446-10.944c0,2.547-2.072,4.618-4.621,4.618c-2.547,0-4.619-2.071-4.619-4.618c0-2.55,2.072-4.621,4.619-4.621
			C44.373-15.565,46.446-13.494,46.446-10.944z M87.215-76.157c2.548,0,4.62-2.072,4.62-4.621c0-2.547-2.072-4.618-4.62-4.618
			c-2.547,0-4.619,2.071-4.619,4.618C82.596-78.229,84.668-76.157,87.215-76.157z M55.791-22.55c-2.547,0-4.619,2.073-4.619,4.621
			c0,2.547,2.072,4.62,4.619,4.62c2.548,0,4.62-2.073,4.62-4.62C60.411-20.477,58.339-22.55,55.791-22.55z M69.758-29.532
			c-2.548,0-4.62,2.072-4.62,4.622c0,2.547,2.072,4.618,4.62,4.618c2.547,0,4.619-2.071,4.619-4.618
			C74.377-27.46,72.305-29.532,69.758-29.532z M132.606-15.565c-2.549,0-4.621,2.071-4.621,4.621c0,2.547,2.072,4.618,4.621,4.618
			s4.621-2.071,4.621-4.618C137.227-13.494,135.155-15.565,132.606-15.565z M104.672-29.532c-2.546,0-4.618,2.072-4.618,4.622
			c0,2.547,2.072,4.618,4.618,4.618c2.549,0,4.621-2.071,4.621-4.618C109.293-27.46,107.221-29.532,104.672-29.532z M87.215-57.465
			c-2.547,0-4.619,2.073-4.619,4.62c0,2.549,2.072,4.621,4.619,4.621c2.548,0,4.62-2.072,4.62-4.621
			C91.835-55.392,89.763-57.465,87.215-57.465z M118.639-22.55c-2.547,0-4.619,2.073-4.619,4.621c0,2.547,2.072,4.62,4.619,4.62
			c2.549,0,4.621-2.073,4.621-4.62C123.26-20.477,121.188-22.55,118.639-22.55z M87.215-62.19c2.548,0,4.62-2.072,4.62-4.62
			s-2.072-4.62-4.62-4.62c-2.547,0-4.619,2.072-4.619,4.62S84.668-62.19,87.215-62.19z M156.697-64.164v57.87
			c0,4.863-2.736,9.315-7.077,11.512L92.445,34.137c-1.83,0.928-3.825,1.389-5.822,1.389c-1.995,0-3.992-0.461-5.823-1.389
			L23.619,5.218c-4.342-2.196-7.078-6.646-7.078-11.512v-57.87c0-4.864,2.736-9.315,7.078-11.511l57.18-28.922
			c1.831-0.926,3.828-1.39,5.823-1.39s3.992,0.464,5.822,1.39l57.175,28.922C153.96-73.479,156.697-69.028,156.697-64.164z
			 M35.777-67.368l50.838,24.557l50.844-24.558L86.622-93.086L35.777-67.368z M29.442-6.294L80.164,19.36V-31.6L29.442-56.103
			V-6.294z M143.796-6.294v-49.811L93.065-31.6v50.967L143.796-6.294z"/>
	</g>
	<g id="Bold-L" transform="matrix(1 0 0 1 2253.97 1556)">
		<path d="M45.677-10.945c0,2.457-2,4.457-4.46,4.457c-2.457,0-4.458-2-4.458-4.457c0-2.459,2.001-4.459,4.458-4.459
			C43.677-15.404,45.677-13.404,45.677-10.945z M86.608-76.318c2.458,0,4.459-2.001,4.459-4.46c0-2.458-2.001-4.457-4.459-4.457
			c-2.457,0-4.458,1.999-4.458,4.457C82.15-78.319,84.151-76.318,86.608-76.318z M55.184-22.389c-2.458,0-4.457,2.001-4.457,4.46
			s1.999,4.459,4.457,4.459c2.459,0,4.459-2,4.459-4.459S57.643-22.389,55.184-22.389z M69.151-29.371
			c-2.458,0-4.459,2.002-4.459,4.461c0,2.456,2.001,4.457,4.459,4.457c2.457,0,4.458-2.001,4.458-4.457
			C73.609-27.369,71.608-29.371,69.151-29.371z M131.999-15.404c-2.459,0-4.459,2-4.459,4.459c0,2.457,2,4.457,4.459,4.457
			s4.46-2,4.46-4.457C136.459-13.404,134.458-15.404,131.999-15.404z M104.065-29.371c-2.458,0-4.457,2.002-4.457,4.461
			c0,2.456,1.999,4.457,4.457,4.457c2.459,0,4.459-2.001,4.459-4.457C108.524-27.369,106.524-29.371,104.065-29.371z M86.608-57.304
			c-2.457,0-4.458,2-4.458,4.459s2.001,4.46,4.458,4.46c2.458,0,4.459-2.001,4.459-4.46S89.066-57.304,86.608-57.304z
			 M118.032-22.389c-2.458,0-4.458,2.001-4.458,4.46s2,4.459,4.458,4.459c2.459,0,4.459-2,4.459-4.459
			S120.491-22.389,118.032-22.389z M86.608-62.352c2.458,0,4.459-2.001,4.459-4.459c0-2.459-2.001-4.459-4.459-4.459
			c-2.457,0-4.458,2-4.458,4.459C82.15-64.353,84.151-62.352,86.608-62.352z M154.8-64.165v57.871c0,4.377-2.463,8.383-6.369,10.36
			L91.256,32.985c-1.647,0.834-3.444,1.25-5.24,1.25c-1.797,0-3.593-0.416-5.241-1.25L23.594,4.066
			c-3.907-1.978-6.37-5.981-6.37-10.36v-57.871c0-4.377,2.463-8.384,6.37-10.36l57.18-28.921c1.648-0.833,3.444-1.25,5.241-1.25
			c1.796,0,3.593,0.418,5.24,1.251l57.175,28.922C152.337-72.547,154.8-68.542,154.8-64.165z M34.446-67.002l51.562,24.907
			l51.568-24.909L86.015-93.086L34.446-67.002z M28.835-6.294l51.368,25.979v-51.69L28.835-56.817V-6.294z M143.189-6.294v-50.527
			L91.812-32.006v51.698L143.189-6.294z"/>
	</g>
	<g id="Semibold-L" transform="matrix(1 0 0 1 1957.7 1556)">
		<path d="M45.072-10.944c0,2.368-1.929,4.296-4.299,4.296c-2.369,0-4.297-1.928-4.297-4.296c0-2.371,1.928-4.299,4.297-4.299
			C43.143-15.243,45.072-13.315,45.072-10.944z M86.163-76.48c2.37,0,4.297-1.927,4.297-4.298c0-2.368-1.927-4.296-4.297-4.296
			c-2.369,0-4.297,1.928-4.297,4.296C81.866-78.407,83.794-76.48,86.163-76.48z M54.74-22.228c-2.369,0-4.297,1.931-4.297,4.299
			c0,2.371,1.928,4.298,4.297,4.298s4.298-1.927,4.298-4.298C59.037-20.297,57.109-22.228,54.74-22.228z M68.706-29.21
			c-2.37,0-4.297,1.929-4.297,4.3c0,2.368,1.927,4.296,4.297,4.296c2.369,0,4.297-1.928,4.297-4.296
			C73.003-27.281,71.075-29.21,68.706-29.21z M131.554-15.243c-2.369,0-4.298,1.928-4.298,4.299c0,2.368,1.929,4.296,4.298,4.296
			s4.299-1.928,4.299-4.296C135.853-13.315,133.923-15.243,131.554-15.243z M103.62-29.21c-2.369,0-4.296,1.929-4.296,4.3
			c0,2.368,1.927,4.296,4.296,4.296s4.298-1.928,4.298-4.296C107.918-27.281,105.99-29.21,103.62-29.21z M86.163-57.143
			c-2.369,0-4.297,1.929-4.297,4.298c0,2.371,1.928,4.299,4.297,4.299c2.37,0,4.297-1.928,4.297-4.299
			C90.46-55.214,88.533-57.143,86.163-57.143z M117.587-22.228c-2.369,0-4.297,1.931-4.297,4.299c0,2.371,1.928,4.298,4.297,4.298
			s4.299-1.927,4.299-4.298C121.886-20.297,119.956-22.228,117.587-22.228z M86.163-62.513c2.37,0,4.297-1.929,4.297-4.298
			c0-2.37-1.927-4.298-4.297-4.298c-2.369,0-4.297,1.928-4.297,4.298C81.866-64.441,83.794-62.513,86.163-62.513z M153.065-64.164
			v57.87c0,3.891-2.189,7.453-5.661,9.209L90.229,31.834c-1.465,0.741-3.062,1.111-4.658,1.111s-3.193-0.37-4.657-1.111
			L23.733,2.915c-3.474-1.756-5.663-5.318-5.663-9.209v-57.87c0-3.891,2.189-7.453,5.663-9.209l57.181-28.922
			c1.464-0.741,3.06-1.111,4.657-1.111c1.597,0,3.193,0.37,4.658,1.111l57.175,28.922C150.875-71.616,153.065-68.055,153.065-64.164
			z M33.277-66.637l52.286,25.259l52.293-25.26L85.571-93.086L33.277-66.637z M28.39-6.294l52.013,26.307v-52.424L28.39-57.536
			V-6.294z M142.744-6.294v-51.244l-52.021,25.13v52.429L142.744-6.294z"/>
	</g>
	<g id="Medium-L" transform="matrix(1 0 0 1 1661.3 1556)">
		<path d="M44.605-10.945c0,2.28-1.855,4.135-4.138,4.135c-2.279,0-4.135-1.854-4.135-4.135c0-2.282,1.855-4.137,4.135-4.137
			C42.75-15.082,44.605-13.228,44.605-10.945z M85.858-76.642c2.28,0,4.137-1.855,4.137-4.137c0-2.28-1.856-4.135-4.137-4.135
			c-2.279,0-4.136,1.854-4.136,4.135C81.722-78.497,83.579-76.642,85.858-76.642z M54.434-22.066c-2.281,0-4.135,1.857-4.135,4.138
			s1.854,4.137,4.135,4.137s4.137-1.856,4.137-4.137S56.716-22.066,54.434-22.066z M68.401-29.049c-2.28,0-4.137,1.855-4.137,4.139
			c0,2.279,1.856,4.134,4.137,4.134c2.279,0,4.136-1.854,4.136-4.134C72.537-27.193,70.68-29.049,68.401-29.049z M131.249-15.082
			c-2.281,0-4.137,1.854-4.137,4.137c0,2.28,1.855,4.135,4.137,4.135s4.137-1.854,4.137-4.135
			C135.385-13.228,133.53-15.082,131.249-15.082z M103.315-29.049c-2.28,0-4.135,1.855-4.135,4.139c0,2.279,1.854,4.134,4.135,4.134
			c2.281,0,4.137-1.854,4.137-4.134C107.452-27.193,105.596-29.049,103.315-29.049z M85.858-56.981
			c-2.279,0-4.136,1.856-4.136,4.137c0,2.281,1.856,4.138,4.136,4.138c2.28,0,4.137-1.856,4.137-4.138
			C89.995-55.125,88.138-56.981,85.858-56.981z M117.282-22.066c-2.28,0-4.136,1.857-4.136,4.138s1.855,4.137,4.136,4.137
			c2.281,0,4.137-1.856,4.137-4.137S119.563-22.066,117.282-22.066z M85.858-62.675c2.28,0,4.137-1.855,4.137-4.136
			c0-2.281-1.856-4.137-4.137-4.137c-2.279,0-4.136,1.855-4.136,4.137C81.722-64.53,83.579-62.675,85.858-62.675z M151.469-64.165
			v57.871c0,3.404-1.916,6.521-4.955,8.058L89.341,30.683c-1.281,0.65-2.679,0.973-4.075,0.973c-1.397,0-2.794-0.322-4.075-0.973
			L24.01,1.764c-3.039-1.537-4.955-4.653-4.955-8.058v-57.871c0-3.403,1.916-6.521,4.955-8.058l57.181-28.921
			c1.281-0.647,2.678-0.973,4.075-0.973c1.396,0,2.794,0.325,4.076,0.973l57.173,28.921
			C149.553-70.686,151.469-67.568,151.469-64.165z M32.247-66.269l53.011,25.606l53.017-25.609L85.265-93.086L32.247-66.269z
			 M28.085-6.294l52.658,26.632v-53.152L28.085-58.251V-6.294z M142.439-6.294v-51.96L89.772-32.814v53.159L142.439-6.294z"/>
	</g>
	<g id="Regular-L" transform="matrix(1 0 0 1 1365.01 1556)">
		<path d="M43.979-10.945c0,2.192-1.783,3.974-3.975,3.974s-3.975-1.781-3.975-3.974c0-2.191,1.783-3.976,3.975-3.976
			S43.979-13.137,43.979-10.945z M85.394-76.803c2.192,0,3.975-1.783,3.975-3.976c0-2.19-1.783-3.974-3.975-3.974
			c-2.192,0-3.976,1.783-3.976,3.974C81.419-78.586,83.202-76.803,85.394-76.803z M53.97-21.904c-2.191,0-3.975,1.783-3.975,3.976
			c0,2.191,1.783,3.976,3.975,3.976c2.192,0,3.975-1.784,3.975-3.976C57.945-20.121,56.162-21.904,53.97-21.904z M67.936-28.888
			c-2.192,0-3.975,1.784-3.975,3.978c0,2.191,1.783,3.973,3.975,3.973s3.975-1.781,3.975-3.973
			C71.911-27.104,70.128-28.888,67.936-28.888z M130.784-14.921c-2.192,0-3.975,1.784-3.975,3.976c0,2.192,1.783,3.974,3.975,3.974
			s3.976-1.781,3.976-3.974C134.76-13.137,132.976-14.921,130.784-14.921z M102.851-28.888c-2.191,0-3.975,1.784-3.975,3.978
			c0,2.191,1.783,3.973,3.975,3.973c2.192,0,3.976-1.781,3.976-3.973C106.827-27.104,105.043-28.888,102.851-28.888z M85.394-56.82
			c-2.192,0-3.976,1.784-3.976,3.976c0,2.192,1.783,3.976,3.976,3.976c2.192,0,3.975-1.783,3.975-3.976
			C89.369-55.036,87.586-56.82,85.394-56.82z M116.818-21.904c-2.192,0-3.975,1.783-3.975,3.976c0,2.191,1.783,3.976,3.975,3.976
			s3.976-1.784,3.976-3.976C120.793-20.121,119.01-21.904,116.818-21.904z M85.394-62.836c2.192,0,3.975-1.782,3.975-3.975
			c0-2.191-1.783-3.976-3.975-3.976c-2.192,0-3.976,1.784-3.976,3.976C81.419-64.618,83.202-62.836,85.394-62.836z M149.715-64.165
			v57.871c0,2.918-1.642,5.589-4.246,6.906L88.294,29.533c-1.098,0.555-2.295,0.832-3.494,0.832c-1.197,0-2.396-0.277-3.493-0.832
			L24.127,0.612c-2.604-1.317-4.247-3.988-4.247-6.906v-57.871c0-2.917,1.642-5.588,4.247-6.905l57.181-28.922
			c1.098-0.556,2.296-0.834,3.493-0.834c1.198,0,2.396,0.278,3.494,0.834l57.174,28.922
			C148.073-69.753,149.715-67.082,149.715-64.165z M31.057-65.903l53.736,25.958l53.741-25.959L84.801-93.086L31.057-65.903z
			 M27.62-6.294l53.303,26.959V-33.22L27.62-58.967V-6.294z M141.975-6.294v-52.678L88.664-33.22v53.893L141.975-6.294z"/>
	</g>
	<g id="Light-L" transform="matrix(1 0 0 1 1069.2 1556)">
		<path d="M42.957-10.945c0,2.102-1.71,3.813-3.813,3.813c-2.104,0-3.814-1.711-3.814-3.813c0-2.104,1.711-3.814,3.814-3.814
			C41.247-14.76,42.957-13.049,42.957-10.945z M84.533-76.964c2.103,0,3.813-1.711,3.813-3.814c0-2.102-1.71-3.812-3.813-3.812
			c-2.104,0-3.814,1.71-3.814,3.812C80.719-78.675,82.43-76.964,84.533-76.964z M53.109-21.743c-2.103,0-3.813,1.71-3.813,3.814
			c0,2.104,1.71,3.814,3.813,3.814c2.103,0,3.814-1.711,3.814-3.814C56.923-20.033,55.212-21.743,53.109-21.743z M67.075-28.727
			c-2.103,0-3.814,1.712-3.814,3.816c0,2.101,1.711,3.812,3.814,3.812c2.104,0,3.814-1.711,3.814-3.812
			C70.889-27.015,69.179-28.727,67.075-28.727z M129.923-14.76c-2.103,0-3.814,1.711-3.814,3.814c0,2.102,1.711,3.813,3.814,3.813
			s3.814-1.711,3.814-3.813C133.738-13.049,132.026-14.76,129.923-14.76z M101.99-28.727c-2.103,0-3.813,1.712-3.813,3.816
			c0,2.101,1.711,3.812,3.813,3.812c2.103,0,3.814-1.711,3.814-3.812C105.805-27.015,104.094-28.727,101.99-28.727z M84.533-56.659
			c-2.104,0-3.814,1.711-3.814,3.814c0,2.104,1.71,3.814,3.814,3.814c2.103,0,3.813-1.71,3.813-3.814
			C88.347-54.948,86.636-56.659,84.533-56.659z M115.957-21.743c-2.103,0-3.814,1.71-3.814,3.814c0,2.104,1.711,3.814,3.814,3.814
			s3.814-1.711,3.814-3.814C119.771-20.033,118.06-21.743,115.957-21.743z M84.533-62.997c2.103,0,3.813-1.711,3.813-3.813
			c0-2.104-1.71-3.814-3.813-3.814c-2.104,0-3.814,1.711-3.814,3.814C80.719-64.708,82.43-62.997,84.533-62.997z M147.564-64.165
			v57.871c0,2.432-1.368,4.656-3.539,5.755L86.851,28.383c-0.916,0.461-1.913,0.692-2.912,0.692c-0.998,0-1.996-0.231-2.911-0.692
			L23.848-0.539c-2.17-1.099-3.539-3.323-3.539-5.755v-57.871c0-2.431,1.368-4.657,3.539-5.754l57.181-28.922
			c0.915-0.464,1.914-0.695,2.911-0.695c0.999,0,1.996,0.231,2.912,0.695l57.174,28.922
			C146.196-68.82,147.564-66.596,147.564-64.165z M29.472-65.535l54.46,26.307l54.465-26.31L83.94-93.086L29.472-65.535z
			 M26.76-6.294L80.708,20.99v-54.614L26.76-59.684V-6.294z M141.114-6.294v-53.394L87.158-33.624v54.622L141.114-6.294z"/>
	</g>
	<g id="Thin-L" transform="matrix(1 0 0 1 773.683 1556)">
		<path d="M41.601-10.945c0,2.014-1.638,3.651-3.653,3.651c-2.014,0-3.652-1.638-3.652-3.651c0-2.016,1.638-3.652,3.652-3.652
			C39.963-14.598,41.601-12.961,41.601-10.945z M83.338-77.125c2.014,0,3.652-1.638,3.652-3.653c0-2.013-1.638-3.651-3.652-3.651
			c-2.015,0-3.653,1.639-3.653,3.651C79.685-78.763,81.323-77.125,83.338-77.125z M51.914-21.582c-2.014,0-3.652,1.64-3.652,3.653
			c0,2.016,1.638,3.653,3.652,3.653c2.015,0,3.653-1.638,3.653-3.653C55.567-19.942,53.928-21.582,51.914-21.582z M65.88-28.565
			c-2.014,0-3.653,1.64-3.653,3.655c0,2.013,1.639,3.65,3.653,3.65s3.653-1.638,3.653-3.65
			C69.533-26.926,67.894-28.565,65.88-28.565z M128.728-14.598c-2.014,0-3.653,1.637-3.653,3.652c0,2.014,1.639,3.651,3.653,3.651
			s3.653-1.638,3.653-3.651C132.381-12.961,130.742-14.598,128.728-14.598z M100.795-28.565c-2.014,0-3.652,1.64-3.652,3.655
			c0,2.013,1.638,3.65,3.652,3.65c2.014,0,3.653-1.638,3.653-3.65C104.448-26.926,102.809-28.565,100.795-28.565z M83.338-56.498
			c-2.015,0-3.653,1.639-3.653,3.653c0,2.016,1.638,3.653,3.653,3.653c2.014,0,3.652-1.638,3.652-3.653
			C86.99-54.859,85.352-56.498,83.338-56.498z M114.761-21.582c-2.015,0-3.653,1.64-3.653,3.653c0,2.016,1.638,3.653,3.653,3.653
			c2.014,0,3.653-1.638,3.653-3.653C118.415-19.942,116.776-21.582,114.761-21.582z M83.338-63.158c2.014,0,3.652-1.639,3.652-3.652
			c0-2.016-1.638-3.653-3.652-3.653c-2.015,0-3.653,1.638-3.653,3.653C79.685-64.797,81.323-63.158,83.338-63.158z M145.079-64.165
			v57.871c0,1.945-1.095,3.727-2.831,4.604L85.074,27.23c-0.732,0.371-1.531,0.555-2.329,0.555s-1.597-0.184-2.329-0.555
			L23.235-1.69c-1.737-0.877-2.832-2.658-2.832-4.604v-57.871c0-1.944,1.095-3.726,2.832-4.603l57.18-28.922
			c0.732-0.37,1.53-0.557,2.329-0.557c0.798,0,1.597,0.187,2.329,0.557l57.174,28.922C143.984-67.891,145.079-66.109,145.079-64.165
			z M27.552-65.17l55.185,26.656l55.189-26.659L82.745-93.086L27.552-65.17z M25.564-6.294l54.594,27.611v-55.346L25.564-60.4
			V-6.294z M139.919-6.294v-54.109L85.318-34.028v55.354L139.919-6.294z"/>
	</g>
	<g id="Ultralight-L" transform="matrix(1 0 0 1 477.607 1556)">
		<path d="M40.87-10.945c0,1.961-1.595,3.556-3.556,3.556c-1.96,0-3.556-1.595-3.556-3.556c0-1.962,1.595-3.557,3.556-3.557
			C39.275-14.502,40.87-12.907,40.87-10.945z M82.704-77.222c1.96,0,3.556-1.595,3.556-3.557c0-1.96-1.595-3.555-3.556-3.555
			c-1.961,0-3.556,1.595-3.556,3.555C79.148-78.816,80.743-77.222,82.704-77.222z M51.28-21.484c-1.96,0-3.555,1.596-3.555,3.556
			s1.595,3.555,3.555,3.555c1.961,0,3.556-1.595,3.556-3.555S53.241-21.484,51.28-21.484z M65.246-28.468
			c-1.961,0-3.556,1.595-3.556,3.558c0,1.96,1.595,3.555,3.556,3.555s3.556-1.595,3.556-3.555
			C68.802-26.873,67.207-28.468,65.246-28.468z M128.094-14.502c-1.961,0-3.556,1.595-3.556,3.557c0,1.961,1.595,3.556,3.556,3.556
			s3.556-1.595,3.556-3.556C131.65-12.907,130.055-14.502,128.094-14.502z M100.161-28.468c-1.96,0-3.555,1.595-3.555,3.558
			c0,1.96,1.595,3.555,3.555,3.555s3.556-1.595,3.556-3.555C103.717-26.873,102.122-28.468,100.161-28.468z M82.704-56.4
			c-1.961,0-3.556,1.596-3.556,3.556c0,1.962,1.595,3.557,3.556,3.557c1.96,0,3.556-1.595,3.556-3.557
			C86.26-54.805,84.664-56.4,82.704-56.4z M114.127-21.484c-1.961,0-3.556,1.596-3.556,3.556s1.595,3.555,3.556,3.555
			s3.556-1.595,3.556-3.555S116.088-21.484,114.127-21.484z M82.704-63.255c1.96,0,3.556-1.595,3.556-3.556
			s-1.595-3.556-3.556-3.556c-1.961,0-3.556,1.595-3.556,3.556S80.743-63.255,82.704-63.255z M143.155-64.165v57.871
			c0,1.459-0.821,2.794-2.124,3.452L83.857,26.079c-0.549,0.277-1.148,0.416-1.747,0.416c-0.599,0-1.198-0.139-1.747-0.416
			L23.184-2.842C21.881-3.5,21.06-4.835,21.06-6.294v-57.871c0-1.458,0.821-2.794,2.124-3.452l57.18-28.922
			c0.549-0.278,1.148-0.417,1.747-0.417c0.599,0,1.198,0.139,1.747,0.418l57.174,28.922
			C142.334-66.959,143.155-65.623,143.155-64.165z M26.194-64.804l55.909,27.006l55.914-27.007L82.111-93.086L26.194-64.804z
			 M24.93-6.294l55.238,27.937v-56.077L24.93-61.116V-6.294z M139.285-6.294V-61.12L84.039-34.435V21.65L139.285-6.294z"/>
	</g>
	<g id="Black-M" transform="matrix(1 0 0 1 2865.58 1126)">
		<path d="M38.79-16.355c0,2.044-1.663,3.706-3.707,3.706s-3.706-1.662-3.706-3.706s1.662-3.707,3.706-3.707
			S38.79-18.399,38.79-16.355z M70.27-66.783c2.044,0,3.706-1.663,3.706-3.707c0-2.043-1.662-3.706-3.706-3.706
			s-3.706,1.663-3.706,3.706C66.563-68.445,68.226-66.783,70.27-66.783z M45.909-25.476c-2.043,0-3.705,1.663-3.705,3.707
			s1.662,3.706,3.705,3.706c2.044,0,3.707-1.662,3.707-3.706S47.953-25.476,45.909-25.476z M56.736-30.889
			c-2.044,0-3.706,1.663-3.706,3.708c0,2.044,1.662,3.706,3.706,3.706s3.706-1.662,3.706-3.706
			C60.442-29.226,58.78-30.889,56.736-30.889z M105.456-20.063c-2.044,0-3.707,1.663-3.707,3.707s1.663,3.706,3.707,3.706
			s3.707-1.662,3.707-3.706S107.5-20.063,105.456-20.063z M83.802-30.889c-2.043,0-3.705,1.663-3.705,3.708
			c0,2.044,1.662,3.706,3.705,3.706c2.044,0,3.707-1.662,3.707-3.706C87.509-29.226,85.846-30.889,83.802-30.889z M70.27-52.542
			c-2.044,0-3.706,1.663-3.706,3.708c0,2.044,1.662,3.707,3.706,3.707s3.706-1.663,3.706-3.707
			C73.976-50.879,72.313-52.542,70.27-52.542z M94.629-25.476c-2.044,0-3.706,1.663-3.706,3.707s1.662,3.706,3.706,3.706
			s3.707-1.662,3.707-3.706S96.673-25.476,94.629-25.476z M70.27-55.956c2.044,0,3.706-1.663,3.706-3.707s-1.662-3.707-3.706-3.707
			s-3.706,1.663-3.706,3.707S68.226-55.956,70.27-55.956z M125.131-57.61v44.86c0,4.148-2.334,7.943-6.035,9.815L74.774,19.484
			c-1.561,0.79-3.263,1.185-4.965,1.185s-3.404-0.395-4.965-1.184L20.519-2.934c-3.701-1.873-6.035-5.668-6.035-9.816v-44.86
			c0-4.148,2.334-7.943,6.035-9.816l44.326-22.42c1.561-0.79,3.263-1.184,4.965-1.184s3.404,0.395,4.965,1.185l44.321,22.42
			C122.798-65.554,125.131-61.758,125.131-57.61z M30.956-60.378l38.848,18.766l38.853-18.767L69.81-80.03L30.956-60.378z
			 M25.483-12.75l38.82,19.634v-38.937l-38.82-18.752V-12.75z M114.131-12.75v-38.058L75.304-32.053V6.89L114.131-12.75z"/>
	</g>
	<g id="Heavy-M" transform="matrix(1 0 0 1 2569.23 1126)">
		<path d="M36.317-16.355c0,1.975-1.606,3.581-3.582,3.581c-1.975,0-3.581-1.606-3.581-3.581c0-1.976,1.606-3.582,3.581-3.582
			C34.71-19.938,36.317-18.331,36.317-16.355z M67.921-66.908c1.975,0,3.581-1.606,3.581-3.582c0-1.975-1.606-3.581-3.581-3.581
			s-3.581,1.606-3.581,3.581C64.34-68.514,65.947-66.908,67.921-66.908z M43.561-25.351c-1.974,0-3.58,1.606-3.58,3.582
			c0,1.975,1.606,3.581,3.58,3.581c1.976,0,3.582-1.606,3.582-3.581C47.143-23.744,45.537-25.351,43.561-25.351z M54.388-30.764
			c-1.975,0-3.581,1.607-3.581,3.583c0,1.975,1.606,3.581,3.581,3.581s3.581-1.606,3.581-3.581
			C57.969-29.157,56.363-30.764,54.388-30.764z M103.108-19.938c-1.976,0-3.582,1.606-3.582,3.582c0,1.975,1.606,3.581,3.582,3.581
			s3.582-1.606,3.582-3.581C106.69-18.331,105.083-19.938,103.108-19.938z M81.454-30.764c-1.974,0-3.58,1.607-3.58,3.583
			c0,1.975,1.606,3.581,3.58,3.581c1.976,0,3.582-1.606,3.582-3.581C85.036-29.157,83.429-30.764,81.454-30.764z M67.921-52.417
			c-1.975,0-3.581,1.607-3.581,3.583c0,1.975,1.606,3.582,3.581,3.582s3.581-1.606,3.581-3.582
			C71.502-50.811,69.896-52.417,67.921-52.417z M92.281-25.351c-1.975,0-3.581,1.606-3.581,3.582c0,1.975,1.606,3.581,3.581,3.581
			c1.976,0,3.582-1.606,3.582-3.581C95.863-23.744,94.256-25.351,92.281-25.351z M67.921-56.081c1.975,0,3.581-1.606,3.581-3.582
			s-1.606-3.582-3.581-3.582s-3.581,1.606-3.581,3.582S65.947-56.081,67.921-56.081z M121.783-57.61v44.86
			c0,3.771-2.121,7.222-5.486,8.924L71.975,18.593c-1.419,0.718-2.966,1.076-4.514,1.076c-1.547,0-3.095-0.358-4.514-1.076
			L18.622-3.826c-3.365-1.702-5.486-5.152-5.486-8.924v-44.86c0-3.771,2.121-7.221,5.486-8.923l44.326-22.42
			c1.419-0.718,2.967-1.077,4.514-1.077s3.095,0.359,4.514,1.077l44.321,22.42C119.662-64.832,121.783-61.381,121.783-57.61z
			 M28.046-60.094l39.409,19.037l39.414-19.038L67.461-80.03L28.046-60.094z M23.135-12.75l39.32,19.887v-39.504l-39.32-18.994
			V-12.75z M111.783-12.75v-38.613L72.456-32.367v39.51L111.783-12.75z"/>
	</g>
	<g id="Bold-M" transform="matrix(1 0 0 1 2272.94 1126)">
		<path d="M35.775-16.355c0,1.905-1.551,3.456-3.457,3.456c-1.905,0-3.456-1.551-3.456-3.456c0-1.906,1.551-3.457,3.456-3.457
			C34.224-19.813,35.775-18.262,35.775-16.355z M67.504-67.033c1.905,0,3.456-1.551,3.456-3.457s-1.551-3.456-3.456-3.456
			s-3.456,1.55-3.456,3.456S65.599-67.033,67.504-67.033z M43.144-25.226c-1.905,0-3.455,1.551-3.455,3.457
			c0,1.905,1.55,3.456,3.455,3.456c1.906,0,3.457-1.551,3.457-3.456C46.601-23.675,45.05-25.226,43.144-25.226z M53.971-30.639
			c-1.905,0-3.456,1.551-3.456,3.458c0,1.905,1.551,3.456,3.456,3.456s3.456-1.551,3.456-3.456
			C57.427-29.088,55.876-30.639,53.971-30.639z M102.691-19.813c-1.906,0-3.457,1.551-3.457,3.457c0,1.905,1.551,3.456,3.457,3.456
			s3.457-1.551,3.457-3.456C106.148-18.262,104.597-19.813,102.691-19.813z M81.037-30.639c-1.905,0-3.455,1.551-3.455,3.458
			c0,1.905,1.55,3.456,3.455,3.456c1.906,0,3.457-1.551,3.457-3.456C84.494-29.088,82.943-30.639,81.037-30.639z M67.504-52.292
			c-1.905,0-3.456,1.551-3.456,3.458c0,1.906,1.551,3.457,3.456,3.457s3.456-1.551,3.456-3.457
			C70.96-50.741,69.41-52.292,67.504-52.292z M91.864-25.226c-1.905,0-3.456,1.551-3.456,3.457c0,1.905,1.551,3.456,3.456,3.456
			c1.906,0,3.457-1.551,3.457-3.456C95.321-23.675,93.77-25.226,91.864-25.226z M67.504-56.206c1.905,0,3.456-1.551,3.456-3.457
			s-1.551-3.457-3.456-3.457s-3.456,1.551-3.456,3.457S65.599-56.206,67.504-56.206z M120.366-57.61v44.86
			c0,3.394-1.909,6.499-4.938,8.031L71.107,17.7c-1.277,0.646-2.67,0.969-4.063,0.969s-2.785-0.323-4.063-0.969L18.656-4.719
			c-3.028-1.532-4.938-4.637-4.938-8.031v-44.86c0-3.394,1.909-6.5,4.938-8.031l44.326-22.42c1.277-0.646,2.67-0.969,4.063-0.969
			s2.785,0.323,4.063,0.969l44.321,22.42C118.457-64.109,120.366-61.004,120.366-57.61z M27.068-59.811l39.971,19.308l39.976-19.309
			L67.044-80.03L27.068-59.811z M22.718-12.75l39.82,20.14v-40.071l-39.82-19.235V-12.75z M111.366-12.75v-39.168L71.539-32.681
			V7.396L111.366-12.75z"/>
	</g>
	<g id="Semibold-M" transform="matrix(1 0 0 1 1976.52 1126)">
		<path d="M35.355-16.355c0,1.837-1.495,3.331-3.332,3.331s-3.331-1.494-3.331-3.331s1.494-3.332,3.331-3.332
			S35.355-18.192,35.355-16.355z M67.209-67.158c1.837,0,3.331-1.495,3.331-3.332s-1.494-3.331-3.331-3.331
			s-3.331,1.494-3.331,3.331S65.373-67.158,67.209-67.158z M42.849-25.101c-1.836,0-3.33,1.495-3.33,3.332s1.494,3.331,3.33,3.331
			c1.837,0,3.332-1.494,3.332-3.331S44.686-25.101,42.849-25.101z M53.676-30.514c-1.837,0-3.331,1.495-3.331,3.333
			c0,1.837,1.494,3.331,3.331,3.331s3.331-1.494,3.331-3.331C57.007-29.019,55.513-30.514,53.676-30.514z M102.396-19.688
			c-1.837,0-3.332,1.495-3.332,3.332s1.495,3.331,3.332,3.331s3.332-1.494,3.332-3.331S104.233-19.688,102.396-19.688z
			 M80.742-30.514c-1.836,0-3.33,1.495-3.33,3.333c0,1.837,1.494,3.331,3.33,3.331c1.837,0,3.332-1.494,3.332-3.331
			C84.074-29.019,82.579-30.514,80.742-30.514z M67.209-52.167c-1.837,0-3.331,1.495-3.331,3.333c0,1.837,1.494,3.332,3.331,3.332
			s3.331-1.495,3.331-3.332C70.541-50.672,69.046-52.167,67.209-52.167z M91.569-25.101c-1.837,0-3.331,1.495-3.331,3.332
			s1.494,3.331,3.331,3.331s3.332-1.494,3.332-3.331S93.406-25.101,91.569-25.101z M67.209-56.331c1.837,0,3.331-1.495,3.331-3.332
			s-1.494-3.332-3.331-3.332s-3.331,1.495-3.331,3.332S65.373-56.331,67.209-56.331z M119.071-57.61v44.86
			c0,3.017-1.697,5.777-4.389,7.139L70.361,16.808c-1.136,0.574-2.373,0.861-3.611,0.861c-1.237,0-2.476-0.287-3.61-0.861
			L18.813-5.611c-2.692-1.361-4.39-4.122-4.39-7.139v-44.86c0-3.017,1.697-5.777,4.39-7.139l44.326-22.42
			c1.135-0.574,2.372-0.861,3.61-0.861s2.476,0.287,3.611,0.861l44.321,22.42C117.374-63.387,119.071-60.627,119.071-57.61z
			 M26.211-59.526l40.532,19.579l40.537-19.581L66.75-80.03L26.211-59.526z M22.423-12.75l40.32,20.393v-40.638l-40.32-19.477
			V-12.75z M111.071-12.75v-39.724L70.744-32.994V7.648L111.071-12.75z"/>
	</g>
	<g id="Medium-M" transform="matrix(1 0 0 1 1680.03 1126)">
		<path d="M35.015-16.355c0,1.768-1.438,3.206-3.207,3.206c-1.768,0-3.206-1.438-3.206-3.206c0-1.769,1.438-3.207,3.206-3.207
			C33.576-19.563,35.015-18.124,35.015-16.355z M66.994-67.283c1.768,0,3.206-1.438,3.206-3.207c0-1.768-1.438-3.206-3.206-3.206
			s-3.206,1.438-3.206,3.206C63.788-68.721,65.227-67.283,66.994-67.283z M42.634-24.976c-1.768,0-3.205,1.438-3.205,3.207
			c0,1.768,1.438,3.206,3.205,3.206c1.769,0,3.207-1.438,3.207-3.206C45.841-23.537,44.403-24.976,42.634-24.976z M53.461-30.389
			c-1.768,0-3.206,1.439-3.206,3.208c0,1.768,1.438,3.206,3.206,3.206s3.206-1.438,3.206-3.206
			C56.667-28.95,55.229-30.389,53.461-30.389z M102.181-19.563c-1.769,0-3.207,1.438-3.207,3.207c0,1.768,1.438,3.206,3.207,3.206
			s3.207-1.438,3.207-3.206C105.388-18.124,103.949-19.563,102.181-19.563z M80.527-30.389c-1.768,0-3.205,1.439-3.205,3.208
			c0,1.768,1.438,3.206,3.205,3.206c1.769,0,3.207-1.438,3.207-3.206C83.734-28.95,82.295-30.389,80.527-30.389z M66.994-52.042
			c-1.768,0-3.206,1.439-3.206,3.208c0,1.768,1.438,3.207,3.206,3.207s3.206-1.438,3.206-3.207
			C70.2-50.604,68.762-52.042,66.994-52.042z M91.354-24.976c-1.768,0-3.206,1.438-3.206,3.207c0,1.768,1.438,3.206,3.206,3.206
			c1.769,0,3.207-1.438,3.207-3.206C94.561-23.537,93.122-24.976,91.354-24.976z M66.994-56.456c1.768,0,3.206-1.438,3.206-3.207
			s-1.438-3.207-3.206-3.207s-3.206,1.438-3.206,3.207S65.227-56.456,66.994-56.456z M117.856-57.61v44.86
			c0,2.64-1.485,5.055-3.841,6.246L69.694,15.915c-0.993,0.503-2.076,0.754-3.159,0.754s-2.166-0.251-3.159-0.754L19.049-6.504
			c-2.355-1.191-3.841-3.606-3.841-6.246v-44.86c0-2.64,1.485-5.055,3.841-6.247l44.326-22.42c0.993-0.502,2.076-0.753,3.159-0.753
			s2.166,0.251,3.16,0.754l44.32,22.42C116.37-62.665,117.856-60.25,117.856-57.61z M25.435-59.242l41.094,19.851l41.099-19.852
			L66.534-80.03L25.435-59.242z M22.208-12.75l40.82,20.646v-41.204l-40.82-19.718V-12.75z M110.856-12.75v-40.279L70.029-33.309
			v41.21L110.856-12.75z"/>
	</g>
	<g id="Regular-M" transform="matrix(1 0 0 1 1383.58 1126)">
		<path d="M34.586-16.355c0,1.699-1.382,3.081-3.082,3.081s-3.082-1.382-3.082-3.081s1.382-3.082,3.082-3.082
			S34.586-18.055,34.586-16.355z M66.69-67.408c1.699,0,3.082-1.382,3.082-3.082c0-1.699-1.382-3.081-3.082-3.081
			s-3.082,1.382-3.082,3.081C63.609-68.79,64.991-67.408,66.69-67.408z M42.33-24.851c-1.699,0-3.081,1.383-3.081,3.082
			s1.382,3.081,3.081,3.081c1.699,0,3.082-1.382,3.082-3.081S44.029-24.851,42.33-24.851z M53.157-30.264
			c-1.699,0-3.082,1.383-3.082,3.083c0,1.699,1.382,3.081,3.082,3.081s3.082-1.382,3.082-3.081
			C56.238-28.881,54.856-30.264,53.157-30.264z M101.876-19.438c-1.699,0-3.082,1.383-3.082,3.082s1.382,3.081,3.082,3.081
			s3.082-1.382,3.082-3.081S103.575-19.438,101.876-19.438z M80.223-30.264c-1.699,0-3.081,1.383-3.081,3.083
			c0,1.699,1.382,3.081,3.081,3.081c1.699,0,3.082-1.382,3.082-3.081C83.305-28.881,81.922-30.264,80.223-30.264z M66.69-51.917
			c-1.699,0-3.082,1.383-3.082,3.083c0,1.699,1.382,3.082,3.082,3.082s3.082-1.382,3.082-3.082
			C69.772-50.535,68.389-51.917,66.69-51.917z M91.049-24.851c-1.699,0-3.082,1.383-3.082,3.082s1.382,3.081,3.082,3.081
			s3.082-1.382,3.082-3.081S92.749-24.851,91.049-24.851z M66.69-56.581c1.699,0,3.082-1.382,3.082-3.082s-1.382-3.082-3.082-3.082
			s-3.082,1.382-3.082,3.082S64.991-56.581,66.69-56.581z M116.551-57.61v44.86c0,2.263-1.273,4.333-3.292,5.354L68.938,15.023
			c-0.851,0.431-1.779,0.646-2.708,0.646c-0.928,0-1.857-0.216-2.708-0.646L19.196-7.396c-2.019-1.021-3.292-3.092-3.292-5.354
			v-44.86c0-2.263,1.273-4.333,3.292-5.354l44.326-22.42c0.851-0.431,1.78-0.646,2.708-0.646s1.857,0.215,2.708,0.646l44.321,22.42
			C115.278-61.943,116.551-59.873,116.551-57.61z M24.568-58.958l41.656,20.122l41.66-20.123L66.23-80.03L24.568-58.958z
			 M21.904-12.75L63.225,8.148v-41.771L21.904-53.582V-12.75z M110.551-12.75v-40.835L69.225-33.623V8.154L110.551-12.75z"/>
	</g>
	<g id="Light-M" transform="matrix(1 0 0 1 1087.68 1126)">
		<path d="M33.69-16.355c0,1.63-1.326,2.956-2.957,2.956s-2.957-1.326-2.957-2.956c0-1.631,1.326-2.957,2.957-2.957
			S33.69-17.986,33.69-16.355z M65.919-67.533c1.63,0,2.957-1.326,2.957-2.957c0-1.63-1.326-2.956-2.957-2.956
			s-2.957,1.326-2.957,2.956C62.963-68.859,64.289-67.533,65.919-67.533z M41.559-24.726c-1.63,0-2.956,1.326-2.956,2.957
			c0,1.63,1.326,2.956,2.956,2.956c1.63,0,2.957-1.326,2.957-2.956C44.516-23.399,43.19-24.726,41.559-24.726z M52.386-30.139
			c-1.63,0-2.957,1.327-2.957,2.958c0,1.63,1.326,2.956,2.957,2.956s2.957-1.326,2.957-2.956
			C55.342-28.813,54.016-30.139,52.386-30.139z M101.105-19.313c-1.63,0-2.957,1.326-2.957,2.957c0,1.63,1.326,2.956,2.957,2.956
			s2.957-1.326,2.957-2.956C104.062-17.986,102.735-19.313,101.105-19.313z M79.452-30.139c-1.63,0-2.956,1.327-2.956,2.958
			c0,1.63,1.326,2.956,2.956,2.956c1.63,0,2.957-1.326,2.957-2.956C82.409-28.813,81.082-30.139,79.452-30.139z M65.919-51.792
			c-1.63,0-2.957,1.327-2.957,2.958c0,1.63,1.326,2.957,2.957,2.957s2.957-1.326,2.957-2.957
			C68.876-50.466,67.549-51.792,65.919-51.792z M90.278-24.726c-1.63,0-2.957,1.326-2.957,2.957c0,1.63,1.326,2.956,2.957,2.956
			s2.957-1.326,2.957-2.956C93.235-23.399,91.909-24.726,90.278-24.726z M65.919-56.706c1.63,0,2.957-1.326,2.957-2.957
			s-1.326-2.957-2.957-2.957s-2.957,1.326-2.957,2.957S64.289-56.706,65.919-56.706z M114.78-57.61v44.86
			c0,1.886-1.061,3.61-2.743,4.462L67.716,14.131c-0.709,0.358-1.483,0.538-2.257,0.538c-0.773,0-1.547-0.18-2.257-0.538
			L18.876-8.288c-1.683-0.852-2.743-2.576-2.743-4.462v-44.86c0-1.886,1.061-3.611,2.743-4.462l44.326-22.42
			c0.709-0.359,1.483-0.538,2.257-0.538c0.774,0,1.547,0.18,2.257,0.539l44.321,22.42C113.72-61.221,114.78-59.496,114.78-57.61z
			 M23.236-58.674l42.218,20.393l42.221-20.394L65.459-80.03L23.236-58.674z M21.133-12.75L62.954,8.401v-42.337L21.133-54.137
			V-12.75z M109.78-12.75v-41.39L67.954-33.936V8.407L109.78-12.75z"/>
	</g>
	<g id="Thin-M" transform="matrix(1 0 0 1 792.042 1126)">
		<path d="M32.49-16.355c0,1.562-1.27,2.831-2.832,2.831s-2.832-1.27-2.832-2.831s1.27-2.832,2.832-2.832S32.49-17.917,32.49-16.355
			z M64.845-67.658c1.562,0,2.832-1.27,2.832-2.832c0-1.561-1.27-2.831-2.832-2.831s-2.832,1.27-2.832,2.831
			C62.013-68.928,63.283-67.658,64.845-67.658z M40.485-24.601c-1.561,0-2.831,1.271-2.831,2.832s1.27,2.831,2.831,2.831
			c1.562,0,2.832-1.27,2.832-2.831S42.046-24.601,40.485-24.601z M51.312-30.014c-1.562,0-2.832,1.271-2.832,2.833
			c0,1.561,1.27,2.831,2.832,2.831s2.832-1.27,2.832-2.831C54.143-28.744,52.873-30.014,51.312-30.014z M100.031-19.188
			c-1.562,0-2.832,1.271-2.832,2.832s1.27,2.831,2.832,2.831s2.832-1.27,2.832-2.831S101.592-19.188,100.031-19.188z M78.377-30.014
			c-1.561,0-2.831,1.271-2.831,2.833c0,1.561,1.27,2.831,2.831,2.831c1.562,0,2.832-1.27,2.832-2.831
			C81.209-28.744,79.939-30.014,78.377-30.014z M64.845-51.667c-1.562,0-2.832,1.271-2.832,2.833c0,1.562,1.27,2.832,2.832,2.832
			s2.832-1.27,2.832-2.832C67.676-50.397,66.406-51.667,64.845-51.667z M89.204-24.601c-1.562,0-2.832,1.271-2.832,2.832
			s1.27,2.831,2.832,2.831s2.832-1.27,2.832-2.831S90.766-24.601,89.204-24.601z M64.845-56.831c1.562,0,2.832-1.27,2.832-2.832
			s-1.27-2.832-2.832-2.832s-2.832,1.27-2.832,2.832S63.283-56.831,64.845-56.831z M112.706-57.61v44.86
			c0,1.509-0.849,2.889-2.194,3.569L66.19,13.238c-0.568,0.287-1.187,0.431-1.806,0.431c-0.619,0-1.238-0.144-1.805-0.431
			L18.253-9.181c-1.346-0.681-2.195-2.061-2.195-3.569v-44.86c0-1.508,0.849-2.889,2.195-3.569L62.58-83.6
			c0.567-0.287,1.186-0.431,1.805-0.431s1.238,0.144,1.806,0.431l44.321,22.42C111.857-60.499,112.706-59.119,112.706-57.61z
			 M21.6-58.39l42.779,20.664l42.782-20.666L64.385-80.03L21.6-58.39z M20.059-12.75L62.379,8.654V-34.25L20.059-54.692V-12.75z
			 M108.706-12.75v-41.945L66.379-34.25V8.66L108.706-12.75z"/>
	</g>
	<g id="Ultralight-M" transform="matrix(1 0 0 1 495.893 1126)">
		<path d="M31.854-16.355c0,1.52-1.236,2.756-2.756,2.756s-2.756-1.236-2.756-2.756c0-1.521,1.236-2.757,2.756-2.757
			S31.854-17.876,31.854-16.355z M64.284-67.733c1.52,0,2.756-1.236,2.756-2.756c0-1.52-1.236-2.756-2.756-2.756
			s-2.756,1.236-2.756,2.756C61.527-68.969,62.764-67.733,64.284-67.733z M39.924-24.525c-1.52,0-2.756,1.236-2.756,2.757
			c0,1.52,1.236,2.756,2.756,2.756c1.52,0,2.756-1.236,2.756-2.756C42.68-23.289,41.444-24.525,39.924-24.525z M50.751-29.939
			c-1.52,0-2.756,1.237-2.756,2.757c0,1.52,1.236,2.756,2.756,2.756s2.756-1.236,2.756-2.756
			C53.507-28.702,52.271-29.939,50.751-29.939z M99.47-19.112c-1.52,0-2.756,1.236-2.756,2.757c0,1.52,1.236,2.756,2.756,2.756
			s2.757-1.236,2.757-2.756C102.227-17.876,100.99-19.112,99.47-19.112z M77.816-29.939c-1.52,0-2.756,1.237-2.756,2.757
			c0,1.52,1.236,2.756,2.756,2.756c1.52,0,2.757-1.236,2.757-2.756C80.573-28.702,79.336-29.939,77.816-29.939z M64.284-51.592
			c-1.52,0-2.756,1.237-2.756,2.757c0,1.52,1.236,2.756,2.756,2.756s2.756-1.236,2.756-2.756
			C67.04-50.355,65.804-51.592,64.284-51.592z M88.643-24.525c-1.52,0-2.756,1.236-2.756,2.757c0,1.52,1.236,2.756,2.756,2.756
			s2.757-1.236,2.757-2.756C91.4-23.289,90.163-24.525,88.643-24.525z M64.284-56.906c1.52,0,2.756-1.236,2.756-2.756
			s-1.236-2.756-2.756-2.756s-2.756,1.236-2.756,2.756S62.764-56.906,64.284-56.906z M111.145-57.61v44.86
			c0,1.131-0.636,2.166-1.646,2.677L65.178,12.346c-0.426,0.216-0.89,0.323-1.354,0.323s-0.928-0.107-1.354-0.323L18.144-10.073
			c-1.009-0.511-1.646-1.546-1.646-2.677v-44.86c0-1.131,0.636-2.167,1.646-2.677l44.326-22.42c0.426-0.215,0.89-0.323,1.354-0.323
			s0.929,0.107,1.354,0.323l44.321,22.42C110.509-59.777,111.145-58.742,111.145-57.61z M20.478-58.106l43.341,20.935l43.344-20.937
			L63.824-80.03L20.478-58.106z M19.498-12.75L62.318,8.907v-43.471L19.498-55.248V-12.75z M108.145-12.75v-42.5L65.318-34.563
			V8.913L108.145-12.75z"/>
	</g>
	<g id="Black-S" transform="matrix(1 0 0 1 2880.28 696)">
		<path d="M30.821-20.489c0,1.6-1.302,2.902-2.902,2.902s-2.901-1.302-2.901-2.902c0-1.601,1.301-2.903,2.901-2.903
			S30.821-22.09,30.821-20.489z M55.469-59.974c1.601,0,2.902-1.302,2.902-2.902c0-1.6-1.302-2.902-2.902-2.902
			s-2.901,1.302-2.901,2.902C52.568-61.275,53.868-59.974,55.469-59.974z M36.395-27.63c-1.6,0-2.9,1.302-2.9,2.902
			c0,1.601,1.301,2.902,2.9,2.902c1.601,0,2.903-1.301,2.903-2.902C39.298-26.328,37.995-27.63,36.395-27.63z M44.872-31.869
			c-1.6,0-2.901,1.302-2.901,2.903s1.302,2.902,2.901,2.902c1.601,0,2.902-1.301,2.902-2.902S46.473-31.869,44.872-31.869z
			 M83.021-23.392c-1.601,0-2.903,1.302-2.903,2.903c0,1.6,1.303,2.902,2.903,2.902c1.6,0,2.902-1.302,2.902-2.902
			C85.923-22.09,84.62-23.392,83.021-23.392z M66.065-31.869c-1.6,0-2.901,1.302-2.901,2.903s1.302,2.902,2.901,2.902
			c1.601,0,2.903-1.301,2.903-2.902S67.665-31.869,66.065-31.869z M55.469-48.824c-1.601,0-2.901,1.302-2.901,2.903
			s1.301,2.902,2.901,2.902s2.902-1.302,2.902-2.902S57.07-48.824,55.469-48.824z M74.542-27.63c-1.6,0-2.901,1.302-2.901,2.902
			c0,1.601,1.302,2.902,2.901,2.902c1.601,0,2.902-1.301,2.902-2.902C77.445-26.328,76.143-27.63,74.542-27.63z M55.469-51.496
			c1.601,0,2.902-1.302,2.902-2.902s-1.302-2.902-2.902-2.902s-2.901,1.302-2.901,2.902S53.868-51.496,55.469-51.496z
			 M98.425-52.792v35.125c0,3.249-1.827,6.22-4.725,7.686L58.996,7.573C57.775,8.192,56.442,8.5,55.109,8.5
			c-1.332,0-2.665-0.309-3.887-0.927L16.514-9.98c-2.897-1.467-4.726-4.438-4.726-7.687v-35.125c0-3.248,1.828-6.22,4.726-7.686
			l34.708-17.555c1.222-0.618,2.555-0.927,3.887-0.927c1.333,0,2.666,0.309,3.888,0.927L93.7-60.478
			C96.599-59.012,98.425-56.04,98.425-52.792z M24.687-54.959l30.418,14.694L85.526-54.96L55.109-70.347L24.687-54.959z
			 M20.402-17.667L50.798-2.293v-30.488L20.402-47.463V-17.667z M89.813-17.667v-29.799L59.411-32.781v30.492L89.813-17.667z"/>
	</g>
	<g id="Heavy-S" transform="matrix(1 0 0 1 2583.76 696)">
		<path d="M28.545-20.489c0,1.546-1.258,2.804-2.805,2.804c-1.546,0-2.804-1.258-2.804-2.804c0-1.547,1.258-2.805,2.804-2.805
			C27.287-23.294,28.545-22.036,28.545-20.489z M53.291-60.072c1.547,0,2.805-1.258,2.805-2.804s-1.258-2.804-2.805-2.804
			c-1.546,0-2.804,1.258-2.804,2.804S51.745-60.072,53.291-60.072z M34.217-27.533c-1.545,0-2.803,1.258-2.803,2.805
			c0,1.546,1.258,2.804,2.803,2.804c1.547,0,2.805-1.258,2.805-2.804C37.021-26.275,35.763-27.533,34.217-27.533z M42.694-31.771
			c-1.546,0-2.804,1.258-2.804,2.805c0,1.546,1.258,2.804,2.804,2.804s2.805-1.258,2.805-2.804
			C45.499-30.513,44.24-31.771,42.694-31.771z M80.842-23.294c-1.547,0-2.805,1.258-2.805,2.805c0,1.546,1.258,2.804,2.805,2.804
			s2.805-1.258,2.805-2.804C83.646-22.036,82.388-23.294,80.842-23.294z M63.886-31.771c-1.545,0-2.803,1.258-2.803,2.805
			c0,1.546,1.258,2.804,2.803,2.804c1.547,0,2.805-1.258,2.805-2.804C66.691-30.513,65.433-31.771,63.886-31.771z M53.291-48.726
			c-1.546,0-2.804,1.258-2.804,2.805s1.258,2.805,2.804,2.805c1.547,0,2.805-1.258,2.805-2.805S54.838-48.726,53.291-48.726z
			 M72.364-27.533c-1.546,0-2.804,1.258-2.804,2.805c0,1.546,1.258,2.804,2.804,2.804c1.547,0,2.805-1.258,2.805-2.804
			C75.169-26.275,73.911-27.533,72.364-27.533z M53.291-51.594c1.547,0,2.805-1.258,2.805-2.804s-1.258-2.804-2.805-2.804
			c-1.546,0-2.804,1.258-2.804,2.804S51.745-51.594,53.291-51.594z M95.465-52.792v35.125c0,2.953-1.661,5.655-4.296,6.988
			L56.465,6.875c-1.11,0.562-2.322,0.843-3.534,0.843c-1.211,0-2.423-0.281-3.534-0.843L14.689-10.679
			c-2.635-1.333-4.296-4.035-4.296-6.988v-35.125c0-2.953,1.661-5.654,4.296-6.987l34.707-17.555
			c1.111-0.562,2.323-0.843,3.534-0.843c1.212,0,2.424,0.281,3.534,0.843l34.704,17.555C93.803-58.446,95.465-55.745,95.465-52.792z
			 M22.069-54.737l30.857,14.906l30.86-14.907L52.93-70.347L22.069-54.737z M18.223-17.667L49.011-2.095v-30.931L18.223-47.898
			V-17.667z M87.635-17.667V-47.9L56.842-33.026V-2.09L87.635-17.667z"/>
	</g>
	<g id="Bold-S" transform="matrix(1 0 0 1 2287.27 696)">
		<path d="M28.23-20.489c0,1.492-1.215,2.706-2.707,2.706s-2.706-1.214-2.706-2.706c0-1.493,1.214-2.707,2.706-2.707
			S28.23-21.982,28.23-20.489z M53.074-60.169c1.492,0,2.707-1.214,2.707-2.707s-1.215-2.706-2.707-2.706s-2.706,1.214-2.706,2.706
			S51.582-60.169,53.074-60.169z M34-27.435c-1.491,0-2.705,1.214-2.705,2.707c0,1.492,1.214,2.706,2.705,2.706
			c1.493,0,2.707-1.214,2.707-2.706C36.707-26.221,35.493-27.435,34-27.435z M42.478-31.673c-1.492,0-2.707,1.214-2.707,2.707
			c0,1.492,1.215,2.706,2.707,2.706c1.491,0,2.705-1.214,2.705-2.706C45.183-30.459,43.969-31.673,42.478-31.673z M80.625-23.196
			c-1.492,0-2.706,1.214-2.706,2.707c0,1.492,1.214,2.706,2.706,2.706c1.493,0,2.707-1.214,2.707-2.706
			C83.332-21.982,82.118-23.196,80.625-23.196z M63.669-31.673c-1.492,0-2.705,1.214-2.705,2.707c0,1.492,1.213,2.706,2.705,2.706
			c1.493,0,2.707-1.214,2.707-2.706C66.376-30.459,65.163-31.673,63.669-31.673z M53.074-48.628c-1.492,0-2.706,1.214-2.706,2.707
			c0,1.492,1.214,2.707,2.706,2.707s2.707-1.214,2.707-2.707C55.781-47.414,54.566-48.628,53.074-48.628z M72.148-27.435
			c-1.492,0-2.707,1.214-2.707,2.707c0,1.492,1.215,2.706,2.707,2.706s2.706-1.214,2.706-2.706
			C74.854-26.221,73.64-27.435,72.148-27.435z M53.074-51.692c1.492,0,2.707-1.214,2.707-2.707s-1.215-2.707-2.707-2.707
			s-2.706,1.214-2.706,2.707S51.582-51.692,53.074-51.692z M94.464-52.792v35.125c0,2.657-1.495,5.089-3.866,6.289L55.895,6.176
			c-1.001,0.505-2.091,0.758-3.181,0.758c-1.091,0-2.182-0.253-3.182-0.758L14.826-11.378c-2.371-1.2-3.866-3.63-3.866-6.289
			v-35.125c0-2.657,1.495-5.089,3.866-6.289l34.707-17.555c1-0.506,2.091-0.758,3.182-0.758c1.09,0,2.18,0.253,3.181,0.759
			L90.598-59.08C92.969-57.881,94.464-55.449,94.464-52.792z M21.412-54.515l31.298,15.118L84.01-54.516L52.714-70.347
			L21.412-54.515z M18.006-17.667l31.18,15.77v-31.375l-31.18-15.061V-17.667z M87.417-17.667v-30.668L56.233-33.272v31.38
			L87.417-17.667z"/>
	</g>
	<g id="Semibold-S" transform="matrix(1 0 0 1 1990.7 696)">
		<path d="M27.988-20.489c0,1.438-1.171,2.608-2.609,2.608s-2.608-1.17-2.608-2.608c0-1.438,1.17-2.609,2.608-2.609
			S27.988-21.928,27.988-20.489z M52.929-60.268c1.438,0,2.608-1.17,2.608-2.608s-1.17-2.608-2.608-2.608s-2.608,1.17-2.608,2.608
			S51.49-60.268,52.929-60.268z M33.855-27.337c-1.438,0-2.607,1.171-2.607,2.609c0,1.438,1.17,2.608,2.607,2.608
			c1.438,0,2.609-1.17,2.609-2.608C36.464-26.166,35.293-27.337,33.855-27.337z M42.332-31.576c-1.438,0-2.607,1.171-2.607,2.609
			s1.17,2.608,2.607,2.608c1.438,0,2.608-1.17,2.608-2.608S43.771-31.576,42.332-31.576z M80.48-23.099
			c-1.438,0-2.608,1.171-2.608,2.609c0,1.438,1.171,2.608,2.608,2.608c1.438,0,2.609-1.17,2.609-2.608
			C83.089-21.928,81.918-23.099,80.48-23.099z M63.525-31.576c-1.438,0-2.607,1.171-2.607,2.609s1.17,2.608,2.607,2.608
			c1.438,0,2.609-1.17,2.609-2.608S64.963-31.576,63.525-31.576z M52.929-48.53c-1.438,0-2.608,1.171-2.608,2.609
			s1.17,2.609,2.608,2.609s2.608-1.17,2.608-2.609S54.367-48.53,52.929-48.53z M72.002-27.337c-1.438,0-2.608,1.171-2.608,2.609
			c0,1.438,1.17,2.608,2.608,2.608s2.609-1.17,2.609-2.608C74.612-26.166,73.441-27.337,72.002-27.337z M52.929-51.79
			c1.438,0,2.608-1.17,2.608-2.608s-1.17-2.608-2.608-2.608s-2.608,1.17-2.608,2.608S51.49-51.79,52.929-51.79z M93.536-52.792
			v35.125c0,2.362-1.329,4.524-3.436,5.59L55.397,5.477c-0.89,0.45-1.858,0.675-2.828,0.675c-0.969,0-1.938-0.225-2.826-0.675
			L15.034-12.077c-2.107-1.066-3.437-3.228-3.437-5.59v-35.125c0-2.362,1.329-4.523,3.437-5.589l34.708-17.555
			c0.888-0.45,1.857-0.675,2.826-0.675c0.97,0,1.938,0.225,2.828,0.675l34.704,17.555C92.207-57.315,93.536-55.154,93.536-52.792z
			 M20.827-54.292l31.737,15.33l31.74-15.332L52.569-70.347L20.827-54.292z M17.862-17.667L49.433-1.699v-31.819l-31.571-15.25
			V-17.667z M87.273-17.667V-48.77L55.697-33.518v31.823L87.273-17.667z"/>
	</g>
	<g id="Medium-S" transform="matrix(1 0 0 1 1694.09 696)">
		<path d="M27.795-20.489c0,1.384-1.127,2.51-2.512,2.51c-1.384,0-2.51-1.126-2.51-2.51c0-1.385,1.126-2.511,2.51-2.511
			C26.668-23,27.795-21.874,27.795-20.489z M52.834-60.365c1.385,0,2.511-1.126,2.511-2.511s-1.126-2.51-2.511-2.51
			c-1.384,0-2.51,1.126-2.51,2.51S51.45-60.365,52.834-60.365z M33.76-27.239c-1.384,0-2.509,1.126-2.509,2.511
			c0,1.384,1.125,2.51,2.509,2.51c1.385,0,2.512-1.126,2.512-2.51C36.271-26.113,35.144-27.239,33.76-27.239z M42.238-31.478
			c-1.385,0-2.511,1.126-2.511,2.511c0,1.384,1.126,2.51,2.511,2.51c1.384,0,2.51-1.126,2.51-2.51
			C44.748-30.351,43.622-31.478,42.238-31.478z M80.385-23c-1.385,0-2.511,1.126-2.511,2.511c0,1.384,1.126,2.51,2.511,2.51
			s2.512-1.126,2.512-2.51C82.896-21.874,81.769-23,80.385-23z M63.43-31.478c-1.384,0-2.51,1.126-2.51,2.511
			c0,1.384,1.126,2.51,2.51,2.51c1.385,0,2.512-1.126,2.512-2.51C65.941-30.351,64.814-31.478,63.43-31.478z M52.834-48.432
			c-1.384,0-2.51,1.126-2.51,2.511s1.126,2.511,2.51,2.511c1.385,0,2.511-1.126,2.511-2.511S54.219-48.432,52.834-48.432z
			 M71.907-27.239c-1.384,0-2.51,1.126-2.51,2.511c0,1.384,1.126,2.51,2.51,2.51c1.385,0,2.512-1.126,2.512-2.51
			C74.419-26.113,73.292-27.239,71.907-27.239z M52.834-51.888c1.385,0,2.511-1.126,2.511-2.511s-1.126-2.511-2.511-2.511
			c-1.384,0-2.51,1.126-2.51,2.511S51.45-51.888,52.834-51.888z M92.658-52.792v35.125c0,2.067-1.162,3.958-3.007,4.891
			L54.947,4.778c-0.777,0.394-1.625,0.59-2.473,0.59c-0.849,0-1.696-0.197-2.475-0.59L15.293-12.775
			c-1.844-0.933-3.007-2.824-3.007-4.891v-35.125c0-2.067,1.163-3.958,3.007-4.891L50-75.238c0.778-0.394,1.626-0.59,2.475-0.59
			c0.848,0,1.695,0.197,2.474,0.59l34.703,17.555C91.496-56.75,92.658-54.859,92.658-52.792z M20.293-54.07L52.47-38.527
			l32.18-15.544L52.474-70.347L20.293-54.07z M17.766-17.667L49.728-1.501v-32.263L17.766-49.203V-17.667z M87.178-17.667v-31.539
			L55.21-33.764v32.268L87.178-17.667z"/>
	</g>
	<g id="Regular-S" transform="matrix(1 0 0 1 1397.53 696)">
		<path d="M27.502-20.489c0,1.33-1.083,2.412-2.413,2.412s-2.413-1.082-2.413-2.412c0-1.331,1.083-2.414,2.413-2.414
			S27.502-21.82,27.502-20.489z M52.64-60.463c1.33,0,2.413-1.082,2.413-2.413c0-1.33-1.083-2.413-2.413-2.413
			c-1.331,0-2.413,1.083-2.413,2.413C50.227-61.545,51.309-60.463,52.64-60.463z M33.566-27.141c-1.33,0-2.412,1.083-2.412,2.413
			s1.082,2.413,2.412,2.413c1.331,0,2.413-1.082,2.413-2.413S34.897-27.141,33.566-27.141z M42.043-31.38
			c-1.331,0-2.413,1.083-2.413,2.414s1.083,2.413,2.413,2.413s2.413-1.082,2.413-2.413S43.374-31.38,42.043-31.38z M80.19-22.903
			c-1.331,0-2.413,1.083-2.413,2.414c0,1.33,1.082,2.412,2.413,2.412s2.414-1.082,2.414-2.412
			C82.604-21.82,81.521-22.903,80.19-22.903z M63.236-31.38c-1.33,0-2.412,1.083-2.412,2.414s1.082,2.413,2.412,2.413
			c1.331,0,2.414-1.082,2.414-2.413S64.566-31.38,63.236-31.38z M52.64-48.334c-1.331,0-2.413,1.083-2.413,2.414
			s1.083,2.413,2.413,2.413c1.33,0,2.413-1.083,2.413-2.413S53.97-48.334,52.64-48.334z M71.713-27.141
			c-1.331,0-2.413,1.083-2.413,2.413s1.083,2.413,2.413,2.413c1.33,0,2.413-1.082,2.413-2.413S73.043-27.141,71.713-27.141z
			 M52.64-51.985c1.33,0,2.413-1.083,2.413-2.413s-1.083-2.413-2.413-2.413c-1.331,0-2.413,1.083-2.413,2.413
			S51.309-51.985,52.64-51.985z M91.681-52.792v35.125c0,1.772-0.997,3.393-2.578,4.193L54.4,4.08
			c-0.666,0.337-1.393,0.506-2.12,0.506c-0.727,0-1.454-0.169-2.12-0.506L15.452-13.474c-1.581-0.8-2.578-2.421-2.578-4.193v-35.125
			c0-1.771,0.997-3.393,2.578-4.192l34.708-17.555c0.666-0.337,1.394-0.506,2.12-0.506s1.454,0.169,2.121,0.506l34.704,17.555
			C90.684-56.184,91.681-54.563,91.681-52.792z M19.658-53.847l32.617,15.755l32.62-15.756L52.28-70.347L19.658-53.847z
			 M17.573-17.667L49.927-1.303V-34.01L17.573-49.638V-17.667z M86.983-17.667V-49.64L54.624-34.01v32.711L86.983-17.667z"/>
	</g>
	<g id="Light-S" transform="matrix(1 0 0 1 1101.55 696)">
		<path d="M26.713-20.489c0,1.276-1.039,2.314-2.315,2.314s-2.315-1.039-2.315-2.314c0-1.277,1.039-2.315,2.315-2.315
			S26.713-21.767,26.713-20.489z M51.949-60.561c1.276,0,2.314-1.039,2.314-2.315s-1.038-2.314-2.314-2.314
			c-1.277,0-2.315,1.038-2.315,2.314S50.672-60.561,51.949-60.561z M32.875-27.043c-1.276,0-2.314,1.038-2.314,2.315
			c0,1.276,1.039,2.315,2.314,2.315c1.277,0,2.315-1.039,2.315-2.315C35.19-26.005,34.152-27.043,32.875-27.043z M41.352-31.282
			c-1.276,0-2.315,1.039-2.315,2.316c0,1.276,1.039,2.314,2.315,2.314s2.315-1.038,2.315-2.314
			C43.667-30.243,42.629-31.282,41.352-31.282z M79.499-22.805c-1.276,0-2.315,1.038-2.315,2.315c0,1.276,1.039,2.314,2.315,2.314
			c1.277,0,2.315-1.039,2.315-2.314C81.815-21.767,80.776-22.805,79.499-22.805z M62.545-31.282c-1.276,0-2.314,1.039-2.314,2.316
			c0,1.276,1.038,2.314,2.314,2.314c1.277,0,2.315-1.038,2.315-2.314C64.86-30.243,63.822-31.282,62.545-31.282z M51.949-48.236
			c-1.277,0-2.315,1.039-2.315,2.315s1.039,2.315,2.315,2.315c1.276,0,2.314-1.038,2.314-2.315S53.225-48.236,51.949-48.236z
			 M71.022-27.043c-1.277,0-2.315,1.038-2.315,2.315c0,1.276,1.039,2.315,2.315,2.315c1.276,0,2.315-1.039,2.315-2.315
			C73.338-26.005,72.299-27.043,71.022-27.043z M51.949-52.083c1.276,0,2.314-1.039,2.314-2.315s-1.038-2.315-2.314-2.315
			c-1.277,0-2.315,1.039-2.315,2.315S50.672-52.083,51.949-52.083z M90.207-52.792v35.125c0,1.477-0.83,2.827-2.147,3.494
			L53.356,3.381c-0.556,0.281-1.161,0.421-1.767,0.421c-0.605,0-1.212-0.141-1.767-0.421L15.114-14.173
			c-1.317-0.667-2.147-2.017-2.147-3.494v-35.125c0-1.477,0.83-2.827,2.147-3.494L49.822-73.84c0.555-0.281,1.162-0.421,1.767-0.421
			c0.606,0,1.211,0.141,1.767,0.422l34.704,17.555C89.377-55.619,90.207-54.268,90.207-52.792z M18.528-53.625l33.056,15.967
			l33.059-15.969L51.589-70.347L18.528-53.625z M16.882-17.667L49.627-1.105v-33.15L16.882-50.072V-17.667z M86.292-17.667v-32.408
			l-32.75,15.82V-1.1L86.292-17.667z"/>
	</g>
	<g id="Thin-S" transform="matrix(1 0 0 1 805.763 696)">
		<path d="M25.69-20.489c0,1.223-0.995,2.217-2.217,2.217s-2.217-0.994-2.217-2.217s0.995-2.218,2.217-2.218
			S25.69-21.712,25.69-20.489z M51.023-60.659c1.223,0,2.217-0.994,2.217-2.217s-0.994-2.217-2.217-2.217
			c-1.223,0-2.217,0.994-2.217,2.217S49.8-60.659,51.023-60.659z M31.95-26.945c-1.223,0-2.217,0.995-2.217,2.217
			s0.994,2.217,2.217,2.217s2.217-0.994,2.217-2.217S33.173-26.945,31.95-26.945z M40.427-31.184c-1.223,0-2.217,0.995-2.217,2.218
			c0,1.222,0.995,2.217,2.217,2.217s2.217-0.995,2.217-2.217C42.644-30.189,41.65-31.184,40.427-31.184z M78.574-22.707
			c-1.223,0-2.217,0.995-2.217,2.218s0.994,2.217,2.217,2.217s2.218-0.994,2.218-2.217S79.797-22.707,78.574-22.707z M61.619-31.184
			c-1.222,0-2.216,0.995-2.216,2.218c0,1.222,0.994,2.217,2.216,2.217c1.223,0,2.218-0.995,2.218-2.217
			C63.837-30.189,62.842-31.184,61.619-31.184z M51.023-48.139c-1.223,0-2.217,0.995-2.217,2.218c0,1.223,0.994,2.217,2.217,2.217
			c1.223,0,2.217-0.995,2.217-2.217C53.24-47.144,52.246-48.139,51.023-48.139z M70.097-26.945c-1.223,0-2.217,0.995-2.217,2.217
			s0.995,2.217,2.217,2.217s2.217-0.994,2.217-2.217S71.32-26.945,70.097-26.945z M51.023-52.181c1.223,0,2.217-0.995,2.217-2.217
			s-0.994-2.217-2.217-2.217c-1.223,0-2.217,0.995-2.217,2.217S49.8-52.181,51.023-52.181z M88.499-52.792v35.125
			c0,1.182-0.665,2.262-1.718,2.795L52.077,2.683c-0.444,0.225-0.929,0.337-1.414,0.337c-0.484,0-0.969-0.112-1.414-0.337
			L14.543-14.872c-1.054-0.533-1.719-1.613-1.719-2.795v-35.125c0-1.181,0.665-2.262,1.719-2.795L49.25-73.142
			c0.444-0.225,0.929-0.337,1.414-0.337s0.969,0.112,1.414,0.337L86.78-55.587C87.834-55.054,88.499-53.973,88.499-52.792z
			 M17.163-53.402l33.496,16.18l33.499-16.181L50.663-70.347L17.163-53.402z M15.956-17.667l33.137,16.76v-33.594L15.956-50.507
			V-17.667z M85.367-17.667v-32.843L52.225-34.501v33.599L85.367-17.667z"/>
	</g>
	<g id="Ultralight-S" transform="matrix(1 0 0 1 509.54 696)">
		<path d="M25.144-20.489c0,1.189-0.968,2.158-2.158,2.158c-1.19,0-2.158-0.968-2.158-2.158c0-1.19,0.968-2.159,2.158-2.159
			C24.176-22.648,25.144-21.68,25.144-20.489z M50.536-60.718c1.19,0,2.158-0.968,2.158-2.158s-0.968-2.158-2.158-2.158
			c-1.19,0-2.158,0.968-2.158,2.158S49.346-60.718,50.536-60.718z M31.463-26.886c-1.19,0-2.158,0.968-2.158,2.158
			c0,1.19,0.968,2.158,2.158,2.158s2.158-0.968,2.158-2.158C33.621-25.918,32.653-26.886,31.463-26.886z M39.94-31.125
			c-1.19,0-2.158,0.968-2.158,2.159c0,1.19,0.968,2.158,2.158,2.158s2.158-0.968,2.158-2.158
			C42.098-30.157,41.13-31.125,39.94-31.125z M78.087-22.648c-1.19,0-2.158,0.968-2.158,2.159c0,1.189,0.968,2.158,2.158,2.158
			c1.19,0,2.159-0.968,2.159-2.158C80.246-21.68,79.277-22.648,78.087-22.648z M61.132-31.125c-1.189,0-2.158,0.968-2.158,2.159
			c0,1.19,0.968,2.158,2.158,2.158c1.19,0,2.159-0.968,2.159-2.158C63.291-30.157,62.323-31.125,61.132-31.125z M50.536-48.08
			c-1.19,0-2.158,0.968-2.158,2.159s0.968,2.158,2.158,2.158c1.19,0,2.158-0.968,2.158-2.158S51.727-48.08,50.536-48.08z
			 M69.61-26.886c-1.19,0-2.158,0.968-2.158,2.158c0,1.19,0.968,2.158,2.158,2.158c1.19,0,2.159-0.968,2.159-2.158
			C71.769-25.918,70.8-26.886,69.61-26.886z M50.536-52.24c1.19,0,2.158-0.968,2.158-2.158c0-1.19-0.968-2.158-2.158-2.158
			c-1.19,0-2.158,0.968-2.158,2.158C48.378-53.208,49.346-52.24,50.536-52.24z M87.229-52.792v35.125
			c0,0.886-0.498,1.696-1.289,2.096L51.236,1.983c-0.333,0.169-0.696,0.253-1.06,0.253s-0.727-0.084-1.06-0.253L14.409-15.57
			c-0.79-0.4-1.289-1.21-1.289-2.096v-35.125c0-0.886,0.498-1.696,1.289-2.096l34.708-17.555c0.333-0.168,0.696-0.253,1.06-0.253
			s0.727,0.084,1.06,0.253L85.94-54.888C86.73-54.488,87.229-53.678,87.229-52.792z M16.236-53.18l33.936,16.392L84.11-53.181
			L50.176-70.347L16.236-53.18z M15.469-17.667L48.998-0.709v-34.037L15.469-50.942V-17.667z M84.88-17.667v-33.278L51.347-34.746
			v34.042L84.88-17.667z"/>
	</g>
</g>
</svg>
