<?xml version="1.0" encoding="UTF-8"?>
<!--Generator: Apple Native CoreSVG 175-->
<!DOCTYPE svg
PUBLIC "-//W3C//DTD SVG 1.1//EN"
       "http://www.w3.org/Graphics/SVG/1.1/DTD/svg11.dtd">
<svg version="1.1" xmlns="http://www.w3.org/2000/svg" xmlns:xlink="http://www.w3.org/1999/xlink" width="3300" height="2200">
 <!--glyph: "", point size: 100.0, font version: "17.3d3e1", template writer version: "65.1"-->
 <style>.multicolor-0:custom {fill:#2DCCFF;opacity:1.0}

.SFSymbolsPreview2DCCFF {fill:#2DCCFF;opacity:1.0}
</style>
 <g id="Notes">
  <rect height="2200" id="artboard" style="fill:white;opacity:1" width="3300" x="0" y="0"/>
  <line style="fill:none;stroke:black;opacity:1;stroke-width:0.5;" x1="263" x2="3036" y1="292" y2="292"/>
  <text style="stroke:none;fill:black;font-family:sans-serif;font-size:13;font-weight:bold;" transform="matrix(1 0 0 1 263 322)">Weight/Scale Variations</text>
  <text style="stroke:none;fill:black;font-family:sans-serif;font-size:13;text-anchor:middle;" transform="matrix(1 0 0 1 559.711 322)">Ultralight</text>
  <text style="stroke:none;fill:black;font-family:sans-serif;font-size:13;text-anchor:middle;" transform="matrix(1 0 0 1 856.422 322)">Thin</text>
  <text style="stroke:none;fill:black;font-family:sans-serif;font-size:13;text-anchor:middle;" transform="matrix(1 0 0 1 1153.13 322)">Light</text>
  <text style="stroke:none;fill:black;font-family:sans-serif;font-size:13;text-anchor:middle;" transform="matrix(1 0 0 1 1449.84 322)">Regular</text>
  <text style="stroke:none;fill:black;font-family:sans-serif;font-size:13;text-anchor:middle;" transform="matrix(1 0 0 1 1746.56 322)">Medium</text>
  <text style="stroke:none;fill:black;font-family:sans-serif;font-size:13;text-anchor:middle;" transform="matrix(1 0 0 1 2043.27 322)">Semibold</text>
  <text style="stroke:none;fill:black;font-family:sans-serif;font-size:13;text-anchor:middle;" transform="matrix(1 0 0 1 2339.98 322)">Bold</text>
  <text style="stroke:none;fill:black;font-family:sans-serif;font-size:13;text-anchor:middle;" transform="matrix(1 0 0 1 2636.69 322)">Heavy</text>
  <text style="stroke:none;fill:black;font-family:sans-serif;font-size:13;text-anchor:middle;" transform="matrix(1 0 0 1 2933.4 322)">Black</text>
  <line style="fill:none;stroke:black;opacity:1;stroke-width:0.5;" x1="263" x2="3036" y1="1903" y2="1903"/>
  <g transform="matrix(1 0 0 1 263 1933)">
   <path d="M9.24805 0.830078Q10.8691 0.830078 12.2949 0.214844Q13.7207-0.400391 14.8096-1.49414Q15.8984-2.58789 16.5186-4.01367Q17.1387-5.43945 17.1387-7.05078Q17.1387-8.66211 16.5186-10.0879Q15.8984-11.5137 14.8047-12.6074Q13.7109-13.7012 12.2852-14.3164Q10.8594-14.9316 9.23828-14.9316Q7.62695-14.9316 6.20117-14.3164Q4.77539-13.7012 3.69141-12.6074Q2.60742-11.5137 1.9873-10.0879Q1.36719-8.66211 1.36719-7.05078Q1.36719-5.43945 1.9873-4.01367Q2.60742-2.58789 3.69629-1.49414Q4.78516-0.400391 6.21094 0.214844Q7.63672 0.830078 9.24805 0.830078ZM9.24805-0.654297Q7.91992-0.654297 6.7627-1.14746Q5.60547-1.64062 4.73145-2.51953Q3.85742-3.39844 3.36426-4.56055Q2.87109-5.72266 2.87109-7.05078Q2.87109-8.37891 3.35938-9.54102Q3.84766-10.7031 4.72168-11.582Q5.5957-12.4609 6.75293-12.9541Q7.91016-13.4473 9.23828-13.4473Q10.5762-13.4473 11.7334-12.9541Q12.8906-12.4609 13.7695-11.582Q14.6484-10.7031 15.1465-9.54102Q15.6445-8.37891 15.6445-7.05078Q15.6445-5.72266 15.1514-4.56055Q14.6582-3.39844 13.7842-2.51953Q12.9102-1.64062 11.748-1.14746Q10.5859-0.654297 9.24805-0.654297ZM5.6543-7.05078Q5.6543-6.72852 5.85938-6.52832Q6.06445-6.32812 6.40625-6.32812L8.51562-6.32812L8.51562-4.20898Q8.51562-3.88672 8.71094-3.67676Q8.90625-3.4668 9.23828-3.4668Q9.56055-3.4668 9.77051-3.67676Q9.98047-3.88672 9.98047-4.20898L9.98047-6.32812L12.0898-6.32812Q12.4219-6.32812 12.627-6.52832Q12.832-6.72852 12.832-7.05078Q12.832-7.38281 12.627-7.58789Q12.4219-7.79297 12.0898-7.79297L9.98047-7.79297L9.98047-9.90234Q9.98047-10.2344 9.77051-10.4443Q9.56055-10.6543 9.23828-10.6543Q8.90625-10.6543 8.71094-10.4443Q8.51562-10.2344 8.51562-9.90234L8.51562-7.79297L6.40625-7.79297Q6.06445-7.79297 5.85938-7.58789Q5.6543-7.38281 5.6543-7.05078Z"/>
  </g>
  <g transform="matrix(1 0 0 1 281.867 1933)">
   <path d="M11.709 2.91016Q13.75 2.91016 15.5518 2.12891Q17.3535 1.34766 18.7305-0.0292969Q20.1074-1.40625 20.8887-3.20801Q21.6699-5.00977 21.6699-7.05078Q21.6699-9.0918 20.8887-10.8936Q20.1074-12.6953 18.7305-14.0723Q17.3535-15.4492 15.5469-16.2305Q13.7402-17.0117 11.6992-17.0117Q9.6582-17.0117 7.85645-16.2305Q6.05469-15.4492 4.68262-14.0723Q3.31055-12.6953 2.5293-10.8936Q1.74805-9.0918 1.74805-7.05078Q1.74805-5.00977 2.5293-3.20801Q3.31055-1.40625 4.6875-0.0292969Q6.06445 1.34766 7.86621 2.12891Q9.66797 2.91016 11.709 2.91016ZM11.709 1.25Q9.98047 1.25 8.47656 0.605469Q6.97266-0.0390625 5.83496-1.17676Q4.69727-2.31445 4.05762-3.81836Q3.41797-5.32227 3.41797-7.05078Q3.41797-8.7793 4.05762-10.2832Q4.69727-11.7871 5.83008-12.9297Q6.96289-14.0723 8.4668-14.7119Q9.9707-15.3516 11.6992-15.3516Q13.4277-15.3516 14.9316-14.7119Q16.4355-14.0723 17.5781-12.9297Q18.7207-11.7871 19.3652-10.2832Q20.0098-8.7793 20.0098-7.05078Q20.0098-5.32227 19.3701-3.81836Q18.7305-2.31445 17.5928-1.17676Q16.4551-0.0390625 14.9463 0.605469Q13.4375 1.25 11.709 1.25ZM7.17773-7.05078Q7.17773-6.69922 7.41211-6.47461Q7.64648-6.25 8.01758-6.25L10.8887-6.25L10.8887-3.36914Q10.8887-2.99805 11.1133-2.76855Q11.3379-2.53906 11.6895-2.53906Q12.0605-2.53906 12.29-2.76855Q12.5195-2.99805 12.5195-3.36914L12.5195-6.25L15.4004-6.25Q15.7715-6.25 16.001-6.47461Q16.2305-6.69922 16.2305-7.05078Q16.2305-7.42188 16.001-7.65137Q15.7715-7.88086 15.4004-7.88086L12.5195-7.88086L12.5195-10.752Q12.5195-11.1328 12.29-11.3623Q12.0605-11.5918 11.6895-11.5918Q11.3379-11.5918 11.1133-11.3574Q10.8887-11.123 10.8887-10.752L10.8887-7.88086L8.01758-7.88086Q7.63672-7.88086 7.40723-7.65137Q7.17773-7.42188 7.17773-7.05078Z"/>
  </g>
  <g transform="matrix(1 0 0 1 305.646 1933)">
   <path d="M14.9707 5.66406Q17.0605 5.66406 18.96 5.01465Q20.8594 4.36523 22.4512 3.19336Q24.043 2.02148 25.2197 0.429688Q26.3965-1.16211 27.0459-3.06641Q27.6953-4.9707 27.6953-7.05078Q27.6953-9.14062 27.0459-11.04Q26.3965-12.9395 25.2197-14.5312Q24.043-16.123 22.4512-17.2998Q20.8594-18.4766 18.9551-19.126Q17.0508-19.7754 14.9609-19.7754Q12.8711-19.7754 10.9717-19.126Q9.07227-18.4766 7.48535-17.2998Q5.89844-16.123 4.72168-14.5312Q3.54492-12.9395 2.90039-11.04Q2.25586-9.14062 2.25586-7.05078Q2.25586-4.9707 2.90527-3.06641Q3.55469-1.16211 4.72656 0.429688Q5.89844 2.02148 7.49023 3.19336Q9.08203 4.36523 10.9814 5.01465Q12.8809 5.66406 14.9707 5.66406ZM14.9707 3.84766Q13.1641 3.84766 11.5283 3.2959Q9.89258 2.74414 8.53516 1.74805Q7.17773 0.751953 6.17676-0.610352Q5.17578-1.97266 4.62891-3.6084Q4.08203-5.24414 4.08203-7.05078Q4.08203-8.86719 4.62891-10.5029Q5.17578-12.1387 6.17188-13.501Q7.16797-14.8633 8.52539-15.8594Q9.88281-16.8555 11.5186-17.4023Q13.1543-17.9492 14.9609-17.9492Q16.7773-17.9492 18.4131-17.4023Q20.0488-16.8555 21.4111-15.8594Q22.7734-14.8633 23.7695-13.501Q24.7656-12.1387 25.3174-10.5029Q25.8691-8.86719 25.8691-7.05078Q25.8789-5.24414 25.332-3.6084Q24.7852-1.97266 23.7842-0.610352Q22.7832 0.751953 21.4209 1.74805Q20.0586 2.74414 18.4229 3.2959Q16.7871 3.84766 14.9707 3.84766ZM9.19922-7.05078Q9.19922-6.66992 9.45801-6.4209Q9.7168-6.17188 10.1172-6.17188L14.0625-6.17188L14.0625-2.2168Q14.0625-1.81641 14.3115-1.55762Q14.5605-1.29883 14.9512-1.29883Q15.3516-1.29883 15.6104-1.55273Q15.8691-1.80664 15.8691-2.2168L15.8691-6.17188L19.8242-6.17188Q20.2246-6.17188 20.4785-6.4209Q20.7324-6.66992 20.7324-7.05078Q20.7324-7.46094 20.4785-7.71484Q20.2246-7.96875 19.8242-7.96875L15.8691-7.96875L15.8691-11.9141Q15.8691-12.3242 15.6104-12.583Q15.3516-12.8418 14.9512-12.8418Q14.5605-12.8418 14.3115-12.583Q14.0625-12.3242 14.0625-11.9141L14.0625-7.96875L10.1172-7.96875Q9.70703-7.96875 9.45312-7.71484Q9.19922-7.46094 9.19922-7.05078Z"/>
  </g>
  <text style="stroke:none;fill:black;font-family:sans-serif;font-size:13;font-weight:bold;" transform="matrix(1 0 0 1 263 1953)">Design Variations</text>
  <text style="stroke:none;fill:black;font-family:sans-serif;font-size:13;" transform="matrix(1 0 0 1 263 1971)">Symbols are supported in up to nine weights and three scales.</text>
  <text style="stroke:none;fill:black;font-family:sans-serif;font-size:13;" transform="matrix(1 0 0 1 263 1989)">For optimal layout with text and other symbols, vertically align</text>
  <text style="stroke:none;fill:black;font-family:sans-serif;font-size:13;" transform="matrix(1 0 0 1 263 2007)">symbols with the adjacent text.</text>
  <line style="fill:none;stroke:#00AEEF;stroke-width:0.5;opacity:1.0;" x1="776" x2="776" y1="1919" y2="1933"/>
  <g transform="matrix(1 0 0 1 776 1933)">
   <path d="M3.31055 0.15625Q3.70117 0.15625 3.91602-0.00976562Q4.13086-0.175781 4.26758-0.585938L5.52734-4.0332L11.2891-4.0332L12.5488-0.585938Q12.6855-0.175781 12.9004-0.00976562Q13.1152 0.15625 13.4961 0.15625Q13.8867 0.15625 14.1162-0.0585938Q14.3457-0.273438 14.3457-0.644531Q14.3457-0.869141 14.2383-1.17188L9.6582-13.3691Q9.48242-13.8184 9.17969-14.043Q8.87695-14.2676 8.4082-14.2676Q7.5-14.2676 7.17773-13.3789L2.59766-1.16211Q2.49023-0.859375 2.49023-0.634766Q2.49023-0.263672 2.70996-0.0537109Q2.92969 0.15625 3.31055 0.15625ZM6.00586-5.51758L8.37891-12.0898L8.42773-12.0898L10.8008-5.51758Z"/>
  </g>
  <line style="fill:none;stroke:#00AEEF;stroke-width:0.5;opacity:1.0;" x1="793.197" x2="793.197" y1="1919" y2="1933"/>
  <text style="stroke:none;fill:black;font-family:sans-serif;font-size:13;font-weight:bold;" transform="matrix(1 0 0 1 776 1953)">Margins</text>
  <text style="stroke:none;fill:black;font-family:sans-serif;font-size:13;" transform="matrix(1 0 0 1 776 1971)">Leading and trailing margins on the left and right side of each symbol</text>
  <text style="stroke:none;fill:black;font-family:sans-serif;font-size:13;" transform="matrix(1 0 0 1 776 1989)">can be adjusted by modifying the x-location of the margin guidelines.</text>
  <text style="stroke:none;fill:black;font-family:sans-serif;font-size:13;" transform="matrix(1 0 0 1 776 2007)">Modifications are automatically applied proportionally to all</text>
  <text style="stroke:none;fill:black;font-family:sans-serif;font-size:13;" transform="matrix(1 0 0 1 776 2025)">scales and weights.</text>
  <g transform="matrix(1 0 0 1 1289 1933)">
   <path d="M2.8418 1.86523L4.54102 3.57422Q5.18555 4.22852 5.90332 4.17969Q6.62109 4.13086 7.31445 3.35938L18.0078-8.42773L17.041-9.4043L6.42578 2.27539Q6.16211 2.57812 5.89355 2.61719Q5.625 2.65625 5.27344 2.30469L4.10156 1.14258Q3.75 0.791016 3.79395 0.522461Q3.83789 0.253906 4.14062-0.0195312L15.6152-10.8203L14.6387-11.7871L3.04688-0.898438Q2.30469-0.214844 2.25098 0.498047Q2.19727 1.21094 2.8418 1.86523ZM9.25781-16.3281Q8.94531-16.0254 8.90625-15.6348Q8.86719-15.2441 9.04297-14.9512Q9.21875-14.6777 9.55566-14.541Q9.89258-14.4043 10.3809-14.5215Q11.4746-14.7754 12.5977-14.7314Q13.7207-14.6875 14.7949-13.9844L14.209-12.5293Q13.9551-11.9043 14.0674-11.4404Q14.1797-10.9766 14.5801-10.5664L16.875-8.25195Q17.2363-7.88086 17.5781-7.82227Q17.9199-7.76367 18.3398-7.8418L19.4043-8.03711L20.0684-7.36328L20.0293-6.80664Q20-6.43555 20.1221-6.12305Q20.2441-5.81055 20.6055-5.44922L21.3672-4.70703Q21.7285-4.3457 22.1533-4.33105Q22.5781-4.31641 22.9297-4.66797L25.8398-7.58789Q26.1914-7.93945 26.1816-8.35449Q26.1719-8.76953 25.8105-9.13086L25.0391-9.89258Q24.6875-10.2539 24.3799-10.3857Q24.0723-10.5176 23.7109-10.4883L23.1348-10.4395L22.4902-11.0742L22.7344-12.1973Q22.832-12.6172 22.6953-12.9834Q22.5586-13.3496 22.1191-13.7891L19.9219-15.9766Q18.6719-17.2168 17.2607-17.8369Q15.8496-18.457 14.4189-18.4814Q12.9883-18.5059 11.665-17.959Q10.3418-17.4121 9.25781-16.3281ZM10.752-15.957Q11.6602-16.6211 12.7002-16.9043Q13.7402-17.1875 14.8047-17.085Q15.8691-16.9824 16.8701-16.5137Q17.8711-16.0449 18.7012-15.2051L21.1328-12.793Q21.3086-12.6172 21.3525-12.4512Q21.3965-12.2852 21.3379-12.0312L21.0156-10.5469L22.5195-9.0625L23.5059-9.12109Q23.6914-9.13086 23.7891-9.09668Q23.8867-9.0625 24.0332-8.91602L24.6094-8.33984L22.168-5.89844L21.5918-6.47461Q21.4453-6.62109 21.4062-6.71875Q21.3672-6.81641 21.377-7.01172L21.4453-7.98828L19.9512-9.47266L18.4277-9.21875Q18.1836-9.16992 18.042-9.2041Q17.9004-9.23828 17.7148-9.41406L15.7129-11.416Q15.5176-11.5918 15.4932-11.7529Q15.4688-11.9141 15.5859-12.1875L16.4648-14.2773Q15.293-15.3711 13.8281-15.791Q12.3633-16.2109 10.8398-15.7617Q10.7227-15.7324 10.6885-15.8057Q10.6543-15.8789 10.752-15.957Z"/>
  </g>
  <text style="stroke:none;fill:black;font-family:sans-serif;font-size:13;font-weight:bold;" transform="matrix(1 0 0 1 1289 1953)">Exporting</text>
  <text style="stroke:none;fill:black;font-family:sans-serif;font-size:13;" transform="matrix(1 0 0 1 1289 1971)">Symbols should be outlined when exporting to ensure the</text>
  <text style="stroke:none;fill:black;font-family:sans-serif;font-size:13;" transform="matrix(1 0 0 1 1289 1989)">design is preserved when submitting to Xcode.</text>
  <text id="template-version" style="stroke:none;fill:black;font-family:sans-serif;font-size:13;text-anchor:end;" transform="matrix(1 0 0 1 3036 1933)">Template v.3.0</text>
  <text style="stroke:none;fill:black;font-family:sans-serif;font-size:13;text-anchor:end;" transform="matrix(1 0 0 1 3036 1951)">Requires Xcode 13 or greater</text>
  <text id="descriptive-name" style="stroke:none;fill:black;font-family:sans-serif;font-size:13;text-anchor:end;" transform="matrix(1 0 0 1 3036 1969)">Generated from astro.standby</text>
  <text style="stroke:none;fill:black;font-family:sans-serif;font-size:13;text-anchor:end;" transform="matrix(1 0 0 1 3036 1987)">Typeset at 100 points</text>
  <text style="stroke:none;fill:black;font-family:sans-serif;font-size:13;" transform="matrix(1 0 0 1 263 726)">Small</text>
  <text style="stroke:none;fill:black;font-family:sans-serif;font-size:13;" transform="matrix(1 0 0 1 263 1156)">Medium</text>
  <text style="stroke:none;fill:black;font-family:sans-serif;font-size:13;" transform="matrix(1 0 0 1 263 1586)">Large</text>
 </g>
 <g id="Guides">
  <g id="H-reference" style="fill:#27AAE1;stroke:none;" transform="matrix(1 0 0 1 339 696)">
   <path d="M0.993347 0L3.6377 0L29.3282-67.1326L30.0301-67.1326L30.0301-70.459L28.1227-70.459ZM11.6882-24.4797L46.9818-24.4797L46.2311-26.7288L12.4382-26.7288ZM55.1193 0L57.7637 0L30.6381-70.459L29.4327-70.459L29.4327-67.1326Z"/>
  </g>
  <line id="Baseline-S" style="fill:none;stroke:#27AAE1;opacity:1;stroke-width:0.5;" x1="263" x2="3036" y1="696" y2="696"/>
  <line id="Capline-S" style="fill:none;stroke:#27AAE1;opacity:1;stroke-width:0.5;" x1="263" x2="3036" y1="625.541" y2="625.541"/>
  <g id="H-reference" style="fill:#27AAE1;stroke:none;" transform="matrix(1 0 0 1 339 1126)">
   <path d="M0.993347 0L3.6377 0L29.3282-67.1326L30.0301-67.1326L30.0301-70.459L28.1227-70.459ZM11.6882-24.4797L46.9818-24.4797L46.2311-26.7288L12.4382-26.7288ZM55.1193 0L57.7637 0L30.6381-70.459L29.4327-70.459L29.4327-67.1326Z"/>
  </g>
  <line id="Baseline-M" style="fill:none;stroke:#27AAE1;opacity:1;stroke-width:0.5;" x1="263" x2="3036" y1="1126" y2="1126"/>
  <line id="Capline-M" style="fill:none;stroke:#27AAE1;opacity:1;stroke-width:0.5;" x1="263" x2="3036" y1="1055.54" y2="1055.54"/>
  <g id="H-reference" style="fill:#27AAE1;stroke:none;" transform="matrix(1 0 0 1 339 1556)">
   <path d="M0.993347 0L3.6377 0L29.3282-67.1326L30.0301-67.1326L30.0301-70.459L28.1227-70.459ZM11.6882-24.4797L46.9818-24.4797L46.2311-26.7288L12.4382-26.7288ZM55.1193 0L57.7637 0L30.6381-70.459L29.4327-70.459L29.4327-67.1326Z"/>
  </g>
  <line id="Baseline-L" style="fill:none;stroke:#27AAE1;opacity:1;stroke-width:0.5;" x1="263" x2="3036" y1="1556" y2="1556"/>
  <line id="Capline-L" style="fill:none;stroke:#27AAE1;opacity:1;stroke-width:0.5;" x1="263" x2="3036" y1="1485.54" y2="1485.54"/>
  <line id="left-margin-Ultralight-S" style="fill:none;stroke:#00AEEF;stroke-width:0.5;opacity:1.0;" x1="511.518" x2="511.518" y1="600.784" y2="720.121"/>
  <line id="right-margin-Ultralight-S" style="fill:none;stroke:#00AEEF;stroke-width:0.5;opacity:1.0;" x1="607.904" x2="607.904" y1="600.784" y2="720.121"/>
  <line id="left-margin-Thin-S" style="fill:none;stroke:#00AEEF;stroke-width:0.5;opacity:1.0;" x1="807.399" x2="807.399" y1="600.784" y2="720.121"/>
  <line id="right-margin-Thin-S" style="fill:none;stroke:#00AEEF;stroke-width:0.5;opacity:1.0;" x1="905.446" x2="905.446" y1="600.784" y2="720.121"/>
  <line id="left-margin-Light-S" style="fill:none;stroke:#00AEEF;stroke-width:0.5;opacity:1.0;" x1="1102.52" x2="1102.52" y1="600.784" y2="720.121"/>
  <line id="right-margin-Light-S" style="fill:none;stroke:#00AEEF;stroke-width:0.5;opacity:1.0;" x1="1203.74" x2="1203.74" y1="600.784" y2="720.121"/>
  <line id="left-margin-Regular-S" style="fill:none;stroke:#00AEEF;stroke-width:0.5;opacity:1.0;" x1="1398.01" x2="1398.01" y1="600.784" y2="720.121"/>
  <line id="right-margin-Regular-S" style="fill:none;stroke:#00AEEF;stroke-width:0.5;opacity:1.0;" x1="1501.68" x2="1501.68" y1="600.784" y2="720.121"/>
  <line id="left-margin-Medium-S" style="fill:none;stroke:#00AEEF;stroke-width:0.5;opacity:1.0;" x1="1694.02" x2="1694.02" y1="600.784" y2="720.121"/>
  <line id="right-margin-Medium-S" style="fill:none;stroke:#00AEEF;stroke-width:0.5;opacity:1.0;" x1="1799.09" x2="1799.09" y1="600.784" y2="720.121"/>
  <line id="left-margin-Semibold-S" style="fill:none;stroke:#00AEEF;stroke-width:0.5;opacity:1.0;" x1="1990.19" x2="1990.19" y1="600.784" y2="720.121"/>
  <line id="right-margin-Semibold-S" style="fill:none;stroke:#00AEEF;stroke-width:0.5;opacity:1.0;" x1="2096.34" x2="2096.34" y1="600.784" y2="720.121"/>
  <line id="left-margin-Bold-S" style="fill:none;stroke:#00AEEF;stroke-width:0.5;opacity:1.0;" x1="2286.19" x2="2286.19" y1="600.784" y2="720.121"/>
  <line id="right-margin-Bold-S" style="fill:none;stroke:#00AEEF;stroke-width:0.5;opacity:1.0;" x1="2393.76" x2="2393.76" y1="600.784" y2="720.121"/>
  <line id="left-margin-Heavy-S" style="fill:none;stroke:#00AEEF;stroke-width:0.5;opacity:1.0;" x1="2581.9" x2="2581.9" y1="600.784" y2="720.121"/>
  <line id="right-margin-Heavy-S" style="fill:none;stroke:#00AEEF;stroke-width:0.5;opacity:1.0;" x1="2691.47" x2="2691.47" y1="600.784" y2="720.121"/>
  <line id="left-margin-Black-S" style="fill:none;stroke:#00AEEF;stroke-width:0.5;opacity:1.0;" x1="2877.69" x2="2877.69" y1="600.784" y2="720.121"/>
  <line id="right-margin-Black-S" style="fill:none;stroke:#00AEEF;stroke-width:0.5;opacity:1.0;" x1="2989.11" x2="2989.11" y1="600.784" y2="720.121"/>
  <line id="left-margin-Ultralight-M" style="fill:none;stroke:#00AEEF;stroke-width:0.5;opacity:1.0;" x1="498.529" x2="498.529" y1="1030.78" y2="1150.12"/>
  <line id="right-margin-Ultralight-M" style="fill:none;stroke:#00AEEF;stroke-width:0.5;opacity:1.0;" x1="620.893" x2="620.893" y1="1030.78" y2="1150.12"/>
  <line id="left-margin-Thin-M" style="fill:none;stroke:#00AEEF;stroke-width:0.5;opacity:1.0;" x1="794.313" x2="794.313" y1="1030.78" y2="1150.12"/>
  <line id="right-margin-Thin-M" style="fill:none;stroke:#00AEEF;stroke-width:0.5;opacity:1.0;" x1="918.531" x2="918.531" y1="1030.78" y2="1150.12"/>
  <line id="left-margin-Light-M" style="fill:none;stroke:#00AEEF;stroke-width:0.5;opacity:1.0;" x1="1089.19" x2="1089.19" y1="1030.78" y2="1150.12"/>
  <line id="right-margin-Light-M" style="fill:none;stroke:#00AEEF;stroke-width:0.5;opacity:1.0;" x1="1217.07" x2="1217.07" y1="1030.78" y2="1150.12"/>
  <line id="left-margin-Regular-M" style="fill:none;stroke:#00AEEF;stroke-width:0.5;opacity:1.0;" x1="1384.54" x2="1384.54" y1="1030.78" y2="1150.12"/>
  <line id="right-margin-Regular-M" style="fill:none;stroke:#00AEEF;stroke-width:0.5;opacity:1.0;" x1="1515.15" x2="1515.15" y1="1030.78" y2="1150.12"/>
  <line id="left-margin-Medium-M" style="fill:none;stroke:#00AEEF;stroke-width:0.5;opacity:1.0;" x1="1680.27" x2="1680.27" y1="1030.78" y2="1150.12"/>
  <line id="right-margin-Medium-M" style="fill:none;stroke:#00AEEF;stroke-width:0.5;opacity:1.0;" x1="1812.84" x2="1812.84" y1="1030.78" y2="1150.12"/>
  <line id="left-margin-Semibold-M" style="fill:none;stroke:#00AEEF;stroke-width:0.5;opacity:1.0;" x1="1976.25" x2="1976.25" y1="1030.78" y2="1150.12"/>
  <line id="right-margin-Semibold-M" style="fill:none;stroke:#00AEEF;stroke-width:0.5;opacity:1.0;" x1="2110.28" x2="2110.28" y1="1030.78" y2="1150.12"/>
  <line id="left-margin-Bold-M" style="fill:none;stroke:#00AEEF;stroke-width:0.5;opacity:1.0;" x1="2271.96" x2="2271.96" y1="1030.78" y2="1150.12"/>
  <line id="right-margin-Bold-M" style="fill:none;stroke:#00AEEF;stroke-width:0.5;opacity:1.0;" x1="2408" x2="2408" y1="1030.78" y2="1150.12"/>
  <line id="left-margin-Heavy-M" style="fill:none;stroke:#00AEEF;stroke-width:0.5;opacity:1.0;" x1="2567.26" x2="2567.26" y1="1030.78" y2="1150.12"/>
  <line id="right-margin-Heavy-M" style="fill:none;stroke:#00AEEF;stroke-width:0.5;opacity:1.0;" x1="2706.12" x2="2706.12" y1="1030.78" y2="1150.12"/>
  <line id="left-margin-Black-M" style="fill:none;stroke:#00AEEF;stroke-width:0.5;opacity:1.0;" x1="2862.7" x2="2862.7" y1="1030.78" y2="1150.12"/>
  <line id="right-margin-Black-M" style="fill:none;stroke:#00AEEF;stroke-width:0.5;opacity:1.0;" x1="3004.1" x2="3004.1" y1="1030.78" y2="1150.12"/>
  <line id="left-margin-Ultralight-L" style="fill:none;stroke:#00AEEF;stroke-width:0.5;opacity:1.0;" x1="481.146" x2="481.146" y1="1460.78" y2="1580.12"/>
  <line id="right-margin-Ultralight-L" style="fill:none;stroke:#00AEEF;stroke-width:0.5;opacity:1.0;" x1="638.276" x2="638.276" y1="1460.78" y2="1580.12"/>
  <line id="left-margin-Thin-L" style="fill:none;stroke:#00AEEF;stroke-width:0.5;opacity:1.0;" x1="776.808" x2="776.808" y1="1460.78" y2="1580.12"/>
  <line id="right-margin-Thin-L" style="fill:none;stroke:#00AEEF;stroke-width:0.5;opacity:1.0;" x1="936.036" x2="936.036" y1="1460.78" y2="1580.12"/>
  <line id="left-margin-Light-L" style="fill:none;stroke:#00AEEF;stroke-width:0.5;opacity:1.0;" x1="1071.49" x2="1071.49" y1="1460.78" y2="1580.12"/>
  <line id="right-margin-Light-L" style="fill:none;stroke:#00AEEF;stroke-width:0.5;opacity:1.0;" x1="1234.77" x2="1234.77" y1="1460.78" y2="1580.12"/>
  <line id="left-margin-Regular-L" style="fill:none;stroke:#00AEEF;stroke-width:0.5;opacity:1.0;" x1="1366.67" x2="1366.67" y1="1460.78" y2="1580.12"/>
  <line id="right-margin-Regular-L" style="fill:none;stroke:#00AEEF;stroke-width:0.5;opacity:1.0;" x1="1533.02" x2="1533.02" y1="1460.78" y2="1580.12"/>
  <line id="left-margin-Medium-L" style="fill:none;stroke:#00AEEF;stroke-width:0.5;opacity:1.0;" x1="1662.13" x2="1662.13" y1="1460.78" y2="1580.12"/>
  <line id="right-margin-Medium-L" style="fill:none;stroke:#00AEEF;stroke-width:0.5;opacity:1.0;" x1="1830.98" x2="1830.98" y1="1460.78" y2="1580.12"/>
  <line id="left-margin-Semibold-L" style="fill:none;stroke:#00AEEF;stroke-width:0.5;opacity:1.0;" x1="1957.87" x2="1957.87" y1="1460.78" y2="1580.12"/>
  <line id="right-margin-Semibold-L" style="fill:none;stroke:#00AEEF;stroke-width:0.5;opacity:1.0;" x1="2128.67" x2="2128.67" y1="1460.78" y2="1580.12"/>
  <line id="left-margin-Bold-L" style="fill:none;stroke:#00AEEF;stroke-width:0.5;opacity:1.0;" x1="2253.31" x2="2253.31" y1="1460.78" y2="1580.12"/>
  <line id="right-margin-Bold-L" style="fill:none;stroke:#00AEEF;stroke-width:0.5;opacity:1.0;" x1="2426.65" x2="2426.65" y1="1460.78" y2="1580.12"/>
  <line id="left-margin-Heavy-L" style="fill:none;stroke:#00AEEF;stroke-width:0.5;opacity:1.0;" x1="2548.19" x2="2548.19" y1="1460.78" y2="1580.12"/>
  <line id="right-margin-Heavy-L" style="fill:none;stroke:#00AEEF;stroke-width:0.5;opacity:1.0;" x1="2725.19" x2="2725.19" y1="1460.78" y2="1580.12"/>
  <line id="left-margin-Black-L" style="fill:none;stroke:#00AEEF;stroke-width:0.5;opacity:1.0;" x1="2843.26" x2="2843.26" y1="1460.78" y2="1580.12"/>
  <line id="right-margin-Black-L" style="fill:none;stroke:#00AEEF;stroke-width:0.5;opacity:1.0;" x1="3023.54" x2="3023.54" y1="1460.78" y2="1580.12"/>
 </g>
 <g id="Symbols">
  <g id="Black-L" transform="matrix(1 0 0 1 2843.26 1556)">
   <path class="multicolor-0:custom SFSymbolsPreview2DCCFF" d="M90.137-88.551C60.691-88.551 36.814-64.677 36.814-35.229C36.814-5.784 60.691 18.092 90.137 18.092C119.583 18.092 143.458-5.784 143.458-35.229C143.459-64.677 119.584-88.551 90.137-88.551ZM90.137-8.566C75.413-8.566 63.476-20.504 63.476-35.228C63.476-49.952 75.414-61.89 90.137-61.89C104.86-61.89 116.796-49.952 116.796-35.228C116.796-20.504 104.861-8.566 90.137-8.566Z"/>
  </g>
  <g id="Heavy-L" transform="matrix(1 0 0 1 2548.19 1556)">
   <path class="multicolor-0:custom SFSymbolsPreview2DCCFF" d="M88.478-87.69C59.506-87.69 36.015-64.202 36.015-35.228C36.015-6.255 59.506 17.234 88.478 17.234C117.449 17.234 140.939-6.255 140.939-35.228C140.939-64.202 117.449-87.69 88.478-87.69ZM88.478-8.997C73.993-8.997 62.247-20.743 62.247-35.228C62.247-49.714 73.993-61.458 88.478-61.458C102.964-61.458 114.707-49.714 114.707-35.228C114.708-20.743 102.964-8.997 88.478-8.997Z"/>
  </g>
  <g id="Bold-L" transform="matrix(1 0 0 1 2253.31 1556)">
   <path class="multicolor-0:custom SFSymbolsPreview2DCCFF" d="M86.67-86.831C58.173-86.831 35.067-63.727 35.067-35.228C35.067-6.732 58.172 16.373 86.67 16.373C115.166 16.373 138.271-6.731 138.271-35.228C138.271-63.727 115.166-86.831 86.67-86.831ZM86.67-9.429C72.421-9.429 60.869-20.981 60.869-35.229C60.869-49.477 72.421-61.029 86.67-61.029C100.918-61.029 112.469-49.477 112.469-35.229C112.469-20.981 100.918-9.429 86.67-9.429Z"/>
  </g>
  <g id="Semibold-L" transform="matrix(1 0 0 1 1957.87 1556)">
   <path class="multicolor-0:custom SFSymbolsPreview2DCCFF" d="M85.401-85.97C57.38-85.97 34.658-63.251 34.658-35.229C34.658-7.207 57.38 15.513 85.401 15.513C113.421 15.513 136.141-7.206 136.141-35.228C136.141-63.25 113.421-85.97 85.401-85.97ZM85.401-9.856C71.39-9.856 60.03-21.217 60.03-35.228C60.03-49.239 71.39-60.6 85.401-60.6C99.411-60.6 110.77-49.239 110.77-35.228C110.77-21.217 99.411-9.856 85.401-9.856Z"/>
  </g>
  <g id="Medium-L" transform="matrix(1 0 0 1 1662.13 1556)">
   <path class="multicolor-0:custom SFSymbolsPreview2DCCFF" d="M84.425-85.11C56.878-85.11 34.542-62.777 34.542-35.228C34.542-7.682 56.878 14.654 84.425 14.654C111.972 14.654 134.306-7.682 134.306-35.228C134.306-62.777 111.972-85.11 84.425-85.11ZM84.425-10.288C70.651-10.288 59.485-21.454 59.485-35.228C59.485-49.002 70.65-60.17 84.425-60.17C98.198-60.17 109.363-49.003 109.363-35.229C109.363-21.455 98.198-10.288 84.425-10.288Z"/>
  </g>
  <g id="Regular-L" transform="matrix(1 0 0 1 1366.67 1556)">
   <path class="multicolor-0:custom SFSymbolsPreview2DCCFF" d="M83.178-84.894C56.107-84.894 34.157-62.658 34.157-35.229C34.157-7.803 56.107 14.436 83.178 14.436C110.249 14.436 132.199-7.803 132.199-35.229C132.199-62.657 110.249-84.894 83.178-84.894ZM83.178-10.396C69.642-10.396 58.667-21.515 58.667-35.229C58.667-48.943 69.642-60.061 83.178-60.061C96.713-60.061 107.688-48.943 107.688-35.229C107.688-21.515 96.713-10.396 83.178-10.396Z"/>
  </g>
  <g id="Light-L" transform="matrix(1 0 0 1 1071.49 1556)">
   <path class="multicolor-0:custom SFSymbolsPreview2DCCFF" d="M81.615-83.39C55.019-83.39 33.454-61.827 33.454-35.229C33.454-8.632 55.019 12.932 81.615 12.932C108.211 12.932 129.776-8.632 129.776-35.229C129.776-61.827 108.212-83.39 81.615-83.39ZM81.615-11.149C68.317-11.149 57.534-21.93 57.534-35.228C57.534-48.526 68.317-59.308 81.615-59.308C94.912-59.308 105.695-48.526 105.695-35.228C105.695-21.93 94.913-11.149 81.615-11.149Z"/>
  </g>
  <g id="Thin-L" transform="matrix(1 0 0 1 776.808 1556)">
   <path class="multicolor-0:custom SFSymbolsPreview2DCCFF" d="M79.589-82.53C53.468-82.53 32.288-61.351 32.288-35.228C32.288-9.108 53.468 12.072 79.589 12.072C105.71 12.072 126.89-9.108 126.89-35.228C126.89-61.352 105.711-82.53 79.589-82.53ZM79.589-11.577C66.527-11.577 55.938-22.167 55.938-35.228C55.938-48.289 66.527-58.878 79.589-58.878C92.649-58.878 103.238-48.288 103.238-35.228C103.239-22.167 92.65-11.577 79.589-11.577Z"/>
  </g>
  <g id="Ultralight-L" transform="matrix(1 0 0 1 481.146 1556)">
   <path class="multicolor-0:custom SFSymbolsPreview2DCCFF" d="M78.614-81.668C52.968-81.668 32.174-60.877 32.174-35.229C32.174-9.583 52.968 11.211 78.614 11.211C104.26 11.211 125.054-9.583 125.054-35.229C125.054-60.877 104.26-81.668 78.614-81.668ZM78.614-12.008C65.791-12.008 55.393-22.405 55.393-35.229C55.393-48.053 65.791-58.449 78.614-58.449C91.436-58.449 101.834-48.053 101.834-35.229C101.834-22.405 91.436-12.008 78.614-12.008Z"/>
  </g>
  <g id="Black-M" transform="matrix(1 0 0 1 2862.7 1126)">
   <path class="multicolor-0:custom SFSymbolsPreview2DCCFF" d="M70.698-76.867C47.871-76.867 29.362-58.36 29.362-35.532C29.362-12.705 47.871 5.802 70.698 5.802C93.524 5.802 112.032-12.706 112.032-35.532C112.031-58.36 93.524-76.867 70.698-76.867ZM70.698-14.864C59.284-14.864 50.03-24.118 50.03-35.531C50.03-46.944 59.284-56.198 70.698-56.198C82.111-56.198 91.364-46.944 91.364-35.531C91.364-24.118 82.111-14.864 70.698-14.864Z"/>
  </g>
  <g id="Heavy-M" transform="matrix(1 0 0 1 2567.26 1126)">
   <path class="multicolor-0:custom SFSymbolsPreview2DCCFF" d="M69.407-76.2C46.948-76.2 28.738-57.992 28.738-35.532C28.738-13.074 46.948 5.135 69.407 5.135C91.865 5.135 110.074-13.074 110.074-35.532C110.074-57.992 91.865-76.2 69.407-76.2ZM69.407-15.197C58.178-15.197 49.072-24.302 49.072-35.531C49.072-46.76 58.177-55.865 69.407-55.865C80.637-55.865 89.74-46.761 89.74-35.532C89.74-24.303 80.636-15.197 69.407-15.197Z"/>
  </g>
  <g id="Bold-M" transform="matrix(1 0 0 1 2271.96 1126)">
   <path class="multicolor-0:custom SFSymbolsPreview2DCCFF" d="M68.021-75.533C45.93-75.533 28.019-57.623 28.019-35.532C28.019-13.442 45.93 4.468 68.021 4.468C90.111 4.468 108.021-13.442 108.021-35.532C108.021-57.624 90.111-75.533 68.021-75.533ZM68.021-15.531C56.975-15.531 48.02-24.486 48.02-35.531C48.02-46.576 56.975-55.531 68.021-55.531C79.066-55.531 88.02-46.576 88.02-35.531C88.02-24.486 79.066-15.531 68.021-15.531Z"/>
  </g>
  <g id="Semibold-M" transform="matrix(1 0 0 1 1976.25 1126)">
   <path class="multicolor-0:custom SFSymbolsPreview2DCCFF" d="M67.021-74.866C45.298-74.866 27.685-57.255 27.685-35.532C27.685-13.81 45.298 3.802 67.021 3.802C88.742 3.802 106.354-13.81 106.354-35.532C106.354-57.255 88.742-74.866 67.021-74.866ZM67.021-15.864C56.16-15.864 47.353-24.67 47.353-35.531C47.353-46.392 56.16-55.198 67.021-55.198C77.881-55.198 86.687-46.391 86.687-35.531C86.688-24.67 77.882-15.864 67.021-15.864Z"/>
  </g>
  <g id="Medium-M" transform="matrix(1 0 0 1 1680.27 1126)">
   <path class="multicolor-0:custom SFSymbolsPreview2DCCFF" d="M66.285-74.2C44.931-74.2 27.616-56.887 27.616-35.532C27.616-14.178 44.93 3.136 66.285 3.136C87.639 3.136 104.952-14.178 104.952-35.532C104.952-56.887 87.638-74.2 66.285-74.2ZM66.285-16.198C55.607-16.198 46.951-24.854 46.951-35.531C46.951-46.208 55.607-54.865 66.285-54.865C76.962-54.865 85.617-46.208 85.617-35.531C85.617-24.854 76.961-16.198 66.285-16.198Z"/>
  </g>
  <g id="Regular-M" transform="matrix(1 0 0 1 1384.54 1126)">
   <path class="multicolor-0:custom SFSymbolsPreview2DCCFF" d="M65.308-74.032C44.323-74.032 27.307-56.794 27.307-35.532C27.307-14.272 44.323 2.968 65.308 2.968C86.293 2.968 103.309-14.271 103.309-35.532C103.309-56.794 86.293-74.032 65.308-74.032ZM65.308-16.281C54.815-16.281 46.307-24.901 46.307-35.531C46.307-46.161 54.815-54.781 65.308-54.781C75.8-54.781 84.308-46.161 84.308-35.531C84.308-24.901 75.8-16.281 65.308-16.281Z"/>
  </g>
  <g id="Light-M" transform="matrix(1 0 0 1 1089.19 1126)">
   <path class="multicolor-0:custom SFSymbolsPreview2DCCFF" d="M63.917-72.866C43.3-72.866 26.583-56.151 26.583-35.532C26.583-14.915 43.3 1.801 63.917 1.801C84.534 1.801 101.251-14.916 101.251-35.532C101.251-56.15 84.534-72.866 63.917-72.866ZM63.917-16.865C53.608-16.865 45.25-25.222 45.25-35.532C45.25-45.842 53.609-54.199 63.917-54.199C74.225-54.199 82.584-45.841 82.584-35.532C82.584-25.223 74.225-16.865 63.917-16.865Z"/>
  </g>
  <g id="Thin-M" transform="matrix(1 0 0 1 794.313 1126)">
   <path class="multicolor-0:custom SFSymbolsPreview2DCCFF" d="M62.084-72.2C41.835-72.2 25.417-55.783 25.417-35.532C25.417-15.283 41.835 1.135 62.084 1.135C82.333 1.135 98.751-15.283 98.751-35.532C98.752-55.783 82.333-72.2 62.084-72.2ZM62.084-17.198C51.959-17.198 43.75-25.407 43.75-35.531C43.75-45.655 51.959-53.865 62.084-53.865C72.208-53.865 80.417-45.656 80.417-35.531C80.417-25.406 72.208-17.198 62.084-17.198Z"/>
  </g>
  <g id="Ultralight-M" transform="matrix(1 0 0 1 498.529 1126)">
   <path class="multicolor-0:custom SFSymbolsPreview2DCCFF" d="M61.231-71.532C41.35-71.532 25.231-55.414 25.231-35.532C25.231-15.652 41.351 0.468 61.231 0.468C81.111 0.468 97.231-15.651 97.231-35.532C97.231-55.414 81.112-71.532 61.231-71.532ZM61.231-17.531C51.291-17.531 43.23-25.591 43.23-35.531C43.23-45.472 51.291-53.531 61.231-53.531C71.171-53.531 79.231-45.471 79.231-35.531C79.231-25.591 71.171-17.531 61.231-17.531Z"/>
  </g>
  <g id="Black-S" transform="matrix(1 0 0 1 2877.69 696)">
   <path class="multicolor-0:custom SFSymbolsPreview2DCCFF" d="M55.709-67.594C37.835-67.594 23.343-53.103 23.343-35.229C23.343-17.356 37.835-2.864 55.709-2.864C73.581-2.864 88.073-17.356 88.073-35.229C88.073-53.104 73.581-67.594 55.709-67.594ZM55.709-19.046C46.771-19.046 39.525-26.292 39.525-35.229C39.525-44.166 46.771-51.412 55.709-51.412C64.646-51.412 71.89-44.166 71.89-35.229C71.89-26.292 64.645-19.046 55.709-19.046Z"/>
  </g>
  <g id="Heavy-S" transform="matrix(1 0 0 1 2581.9 696)">
   <path class="multicolor-0:custom SFSymbolsPreview2DCCFF" d="M54.767-67.072C37.182-67.072 22.923-52.815 22.923-35.229C22.923-17.644 37.182-3.386 54.767-3.386C72.352-3.386 86.609-17.644 86.609-35.229C86.609-52.815 72.352-67.072 54.767-67.072ZM54.767-19.307C45.974-19.307 38.844-26.436 38.844-35.229C38.844-44.022 45.974-51.15 54.767-51.15C63.559-51.15 70.688-44.022 70.688-35.229C70.688-26.437 63.559-19.307 54.767-19.307Z"/>
  </g>
  <g id="Bold-S" transform="matrix(1 0 0 1 2286.19 696)">
   <path class="multicolor-0:custom SFSymbolsPreview2DCCFF" d="M53.793-66.55C36.495-66.55 22.472-52.527 22.472-35.229C22.472-17.933 36.495-3.909 53.793-3.909C71.089-3.909 85.112-17.933 85.112-35.229C85.112-52.527 71.088-66.55 53.793-66.55ZM53.793-19.569C45.144-19.569 38.132-26.581 38.132-35.229C38.132-43.878 45.144-50.89 53.793-50.89C62.44-50.89 69.452-43.878 69.452-35.229C69.452-26.581 62.44-19.569 53.793-19.569Z"/>
  </g>
  <g id="Semibold-S" transform="matrix(1 0 0 1 1990.19 696)">
   <path class="multicolor-0:custom SFSymbolsPreview2DCCFF" d="M53.083-66.028C36.074-66.028 22.282-52.238 22.282-35.229C22.282-18.221 36.074-4.43 53.083-4.43C70.09-4.43 83.88-18.221 83.88-35.229C83.879-52.238 70.089-66.028 53.083-66.028ZM53.083-19.829C44.578-19.829 37.683-26.724 37.683-35.229C37.683-43.733 44.579-50.629 53.083-50.629C61.587-50.629 68.481-43.733 68.481-35.229C68.481-26.724 61.586-19.829 53.083-19.829Z"/>
  </g>
  <g id="Medium-S" transform="matrix(1 0 0 1 1694.02 696)">
   <path class="multicolor-0:custom SFSymbolsPreview2DCCFF" d="M52.535-65.506C35.814-65.506 22.257-51.95 22.257-35.229C22.257-18.509 35.815-4.952 52.535-4.952C69.255-4.952 82.811-18.509 82.811-35.229C82.811-51.95 69.254-65.506 52.535-65.506ZM52.535-20.091C44.174-20.091 37.396-26.869 37.396-35.229C37.396-43.589 44.173-50.368 52.535-50.368C60.894-50.368 67.672-43.589 67.672-35.229C67.672-26.869 60.894-20.091 52.535-20.091Z"/>
  </g>
  <g id="Regular-S" transform="matrix(1 0 0 1 1398.01 696)">
   <path class="multicolor-0:custom SFSymbolsPreview2DCCFF" d="M51.838-65.375C35.406-65.375 22.083-51.878 22.083-35.229C22.083-18.583 35.406-5.084 51.838-5.084C68.27-5.084 81.593-18.583 81.593-35.229C81.593-51.878 68.269-65.375 51.838-65.375ZM51.838-20.156C43.622-20.156 36.96-26.905 36.96-35.229C36.96-43.553 43.622-50.302 51.838-50.302C60.053-50.302 66.715-43.553 66.715-35.229C66.715-26.905 60.053-20.156 51.838-20.156Z"/>
  </g>
  <g id="Light-S" transform="matrix(1 0 0 1 1102.52 696)">
   <path class="multicolor-0:custom SFSymbolsPreview2DCCFF" d="M50.585-64.461C34.441-64.461 21.353-51.373 21.353-35.229C21.353-19.086 34.442-5.997 50.585-5.997C66.728-5.997 79.817-19.086 79.817-35.229C79.818-51.374 66.729-64.461 50.585-64.461ZM50.585-20.613C42.514-20.613 35.968-27.157 35.968-35.229C35.968-43.301 42.513-49.845 50.585-49.845C58.657-49.845 65.201-43.301 65.201-35.229C65.201-27.157 58.657-20.613 50.585-20.613Z"/>
  </g>
  <g id="Thin-S" transform="matrix(1 0 0 1 807.399 696)">
   <path class="multicolor-0:custom SFSymbolsPreview2DCCFF" d="M48.999-63.94C33.144-63.94 20.289-51.086 20.289-35.229C20.289-19.375 33.144-6.519 48.999-6.519C64.854-6.519 77.709-19.374 77.709-35.229C77.71-51.086 64.854-63.94 48.999-63.94ZM48.999-20.874C41.071-20.874 34.644-27.302 34.644-35.229C34.644-43.157 41.072-49.584 48.999-49.584C56.926-49.584 63.353-43.156 63.353-35.229C63.354-27.302 56.927-20.874 48.999-20.874Z"/>
  </g>
  <g id="Ultralight-S" transform="matrix(1 0 0 1 511.518 696)">
   <path class="multicolor-0:custom SFSymbolsPreview2DCCFF" d="M48.242-63.417C32.675-63.417 20.054-50.796 20.054-35.229C20.054-19.663 32.676-7.041 48.242-7.041C63.808-7.041 76.43-19.663 76.43-35.229C76.43-50.797 63.809-63.417 48.242-63.417ZM48.242-21.135C40.459-21.135 34.147-27.446 34.147-35.229C34.147-43.013 40.459-49.323 48.242-49.323C56.025-49.323 62.336-43.012 62.336-35.229C62.336-27.446 56.025-21.135 48.242-21.135Z"/>
  </g>
 </g>
</svg>
